;TYPE=PLATED
;Layer: PTH_Through
;EasyEDA Pro v2.1.57.773a98f1.225d47, 2024-05-26 20:13:27
;Gerber Generator version 0.3
M48
METRIC,LZ,000.00000
;Hole size 1 = 0.30000 METRIC
T01C0.30000
;Hole size 2 = 1.00000 METRIC
T02C1.00000
;Hole size 3 = 1.09982 METRIC
T03C1.09982
;Hole size 4 = 1.10002 METRIC
T04C1.10002
%
G05
G90
T01
X01409700Y-00977900
X01060130Y-01327470
X01147506Y-01227394
X00990600Y-01473200
X01079500Y-01473200
X01168400Y-01473200
X01828800Y-00914400
X01892300Y-00965200
X02032000Y-01231900
X02209800Y-01231900
X00660400Y-01549400
X01905000Y-01803400
X01701800Y-01930400
X01981200Y-00673100
X02032000Y-01130300
X01168400Y-01676400
X01193800Y-01028700
X01724968Y-01826568
X01943100Y-03479800
X01981200Y-03759200
X03060700Y-00546100
X03171598Y-00546100
X01509753Y-01454723
X01509753Y-01348106
X02259770Y-01358087
X02311400Y-01397000
X01128249Y-00652187
X01073538Y-00698481
X01180857Y-00702690
X01829137Y-01461387
X01830540Y-01349158
X01823554Y-02099861
X02362200Y-00596900
X02552700Y-03759200
X01854200Y-03479800
X03060700Y-02476500
X03009900Y-02857500
X00685800Y-00482600
X00762000Y-00482600
X01524000Y-03708400
X01079500Y-03619500
X01168461Y-03619500
X02209800Y-01308100
X01575108Y-00978208
X01625600Y-00927100
X01676400Y-00965200
X01524000Y-00850900
X02235200Y-00673100
X02565400Y-01016000
X02159000Y-01016000
X02159000Y-01067490
X00753259Y-02915795
X01003300Y-03479800
X00596900Y-02603500
X00939800Y-03517900
X00342900Y-02400300
X00876300Y-03543300
X00368300Y-03510947
X00088900Y-01739900
X00558800Y-01981200
X01244600Y-03746500
X02552700Y-01409700
X02730500Y-01879600
X02413000Y-02070100
X02857500Y-02768600
X02819400Y-01524000
X02794000Y-02921000
X01778000Y-02159000
X01244600Y-02260600
X00901700Y-03886200
X01232331Y-03883922
X02168279Y-03616079
X02374900Y-02235200
X01923762Y-02317769
X01562100Y-02387600
X02260600Y-02082800
X01224382Y-00546100
X02425700Y-01943100
X02476500Y-01892300
X00647700Y-02032000
X01206500Y-02032000
X01775006Y-00962206
X01724968Y-00914400
X02908300Y-03289300
X02133874Y-02525219
X02133662Y-02447239
X02134589Y-02607498
X01504803Y-01244801
X01507583Y-01568098
X01612955Y-01456241
X01614808Y-01353416
X01613882Y-01246885
X01613882Y-01569617
X01826171Y-01570080
T02
X03120000Y-03373000
X03120000Y-03627000
X00180000Y-03627000
X00180000Y-03373000
T03
X00180000Y-00546100
X00180000Y-00800100
X00180000Y-01054100
X00180000Y-01308100
T04
X02666000Y-00200000
X02412000Y-00200000
X02158000Y-00200000
X01904000Y-00200000
X01650000Y-00200000
X01396000Y-00200000
X01142000Y-00200000
X00888000Y-00200000
X00634000Y-00200000
M30