G04 Layer: DrillDrawingLayer*
G04 EasyEDA Pro v2.1.57.773a98f1.225d47, 2024-05-26 20:13:26*
G04 Gerber Generator version 0.3*
G04 Scale: 100 percent, Rotated: No, Reflected: No*
G04 Dimensions in millimeters*
G04 Leading zeros omitted, absolute positions, 3 integers and 5 decimals*
%FSLAX35Y35*%
%MOMM*%
%ADD10C,0.254*%
G75*


G04 Image Start*
G36*
G01X3100070Y-3353054D02*
G01X3100070Y-3356712D01*
G01X3103677D01*
G01X3136290D01*
G01Y-3389325D01*
G01X3103677D01*
G01Y-3356712D01*
G01X3100070D01*
G01Y-3392932D01*
G01X3139948D01*
G01Y-3353054D01*
G37*
G36*
G01X3100070Y-3607054D02*
G01X3100070Y-3610712D01*
G01X3103677D01*
G01X3136290D01*
G01Y-3643325D01*
G01X3103677D01*
G01Y-3610712D01*
G01X3100070D01*
G01Y-3646932D01*
G01X3139948D01*
G01Y-3607054D01*
G37*
G36*
G01X160071Y-3607054D02*
G01X160071Y-3610712D01*
G01X163678D01*
G01X196291D01*
G01Y-3643325D01*
G01X163678D01*
G01Y-3610712D01*
G01X160071D01*
G01Y-3646932D01*
G01X199949D01*
G01Y-3607054D01*
G37*
G36*
G01X160071Y-3353054D02*
G01X160071Y-3356712D01*
G01X163678D01*
G01X196291D01*
G01Y-3389325D01*
G01X163678D01*
G01Y-3356712D01*
G01X160071D01*
G01Y-3392932D01*
G01X199949D01*
G01Y-3353054D01*
G37*
G36*
G01X179984Y-526136D02*
G01X177952Y-526288D01*
G01X175971Y-526542D01*
G01X174092Y-527050D01*
G01X172263Y-527710D01*
G01X170485Y-528574D01*
G01X168859Y-529590D01*
G01X167335Y-530708D01*
G01X165913Y-531978D01*
G01X164592Y-533400D01*
G01X163474Y-534975D01*
G01X162458Y-536600D01*
G01X161646Y-538328D01*
G01X160934Y-540156D01*
G01X160477Y-542087D01*
G01X160172Y-544068D01*
G01X160071Y-546100D01*
G01X163373D01*
G01X163474Y-544424D01*
G01X163728Y-542747D01*
G01X164135Y-541172D01*
G01X164694Y-539648D01*
G01X165405Y-538175D01*
G01X166218Y-536804D01*
G01X167183Y-535534D01*
G01X168250Y-534365D01*
G01X169418Y-533298D01*
G01X170739Y-532333D01*
G01X172110Y-531470D01*
G01X173533Y-530809D01*
G01X175057Y-530250D01*
G01X176632Y-529844D01*
G01X178308Y-529590D01*
G01X179984Y-529488D01*
G01X181712Y-529590D01*
G01X183337Y-529844D01*
G01X184912Y-530250D01*
G01X186436Y-530809D01*
G01X187909Y-531470D01*
G01X189281Y-532333D01*
G01X190551Y-533298D01*
G01X191719Y-534365D01*
G01X192837Y-535534D01*
G01X193751Y-536804D01*
G01X194615Y-538175D01*
G01X195326Y-539648D01*
G01X195885Y-541172D01*
G01X196291Y-542747D01*
G01X196545Y-544424D01*
G01X196596Y-546100D01*
G01X196545Y-547776D01*
G01X196291Y-549453D01*
G01X195885Y-551028D01*
G01X195326Y-552552D01*
G01X194615Y-554025D01*
G01X193751Y-555396D01*
G01X192837Y-556666D01*
G01X191719Y-557835D01*
G01X190551Y-558902D01*
G01X189281Y-559867D01*
G01X187909Y-560730D01*
G01X186436Y-561391D01*
G01X184912Y-561950D01*
G01X183337Y-562356D01*
G01X181712Y-562610D01*
G01X179984Y-562712D01*
G01X178308Y-562610D01*
G01X176632Y-562356D01*
G01X175057Y-561950D01*
G01X173533Y-561391D01*
G01X172110Y-560730D01*
G01X170739Y-559867D01*
G01X169418Y-558902D01*
G01X168250Y-557835D01*
G01X167183Y-556666D01*
G01X166218Y-555396D01*
G01X165405Y-554025D01*
G01X164694Y-552552D01*
G01X164135Y-551028D01*
G01X163728Y-549453D01*
G01X163474Y-547776D01*
G01X163373Y-546100D01*
G01X160071D01*
G01X160172Y-548132D01*
G01X160477Y-550113D01*
G01X160934Y-552044D01*
G01X161646Y-553872D01*
G01X162458Y-555600D01*
G01X163474Y-557225D01*
G01X164592Y-558800D01*
G01X165913Y-560222D01*
G01X167335Y-561492D01*
G01X168859Y-562610D01*
G01X170485Y-563626D01*
G01X172263Y-564490D01*
G01X174092Y-565150D01*
G01X175971Y-565658D01*
G01X177952Y-565912D01*
G01X179984Y-566014D01*
G01X182016Y-565912D01*
G01X183998Y-565658D01*
G01X185928Y-565150D01*
G01X187757Y-564490D01*
G01X189484Y-563626D01*
G01X191160Y-562610D01*
G01X192684Y-561492D01*
G01X194107Y-560222D01*
G01X195377Y-558800D01*
G01X196545Y-557225D01*
G01X197510Y-555600D01*
G01X198374Y-553872D01*
G01X199034Y-552044D01*
G01X199542Y-550113D01*
G01X199847Y-548132D01*
G01X199949Y-546100D01*
G01X199847Y-544068D01*
G01X199542Y-542087D01*
G01X199034Y-540156D01*
G01X198374Y-538328D01*
G01X197510Y-536600D01*
G01X196545Y-534975D01*
G01X195377Y-533400D01*
G01X194107Y-531978D01*
G01X192684Y-530708D01*
G01X191160Y-529590D01*
G01X189484Y-528574D01*
G01X187757Y-527710D01*
G01X185928Y-527050D01*
G01X183998Y-526542D01*
G01X182016Y-526288D01*
G37*
G36*
G01X179984Y-780136D02*
G01X177952Y-780288D01*
G01X175971Y-780542D01*
G01X174092Y-781050D01*
G01X172263Y-781710D01*
G01X170485Y-782574D01*
G01X168859Y-783590D01*
G01X167335Y-784708D01*
G01X165913Y-785978D01*
G01X164592Y-787400D01*
G01X163474Y-788975D01*
G01X162458Y-790600D01*
G01X161646Y-792328D01*
G01X160934Y-794156D01*
G01X160477Y-796087D01*
G01X160172Y-798068D01*
G01X160071Y-800100D01*
G01X163373D01*
G01X163474Y-798424D01*
G01X163728Y-796747D01*
G01X164135Y-795172D01*
G01X164694Y-793648D01*
G01X165405Y-792175D01*
G01X166218Y-790804D01*
G01X167183Y-789534D01*
G01X168250Y-788365D01*
G01X169418Y-787298D01*
G01X170739Y-786333D01*
G01X172110Y-785470D01*
G01X173533Y-784809D01*
G01X175057Y-784250D01*
G01X176632Y-783844D01*
G01X178308Y-783590D01*
G01X179984Y-783488D01*
G01X181712Y-783590D01*
G01X183337Y-783844D01*
G01X184912Y-784250D01*
G01X186436Y-784809D01*
G01X187909Y-785470D01*
G01X189281Y-786333D01*
G01X190551Y-787298D01*
G01X191719Y-788365D01*
G01X192837Y-789534D01*
G01X193751Y-790804D01*
G01X194615Y-792175D01*
G01X195326Y-793648D01*
G01X195885Y-795172D01*
G01X196291Y-796747D01*
G01X196545Y-798424D01*
G01X196596Y-800100D01*
G01X196545Y-801776D01*
G01X196291Y-803453D01*
G01X195885Y-805028D01*
G01X195326Y-806552D01*
G01X194615Y-808025D01*
G01X193751Y-809396D01*
G01X192837Y-810666D01*
G01X191719Y-811835D01*
G01X190551Y-812902D01*
G01X189281Y-813867D01*
G01X187909Y-814730D01*
G01X186436Y-815391D01*
G01X184912Y-815950D01*
G01X183337Y-816356D01*
G01X181712Y-816610D01*
G01X179984Y-816712D01*
G01X178308Y-816610D01*
G01X176632Y-816356D01*
G01X175057Y-815950D01*
G01X173533Y-815391D01*
G01X172110Y-814730D01*
G01X170739Y-813867D01*
G01X169418Y-812902D01*
G01X168250Y-811835D01*
G01X167183Y-810666D01*
G01X166218Y-809396D01*
G01X165405Y-808025D01*
G01X164694Y-806552D01*
G01X164135Y-805028D01*
G01X163728Y-803453D01*
G01X163474Y-801776D01*
G01X163373Y-800100D01*
G01X160071D01*
G01X160172Y-802132D01*
G01X160477Y-804113D01*
G01X160934Y-806044D01*
G01X161646Y-807872D01*
G01X162458Y-809600D01*
G01X163474Y-811225D01*
G01X164592Y-812800D01*
G01X165913Y-814222D01*
G01X167335Y-815492D01*
G01X168859Y-816610D01*
G01X170485Y-817626D01*
G01X172263Y-818490D01*
G01X174092Y-819150D01*
G01X175971Y-819658D01*
G01X177952Y-819912D01*
G01X179984Y-820014D01*
G01X182016Y-819912D01*
G01X183998Y-819658D01*
G01X185928Y-819150D01*
G01X187757Y-818490D01*
G01X189484Y-817626D01*
G01X191160Y-816610D01*
G01X192684Y-815492D01*
G01X194107Y-814222D01*
G01X195377Y-812800D01*
G01X196545Y-811225D01*
G01X197510Y-809600D01*
G01X198374Y-807872D01*
G01X199034Y-806044D01*
G01X199542Y-804113D01*
G01X199847Y-802132D01*
G01X199949Y-800100D01*
G01X199847Y-798068D01*
G01X199542Y-796087D01*
G01X199034Y-794156D01*
G01X198374Y-792328D01*
G01X197510Y-790600D01*
G01X196545Y-788975D01*
G01X195377Y-787400D01*
G01X194107Y-785978D01*
G01X192684Y-784708D01*
G01X191160Y-783590D01*
G01X189484Y-782574D01*
G01X187757Y-781710D01*
G01X185928Y-781050D01*
G01X183998Y-780542D01*
G01X182016Y-780288D01*
G37*
G36*
G01X179984Y-1034136D02*
G01X177952Y-1034288D01*
G01X175971Y-1034542D01*
G01X174092Y-1035050D01*
G01X172263Y-1035710D01*
G01X170485Y-1036574D01*
G01X168859Y-1037590D01*
G01X167335Y-1038708D01*
G01X165913Y-1039978D01*
G01X164592Y-1041400D01*
G01X163474Y-1042975D01*
G01X162458Y-1044600D01*
G01X161646Y-1046328D01*
G01X160934Y-1048156D01*
G01X160477Y-1050087D01*
G01X160172Y-1052068D01*
G01X160071Y-1054100D01*
G01X163373D01*
G01X163474Y-1052424D01*
G01X163728Y-1050747D01*
G01X164135Y-1049172D01*
G01X164694Y-1047648D01*
G01X165405Y-1046175D01*
G01X166218Y-1044804D01*
G01X167183Y-1043534D01*
G01X168250Y-1042365D01*
G01X169418Y-1041298D01*
G01X170739Y-1040333D01*
G01X172110Y-1039470D01*
G01X173533Y-1038809D01*
G01X175057Y-1038250D01*
G01X176632Y-1037844D01*
G01X178308Y-1037590D01*
G01X179984Y-1037488D01*
G01X181712Y-1037590D01*
G01X183337Y-1037844D01*
G01X184912Y-1038250D01*
G01X186436Y-1038809D01*
G01X187909Y-1039470D01*
G01X189281Y-1040333D01*
G01X190551Y-1041298D01*
G01X191719Y-1042365D01*
G01X192837Y-1043534D01*
G01X193751Y-1044804D01*
G01X194615Y-1046175D01*
G01X195326Y-1047648D01*
G01X195885Y-1049172D01*
G01X196291Y-1050747D01*
G01X196545Y-1052424D01*
G01X196596Y-1054100D01*
G01X196545Y-1055776D01*
G01X196291Y-1057453D01*
G01X195885Y-1059028D01*
G01X195326Y-1060552D01*
G01X194615Y-1062025D01*
G01X193751Y-1063396D01*
G01X192837Y-1064666D01*
G01X191719Y-1065835D01*
G01X190551Y-1066902D01*
G01X189281Y-1067867D01*
G01X187909Y-1068730D01*
G01X186436Y-1069391D01*
G01X184912Y-1069950D01*
G01X183337Y-1070356D01*
G01X181712Y-1070610D01*
G01X179984Y-1070712D01*
G01X178308Y-1070610D01*
G01X176632Y-1070356D01*
G01X175057Y-1069950D01*
G01X173533Y-1069391D01*
G01X172110Y-1068730D01*
G01X170739Y-1067867D01*
G01X169418Y-1066902D01*
G01X168250Y-1065835D01*
G01X167183Y-1064666D01*
G01X166218Y-1063396D01*
G01X165405Y-1062025D01*
G01X164694Y-1060552D01*
G01X164135Y-1059028D01*
G01X163728Y-1057453D01*
G01X163474Y-1055776D01*
G01X163373Y-1054100D01*
G01X160071D01*
G01X160172Y-1056132D01*
G01X160477Y-1058113D01*
G01X160934Y-1060044D01*
G01X161646Y-1061872D01*
G01X162458Y-1063600D01*
G01X163474Y-1065225D01*
G01X164592Y-1066800D01*
G01X165913Y-1068222D01*
G01X167335Y-1069492D01*
G01X168859Y-1070610D01*
G01X170485Y-1071626D01*
G01X172263Y-1072490D01*
G01X174092Y-1073150D01*
G01X175971Y-1073658D01*
G01X177952Y-1073912D01*
G01X179984Y-1074014D01*
G01X182016Y-1073912D01*
G01X183998Y-1073658D01*
G01X185928Y-1073150D01*
G01X187757Y-1072490D01*
G01X189484Y-1071626D01*
G01X191160Y-1070610D01*
G01X192684Y-1069492D01*
G01X194107Y-1068222D01*
G01X195377Y-1066800D01*
G01X196545Y-1065225D01*
G01X197510Y-1063600D01*
G01X198374Y-1061872D01*
G01X199034Y-1060044D01*
G01X199542Y-1058113D01*
G01X199847Y-1056132D01*
G01X199949Y-1054100D01*
G01X199847Y-1052068D01*
G01X199542Y-1050087D01*
G01X199034Y-1048156D01*
G01X198374Y-1046328D01*
G01X197510Y-1044600D01*
G01X196545Y-1042975D01*
G01X195377Y-1041400D01*
G01X194107Y-1039978D01*
G01X192684Y-1038708D01*
G01X191160Y-1037590D01*
G01X189484Y-1036574D01*
G01X187757Y-1035710D01*
G01X185928Y-1035050D01*
G01X183998Y-1034542D01*
G01X182016Y-1034288D01*
G37*
G36*
G01X179984Y-1288136D02*
G01X177952Y-1288288D01*
G01X175971Y-1288542D01*
G01X174092Y-1289050D01*
G01X172263Y-1289710D01*
G01X170485Y-1290574D01*
G01X168859Y-1291590D01*
G01X167335Y-1292708D01*
G01X165913Y-1293978D01*
G01X164592Y-1295400D01*
G01X163474Y-1296975D01*
G01X162458Y-1298600D01*
G01X161646Y-1300328D01*
G01X160934Y-1302156D01*
G01X160477Y-1304087D01*
G01X160172Y-1306068D01*
G01X160071Y-1308100D01*
G01X163373D01*
G01X163474Y-1306424D01*
G01X163728Y-1304747D01*
G01X164135Y-1303172D01*
G01X164694Y-1301648D01*
G01X165405Y-1300175D01*
G01X166218Y-1298804D01*
G01X167183Y-1297534D01*
G01X168250Y-1296365D01*
G01X169418Y-1295298D01*
G01X170739Y-1294333D01*
G01X172110Y-1293470D01*
G01X173533Y-1292809D01*
G01X175057Y-1292250D01*
G01X176632Y-1291844D01*
G01X178308Y-1291590D01*
G01X179984Y-1291488D01*
G01X181712Y-1291590D01*
G01X183337Y-1291844D01*
G01X184912Y-1292250D01*
G01X186436Y-1292809D01*
G01X187909Y-1293470D01*
G01X189281Y-1294333D01*
G01X190551Y-1295298D01*
G01X191719Y-1296365D01*
G01X192837Y-1297534D01*
G01X193751Y-1298804D01*
G01X194615Y-1300175D01*
G01X195326Y-1301648D01*
G01X195885Y-1303172D01*
G01X196291Y-1304747D01*
G01X196545Y-1306424D01*
G01X196596Y-1308100D01*
G01X196545Y-1309776D01*
G01X196291Y-1311453D01*
G01X195885Y-1313028D01*
G01X195326Y-1314552D01*
G01X194615Y-1316025D01*
G01X193751Y-1317396D01*
G01X192837Y-1318666D01*
G01X191719Y-1319835D01*
G01X190551Y-1320902D01*
G01X189281Y-1321867D01*
G01X187909Y-1322730D01*
G01X186436Y-1323391D01*
G01X184912Y-1323950D01*
G01X183337Y-1324356D01*
G01X181712Y-1324610D01*
G01X179984Y-1324712D01*
G01X178308Y-1324610D01*
G01X176632Y-1324356D01*
G01X175057Y-1323950D01*
G01X173533Y-1323391D01*
G01X172110Y-1322730D01*
G01X170739Y-1321867D01*
G01X169418Y-1320902D01*
G01X168250Y-1319835D01*
G01X167183Y-1318666D01*
G01X166218Y-1317396D01*
G01X165405Y-1316025D01*
G01X164694Y-1314552D01*
G01X164135Y-1313028D01*
G01X163728Y-1311453D01*
G01X163474Y-1309776D01*
G01X163373Y-1308100D01*
G01X160071D01*
G01X160172Y-1310132D01*
G01X160477Y-1312113D01*
G01X160934Y-1314044D01*
G01X161646Y-1315872D01*
G01X162458Y-1317600D01*
G01X163474Y-1319225D01*
G01X164592Y-1320800D01*
G01X165913Y-1322222D01*
G01X167335Y-1323492D01*
G01X168859Y-1324610D01*
G01X170485Y-1325626D01*
G01X172263Y-1326490D01*
G01X174092Y-1327150D01*
G01X175971Y-1327658D01*
G01X177952Y-1327912D01*
G01X179984Y-1328014D01*
G01X182016Y-1327912D01*
G01X183998Y-1327658D01*
G01X185928Y-1327150D01*
G01X187757Y-1326490D01*
G01X189484Y-1325626D01*
G01X191160Y-1324610D01*
G01X192684Y-1323492D01*
G01X194107Y-1322222D01*
G01X195377Y-1320800D01*
G01X196545Y-1319225D01*
G01X197510Y-1317600D01*
G01X198374Y-1315872D01*
G01X199034Y-1314044D01*
G01X199542Y-1312113D01*
G01X199847Y-1310132D01*
G01X199949Y-1308100D01*
G01X199847Y-1306068D01*
G01X199542Y-1304087D01*
G01X199034Y-1302156D01*
G01X198374Y-1300328D01*
G01X197510Y-1298600D01*
G01X196545Y-1296975D01*
G01X195377Y-1295400D01*
G01X194107Y-1293978D01*
G01X192684Y-1292708D01*
G01X191160Y-1291590D01*
G01X189484Y-1290574D01*
G01X187757Y-1289710D01*
G01X185928Y-1289050D01*
G01X183998Y-1288542D01*
G01X182016Y-1288288D01*
G37*
G36*
G01X2665984Y-180086D02*
G01X2663952Y-180188D01*
G01X2661971Y-180442D01*
G01X2660091Y-180950D01*
G01X2658262Y-181610D01*
G01X2656484Y-182474D01*
G01X2654859Y-183490D01*
G01X2653335Y-184607D01*
G01X2651912Y-185877D01*
G01X2650592Y-187300D01*
G01X2649474Y-188874D01*
G01X2648458Y-190500D01*
G01X2647645Y-192227D01*
G01X2646934Y-194056D01*
G01X2646477Y-195986D01*
G01X2646172Y-197968D01*
G01X2646070Y-200000D01*
G01X2649372D01*
G01X2649474Y-198323D01*
G01X2649728Y-196647D01*
G01X2650134Y-195072D01*
G01X2650693Y-193548D01*
G01X2651404Y-192075D01*
G01X2652217Y-190703D01*
G01X2653182Y-189433D01*
G01X2654249Y-188265D01*
G01X2655418Y-187198D01*
G01X2656738Y-186233D01*
G01X2658110Y-185369D01*
G01X2659532Y-184709D01*
G01X2661056Y-184150D01*
G01X2662631Y-183744D01*
G01X2664308Y-183490D01*
G01X2665984Y-183388D01*
G01X2667711Y-183490D01*
G01X2669337Y-183744D01*
G01X2670912Y-184150D01*
G01X2672486Y-184709D01*
G01X2673909Y-185369D01*
G01X2675280Y-186233D01*
G01X2676550Y-187198D01*
G01X2677719Y-188265D01*
G01X2678836Y-189433D01*
G01X2679751Y-190703D01*
G01X2680614Y-192075D01*
G01X2681326Y-193548D01*
G01X2681884Y-195072D01*
G01X2682291Y-196647D01*
G01X2682545Y-198323D01*
G01X2682596Y-200000D01*
G01X2682545Y-201676D01*
G01X2682291Y-203352D01*
G01X2681884Y-204927D01*
G01X2681326Y-206451D01*
G01X2680614Y-207924D01*
G01X2679751Y-209296D01*
G01X2678836Y-210566D01*
G01X2677719Y-211734D01*
G01X2676550Y-212801D01*
G01X2675280Y-213766D01*
G01X2673909Y-214630D01*
G01X2672486Y-215290D01*
G01X2670912Y-215849D01*
G01X2669337Y-216256D01*
G01X2667711Y-216510D01*
G01X2665984Y-216611D01*
G01X2664308Y-216510D01*
G01X2662631Y-216256D01*
G01X2661056Y-215849D01*
G01X2659532Y-215290D01*
G01X2658110Y-214630D01*
G01X2656738Y-213766D01*
G01X2655418Y-212801D01*
G01X2654249Y-211734D01*
G01X2653182Y-210566D01*
G01X2652217Y-209296D01*
G01X2651404Y-207924D01*
G01X2650693Y-206451D01*
G01X2650134Y-204927D01*
G01X2649728Y-203352D01*
G01X2649474Y-201676D01*
G01X2649372Y-200000D01*
G01X2646070D01*
G01X2646172Y-202032D01*
G01X2646477Y-204013D01*
G01X2646934Y-205943D01*
G01X2647645Y-207772D01*
G01X2648458Y-209499D01*
G01X2649474Y-211125D01*
G01X2650592Y-212700D01*
G01X2651912Y-214122D01*
G01X2653335Y-215392D01*
G01X2654859Y-216510D01*
G01X2656484Y-217526D01*
G01X2658262Y-218389D01*
G01X2660091Y-219050D01*
G01X2661971Y-219558D01*
G01X2663952Y-219812D01*
G01X2665984Y-219964D01*
G01X2668016Y-219812D01*
G01X2669997Y-219558D01*
G01X2671928Y-219050D01*
G01X2673756Y-218389D01*
G01X2675484Y-217526D01*
G01X2677160Y-216510D01*
G01X2678684Y-215392D01*
G01X2680106Y-214122D01*
G01X2681376Y-212700D01*
G01X2682545Y-211125D01*
G01X2683510Y-209499D01*
G01X2684374Y-207772D01*
G01X2685034Y-205943D01*
G01X2685542Y-204013D01*
G01X2685847Y-202032D01*
G01X2685948Y-200000D01*
G01X2685847Y-197968D01*
G01X2685542Y-195986D01*
G01X2685034Y-194056D01*
G01X2684374Y-192227D01*
G01X2683510Y-190500D01*
G01X2682545Y-188874D01*
G01X2681376Y-187300D01*
G01X2680106Y-185877D01*
G01X2678684Y-184607D01*
G01X2677160Y-183490D01*
G01X2675484Y-182474D01*
G01X2673756Y-181610D01*
G01X2671928Y-180950D01*
G01X2669997Y-180442D01*
G01X2668016Y-180188D01*
G37*
G36*
G01X2411984Y-180086D02*
G01X2409952Y-180188D01*
G01X2407971Y-180442D01*
G01X2406091Y-180950D01*
G01X2404262Y-181610D01*
G01X2402484Y-182474D01*
G01X2400859Y-183490D01*
G01X2399335Y-184607D01*
G01X2397912Y-185877D01*
G01X2396592Y-187300D01*
G01X2395474Y-188874D01*
G01X2394458Y-190500D01*
G01X2393645Y-192227D01*
G01X2392934Y-194056D01*
G01X2392477Y-195986D01*
G01X2392172Y-197968D01*
G01X2392070Y-200000D01*
G01X2395372D01*
G01X2395474Y-198323D01*
G01X2395728Y-196647D01*
G01X2396134Y-195072D01*
G01X2396693Y-193548D01*
G01X2397404Y-192075D01*
G01X2398217Y-190703D01*
G01X2399182Y-189433D01*
G01X2400249Y-188265D01*
G01X2401418Y-187198D01*
G01X2402738Y-186233D01*
G01X2404110Y-185369D01*
G01X2405532Y-184709D01*
G01X2407056Y-184150D01*
G01X2408631Y-183744D01*
G01X2410308Y-183490D01*
G01X2411984Y-183388D01*
G01X2413711Y-183490D01*
G01X2415337Y-183744D01*
G01X2416912Y-184150D01*
G01X2418486Y-184709D01*
G01X2419909Y-185369D01*
G01X2421280Y-186233D01*
G01X2422550Y-187198D01*
G01X2423719Y-188265D01*
G01X2424836Y-189433D01*
G01X2425751Y-190703D01*
G01X2426614Y-192075D01*
G01X2427326Y-193548D01*
G01X2427884Y-195072D01*
G01X2428291Y-196647D01*
G01X2428545Y-198323D01*
G01X2428596Y-200000D01*
G01X2428545Y-201676D01*
G01X2428291Y-203352D01*
G01X2427884Y-204927D01*
G01X2427326Y-206451D01*
G01X2426614Y-207924D01*
G01X2425751Y-209296D01*
G01X2424836Y-210566D01*
G01X2423719Y-211734D01*
G01X2422550Y-212801D01*
G01X2421280Y-213766D01*
G01X2419909Y-214630D01*
G01X2418486Y-215290D01*
G01X2416912Y-215849D01*
G01X2415337Y-216256D01*
G01X2413711Y-216510D01*
G01X2411984Y-216611D01*
G01X2410308Y-216510D01*
G01X2408631Y-216256D01*
G01X2407056Y-215849D01*
G01X2405532Y-215290D01*
G01X2404110Y-214630D01*
G01X2402738Y-213766D01*
G01X2401418Y-212801D01*
G01X2400249Y-211734D01*
G01X2399182Y-210566D01*
G01X2398217Y-209296D01*
G01X2397404Y-207924D01*
G01X2396693Y-206451D01*
G01X2396134Y-204927D01*
G01X2395728Y-203352D01*
G01X2395474Y-201676D01*
G01X2395372Y-200000D01*
G01X2392070D01*
G01X2392172Y-202032D01*
G01X2392477Y-204013D01*
G01X2392934Y-205943D01*
G01X2393645Y-207772D01*
G01X2394458Y-209499D01*
G01X2395474Y-211125D01*
G01X2396592Y-212700D01*
G01X2397912Y-214122D01*
G01X2399335Y-215392D01*
G01X2400859Y-216510D01*
G01X2402484Y-217526D01*
G01X2404262Y-218389D01*
G01X2406091Y-219050D01*
G01X2407971Y-219558D01*
G01X2409952Y-219812D01*
G01X2411984Y-219964D01*
G01X2414016Y-219812D01*
G01X2415997Y-219558D01*
G01X2417928Y-219050D01*
G01X2419756Y-218389D01*
G01X2421484Y-217526D01*
G01X2423160Y-216510D01*
G01X2424684Y-215392D01*
G01X2426106Y-214122D01*
G01X2427376Y-212700D01*
G01X2428545Y-211125D01*
G01X2429510Y-209499D01*
G01X2430374Y-207772D01*
G01X2431034Y-205943D01*
G01X2431542Y-204013D01*
G01X2431847Y-202032D01*
G01X2431948Y-200000D01*
G01X2431847Y-197968D01*
G01X2431542Y-195986D01*
G01X2431034Y-194056D01*
G01X2430374Y-192227D01*
G01X2429510Y-190500D01*
G01X2428545Y-188874D01*
G01X2427376Y-187300D01*
G01X2426106Y-185877D01*
G01X2424684Y-184607D01*
G01X2423160Y-183490D01*
G01X2421484Y-182474D01*
G01X2419756Y-181610D01*
G01X2417928Y-180950D01*
G01X2415997Y-180442D01*
G01X2414016Y-180188D01*
G37*
G36*
G01X2157984Y-180086D02*
G01X2155952Y-180188D01*
G01X2153971Y-180442D01*
G01X2152091Y-180950D01*
G01X2150262Y-181610D01*
G01X2148484Y-182474D01*
G01X2146859Y-183490D01*
G01X2145335Y-184607D01*
G01X2143912Y-185877D01*
G01X2142592Y-187300D01*
G01X2141474Y-188874D01*
G01X2140458Y-190500D01*
G01X2139645Y-192227D01*
G01X2138934Y-194056D01*
G01X2138477Y-195986D01*
G01X2138172Y-197968D01*
G01X2138070Y-200000D01*
G01X2141372D01*
G01X2141474Y-198323D01*
G01X2141728Y-196647D01*
G01X2142134Y-195072D01*
G01X2142693Y-193548D01*
G01X2143404Y-192075D01*
G01X2144217Y-190703D01*
G01X2145182Y-189433D01*
G01X2146249Y-188265D01*
G01X2147418Y-187198D01*
G01X2148738Y-186233D01*
G01X2150110Y-185369D01*
G01X2151532Y-184709D01*
G01X2153056Y-184150D01*
G01X2154631Y-183744D01*
G01X2156308Y-183490D01*
G01X2157984Y-183388D01*
G01X2159711Y-183490D01*
G01X2161337Y-183744D01*
G01X2162912Y-184150D01*
G01X2164486Y-184709D01*
G01X2165909Y-185369D01*
G01X2167280Y-186233D01*
G01X2168550Y-187198D01*
G01X2169719Y-188265D01*
G01X2170836Y-189433D01*
G01X2171751Y-190703D01*
G01X2172614Y-192075D01*
G01X2173326Y-193548D01*
G01X2173884Y-195072D01*
G01X2174291Y-196647D01*
G01X2174545Y-198323D01*
G01X2174596Y-200000D01*
G01X2174545Y-201676D01*
G01X2174291Y-203352D01*
G01X2173884Y-204927D01*
G01X2173326Y-206451D01*
G01X2172614Y-207924D01*
G01X2171751Y-209296D01*
G01X2170836Y-210566D01*
G01X2169719Y-211734D01*
G01X2168550Y-212801D01*
G01X2167280Y-213766D01*
G01X2165909Y-214630D01*
G01X2164486Y-215290D01*
G01X2162912Y-215849D01*
G01X2161337Y-216256D01*
G01X2159711Y-216510D01*
G01X2157984Y-216611D01*
G01X2156308Y-216510D01*
G01X2154631Y-216256D01*
G01X2153056Y-215849D01*
G01X2151532Y-215290D01*
G01X2150110Y-214630D01*
G01X2148738Y-213766D01*
G01X2147418Y-212801D01*
G01X2146249Y-211734D01*
G01X2145182Y-210566D01*
G01X2144217Y-209296D01*
G01X2143404Y-207924D01*
G01X2142693Y-206451D01*
G01X2142134Y-204927D01*
G01X2141728Y-203352D01*
G01X2141474Y-201676D01*
G01X2141372Y-200000D01*
G01X2138070D01*
G01X2138172Y-202032D01*
G01X2138477Y-204013D01*
G01X2138934Y-205943D01*
G01X2139645Y-207772D01*
G01X2140458Y-209499D01*
G01X2141474Y-211125D01*
G01X2142592Y-212700D01*
G01X2143912Y-214122D01*
G01X2145335Y-215392D01*
G01X2146859Y-216510D01*
G01X2148484Y-217526D01*
G01X2150262Y-218389D01*
G01X2152091Y-219050D01*
G01X2153971Y-219558D01*
G01X2155952Y-219812D01*
G01X2157984Y-219964D01*
G01X2160016Y-219812D01*
G01X2161997Y-219558D01*
G01X2163928Y-219050D01*
G01X2165756Y-218389D01*
G01X2167484Y-217526D01*
G01X2169160Y-216510D01*
G01X2170684Y-215392D01*
G01X2172106Y-214122D01*
G01X2173376Y-212700D01*
G01X2174545Y-211125D01*
G01X2175510Y-209499D01*
G01X2176374Y-207772D01*
G01X2177034Y-205943D01*
G01X2177542Y-204013D01*
G01X2177847Y-202032D01*
G01X2177948Y-200000D01*
G01X2177847Y-197968D01*
G01X2177542Y-195986D01*
G01X2177034Y-194056D01*
G01X2176374Y-192227D01*
G01X2175510Y-190500D01*
G01X2174545Y-188874D01*
G01X2173376Y-187300D01*
G01X2172106Y-185877D01*
G01X2170684Y-184607D01*
G01X2169160Y-183490D01*
G01X2167484Y-182474D01*
G01X2165756Y-181610D01*
G01X2163928Y-180950D01*
G01X2161997Y-180442D01*
G01X2160016Y-180188D01*
G37*
G36*
G01X1903984Y-180086D02*
G01X1901952Y-180188D01*
G01X1899971Y-180442D01*
G01X1898091Y-180950D01*
G01X1896262Y-181610D01*
G01X1894484Y-182474D01*
G01X1892859Y-183490D01*
G01X1891335Y-184607D01*
G01X1889912Y-185877D01*
G01X1888592Y-187300D01*
G01X1887474Y-188874D01*
G01X1886458Y-190500D01*
G01X1885645Y-192227D01*
G01X1884934Y-194056D01*
G01X1884477Y-195986D01*
G01X1884172Y-197968D01*
G01X1884070Y-200000D01*
G01X1887372D01*
G01X1887474Y-198323D01*
G01X1887728Y-196647D01*
G01X1888134Y-195072D01*
G01X1888693Y-193548D01*
G01X1889404Y-192075D01*
G01X1890217Y-190703D01*
G01X1891182Y-189433D01*
G01X1892249Y-188265D01*
G01X1893418Y-187198D01*
G01X1894738Y-186233D01*
G01X1896110Y-185369D01*
G01X1897532Y-184709D01*
G01X1899056Y-184150D01*
G01X1900631Y-183744D01*
G01X1902308Y-183490D01*
G01X1903984Y-183388D01*
G01X1905711Y-183490D01*
G01X1907337Y-183744D01*
G01X1908912Y-184150D01*
G01X1910486Y-184709D01*
G01X1911909Y-185369D01*
G01X1913280Y-186233D01*
G01X1914550Y-187198D01*
G01X1915719Y-188265D01*
G01X1916836Y-189433D01*
G01X1917751Y-190703D01*
G01X1918614Y-192075D01*
G01X1919326Y-193548D01*
G01X1919884Y-195072D01*
G01X1920291Y-196647D01*
G01X1920545Y-198323D01*
G01X1920596Y-200000D01*
G01X1920545Y-201676D01*
G01X1920291Y-203352D01*
G01X1919884Y-204927D01*
G01X1919326Y-206451D01*
G01X1918614Y-207924D01*
G01X1917751Y-209296D01*
G01X1916836Y-210566D01*
G01X1915719Y-211734D01*
G01X1914550Y-212801D01*
G01X1913280Y-213766D01*
G01X1911909Y-214630D01*
G01X1910486Y-215290D01*
G01X1908912Y-215849D01*
G01X1907337Y-216256D01*
G01X1905711Y-216510D01*
G01X1903984Y-216611D01*
G01X1902308Y-216510D01*
G01X1900631Y-216256D01*
G01X1899056Y-215849D01*
G01X1897532Y-215290D01*
G01X1896110Y-214630D01*
G01X1894738Y-213766D01*
G01X1893418Y-212801D01*
G01X1892249Y-211734D01*
G01X1891182Y-210566D01*
G01X1890217Y-209296D01*
G01X1889404Y-207924D01*
G01X1888693Y-206451D01*
G01X1888134Y-204927D01*
G01X1887728Y-203352D01*
G01X1887474Y-201676D01*
G01X1887372Y-200000D01*
G01X1884070D01*
G01X1884172Y-202032D01*
G01X1884477Y-204013D01*
G01X1884934Y-205943D01*
G01X1885645Y-207772D01*
G01X1886458Y-209499D01*
G01X1887474Y-211125D01*
G01X1888592Y-212700D01*
G01X1889912Y-214122D01*
G01X1891335Y-215392D01*
G01X1892859Y-216510D01*
G01X1894484Y-217526D01*
G01X1896262Y-218389D01*
G01X1898091Y-219050D01*
G01X1899971Y-219558D01*
G01X1901952Y-219812D01*
G01X1903984Y-219964D01*
G01X1906016Y-219812D01*
G01X1907997Y-219558D01*
G01X1909928Y-219050D01*
G01X1911756Y-218389D01*
G01X1913484Y-217526D01*
G01X1915160Y-216510D01*
G01X1916684Y-215392D01*
G01X1918106Y-214122D01*
G01X1919376Y-212700D01*
G01X1920545Y-211125D01*
G01X1921510Y-209499D01*
G01X1922374Y-207772D01*
G01X1923034Y-205943D01*
G01X1923542Y-204013D01*
G01X1923847Y-202032D01*
G01X1923948Y-200000D01*
G01X1923847Y-197968D01*
G01X1923542Y-195986D01*
G01X1923034Y-194056D01*
G01X1922374Y-192227D01*
G01X1921510Y-190500D01*
G01X1920545Y-188874D01*
G01X1919376Y-187300D01*
G01X1918106Y-185877D01*
G01X1916684Y-184607D01*
G01X1915160Y-183490D01*
G01X1913484Y-182474D01*
G01X1911756Y-181610D01*
G01X1909928Y-180950D01*
G01X1907997Y-180442D01*
G01X1906016Y-180188D01*
G37*
G36*
G01X1649984Y-180086D02*
G01X1647952Y-180188D01*
G01X1645971Y-180442D01*
G01X1644091Y-180950D01*
G01X1642262Y-181610D01*
G01X1640484Y-182474D01*
G01X1638859Y-183490D01*
G01X1637335Y-184607D01*
G01X1635912Y-185877D01*
G01X1634592Y-187300D01*
G01X1633474Y-188874D01*
G01X1632458Y-190500D01*
G01X1631645Y-192227D01*
G01X1630934Y-194056D01*
G01X1630477Y-195986D01*
G01X1630172Y-197968D01*
G01X1630070Y-200000D01*
G01X1633372D01*
G01X1633474Y-198323D01*
G01X1633728Y-196647D01*
G01X1634134Y-195072D01*
G01X1634693Y-193548D01*
G01X1635404Y-192075D01*
G01X1636217Y-190703D01*
G01X1637182Y-189433D01*
G01X1638249Y-188265D01*
G01X1639418Y-187198D01*
G01X1640738Y-186233D01*
G01X1642110Y-185369D01*
G01X1643532Y-184709D01*
G01X1645056Y-184150D01*
G01X1646631Y-183744D01*
G01X1648308Y-183490D01*
G01X1649984Y-183388D01*
G01X1651711Y-183490D01*
G01X1653337Y-183744D01*
G01X1654912Y-184150D01*
G01X1656486Y-184709D01*
G01X1657909Y-185369D01*
G01X1659280Y-186233D01*
G01X1660550Y-187198D01*
G01X1661719Y-188265D01*
G01X1662836Y-189433D01*
G01X1663751Y-190703D01*
G01X1664614Y-192075D01*
G01X1665326Y-193548D01*
G01X1665884Y-195072D01*
G01X1666291Y-196647D01*
G01X1666545Y-198323D01*
G01X1666596Y-200000D01*
G01X1666545Y-201676D01*
G01X1666291Y-203352D01*
G01X1665884Y-204927D01*
G01X1665326Y-206451D01*
G01X1664614Y-207924D01*
G01X1663751Y-209296D01*
G01X1662836Y-210566D01*
G01X1661719Y-211734D01*
G01X1660550Y-212801D01*
G01X1659280Y-213766D01*
G01X1657909Y-214630D01*
G01X1656486Y-215290D01*
G01X1654912Y-215849D01*
G01X1653337Y-216256D01*
G01X1651711Y-216510D01*
G01X1649984Y-216611D01*
G01X1648308Y-216510D01*
G01X1646631Y-216256D01*
G01X1645056Y-215849D01*
G01X1643532Y-215290D01*
G01X1642110Y-214630D01*
G01X1640738Y-213766D01*
G01X1639418Y-212801D01*
G01X1638249Y-211734D01*
G01X1637182Y-210566D01*
G01X1636217Y-209296D01*
G01X1635404Y-207924D01*
G01X1634693Y-206451D01*
G01X1634134Y-204927D01*
G01X1633728Y-203352D01*
G01X1633474Y-201676D01*
G01X1633372Y-200000D01*
G01X1630070D01*
G01X1630172Y-202032D01*
G01X1630477Y-204013D01*
G01X1630934Y-205943D01*
G01X1631645Y-207772D01*
G01X1632458Y-209499D01*
G01X1633474Y-211125D01*
G01X1634592Y-212700D01*
G01X1635912Y-214122D01*
G01X1637335Y-215392D01*
G01X1638859Y-216510D01*
G01X1640484Y-217526D01*
G01X1642262Y-218389D01*
G01X1644091Y-219050D01*
G01X1645971Y-219558D01*
G01X1647952Y-219812D01*
G01X1649984Y-219964D01*
G01X1652016Y-219812D01*
G01X1653997Y-219558D01*
G01X1655928Y-219050D01*
G01X1657756Y-218389D01*
G01X1659484Y-217526D01*
G01X1661160Y-216510D01*
G01X1662684Y-215392D01*
G01X1664106Y-214122D01*
G01X1665376Y-212700D01*
G01X1666545Y-211125D01*
G01X1667510Y-209499D01*
G01X1668374Y-207772D01*
G01X1669034Y-205943D01*
G01X1669542Y-204013D01*
G01X1669847Y-202032D01*
G01X1669948Y-200000D01*
G01X1669847Y-197968D01*
G01X1669542Y-195986D01*
G01X1669034Y-194056D01*
G01X1668374Y-192227D01*
G01X1667510Y-190500D01*
G01X1666545Y-188874D01*
G01X1665376Y-187300D01*
G01X1664106Y-185877D01*
G01X1662684Y-184607D01*
G01X1661160Y-183490D01*
G01X1659484Y-182474D01*
G01X1657756Y-181610D01*
G01X1655928Y-180950D01*
G01X1653997Y-180442D01*
G01X1652016Y-180188D01*
G37*
G36*
G01X1395984Y-180086D02*
G01X1393952Y-180188D01*
G01X1391971Y-180442D01*
G01X1390091Y-180950D01*
G01X1388262Y-181610D01*
G01X1386484Y-182474D01*
G01X1384859Y-183490D01*
G01X1383335Y-184607D01*
G01X1381912Y-185877D01*
G01X1380592Y-187300D01*
G01X1379474Y-188874D01*
G01X1378458Y-190500D01*
G01X1377645Y-192227D01*
G01X1376934Y-194056D01*
G01X1376477Y-195986D01*
G01X1376172Y-197968D01*
G01X1376070Y-200000D01*
G01X1379372D01*
G01X1379474Y-198323D01*
G01X1379728Y-196647D01*
G01X1380134Y-195072D01*
G01X1380693Y-193548D01*
G01X1381404Y-192075D01*
G01X1382217Y-190703D01*
G01X1383182Y-189433D01*
G01X1384249Y-188265D01*
G01X1385418Y-187198D01*
G01X1386738Y-186233D01*
G01X1388110Y-185369D01*
G01X1389532Y-184709D01*
G01X1391056Y-184150D01*
G01X1392631Y-183744D01*
G01X1394308Y-183490D01*
G01X1395984Y-183388D01*
G01X1397711Y-183490D01*
G01X1399337Y-183744D01*
G01X1400912Y-184150D01*
G01X1402486Y-184709D01*
G01X1403909Y-185369D01*
G01X1405280Y-186233D01*
G01X1406550Y-187198D01*
G01X1407719Y-188265D01*
G01X1408836Y-189433D01*
G01X1409751Y-190703D01*
G01X1410614Y-192075D01*
G01X1411326Y-193548D01*
G01X1411884Y-195072D01*
G01X1412291Y-196647D01*
G01X1412545Y-198323D01*
G01X1412596Y-200000D01*
G01X1412545Y-201676D01*
G01X1412291Y-203352D01*
G01X1411884Y-204927D01*
G01X1411326Y-206451D01*
G01X1410614Y-207924D01*
G01X1409751Y-209296D01*
G01X1408836Y-210566D01*
G01X1407719Y-211734D01*
G01X1406550Y-212801D01*
G01X1405280Y-213766D01*
G01X1403909Y-214630D01*
G01X1402486Y-215290D01*
G01X1400912Y-215849D01*
G01X1399337Y-216256D01*
G01X1397711Y-216510D01*
G01X1395984Y-216611D01*
G01X1394308Y-216510D01*
G01X1392631Y-216256D01*
G01X1391056Y-215849D01*
G01X1389532Y-215290D01*
G01X1388110Y-214630D01*
G01X1386738Y-213766D01*
G01X1385418Y-212801D01*
G01X1384249Y-211734D01*
G01X1383182Y-210566D01*
G01X1382217Y-209296D01*
G01X1381404Y-207924D01*
G01X1380693Y-206451D01*
G01X1380134Y-204927D01*
G01X1379728Y-203352D01*
G01X1379474Y-201676D01*
G01X1379372Y-200000D01*
G01X1376070D01*
G01X1376172Y-202032D01*
G01X1376477Y-204013D01*
G01X1376934Y-205943D01*
G01X1377645Y-207772D01*
G01X1378458Y-209499D01*
G01X1379474Y-211125D01*
G01X1380592Y-212700D01*
G01X1381912Y-214122D01*
G01X1383335Y-215392D01*
G01X1384859Y-216510D01*
G01X1386484Y-217526D01*
G01X1388262Y-218389D01*
G01X1390091Y-219050D01*
G01X1391971Y-219558D01*
G01X1393952Y-219812D01*
G01X1395984Y-219964D01*
G01X1398016Y-219812D01*
G01X1399997Y-219558D01*
G01X1401928Y-219050D01*
G01X1403756Y-218389D01*
G01X1405484Y-217526D01*
G01X1407160Y-216510D01*
G01X1408684Y-215392D01*
G01X1410106Y-214122D01*
G01X1411376Y-212700D01*
G01X1412545Y-211125D01*
G01X1413510Y-209499D01*
G01X1414374Y-207772D01*
G01X1415034Y-205943D01*
G01X1415542Y-204013D01*
G01X1415847Y-202032D01*
G01X1415948Y-200000D01*
G01X1415847Y-197968D01*
G01X1415542Y-195986D01*
G01X1415034Y-194056D01*
G01X1414374Y-192227D01*
G01X1413510Y-190500D01*
G01X1412545Y-188874D01*
G01X1411376Y-187300D01*
G01X1410106Y-185877D01*
G01X1408684Y-184607D01*
G01X1407160Y-183490D01*
G01X1405484Y-182474D01*
G01X1403756Y-181610D01*
G01X1401928Y-180950D01*
G01X1399997Y-180442D01*
G01X1398016Y-180188D01*
G37*
G36*
G01X1141984Y-180086D02*
G01X1139952Y-180188D01*
G01X1137971Y-180442D01*
G01X1136091Y-180950D01*
G01X1134262Y-181610D01*
G01X1132484Y-182474D01*
G01X1130859Y-183490D01*
G01X1129335Y-184607D01*
G01X1127912Y-185877D01*
G01X1126592Y-187300D01*
G01X1125474Y-188874D01*
G01X1124458Y-190500D01*
G01X1123645Y-192227D01*
G01X1122934Y-194056D01*
G01X1122477Y-195986D01*
G01X1122172Y-197968D01*
G01X1122070Y-200000D01*
G01X1125372D01*
G01X1125474Y-198323D01*
G01X1125728Y-196647D01*
G01X1126134Y-195072D01*
G01X1126693Y-193548D01*
G01X1127404Y-192075D01*
G01X1128217Y-190703D01*
G01X1129182Y-189433D01*
G01X1130249Y-188265D01*
G01X1131418Y-187198D01*
G01X1132738Y-186233D01*
G01X1134110Y-185369D01*
G01X1135532Y-184709D01*
G01X1137056Y-184150D01*
G01X1138631Y-183744D01*
G01X1140308Y-183490D01*
G01X1141984Y-183388D01*
G01X1143711Y-183490D01*
G01X1145337Y-183744D01*
G01X1146912Y-184150D01*
G01X1148486Y-184709D01*
G01X1149909Y-185369D01*
G01X1151280Y-186233D01*
G01X1152550Y-187198D01*
G01X1153719Y-188265D01*
G01X1154836Y-189433D01*
G01X1155751Y-190703D01*
G01X1156614Y-192075D01*
G01X1157326Y-193548D01*
G01X1157884Y-195072D01*
G01X1158291Y-196647D01*
G01X1158545Y-198323D01*
G01X1158596Y-200000D01*
G01X1158545Y-201676D01*
G01X1158291Y-203352D01*
G01X1157884Y-204927D01*
G01X1157326Y-206451D01*
G01X1156614Y-207924D01*
G01X1155751Y-209296D01*
G01X1154836Y-210566D01*
G01X1153719Y-211734D01*
G01X1152550Y-212801D01*
G01X1151280Y-213766D01*
G01X1149909Y-214630D01*
G01X1148486Y-215290D01*
G01X1146912Y-215849D01*
G01X1145337Y-216256D01*
G01X1143711Y-216510D01*
G01X1141984Y-216611D01*
G01X1140308Y-216510D01*
G01X1138631Y-216256D01*
G01X1137056Y-215849D01*
G01X1135532Y-215290D01*
G01X1134110Y-214630D01*
G01X1132738Y-213766D01*
G01X1131418Y-212801D01*
G01X1130249Y-211734D01*
G01X1129182Y-210566D01*
G01X1128217Y-209296D01*
G01X1127404Y-207924D01*
G01X1126693Y-206451D01*
G01X1126134Y-204927D01*
G01X1125728Y-203352D01*
G01X1125474Y-201676D01*
G01X1125372Y-200000D01*
G01X1122070D01*
G01X1122172Y-202032D01*
G01X1122477Y-204013D01*
G01X1122934Y-205943D01*
G01X1123645Y-207772D01*
G01X1124458Y-209499D01*
G01X1125474Y-211125D01*
G01X1126592Y-212700D01*
G01X1127912Y-214122D01*
G01X1129335Y-215392D01*
G01X1130859Y-216510D01*
G01X1132484Y-217526D01*
G01X1134262Y-218389D01*
G01X1136091Y-219050D01*
G01X1137971Y-219558D01*
G01X1139952Y-219812D01*
G01X1141984Y-219964D01*
G01X1144016Y-219812D01*
G01X1145997Y-219558D01*
G01X1147928Y-219050D01*
G01X1149756Y-218389D01*
G01X1151484Y-217526D01*
G01X1153160Y-216510D01*
G01X1154684Y-215392D01*
G01X1156106Y-214122D01*
G01X1157376Y-212700D01*
G01X1158545Y-211125D01*
G01X1159510Y-209499D01*
G01X1160374Y-207772D01*
G01X1161034Y-205943D01*
G01X1161542Y-204013D01*
G01X1161847Y-202032D01*
G01X1161948Y-200000D01*
G01X1161847Y-197968D01*
G01X1161542Y-195986D01*
G01X1161034Y-194056D01*
G01X1160374Y-192227D01*
G01X1159510Y-190500D01*
G01X1158545Y-188874D01*
G01X1157376Y-187300D01*
G01X1156106Y-185877D01*
G01X1154684Y-184607D01*
G01X1153160Y-183490D01*
G01X1151484Y-182474D01*
G01X1149756Y-181610D01*
G01X1147928Y-180950D01*
G01X1145997Y-180442D01*
G01X1144016Y-180188D01*
G37*
G36*
G01X887984Y-180086D02*
G01X885952Y-180188D01*
G01X883971Y-180442D01*
G01X882091Y-180950D01*
G01X880262Y-181610D01*
G01X878484Y-182474D01*
G01X876859Y-183490D01*
G01X875335Y-184607D01*
G01X873912Y-185877D01*
G01X872592Y-187300D01*
G01X871474Y-188874D01*
G01X870458Y-190500D01*
G01X869645Y-192227D01*
G01X868934Y-194056D01*
G01X868477Y-195986D01*
G01X868172Y-197968D01*
G01X868070Y-200000D01*
G01X871372D01*
G01X871474Y-198323D01*
G01X871728Y-196647D01*
G01X872134Y-195072D01*
G01X872693Y-193548D01*
G01X873404Y-192075D01*
G01X874217Y-190703D01*
G01X875182Y-189433D01*
G01X876249Y-188265D01*
G01X877418Y-187198D01*
G01X878738Y-186233D01*
G01X880110Y-185369D01*
G01X881532Y-184709D01*
G01X883056Y-184150D01*
G01X884631Y-183744D01*
G01X886308Y-183490D01*
G01X887984Y-183388D01*
G01X889711Y-183490D01*
G01X891337Y-183744D01*
G01X892912Y-184150D01*
G01X894486Y-184709D01*
G01X895909Y-185369D01*
G01X897280Y-186233D01*
G01X898550Y-187198D01*
G01X899719Y-188265D01*
G01X900836Y-189433D01*
G01X901751Y-190703D01*
G01X902614Y-192075D01*
G01X903326Y-193548D01*
G01X903884Y-195072D01*
G01X904291Y-196647D01*
G01X904545Y-198323D01*
G01X904596Y-200000D01*
G01X904545Y-201676D01*
G01X904291Y-203352D01*
G01X903884Y-204927D01*
G01X903326Y-206451D01*
G01X902614Y-207924D01*
G01X901751Y-209296D01*
G01X900836Y-210566D01*
G01X899719Y-211734D01*
G01X898550Y-212801D01*
G01X897280Y-213766D01*
G01X895909Y-214630D01*
G01X894486Y-215290D01*
G01X892912Y-215849D01*
G01X891337Y-216256D01*
G01X889711Y-216510D01*
G01X887984Y-216611D01*
G01X886308Y-216510D01*
G01X884631Y-216256D01*
G01X883056Y-215849D01*
G01X881532Y-215290D01*
G01X880110Y-214630D01*
G01X878738Y-213766D01*
G01X877418Y-212801D01*
G01X876249Y-211734D01*
G01X875182Y-210566D01*
G01X874217Y-209296D01*
G01X873404Y-207924D01*
G01X872693Y-206451D01*
G01X872134Y-204927D01*
G01X871728Y-203352D01*
G01X871474Y-201676D01*
G01X871372Y-200000D01*
G01X868070D01*
G01X868172Y-202032D01*
G01X868477Y-204013D01*
G01X868934Y-205943D01*
G01X869645Y-207772D01*
G01X870458Y-209499D01*
G01X871474Y-211125D01*
G01X872592Y-212700D01*
G01X873912Y-214122D01*
G01X875335Y-215392D01*
G01X876859Y-216510D01*
G01X878484Y-217526D01*
G01X880262Y-218389D01*
G01X882091Y-219050D01*
G01X883971Y-219558D01*
G01X885952Y-219812D01*
G01X887984Y-219964D01*
G01X890016Y-219812D01*
G01X891997Y-219558D01*
G01X893928Y-219050D01*
G01X895756Y-218389D01*
G01X897484Y-217526D01*
G01X899160Y-216510D01*
G01X900684Y-215392D01*
G01X902106Y-214122D01*
G01X903376Y-212700D01*
G01X904545Y-211125D01*
G01X905510Y-209499D01*
G01X906374Y-207772D01*
G01X907034Y-205943D01*
G01X907542Y-204013D01*
G01X907847Y-202032D01*
G01X907948Y-200000D01*
G01X907847Y-197968D01*
G01X907542Y-195986D01*
G01X907034Y-194056D01*
G01X906374Y-192227D01*
G01X905510Y-190500D01*
G01X904545Y-188874D01*
G01X903376Y-187300D01*
G01X902106Y-185877D01*
G01X900684Y-184607D01*
G01X899160Y-183490D01*
G01X897484Y-182474D01*
G01X895756Y-181610D01*
G01X893928Y-180950D01*
G01X891997Y-180442D01*
G01X890016Y-180188D01*
G37*
G36*
G01X633984Y-180086D02*
G01X631952Y-180188D01*
G01X629971Y-180442D01*
G01X628091Y-180950D01*
G01X626262Y-181610D01*
G01X624484Y-182474D01*
G01X622859Y-183490D01*
G01X621335Y-184607D01*
G01X619912Y-185877D01*
G01X618592Y-187300D01*
G01X617474Y-188874D01*
G01X616458Y-190500D01*
G01X615645Y-192227D01*
G01X614934Y-194056D01*
G01X614477Y-195986D01*
G01X614172Y-197968D01*
G01X614070Y-200000D01*
G01X617372D01*
G01X617474Y-198323D01*
G01X617728Y-196647D01*
G01X618134Y-195072D01*
G01X618693Y-193548D01*
G01X619404Y-192075D01*
G01X620217Y-190703D01*
G01X621182Y-189433D01*
G01X622249Y-188265D01*
G01X623418Y-187198D01*
G01X624738Y-186233D01*
G01X626110Y-185369D01*
G01X627532Y-184709D01*
G01X629056Y-184150D01*
G01X630631Y-183744D01*
G01X632308Y-183490D01*
G01X633984Y-183388D01*
G01X635711Y-183490D01*
G01X637337Y-183744D01*
G01X638912Y-184150D01*
G01X640486Y-184709D01*
G01X641909Y-185369D01*
G01X643280Y-186233D01*
G01X644550Y-187198D01*
G01X645719Y-188265D01*
G01X646836Y-189433D01*
G01X647751Y-190703D01*
G01X648614Y-192075D01*
G01X649326Y-193548D01*
G01X649884Y-195072D01*
G01X650291Y-196647D01*
G01X650545Y-198323D01*
G01X650596Y-200000D01*
G01X650545Y-201676D01*
G01X650291Y-203352D01*
G01X649884Y-204927D01*
G01X649326Y-206451D01*
G01X648614Y-207924D01*
G01X647751Y-209296D01*
G01X646836Y-210566D01*
G01X645719Y-211734D01*
G01X644550Y-212801D01*
G01X643280Y-213766D01*
G01X641909Y-214630D01*
G01X640486Y-215290D01*
G01X638912Y-215849D01*
G01X637337Y-216256D01*
G01X635711Y-216510D01*
G01X633984Y-216611D01*
G01X632308Y-216510D01*
G01X630631Y-216256D01*
G01X629056Y-215849D01*
G01X627532Y-215290D01*
G01X626110Y-214630D01*
G01X624738Y-213766D01*
G01X623418Y-212801D01*
G01X622249Y-211734D01*
G01X621182Y-210566D01*
G01X620217Y-209296D01*
G01X619404Y-207924D01*
G01X618693Y-206451D01*
G01X618134Y-204927D01*
G01X617728Y-203352D01*
G01X617474Y-201676D01*
G01X617372Y-200000D01*
G01X614070D01*
G01X614172Y-202032D01*
G01X614477Y-204013D01*
G01X614934Y-205943D01*
G01X615645Y-207772D01*
G01X616458Y-209499D01*
G01X617474Y-211125D01*
G01X618592Y-212700D01*
G01X619912Y-214122D01*
G01X621335Y-215392D01*
G01X622859Y-216510D01*
G01X624484Y-217526D01*
G01X626262Y-218389D01*
G01X628091Y-219050D01*
G01X629971Y-219558D01*
G01X631952Y-219812D01*
G01X633984Y-219964D01*
G01X636016Y-219812D01*
G01X637997Y-219558D01*
G01X639928Y-219050D01*
G01X641756Y-218389D01*
G01X643484Y-217526D01*
G01X645160Y-216510D01*
G01X646684Y-215392D01*
G01X648106Y-214122D01*
G01X649376Y-212700D01*
G01X650545Y-211125D01*
G01X651510Y-209499D01*
G01X652374Y-207772D01*
G01X653034Y-205943D01*
G01X653542Y-204013D01*
G01X653847Y-202032D01*
G01X653948Y-200000D01*
G01X653847Y-197968D01*
G01X653542Y-195986D01*
G01X653034Y-194056D01*
G01X652374Y-192227D01*
G01X651510Y-190500D01*
G01X650545Y-188874D01*
G01X649376Y-187300D01*
G01X648106Y-185877D01*
G01X646684Y-184607D01*
G01X645160Y-183490D01*
G01X643484Y-182474D01*
G01X641756Y-181610D01*
G01X639928Y-180950D01*
G01X637997Y-180442D01*
G01X636016Y-180188D01*
G37*
G36*
G01X1389736Y-960628D02*
G01X1391666Y-963981D01*
G01X1395527D01*
G01X1423873D01*
G01X1416812Y-976224D01*
G01X1409700Y-988517D01*
G01X1402588Y-976224D01*
G01X1395527Y-963981D01*
G01X1391666D01*
G01X1399743Y-977900D01*
G01X1409700Y-995172D01*
G01X1419657Y-977900D01*
G01X1429664Y-960628D01*
G37*
G36*
G01X1040181Y-1310183D02*
G01X1042111Y-1313536D01*
G01X1045972D01*
G01X1074318D01*
G01X1067206Y-1325829D01*
G01X1060145Y-1338072D01*
G01X1053033Y-1325829D01*
G01X1045972Y-1313536D01*
G01X1042111D01*
G01X1050138Y-1327455D01*
G01X1060145Y-1344727D01*
G01X1080059Y-1310183D01*
G37*
G36*
G01X1127557Y-1210107D02*
G01X1129487Y-1213460D01*
G01X1133348D01*
G01X1161694D01*
G01X1154582Y-1225753D01*
G01X1147521Y-1237996D01*
G01X1140409Y-1225753D01*
G01X1133348Y-1213460D01*
G01X1129487D01*
G01X1137514Y-1227379D01*
G01X1147521Y-1244651D01*
G01X1167435Y-1210107D01*
G37*
G36*
G01X970636Y-1455928D02*
G01X972566Y-1459281D01*
G01X976427D01*
G01X1004773D01*
G01X997712Y-1471524D01*
G01X990600Y-1483817D01*
G01X983488Y-1471524D01*
G01X976427Y-1459281D01*
G01X972566D01*
G01X980643Y-1473200D01*
G01X990600Y-1490472D01*
G01X1000557Y-1473200D01*
G01X1010564Y-1455928D01*
G37*
G36*
G01X1059536Y-1455928D02*
G01X1061466Y-1459281D01*
G01X1065327D01*
G01X1093673D01*
G01X1086612Y-1471524D01*
G01X1079500Y-1483817D01*
G01X1072388Y-1471524D01*
G01X1065327Y-1459281D01*
G01X1061466D01*
G01X1069543Y-1473200D01*
G01X1079500Y-1490472D01*
G01X1089457Y-1473200D01*
G01X1099464Y-1455928D01*
G37*
G36*
G01X1148436Y-1455928D02*
G01X1150366Y-1459281D01*
G01X1154227D01*
G01X1182573D01*
G01X1175512Y-1471524D01*
G01X1168400Y-1483817D01*
G01X1161288Y-1471524D01*
G01X1154227Y-1459281D01*
G01X1150366D01*
G01X1158443Y-1473200D01*
G01X1168400Y-1490472D01*
G01X1178357Y-1473200D01*
G01X1188364Y-1455928D01*
G37*
G36*
G01X1808886Y-897128D02*
G01X1810817Y-900481D01*
G01X1814627D01*
G01X1842973D01*
G01X1835912Y-912724D01*
G01X1828800Y-925017D01*
G01X1821688Y-912724D01*
G01X1814627Y-900481D01*
G01X1810817D01*
G01X1828800Y-931672D01*
G01X1838757Y-914400D01*
G01X1848764Y-897128D01*
G37*
G36*
G01X1872386Y-947928D02*
G01X1874317Y-951281D01*
G01X1878127D01*
G01X1906473D01*
G01X1899412Y-963524D01*
G01X1892300Y-975817D01*
G01X1885188Y-963524D01*
G01X1878127Y-951281D01*
G01X1874317D01*
G01X1892300Y-982472D01*
G01X1902257Y-965200D01*
G01X1912264Y-947928D01*
G37*
G36*
G01X2012086Y-1214628D02*
G01X2014017Y-1217981D01*
G01X2017827D01*
G01X2046173D01*
G01X2039112Y-1230224D01*
G01X2032000Y-1242517D01*
G01X2024888Y-1230224D01*
G01X2017827Y-1217981D01*
G01X2014017D01*
G01X2032000Y-1249172D01*
G01X2041957Y-1231900D01*
G01X2051964Y-1214628D01*
G37*
G36*
G01X2189886Y-1214628D02*
G01X2191817Y-1217981D01*
G01X2195627D01*
G01X2223973D01*
G01X2216912Y-1230224D01*
G01X2209800Y-1242517D01*
G01X2202688Y-1230224D01*
G01X2195627Y-1217981D01*
G01X2191817D01*
G01X2209800Y-1249172D01*
G01X2219757Y-1231900D01*
G01X2229764Y-1214628D01*
G37*
G36*
G01X640486Y-1532128D02*
G01X642417Y-1535481D01*
G01X646227D01*
G01X674573D01*
G01X667512Y-1547724D01*
G01X660400Y-1560017D01*
G01X653288Y-1547724D01*
G01X646227Y-1535481D01*
G01X642417D01*
G01X660400Y-1566672D01*
G01X670357Y-1549400D01*
G01X680364Y-1532128D01*
G37*
G36*
G01X1885086Y-1786128D02*
G01X1887017Y-1789481D01*
G01X1890827D01*
G01X1919173D01*
G01X1912112Y-1801724D01*
G01X1905000Y-1814017D01*
G01X1897888Y-1801724D01*
G01X1890827Y-1789481D01*
G01X1887017D01*
G01X1905000Y-1820672D01*
G01X1914957Y-1803400D01*
G01X1924964Y-1786128D01*
G37*
G36*
G01X1681886Y-1913128D02*
G01X1683817Y-1916481D01*
G01X1687627D01*
G01X1715973D01*
G01X1708912Y-1928724D01*
G01X1701800Y-1941017D01*
G01X1694688Y-1928724D01*
G01X1687627Y-1916481D01*
G01X1683817D01*
G01X1701800Y-1947672D01*
G01X1711757Y-1930400D01*
G01X1721764Y-1913128D01*
G37*
G36*
G01X1961286Y-655828D02*
G01X1963217Y-659181D01*
G01X1967027D01*
G01X1995373D01*
G01X1988312Y-671424D01*
G01X1981200Y-683717D01*
G01X1974088Y-671424D01*
G01X1967027Y-659181D01*
G01X1963217D01*
G01X1981200Y-690372D01*
G01X1991157Y-673100D01*
G01X2001164Y-655828D01*
G37*
G36*
G01X2012086Y-1113028D02*
G01X2014017Y-1116381D01*
G01X2017827D01*
G01X2046173D01*
G01X2039112Y-1128624D01*
G01X2032000Y-1140917D01*
G01X2024888Y-1128624D01*
G01X2017827Y-1116381D01*
G01X2014017D01*
G01X2032000Y-1147572D01*
G01X2041957Y-1130300D01*
G01X2051964Y-1113028D01*
G37*
G36*
G01X1148436Y-1659128D02*
G01X1150366Y-1662481D01*
G01X1154227D01*
G01X1182573D01*
G01X1175512Y-1674724D01*
G01X1168400Y-1687017D01*
G01X1161288Y-1674724D01*
G01X1154227Y-1662481D01*
G01X1150366D01*
G01X1158443Y-1676400D01*
G01X1168400Y-1693672D01*
G01X1178357Y-1676400D01*
G01X1188364Y-1659128D01*
G37*
G36*
G01X1173836Y-1011428D02*
G01X1175766Y-1014781D01*
G01X1179627D01*
G01X1207973D01*
G01X1200912Y-1027024D01*
G01X1193800Y-1039317D01*
G01X1186688Y-1027024D01*
G01X1179627Y-1014781D01*
G01X1175766D01*
G01X1183843Y-1028700D01*
G01X1193800Y-1045972D01*
G01X1203757Y-1028700D01*
G01X1213764Y-1011428D01*
G37*
G36*
G01X1705051Y-1809293D02*
G01X1706982Y-1812646D01*
G01X1710792D01*
G01X1739138D01*
G01X1732077Y-1824888D01*
G01X1724965Y-1837182D01*
G01X1717853Y-1824888D01*
G01X1710792Y-1812646D01*
G01X1706982D01*
G01X1724965Y-1843837D01*
G01X1734922Y-1826565D01*
G01X1744929Y-1809293D01*
G37*
G36*
G01X1923186Y-3462528D02*
G01X1925117Y-3465881D01*
G01X1928927D01*
G01X1957273D01*
G01X1950212Y-3478124D01*
G01X1943100Y-3490417D01*
G01X1935988Y-3478124D01*
G01X1928927Y-3465881D01*
G01X1925117D01*
G01X1943100Y-3497072D01*
G01X1953057Y-3479800D01*
G01X1963064Y-3462528D01*
G37*
G36*
G01X1961286Y-3741928D02*
G01X1963217Y-3745281D01*
G01X1967027D01*
G01X1995373D01*
G01X1988312Y-3757524D01*
G01X1981200Y-3769817D01*
G01X1974088Y-3757524D01*
G01X1967027Y-3745281D01*
G01X1963217D01*
G01X1981200Y-3776472D01*
G01X1991157Y-3759200D01*
G01X2001164Y-3741928D01*
G37*
G36*
G01X3040786Y-528828D02*
G01X3042717Y-532181D01*
G01X3046527D01*
G01X3074873D01*
G01X3067812Y-544424D01*
G01X3060700Y-556717D01*
G01X3053588Y-544424D01*
G01X3046527Y-532181D01*
G01X3042717D01*
G01X3060700Y-563372D01*
G01X3070657Y-546100D01*
G01X3080664Y-528828D01*
G37*
G36*
G01X3151683Y-528828D02*
G01X3153613Y-532181D01*
G01X3157423D01*
G01X3185770D01*
G01X3178708Y-544424D01*
G01X3171596Y-556717D01*
G01X3164484Y-544424D01*
G01X3157423Y-532181D01*
G01X3153613D01*
G01X3171596Y-563372D01*
G01X3181553Y-546100D01*
G01X3191561Y-528828D01*
G37*
G36*
G01X1489812Y-1437437D02*
G01X1491742Y-1440790D01*
G01X1495552D01*
G01X1523949D01*
G01X1516837Y-1453083D01*
G01X1509776Y-1465326D01*
G01X1502664Y-1453083D01*
G01X1495552Y-1440790D01*
G01X1491742D01*
G01X1499768Y-1454709D01*
G01X1509776Y-1471981D01*
G01X1529690Y-1437437D01*
G37*
G36*
G01X1489812Y-1330858D02*
G01X1491691Y-1334160D01*
G01X1495552D01*
G01X1523949D01*
G01X1516837Y-1346454D01*
G01X1509776Y-1358748D01*
G01X1495552Y-1334160D01*
G01X1491691D01*
G01X1499768Y-1348130D01*
G01X1509776Y-1365352D01*
G01X1519733Y-1348130D01*
G01X1529690Y-1330858D01*
G37*
G36*
G01X2239823Y-1340815D02*
G01X2241753Y-1344168D01*
G01X2245563D01*
G01X2273960D01*
G01X2266848Y-1356411D01*
G01X2259787Y-1368704D01*
G01X2252675Y-1356411D01*
G01X2245563Y-1344168D01*
G01X2241753D01*
G01X2249780Y-1358087D01*
G01X2259787Y-1375359D01*
G01X2279701Y-1340815D01*
G37*
G36*
G01X2291486Y-1379728D02*
G01X2293417Y-1383081D01*
G01X2297227D01*
G01X2325573D01*
G01X2318512Y-1395324D01*
G01X2311400Y-1407617D01*
G01X2304288Y-1395324D01*
G01X2297227Y-1383081D01*
G01X2293417D01*
G01X2311400Y-1414272D01*
G01X2321357Y-1397000D01*
G01X2331364Y-1379728D01*
G37*
G36*
G01X1108304Y-634898D02*
G01X1110234Y-638251D01*
G01X1114044D01*
G01X1142441D01*
G01X1135329Y-650545D01*
G01X1128268Y-662788D01*
G01X1121156Y-650545D01*
G01X1114044Y-638251D01*
G01X1110234D01*
G01X1118260Y-652170D01*
G01X1128268Y-669442D01*
G01X1148182Y-634898D01*
G37*
G36*
G01X1053592Y-681228D02*
G01X1055472Y-684530D01*
G01X1059332D01*
G01X1087730D01*
G01X1080618Y-696824D01*
G01X1073556Y-709117D01*
G01X1059332Y-684530D01*
G01X1055472D01*
G01X1063549Y-698500D01*
G01X1073556Y-715772D01*
G01X1093470Y-681228D01*
G37*
G36*
G01X1160932Y-685444D02*
G01X1162863Y-688746D01*
G01X1166673D01*
G01X1195019D01*
G01X1187958Y-701040D01*
G01X1180846Y-713334D01*
G01X1173785Y-701040D01*
G01X1166673Y-688746D01*
G01X1162863D01*
G01X1170889Y-702666D01*
G01X1180846Y-719938D01*
G01X1190803Y-702666D01*
G01X1200810Y-685444D01*
G37*
G36*
G01X1809191Y-1444142D02*
G01X1811122Y-1447444D01*
G01X1814932D01*
G01X1843329D01*
G01X1836217Y-1459738D01*
G01X1829156Y-1472032D01*
G01X1814932Y-1447444D01*
G01X1811122D01*
G01X1819148Y-1461364D01*
G01X1829156Y-1478636D01*
G01X1839112Y-1461364D01*
G01X1849069Y-1444142D01*
G37*
G36*
G01X1810614Y-1331874D02*
G01X1812544Y-1335227D01*
G01X1816354D01*
G01X1844700D01*
G01X1837639Y-1347521D01*
G01X1830527Y-1359764D01*
G01X1823466Y-1347521D01*
G01X1816354Y-1335227D01*
G01X1812544D01*
G01X1830527Y-1366418D01*
G01X1840484Y-1349146D01*
G01X1850492Y-1331874D01*
G37*
G36*
G01X1803603Y-2082597D02*
G01X1805483Y-2085899D01*
G01X1809394D01*
G01X1837741D01*
G01X1830629Y-2098192D01*
G01X1823568Y-2110486D01*
G01X1816456Y-2098192D01*
G01X1809394Y-2085899D01*
G01X1805483D01*
G01X1813560Y-2099869D01*
G01X1823568Y-2117141D01*
G01X1843481Y-2082597D01*
G37*
G36*
G01X2342286Y-579628D02*
G01X2344217Y-582981D01*
G01X2348027D01*
G01X2376373D01*
G01X2369312Y-595224D01*
G01X2362200Y-607517D01*
G01X2355088Y-595224D01*
G01X2348027Y-582981D01*
G01X2344217D01*
G01X2362200Y-614172D01*
G01X2372157Y-596900D01*
G01X2382164Y-579628D01*
G37*
G36*
G01X2532786Y-3741928D02*
G01X2534717Y-3745281D01*
G01X2538527D01*
G01X2566873D01*
G01X2559812Y-3757524D01*
G01X2552700Y-3769817D01*
G01X2545588Y-3757524D01*
G01X2538527Y-3745281D01*
G01X2534717D01*
G01X2552700Y-3776472D01*
G01X2562657Y-3759200D01*
G01X2572664Y-3741928D01*
G37*
G36*
G01X1834286Y-3462528D02*
G01X1836217Y-3465881D01*
G01X1840027D01*
G01X1868373D01*
G01X1861312Y-3478124D01*
G01X1854200Y-3490417D01*
G01X1847088Y-3478124D01*
G01X1840027Y-3465881D01*
G01X1836217D01*
G01X1854200Y-3497072D01*
G01X1864157Y-3479800D01*
G01X1874164Y-3462528D01*
G37*
G36*
G01X3040786Y-2459228D02*
G01X3042717Y-2462581D01*
G01X3046527D01*
G01X3074873D01*
G01X3067812Y-2474824D01*
G01X3060700Y-2487117D01*
G01X3053588Y-2474824D01*
G01X3046527Y-2462581D01*
G01X3042717D01*
G01X3060700Y-2493772D01*
G01X3070657Y-2476500D01*
G01X3080664Y-2459228D01*
G37*
G36*
G01X2989986Y-2840228D02*
G01X2991917Y-2843581D01*
G01X2995727D01*
G01X3024073D01*
G01X3017012Y-2855824D01*
G01X3009900Y-2868117D01*
G01X3002788Y-2855824D01*
G01X2995727Y-2843581D01*
G01X2991917D01*
G01X3009900Y-2874772D01*
G01X3019857Y-2857500D01*
G01X3029864Y-2840228D01*
G37*
G36*
G01X665886Y-465328D02*
G01X667817Y-468681D01*
G01X671627D01*
G01X699973D01*
G01X692912Y-480924D01*
G01X685800Y-493217D01*
G01X678688Y-480924D01*
G01X671627Y-468681D01*
G01X667817D01*
G01X685800Y-499872D01*
G01X695757Y-482600D01*
G01X705764Y-465328D01*
G37*
G36*
G01X742086Y-465328D02*
G01X744017Y-468681D01*
G01X747827D01*
G01X776173D01*
G01X769112Y-480924D01*
G01X762000Y-493217D01*
G01X754888Y-480924D01*
G01X747827Y-468681D01*
G01X744017D01*
G01X762000Y-499872D01*
G01X771957Y-482600D01*
G01X781964Y-465328D01*
G37*
G36*
G01X1504036Y-3691128D02*
G01X1505966Y-3694481D01*
G01X1509827D01*
G01X1538173D01*
G01X1531112Y-3706724D01*
G01X1524000Y-3719017D01*
G01X1516888Y-3706724D01*
G01X1509827Y-3694481D01*
G01X1505966D01*
G01X1514043Y-3708400D01*
G01X1524000Y-3725672D01*
G01X1533957Y-3708400D01*
G01X1543964Y-3691128D01*
G37*
G36*
G01X1059536Y-3602228D02*
G01X1061466Y-3605581D01*
G01X1065327D01*
G01X1093673D01*
G01X1086612Y-3617824D01*
G01X1079500Y-3630117D01*
G01X1072388Y-3617824D01*
G01X1065327Y-3605581D01*
G01X1061466D01*
G01X1069543Y-3619500D01*
G01X1079500Y-3636772D01*
G01X1089457Y-3619500D01*
G01X1099464Y-3602228D01*
G37*
G36*
G01X1148537Y-3602228D02*
G01X1150468Y-3605581D01*
G01X1154278D01*
G01X1182624D01*
G01X1175563Y-3617824D01*
G01X1168451Y-3630117D01*
G01X1161390Y-3617824D01*
G01X1154278Y-3605581D01*
G01X1150468D01*
G01X1168451Y-3636772D01*
G01X1178408Y-3619500D01*
G01X1188415Y-3602228D01*
G37*
G36*
G01X2189886Y-1290828D02*
G01X2191817Y-1294181D01*
G01X2195627D01*
G01X2223973D01*
G01X2216912Y-1306424D01*
G01X2209800Y-1318717D01*
G01X2202688Y-1306424D01*
G01X2195627Y-1294181D01*
G01X2191817D01*
G01X2209800Y-1325372D01*
G01X2219757Y-1308100D01*
G01X2229764Y-1290828D01*
G37*
G36*
G01X1555191Y-960933D02*
G01X1557122Y-964286D01*
G01X1560932D01*
G01X1589278D01*
G01X1582217Y-976528D01*
G01X1575105Y-988822D01*
G01X1567993Y-976528D01*
G01X1560932Y-964286D01*
G01X1557122D01*
G01X1575105Y-995477D01*
G01X1585062Y-978205D01*
G01X1595069Y-960933D01*
G37*
G36*
G01X1605636Y-909828D02*
G01X1607566Y-913181D01*
G01X1611427D01*
G01X1639773D01*
G01X1632712Y-925424D01*
G01X1625600Y-937717D01*
G01X1618488Y-925424D01*
G01X1611427Y-913181D01*
G01X1607566D01*
G01X1615643Y-927100D01*
G01X1625600Y-944372D01*
G01X1635557Y-927100D01*
G01X1645564Y-909828D01*
G37*
G36*
G01X1656486Y-947928D02*
G01X1658417Y-951281D01*
G01X1662227D01*
G01X1690573D01*
G01X1683512Y-963524D01*
G01X1676400Y-975817D01*
G01X1669288Y-963524D01*
G01X1662227Y-951281D01*
G01X1658417D01*
G01X1676400Y-982472D01*
G01X1686357Y-965200D01*
G01X1696364Y-947928D01*
G37*
G36*
G01X1504036Y-833628D02*
G01X1505966Y-836981D01*
G01X1509827D01*
G01X1538173D01*
G01X1531112Y-849224D01*
G01X1524000Y-861517D01*
G01X1516888Y-849224D01*
G01X1509827Y-836981D01*
G01X1505966D01*
G01X1514043Y-850900D01*
G01X1524000Y-868172D01*
G01X1533957Y-850900D01*
G01X1543964Y-833628D01*
G37*
G36*
G01X2215286Y-655828D02*
G01X2217217Y-659181D01*
G01X2221027D01*
G01X2249373D01*
G01X2242312Y-671424D01*
G01X2235200Y-683717D01*
G01X2228088Y-671424D01*
G01X2221027Y-659181D01*
G01X2217217D01*
G01X2235200Y-690372D01*
G01X2245157Y-673100D01*
G01X2255164Y-655828D01*
G37*
G36*
G01X2545486Y-998728D02*
G01X2547417Y-1002081D01*
G01X2551227D01*
G01X2579573D01*
G01X2572512Y-1014324D01*
G01X2565400Y-1026617D01*
G01X2558288Y-1014324D01*
G01X2551227Y-1002081D01*
G01X2547417D01*
G01X2565400Y-1033272D01*
G01X2575357Y-1016000D01*
G01X2585364Y-998728D01*
G37*
G36*
G01X2139086Y-998728D02*
G01X2141017Y-1002081D01*
G01X2144827D01*
G01X2173173D01*
G01X2166112Y-1014324D01*
G01X2159000Y-1026617D01*
G01X2151888Y-1014324D01*
G01X2144827Y-1002081D01*
G01X2141017D01*
G01X2159000Y-1033272D01*
G01X2168957Y-1016000D01*
G01X2178964Y-998728D01*
G37*
G36*
G01X2139086Y-1050239D02*
G01X2140966Y-1053541D01*
G01X2144827D01*
G01X2173173D01*
G01X2166112Y-1065835D01*
G01X2159000Y-1078128D01*
G01X2151888Y-1065835D01*
G01X2144827Y-1053541D01*
G01X2140966D01*
G01X2149043Y-1067511D01*
G01X2159000Y-1084732D01*
G01X2168957Y-1067511D01*
G01X2178964Y-1050239D01*
G37*
G36*
G01X733298Y-2898546D02*
G01X735228Y-2901848D01*
G01X739089D01*
G01X767436D01*
G01X760374Y-2914142D01*
G01X753262Y-2926436D01*
G01X746150Y-2914142D01*
G01X739089Y-2901848D01*
G01X735228D01*
G01X743306Y-2915818D01*
G01X753262Y-2933040D01*
G01X763219Y-2915818D01*
G01X773176Y-2898546D01*
G37*
G36*
G01X983336Y-3462528D02*
G01X985266Y-3465881D01*
G01X989127D01*
G01X1017473D01*
G01X1010412Y-3478124D01*
G01X1003300Y-3490417D01*
G01X996188Y-3478124D01*
G01X989127Y-3465881D01*
G01X985266D01*
G01X993343Y-3479800D01*
G01X1003300Y-3497072D01*
G01X1013257Y-3479800D01*
G01X1023264Y-3462528D01*
G37*
G36*
G01X576986Y-2586228D02*
G01X578917Y-2589581D01*
G01X582727D01*
G01X611073D01*
G01X604012Y-2601824D01*
G01X596900Y-2614117D01*
G01X589788Y-2601824D01*
G01X582727Y-2589581D01*
G01X578917D01*
G01X596900Y-2620772D01*
G01X606857Y-2603500D01*
G01X616864Y-2586228D01*
G37*
G36*
G01X919836Y-3500628D02*
G01X921766Y-3503981D01*
G01X925627D01*
G01X953973D01*
G01X946912Y-3516224D01*
G01X939800Y-3528517D01*
G01X932688Y-3516224D01*
G01X925627Y-3503981D01*
G01X921766D01*
G01X929843Y-3517900D01*
G01X939800Y-3535172D01*
G01X949757Y-3517900D01*
G01X959764Y-3500628D01*
G37*
G36*
G01X322986Y-2383028D02*
G01X324917Y-2386381D01*
G01X328727D01*
G01X357073D01*
G01X350012Y-2398624D01*
G01X342900Y-2410917D01*
G01X335788Y-2398624D01*
G01X328727Y-2386381D01*
G01X324917D01*
G01X342900Y-2417572D01*
G01X352857Y-2400300D01*
G01X362864Y-2383028D01*
G37*
G36*
G01X856336Y-3526028D02*
G01X858266Y-3529381D01*
G01X862127D01*
G01X890473D01*
G01X883412Y-3541624D01*
G01X876300Y-3553917D01*
G01X869188Y-3541624D01*
G01X862127Y-3529381D01*
G01X858266D01*
G01X866343Y-3543300D01*
G01X876300Y-3560572D01*
G01X886257Y-3543300D01*
G01X896264Y-3526028D01*
G37*
G36*
G01X348386Y-3493668D02*
G01X350317Y-3497021D01*
G01X354127D01*
G01X382473D01*
G01X375412Y-3509264D01*
G01X368300Y-3521558D01*
G01X361188Y-3509264D01*
G01X354127Y-3497021D01*
G01X350317D01*
G01X368300Y-3528212D01*
G01X378257Y-3510940D01*
G01X388264Y-3493668D01*
G37*
G36*
G01X68986Y-1722628D02*
G01X70917Y-1725981D01*
G01X74727D01*
G01X103073D01*
G01X96012Y-1738224D01*
G01X88900Y-1750517D01*
G01X81788Y-1738224D01*
G01X74727Y-1725981D01*
G01X70917D01*
G01X88900Y-1757172D01*
G01X98857Y-1739900D01*
G01X108864Y-1722628D01*
G37*
G36*
G01X538886Y-1963928D02*
G01X540817Y-1967281D01*
G01X544627D01*
G01X572973D01*
G01X565912Y-1979524D01*
G01X558800Y-1991817D01*
G01X551688Y-1979524D01*
G01X544627Y-1967281D01*
G01X540817D01*
G01X558800Y-1998472D01*
G01X568757Y-1981200D01*
G01X578764Y-1963928D01*
G37*
G36*
G01X1224636Y-3729228D02*
G01X1226566Y-3732581D01*
G01X1230427D01*
G01X1258773D01*
G01X1251712Y-3744824D01*
G01X1244600Y-3757117D01*
G01X1237488Y-3744824D01*
G01X1230427Y-3732581D01*
G01X1226566D01*
G01X1234643Y-3746500D01*
G01X1244600Y-3763772D01*
G01X1254557Y-3746500D01*
G01X1264564Y-3729228D01*
G37*
G36*
G01X2532786Y-1392428D02*
G01X2534717Y-1395781D01*
G01X2538527D01*
G01X2566873D01*
G01X2559812Y-1408024D01*
G01X2552700Y-1420317D01*
G01X2545588Y-1408024D01*
G01X2538527Y-1395781D01*
G01X2534717D01*
G01X2552700Y-1426972D01*
G01X2562657Y-1409700D01*
G01X2572664Y-1392428D01*
G37*
G36*
G01X2710586Y-1862328D02*
G01X2712517Y-1865681D01*
G01X2716327D01*
G01X2744673D01*
G01X2737612Y-1877924D01*
G01X2730500Y-1890217D01*
G01X2723388Y-1877924D01*
G01X2716327Y-1865681D01*
G01X2712517D01*
G01X2730500Y-1896872D01*
G01X2740457Y-1879600D01*
G01X2750464Y-1862328D01*
G37*
G36*
G01X2393086Y-2052828D02*
G01X2395017Y-2056181D01*
G01X2398827D01*
G01X2427173D01*
G01X2420112Y-2068424D01*
G01X2413000Y-2080717D01*
G01X2405888Y-2068424D01*
G01X2398827Y-2056181D01*
G01X2395017D01*
G01X2413000Y-2087372D01*
G01X2422957Y-2070100D01*
G01X2432964Y-2052828D01*
G37*
G36*
G01X2837586Y-2751328D02*
G01X2839517Y-2754681D01*
G01X2843327D01*
G01X2871673D01*
G01X2864612Y-2766924D01*
G01X2857500Y-2779217D01*
G01X2850388Y-2766924D01*
G01X2843327Y-2754681D01*
G01X2839517D01*
G01X2857500Y-2785872D01*
G01X2867457Y-2768600D01*
G01X2877464Y-2751328D01*
G37*
G36*
G01X2799486Y-1506728D02*
G01X2801417Y-1510081D01*
G01X2805227D01*
G01X2833573D01*
G01X2826512Y-1522324D01*
G01X2819400Y-1534617D01*
G01X2812288Y-1522324D01*
G01X2805227Y-1510081D01*
G01X2801417D01*
G01X2819400Y-1541272D01*
G01X2829357Y-1524000D01*
G01X2839364Y-1506728D01*
G37*
G36*
G01X2774086Y-2903728D02*
G01X2776017Y-2907081D01*
G01X2779827D01*
G01X2808173D01*
G01X2801112Y-2919324D01*
G01X2794000Y-2931617D01*
G01X2786888Y-2919324D01*
G01X2779827Y-2907081D01*
G01X2776017D01*
G01X2794000Y-2938272D01*
G01X2803957Y-2921000D01*
G01X2813964Y-2903728D01*
G37*
G36*
G01X1758086Y-2141728D02*
G01X1760017Y-2145081D01*
G01X1763827D01*
G01X1792173D01*
G01X1785112Y-2157324D01*
G01X1778000Y-2169617D01*
G01X1770888Y-2157324D01*
G01X1763827Y-2145081D01*
G01X1760017D01*
G01X1778000Y-2176272D01*
G01X1787957Y-2159000D01*
G01X1797964Y-2141728D01*
G37*
G36*
G01X1224636Y-2243328D02*
G01X1226566Y-2246681D01*
G01X1230427D01*
G01X1258773D01*
G01X1251712Y-2258924D01*
G01X1244600Y-2271217D01*
G01X1237488Y-2258924D01*
G01X1230427Y-2246681D01*
G01X1226566D01*
G01X1234643Y-2260600D01*
G01X1244600Y-2277872D01*
G01X1254557Y-2260600D01*
G01X1264564Y-2243328D01*
G37*
G36*
G01X881736Y-3868928D02*
G01X883666Y-3872281D01*
G01X887527D01*
G01X915873D01*
G01X908812Y-3884524D01*
G01X901700Y-3896817D01*
G01X894588Y-3884524D01*
G01X887527Y-3872281D01*
G01X883666D01*
G01X891743Y-3886200D01*
G01X901700Y-3903472D01*
G01X911657Y-3886200D01*
G01X921664Y-3868928D01*
G37*
G36*
G01X1212393Y-3866642D02*
G01X1214323Y-3869995D01*
G01X1218133D01*
G01X1246530D01*
G01X1239418Y-3882238D01*
G01X1232306Y-3894531D01*
G01X1225245Y-3882238D01*
G01X1218133Y-3869995D01*
G01X1214323D01*
G01X1232306Y-3901186D01*
G01X1242314Y-3883914D01*
G01X1252271Y-3866642D01*
G37*
G36*
G01X2148332Y-3598824D02*
G01X2150212Y-3602126D01*
G01X2154072D01*
G01X2182470D01*
G01X2175358Y-3614420D01*
G01X2168296Y-3626714D01*
G01X2154072Y-3602126D01*
G01X2150212D01*
G01X2158289Y-3616096D01*
G01X2168296Y-3633368D01*
G01X2188210Y-3598824D01*
G37*
G36*
G01X2354986Y-2217928D02*
G01X2356917Y-2221281D01*
G01X2360727D01*
G01X2389073D01*
G01X2382012Y-2233524D01*
G01X2374900Y-2245817D01*
G01X2367788Y-2233524D01*
G01X2360727Y-2221281D01*
G01X2356917D01*
G01X2374900Y-2252472D01*
G01X2384857Y-2235200D01*
G01X2394864Y-2217928D01*
G37*
G36*
G01X1903832Y-2300478D02*
G01X1905762Y-2303831D01*
G01X1909572D01*
G01X1937969D01*
G01X1930857Y-2316124D01*
G01X1923745Y-2328367D01*
G01X1916684Y-2316124D01*
G01X1909572Y-2303831D01*
G01X1905762D01*
G01X1923745Y-2335022D01*
G01X1933753Y-2317750D01*
G01X1943710Y-2300478D01*
G37*
G36*
G01X1542136Y-2370328D02*
G01X1544066Y-2373681D01*
G01X1547927D01*
G01X1576273D01*
G01X1569212Y-2385924D01*
G01X1562100Y-2398217D01*
G01X1554988Y-2385924D01*
G01X1547927Y-2373681D01*
G01X1544066D01*
G01X1552143Y-2387600D01*
G01X1562100Y-2404872D01*
G01X1572057Y-2387600D01*
G01X1582064Y-2370328D01*
G37*
G36*
G01X2240686Y-2065528D02*
G01X2242617Y-2068881D01*
G01X2246427D01*
G01X2274773D01*
G01X2267712Y-2081124D01*
G01X2260600Y-2093417D01*
G01X2253488Y-2081124D01*
G01X2246427Y-2068881D01*
G01X2242617D01*
G01X2260600Y-2100072D01*
G01X2270557Y-2082800D01*
G01X2280564Y-2065528D01*
G37*
G36*
G01X1204468Y-528828D02*
G01X1206398Y-532181D01*
G01X1210208D01*
G01X1238555D01*
G01X1231494Y-544424D01*
G01X1224382Y-556717D01*
G01X1217270Y-544424D01*
G01X1210208Y-532181D01*
G01X1206398D01*
G01X1224382Y-563372D01*
G01X1234338Y-546100D01*
G01X1244346Y-528828D01*
G37*
G36*
G01X2405786Y-1925828D02*
G01X2407717Y-1929181D01*
G01X2411527D01*
G01X2439873D01*
G01X2432812Y-1941424D01*
G01X2425700Y-1953717D01*
G01X2418588Y-1941424D01*
G01X2411527Y-1929181D01*
G01X2407717D01*
G01X2425700Y-1960372D01*
G01X2435657Y-1943100D01*
G01X2445664Y-1925828D01*
G37*
G36*
G01X2456586Y-1875028D02*
G01X2458517Y-1878381D01*
G01X2462327D01*
G01X2490673D01*
G01X2483612Y-1890624D01*
G01X2476500Y-1902917D01*
G01X2469388Y-1890624D01*
G01X2462327Y-1878381D01*
G01X2458517D01*
G01X2476500Y-1909572D01*
G01X2486457Y-1892300D01*
G01X2496464Y-1875028D01*
G37*
G36*
G01X627786Y-2014728D02*
G01X629717Y-2018081D01*
G01X633527D01*
G01X661873D01*
G01X654812Y-2030324D01*
G01X647700Y-2042617D01*
G01X640588Y-2030324D01*
G01X633527Y-2018081D01*
G01X629717D01*
G01X647700Y-2049272D01*
G01X657657Y-2032000D01*
G01X667664Y-2014728D01*
G37*
G36*
G01X1186536Y-2014728D02*
G01X1188466Y-2018081D01*
G01X1192327D01*
G01X1220673D01*
G01X1213612Y-2030324D01*
G01X1206500Y-2042617D01*
G01X1199388Y-2030324D01*
G01X1192327Y-2018081D01*
G01X1188466D01*
G01X1196543Y-2032000D01*
G01X1206500Y-2049272D01*
G01X1216457Y-2032000D01*
G01X1226464Y-2014728D01*
G37*
G36*
G01X1755089Y-944931D02*
G01X1757020Y-948284D01*
G01X1760830D01*
G01X1789176D01*
G01X1782115Y-960526D01*
G01X1775003Y-972820D01*
G01X1767891Y-960526D01*
G01X1760830Y-948284D01*
G01X1757020D01*
G01X1775003Y-979475D01*
G01X1784960Y-962203D01*
G01X1794967Y-944931D01*
G37*
G36*
G01X1705051Y-897128D02*
G01X1706982Y-900481D01*
G01X1710792D01*
G01X1739138D01*
G01X1732077Y-912724D01*
G01X1724965Y-925017D01*
G01X1717853Y-912724D01*
G01X1710792Y-900481D01*
G01X1706982D01*
G01X1724965Y-931672D01*
G01X1734922Y-914400D01*
G01X1744929Y-897128D01*
G37*
G36*
G01X2888386Y-3272028D02*
G01X2890317Y-3275381D01*
G01X2894127D01*
G01X2922473D01*
G01X2915412Y-3287624D01*
G01X2908300Y-3299917D01*
G01X2901188Y-3287624D01*
G01X2894127Y-3275381D01*
G01X2890317D01*
G01X2908300Y-3306572D01*
G01X2918257Y-3289300D01*
G01X2928264Y-3272028D01*
G37*
G36*
G01X2113940Y-2507945D02*
G01X2115871Y-2511298D01*
G01X2119681D01*
G01X2148078D01*
G01X2140966Y-2523541D01*
G01X2133854Y-2535834D01*
G01X2126793Y-2523541D01*
G01X2119681Y-2511298D01*
G01X2115871D01*
G01X2133854Y-2542489D01*
G01X2143862Y-2525217D01*
G01X2153818Y-2507945D01*
G37*
G36*
G01X2113737Y-2429967D02*
G01X2115668Y-2433320D01*
G01X2119478D01*
G01X2147824D01*
G01X2140763Y-2445563D01*
G01X2133651Y-2457856D01*
G01X2126590Y-2445563D01*
G01X2119478Y-2433320D01*
G01X2115668D01*
G01X2133651Y-2464511D01*
G01X2143608Y-2447239D01*
G01X2153615Y-2429967D01*
G37*
G36*
G01X2114652Y-2590241D02*
G01X2116531Y-2593543D01*
G01X2120392D01*
G01X2148789D01*
G01X2134565Y-2618130D01*
G01X2127504Y-2605837D01*
G01X2120392Y-2593543D01*
G01X2116531D01*
G01X2134565Y-2624785D01*
G01X2144573Y-2607513D01*
G01X2154530Y-2590241D01*
G37*
G36*
G01X1484884Y-1227531D02*
G01X1486764Y-1230833D01*
G01X1490624D01*
G01X1518971D01*
G01X1511910Y-1243127D01*
G01X1504798Y-1255420D01*
G01X1497736Y-1243127D01*
G01X1490624Y-1230833D01*
G01X1486764D01*
G01X1504798Y-1262075D01*
G01X1514754Y-1244803D01*
G01X1524762Y-1227531D01*
G37*
G36*
G01X1487627Y-1550822D02*
G01X1489558Y-1554175D01*
G01X1493418D01*
G01X1521765D01*
G01X1514653Y-1566418D01*
G01X1507592Y-1578712D01*
G01X1500480Y-1566418D01*
G01X1493418Y-1554175D01*
G01X1489558D01*
G01X1497635Y-1568094D01*
G01X1507592Y-1585366D01*
G01X1527505Y-1550822D01*
G37*
G36*
G01X1593037Y-1438961D02*
G01X1594968Y-1442314D01*
G01X1598778D01*
G01X1627124D01*
G01X1620063Y-1454556D01*
G01X1612951Y-1466850D01*
G01X1605839Y-1454556D01*
G01X1598778Y-1442314D01*
G01X1594968D01*
G01X1612951Y-1473505D01*
G01X1622908Y-1456233D01*
G01X1632915Y-1438961D01*
G37*
G36*
G01X1594866Y-1336142D02*
G01X1596796Y-1339494D01*
G01X1600606D01*
G01X1629004D01*
G01X1621892Y-1351737D01*
G01X1614830Y-1364031D01*
G01X1607718Y-1351737D01*
G01X1600606Y-1339494D01*
G01X1596796D01*
G01X1604823Y-1353414D01*
G01X1614830Y-1370686D01*
G01X1634744Y-1336142D01*
G37*
G36*
G01X1593952Y-1229614D02*
G01X1595882Y-1232967D01*
G01X1599692D01*
G01X1628089D01*
G01X1620977Y-1245210D01*
G01X1613865Y-1257503D01*
G01X1606804Y-1245210D01*
G01X1599692Y-1232967D01*
G01X1595882D01*
G01X1613865Y-1264158D01*
G01X1623873Y-1246886D01*
G01X1633830Y-1229614D01*
G37*
G36*
G01X1593952Y-1552346D02*
G01X1595831Y-1555648D01*
G01X1599692D01*
G01X1628089D01*
G01X1613865Y-1580236D01*
G01X1606804Y-1567942D01*
G01X1599692Y-1555648D01*
G01X1595831D01*
G01X1613865Y-1586890D01*
G01X1623873Y-1569618D01*
G01X1633830Y-1552346D01*
G37*
G36*
G01X1806245Y-1552804D02*
G01X1808175Y-1556156D01*
G01X1811985D01*
G01X1840332D01*
G01X1833270Y-1568399D01*
G01X1826158Y-1580693D01*
G01X1819097Y-1568399D01*
G01X1811985Y-1556156D01*
G01X1808175D01*
G01X1826158Y-1587348D01*
G01X1836166Y-1570076D01*
G01X1846123Y-1552804D01*
G37*
G04 Image End*
G54D10*

M02*
