G04 Layer: TopSolderMaskLayer*
G04 EasyEDA Pro v2.1.57.773a98f1.225d47, 2024-05-26 20:13:26*
G04 Gerber Generator version 0.3*
G04 Scale: 100 percent, Rotated: No, Reflected: No*
G04 Dimensions in millimeters*
G04 Leading zeros omitted, absolute positions, 3 integers and 5 decimals*
%FSLAX35Y35*%
%MOMM*%
%AMRoundRect*1,1,$1,$2,$3*1,1,$1,$4,$5*1,1,$1,0-$2,0-$3*1,1,$1,0-$4,0-$5*20,1,$1,$2,$3,$4,$5,0*20,1,$1,$4,$5,0-$2,0-$3,0*20,1,$1,0-$2,0-$3,0-$4,0-$5,0*20,1,$1,0-$4,0-$5,$2,$3,0*4,1,4,$2,$3,$4,$5,0-$2,0-$3,0-$4,0-$5,$2,$3,0*%
%AMOval*1,1,$1,$2,$3*1,1,$1,$4,$5*20,1,$1,$2,$3,$4,$5,0*%
%ADD10RoundRect,0.08389X-0.50807X-0.21806X-0.50807X0.21806*%
%ADD11RoundRect,0.08389X0.50807X0.21806X0.50807X-0.21806*%
%ADD12RoundRect,0.08875X-0.50642X0.30643X0.50642X0.30643*%
%ADD13RoundRect,0.09588X-1.00286X0.80286X1.00286X0.80286*%
%ADD14RoundRect,0.09588X1.00286X-0.80286X-1.00286X-0.80286*%
%ADD15RoundRect,0.08109X-0.16024X0.76026X0.16024X0.76026*%
%ADD16RoundRect,0.08754X-0.27246X0.529X0.27246X0.529*%
%ADD17RoundRect,0.09617X0.85234X0.85234X0.85234X-0.85234*%
%ADD18C,1.80086*%
%ADD19RoundRect,0.08771X-0.27695X-0.28977X-0.27695X0.28977*%
%ADD20RoundRect,0.08771X0.27695X0.40199X0.27695X-0.40199*%
%ADD21RoundRect,0.08771X0.27695X0.28977X0.27695X-0.28977*%
%ADD22RoundRect,0.08771X-0.27695X-0.40199X-0.27695X0.40199*%
%ADD23RoundRect,0.08771X0.28977X-0.27695X-0.28977X-0.27695*%
%ADD24RoundRect,0.09302X-0.70406X-0.50429X-0.70406X0.50429*%
%ADD25RoundRect,0.08771X-0.28977X0.27695X0.28977X0.27695*%
%ADD26RoundRect,0.09424X-0.60368X-0.60368X-0.60368X0.60368*%
%ADD27RoundRect,0.09131X0.40519X0.45472X0.40519X-0.45472*%
%ADD28RoundRect,0.08874X-0.60587X0.30615X0.60587X0.30615*%
%ADD29C,1.9016*%
%ADD30RoundRect,0.09645X-0.90257X-0.90257X-0.90257X0.90257*%
%ADD31RoundRect,0.09716X1.06394X-1.9123X-1.06394X-1.9123*%
%ADD32RoundRect,0.08771X-0.40199X0.27695X0.40199X0.27695*%
%ADD33RoundRect,0.07882X0.36139X0.13639X0.36139X-0.13639*%
%ADD34RoundRect,0.07882X-0.36139X-0.13639X-0.36139X0.13639*%
%ADD35Oval,0.46561X0.0X-0.649X0.0X0.649*%
%ADD36RoundRect,0.09526X0.88317X-0.71567X-0.88317X-0.71567*%
%ADD37RoundRect,0.09017X-0.63072X0.35571X0.63072X0.35571*%
%ADD38RoundRect,0.08771X0.40199X-0.27695X-0.40199X-0.27695*%
%ADD39RoundRect,0.09336X-0.52863X0.85375X0.52863X0.85375*%
%ADD40RoundRect,0.09424X0.60368X-0.60368X-0.60368X-0.60368*%
%ADD41O,0.381X1.00076*%
%ADD42O,1.00076X0.381*%
%ADD43RoundRect,0.09979X-2.75046X2.75046X2.75046X2.75046*%
%ADD44RoundRect,0.09645X0.90257X0.90257X0.90257X-0.90257*%
%ADD45RoundRect,0.09618X0.85271X-0.85271X-0.85271X-0.85271*%
%ADD46C,1.8016*%
%ADD47RoundRect,0.09459X0.6037X0.6037X0.6037X-0.6037*%
%ADD48RoundRect,0.09336X-0.70409X-0.50432X-0.70409X0.50432*%
G75*


G04 Pad Start*
G54D10*
G01X2477199Y-951001D03*
G01X2477199Y-1016000D03*
G01X2477199Y-1080999D03*
G54D11*
G01X2247202Y-1080999D03*
G01X2247202Y-1016000D03*
G01X2247202Y-951001D03*
G54D12*
G01X2232190Y-729996D03*
G01X2232190Y-540004D03*
G01X2492210Y-540004D03*
G01X2492210Y-635000D03*
G01X2492210Y-729996D03*
G54D13*
G01X1055069Y-3883922D03*
G54D14*
G01X2244932Y-3883922D03*
G54D15*
G01X2075056Y-3616079D03*
G01X2025018Y-3616079D03*
G01X1974980Y-3616079D03*
G01X1925069Y-3616079D03*
G01X1875031Y-3616079D03*
G01X1825120Y-3616079D03*
G01X1775082Y-3616079D03*
G01X1725044Y-3616079D03*
G01X1675006Y-3616079D03*
G01X1624968Y-3616079D03*
G01X1575057Y-3616079D03*
G01X1525146Y-3616079D03*
G01X1475108Y-3616079D03*
G01X1425070Y-3616079D03*
G01X1375032Y-3616079D03*
G01X1324994Y-3616079D03*
G01X1274956Y-3616079D03*
G01X1225045Y-3616079D03*
G54D16*
G01X1492504Y-749808D03*
G01X1587500Y-749808D03*
G01X1682496Y-749808D03*
G01X1682496Y-520192D03*
G01X1492504Y-520192D03*
G54D17*
G01X180000Y-546100D03*
G54D18*
G01X180000Y-800100D03*
G01X180000Y-1054100D03*
G01X180000Y-1308100D03*
G54D19*
G01X2654300Y-3563518D03*
G01X2654300Y-3650082D03*
G54D20*
G01X2095500Y-2023008D03*
G01X2095500Y-1913992D03*
G54D19*
G01X2209800Y-1925218D03*
G01X2209800Y-2011782D03*
G54D21*
G01X2324100Y-2011782D03*
G01X2324100Y-1925218D03*
G54D22*
G01X676635Y-3207895D03*
G01X676635Y-3316912D03*
G01X562335Y-3207895D03*
G01X562335Y-3316912D03*
G54D20*
G01X562335Y-3024812D03*
G01X562335Y-2915795D03*
G01X676635Y-3024812D03*
G01X676635Y-2915795D03*
G54D23*
G01X845718Y-2781300D03*
G01X932282Y-2781300D03*
G54D24*
G01X457200Y-2505329D03*
G01X457200Y-2295271D03*
G54D23*
G01X401218Y-1981200D03*
G01X487782Y-1981200D03*
G54D25*
G01X271882Y-2095500D03*
G01X185318Y-2095500D03*
G01X487782Y-2095500D03*
G01X401218Y-2095500D03*
G54D26*
G01X2895600Y-2037093D03*
G01X2895600Y-2357107D03*
G54D19*
G01X2895600Y-1810918D03*
G01X2895600Y-1897482D03*
G54D21*
G01X2527300Y-2443582D03*
G01X2527300Y-2357018D03*
G01X3200400Y-1897482D03*
G01X3200400Y-1810918D03*
G54D19*
G01X3073400Y-1810918D03*
G01X3073400Y-1897482D03*
G54D27*
G01X3009924Y-2727026D03*
G01X3009924Y-3072974D03*
G54D28*
G01X3210076Y-2659970D03*
G01X3210076Y-3140030D03*
G54D26*
G01X3136900Y-2037093D03*
G01X3136900Y-2357107D03*
G54D29*
G01X3120000Y-3373000D03*
G54D30*
G01X3120000Y-3627000D03*
G54D31*
G01X1955800Y-3060700D03*
G01X2311400Y-3060700D03*
G54D20*
G01X2411879Y-2742336D03*
G01X2411879Y-2633319D03*
G01X2640479Y-2738627D03*
G01X2640479Y-2629611D03*
G01X2526179Y-2742336D03*
G01X2526179Y-2633319D03*
G54D32*
G01X2188108Y-2235200D03*
G01X2079092Y-2235200D03*
G54D21*
G01X1854250Y-2450642D03*
G01X1854250Y-2364079D03*
G01X1739950Y-2450642D03*
G01X1739950Y-2364079D03*
G54D20*
G01X1625600Y-2708808D03*
G01X1625600Y-2599792D03*
G01X1734770Y-2714215D03*
G01X1734770Y-2605198D03*
G01X1849070Y-2714215D03*
G01X1849070Y-2605198D03*
G54D22*
G01X1625650Y-2356561D03*
G01X1625650Y-2465577D03*
G54D33*
G01X1988865Y-2375207D03*
G01X1988865Y-2425219D03*
G01X1988865Y-2475232D03*
G01X1988865Y-2525219D03*
G01X1988865Y-2575232D03*
G54D34*
G01X2278882Y-2575232D03*
G01X2278882Y-2525219D03*
G01X2278882Y-2475232D03*
G01X2278882Y-2425219D03*
G01X2278882Y-2375207D03*
G54D33*
G01X1988865Y-2675231D03*
G01X1988865Y-2625219D03*
G01X2278882Y-2675231D03*
G01X2278882Y-2625219D03*
G36*
G01X2054877Y-2750296D02*
G02X2049797Y-2745216I0J5080D01*
G01Y-2305217D01*
G02X2054877Y-2300137I5080J0D01*
G01X2074877D01*
G02X2079957Y-2305217I0J-5080D01*
G01Y-2377137D01*
G01X2095797D01*
G01Y-2305217D01*
G02X2100877Y-2300137I5080J0D01*
G01X2120877D01*
G02X2125957Y-2305217I0J-5080D01*
G01Y-2377137D01*
G01X2141796D01*
G01Y-2305217D01*
G02X2146876Y-2300137I5080J0D01*
G01X2166876D01*
G02X2171956Y-2305217I0J-5080D01*
G01Y-2377137D01*
G01X2187795D01*
G01Y-2305217D01*
G02X2192875Y-2300137I5080J0D01*
G01X2212875D01*
G02X2217955Y-2305217I0J-5080D01*
G01Y-2745216D01*
G02X2212875Y-2750296I-5080J0D01*
G01X2192875D01*
G02X2187795Y-2745216I0J5080D01*
G01Y-2673296D01*
G01X2171956D01*
G01Y-2745216D01*
G02X2166876Y-2750296I-5080J0D01*
G01X2146876D01*
G02X2141796Y-2745216I0J5080D01*
G01Y-2673296D01*
G01X2125957D01*
G01Y-2745216D01*
G02X2120877Y-2750296I-5080J0D01*
G01X2100877D01*
G02X2095797Y-2745216I0J5080D01*
G01Y-2673296D01*
G01X2079957D01*
G01Y-2745216D01*
G02X2074877Y-2750296I-5080J0D01*
G01X2054877D01*
G37*
G54D35*
G01X1005445Y-2933988D03*
G01X940421Y-2933988D03*
G01X875422Y-2933988D03*
G01X810424Y-2933988D03*
G01X1005445Y-3360200D03*
G01X940421Y-3360200D03*
G01X875422Y-3360200D03*
G01X810424Y-3360200D03*
G54D36*
G01X907934Y-3147094D03*
G54D19*
G01X2527300Y-3817518D03*
G01X2527300Y-3904082D03*
G01X2654300Y-3817518D03*
G01X2654300Y-3904082D03*
G01X2768600Y-3817518D03*
G01X2768600Y-3904082D03*
G01X762000Y-3842918D03*
G01X762000Y-3929482D03*
G01X622300Y-3842918D03*
G01X622300Y-3929482D03*
G54D37*
G01X2487600Y-3562096D03*
G01X2487600Y-3372104D03*
G01X2287600Y-3467100D03*
G54D27*
G01X3009924Y-1127026D03*
G01X3009924Y-1472974D03*
G54D28*
G01X3210076Y-1059970D03*
G01X3210076Y-1540030D03*
G54D32*
G01X2429408Y-1231900D03*
G01X2320392Y-1231900D03*
G54D25*
G01X589382Y-1549400D03*
G01X502818Y-1549400D03*
G54D32*
G01X1629308Y-2171700D03*
G01X1520292Y-2171700D03*
G54D38*
G01X1253592Y-2171700D03*
G01X1362608Y-2171700D03*
G54D39*
G01X1320292Y-1981200D03*
G01X1575308Y-1981200D03*
G54D38*
G01X1745183Y-2044700D03*
G01X1854200Y-2044700D03*
G54D23*
G01X1754937Y-1930400D03*
G01X1841500Y-1930400D03*
G54D22*
G01X1130300Y-2040992D03*
G01X1130300Y-2150008D03*
G54D21*
G01X629818Y-1788363D03*
G01X629818Y-1701800D03*
G54D40*
G01X182893Y-1739900D03*
G01X502907Y-1739900D03*
G54D41*
G01X1324918Y-1747332D03*
G01X1374956Y-1747332D03*
G01X1424994Y-1747332D03*
G01X1475032Y-1747332D03*
G01X1525070Y-1747332D03*
G01X1575108Y-1747332D03*
G01X1624892Y-1747332D03*
G01X1674930Y-1747332D03*
G01X1724968Y-1747332D03*
G01X1775006Y-1747332D03*
G01X1825044Y-1747332D03*
G01X1875082Y-1747332D03*
G54D42*
G01X1944932Y-1677482D03*
G01X1944932Y-1627444D03*
G01X1944932Y-1577406D03*
G01X1944932Y-1527368D03*
G01X1944932Y-1477330D03*
G01X1944932Y-1427292D03*
G01X1944932Y-1377508D03*
G01X1944932Y-1327470D03*
G01X1944932Y-1277432D03*
G01X1944932Y-1227394D03*
G01X1944932Y-1177356D03*
G01X1944932Y-1127318D03*
G54D41*
G01X1875082Y-1057468D03*
G01X1825044Y-1057468D03*
G01X1775006Y-1057468D03*
G01X1724968Y-1057468D03*
G01X1674930Y-1057468D03*
G01X1624892Y-1057468D03*
G01X1575108Y-1057468D03*
G01X1525070Y-1057468D03*
G01X1475032Y-1057468D03*
G01X1424994Y-1057468D03*
G01X1374956Y-1057468D03*
G01X1324918Y-1057468D03*
G54D42*
G01X1255068Y-1127318D03*
G01X1255068Y-1177356D03*
G01X1255068Y-1227394D03*
G01X1255068Y-1277432D03*
G01X1255068Y-1327470D03*
G01X1255068Y-1377508D03*
G01X1255068Y-1427292D03*
G01X1255068Y-1477330D03*
G01X1255068Y-1527368D03*
G01X1255068Y-1577406D03*
G01X1255068Y-1627444D03*
G01X1255068Y-1677482D03*
G54D43*
G01X1600000Y-1402400D03*
G54D29*
G01X180000Y-3627000D03*
G54D44*
G01X180000Y-3373000D03*
G54D23*
G01X2179218Y-850900D03*
G01X2265782Y-850900D03*
G54D22*
G01X1130300Y-1774292D03*
G01X1130300Y-1883308D03*
G54D20*
G01X2032000Y-956208D03*
G01X2032000Y-847192D03*
G54D32*
G01X994308Y-1028700D03*
G01X885292Y-1028700D03*
G54D22*
G01X1981200Y-1913992D03*
G01X1981200Y-2023008D03*
G54D19*
G01X1841500Y-660400D03*
G01X1841500Y-746963D03*
G01X1333500Y-655218D03*
G01X1333500Y-741782D03*
G54D45*
G01X2666000Y-200000D03*
G54D46*
G01X2412000Y-200000D03*
G01X2158000Y-200000D03*
G01X1904000Y-200000D03*
G01X1650000Y-200000D03*
G01X1396000Y-200000D03*
G01X1142000Y-200000D03*
G01X888000Y-200000D03*
G01X634000Y-200000D03*
G54D21*
G01X2413000Y-2443582D03*
G01X2413000Y-2357018D03*
G54D47*
G01X383838Y-3160664D03*
G01X383838Y-2840650D03*
G54D48*
G01X219554Y-2297135D03*
G01X219554Y-2507193D03*
G04 Pad End*

M02*
