G04 Layer: TopPasteMaskLayer*
G04 EasyEDA Pro v2.1.57.773a98f1.225d47, 2024-05-26 20:13:26*
G04 Gerber Generator version 0.3*
G04 Scale: 100 percent, Rotated: No, Reflected: No*
G04 Dimensions in millimeters*
G04 Leading zeros omitted, absolute positions, 3 integers and 5 decimals*
%FSLAX35Y35*%
%MOMM*%
%AMPolygonMacro1*4,1,28,0.58999,2.2,0.58999,1.42999,0.33,1.42999,0.33,2.2,0.13,2.2,0.13,1.42999,-0.13,1.42999,-0.13,2.2,-0.33,2.2,-0.33,1.42999,-0.58999,1.42999,-0.58999,2.2,-0.78999,2.2,-0.78999,-2.2,-0.58999,-2.2,-0.58999,-1.42999,-0.33,-1.42999,-0.33,-2.2,-0.13,-2.2,-0.13,-1.42999,0.13,-1.42999,0.13,-2.2,0.33,-2.2,0.33,-1.42999,0.58999,-1.42999,0.58999,-2.2,0.78999,-2.2,0.78999,2.2,0.58999,2.2,0*%
%AMOval*1,1,$1,$2,$3*1,1,$1,$4,$5*20,1,$1,$2,$3,$4,$5,0*%
%ADD10R,1.0X0.41999*%
%ADD11R,1.0X0.41999*%
%ADD12R,1.0X0.6*%
%ADD13R,2.0X1.6*%
%ADD14R,2.0X1.6*%
%ADD15R,0.29997X1.5*%
%ADD16R,0.53086X1.04394*%
%ADD17R,1.39954X1.0*%
%ADD18R,1.2X1.2*%
%ADD19R,0.8027X0.89916*%
%ADD20R,0.8001X0.89916*%
%ADD21R,1.19888X0.59944*%
%ADD22R,2.12344X3.82016*%
%ADD23R,0.7X0.25001*%
%ADD24R,0.7X0.25001*%
%ADD25PolygonMacro1*%
%ADD26Oval,0.36401X0.0X-0.649X0.0X0.649*%
%ADD27R,1.75999X1.42499*%
%ADD28R,1.25001X0.7*%
%ADD29R,1.04902X1.69926*%
%ADD30R,1.2X1.2*%
%ADD31O,0.2794X0.89916*%
%ADD32O,0.89916X0.2794*%
%ADD33R,5.4991X5.4991*%
%ADD34R,1.2X1.2*%
G75*


G04 PolygonModel Start*
G36*
G01X2677300Y-3593300D02*
G01X2631300Y-3593300D01*
G01X2627300Y-3589299D01*
G01Y-3539236D01*
G01X2631300Y-3535235D01*
G01X2677300D01*
G01X2681300Y-3539236D01*
G01Y-3589299D01*
G01X2677300Y-3593300D01*
G37*
G36*
G01X2677300Y-3620300D02*
G01X2631300Y-3620300D01*
G01X2627300Y-3624301D01*
G01Y-3674364D01*
G01X2631300Y-3678364D01*
G01X2677300D01*
G01X2681300Y-3674364D01*
G01Y-3624301D01*
G01X2677300Y-3620300D01*
G37*
G36*
G01X2118002Y-1950496D02*
G01X2073001Y-1950496D01*
G01X2068002Y-1943499D01*
G01Y-1895498D01*
G01X2073001Y-1890497D01*
G01X2118002D01*
G01X2123001Y-1895498D01*
G01Y-1943499D01*
G01X2118002Y-1950496D01*
G37*
G36*
G01X2118002Y-2046498D02*
G01X2073001Y-2046498D01*
G01X2068002Y-2041497D01*
G01Y-1993499D01*
G01X2073001Y-1986498D01*
G01X2118002D01*
G01X2123001Y-1993499D01*
G01Y-2041497D01*
G01X2118002Y-2046498D01*
G37*
G36*
G01X2232800Y-1955000D02*
G01X2186800Y-1955000D01*
G01X2182800Y-1950999D01*
G01Y-1900936D01*
G01X2186800Y-1896935D01*
G01X2232800D01*
G01X2236800Y-1900936D01*
G01Y-1950999D01*
G01X2232800Y-1955000D01*
G37*
G36*
G01X2232800Y-1982000D02*
G01X2186800Y-1982000D01*
G01X2182800Y-1986001D01*
G01Y-2036064D01*
G01X2186800Y-2040064D01*
G01X2232800D01*
G01X2236800Y-2036064D01*
G01Y-1986001D01*
G01X2232800Y-1982000D01*
G37*
G36*
G01X2301100Y-1982000D02*
G01X2347100Y-1982000D01*
G01X2351100Y-1986001D01*
G01Y-2036064D01*
G01X2347100Y-2040064D01*
G01X2301100D01*
G01X2297100Y-2036064D01*
G01Y-1986001D01*
G01X2301100Y-1982000D01*
G37*
G36*
G01X2301100Y-1955000D02*
G01X2347100Y-1955000D01*
G01X2351100Y-1950999D01*
G01Y-1900936D01*
G01X2347100Y-1896935D01*
G01X2301100D01*
G01X2297100Y-1900936D01*
G01Y-1950999D01*
G01X2301100Y-1955000D01*
G37*
G36*
G01X654133Y-3280407D02*
G01X699134Y-3280407D01*
G01X704133Y-3287405D01*
G01Y-3335406D01*
G01X699134Y-3340407D01*
G01X654133D01*
G01X649135Y-3335406D01*
G01Y-3287405D01*
G01X654133Y-3280407D01*
G37*
G36*
G01X654133Y-3184405D02*
G01X699134Y-3184405D01*
G01X704133Y-3189406D01*
G01Y-3237405D01*
G01X699134Y-3244405D01*
G01X654133D01*
G01X649135Y-3237405D01*
G01Y-3189406D01*
G01X654133Y-3184405D01*
G37*
G36*
G01X539833Y-3280407D02*
G01X584834Y-3280407D01*
G01X589833Y-3287405D01*
G01Y-3335406D01*
G01X584834Y-3340407D01*
G01X539833D01*
G01X534835Y-3335406D01*
G01Y-3287405D01*
G01X539833Y-3280407D01*
G37*
G36*
G01X539833Y-3184405D02*
G01X584834Y-3184405D01*
G01X589833Y-3189406D01*
G01Y-3237405D01*
G01X584834Y-3244405D01*
G01X539833D01*
G01X534835Y-3237405D01*
G01Y-3189406D01*
G01X539833Y-3184405D01*
G37*
G36*
G01X584837Y-2952300D02*
G01X539836Y-2952300D01*
G01X534837Y-2945302D01*
G01Y-2897301D01*
G01X539836Y-2892300D01*
G01X584837D01*
G01X589836Y-2897301D01*
G01Y-2945302D01*
G01X584837Y-2952300D01*
G37*
G36*
G01X584837Y-3048302D02*
G01X539836Y-3048302D01*
G01X534837Y-3043300D01*
G01Y-2995302D01*
G01X539836Y-2988302D01*
G01X584837D01*
G01X589836Y-2995302D01*
G01Y-3043300D01*
G01X584837Y-3048302D01*
G37*
G36*
G01X699137Y-2952300D02*
G01X654136Y-2952300D01*
G01X649137Y-2945302D01*
G01Y-2897301D01*
G01X654136Y-2892300D01*
G01X699137D01*
G01X704136Y-2897301D01*
G01Y-2945302D01*
G01X699137Y-2952300D01*
G37*
G36*
G01X699137Y-3048302D02*
G01X654136Y-3048302D01*
G01X649137Y-3043300D01*
G01Y-2995302D01*
G01X654136Y-2988302D01*
G01X699137D01*
G01X704136Y-2995302D01*
G01Y-3043300D01*
G01X699137Y-3048302D01*
G37*
G36*
G01X875500Y-2758300D02*
G01X875500Y-2804300D01*
G01X871499Y-2808300D01*
G01X821436D01*
G01X817436Y-2804300D01*
G01Y-2758300D01*
G01X821436Y-2754300D01*
G01X871499D01*
G01X875500Y-2758300D01*
G37*
G36*
G01X902500Y-2758300D02*
G01X902500Y-2804300D01*
G01X906501Y-2808300D01*
G01X956564D01*
G01X960565Y-2804300D01*
G01Y-2758300D01*
G01X956564Y-2754300D01*
G01X906501D01*
G01X902500Y-2758300D01*
G37*
G36*
G01X431000Y-1958200D02*
G01X431000Y-2004200D01*
G01X426999Y-2008200D01*
G01X376936D01*
G01X372936Y-2004200D01*
G01Y-1958200D01*
G01X376936Y-1954200D01*
G01X426999D01*
G01X431000Y-1958200D01*
G37*
G36*
G01X458000Y-1958200D02*
G01X458000Y-2004200D01*
G01X462001Y-2008200D01*
G01X512064D01*
G01X516065Y-2004200D01*
G01Y-1958200D01*
G01X512064Y-1954200D01*
G01X462001D01*
G01X458000Y-1958200D01*
G37*
G36*
G01X242100Y-2118500D02*
G01X242100Y-2072500D01*
G01X246101Y-2068500D01*
G01X296164D01*
G01X300165Y-2072500D01*
G01Y-2118500D01*
G01X296164Y-2122500D01*
G01X246101D01*
G01X242100Y-2118500D01*
G37*
G36*
G01X215100Y-2118500D02*
G01X215100Y-2072500D01*
G01X211099Y-2068500D01*
G01X161036D01*
G01X157036Y-2072500D01*
G01Y-2118500D01*
G01X161036Y-2122500D01*
G01X211099D01*
G01X215100Y-2118500D01*
G37*
G36*
G01X458000Y-2118500D02*
G01X458000Y-2072500D01*
G01X462001Y-2068500D01*
G01X512064D01*
G01X516065Y-2072500D01*
G01Y-2118500D01*
G01X512064Y-2122500D01*
G01X462001D01*
G01X458000Y-2118500D01*
G37*
G36*
G01X431000Y-2118500D02*
G01X431000Y-2072500D01*
G01X426999Y-2068500D01*
G01X376936D01*
G01X372936Y-2072500D01*
G01Y-2118500D01*
G01X376936Y-2122500D01*
G01X426999D01*
G01X431000Y-2118500D01*
G37*
G36*
G01X2918600Y-1840700D02*
G01X2872600Y-1840700D01*
G01X2868600Y-1836699D01*
G01Y-1786636D01*
G01X2872600Y-1782635D01*
G01X2918600D01*
G01X2922600Y-1786636D01*
G01Y-1836699D01*
G01X2918600Y-1840700D01*
G37*
G36*
G01X2918600Y-1867700D02*
G01X2872600Y-1867700D01*
G01X2868600Y-1871701D01*
G01Y-1921764D01*
G01X2872600Y-1925764D01*
G01X2918600D01*
G01X2922600Y-1921764D01*
G01Y-1871701D01*
G01X2918600Y-1867700D01*
G37*
G36*
G01X2504300Y-2413800D02*
G01X2550300Y-2413800D01*
G01X2554300Y-2417801D01*
G01Y-2467864D01*
G01X2550300Y-2471864D01*
G01X2504300D01*
G01X2500300Y-2467864D01*
G01Y-2417801D01*
G01X2504300Y-2413800D01*
G37*
G36*
G01X2504300Y-2386800D02*
G01X2550300Y-2386800D01*
G01X2554300Y-2382799D01*
G01Y-2332736D01*
G01X2550300Y-2328735D01*
G01X2504300D01*
G01X2500300Y-2332736D01*
G01Y-2382799D01*
G01X2504300Y-2386800D01*
G37*
G36*
G01X3177400Y-1867700D02*
G01X3223400Y-1867700D01*
G01X3227400Y-1871701D01*
G01Y-1921764D01*
G01X3223400Y-1925764D01*
G01X3177400D01*
G01X3173400Y-1921764D01*
G01Y-1871701D01*
G01X3177400Y-1867700D01*
G37*
G36*
G01X3177400Y-1840700D02*
G01X3223400Y-1840700D01*
G01X3227400Y-1836699D01*
G01Y-1786636D01*
G01X3223400Y-1782635D01*
G01X3177400D01*
G01X3173400Y-1786636D01*
G01Y-1836699D01*
G01X3177400Y-1840700D01*
G37*
G36*
G01X3096400Y-1840700D02*
G01X3050400Y-1840700D01*
G01X3046400Y-1836699D01*
G01Y-1786636D01*
G01X3050400Y-1782635D01*
G01X3096400D01*
G01X3100400Y-1786636D01*
G01Y-1836699D01*
G01X3096400Y-1840700D01*
G37*
G36*
G01X3096400Y-1867700D02*
G01X3050400Y-1867700D01*
G01X3046400Y-1871701D01*
G01Y-1921764D01*
G01X3050400Y-1925764D01*
G01X3096400D01*
G01X3100400Y-1921764D01*
G01Y-1871701D01*
G01X3096400Y-1867700D01*
G37*
G36*
G01X2434381Y-2669824D02*
G01X2389380Y-2669824D01*
G01X2384381Y-2662826D01*
G01Y-2614825D01*
G01X2389380Y-2609824D01*
G01X2434381D01*
G01X2439379Y-2614825D01*
G01Y-2662826D01*
G01X2434381Y-2669824D01*
G37*
G36*
G01X2434381Y-2765826D02*
G01X2389380Y-2765826D01*
G01X2384381Y-2760825D01*
G01Y-2712826D01*
G01X2389380Y-2705826D01*
G01X2434381D01*
G01X2439379Y-2712826D01*
G01Y-2760825D01*
G01X2434381Y-2765826D01*
G37*
G36*
G01X2662981Y-2666116D02*
G01X2617980Y-2666116D01*
G01X2612981Y-2659118D01*
G01Y-2611117D01*
G01X2617980Y-2606116D01*
G01X2662981D01*
G01X2667979Y-2611117D01*
G01Y-2659118D01*
G01X2662981Y-2666116D01*
G37*
G36*
G01X2662981Y-2762117D02*
G01X2617980Y-2762117D01*
G01X2612981Y-2757116D01*
G01Y-2709118D01*
G01X2617980Y-2702118D01*
G01X2662981D01*
G01X2667979Y-2709118D01*
G01Y-2757116D01*
G01X2662981Y-2762117D01*
G37*
G36*
G01X2548681Y-2669824D02*
G01X2503680Y-2669824D01*
G01X2498681Y-2662826D01*
G01Y-2614825D01*
G01X2503680Y-2609824D01*
G01X2548681D01*
G01X2553679Y-2614825D01*
G01Y-2662826D01*
G01X2548681Y-2669824D01*
G37*
G36*
G01X2548681Y-2765826D02*
G01X2503680Y-2765826D01*
G01X2498681Y-2760825D01*
G01Y-2712826D01*
G01X2503680Y-2705826D01*
G01X2548681D01*
G01X2553679Y-2712826D01*
G01Y-2760825D01*
G01X2548681Y-2765826D01*
G37*
G36*
G01X2115596Y-2212698D02*
G01X2115596Y-2257699D01*
G01X2108599Y-2262698D01*
G01X2060598D01*
G01X2055597Y-2257699D01*
G01Y-2212698D01*
G01X2060598Y-2207699D01*
G01X2108599D01*
G01X2115596Y-2212698D01*
G37*
G36*
G01X2211598Y-2212698D02*
G01X2211598Y-2257699D01*
G01X2206597Y-2262698D01*
G01X2158599D01*
G01X2151598Y-2257699D01*
G01Y-2212698D01*
G01X2158599Y-2207699D01*
G01X2206597D01*
G01X2211598Y-2212698D01*
G37*
G36*
G01X1831250Y-2420861D02*
G01X1877249Y-2420861D01*
G01X1881250Y-2424861D01*
G01Y-2474925D01*
G01X1877249Y-2478925D01*
G01X1831250D01*
G01X1827249Y-2474925D01*
G01Y-2424861D01*
G01X1831250Y-2420861D01*
G37*
G36*
G01X1831250Y-2393861D02*
G01X1877249Y-2393861D01*
G01X1881250Y-2389860D01*
G01Y-2339797D01*
G01X1877249Y-2335796D01*
G01X1831250D01*
G01X1827249Y-2339797D01*
G01Y-2389860D01*
G01X1831250Y-2393861D01*
G37*
G36*
G01X1716950Y-2420861D02*
G01X1762949Y-2420861D01*
G01X1766950Y-2424861D01*
G01Y-2474925D01*
G01X1762949Y-2478925D01*
G01X1716950D01*
G01X1712949Y-2474925D01*
G01Y-2424861D01*
G01X1716950Y-2420861D01*
G37*
G36*
G01X1716950Y-2393861D02*
G01X1762949Y-2393861D01*
G01X1766950Y-2389860D01*
G01Y-2339797D01*
G01X1762949Y-2335796D01*
G01X1716950D01*
G01X1712949Y-2339797D01*
G01Y-2389860D01*
G01X1716950Y-2393861D01*
G37*
G36*
G01X1648102Y-2636296D02*
G01X1603101Y-2636296D01*
G01X1598102Y-2629299D01*
G01Y-2581298D01*
G01X1603101Y-2576297D01*
G01X1648102D01*
G01X1653101Y-2581298D01*
G01Y-2629299D01*
G01X1648102Y-2636296D01*
G37*
G36*
G01X1648102Y-2732298D02*
G01X1603101Y-2732298D01*
G01X1598102Y-2727297D01*
G01Y-2679299D01*
G01X1603101Y-2672298D01*
G01X1648102D01*
G01X1653101Y-2679299D01*
G01Y-2727297D01*
G01X1648102Y-2732298D01*
G37*
G36*
G01X1757272Y-2641703D02*
G01X1712271Y-2641703D01*
G01X1707272Y-2634705D01*
G01Y-2586704D01*
G01X1712271Y-2581703D01*
G01X1757272D01*
G01X1762271Y-2586704D01*
G01Y-2634705D01*
G01X1757272Y-2641703D01*
G37*
G36*
G01X1757272Y-2737705D02*
G01X1712271Y-2737705D01*
G01X1707272Y-2732703D01*
G01Y-2684705D01*
G01X1712271Y-2677705D01*
G01X1757272D01*
G01X1762271Y-2684705D01*
G01Y-2732703D01*
G01X1757272Y-2737705D01*
G37*
G36*
G01X1871572Y-2641703D02*
G01X1826571Y-2641703D01*
G01X1821572Y-2634705D01*
G01Y-2586704D01*
G01X1826571Y-2581703D01*
G01X1871572D01*
G01X1876571Y-2586704D01*
G01Y-2634705D01*
G01X1871572Y-2641703D01*
G37*
G36*
G01X1871572Y-2737705D02*
G01X1826571Y-2737705D01*
G01X1821572Y-2732703D01*
G01Y-2684705D01*
G01X1826571Y-2677705D01*
G01X1871572D01*
G01X1876571Y-2684705D01*
G01Y-2732703D01*
G01X1871572Y-2737705D01*
G37*
G36*
G01X1603148Y-2429073D02*
G01X1648149Y-2429073D01*
G01X1653148Y-2436070D01*
G01Y-2484071D01*
G01X1648149Y-2489072D01*
G01X1603148D01*
G01X1598149Y-2484071D01*
G01Y-2436070D01*
G01X1603148Y-2429073D01*
G37*
G36*
G01X1603148Y-2333071D02*
G01X1648149Y-2333071D01*
G01X1653148Y-2338072D01*
G01Y-2386070D01*
G01X1648149Y-2393071D01*
G01X1603148D01*
G01X1598149Y-2386070D01*
G01Y-2338072D01*
G01X1603148Y-2333071D01*
G37*
G36*
G01X2550300Y-3847300D02*
G01X2504300Y-3847300D01*
G01X2500300Y-3843299D01*
G01Y-3793236D01*
G01X2504300Y-3789235D01*
G01X2550300D01*
G01X2554300Y-3793236D01*
G01Y-3843299D01*
G01X2550300Y-3847300D01*
G37*
G36*
G01X2550300Y-3874300D02*
G01X2504300Y-3874300D01*
G01X2500300Y-3878301D01*
G01Y-3928364D01*
G01X2504300Y-3932364D01*
G01X2550300D01*
G01X2554300Y-3928364D01*
G01Y-3878301D01*
G01X2550300Y-3874300D01*
G37*
G36*
G01X2677300Y-3847300D02*
G01X2631300Y-3847300D01*
G01X2627300Y-3843299D01*
G01Y-3793236D01*
G01X2631300Y-3789235D01*
G01X2677300D01*
G01X2681300Y-3793236D01*
G01Y-3843299D01*
G01X2677300Y-3847300D01*
G37*
G36*
G01X2677300Y-3874300D02*
G01X2631300Y-3874300D01*
G01X2627300Y-3878301D01*
G01Y-3928364D01*
G01X2631300Y-3932364D01*
G01X2677300D01*
G01X2681300Y-3928364D01*
G01Y-3878301D01*
G01X2677300Y-3874300D01*
G37*
G36*
G01X2791600Y-3847300D02*
G01X2745600Y-3847300D01*
G01X2741600Y-3843299D01*
G01Y-3793236D01*
G01X2745600Y-3789235D01*
G01X2791600D01*
G01X2795600Y-3793236D01*
G01Y-3843299D01*
G01X2791600Y-3847300D01*
G37*
G36*
G01X2791600Y-3874300D02*
G01X2745600Y-3874300D01*
G01X2741600Y-3878301D01*
G01Y-3928364D01*
G01X2745600Y-3932364D01*
G01X2791600D01*
G01X2795600Y-3928364D01*
G01Y-3878301D01*
G01X2791600Y-3874300D01*
G37*
G36*
G01X785000Y-3872700D02*
G01X739000Y-3872700D01*
G01X735000Y-3868699D01*
G01Y-3818636D01*
G01X739000Y-3814635D01*
G01X785000D01*
G01X789000Y-3818636D01*
G01Y-3868699D01*
G01X785000Y-3872700D01*
G37*
G36*
G01X785000Y-3899700D02*
G01X739000Y-3899700D01*
G01X735000Y-3903701D01*
G01Y-3953764D01*
G01X739000Y-3957764D01*
G01X785000D01*
G01X789000Y-3953764D01*
G01Y-3903701D01*
G01X785000Y-3899700D01*
G37*
G36*
G01X645300Y-3872700D02*
G01X599300Y-3872700D01*
G01X595300Y-3868699D01*
G01Y-3818636D01*
G01X599300Y-3814635D01*
G01X645300D01*
G01X649300Y-3818636D01*
G01Y-3868699D01*
G01X645300Y-3872700D01*
G37*
G36*
G01X645300Y-3899700D02*
G01X599300Y-3899700D01*
G01X595300Y-3903701D01*
G01Y-3953764D01*
G01X599300Y-3957764D01*
G01X645300D01*
G01X649300Y-3953764D01*
G01Y-3903701D01*
G01X645300Y-3899700D01*
G37*
G36*
G01X2356896Y-1209398D02*
G01X2356896Y-1254399D01*
G01X2349899Y-1259398D01*
G01X2301898D01*
G01X2296897Y-1254399D01*
G01Y-1209398D01*
G01X2301898Y-1204399D01*
G01X2349899D01*
G01X2356896Y-1209398D01*
G37*
G36*
G01X2452898Y-1209398D02*
G01X2452898Y-1254399D01*
G01X2447897Y-1259398D01*
G01X2399899D01*
G01X2392898Y-1254399D01*
G01Y-1209398D01*
G01X2399899Y-1204399D01*
G01X2447897D01*
G01X2452898Y-1209398D01*
G37*
G36*
G01X559600Y-1572400D02*
G01X559600Y-1526400D01*
G01X563601Y-1522400D01*
G01X613664D01*
G01X617665Y-1526400D01*
G01Y-1572400D01*
G01X613664Y-1576400D01*
G01X563601D01*
G01X559600Y-1572400D01*
G37*
G36*
G01X532600Y-1572400D02*
G01X532600Y-1526400D01*
G01X528599Y-1522400D01*
G01X478536D01*
G01X474536Y-1526400D01*
G01Y-1572400D01*
G01X478536Y-1576400D01*
G01X528599D01*
G01X532600Y-1572400D01*
G37*
G36*
G01X1556796Y-2149198D02*
G01X1556796Y-2194199D01*
G01X1549799Y-2199198D01*
G01X1501798D01*
G01X1496797Y-2194199D01*
G01Y-2149198D01*
G01X1501798Y-2144199D01*
G01X1549799D01*
G01X1556796Y-2149198D01*
G37*
G36*
G01X1652798Y-2149198D02*
G01X1652798Y-2194199D01*
G01X1647797Y-2199198D01*
G01X1599799D01*
G01X1592798Y-2194199D01*
G01Y-2149198D01*
G01X1599799Y-2144199D01*
G01X1647797D01*
G01X1652798Y-2149198D01*
G37*
G36*
G01X1326104Y-2194202D02*
G01X1326104Y-2149201D01*
G01X1333101Y-2144202D01*
G01X1381102D01*
G01X1386103Y-2149201D01*
G01Y-2194202D01*
G01X1381102Y-2199201D01*
G01X1333101D01*
G01X1326104Y-2194202D01*
G37*
G36*
G01X1230102Y-2194202D02*
G01X1230102Y-2149201D01*
G01X1235103Y-2144202D01*
G01X1283101D01*
G01X1290102Y-2149201D01*
G01Y-2194202D01*
G01X1283101Y-2199201D01*
G01X1235103D01*
G01X1230102Y-2194202D01*
G37*
G36*
G01X1817695Y-2067202D02*
G01X1817695Y-2022201D01*
G01X1824693Y-2017202D01*
G01X1872694D01*
G01X1877695Y-2022201D01*
G01Y-2067202D01*
G01X1872694Y-2072201D01*
G01X1824693D01*
G01X1817695Y-2067202D01*
G37*
G36*
G01X1721693Y-2067202D02*
G01X1721693Y-2022201D01*
G01X1726695Y-2017202D01*
G01X1774693D01*
G01X1781693Y-2022201D01*
G01Y-2067202D01*
G01X1774693Y-2072201D01*
G01X1726695D01*
G01X1721693Y-2067202D01*
G37*
G36*
G01X1784718Y-1907400D02*
G01X1784718Y-1953400D01*
G01X1780718Y-1957400D01*
G01X1730654D01*
G01X1726654Y-1953400D01*
G01Y-1907400D01*
G01X1730654Y-1903400D01*
G01X1780718D01*
G01X1784718Y-1907400D01*
G37*
G36*
G01X1811719Y-1907400D02*
G01X1811719Y-1953400D01*
G01X1815719Y-1957400D01*
G01X1865782D01*
G01X1869783Y-1953400D01*
G01Y-1907400D01*
G01X1865782Y-1903400D01*
G01X1815719D01*
G01X1811719Y-1907400D01*
G37*
G36*
G01X1107798Y-2113504D02*
G01X1152799Y-2113504D01*
G01X1157798Y-2120501D01*
G01Y-2168502D01*
G01X1152799Y-2173503D01*
G01X1107798D01*
G01X1102799Y-2168502D01*
G01Y-2120501D01*
G01X1107798Y-2113504D01*
G37*
G36*
G01X1107798Y-2017502D02*
G01X1152799Y-2017502D01*
G01X1157798Y-2022503D01*
G01Y-2070501D01*
G01X1152799Y-2077502D01*
G01X1107798D01*
G01X1102799Y-2070501D01*
G01Y-2022503D01*
G01X1107798Y-2017502D01*
G37*
G36*
G01X606819Y-1758582D02*
G01X652818Y-1758582D01*
G01X656819Y-1762582D01*
G01Y-1812646D01*
G01X652818Y-1816646D01*
G01X606819D01*
G01X602818Y-1812646D01*
G01Y-1762582D01*
G01X606819Y-1758582D01*
G37*
G36*
G01X606819Y-1731581D02*
G01X652818Y-1731581D01*
G01X656819Y-1727581D01*
G01Y-1677518D01*
G01X652818Y-1673517D01*
G01X606819D01*
G01X602818Y-1677518D01*
G01Y-1727581D01*
G01X606819Y-1731581D01*
G37*
G36*
G01X2209000Y-827900D02*
G01X2209000Y-873900D01*
G01X2204999Y-877900D01*
G01X2154936D01*
G01X2150936Y-873900D01*
G01Y-827900D01*
G01X2154936Y-823900D01*
G01X2204999D01*
G01X2209000Y-827900D01*
G37*
G36*
G01X2236000Y-827900D02*
G01X2236000Y-873900D01*
G01X2240001Y-877900D01*
G01X2290064D01*
G01X2294065Y-873900D01*
G01Y-827900D01*
G01X2290064Y-823900D01*
G01X2240001D01*
G01X2236000Y-827900D01*
G37*
G36*
G01X1107798Y-1846804D02*
G01X1152799Y-1846804D01*
G01X1157798Y-1853801D01*
G01Y-1901802D01*
G01X1152799Y-1906803D01*
G01X1107798D01*
G01X1102799Y-1901802D01*
G01Y-1853801D01*
G01X1107798Y-1846804D01*
G37*
G36*
G01X1107798Y-1750802D02*
G01X1152799Y-1750802D01*
G01X1157798Y-1755803D01*
G01Y-1803801D01*
G01X1152799Y-1810802D01*
G01X1107798D01*
G01X1102799Y-1803801D01*
G01Y-1755803D01*
G01X1107798Y-1750802D01*
G37*
G36*
G01X2054502Y-883696D02*
G01X2009501Y-883696D01*
G01X2004502Y-876699D01*
G01Y-828698D01*
G01X2009501Y-823697D01*
G01X2054502D01*
G01X2059501Y-828698D01*
G01Y-876699D01*
G01X2054502Y-883696D01*
G37*
G36*
G01X2054502Y-979698D02*
G01X2009501Y-979698D01*
G01X2004502Y-974697D01*
G01Y-926699D01*
G01X2009501Y-919698D01*
G01X2054502D01*
G01X2059501Y-926699D01*
G01Y-974697D01*
G01X2054502Y-979698D01*
G37*
G36*
G01X921796Y-1006198D02*
G01X921796Y-1051199D01*
G01X914799Y-1056198D01*
G01X866798D01*
G01X861797Y-1051199D01*
G01Y-1006198D01*
G01X866798Y-1001199D01*
G01X914799D01*
G01X921796Y-1006198D01*
G37*
G36*
G01X1017798Y-1006198D02*
G01X1017798Y-1051199D01*
G01X1012797Y-1056198D01*
G01X964799D01*
G01X957798Y-1051199D01*
G01Y-1006198D01*
G01X964799Y-1001199D01*
G01X1012797D01*
G01X1017798Y-1006198D01*
G37*
G36*
G01X1958698Y-1986504D02*
G01X2003699Y-1986504D01*
G01X2008698Y-1993501D01*
G01Y-2041502D01*
G01X2003699Y-2046503D01*
G01X1958698D01*
G01X1953699Y-2041502D01*
G01Y-1993501D01*
G01X1958698Y-1986504D01*
G37*
G36*
G01X1958698Y-1890502D02*
G01X2003699Y-1890502D01*
G01X2008698Y-1895503D01*
G01Y-1943501D01*
G01X2003699Y-1950502D01*
G01X1958698D01*
G01X1953699Y-1943501D01*
G01Y-1895503D01*
G01X1958698Y-1890502D01*
G37*
G36*
G01X1864500Y-690181D02*
G01X1818500Y-690181D01*
G01X1814500Y-686181D01*
G01Y-636118D01*
G01X1818500Y-632117D01*
G01X1864500D01*
G01X1868500Y-636118D01*
G01Y-686181D01*
G01X1864500Y-690181D01*
G37*
G36*
G01X1864500Y-717182D02*
G01X1818500Y-717182D01*
G01X1814500Y-721182D01*
G01Y-771246D01*
G01X1818500Y-775246D01*
G01X1864500D01*
G01X1868500Y-771246D01*
G01Y-721182D01*
G01X1864500Y-717182D01*
G37*
G36*
G01X1356500Y-685000D02*
G01X1310500Y-685000D01*
G01X1306500Y-680999D01*
G01Y-630936D01*
G01X1310500Y-626935D01*
G01X1356500D01*
G01X1360500Y-630936D01*
G01Y-680999D01*
G01X1356500Y-685000D01*
G37*
G36*
G01X1356500Y-712000D02*
G01X1310500Y-712000D01*
G01X1306500Y-716001D01*
G01Y-766064D01*
G01X1310500Y-770064D01*
G01X1356500D01*
G01X1360500Y-766064D01*
G01Y-716001D01*
G01X1356500Y-712000D01*
G37*
G36*
G01X2390000Y-2413800D02*
G01X2436000Y-2413800D01*
G01X2440000Y-2417801D01*
G01Y-2467864D01*
G01X2436000Y-2471864D01*
G01X2390000D01*
G01X2386000Y-2467864D01*
G01Y-2417801D01*
G01X2390000Y-2413800D01*
G37*
G36*
G01X2390000Y-2386800D02*
G01X2436000Y-2386800D01*
G01X2440000Y-2382799D01*
G01Y-2332736D01*
G01X2436000Y-2328735D01*
G01X2390000D01*
G01X2386000Y-2332736D01*
G01Y-2382799D01*
G01X2390000Y-2386800D01*
G37*
G04 PolygonModel End*

G04 Pad Start*
G54D10*
G01X2477199Y-951001D03*
G01X2477199Y-1016000D03*
G01X2477199Y-1080999D03*
G54D11*
G01X2247202Y-1080999D03*
G01X2247202Y-1016000D03*
G01X2247202Y-951001D03*
G54D12*
G01X2232190Y-729996D03*
G01X2232190Y-540004D03*
G01X2492210Y-540004D03*
G01X2492210Y-635000D03*
G01X2492210Y-729996D03*
G54D13*
G01X1055069Y-3883922D03*
G54D14*
G01X2244932Y-3883922D03*
G54D15*
G01X2075056Y-3616079D03*
G01X2025018Y-3616079D03*
G01X1974980Y-3616079D03*
G01X1925069Y-3616079D03*
G01X1875031Y-3616079D03*
G01X1825120Y-3616079D03*
G01X1775082Y-3616079D03*
G01X1725044Y-3616079D03*
G01X1675006Y-3616079D03*
G01X1624968Y-3616079D03*
G01X1575057Y-3616079D03*
G01X1525146Y-3616079D03*
G01X1475108Y-3616079D03*
G01X1425070Y-3616079D03*
G01X1375032Y-3616079D03*
G01X1324994Y-3616079D03*
G01X1274956Y-3616079D03*
G01X1225045Y-3616079D03*
G54D16*
G01X1492504Y-749808D03*
G01X1587500Y-749808D03*
G01X1682496Y-749808D03*
G01X1682496Y-520192D03*
G01X1492504Y-520192D03*
G54D17*
G01X457200Y-2505329D03*
G01X457200Y-2295271D03*
G54D18*
G01X2895600Y-2037093D03*
G01X2895600Y-2357107D03*
G54D20*
G01X3009924Y-2727026D03*
G01X3009924Y-3072974D03*
G54D21*
G01X3210076Y-2659970D03*
G01X3210076Y-3140030D03*
G54D18*
G01X3136900Y-2037093D03*
G01X3136900Y-2357107D03*
G54D22*
G01X1955800Y-3060700D03*
G01X2311400Y-3060700D03*
G54D23*
G01X1988865Y-2375207D03*
G01X1988865Y-2425219D03*
G01X1988865Y-2475232D03*
G01X1988865Y-2525219D03*
G01X1988865Y-2575232D03*
G54D24*
G01X2278882Y-2575232D03*
G01X2278882Y-2525219D03*
G01X2278882Y-2475232D03*
G01X2278882Y-2425219D03*
G01X2278882Y-2375207D03*
G54D23*
G01X1988865Y-2675231D03*
G01X1988865Y-2625219D03*
G01X2278882Y-2675231D03*
G01X2278882Y-2625219D03*
G54D25*
G01X2133876Y-2525216D03*
G54D26*
G01X1005445Y-2933988D03*
G01X940421Y-2933988D03*
G01X875422Y-2933988D03*
G01X810424Y-2933988D03*
G01X1005445Y-3360200D03*
G01X940421Y-3360200D03*
G01X875422Y-3360200D03*
G01X810424Y-3360200D03*
G54D27*
G01X907934Y-3147094D03*
G54D28*
G01X2487600Y-3562096D03*
G01X2487600Y-3372104D03*
G01X2287600Y-3467100D03*
G54D20*
G01X3009924Y-1127026D03*
G01X3009924Y-1472974D03*
G54D21*
G01X3210076Y-1059970D03*
G01X3210076Y-1540030D03*
G54D29*
G01X1320292Y-1981200D03*
G01X1575308Y-1981200D03*
G54D30*
G01X182893Y-1739900D03*
G01X502907Y-1739900D03*
G54D31*
G01X1324918Y-1747332D03*
G01X1374956Y-1747332D03*
G01X1424994Y-1747332D03*
G01X1475032Y-1747332D03*
G01X1525070Y-1747332D03*
G01X1575108Y-1747332D03*
G01X1624892Y-1747332D03*
G01X1674930Y-1747332D03*
G01X1724968Y-1747332D03*
G01X1775006Y-1747332D03*
G01X1825044Y-1747332D03*
G01X1875082Y-1747332D03*
G54D32*
G01X1944932Y-1677482D03*
G01X1944932Y-1627444D03*
G01X1944932Y-1577406D03*
G01X1944932Y-1527368D03*
G01X1944932Y-1477330D03*
G01X1944932Y-1427292D03*
G01X1944932Y-1377508D03*
G01X1944932Y-1327470D03*
G01X1944932Y-1277432D03*
G01X1944932Y-1227394D03*
G01X1944932Y-1177356D03*
G01X1944932Y-1127318D03*
G54D31*
G01X1875082Y-1057468D03*
G01X1825044Y-1057468D03*
G01X1775006Y-1057468D03*
G01X1724968Y-1057468D03*
G01X1674930Y-1057468D03*
G01X1624892Y-1057468D03*
G01X1575108Y-1057468D03*
G01X1525070Y-1057468D03*
G01X1475032Y-1057468D03*
G01X1424994Y-1057468D03*
G01X1374956Y-1057468D03*
G01X1324918Y-1057468D03*
G54D32*
G01X1255068Y-1127318D03*
G01X1255068Y-1177356D03*
G01X1255068Y-1227394D03*
G01X1255068Y-1277432D03*
G01X1255068Y-1327470D03*
G01X1255068Y-1377508D03*
G01X1255068Y-1427292D03*
G01X1255068Y-1477330D03*
G01X1255068Y-1527368D03*
G01X1255068Y-1577406D03*
G01X1255068Y-1627444D03*
G01X1255068Y-1677482D03*
G54D33*
G01X1600000Y-1402400D03*
G54D34*
G01X383838Y-3160664D03*
G01X383838Y-2840650D03*
G54D17*
G01X219554Y-2297135D03*
G01X219554Y-2507193D03*
G04 Pad End*

M02*
