G04 Layer: TopSilkscreenLayer*
G04 EasyEDA Pro v2.1.57.773a98f1.225d47, 2024-05-26 20:13:26*
G04 Gerber Generator version 0.3*
G04 Scale: 100 percent, Rotated: No, Reflected: No*
G04 Dimensions in millimeters*
G04 Leading zeros omitted, absolute positions, 3 integers and 5 decimals*
%FSLAX35Y35*%
%MOMM*%
%ADD10C,0.203*%
%ADD11C,0.2*%
%ADD12C,0.254*%
%ADD13C,0.1524*%
%ADD14C,0.2032*%
%ADD15C,0.1549*%
%ADD16C,0.15199*%
%ADD17C,0.25*%
%ADD18C,0.20066*%
%ADD19C,0.29972*%
%ADD20C,0.4*%
%ADD21C,0.3*%
G75*


G04 Text Start*
G54D10*
G01X348488Y-498602D02*
G01X392938Y-498602D01*
G01X368808Y-531114D01*
G01X381000D01*
G01X388874Y-535178D01*
G01X392938Y-539242D01*
G01X397002Y-551434D01*
G01Y-559562D01*
G01X392938Y-571500D01*
G01X384810Y-579628D01*
G01X372872Y-583692D01*
G01X360680D01*
G01X348488Y-579628D01*
G01X344424Y-575564D01*
G01X340360Y-567690D01*
G01X436880Y-498602D02*
G01X469138Y-583692D01*
G01X501650Y-498602D02*
G01X469138Y-583692D01*
G01X549402Y-498602D02*
G01X594106Y-498602D01*
G01X569722Y-531114D01*
G01X581914D01*
G01X590042Y-535178D01*
G01X594106Y-539242D01*
G01X598170Y-551434D01*
G01Y-559562D01*
G01X594106Y-571500D01*
G01X585978Y-579628D01*
G01X573786Y-583692D01*
G01X561594D01*
G01X549402Y-579628D01*
G01X545338Y-575564D01*
G01X541528Y-567690D01*
G01X340360Y-752602D02*
G01X340360Y-837692D01*
G01X340360Y-752602D02*
G01X368808Y-752602D01*
G01X381000Y-756666D01*
G01X388874Y-764794D01*
G01X392938Y-772922D01*
G01X397002Y-785114D01*
G01Y-805434D01*
G01X392938Y-817626D01*
G01X388874Y-825500D01*
G01X381000Y-833628D01*
G01X368808Y-837692D01*
G01X340360D01*
G01X436880Y-752602D02*
G01X436880Y-837692D01*
G01X500888Y-752602D02*
G01X492760Y-756666D01*
G01X484632Y-764794D01*
G01X480568Y-772922D01*
G01X476758Y-785114D01*
G01Y-805434D01*
G01X480568Y-817626D01*
G01X484632Y-825500D01*
G01X492760Y-833628D01*
G01X500888Y-837692D01*
G01X517144D01*
G01X525272Y-833628D01*
G01X533400Y-825500D01*
G01X537464Y-817626D01*
G01X541528Y-805434D01*
G01Y-785114D01*
G01X537464Y-772922D01*
G01X533400Y-764794D01*
G01X525272Y-756666D01*
G01X517144Y-752602D01*
G01X500888D01*
G01X388366Y-1039622D02*
G01X384302Y-1031494D01*
G01X376174Y-1023366D01*
G01X368300Y-1019302D01*
G01X352044D01*
G01X343916Y-1023366D01*
G01X335788Y-1031494D01*
G01X331724Y-1039622D01*
G01X327660Y-1051814D01*
G01Y-1072134D01*
G01X331724Y-1084326D01*
G01X335788Y-1092200D01*
G01X343916Y-1100328D01*
G01X352044Y-1104392D01*
G01X368300D01*
G01X376174Y-1100328D01*
G01X384302Y-1092200D01*
G01X388366Y-1084326D01*
G01Y-1072134D01*
G01X368300Y-1072134D02*
G01X388366Y-1072134D01*
G01X428244Y-1019302D02*
G01X428244Y-1104392D01*
G01X428244Y-1019302D02*
G01X484886Y-1104392D01*
G01X484886Y-1019302D02*
G01X484886Y-1104392D01*
G01X524764Y-1019302D02*
G01X524764Y-1104392D01*
G01X524764Y-1019302D02*
G01X552958Y-1019302D01*
G01X565150Y-1023366D01*
G01X573278Y-1031494D01*
G01X577342Y-1039622D01*
G01X581406Y-1051814D01*
G01Y-1072134D01*
G01X577342Y-1084326D01*
G01X573278Y-1092200D01*
G01X565150Y-1100328D01*
G01X552958Y-1104392D01*
G01X524764D01*
G01X388366Y-1268222D02*
G01X384302Y-1260094D01*
G01X376174Y-1251966D01*
G01X368300Y-1247902D01*
G01X352044D01*
G01X343916Y-1251966D01*
G01X335788Y-1260094D01*
G01X331724Y-1268222D01*
G01X327660Y-1280414D01*
G01Y-1300734D01*
G01X331724Y-1312926D01*
G01X335788Y-1320800D01*
G01X343916Y-1328928D01*
G01X352044Y-1332992D01*
G01X368300D01*
G01X376174Y-1328928D01*
G01X384302Y-1320800D01*
G01X388366Y-1312926D01*
G01X428244Y-1247902D02*
G01X428244Y-1332992D01*
G01X428244Y-1332992D02*
G01X476758Y-1332992D01*
G01X516636Y-1247902D02*
G01X516636Y-1332992D01*
G01X573278Y-1247902D02*
G01X516636Y-1304798D01*
G01X536702Y-1284478D02*
G01X573278Y-1332992D01*
G01X73660Y-3114802D02*
G01X73660Y-3199892D01*
G01X113538Y-3114802D02*
G01X113538Y-3199892D01*
G01X113538Y-3114802D02*
G01X170180Y-3199892D01*
G01X170180Y-3114802D02*
G01X170180Y-3199892D01*
G01X246380Y-3126994D02*
G01X246380Y-3199892D01*
G01X210058Y-3163570D02*
G01X282956Y-3163570D01*
G01X121666Y-3833622D02*
G01X117602Y-3825494D01*
G01X109474Y-3817366D01*
G01X101600Y-3813302D01*
G01X85344D01*
G01X77216Y-3817366D01*
G01X69088Y-3825494D01*
G01X65024Y-3833622D01*
G01X60960Y-3845814D01*
G01Y-3866134D01*
G01X65024Y-3878326D01*
G01X69088Y-3886200D01*
G01X77216Y-3894328D01*
G01X85344Y-3898392D01*
G01X101600D01*
G01X109474Y-3894328D01*
G01X117602Y-3886200D01*
G01X121666Y-3878326D01*
G01Y-3866134D01*
G01X101600Y-3866134D02*
G01X121666Y-3866134D01*
G01X161544Y-3813302D02*
G01X161544Y-3898392D01*
G01X161544Y-3813302D02*
G01X218186Y-3898392D01*
G01X218186Y-3813302D02*
G01X218186Y-3898392D01*
G01X258064Y-3813302D02*
G01X258064Y-3898392D01*
G01X258064Y-3813302D02*
G01X286258Y-3813302D01*
G01X298450Y-3817366D01*
G01X306578Y-3825494D01*
G01X310642Y-3833622D01*
G01X314706Y-3845814D01*
G01Y-3866134D01*
G01X310642Y-3878326D01*
G01X306578Y-3886200D01*
G01X298450Y-3894328D01*
G01X286258Y-3898392D01*
G01X258064D01*
G01X2727960Y-3361690D02*
G01X2727960Y-3414014D01*
G01X2727960Y-3361690D02*
G01X2750312Y-3361690D01*
G01X2757932Y-3364230D01*
G01X2760218Y-3366770D01*
G01X2762758Y-3371850D01*
G01Y-3376676D01*
G01X2760218Y-3381756D01*
G01X2757932Y-3384296D01*
G01X2750312Y-3386836D01*
G01X2727960Y-3386836D02*
G01X2750312Y-3386836D01*
G01X2757932Y-3389122D01*
G01X2760218Y-3391662D01*
G01X2762758Y-3396742D01*
G01Y-3404108D01*
G01X2760218Y-3409188D01*
G01X2757932Y-3411728D01*
G01X2750312Y-3414014D01*
G01X2727960D01*
G01X2814828Y-3361690D02*
G01X2795016Y-3414014D01*
G01X2814828Y-3361690D02*
G01X2834894Y-3414014D01*
G01X2802382Y-3396742D02*
G01X2827274Y-3396742D01*
G01X2884678Y-3361690D02*
G01X2884678Y-3414014D01*
G01X2867152Y-3361690D02*
G01X2901950Y-3361690D01*
G01X2956560Y-3369310D02*
G01X2956560Y-3414014D01*
G01X2934208Y-3391662D02*
G01X2978912Y-3391662D01*
G01X2788666Y-3605022D02*
G01X2784602Y-3596894D01*
G01X2776474Y-3588766D01*
G01X2768600Y-3584702D01*
G01X2752344D01*
G01X2744216Y-3588766D01*
G01X2736088Y-3596894D01*
G01X2732024Y-3605022D01*
G01X2727960Y-3617214D01*
G01Y-3637534D01*
G01X2732024Y-3649726D01*
G01X2736088Y-3657600D01*
G01X2744216Y-3665728D01*
G01X2752344Y-3669792D01*
G01X2768600D01*
G01X2776474Y-3665728D01*
G01X2784602Y-3657600D01*
G01X2788666Y-3649726D01*
G01Y-3637534D01*
G01X2768600Y-3637534D02*
G01X2788666Y-3637534D01*
G01X2828544Y-3584702D02*
G01X2828544Y-3669792D01*
G01X2828544Y-3584702D02*
G01X2885186Y-3669792D01*
G01X2885186Y-3584702D02*
G01X2885186Y-3669792D01*
G01X2925064Y-3584702D02*
G01X2925064Y-3669792D01*
G01X2925064Y-3584702D02*
G01X2953258Y-3584702D01*
G01X2965450Y-3588766D01*
G01X2973578Y-3596894D01*
G01X2977642Y-3605022D01*
G01X2981706Y-3617214D01*
G01Y-3637534D01*
G01X2977642Y-3649726D01*
G01X2973578Y-3657600D01*
G01X2965450Y-3665728D01*
G01X2953258Y-3669792D01*
G01X2925064D01*
G04 Text End*

G04 PolygonModel Start*
G54D11*
G01X2432215Y-906000D02*
G01X2292210Y-906000D01*
G01X2432215Y-1126000D02*
G01X2292210Y-1126000D01*
G01X2253120Y-906579D02*
G03X2252866Y-906579I-127J12502D01*
G54D12*
G01X2272195Y-790006D02*
G01X2452197Y-790006D01*
G01X2272195Y-675008D02*
G01X2272195Y-595005D01*
G01X2272195Y-480004D02*
G01X2452197Y-480004D01*
G01X975005Y-3780803D02*
G01X975005Y-3643005D01*
G01X975005Y-3643005D02*
G01X1193003Y-3643005D01*
G01X2319000Y-3987051D02*
G01X2319000Y-4187005D01*
G01X2319000Y-4187005D02*
G01X975005Y-4187005D01*
G01X975005Y-4187005D02*
G01X975005Y-3987051D01*
G01X2113001Y-3641006D02*
G01X2319000Y-3641006D01*
G01X2319000Y-3641006D02*
G01X2319000Y-3780803D01*
G54D13*
G01X1742694Y-725170D02*
G01X1742694Y-544830D01*
G01X1432306Y-725170D02*
G01X1432306Y-544830D01*
G01X1632966Y-544830D02*
G01X1542034Y-544830D01*
G54D14*
G01X307000Y-1435100D02*
G01X53000Y-1435100D01*
G01X53000Y-1435100D02*
G01X53000Y-419100D01*
G01X53000Y-419100D02*
G01X307000Y-419100D01*
G01X307000Y-419100D02*
G01X307000Y-609600D01*
G01X307000Y-1435100D02*
G01X307000Y-609600D01*
G54D13*
G01X2704160Y-3629421D02*
G01X2704160Y-3701224D01*
G01X2704160Y-3701224D02*
G01X2604440Y-3701224D01*
G01X2604440Y-3701224D02*
G01X2604440Y-3629421D01*
G01X2704160Y-3584179D02*
G01X2704160Y-3512375D01*
G01X2704160Y-3512375D02*
G01X2604440Y-3512375D01*
G01X2604440Y-3512375D02*
G01X2604440Y-3584179D01*
G01X2145360Y-2070130D02*
G01X2145360Y-1991121D01*
G01X2045640Y-1991121D02*
G01X2045640Y-2070130D01*
G01X2060880Y-2085370D02*
G01X2130120Y-2085370D01*
G01X2145360Y-1866870D02*
G01X2145360Y-1945879D01*
G01X2045640Y-1945879D02*
G01X2045640Y-1866870D01*
G01X2060880Y-1851630D02*
G01X2130120Y-1851630D01*
G01X2045640Y-2070130D02*
G03X2060880Y-2085370I15240J0D01*
G01X2130120Y-2085370D02*
G03X2145360Y-2070130I0J15240D01*
G01X2045640Y-1866870D02*
G02X2060880Y-1851630I15240J0D01*
G01X2130120Y-1851630D02*
G02X2145360Y-1866870I0J-15240D01*
G01X2259660Y-1991121D02*
G01X2259660Y-2062924D01*
G01X2259660Y-2062924D02*
G01X2159940Y-2062924D01*
G01X2159940Y-2062924D02*
G01X2159940Y-1991121D01*
G01X2259660Y-1945879D02*
G01X2259660Y-1874075D01*
G01X2259660Y-1874075D02*
G01X2159940Y-1874075D01*
G01X2159940Y-1874075D02*
G01X2159940Y-1945879D01*
G01X2274240Y-1945879D02*
G01X2274240Y-1874075D01*
G01X2274240Y-1874075D02*
G01X2373960Y-1874075D01*
G01X2373960Y-1874075D02*
G01X2373960Y-1945879D01*
G01X2274240Y-1991121D02*
G01X2274240Y-2062924D01*
G01X2274240Y-2062924D02*
G01X2373960Y-2062924D01*
G01X2373960Y-2062924D02*
G01X2373960Y-1991121D01*
G01X626775Y-3160773D02*
G01X626775Y-3239782D01*
G01X726495Y-3239782D02*
G01X726495Y-3160773D01*
G01X711255Y-3145533D02*
G01X642015Y-3145533D01*
G01X626775Y-3364034D02*
G01X626775Y-3285025D01*
G01X726495Y-3285025D02*
G01X726495Y-3364034D01*
G01X711255Y-3379274D02*
G01X642015Y-3379274D01*
G01X726495Y-3160773D02*
G03X711255Y-3145533I-15240J0D01*
G01X642015Y-3145533D02*
G03X626775Y-3160773I0J-15240D01*
G01X726495Y-3364034D02*
G02X711255Y-3379274I-15240J0D01*
G01X642015Y-3379274D02*
G02X626775Y-3364034I0J15240D01*
G01X512475Y-3160773D02*
G01X512475Y-3239782D01*
G01X612195Y-3239782D02*
G01X612195Y-3160773D01*
G01X596955Y-3145533D02*
G01X527715Y-3145533D01*
G01X512475Y-3364034D02*
G01X512475Y-3285025D01*
G01X612195Y-3285025D02*
G01X612195Y-3364034D01*
G01X596955Y-3379274D02*
G01X527715Y-3379274D01*
G01X612195Y-3160773D02*
G03X596955Y-3145533I-15240J0D01*
G01X527715Y-3145533D02*
G03X512475Y-3160773I0J-15240D01*
G01X612195Y-3364034D02*
G02X596955Y-3379274I-15240J0D01*
G01X527715Y-3379274D02*
G02X512475Y-3364034I0J15240D01*
G01X612195Y-3071934D02*
G01X612195Y-2992925D01*
G01X512475Y-2992925D02*
G01X512475Y-3071934D01*
G01X527715Y-3087174D02*
G01X596955Y-3087174D01*
G01X612195Y-2868673D02*
G01X612195Y-2947682D01*
G01X512475Y-2947682D02*
G01X512475Y-2868673D01*
G01X527715Y-2853433D02*
G01X596955Y-2853433D01*
G01X512475Y-3071934D02*
G03X527715Y-3087174I15240J0D01*
G01X596955Y-3087174D02*
G03X612195Y-3071934I0J15240D01*
G01X512475Y-2868673D02*
G02X527715Y-2853433I15240J0D01*
G01X596955Y-2853433D02*
G02X612195Y-2868673I0J-15240D01*
G01X726495Y-3071934D02*
G01X726495Y-2992925D01*
G01X626775Y-2992925D02*
G01X626775Y-3071934D01*
G01X642015Y-3087174D02*
G01X711255Y-3087174D01*
G01X726495Y-2868673D02*
G01X726495Y-2947682D01*
G01X626775Y-2947682D02*
G01X626775Y-2868673D01*
G01X642015Y-2853433D02*
G01X711255Y-2853433D01*
G01X626775Y-3071934D02*
G03X642015Y-3087174I15240J0D01*
G01X711255Y-3087174D02*
G03X726495Y-3071934I0J15240D01*
G01X626775Y-2868673D02*
G02X642015Y-2853433I15240J0D01*
G01X711255Y-2853433D02*
G02X726495Y-2868673I0J-15240D01*
G01X911621Y-2731440D02*
G01X983425Y-2731440D01*
G01X983425Y-2731440D02*
G01X983425Y-2831160D01*
G01X983425Y-2831160D02*
G01X911621Y-2831160D01*
G01X866379Y-2731440D02*
G01X794576Y-2731440D01*
G01X794576Y-2731440D02*
G01X794576Y-2831160D01*
G01X794576Y-2831160D02*
G01X866379Y-2831160D01*
G54D12*
G01X355473Y-2444623D02*
G01X355473Y-2599563D01*
G01X355473Y-2599563D02*
G01X558673Y-2599563D01*
G01X558673Y-2599563D02*
G01X558673Y-2444623D01*
G01X352933Y-2365883D02*
G01X352933Y-2218563D01*
G01X352933Y-2218563D02*
G01X393573Y-2177923D01*
G01X393573Y-2177923D02*
G01X520573Y-2177923D01*
G01X520573Y-2177923D02*
G01X558673Y-2216023D01*
G01X558673Y-2216023D02*
G01X558673Y-2368423D01*
G01X507200Y-2420300D02*
G01X407175Y-2420300D01*
G01X457200Y-2410308D02*
G01X457200Y-2383409D01*
G54D13*
G01X467121Y-1931340D02*
G01X538925Y-1931340D01*
G01X538925Y-1931340D02*
G01X538925Y-2031060D01*
G01X538925Y-2031060D02*
G01X467121Y-2031060D01*
G01X421879Y-1931340D02*
G01X350076Y-1931340D01*
G01X350076Y-1931340D02*
G01X350076Y-2031060D01*
G01X350076Y-2031060D02*
G01X421879Y-2031060D01*
G01X205979Y-2145360D02*
G01X134176Y-2145360D01*
G01X134176Y-2145360D02*
G01X134176Y-2045640D01*
G01X134176Y-2045640D02*
G01X205979Y-2045640D01*
G01X251221Y-2145360D02*
G01X323025Y-2145360D01*
G01X323025Y-2145360D02*
G01X323025Y-2045640D01*
G01X323025Y-2045640D02*
G01X251221Y-2045640D01*
G01X421879Y-2145360D02*
G01X350076Y-2145360D01*
G01X350076Y-2145360D02*
G01X350076Y-2045640D01*
G01X350076Y-2045640D02*
G01X421879Y-2045640D01*
G01X467121Y-2145360D02*
G01X538925Y-2145360D01*
G01X538925Y-2145360D02*
G01X538925Y-2045640D01*
G01X538925Y-2045640D02*
G01X467121Y-2045640D01*
G54D16*
G01X2817581Y-2356178D02*
G01X2817581Y-2387100D01*
G01X2973608Y-2356178D02*
G01X2973608Y-2387100D01*
G01X2973608Y-2366203D02*
G01X2995595Y-2366203D01*
G01X2795595Y-2366203D02*
G01X2817581Y-2366203D01*
G01X2817581Y-2376231D02*
G01X2795595Y-2376231D01*
G01X2995595Y-2376231D02*
G01X2973608Y-2376231D01*
G01X2973608Y-2356178D02*
G01X2995595Y-2356178D01*
G01X2795595Y-2356178D02*
G01X2817581Y-2356178D01*
G01X2817581Y-2017100D02*
G01X2795595Y-2017100D01*
G01X2795595Y-2017100D02*
G01X2795595Y-2077100D01*
G01X2973608Y-2387100D02*
G01X2995595Y-2387100D01*
G01X2995595Y-2387100D02*
G01X2995595Y-2037100D01*
G01X2995595Y-2037100D02*
G01X2995595Y-2017100D01*
G01X2995595Y-2017100D02*
G01X2973608Y-2017100D01*
G01X2795595Y-2057100D02*
G01X2795595Y-2387100D01*
G01X2795595Y-2387100D02*
G01X2817581Y-2387100D01*
G54D12*
G01X2895595Y-2247900D02*
G01X2854955Y-2146300D01*
G01X2854955Y-2146300D02*
G01X2936235Y-2146300D01*
G01X2936235Y-2146300D02*
G01X2895595Y-2247900D01*
G54D13*
G01X2945460Y-1876821D02*
G01X2945460Y-1948624D01*
G01X2945460Y-1948624D02*
G01X2845740Y-1948624D01*
G01X2845740Y-1948624D02*
G01X2845740Y-1876821D01*
G01X2945460Y-1831579D02*
G01X2945460Y-1759775D01*
G01X2945460Y-1759775D02*
G01X2845740Y-1759775D01*
G01X2845740Y-1759775D02*
G01X2845740Y-1831579D01*
G01X2477440Y-2377679D02*
G01X2477440Y-2305875D01*
G01X2477440Y-2305875D02*
G01X2577160Y-2305875D01*
G01X2577160Y-2305875D02*
G01X2577160Y-2377679D01*
G01X2477440Y-2422921D02*
G01X2477440Y-2494724D01*
G01X2477440Y-2494724D02*
G01X2577160Y-2494724D01*
G01X2577160Y-2494724D02*
G01X2577160Y-2422921D01*
G01X3150540Y-1831579D02*
G01X3150540Y-1759775D01*
G01X3150540Y-1759775D02*
G01X3250260Y-1759775D01*
G01X3250260Y-1759775D02*
G01X3250260Y-1831579D01*
G01X3150540Y-1876821D02*
G01X3150540Y-1948624D01*
G01X3150540Y-1948624D02*
G01X3250260Y-1948624D01*
G01X3250260Y-1948624D02*
G01X3250260Y-1876821D01*
G01X3123260Y-1876821D02*
G01X3123260Y-1948624D01*
G01X3123260Y-1948624D02*
G01X3023540Y-1948624D01*
G01X3023540Y-1948624D02*
G01X3023540Y-1876821D01*
G01X3123260Y-1831579D02*
G01X3123260Y-1759775D01*
G01X3123260Y-1759775D02*
G01X3023540Y-1759775D01*
G01X3023540Y-1759775D02*
G01X3023540Y-1831579D01*
G54D12*
G01X3260114Y-3009982D02*
G01X3409974Y-2989916D01*
G01X3260114Y-2790018D02*
G01X3409974Y-2810084D01*
G01X3409974Y-2810084D02*
G01X3409974Y-2989916D01*
G01X3056406Y-3140030D02*
G01X3127018Y-3140030D01*
G01X3056406Y-2659970D02*
G01X3127018Y-2659970D01*
G01X3259860Y-2810084D02*
G01X3259860Y-2713056D01*
G01X3259860Y-2713056D02*
G01X3259860Y-2810084D01*
G01X3259860Y-2810084D02*
G01X3259860Y-2989916D01*
G01X3259860Y-2989916D02*
G01X3259860Y-3086944D01*
G01X3009924Y-2795098D02*
G01X3009924Y-3004902D01*
G54D16*
G01X3058881Y-2356178D02*
G01X3058881Y-2387100D01*
G01X3214908Y-2356178D02*
G01X3214908Y-2387100D01*
G01X3214908Y-2366203D02*
G01X3236895Y-2366203D01*
G01X3036895Y-2366203D02*
G01X3058881Y-2366203D01*
G01X3058881Y-2376231D02*
G01X3036895Y-2376231D01*
G01X3236895Y-2376231D02*
G01X3214908Y-2376231D01*
G01X3214908Y-2356178D02*
G01X3236895Y-2356178D01*
G01X3036895Y-2356178D02*
G01X3058881Y-2356178D01*
G01X3058881Y-2017100D02*
G01X3036895Y-2017100D01*
G01X3036895Y-2017100D02*
G01X3036895Y-2077100D01*
G01X3214908Y-2387100D02*
G01X3236895Y-2387100D01*
G01X3236895Y-2387100D02*
G01X3236895Y-2037100D01*
G01X3236895Y-2037100D02*
G01X3236895Y-2017100D01*
G01X3236895Y-2017100D02*
G01X3214908Y-2017100D01*
G01X3036895Y-2057100D02*
G01X3036895Y-2387100D01*
G01X3036895Y-2387100D02*
G01X3058881Y-2387100D01*
G54D12*
G01X3136895Y-2247900D02*
G01X3096255Y-2146300D01*
G01X3096255Y-2146300D02*
G01X3177535Y-2146300D01*
G01X3177535Y-2146300D02*
G01X3136895Y-2247900D01*
G54D13*
G01X2341118Y-3266948D02*
G01X2341118Y-3268218D01*
G01X2341118Y-3268218D02*
G01X1926082Y-3268218D01*
G01X1926082Y-3268218D02*
G01X1926082Y-3266948D01*
G01X2341118Y-2854452D02*
G01X2341118Y-2853182D01*
G01X2341118Y-2853182D02*
G01X1926082Y-2853182D01*
G01X1926082Y-2853182D02*
G01X1926082Y-2854452D01*
G01X2461739Y-2789458D02*
G01X2461739Y-2710449D01*
G01X2362019Y-2710449D02*
G01X2362019Y-2789458D01*
G01X2377259Y-2804698D02*
G01X2446499Y-2804698D01*
G01X2461739Y-2586197D02*
G01X2461739Y-2665206D01*
G01X2362019Y-2665206D02*
G01X2362019Y-2586197D01*
G01X2377259Y-2570957D02*
G01X2446499Y-2570957D01*
G01X2362019Y-2789458D02*
G03X2377259Y-2804698I15240J0D01*
G01X2446499Y-2804698D02*
G03X2461739Y-2789458I0J15240D01*
G01X2362019Y-2586197D02*
G02X2377259Y-2570957I15240J0D01*
G01X2446499Y-2570957D02*
G02X2461739Y-2586197I0J-15240D01*
G01X2690339Y-2785750D02*
G01X2690339Y-2706740D01*
G01X2590619Y-2706740D02*
G01X2590619Y-2785750D01*
G01X2605859Y-2800990D02*
G01X2675099Y-2800990D01*
G01X2690339Y-2582489D02*
G01X2690339Y-2661498D01*
G01X2590619Y-2661498D02*
G01X2590619Y-2582489D01*
G01X2605859Y-2567249D02*
G01X2675099Y-2567249D01*
G01X2590619Y-2785750D02*
G03X2605859Y-2800990I15240J0D01*
G01X2675099Y-2800990D02*
G03X2690339Y-2785750I0J15240D01*
G01X2590619Y-2582489D02*
G02X2605859Y-2567249I15240J0D01*
G01X2675099Y-2567249D02*
G02X2690339Y-2582489I0J-15240D01*
G01X2576039Y-2789458D02*
G01X2576039Y-2710449D01*
G01X2476319Y-2710449D02*
G01X2476319Y-2789458D01*
G01X2491559Y-2804698D02*
G01X2560799Y-2804698D01*
G01X2576039Y-2586197D02*
G01X2576039Y-2665206D01*
G01X2476319Y-2665206D02*
G01X2476319Y-2586197D01*
G01X2491559Y-2570957D02*
G01X2560799Y-2570957D01*
G01X2476319Y-2789458D02*
G03X2491559Y-2804698I15240J0D01*
G01X2560799Y-2804698D02*
G03X2576039Y-2789458I0J15240D01*
G01X2476319Y-2586197D02*
G02X2491559Y-2570957I15240J0D01*
G01X2560799Y-2570957D02*
G02X2576039Y-2586197I0J-15240D01*
G01X2235230Y-2185340D02*
G01X2156221Y-2185340D01*
G01X2156221Y-2285060D02*
G01X2235230Y-2285060D01*
G01X2250470Y-2269820D02*
G01X2250470Y-2200580D01*
G01X2031970Y-2185340D02*
G01X2110979Y-2185340D01*
G01X2110979Y-2285060D02*
G01X2031970Y-2285060D01*
G01X2016730Y-2269820D02*
G01X2016730Y-2200580D01*
G01X2235230Y-2285060D02*
G03X2250470Y-2269820I0J15240D01*
G01X2250470Y-2200580D02*
G03X2235230Y-2185340I-15240J0D01*
G01X2031970Y-2285060D02*
G02X2016730Y-2269820I0J15240D01*
G01X2016730Y-2200580D02*
G02X2031970Y-2185340I15240J0D01*
G01X1804389Y-2384739D02*
G01X1804389Y-2312936D01*
G01X1804389Y-2312936D02*
G01X1904110Y-2312936D01*
G01X1904110Y-2312936D02*
G01X1904110Y-2384739D01*
G01X1804389Y-2429982D02*
G01X1804389Y-2501785D01*
G01X1804389Y-2501785D02*
G01X1904110Y-2501785D01*
G01X1904110Y-2501785D02*
G01X1904110Y-2429982D01*
G01X1690089Y-2384739D02*
G01X1690089Y-2312936D01*
G01X1690089Y-2312936D02*
G01X1789810Y-2312936D01*
G01X1789810Y-2312936D02*
G01X1789810Y-2384739D01*
G01X1690089Y-2429982D02*
G01X1690089Y-2501785D01*
G01X1690089Y-2501785D02*
G01X1789810Y-2501785D01*
G01X1789810Y-2501785D02*
G01X1789810Y-2429982D01*
G01X1675460Y-2755930D02*
G01X1675460Y-2676921D01*
G01X1575740Y-2676921D02*
G01X1575740Y-2755930D01*
G01X1590980Y-2771170D02*
G01X1660220Y-2771170D01*
G01X1675460Y-2552670D02*
G01X1675460Y-2631679D01*
G01X1575740Y-2631679D02*
G01X1575740Y-2552670D01*
G01X1590980Y-2537430D02*
G01X1660220Y-2537430D01*
G01X1575740Y-2755930D02*
G03X1590980Y-2771170I15240J0D01*
G01X1660220Y-2771170D02*
G03X1675460Y-2755930I0J15240D01*
G01X1575740Y-2552670D02*
G02X1590980Y-2537430I15240J0D01*
G01X1660220Y-2537430D02*
G02X1675460Y-2552670I0J-15240D01*
G01X1784630Y-2761337D02*
G01X1784630Y-2682328D01*
G01X1684910Y-2682328D02*
G01X1684910Y-2761337D01*
G01X1700150Y-2776577D02*
G01X1769390Y-2776577D01*
G01X1784630Y-2558076D02*
G01X1784630Y-2637085D01*
G01X1684910Y-2637085D02*
G01X1684910Y-2558076D01*
G01X1700150Y-2542836D02*
G01X1769390Y-2542836D01*
G01X1684910Y-2761337D02*
G03X1700150Y-2776577I15240J0D01*
G01X1769390Y-2776577D02*
G03X1784630Y-2761337I0J15240D01*
G01X1684910Y-2558076D02*
G02X1700150Y-2542836I15240J0D01*
G01X1769390Y-2542836D02*
G02X1784630Y-2558076I0J-15240D01*
G01X1898930Y-2761337D02*
G01X1898930Y-2682328D01*
G01X1799210Y-2682328D02*
G01X1799210Y-2761337D01*
G01X1814450Y-2776577D02*
G01X1883690Y-2776577D01*
G01X1898930Y-2558076D02*
G01X1898930Y-2637085D01*
G01X1799210Y-2637085D02*
G01X1799210Y-2558076D01*
G01X1814450Y-2542836D02*
G01X1883690Y-2542836D01*
G01X1799210Y-2761337D02*
G03X1814450Y-2776577I15240J0D01*
G01X1883690Y-2776577D02*
G03X1898930Y-2761337I0J15240D01*
G01X1799210Y-2558076D02*
G02X1814450Y-2542836I15240J0D01*
G01X1883690Y-2542836D02*
G02X1898930Y-2558076I0J-15240D01*
G01X1575789Y-2309439D02*
G01X1575789Y-2388448D01*
G01X1675510Y-2388448D02*
G01X1675510Y-2309439D01*
G01X1660270Y-2294199D02*
G01X1591029Y-2294199D01*
G01X1575789Y-2512700D02*
G01X1575789Y-2433690D01*
G01X1675510Y-2433690D02*
G01X1675510Y-2512700D01*
G01X1660270Y-2527940D02*
G01X1591029Y-2527940D01*
G01X1675510Y-2309439D02*
G03X1660270Y-2294199I-15240J0D01*
G01X1591029Y-2294199D02*
G03X1575789Y-2309439I0J-15240D01*
G01X1675510Y-2512700D02*
G02X1660270Y-2527940I-15240J0D01*
G01X1591029Y-2527940D02*
G02X1575789Y-2512700I0J15240D01*
G54D11*
G01X2243876Y-2735216D02*
G01X2293876Y-2735216D01*
G01X2293876Y-2735216D02*
G01X2293876Y-2718216D01*
G01X2023877Y-2735216D02*
G01X1973877Y-2735216D01*
G01X1973877Y-2735216D02*
G01X1973877Y-2718216D01*
G01X2243876Y-2315217D02*
G01X2293876Y-2315217D01*
G01X2293876Y-2315217D02*
G01X2293876Y-2332217D01*
G01X1973877Y-2332217D02*
G01X1973877Y-2315217D01*
G01X1973877Y-2315217D02*
G01X2023877Y-2315217D01*
G54D17*
G01X1936264Y-2330144D02*
G03X1936264Y-2330398I-12502J-127D01*
G54D13*
G01X1065554Y-3039955D02*
G01X1065554Y-3254234D01*
G01X1065554Y-3254234D02*
G01X750315Y-3254234D01*
G01X750315Y-3254234D02*
G01X750315Y-3039955D01*
G01X750315Y-3039955D02*
G01X1065554Y-3039955D01*
G01X2577160Y-3883421D02*
G01X2577160Y-3955224D01*
G01X2577160Y-3955224D02*
G01X2477440Y-3955224D01*
G01X2477440Y-3955224D02*
G01X2477440Y-3883421D01*
G01X2577160Y-3838179D02*
G01X2577160Y-3766375D01*
G01X2577160Y-3766375D02*
G01X2477440Y-3766375D01*
G01X2477440Y-3766375D02*
G01X2477440Y-3838179D01*
G01X2704160Y-3883421D02*
G01X2704160Y-3955224D01*
G01X2704160Y-3955224D02*
G01X2604440Y-3955224D01*
G01X2604440Y-3955224D02*
G01X2604440Y-3883421D01*
G01X2704160Y-3838179D02*
G01X2704160Y-3766375D01*
G01X2704160Y-3766375D02*
G01X2604440Y-3766375D01*
G01X2604440Y-3766375D02*
G01X2604440Y-3838179D01*
G01X2818460Y-3883421D02*
G01X2818460Y-3955224D01*
G01X2818460Y-3955224D02*
G01X2718740Y-3955224D01*
G01X2718740Y-3955224D02*
G01X2718740Y-3883421D01*
G01X2818460Y-3838179D02*
G01X2818460Y-3766375D01*
G01X2818460Y-3766375D02*
G01X2718740Y-3766375D01*
G01X2718740Y-3766375D02*
G01X2718740Y-3838179D01*
G01X811860Y-3908821D02*
G01X811860Y-3980624D01*
G01X811860Y-3980624D02*
G01X712140Y-3980624D01*
G01X712140Y-3980624D02*
G01X712140Y-3908821D01*
G01X811860Y-3863579D02*
G01X811860Y-3791775D01*
G01X811860Y-3791775D02*
G01X712140Y-3791775D01*
G01X712140Y-3791775D02*
G01X712140Y-3863579D01*
G01X672160Y-3908821D02*
G01X672160Y-3980624D01*
G01X672160Y-3980624D02*
G01X572440Y-3980624D01*
G01X572440Y-3980624D02*
G01X572440Y-3908821D01*
G01X672160Y-3863579D02*
G01X672160Y-3791775D01*
G01X672160Y-3791775D02*
G01X572440Y-3791775D01*
G01X572440Y-3791775D02*
G01X572440Y-3863579D01*
G01X2460221Y-3314479D02*
G01X2314979Y-3314479D01*
G01X2314979Y-3314479D02*
G01X2314979Y-3417641D01*
G01X2460221Y-3619721D02*
G01X2314979Y-3619721D01*
G01X2314979Y-3619721D02*
G01X2314979Y-3516559D01*
G01X2460221Y-3421560D02*
G01X2460221Y-3512640D01*
G54D12*
G01X3260114Y-1409982D02*
G01X3409974Y-1389916D01*
G01X3260114Y-1190018D02*
G01X3409974Y-1210084D01*
G01X3409974Y-1210084D02*
G01X3409974Y-1389916D01*
G01X3056406Y-1540030D02*
G01X3127018Y-1540030D01*
G01X3056406Y-1059970D02*
G01X3127018Y-1059970D01*
G01X3259860Y-1210084D02*
G01X3259860Y-1113056D01*
G01X3259860Y-1113056D02*
G01X3259860Y-1210084D01*
G01X3259860Y-1210084D02*
G01X3259860Y-1389916D01*
G01X3259860Y-1389916D02*
G01X3259860Y-1486944D01*
G01X3009924Y-1195098D02*
G01X3009924Y-1404902D01*
G54D13*
G01X2476530Y-1182040D02*
G01X2397521Y-1182040D01*
G01X2397521Y-1281760D02*
G01X2476530Y-1281760D01*
G01X2491770Y-1266520D02*
G01X2491770Y-1197280D01*
G01X2273270Y-1182040D02*
G01X2352279Y-1182040D01*
G01X2352279Y-1281760D02*
G01X2273270Y-1281760D01*
G01X2258030Y-1266520D02*
G01X2258030Y-1197280D01*
G01X2476530Y-1281760D02*
G03X2491770Y-1266520I0J15240D01*
G01X2491770Y-1197280D02*
G03X2476530Y-1182040I-15240J0D01*
G01X2273270Y-1281760D02*
G02X2258030Y-1266520I0J15240D01*
G01X2258030Y-1197280D02*
G02X2273270Y-1182040I15240J0D01*
G01X523479Y-1599260D02*
G01X451676Y-1599260D01*
G01X451676Y-1599260D02*
G01X451676Y-1499540D01*
G01X451676Y-1499540D02*
G01X523479Y-1499540D01*
G01X568721Y-1599260D02*
G01X640525Y-1599260D01*
G01X640525Y-1599260D02*
G01X640525Y-1499540D01*
G01X640525Y-1499540D02*
G01X568721Y-1499540D01*
G01X1676430Y-2121840D02*
G01X1597421Y-2121840D01*
G01X1597421Y-2221560D02*
G01X1676430Y-2221560D01*
G01X1691670Y-2206320D02*
G01X1691670Y-2137080D01*
G01X1473170Y-2121840D02*
G01X1552179Y-2121840D01*
G01X1552179Y-2221560D02*
G01X1473170Y-2221560D01*
G01X1457930Y-2206320D02*
G01X1457930Y-2137080D01*
G01X1676430Y-2221560D02*
G03X1691670Y-2206320I0J15240D01*
G01X1691670Y-2137080D02*
G03X1676430Y-2121840I-15240J0D01*
G01X1473170Y-2221560D02*
G02X1457930Y-2206320I0J15240D01*
G01X1457930Y-2137080D02*
G02X1473170Y-2121840I15240J0D01*
G01X1206470Y-2221560D02*
G01X1285479Y-2221560D01*
G01X1285479Y-2121840D02*
G01X1206470Y-2121840D01*
G01X1191230Y-2137080D02*
G01X1191230Y-2206320D01*
G01X1409730Y-2221560D02*
G01X1330721Y-2221560D01*
G01X1330721Y-2121840D02*
G01X1409730Y-2121840D01*
G01X1424970Y-2137080D02*
G01X1424970Y-2206320D01*
G01X1206470Y-2121840D02*
G03X1191230Y-2137080I0J-15240D01*
G01X1191230Y-2206320D02*
G03X1206470Y-2221560I15240J0D01*
G01X1409730Y-2121840D02*
G02X1424970Y-2137080I0J-15240D01*
G01X1424970Y-2206320D02*
G02X1409730Y-2221560I-15240J0D01*
G01X1244854Y-2089150D02*
G01X1244854Y-1873250D01*
G01X1244854Y-1873250D02*
G01X1650746Y-1873250D01*
G01X1650746Y-1873250D02*
G01X1650746Y-2089150D01*
G01X1650746Y-2089150D02*
G01X1244854Y-2089150D01*
G01X1698061Y-2094560D02*
G01X1777070Y-2094560D01*
G01X1777070Y-1994840D02*
G01X1698061Y-1994840D01*
G01X1682821Y-2010080D02*
G01X1682821Y-2079320D01*
G01X1901322Y-2094560D02*
G01X1822313Y-2094560D01*
G01X1822313Y-1994840D02*
G01X1901322Y-1994840D01*
G01X1916562Y-2010080D02*
G01X1916562Y-2079320D01*
G01X1698061Y-1994840D02*
G03X1682821Y-2010080I0J-15240D01*
G01X1682821Y-2079320D02*
G03X1698061Y-2094560I15240J0D01*
G01X1901322Y-1994840D02*
G02X1916562Y-2010080I0J-15240D01*
G01X1916562Y-2079320D02*
G02X1901322Y-2094560I-15240J0D01*
G01X1820840Y-1880540D02*
G01X1892643Y-1880540D01*
G01X1892643Y-1880540D02*
G01X1892643Y-1980260D01*
G01X1892643Y-1980260D02*
G01X1820840Y-1980260D01*
G01X1775597Y-1880540D02*
G01X1703794Y-1880540D01*
G01X1703794Y-1880540D02*
G01X1703794Y-1980260D01*
G01X1703794Y-1980260D02*
G01X1775597Y-1980260D01*
G01X1080440Y-1993870D02*
G01X1080440Y-2072879D01*
G01X1180160Y-2072879D02*
G01X1180160Y-1993870D01*
G01X1164920Y-1978630D02*
G01X1095680Y-1978630D01*
G01X1080440Y-2197130D02*
G01X1080440Y-2118121D01*
G01X1180160Y-2118121D02*
G01X1180160Y-2197130D01*
G01X1164920Y-2212370D02*
G01X1095680Y-2212370D01*
G01X1180160Y-1993870D02*
G03X1164920Y-1978630I-15240J0D01*
G01X1095680Y-1978630D02*
G03X1080440Y-1993870I0J-15240D01*
G01X1180160Y-2197130D02*
G02X1164920Y-2212370I-15240J0D01*
G01X1095680Y-2212370D02*
G02X1080440Y-2197130I0J15240D01*
G01X579958Y-1722460D02*
G01X579958Y-1650657D01*
G01X579958Y-1650657D02*
G01X679679Y-1650657D01*
G01X679679Y-1650657D02*
G01X679679Y-1722460D01*
G01X579958Y-1767703D02*
G01X579958Y-1839506D01*
G01X579958Y-1839506D02*
G01X679679Y-1839506D01*
G01X679679Y-1839506D02*
G01X679679Y-1767703D01*
G54D16*
G01X501978Y-1817919D02*
G01X532900Y-1817919D01*
G01X501978Y-1661892D02*
G01X532900Y-1661892D01*
G01X512003Y-1661892D02*
G01X512003Y-1639905D01*
G01X512003Y-1839905D02*
G01X512003Y-1817919D01*
G01X522031Y-1817919D02*
G01X522031Y-1839905D01*
G01X522031Y-1639905D02*
G01X522031Y-1661892D01*
G01X501978Y-1661892D02*
G01X501978Y-1639905D01*
G01X501978Y-1839905D02*
G01X501978Y-1817919D01*
G01X162900Y-1817919D02*
G01X162900Y-1839905D01*
G01X162900Y-1839905D02*
G01X222900Y-1839905D01*
G01X532900Y-1661892D02*
G01X532900Y-1639905D01*
G01X532900Y-1639905D02*
G01X182900Y-1639905D01*
G01X182900Y-1639905D02*
G01X162900Y-1639905D01*
G01X162900Y-1639905D02*
G01X162900Y-1661892D01*
G01X202900Y-1839905D02*
G01X532900Y-1839905D01*
G01X532900Y-1839905D02*
G01X532900Y-1817919D01*
G54D12*
G01X393700Y-1739905D02*
G01X292100Y-1780545D01*
G01X292100Y-1780545D02*
G01X292100Y-1699265D01*
G01X292100Y-1699265D02*
G01X393700Y-1739905D01*
G54D18*
G01X1970078Y-1729806D02*
G01X1970078Y-1772478D01*
G01X1970078Y-1772478D02*
G01X1927406Y-1772478D01*
G01X1970078Y-1074994D02*
G01X1970078Y-1032322D01*
G01X1970078Y-1032322D02*
G01X1927406Y-1032322D01*
G01X1229922Y-1074994D02*
G01X1229922Y-1032322D01*
G01X1229922Y-1032322D02*
G01X1272594Y-1032322D01*
G01X1272594Y-1772478D02*
G01X1229922Y-1772478D01*
G01X1229922Y-1772478D02*
G01X1229922Y-1729806D01*
G54D19*
G01X1244908Y-1822516D02*
G03X1245162Y-1822516I127J-15003D01*
G54D13*
G01X2245121Y-801040D02*
G01X2316925Y-801040D01*
G01X2316925Y-801040D02*
G01X2316925Y-900760D01*
G01X2316925Y-900760D02*
G01X2245121Y-900760D01*
G01X2199879Y-801040D02*
G01X2128076Y-801040D01*
G01X2128076Y-801040D02*
G01X2128076Y-900760D01*
G01X2128076Y-900760D02*
G01X2199879Y-900760D01*
G01X1080440Y-1727170D02*
G01X1080440Y-1806179D01*
G01X1180160Y-1806179D02*
G01X1180160Y-1727170D01*
G01X1164920Y-1711930D02*
G01X1095680Y-1711930D01*
G01X1080440Y-1930430D02*
G01X1080440Y-1851421D01*
G01X1180160Y-1851421D02*
G01X1180160Y-1930430D01*
G01X1164920Y-1945670D02*
G01X1095680Y-1945670D01*
G01X1180160Y-1727170D02*
G03X1164920Y-1711930I-15240J0D01*
G01X1095680Y-1711930D02*
G03X1080440Y-1727170I0J-15240D01*
G01X1180160Y-1930430D02*
G02X1164920Y-1945670I-15240J0D01*
G01X1095680Y-1945670D02*
G02X1080440Y-1930430I0J15240D01*
G01X2081860Y-1003330D02*
G01X2081860Y-924321D01*
G01X1982140Y-924321D02*
G01X1982140Y-1003330D01*
G01X1997380Y-1018570D02*
G01X2066620Y-1018570D01*
G01X2081860Y-800070D02*
G01X2081860Y-879079D01*
G01X1982140Y-879079D02*
G01X1982140Y-800070D01*
G01X1997380Y-784830D02*
G01X2066620Y-784830D01*
G01X1982140Y-1003330D02*
G03X1997380Y-1018570I15240J0D01*
G01X2066620Y-1018570D02*
G03X2081860Y-1003330I0J15240D01*
G01X1982140Y-800070D02*
G02X1997380Y-784830I15240J0D01*
G01X2066620Y-784830D02*
G02X2081860Y-800070I0J-15240D01*
G01X1041430Y-978840D02*
G01X962421Y-978840D01*
G01X962421Y-1078560D02*
G01X1041430Y-1078560D01*
G01X1056670Y-1063320D02*
G01X1056670Y-994080D01*
G01X838170Y-978840D02*
G01X917179Y-978840D01*
G01X917179Y-1078560D02*
G01X838170Y-1078560D01*
G01X822930Y-1063320D02*
G01X822930Y-994080D01*
G01X1041430Y-1078560D02*
G03X1056670Y-1063320I0J15240D01*
G01X1056670Y-994080D02*
G03X1041430Y-978840I-15240J0D01*
G01X838170Y-1078560D02*
G02X822930Y-1063320I0J15240D01*
G01X822930Y-994080D02*
G02X838170Y-978840I15240J0D01*
G01X1931340Y-1866870D02*
G01X1931340Y-1945879D01*
G01X2031060Y-1945879D02*
G01X2031060Y-1866870D01*
G01X2015820Y-1851630D02*
G01X1946580Y-1851630D01*
G01X1931340Y-2070130D02*
G01X1931340Y-1991121D01*
G01X2031060Y-1991121D02*
G01X2031060Y-2070130D01*
G01X2015820Y-2085370D02*
G01X1946580Y-2085370D01*
G01X2031060Y-1866870D02*
G03X2015820Y-1851630I-15240J0D01*
G01X1946580Y-1851630D02*
G03X1931340Y-1866870I0J-15240D01*
G01X2031060Y-2070130D02*
G02X2015820Y-2085370I-15240J0D01*
G01X1946580Y-2085370D02*
G02X1931340Y-2070130I0J15240D01*
G01X1891360Y-726303D02*
G01X1891360Y-798106D01*
G01X1891360Y-798106D02*
G01X1791640Y-798106D01*
G01X1791640Y-798106D02*
G01X1791640Y-726303D01*
G01X1891360Y-681060D02*
G01X1891360Y-609257D01*
G01X1891360Y-609257D02*
G01X1791640Y-609257D01*
G01X1791640Y-609257D02*
G01X1791640Y-681060D01*
G01X1383360Y-721121D02*
G01X1383360Y-792924D01*
G01X1383360Y-792924D02*
G01X1283640Y-792924D01*
G01X1283640Y-792924D02*
G01X1283640Y-721121D01*
G01X1383360Y-675879D02*
G01X1383360Y-604075D01*
G01X1383360Y-604075D02*
G01X1283640Y-604075D01*
G01X1283640Y-604075D02*
G01X1283640Y-675879D01*
G54D12*
G01X485999Y-327000D02*
G01X485999Y-73000D01*
G01X2814001Y-327000D02*
G01X485999Y-327000D01*
G01X2536648Y-327000D02*
G01X2536648Y-73000D01*
G01X2814001Y-73000D02*
G01X485999Y-73000D01*
G01X2814001Y-327000D02*
G01X2814001Y-73000D01*
G54D13*
G01X2363140Y-2377679D02*
G01X2363140Y-2305875D01*
G01X2363140Y-2305875D02*
G01X2462860Y-2305875D01*
G01X2462860Y-2305875D02*
G01X2462860Y-2377679D01*
G01X2363140Y-2422921D02*
G01X2363140Y-2494724D01*
G01X2363140Y-2494724D02*
G01X2462860Y-2494724D01*
G01X2462860Y-2494724D02*
G01X2462860Y-2422921D01*
G54D16*
G01X461857Y-2841579D02*
G01X461857Y-2810657D01*
G01X305830Y-2841579D02*
G01X305830Y-2810657D01*
G01X305830Y-2831554D02*
G01X283844Y-2831554D01*
G01X483843Y-2831554D02*
G01X461857Y-2831554D01*
G01X461857Y-2821526D02*
G01X483843Y-2821526D01*
G01X283844Y-2821526D02*
G01X305830Y-2821526D01*
G01X305830Y-2841579D02*
G01X283844Y-2841579D01*
G01X483843Y-2841579D02*
G01X461857Y-2841579D01*
G01X461857Y-3180657D02*
G01X483843Y-3180657D01*
G01X483843Y-3180657D02*
G01X483843Y-3120657D01*
G01X305830Y-2810657D02*
G01X283844Y-2810657D01*
G01X283844Y-2810657D02*
G01X283844Y-3160657D01*
G01X283844Y-3160657D02*
G01X283844Y-3180657D01*
G01X283844Y-3180657D02*
G01X305830Y-3180657D01*
G01X483843Y-3140657D02*
G01X483843Y-2810657D01*
G01X483843Y-2810657D02*
G01X461857Y-2810657D01*
G54D12*
G01X383844Y-2949857D02*
G01X424484Y-3051457D01*
G01X424484Y-3051457D02*
G01X343204Y-3051457D01*
G01X343204Y-3051457D02*
G01X383844Y-2949857D01*
G01X269554Y-2422164D02*
G01X229554Y-2382164D01*
G01X229554Y-2382164D02*
G01X219554Y-2372164D01*
G01X219554Y-2372164D02*
G01X209529Y-2382164D01*
G01X209529Y-2382164D02*
G01X169529Y-2422164D01*
G01X269554Y-2422164D02*
G01X169529Y-2422164D01*
G01X117827Y-2446487D02*
G01X117827Y-2601427D01*
G01X117827Y-2601427D02*
G01X321027Y-2601427D01*
G01X321027Y-2601427D02*
G01X321027Y-2446487D01*
G01X115287Y-2367747D02*
G01X115287Y-2220427D01*
G01X115287Y-2220427D02*
G01X155927Y-2179787D01*
G01X155927Y-2179787D02*
G01X282927Y-2179787D01*
G01X282927Y-2179787D02*
G01X321027Y-2217887D01*
G01X321027Y-2217887D02*
G01X321027Y-2370287D01*
G04 PolygonModel End*

G04 Rect Start*
G01X2993000Y-3754000D02*
G01X3247000Y-3754000D01*
G01Y-3246000D01*
G01X2993000D01*
G01Y-3754000D01*
G01X307000Y-3246000D02*
G01X53000Y-3246000D01*
G01Y-3754000D01*
G01X307000D01*
G01Y-3246000D01*
G04 Rect End*

G04 Circle Start*
G01X2501887Y-800100D02*
G03X2527287Y-800100I12700J0D01*
G03X2501887I-12700J0D01*
G54D20*
G01X1139016Y-3572010D02*
G03X1178995Y-3572010I19990J0D01*
G03X1139016I-19990J0D01*
G54D19*
G01X1405636Y-765048D02*
G03X1435608Y-765048I14986J0D01*
G03X1405636I-14986J0D01*
G54D21*
G01X1053857Y-2933988D02*
G03X1083880Y-2933988I15011J0D01*
G03X1053857I-15011J0D01*
G04 Circle End*

M02*
