G04 Layer: BottomLayer*
G04 EasyEDA Pro v2.1.57.773a98f1.225d47, 2024-05-26 20:13:26*
G04 Gerber Generator version 0.3*
G04 Scale: 100 percent, Rotated: No, Reflected: No*
G04 Dimensions in millimeters*
G04 Leading zeros omitted, absolute positions, 3 integers and 5 decimals*
%FSLAX35Y35*%
%MOMM*%
%ADD10C,0.254*%
%ADD11R,1.69926X1.69926*%
%ADD12C,1.69926*%
%ADD13C,1.8*%
%ADD14R,1.8X1.8*%
%ADD15R,1.8X1.8*%
%ADD16R,1.7X1.7*%
%ADD17C,1.7066*%
%ADD18C,1.7*%
%ADD19C,0.4*%
%ADD20C,0.6*%
%ADD21C,0.5*%
%ADD22C,0.3*%
G75*

G54D10*

G04 Copper Start*
G01X300000Y-4161646D02*
G02X38354Y-3900000I0J261646D01*
G01Y-2295724D01*
G03X52799Y-2324641I50546J7184D01*
G01X251206Y-2523047D01*
G01Y-3026734D01*
G03X266159Y-3062834I51054J0D01*
G01X317246Y-3113921D01*
G01Y-3473434D01*
G03X304946Y-3510947I51054J-37513D01*
G03X368300Y-3574301I63354J0D01*
G03X431654Y-3510947I0J63354D01*
G03X419354Y-3473434I-63354J0D01*
G01Y-3158555D01*
G01X820216Y-3559417D01*
G03X876300Y-3601654I56084J16117D01*
G03X925611Y-3574503I0J58354D01*
G03X939800Y-3576254I14189J56603D01*
G03X994755Y-3537525I0J58354D01*
G03X1003300Y-3538154I8545J57725D01*
G03X1061654Y-3479800I0J58354D01*
G03X1054354Y-3451539I-58354J0D01*
G01Y-3165836D01*
G03X1039401Y-3129735I-51054J0D01*
G01X809343Y-2899678D01*
G03X753259Y-2857441I-56084J-16117D01*
G03X694905Y-2915795I0J-58354D01*
G03X737142Y-2971879I58354J0D01*
G01X952246Y-3186983D01*
G01Y-3451539D01*
G03X950045Y-3455944I51054J-28261D01*
G01X647954Y-3153853D01*
G01Y-2631761D01*
G03X655254Y-2603500I-51054J28261D01*
G03X596900Y-2545146I-58354J0D01*
G03X538546Y-2603500I0J-58354D01*
G03X545846Y-2631761I58354J0D01*
G01Y-3140645D01*
G01X393954Y-2988753D01*
G01Y-2428561D01*
G03X401254Y-2400300I-51054J28261D01*
G03X342900Y-2341946I-58354J0D01*
G03X284546Y-2400300I0J-58354D01*
G03X286058Y-2413497I58354J0D01*
G01X139954Y-2267393D01*
G01Y-1768161D01*
G03X147254Y-1739900I-51054J28261D01*
G03X88900Y-1681546I-58354J0D01*
G03X38354Y-1710740I0J-58354D01*
G01Y-300000D01*
G02X300000Y-38354I261646J0D01*
G01X3000000D01*
G02X3261646Y-300000I0J-261646D01*
G01Y-3900000D01*
G02X3000000Y-4161646I-261646J0D01*
G01X300000D01*
G01X2735646Y-2921000D02*
G03X2794000Y-2979354I58354J0D01*
G03X2850084Y-2937117I0J58354D01*
G01X2944401Y-2842801D01*
G03X2959354Y-2806700I-36101J36101D01*
G01Y-1612900D01*
G03X2944401Y-1576799I-51054J0D01*
G01X2875484Y-1507883D01*
G03X2819400Y-1465646I-56084J-16117D01*
G03X2788970Y-1474208I0J-58354D01*
G03X2775298Y-1453802I-58470J-24392D01*
G01X2622898Y-1301402D01*
G03X2578100Y-1282846I-44798J-44798D01*
G01X2438442D01*
G01X2425554Y-1269958D01*
G01Y-1130442D01*
G01Y-1108398D01*
G02X2537200Y-1069354I111646J-140101D01*
G01X2541767D01*
G03X2565400Y-1074354I23633J53354D01*
G03X2623754Y-1016000I0J58354D01*
G03X2565400Y-957646I-58354J0D01*
G03X2541767Y-962646I0J-58354D01*
G01X2537200D01*
G02X2425554Y-923602I0J179146D01*
G01Y-787400D01*
G03X2406998Y-742602I-63354J0D01*
G01X2328068Y-663672D01*
G01X2328029Y-663633D01*
G01X2292698Y-628302D01*
G03X2247900Y-609746I-44798J-44798D01*
G01X2009472D01*
G01X2328087Y-291131D01*
G01X2329541Y-291743D01*
G03X2412000Y-323354I82459J91743D01*
G03X2535354Y-200000I0J123354D01*
G03X2412000Y-76646I-123354J0D01*
G03X2289527Y-185289I0J-123354D01*
G01X2281189Y-193627D01*
G03X2158000Y-76646I-123189J-6373D01*
G03X2034646Y-200000I0J-123354D01*
G03X2051708Y-262595I123354J0D01*
G01X2053275Y-267922D01*
G01X2053789Y-270110D01*
G01X1826060Y-497839D01*
G01Y-350141D01*
G01X1857834Y-318368D01*
G01X1859919Y-316413D01*
G01X1872935Y-319623D01*
G01X1874561Y-319986D01*
G01X1881189Y-321318D01*
G01X1883476Y-321706D01*
G01X1889242Y-322506D01*
G01X1891453Y-322748D01*
G01X1896087Y-323119D01*
G01X1898200Y-323229D01*
G01X1898786Y-323244D01*
G03X1903126Y-323351I5214J123244D01*
G01X1903128D01*
G01X1904075Y-323363D01*
G01X1905091Y-323349D01*
G03X2027354Y-200000I-1091J123349D01*
G03X1904000Y-76646I-123354J0D01*
G03X1780651Y-198909I0J-123354D01*
G01X1780638Y-199925D01*
G01X1780649Y-200872D01*
G01Y-200874D01*
G03X1780756Y-205214I123351J874D01*
G01X1780771Y-205800D01*
G01X1780881Y-207913D01*
G01X1781252Y-212548D01*
G01X1781494Y-214758D01*
G01X1782294Y-220524D01*
G01X1782682Y-222812D01*
G01X1784014Y-229439D01*
G01X1784377Y-231065D01*
G01X1787587Y-244081D01*
G01X1785633Y-246166D01*
G01X1738905Y-292893D01*
G03X1723952Y-328994I36101J-36101D01*
G01Y-508751D01*
G01X1689354Y-474153D01*
G01Y-322351D01*
G01X1691198Y-320717D01*
G01X1696476Y-316634D01*
G01X1707578Y-309091D01*
G03X1742457Y-281658I-57578J109091D01*
G01X1742574Y-281524D01*
G03X1773354Y-200000I-92574J81524D01*
G03X1650000Y-76646I-123354J0D01*
G03X1526646Y-200000I0J-123354D01*
G03X1557426Y-281524I123354J0D01*
G01X1557543Y-281658D01*
G03X1561792Y-286230I92457J81657D01*
G01X1563725Y-288301D01*
G01X1565290Y-289884D01*
G01X1578993Y-302959D01*
G01X1583416Y-307348D01*
G01X1584893Y-308980D01*
G01X1585596Y-309841D01*
G01X1586117Y-310553D01*
G01X1586433Y-311047D01*
G01X1586716Y-311562D01*
G01X1586763Y-311676D01*
G01X1586821Y-311841D01*
G01X1586885Y-312060D01*
G01X1586903Y-312134D01*
G01X1587069Y-313092D01*
G01X1587178Y-314190D01*
G01X1587246Y-316328D01*
G01Y-495300D01*
G03X1587395Y-499193I51054J0D01*
G01X1447054Y-358853D01*
G01Y-316341D01*
G01X1447146Y-313487D01*
G01X1458619Y-306553D01*
G01X1460027Y-305660D01*
G01X1465655Y-301915D01*
G01X1467547Y-300572D01*
G01X1472190Y-297060D01*
G01X1473923Y-295668D01*
G01X1477463Y-292653D01*
G01X1479035Y-291237D01*
G01X1479458Y-290835D01*
G03X1482609Y-287836I-83458J90835D01*
G01X1483988Y-286454D01*
G03X1488457Y-281658I-87988J86454D01*
G01X1488574Y-281524D01*
G03X1519354Y-200000I-92574J81524D01*
G03X1396000Y-76646I-123354J0D01*
G03X1272646Y-200000I0J-123354D01*
G03X1303426Y-281524I123354J0D01*
G01X1303543Y-281658D01*
G03X1308012Y-286454I92457J81657D01*
G01X1309391Y-287836D01*
G03X1312542Y-290835I86609J87836D01*
G01X1312965Y-291237D01*
G01X1314537Y-292653D01*
G01X1318077Y-295668D01*
G01X1319810Y-297060D01*
G01X1324453Y-300572D01*
G01X1326345Y-301915D01*
G01X1331973Y-305660D01*
G01X1333381Y-306553D01*
G01X1344854Y-313487D01*
G01X1344946Y-316341D01*
G01Y-373247D01*
G01X1244102Y-272403D01*
G01X1244129Y-272282D01*
G01X1245375Y-267959D01*
G01X1245891Y-266504D01*
G03X1265354Y-200000I-103891J66504D01*
G03X1142000Y-76646I-123354J0D01*
G03X1018646Y-200000I0J-123354D01*
G03X1133457Y-323058I123354J0D01*
G01X1134896Y-323205D01*
G01X1136098Y-323412D01*
G01X1137594Y-323761D01*
G01X1141086Y-324807D01*
G01X1144858Y-326204D01*
G01X1148897Y-327963D01*
G01X1152975Y-329997D01*
G01X1156881Y-332198D01*
G01X1160414Y-334439D01*
G01X1163364Y-336555D01*
G01X1165724Y-338497D01*
G01X1166893Y-339597D01*
G01X1195343Y-368046D01*
G01X1126047D01*
G01X1008932Y-250930D01*
G01X1008836Y-250111D01*
G01X1008674Y-247007D01*
G01X1008703Y-240801D01*
G01X1010406Y-216096D01*
G01X1010427Y-215779D01*
G01X1010510Y-214406D01*
G03X1011354Y-200000I-122510J14406D01*
G03X888000Y-76646I-123354J0D01*
G03X764646Y-200000I0J-123354D01*
G03X771655Y-240988I123354J0D01*
G01X764725Y-234058D01*
G01X763209Y-232411D01*
G01X762477Y-231465D01*
G01X761891Y-230557D01*
G01X761373Y-229586D01*
G01X760878Y-228448D01*
G01X760389Y-227053D01*
G01X759909Y-225325D01*
G01X759495Y-223413D01*
G01X758881Y-219465D01*
G01X758079Y-210466D01*
G01X757229Y-194455D01*
G03X634000Y-76646I-123229J-5545D01*
G03X510646Y-200000I0J-123354D01*
G03X627084Y-323160I123354J0D01*
G01X650438Y-324543D01*
G01X654641Y-325035D01*
G01X658536Y-325730D01*
G01X660233Y-326147D01*
G01X661788Y-326633D01*
G01X663045Y-327125D01*
G01X664085Y-327626D01*
G01X665011Y-328170D01*
G01X665927Y-328819D01*
G01X667232Y-329921D01*
G01X667776Y-330443D01*
G01X931766Y-594434D01*
G03X980100Y-614454I48334J48334D01*
G01X1224382D01*
G03X1292633Y-549835I0J68354D01*
G01X1524758Y-781959D01*
G01Y-948712D01*
G03X1516754Y-978208I50350J-29496D01*
G03X1575108Y-1036562I58354J0D01*
G03X1629352Y-999721I0J58354D01*
G03X1676400Y-1023554I47048J34521D01*
G03X1726649Y-994868I0J58354D01*
G03X1775006Y-1020560I48357J32662D01*
G03X1832419Y-972642I0J58354D01*
G01X1834402Y-972484D01*
G03X1892300Y-1023554I57898J7284D01*
G03X1950654Y-965200I0J58354D01*
G03X1943354Y-936939I-58354J0D01*
G01Y-730020D01*
G03X1981200Y-741454I37846J56920D01*
G03X2006862Y-736454I0J68354D01*
G01X2221658D01*
G01X2245750Y-760546D01*
G01X2245780Y-760576D01*
G01X2245794Y-760590D01*
G01X2298846Y-813642D01*
G01Y-1016470D01*
G01Y-1035246D01*
G02X2187200Y-1067088I-111646J179803D01*
G01X2032142D01*
G03X1998203Y-1076946I0J-63354D01*
G01X1905000D01*
G03X1867273Y-1092573I0J-53354D01*
G01X1687241Y-1272605D01*
G03X1671614Y-1310332I37727J-37727D01*
G01Y-1802935D01*
G03X1666684Y-1823706I53354J-23633D01*
G01X812458D01*
G03X776358Y-1838659I0J-51054D01*
G01X684871Y-1930146D01*
G01X587061D01*
G03X558800Y-1922846I-28261J-51054D01*
G03X500446Y-1981200I0J-58354D01*
G03X558800Y-2039554I58354J0D01*
G03X587061Y-2032254I0J58354D01*
G01X589347D01*
G03X647700Y-2090354I58353J254D01*
G03X675961Y-2083054I0J58354D01*
G01X1178239D01*
G03X1206500Y-2090354I28261J51054D01*
G03X1264854Y-2032000I0J58354D01*
G03X1206500Y-1973646I-58354J0D01*
G03X1178239Y-1980946I0J-58354D01*
G01X778474D01*
G01X833606Y-1925814D01*
G01X1643627D01*
G03X1643446Y-1930400I58173J-4586D01*
G03X1701800Y-1988754I58354J0D01*
G03X1730061Y-1981454I0J58354D01*
G01X1866900D01*
G03X1903001Y-1966501I0J51054D01*
G01X2040447Y-1829054D01*
G01X2476500D01*
G03X2512601Y-1814101I0J51054D01*
G01X2588801Y-1737901D01*
G03X2603754Y-1701800I-36101J36101D01*
G01Y-1461450D01*
G01X2667146Y-1524842D01*
G01Y-1853938D01*
G03X2662146Y-1879600I63354J-25662D01*
G03X2730500Y-1947954I68354J0D01*
G03X2798854Y-1879600I0J68354D01*
G03X2793854Y-1853938I-68354J0D01*
G01Y-1576465D01*
G03X2803283Y-1580084I25546J52465D01*
G01X2857246Y-1634047D01*
G01Y-2442145D01*
G01X2469084Y-2053983D01*
G03X2413000Y-2011746I-56084J-16117D01*
G03X2354646Y-2070100I0J-58354D01*
G03X2396883Y-2126184I58354J0D01*
G01X2806446Y-2535747D01*
G01Y-2740339D01*
G03X2799146Y-2768600I51054J-28261D01*
G03X2825440Y-2817358I58354J0D01*
G01X2777883Y-2864916D01*
G03X2735646Y-2921000I16117J-56084D01*
G01X1409700Y-1036254D02*
G03X1468054Y-977900I0J58354D01*
G03X1430716Y-923462I-58354J0D01*
G01X1269627Y-762373D01*
G03X1231900Y-746746I-37727J-37727D01*
G01X296288D01*
G01X293144Y-746645D01*
G01X293036Y-746635D01*
G01X292578Y-746023D01*
G01X285375Y-735175D01*
G01X284601Y-734052D01*
G01X279965Y-727582D01*
G01X278572Y-725756D01*
G01X274957Y-721301D01*
G01X273411Y-719510D01*
G01X271712Y-717662D01*
G03X269856Y-715643I-91712J-82438D01*
G01X269250Y-714984D01*
G01X267646Y-713341D01*
G01X267376Y-713080D01*
G03X263735Y-709571I-87376J-87020D01*
G01X263096Y-708984D01*
G01X263083Y-708972D01*
G01X261589Y-707632D01*
G01X261544Y-707593D01*
G03X180000Y-676783I-81544J-92507D01*
G03X56683Y-800100I0J-123317D01*
G03X180000Y-923417I123317J0D01*
G03X261544Y-892607I0J123317D01*
G01X261589Y-892568D01*
G03X266020Y-888461I-81589J92468D01*
G01X267457Y-887050D01*
G01X267921Y-886569D01*
G01X269436Y-885001D01*
G01X270750Y-883642D01*
G01Y-883641D01*
G01X272221Y-882030D01*
G01X276095Y-877535D01*
G01X277600Y-875674D01*
G01X281763Y-870185D01*
G01X283109Y-868295D01*
G01X291006Y-856460D01*
G01X293019Y-853583D01*
G01X295236Y-853461D01*
G01X295873Y-853454D01*
G01X1209800D01*
G01X1355262Y-998916D01*
G03X1409700Y-1036254I54438J21016D01*
G01X602046Y-1549400D02*
G03X660400Y-1607754I58354J0D01*
G03X688661Y-1600454I0J58354D01*
G01X1092200D01*
G03X1128301Y-1585501I0J51054D01*
G01X1184517Y-1529284D01*
G03X1226754Y-1473200I-16117J56084D01*
G03X1173160Y-1415041I-58354J0D01*
G01Y-1279806D01*
G03X1205860Y-1227394I-25654J52412D01*
G03X1147506Y-1169040I-58354J0D01*
G03X1091422Y-1211277I0J-58354D01*
G01X1086005Y-1216693D01*
G03X1071052Y-1252794I36101J-36101D01*
G01Y-1270147D01*
G03X1060130Y-1269116I-10922J-57323D01*
G03X1004046Y-1311353I0J-58354D01*
G01X954499Y-1360899D01*
G03X939546Y-1397000I36101J-36101D01*
G01Y-1444939D01*
G03X932246Y-1473200I51054J-28261D01*
G03X937942Y-1498346I58354J0D01*
G01X688661D01*
G03X660400Y-1491046I-28261J-51054D01*
G03X602046Y-1549400I0J-58354D01*
G01X1110046Y-1676400D02*
G03X1168400Y-1734754I58354J0D01*
G03X1192033Y-1729754I0J58354D01*
G01X1195629D01*
G01X1320800D01*
G03X1358527Y-1714127I0J53354D01*
G01X1396627Y-1676027D01*
G03X1412254Y-1638300I-37727J37727D01*
G01Y-1143000D01*
G03X1396627Y-1105273I-53354J0D01*
G01X1307727Y-1016373D01*
G03X1270000Y-1000746I-37727J-37727D01*
G01X1250653D01*
G03X1197868Y-965477I-56853J-27954D01*
G01X1197668Y-965464D01*
G03X1193800Y-965346I-3868J-63236D01*
G03X1186412Y-965778I0J-63354D01*
G03X1168400Y-962646I-18012J-50222D01*
G03X1115046Y-1016000I0J-53354D01*
G03X1130673Y-1053727I53354J0D01*
G01X1141718Y-1064772D01*
G03X1157728Y-1080782I52082J36072D01*
G01X1168773Y-1091827D01*
G03X1206500Y-1107454I37727J37727D01*
G01X1247900D01*
G01X1305546Y-1165100D01*
G01Y-1616200D01*
G01X1298700Y-1623046D01*
G01X1195629D01*
G01X1192033D01*
G03X1168400Y-1618046I-23633J-53354D01*
G03X1110046Y-1676400I0J-58354D01*
G01X2524439Y-3810254D02*
G03X2552700Y-3817554I28261J51054D01*
G03X2611054Y-3759200I0J58354D01*
G03X2552700Y-3700846I-58354J0D01*
G03X2524439Y-3708146I0J-58354D01*
G01X2009461D01*
G03X1981200Y-3700846I-28261J-51054D01*
G03X1952939Y-3708146I0J-58354D01*
G01X1288579D01*
G03X1283288Y-3702814I-43979J-38354D01*
G01X1283107Y-3702655D01*
G03X1244600Y-3688146I-38507J-43845D01*
G03X1186246Y-3746500I0J-58354D01*
G03X1231809Y-3803435I58354J0D01*
G03X1257300Y-3810254I25491J44235D01*
G01X1271829D01*
G01X1952939D01*
G03X1981200Y-3817554I28261J51054D01*
G03X2009461Y-3810254I0J58354D01*
G01X2524439D01*
G01X2991646Y-3717000D02*
G03X3030000Y-3755354I38354J0D01*
G01X3210000D01*
G03X3248354Y-3717000I0J38354D01*
G01Y-3537000D01*
G03X3210000Y-3498646I-38354J0D01*
G01X3146225D01*
G03X3248354Y-3373000I-26225J125646D01*
G03X3120000Y-3244646I-128354J0D01*
G03X2991646Y-3373000I0J-128354D01*
G03X3093775Y-3498646I128354J0D01*
G01X3030000D01*
G03X2991646Y-3537000I0J-38354D01*
G01Y-3717000D01*
G01X180000Y-3755354D02*
G03X308354Y-3627000I0J128354D01*
G03X206225Y-3501354I-128354J0D01*
G01X270000D01*
G03X308354Y-3463000I0J38354D01*
G01Y-3283000D01*
G03X270000Y-3244646I-38354J0D01*
G01X90000D01*
G03X51646Y-3283000I0J-38354D01*
G01Y-3463000D01*
G03X90000Y-3501354I38354J0D01*
G01X153775D01*
G03X51646Y-3627000I26225J-125646D01*
G03X180000Y-3755354I128354J0D01*
G01X2751000Y-323354D02*
G03X2789354Y-285000I0J38354D01*
G01Y-115000D01*
G03X2751000Y-76646I-38354J0D01*
G01X2581000D01*
G03X2542646Y-115000I0J-38354D01*
G01Y-285000D01*
G03X2581000Y-323354I38354J0D01*
G01X2751000D01*
G01X56683Y-1054100D02*
G03X180000Y-1177417I123317J0D01*
G03X303317Y-1054100I0J123317D01*
G03X180000Y-930783I-123317J0D01*
G03X56683Y-1054100I0J-123317D01*
G01X56683Y-1308100D02*
G03X180000Y-1431417I123317J0D01*
G03X303317Y-1308100I0J123317D01*
G03X180000Y-1184783I-123317J0D01*
G03X56683Y-1308100I0J-123317D01*
G01X56683Y-631063D02*
G03X95037Y-669417I38354J0D01*
G01X264963D01*
G03X303317Y-631063I0J38354D01*
G01Y-461137D01*
G03X264963Y-422783I-38354J0D01*
G01X95037D01*
G03X56683Y-461137I0J-38354D01*
G01Y-631063D01*
G01X3149878Y-1298222D02*
G03X3233190Y-1214910I0J83312D01*
G03X3149878Y-1131598I-83312J0D01*
G03X3066566Y-1214910I0J-83312D01*
G03X3149878Y-1298222I83312J0D01*
G01X3149878Y-1468402D02*
G03X3233190Y-1385090I0J83312D01*
G03X3149878Y-1301778I-83312J0D01*
G03X3066566Y-1385090I0J-83312D01*
G03X3149878Y-1468402I83312J0D01*
G01X3149878Y-2898222D02*
G03X3233190Y-2814910I0J83312D01*
G03X3149878Y-2731598I-83312J0D01*
G03X3066566Y-2814910I0J-83312D01*
G03X3149878Y-2898222I83312J0D01*
G01X3066566Y-2985090D02*
G03X3149878Y-3068402I83312J0D01*
G03X3233190Y-2985090I0J83312D01*
G03X3149878Y-2901778I-83312J0D01*
G03X3066566Y-2985090I0J-83312D01*
G01X1943100Y-3538154D02*
G03X2001454Y-3479800I0J58354D01*
G03X1943100Y-3421446I-58354J0D01*
G03X1884746Y-3479800I0J-58354D01*
G03X1943100Y-3538154I58354J0D01*
G01X3004178Y-4161613D02*
G01X3261613Y-3904178D01*
G01X2896382Y-4161646D02*
G01X3261646Y-3796382D01*
G01X2788619Y-4161646D02*
G01X3194911Y-3755354D01*
G01X3248354Y-3701911D02*
G01X3261646Y-3688619D01*
G01X2680856Y-4161646D02*
G01X3087148Y-3755354D01*
G01X3248354Y-3594148D02*
G01X3261646Y-3580856D01*
G01X2573093Y-4161646D02*
G01X2997451Y-3737287D01*
G01X3230287Y-3504451D02*
G01X3261646Y-3473093D01*
G01X2465329Y-4161646D02*
G01X2991646Y-3635329D01*
G01X3248225Y-3378750D02*
G01X3261646Y-3365329D01*
G01X2357566Y-4161646D02*
G01X2993277Y-3525935D01*
G01X3018935Y-3500277D02*
G01X3043298Y-3475915D01*
G01X3222915Y-3296298D02*
G01X3261646Y-3257566D01*
G01X2249803Y-4161646D02*
G01X2998140Y-3413309D01*
G01X3160309Y-3251140D02*
G01X3261646Y-3149803D01*
G01X2142040Y-4161646D02*
G01X2493432Y-3810254D01*
G01X2589651Y-3714036D02*
G01X3261646Y-3042040D01*
G01X2034277Y-4161646D02*
G01X2385669Y-3810254D01*
G01X2487777Y-3708146D02*
G01X3129942Y-3065982D01*
G01X3230769Y-2965154D02*
G01X3261646Y-2934277D01*
G01X1926514Y-4161646D02*
G01X2277906Y-3810254D01*
G01X2380014Y-3708146D02*
G01X3072412Y-3015748D01*
G01X3180536Y-2907624D02*
G01X3261646Y-2826514D01*
G01X1818751Y-4161646D02*
G01X2170143Y-3810254D01*
G01X2272251Y-3708146D02*
G01X3099291Y-2881106D01*
G01X3216074Y-2764323D02*
G01X3261646Y-2718751D01*
G01X1710988Y-4161646D02*
G01X2062380Y-3810254D01*
G01X2164488Y-3708146D02*
G01X3067095Y-2805539D01*
G01X3140507Y-2732127D02*
G01X3261646Y-2610988D01*
G01X1603225Y-4161646D02*
G01X1954029Y-3810842D01*
G01X2056725Y-3708146D02*
G01X2786060Y-2978811D01*
G01X2959354Y-2805517D02*
G01X3261646Y-2503225D01*
G01X1495462Y-4161646D02*
G01X1846854Y-3810254D01*
G01X1948962Y-3708146D02*
G01X2735648Y-2921460D01*
G01X2959354Y-2697754D02*
G01X3261646Y-2395462D01*
G01X1387699Y-4161646D02*
G01X1739091Y-3810254D01*
G01X1841199Y-3708146D02*
G01X2803965Y-2745380D01*
G01X2959354Y-2589991D02*
G01X3261646Y-2287699D01*
G01X1279936Y-4161646D02*
G01X1631328Y-3810254D01*
G01X1733436Y-3708146D02*
G01X1912250Y-3529332D01*
G01X1992632Y-3448950D02*
G01X2806446Y-2635136D01*
G01X2959354Y-2482228D02*
G01X3261646Y-2179936D01*
G01X1172173Y-4161646D02*
G01X1523565Y-3810254D01*
G01X1625673Y-3708146D02*
G01X2802259Y-2531560D01*
G01X2959354Y-2374465D02*
G01X3261646Y-2072173D01*
G01X1064410Y-4161646D02*
G01X1415802Y-3810254D01*
G01X1517910Y-3708146D02*
G01X2748377Y-2477678D01*
G01X2820578Y-2405477D02*
G01X2857246Y-2368810D01*
G01X2959354Y-2266702D02*
G01X3261646Y-1964409D01*
G01X956646Y-4161646D02*
G01X1308038Y-3810254D01*
G01X1410146Y-3708146D02*
G01X2694496Y-2423797D01*
G01X2766697Y-2351596D02*
G01X2857246Y-2261046D01*
G01X2959354Y-2158938D02*
G01X3261646Y-1856646D01*
G01X848883Y-4161646D02*
G01X1214212Y-3796317D01*
G01X1302383Y-3708146D02*
G01X2640614Y-2369915D01*
G01X2712815Y-2297714D02*
G01X2857246Y-2153283D01*
G01X2959354Y-2051175D02*
G01X3261646Y-1748883D01*
G01X741120Y-4161646D02*
G01X2586733Y-2316034D01*
G01X2658934Y-2243833D02*
G01X2857246Y-2045520D01*
G01X2959354Y-1943412D02*
G01X3261646Y-1641120D01*
G01X633357Y-4161646D02*
G01X2532851Y-2262152D01*
G01X2605052Y-2189951D02*
G01X2857246Y-1937757D01*
G01X2959354Y-1835649D02*
G01X3261646Y-1533357D01*
G01X525594Y-4161646D02*
G01X2478969Y-2208271D01*
G01X2551171Y-2136069D02*
G01X2739941Y-1947299D01*
G01X2798199Y-1889041D02*
G01X2857246Y-1829994D01*
G01X2959354Y-1727886D02*
G01X3261646Y-1425594D01*
G01X417831Y-4161646D02*
G01X2425088Y-2154389D01*
G01X2497289Y-2082188D02*
G01X2669344Y-1910133D01*
G01X2793854Y-1785623D02*
G01X2857246Y-1722231D01*
G01X2959354Y-1620123D02*
G01X3117587Y-1461890D01*
G01X3226678Y-1352799D02*
G01X3261646Y-1317831D01*
G01X310068Y-4161646D02*
G01X870363Y-3601351D01*
G01X1054354Y-3417360D02*
G01X2366439Y-2105275D01*
G01X2448175Y-2023539D02*
G01X2667146Y-1804568D01*
G01X2793854Y-1677860D02*
G01X2847456Y-1624258D01*
G01X2919658Y-1552056D02*
G01X3068550Y-1403164D01*
G01X3167952Y-1303762D02*
G01X3178599Y-1293115D01*
G01X3228082Y-1243632D02*
G01X3261646Y-1210068D01*
G01X216116Y-4147835D02*
G01X812375Y-3551576D01*
G01X929026Y-3434925D02*
G01X952246Y-3411705D01*
G01X1054354Y-3309597D02*
G01X2667146Y-1696805D01*
G01X2869638Y-1494313D02*
G01X3090550Y-1273400D01*
G01X3208368Y-1155582D02*
G01X3261646Y-1102305D01*
G01X145228Y-4110960D02*
G01X758493Y-3497695D01*
G01X875145Y-3381043D02*
G01X952246Y-3303942D01*
G01X1054354Y-3201834D02*
G01X2427134Y-1829054D01*
G01X2603754Y-1652434D02*
G01X2667146Y-1589042D01*
G01X2786745Y-1469442D02*
G01X3072732Y-1183456D01*
G01X3118424Y-1137764D02*
G01X3261646Y-994542D01*
G01X91007Y-4057418D02*
G01X704612Y-3443813D01*
G01X821263Y-3327162D02*
G01X952246Y-3196179D01*
G01X1029045Y-3119380D02*
G01X2319371Y-1829054D01*
G01X2603754Y-1544671D02*
G01X2645364Y-1503060D01*
G01X2734960Y-1413464D02*
G01X3261646Y-886779D01*
G01X53351Y-3987310D02*
G01X650730Y-3389931D01*
G01X767381Y-3273280D02*
G01X902962Y-3137699D01*
G01X975164Y-3065498D02*
G01X2211608Y-1829054D01*
G01X2681079Y-1359583D02*
G01X3261646Y-779016D01*
G01X38354Y-3894545D02*
G01X177568Y-3755331D01*
G01X308331Y-3624568D02*
G01X359248Y-3573651D01*
G01X431004Y-3501895D02*
G01X596849Y-3336050D01*
G01X713500Y-3219399D02*
G01X849081Y-3083818D01*
G01X921282Y-3011617D02*
G01X2103845Y-1829054D01*
G01X2627197Y-1305701D02*
G01X3261646Y-671253D01*
G01X38354Y-3786782D02*
G01X98762Y-3726374D01*
G01X279373Y-3545762D02*
G01X305539Y-3519596D01*
G01X419354Y-3405782D02*
G01X542967Y-3282168D01*
G01X659618Y-3165517D02*
G01X795199Y-3029936D01*
G01X867400Y-2957735D02*
G01X1843682Y-1981454D01*
G01X2542289Y-1282846D02*
G01X3261646Y-563490D01*
G01X38354Y-3679018D02*
G01X56262Y-3661111D01*
G01X214111Y-3503262D02*
G01X216019Y-3501354D01*
G01X308354Y-3409019D02*
G01X317246Y-3400126D01*
G01X419354Y-3298018D02*
G01X489086Y-3228287D01*
G01X647954Y-3069418D02*
G01X741318Y-2976055D01*
G01X813519Y-2903854D02*
G01X1735918Y-1981454D01*
G01X2436484Y-1280888D02*
G01X3261646Y-455726D01*
G01X38354Y-3571255D02*
G01X108255Y-3501354D01*
G01X308354Y-3301256D02*
G01X317246Y-3292363D01*
G01X419354Y-3190255D02*
G01X435204Y-3174405D01*
G01X507405Y-3102204D02*
G01X545846Y-3063763D01*
G01X647954Y-2961655D02*
G01X694916Y-2914694D01*
G01X752158Y-2857451D02*
G01X1650818Y-1958791D01*
G01X2425554Y-1184055D02*
G01X2540255Y-1069354D01*
G01X2618282Y-991328D02*
G01X3261646Y-347963D01*
G01X38354Y-3463492D02*
G01X51646Y-3450200D01*
G01X257200Y-3244646D02*
G01X317246Y-3184600D01*
G01X453524Y-3048323D02*
G01X545846Y-2956000D01*
G01X647954Y-2853892D02*
G01X1576032Y-1925814D01*
G01X2539200Y-962646D02*
G01X3255984Y-245862D01*
G01X38354Y-3355729D02*
G01X51646Y-3342437D01*
G01X149437Y-3244646D02*
G01X298704Y-3095379D01*
G01X399642Y-2994441D02*
G01X545846Y-2848237D01*
G01X647954Y-2746129D02*
G01X1468269Y-1925814D01*
G01X1570377Y-1823706D02*
G01X1671614Y-1722469D01*
G01X2452646Y-941437D02*
G01X3225973Y-168110D01*
G01X38354Y-3247966D02*
G01X251803Y-3034517D01*
G01X393954Y-2892366D02*
G01X545846Y-2740474D01*
G01X647954Y-2638366D02*
G01X1196781Y-2089539D01*
G01X1264039Y-2022281D02*
G01X1360506Y-1925814D01*
G01X1462614Y-1823706D02*
G01X1671614Y-1614706D01*
G01X2222135Y-1064185D02*
G01X2298846Y-987474D01*
G01X2425554Y-860766D02*
G01X3178045Y-108275D01*
G01X38354Y-3140203D02*
G01X251206Y-2927351D01*
G01X393954Y-2784603D02*
G01X545846Y-2632711D01*
G01X625769Y-2552788D02*
G01X1095503Y-2083054D01*
G01X1204889Y-1973668D02*
G01X1252743Y-1925814D01*
G01X1354851Y-1823706D02*
G01X1671614Y-1506943D01*
G01X2111469Y-1067088D02*
G01X2298846Y-879711D01*
G01X2419072Y-759485D02*
G01X3114042Y-64515D01*
G01X38354Y-3032440D02*
G01X251206Y-2819588D01*
G01X393954Y-2676840D02*
G01X987740Y-2083054D01*
G01X1089848Y-1980946D02*
G01X1144980Y-1925814D01*
G01X1247088Y-1823706D02*
G01X1349272Y-1721522D01*
G01X1404022Y-1666772D02*
G01X1671614Y-1399180D01*
G01X1993848Y-1076946D02*
G01X2277999Y-792795D01*
G01X2367595Y-703199D02*
G01X2747440Y-323354D01*
G01X2789354Y-281440D02*
G01X3030640Y-40154D01*
G01X38354Y-2924677D02*
G01X251206Y-2711825D01*
G01X393954Y-2569077D02*
G01X879977Y-2083054D01*
G01X982085Y-1980946D02*
G01X1037217Y-1925814D01*
G01X1139325Y-1823706D02*
G01X1233277Y-1729754D01*
G01X1412254Y-1550777D02*
G01X1677988Y-1285043D01*
G01X1879711Y-1083320D02*
G01X2224117Y-738913D01*
G01X2313713Y-649317D02*
G01X2639677Y-323354D01*
G01X2789354Y-173677D02*
G01X2924677Y-38354D01*
G01X38354Y-2816914D02*
G01X251206Y-2604062D01*
G01X393954Y-2461314D02*
G01X772214Y-2083054D01*
G01X874322Y-1980946D02*
G01X929454Y-1925814D01*
G01X1031562Y-1823706D02*
G01X1132705Y-1722563D01*
G01X1232222Y-1623046D02*
G01X1305546Y-1549722D01*
G01X1412254Y-1443014D02*
G01X1849937Y-1005331D01*
G01X1943354Y-911914D02*
G01X2118814Y-736454D01*
G01X2245522Y-609746D02*
G01X2549050Y-306218D01*
G01X2772218Y-83050D02*
G01X2816914Y-38354D01*
G01X38354Y-2709151D02*
G01X237832Y-2509673D01*
G01X386259Y-2361246D02*
G01X658082Y-2089423D01*
G01X923799Y-1823706D02*
G01X1305546Y-1441959D01*
G01X1412254Y-1335251D02*
G01X1739212Y-1008293D01*
G01X1943354Y-804151D02*
G01X2011051Y-736454D01*
G01X2137759Y-609746D02*
G01X2424819Y-322686D01*
G01X2534686Y-212819D02*
G01X2542646Y-204859D01*
G01X2670859Y-76646D02*
G01X2709151Y-38354D01*
G01X38354Y-2601388D02*
G01X183950Y-2455791D01*
G01X256151Y-2383590D02*
G01X591618Y-2048124D01*
G01X816036Y-1823706D02*
G01X1039288Y-1600454D01*
G01X1208723Y-1431019D02*
G01X1305546Y-1334196D01*
G01X1412254Y-1227488D02*
G01X1634219Y-1005523D01*
G01X2029996Y-609746D02*
G01X2339756Y-299985D01*
G01X2511985Y-127757D02*
G01X2601388Y-38354D01*
G01X38354Y-2493625D02*
G01X130069Y-2401910D01*
G01X202270Y-2329709D02*
G01X513722Y-2018256D01*
G01X601833Y-1930146D02*
G01X931525Y-1600454D01*
G01X1173160Y-1358819D02*
G01X1305546Y-1226433D01*
G01X1408539Y-1123440D02*
G01X1524580Y-1007399D01*
G01X2449496Y-82483D02*
G01X2493625Y-38354D01*
G01X38354Y-2385862D02*
G01X76187Y-2348028D01*
G01X148388Y-2275827D02*
G01X823762Y-1600454D01*
G01X925870Y-1498346D02*
G01X934602Y-1489614D01*
G01X1205248Y-1218967D02*
G01X1282331Y-1141885D01*
G01X1357785Y-1066431D02*
G01X1391029Y-1033186D01*
G01X1464986Y-959229D02*
G01X1524758Y-899458D01*
G01X2271804Y-152411D02*
G01X2385862Y-38354D01*
G01X139954Y-2176499D02*
G01X715999Y-1600454D01*
G01X818107Y-1498346D02*
G01X948881Y-1367572D01*
G01X1045463Y-1270989D02*
G01X1071687Y-1244765D01*
G01X1147412Y-1169040D02*
G01X1208999Y-1107454D01*
G01X1303709Y-1012744D02*
G01X1336399Y-980053D01*
G01X1411853Y-904599D02*
G01X1524758Y-791695D01*
G01X1826060Y-490392D02*
G01X2052196Y-264256D01*
G01X2221941Y-94512D02*
G01X2278099Y-38354D01*
G01X139954Y-2068735D02*
G01X618586Y-1590103D01*
G01X710343Y-1498346D02*
G01X1142632Y-1066057D01*
G01X1231157Y-977532D02*
G01X1282518Y-926172D01*
G01X1357972Y-850718D02*
G01X1475744Y-732945D01*
G01X1711945Y-496744D02*
G01X1723952Y-484737D01*
G01X1826060Y-382629D02*
G01X1886556Y-322134D01*
G01X2026117Y-182573D02*
G01X2038237Y-170452D01*
G01X2128452Y-80238D02*
G01X2170335Y-38354D01*
G01X139954Y-1960972D02*
G01X1228636Y-872290D01*
G01X1304090Y-796836D02*
G01X1421863Y-679064D01*
G01X1689354Y-411572D02*
G01X1723952Y-376974D01*
G01X1989674Y-111252D02*
G01X2062572Y-38354D01*
G01X139954Y-1853209D02*
G01X1139709Y-853454D01*
G01X1244827Y-748336D02*
G01X1367981Y-625182D01*
G01X1540682Y-452481D02*
G01X1587246Y-405917D01*
G01X1771423Y-221740D02*
G01X1781205Y-211958D01*
G01X1915938Y-77225D02*
G01X1954809Y-38354D01*
G01X147228Y-1738172D02*
G01X1031946Y-853454D01*
G01X1138654Y-746746D02*
G01X1314099Y-571301D01*
G01X1486801Y-398599D02*
G01X1580724Y-304676D01*
G01X1753110Y-132291D02*
G01X1847046Y-38354D01*
G01X95694Y-1681943D02*
G01X924183Y-853454D01*
G01X1030891Y-746746D02*
G01X1163183Y-614454D01*
G01X1447054Y-330583D02*
G01X1534452Y-243185D01*
G01X1693185Y-84452D02*
G01X1739283Y-38354D01*
G01X38354Y-1631520D02*
G01X816420Y-853454D01*
G01X923128Y-746746D02*
G01X1055420Y-614454D01*
G01X1320787Y-349087D02*
G01X1344946Y-324928D01*
G01X1511954Y-157920D02*
G01X1631520Y-38354D01*
G01X38354Y-1523757D02*
G01X138049Y-1424062D01*
G01X295962Y-1266149D02*
G01X708657Y-853454D01*
G01X815365Y-746746D02*
G01X953181Y-608930D01*
G01X1194065Y-368046D02*
G01X1194704Y-367407D01*
G01X1266905Y-295206D02*
G01X1293493Y-268618D01*
G01X1464618Y-97493D02*
G01X1523757Y-38354D01*
G01X38354Y-1415994D02*
G01X77574Y-1376774D01*
G01X248674Y-1205674D02*
G01X600894Y-853454D01*
G01X707602Y-746746D02*
G01X895840Y-558508D01*
G01X1106175Y-348173D02*
G01X1131446Y-322902D01*
G01X1264902Y-189446D02*
G01X1274265Y-180083D01*
G01X1376083Y-78265D02*
G01X1415994Y-38354D01*
G01X38354Y-1308231D02*
G01X58282Y-1288302D01*
G01X160202Y-1186383D02*
G01X169607Y-1176978D01*
G01X302878Y-1043707D02*
G01X493131Y-853454D01*
G01X599839Y-746746D02*
G01X841959Y-504626D01*
G01X1052293Y-294292D02*
G01X1057098Y-289487D01*
G01X1231487Y-115098D02*
G01X1308231Y-38354D01*
G01X38354Y-1200468D02*
G01X95195Y-1143627D01*
G01X269527Y-969295D02*
G01X385368Y-853454D01*
G01X492076Y-746746D02*
G01X788077Y-450744D01*
G01X1009494Y-229328D02*
G01X1020078Y-218743D01*
G01X1160743Y-78079D02*
G01X1200468Y-38354D01*
G01X38354Y-1092705D02*
G01X58129Y-1072930D01*
G01X198830Y-932229D02*
G01X211817Y-919242D01*
G01X384313Y-746746D02*
G01X734196Y-396863D01*
G01X994055Y-137004D02*
G01X1092705Y-38354D01*
G01X38354Y-984942D02*
G01X117117Y-906179D01*
G01X286471Y-736825D02*
G01X680314Y-342981D01*
G01X936650Y-86645D02*
G01X984942Y-38354D01*
G01X38354Y-877179D02*
G01X66714Y-848818D01*
G01X228718Y-686814D02*
G01X246116Y-669417D01*
G01X303317Y-612216D02*
G01X597655Y-317878D01*
G01X751878Y-163655D02*
G01X788658Y-126874D01*
G01X814874Y-100658D02*
G01X877179Y-38354D01*
G01X38354Y-769415D02*
G01X80452Y-727318D01*
G01X107217Y-700552D02*
G01X138352Y-669417D01*
G01X303317Y-504453D02*
G01X534652Y-273117D01*
G01X707117Y-100652D02*
G01X769415Y-38354D01*
G01X38354Y-661652D02*
G01X58214Y-641792D01*
G01X275692Y-424314D02*
G01X511151Y-188856D01*
G01X622856Y-77151D02*
G01X661652Y-38354D01*
G01X38354Y-553889D02*
G01X56683Y-535560D01*
G01X169460Y-422783D02*
G01X553889Y-38354D01*
G01X38354Y-446126D02*
G01X446126Y-38354D01*
G01X38354Y-338363D02*
G01X338363Y-38354D01*
G01X51824Y-217130D02*
G01X217130Y-51824D01*
G01X3216723Y-153406D02*
G01X3146594Y-83277D01*
G01X3261646Y-306092D02*
G01X2993908Y-38354D01*
G01X3261646Y-413855D02*
G01X2886145Y-38354D01*
G01X3261646Y-521618D02*
G01X2778382Y-38354D01*
G01X3261646Y-629381D02*
G01X2789354Y-157089D01*
G01X2708911Y-76646D02*
G01X2670619Y-38354D01*
G01X3261646Y-737144D02*
G01X2789354Y-264852D01*
G01X2601148Y-76646D02*
G01X2562856Y-38354D01*
G01X3261646Y-844907D02*
G01X2740092Y-323354D01*
G01X2542646Y-125908D02*
G01X2455093Y-38354D01*
G01X3261646Y-952671D02*
G01X2632329Y-323354D01*
G01X2542646Y-233671D02*
G01X2532993Y-224018D01*
G01X2387982Y-79007D02*
G01X2347329Y-38354D01*
G01X3261646Y-1060434D02*
G01X2493664Y-292451D01*
G01X2319549Y-118336D02*
G01X2239566Y-38354D01*
G01X3261646Y-1168197D02*
G01X2416713Y-323264D01*
G01X2284133Y-190683D02*
G01X2280692Y-187243D01*
G01X2170757Y-77308D02*
G01X2131803Y-38354D01*
G01X3261646Y-1275960D02*
G01X3228410Y-1242724D01*
G01X3122064Y-1136378D02*
G01X2302452Y-316766D01*
G01X2085724Y-100038D02*
G01X2024040Y-38354D01*
G01X3261646Y-1383723D02*
G01X3222894Y-1344971D01*
G01X3189997Y-1312074D02*
G01X3172901Y-1294978D01*
G01X3069810Y-1191887D02*
G01X2248571Y-370648D01*
G01X2040470Y-162546D02*
G01X1997726Y-119803D01*
G01X1984197Y-106274D02*
G01X1916277Y-38354D01*
G01X3261646Y-1491486D02*
G01X3211413Y-1441253D01*
G01X3093715Y-1323555D02*
G01X2194689Y-424529D01*
G01X2047029Y-276869D02*
G01X2017788Y-247628D01*
G01X1856372Y-86212D02*
G01X1808514Y-38354D01*
G01X3261646Y-1599249D02*
G01X3127828Y-1465431D01*
G01X3069537Y-1407140D02*
G01X2415409Y-753012D01*
G01X2282288Y-619891D02*
G01X2140808Y-478411D01*
G01X1993148Y-330751D02*
G01X1967906Y-305509D01*
G01X1798491Y-136094D02*
G01X1700751Y-38354D01*
G01X3261646Y-1707012D02*
G01X2609196Y-1054562D01*
G01X2516024Y-961390D02*
G01X2425554Y-870920D01*
G01X2164380Y-609746D02*
G01X2086926Y-532292D01*
G01X1939266Y-384632D02*
G01X1874635Y-320001D01*
G01X1783999Y-229365D02*
G01X1772110Y-217476D01*
G01X1632524Y-77890D02*
G01X1592988Y-38354D01*
G01X3261646Y-1814775D02*
G01X2517330Y-1070459D01*
G01X2298846Y-851975D02*
G01X2183325Y-736454D01*
G01X2056617Y-609746D02*
G01X2033045Y-586174D01*
G01X1885385Y-438514D02*
G01X1826060Y-379189D01*
G01X1739335Y-292464D02*
G01X1735646Y-288775D01*
G01X1561225Y-114354D02*
G01X1485225Y-38354D01*
G01X3261646Y-1922538D02*
G01X2959354Y-1620246D01*
G01X2806254Y-1467146D02*
G01X2438261Y-1099153D01*
G01X2298846Y-959738D02*
G01X2075562Y-736454D01*
G01X1831503Y-492396D02*
G01X1826060Y-486952D01*
G01X1723952Y-384844D02*
G01X1689354Y-350246D01*
G01X1527220Y-188113D02*
G01X1517435Y-178327D01*
G01X1417673Y-78565D02*
G01X1377462Y-38354D01*
G01X3261646Y-2030301D02*
G01X2959354Y-1728009D01*
G01X2514191Y-1282846D02*
G01X2425554Y-1194209D01*
G01X2277977Y-1046632D02*
G01X1972204Y-740859D01*
G01X1723952Y-492607D02*
G01X1689354Y-458009D01*
G01X1587246Y-355901D02*
G01X1499088Y-267743D01*
G01X1328257Y-96912D02*
G01X1269699Y-38354D01*
G01X3261646Y-2138064D02*
G01X2959354Y-1835772D01*
G01X2857246Y-1733664D02*
G01X2793854Y-1670272D01*
G01X2667146Y-1543564D02*
G01X2603754Y-1480172D01*
G01X2190642Y-1067060D02*
G01X1943354Y-819772D01*
G01X1587246Y-463664D02*
G01X1447054Y-323472D01*
G01X1280437Y-156856D02*
G01X1161936Y-38354D01*
G01X3261646Y-2245827D02*
G01X2959354Y-1943535D01*
G01X2857246Y-1841427D02*
G01X2793854Y-1778035D01*
G01X2667146Y-1651327D02*
G01X2603754Y-1587935D01*
G01X2082907Y-1067088D02*
G01X1943354Y-927535D01*
G01X1344946Y-329127D02*
G01X1257940Y-242121D01*
G01X1099879Y-84060D02*
G01X1054173Y-38354D01*
G01X3261646Y-2353591D02*
G01X2959354Y-2051298D01*
G01X2857246Y-1949190D02*
G01X2798058Y-1890002D01*
G01X2667146Y-1759091D02*
G01X2603754Y-1695698D01*
G01X1985002Y-1076946D02*
G01X1922926Y-1014871D01*
G01X1039471Y-131415D02*
G01X946410Y-38354D01*
G01X3261646Y-2461354D02*
G01X2959354Y-2159062D01*
G01X2857246Y-2056954D02*
G01X2746377Y-1946084D01*
G01X2664016Y-1863723D02*
G01X2563497Y-1763204D01*
G01X1882306Y-1082013D02*
G01X1809538Y-1009246D01*
G01X1168338Y-368046D02*
G01X1122017Y-321725D01*
G01X1020276Y-219983D02*
G01X1010897Y-210605D01*
G01X877395Y-77103D02*
G01X838646Y-38354D01*
G01X3261646Y-2569117D02*
G01X2959354Y-2266825D01*
G01X2857246Y-2164717D02*
G01X2509492Y-1816962D01*
G01X1826188Y-1133658D02*
G01X1707257Y-1014728D01*
G01X1524758Y-832228D02*
G01X1279311Y-586782D01*
G01X803070Y-110540D02*
G01X730883Y-38354D01*
G01X3261646Y-2676880D02*
G01X2959354Y-2374588D01*
G01X2857246Y-2272480D02*
G01X2413820Y-1829054D01*
G01X1772306Y-1187540D02*
G01X1609855Y-1025089D01*
G01X1524758Y-939991D02*
G01X1199220Y-614454D01*
G01X766071Y-181305D02*
G01X753263Y-168497D01*
G01X665503Y-80737D02*
G01X623120Y-38354D01*
G01X3261646Y-2784643D02*
G01X2959354Y-2482351D01*
G01X2857246Y-2380243D02*
G01X2306057Y-1829054D01*
G01X1718425Y-1241421D02*
G01X1466823Y-989820D01*
G01X1223749Y-746746D02*
G01X1091457Y-614454D01*
G01X570969Y-93966D02*
G01X515357Y-38354D01*
G01X3261646Y-2892406D02*
G01X3223377Y-2854137D01*
G01X3110651Y-2741411D02*
G01X2959354Y-2590114D01*
G01X2387066Y-2017826D02*
G01X2198294Y-1829054D01*
G01X1672135Y-1302895D02*
G01X1405330Y-1036090D01*
G01X1115986Y-746746D02*
G01X983694Y-614454D01*
G01X520629Y-151388D02*
G01X407594Y-38354D01*
G01X3261646Y-3000169D02*
G01X3231886Y-2970409D01*
G01X3164559Y-2903082D02*
G01X3159178Y-2897701D01*
G01X3067087Y-2805610D02*
G01X2959354Y-2697877D01*
G01X2806446Y-2544969D02*
G01X2379009Y-2117532D01*
G01X2365568Y-2104091D02*
G01X2090531Y-1829054D01*
G01X1671614Y-1410137D02*
G01X1412254Y-1150777D01*
G01X1262223Y-1000746D02*
G01X1114931Y-853454D01*
G01X1008223Y-746746D02*
G01X560663Y-299186D01*
G01X534814Y-273337D02*
G01X299831Y-38354D01*
G01X3261646Y-3107932D02*
G01X3202991Y-3049277D01*
G01X3085691Y-2931977D02*
G01X2959354Y-2805640D01*
G01X2806446Y-2652732D02*
G01X2011608Y-1857894D01*
G01X1671614Y-1517900D02*
G01X1412254Y-1258540D01*
G01X1131336Y-977622D02*
G01X1007168Y-853454D01*
G01X900460Y-746746D02*
G01X208565Y-54851D01*
G01X3261646Y-3215695D02*
G01X2916576Y-2870625D01*
G01X2800791Y-2754841D02*
G01X1957726Y-1911775D01*
G01X1671614Y-1625663D02*
G01X1412254Y-1366303D01*
G01X1305546Y-1259595D02*
G01X899405Y-853454D01*
G01X792697Y-746746D02*
G01X139396Y-93445D01*
G01X3261646Y-3323458D02*
G01X2862695Y-2924507D01*
G01X2790493Y-2852305D02*
G01X1903845Y-1965657D01*
G01X1671614Y-1733426D02*
G01X1412254Y-1474066D01*
G01X1305546Y-1367358D02*
G01X1196804Y-1258617D01*
G01X1116283Y-1178096D02*
G01X791642Y-853454D01*
G01X684934Y-746746D02*
G01X86682Y-148494D01*
G01X3261646Y-3431221D02*
G01X3242319Y-3411894D01*
G01X3081106Y-3250681D02*
G01X2808060Y-2977635D01*
G01X2737365Y-2906940D02*
G01X1811879Y-1981454D01*
G01X1654131Y-1823706D02*
G01X1412254Y-1581829D01*
G01X1305546Y-1475121D02*
G01X1173160Y-1342735D01*
G01X1072245Y-1241820D02*
G01X683879Y-853454D01*
G01X577171Y-746746D02*
G01X303317Y-472892D01*
G01X253208Y-422783D02*
G01X50773Y-220348D01*
G01X3261646Y-3538984D02*
G01X3245737Y-3523075D01*
G01X3223925Y-3501264D02*
G01X3197771Y-3475110D01*
G01X3017891Y-3295229D02*
G01X1710729Y-1988067D01*
G01X1546368Y-1823706D02*
G01X1397644Y-1674982D01*
G01X1305546Y-1582884D02*
G01X1221042Y-1498380D01*
G01X1014172Y-1291511D02*
G01X576116Y-853454D01*
G01X469408Y-746746D02*
G01X303317Y-580655D01*
G01X145445Y-422783D02*
G01X38354Y-315692D01*
G01X3261646Y-3646747D02*
G01X3248354Y-3633455D01*
G01X2991703Y-3376804D02*
G01X1540713Y-1925814D01*
G01X1438605Y-1823706D02*
G01X1340773Y-1725874D01*
G01X1237945Y-1623046D02*
G01X1164350Y-1549451D01*
G01X965149Y-1350250D02*
G01X468353Y-853454D01*
G01X361645Y-746746D02*
G01X280864Y-665965D01*
G01X60134Y-445236D02*
G01X38354Y-423455D01*
G01X3261646Y-3754510D02*
G01X3243251Y-3736115D01*
G01X3010885Y-3503749D02*
G01X1432950Y-1925814D01*
G01X1330842Y-1823706D02*
G01X1236890Y-1729754D01*
G01X1135405Y-1628270D02*
G01X1105757Y-1598621D01*
G01X939546Y-1432410D02*
G01X360590Y-853454D01*
G01X183983Y-676847D02*
G01X176553Y-669417D01*
G01X56683Y-549547D02*
G01X38354Y-531218D01*
G01X3261646Y-3862274D02*
G01X3154726Y-3755354D01*
G01X2991646Y-3592274D02*
G01X1325187Y-1925814D01*
G01X1223079Y-1823706D02*
G01X999826Y-1600454D01*
G01X897718Y-1498346D02*
G01X276468Y-877095D01*
G01X103083Y-703711D02*
G01X38354Y-638982D01*
G01X3254079Y-3962470D02*
G01X3046963Y-3755354D01*
G01X2991646Y-3700037D02*
G01X1217423Y-1925814D01*
G01X1115315Y-1823706D02*
G01X892063Y-1600454D01*
G01X789955Y-1498346D02*
G01X290032Y-998423D01*
G01X235677Y-944067D02*
G01X211053Y-919443D01*
G01X60657Y-769047D02*
G01X38354Y-746745D01*
G01X3222122Y-4038276D02*
G01X1252170Y-2068324D01*
G01X1164792Y-1980946D02*
G01X1109660Y-1925814D01*
G01X1007552Y-1823706D02*
G01X784300Y-1600454D01*
G01X677434Y-1493588D02*
G01X291217Y-1107371D01*
G01X126729Y-942883D02*
G01X38354Y-854508D01*
G01X3172666Y-4096583D02*
G01X1159137Y-2083054D01*
G01X1057029Y-1980946D02*
G01X1001897Y-1925814D01*
G01X899789Y-1823706D02*
G01X680329Y-1604246D01*
G01X605554Y-1529471D02*
G01X238657Y-1162573D01*
G01X71527Y-995443D02*
G01X38354Y-962271D01*
G01X3107060Y-4138740D02*
G01X1051374Y-2083054D01*
G01X949266Y-1980946D02*
G01X894134Y-1925814D01*
G01X795076Y-1826756D02*
G01X300869Y-1332549D01*
G01X155551Y-1187231D02*
G01X138569Y-1170249D01*
G01X63851Y-1095531D02*
G01X38354Y-1070034D01*
G01X3021332Y-4160775D02*
G01X2610279Y-3749722D01*
G01X2562178Y-3701621D02*
G01X943611Y-2083054D01*
G01X841503Y-1980946D02*
G01X809988Y-1949431D01*
G01X737787Y-1877230D02*
G01X261342Y-1400785D01*
G01X87315Y-1226758D02*
G01X38354Y-1177797D01*
G01X2914440Y-4161646D02*
G01X2568241Y-3815447D01*
G01X2460940Y-3708146D02*
G01X835848Y-2083054D01*
G01X682940Y-1930146D02*
G01X184141Y-1431347D01*
G01X56752Y-1303958D02*
G01X38354Y-1285560D01*
G01X2806677Y-4161646D02*
G01X2455285Y-3810254D01*
G01X2353177Y-3708146D02*
G01X728085Y-2083054D01*
G01X568728Y-1923697D02*
G01X38354Y-1393323D01*
G01X2698914Y-4161646D02*
G01X2347522Y-3810254D01*
G01X2245414Y-3708146D02*
G01X1998381Y-3461113D01*
G01X1961787Y-3424519D02*
G01X621317Y-2084049D01*
G01X595651Y-2058383D02*
G01X574633Y-2037365D01*
G01X502635Y-1965367D02*
G01X38354Y-1501086D01*
G01X2591151Y-4161646D02*
G01X2239759Y-3810254D01*
G01X2137651Y-3708146D02*
G01X1963846Y-3534341D01*
G01X1888559Y-3459054D02*
G01X138226Y-1708722D01*
G01X120078Y-1690574D02*
G01X38354Y-1608849D01*
G01X2483388Y-4161646D02*
G01X2131996Y-3810254D01*
G01X2029888Y-3708146D02*
G01X139954Y-1818212D01*
G01X2375625Y-4161646D02*
G01X2024233Y-3810254D01*
G01X1922125Y-3708146D02*
G01X139954Y-1925975D01*
G01X2267862Y-4161646D02*
G01X1916470Y-3810254D01*
G01X1814362Y-3708146D02*
G01X139954Y-2033738D01*
G01X2160099Y-4161646D02*
G01X1808707Y-3810254D01*
G01X1706599Y-3708146D02*
G01X647954Y-2649501D01*
G01X558241Y-2559789D02*
G01X401203Y-2402750D01*
G01X340450Y-2341997D02*
G01X139954Y-2141501D01*
G01X2052335Y-4161646D02*
G01X1700943Y-3810254D01*
G01X1598835Y-3708146D02*
G01X1054306Y-3163616D01*
G01X748338Y-2857649D02*
G01X647954Y-2757265D01*
G01X545846Y-2655157D02*
G01X393954Y-2503265D01*
G01X284868Y-2394179D02*
G01X139954Y-2249265D01*
G01X1944572Y-4161646D02*
G01X1593180Y-3810254D01*
G01X1491072Y-3708146D02*
G01X1054354Y-3271428D01*
G01X695022Y-2912096D02*
G01X647954Y-2865028D01*
G01X545846Y-2762920D02*
G01X393954Y-2611028D01*
G01X1836809Y-4161646D02*
G01X1485417Y-3810254D01*
G01X1383309Y-3708146D02*
G01X1054354Y-3379191D01*
G01X952246Y-3277083D02*
G01X647954Y-2972791D01*
G01X545846Y-2870683D02*
G01X393954Y-2718791D01*
G01X251206Y-2576043D02*
G01X38354Y-2363191D01*
G01X1729046Y-4161646D02*
G01X1377654Y-3810254D01*
G01X1256846Y-3689445D02*
G01X1060190Y-3492790D01*
G01X952246Y-3384846D02*
G01X647954Y-3080554D01*
G01X545846Y-2978446D02*
G01X393954Y-2826554D01*
G01X251206Y-2683806D02*
G01X38354Y-2470954D01*
G01X1621283Y-4161646D02*
G01X1269891Y-3810254D01*
G01X1188862Y-3729225D02*
G01X997502Y-3537865D01*
G01X545846Y-3086209D02*
G01X393954Y-2934317D01*
G01X251206Y-2791569D02*
G01X38354Y-2578717D01*
G01X1513520Y-4161646D02*
G01X926620Y-3574746D01*
G01X251206Y-2899332D02*
G01X38354Y-2686480D01*
G01X1405757Y-4161646D02*
G01X419354Y-3175243D01*
G01X251206Y-3007095D02*
G01X38354Y-2794243D01*
G01X1297994Y-4161646D02*
G01X419354Y-3283006D01*
G01X317246Y-3180898D02*
G01X38354Y-2902006D01*
G01X1190231Y-4161646D02*
G01X419354Y-3390769D01*
G01X317246Y-3288661D02*
G01X308204Y-3279620D01*
G01X273380Y-3244796D02*
G01X38354Y-3009769D01*
G01X1082468Y-4161646D02*
G01X431654Y-3510832D01*
G01X317246Y-3396424D02*
G01X308354Y-3387532D01*
G01X165468Y-3244646D02*
G01X38354Y-3117532D01*
G01X974705Y-4161646D02*
G01X385093Y-3572035D01*
G01X307212Y-3494154D02*
G01X299980Y-3486921D01*
G01X66079Y-3253020D02*
G01X38354Y-3225295D01*
G01X866942Y-4161646D02*
G01X305532Y-3600237D01*
G01X206763Y-3501468D02*
G01X206650Y-3501354D01*
G01X51646Y-3346350D02*
G01X38354Y-3333058D01*
G01X759179Y-4161646D02*
G01X290252Y-3692720D01*
G01X114280Y-3516748D02*
G01X98886Y-3501354D01*
G01X51646Y-3454114D02*
G01X38354Y-3440821D01*
G01X651415Y-4161646D02*
G01X233460Y-3743691D01*
G01X63309Y-3573540D02*
G01X38354Y-3548585D01*
G01X543652Y-4161646D02*
G01X124961Y-3742954D01*
G01X64046Y-3682039D02*
G01X38354Y-3656348D01*
G01X435889Y-4161646D02*
G01X38354Y-3764111D01*
G01X328126Y-4161646D02*
G01X38354Y-3871874D01*
G01X200849Y-4142131D02*
G01X57869Y-3999151D01*
G01X1783252Y-1823706D02*
G03X1778322Y-1802935I-58284J-2862D01*
G01Y-1332432D01*
G01X1927100Y-1183654D01*
G01X1997759D01*
G01X1998496Y-1184123D01*
G03X1973646Y-1231900I33504J-47777D01*
G03X2032000Y-1290254I58354J0D01*
G03X2060261Y-1282954I0J58354D01*
G01X2181539D01*
G03X2209800Y-1290254I28261J51054D01*
G03X2268154Y-1231900I0J58354D01*
G03X2262953Y-1207817I-58354J0D01*
G02X2298846Y-1225639I-75752J-197624D01*
G01Y-1296200D01*
G03X2317402Y-1340998I63354J0D01*
G01X2367402Y-1390998D01*
G03X2412200Y-1409554I44798J44798D01*
G01X2494346D01*
G01Y-1409700D01*
G03X2501646Y-1437961I58354J0D01*
G01Y-1680653D01*
G01X2455353Y-1726946D01*
G01X2019300D01*
G03X1983199Y-1741899I0J-51054D01*
G01X1953758Y-1771340D01*
G03X1905000Y-1745046I-48758J-32060D01*
G03X1848916Y-1787283I0J-58354D01*
G01X1812493Y-1823706D01*
G01X1783252D01*
G01X2421479Y-1726946D02*
G01X2501646Y-1646779D01*
G01X2313716Y-1726946D02*
G01X2501646Y-1539016D01*
G01X2205953Y-1726946D02*
G01X2499413Y-1433485D01*
G01X2098190Y-1726946D02*
G01X2415582Y-1409554D01*
G01X1950504Y-1766868D02*
G01X2346888Y-1370484D01*
G01X1785903Y-1823706D02*
G01X2300232Y-1309378D01*
G01X1778322Y-1723524D02*
G01X2211621Y-1290226D01*
G01X2268126Y-1233721D02*
G01X2284407Y-1217440D01*
G01X1778322Y-1615761D02*
G01X2111129Y-1282954D01*
G01X1778322Y-1507998D02*
G01X2003500Y-1282821D01*
G01X1778322Y-1400235D02*
G01X1994903Y-1183654D01*
G01X2501646Y-1485827D02*
G01X2425373Y-1409554D01*
G01X2298846Y-1283027D02*
G01X2265408Y-1249590D01*
G01X2501646Y-1593590D02*
G01X2196856Y-1288800D01*
G01X2491296Y-1691003D02*
G01X2083246Y-1282954D01*
G01X1990834Y-1190541D02*
G01X1983946Y-1183654D01*
G01X2419475Y-1726946D02*
G01X1901642Y-1209112D01*
G01X2311712Y-1726946D02*
G01X1847760Y-1262994D01*
G01X2203949Y-1726946D02*
G01X1793879Y-1316875D01*
G01X2096186Y-1726946D02*
G01X1778322Y-1409082D01*
G01X1994726Y-1733249D02*
G01X1778322Y-1516845D01*
G01X1899063Y-1745349D02*
G01X1778322Y-1624608D01*
G01X1841075Y-1795124D02*
G01X1778322Y-1732371D01*
G01X180000Y-1054100D02*
G01X180000Y-943229D01*
G01X180000Y-1054100D02*
G01X180000Y-1164971D01*
G01X180000Y-1054100D02*
G01X290871Y-1054100D01*
G01X180000Y-1054100D02*
G01X69129Y-1054100D01*
G01X180000Y-3627000D02*
G01X180000Y-3742908D01*
G01X180000Y-3627000D02*
G01X295908Y-3627000D01*
G01X180000Y-3627000D02*
G01X64092Y-3627000D01*
G01X2666000Y-200000D02*
G01X2776908Y-200000D01*
G01X2666000Y-200000D02*
G01X2555092Y-200000D01*
G01X2666000Y-200000D02*
G01X2666000Y-310908D01*
G01X2666000Y-200000D02*
G01X2666000Y-89092D01*
G01X3120000Y-3627000D02*
G01X3120000Y-3742908D01*
G01X3120000Y-3627000D02*
G01X3004092Y-3627000D01*
G01X3120000Y-3627000D02*
G01X3235908Y-3627000D01*
G04 Copper End*

G04 Tear Start*
G36*
G01X295672Y-815100D02*
G01X295672Y-785100D01*
G01X290760Y-784942D01*
G01X287770Y-784666D01*
G01X284990Y-784258D01*
G01X282407Y-783723D01*
G01X280009Y-783065D01*
G01X277780Y-782289D01*
G01X275707Y-781399D01*
G01X273778Y-780400D01*
G01X271977Y-779296D01*
G01X270292Y-778092D01*
G01X268709Y-776792D01*
G01X267215Y-775401D01*
G01X265795Y-773922D01*
G01X263775Y-771551D01*
G01X261216Y-768126D01*
G01X253423Y-756390D01*
G01X248787Y-749920D01*
G01X245173Y-745466D01*
G01X241013Y-740940D01*
G01X237469Y-737519D01*
G01X236198Y-736378D01*
G01Y-863822D01*
G01X239875Y-860399D01*
G01X243168Y-856991D01*
G01X247042Y-852496D01*
G01X251205Y-847007D01*
G01X259338Y-834819D01*
G01X262482Y-830326D01*
G01X264436Y-827839D01*
G01X266496Y-825528D01*
G01X267952Y-824093D01*
G01X269489Y-822746D01*
G01X271121Y-821494D01*
G01X272862Y-820339D01*
G01X274725Y-819287D01*
G01X276725Y-818342D01*
G01X278874Y-817509D01*
G01X281186Y-816791D01*
G01X283675Y-816194D01*
G01X286354Y-815722D01*
G01X289238Y-815380D01*
G01X293976Y-815118D01*
G01X295672Y-815100D01*
G37*
G36*
G01X2288700Y-240356D02*
G01X2306661Y-258317D01*
G01X2307892Y-257160D01*
G01X2309155Y-256118D01*
G01X2310450Y-255188D01*
G01X2311774Y-254368D01*
G01X2313128Y-253652D01*
G01X2314510Y-253039D01*
G01X2315921Y-252525D01*
G01X2317358Y-252107D01*
G01X2318822Y-251782D01*
G01X2320312Y-251547D01*
G01X2321826Y-251399D01*
G01X2323364Y-251334D01*
G01X2326510Y-251442D01*
G01X2329743Y-251846D01*
G01X2333057Y-252521D01*
G01X2336445Y-253442D01*
G01X2341653Y-255228D01*
G01X2348801Y-258235D01*
G01X2363607Y-265634D01*
G01X2384459Y-276299D01*
G01X2392005Y-279594D01*
G01X2397603Y-281662D01*
G01X2401295Y-282801D01*
G01X2404946Y-283720D01*
G01X2408551Y-284393D01*
G01X2412105Y-284794D01*
G01X2415599Y-284899D01*
G01X2417323Y-284833D01*
G01X2327167Y-194677D01*
G01X2326666Y-199399D01*
G01X2326281Y-201544D01*
G01X2325810Y-203557D01*
G01X2325255Y-205446D01*
G01X2324620Y-207219D01*
G01X2323906Y-208885D01*
G01X2323118Y-210452D01*
G01X2322256Y-211929D01*
G01X2321325Y-213324D01*
G01X2320327Y-214646D01*
G01X2319264Y-215903D01*
G01X2316957Y-218254D01*
G01X2314425Y-220447D01*
G01X2310253Y-223585D01*
G01X2299158Y-231385D01*
G01X2293998Y-235481D01*
G01X2290477Y-238630D01*
G01X2288700Y-240356D01*
G37*
G36*
G01X2086242Y-291898D02*
G01X2104203Y-309858D01*
G01X2106790Y-307466D01*
G01X2109697Y-305130D01*
G01X2112885Y-302861D01*
G01X2118116Y-299611D01*
G01X2123776Y-296578D01*
G01X2129740Y-293802D01*
G01X2135885Y-291323D01*
G01X2142088Y-289180D01*
G01X2148224Y-287412D01*
G01X2154170Y-286060D01*
G01X2159803Y-285161D01*
G01X2163323Y-284833D01*
G01X2073167Y-194677D01*
G01X2073101Y-197485D01*
G01X2073239Y-200388D01*
G01X2073562Y-203378D01*
G01X2074358Y-208008D01*
G01X2075908Y-214410D01*
G01X2079002Y-224374D01*
G01X2087943Y-249869D01*
G01X2090371Y-258119D01*
G01X2091497Y-262919D01*
G01X2092304Y-267571D01*
G01X2092635Y-270578D01*
G01X2092782Y-273501D01*
G01X2092726Y-276329D01*
G01X2092451Y-279057D01*
G01X2091939Y-281676D01*
G01X2091589Y-282942D01*
G01X2091173Y-284178D01*
G01X2090689Y-285383D01*
G01X2090136Y-286555D01*
G01X2089510Y-287694D01*
G01X2088810Y-288799D01*
G01X2088033Y-289868D01*
G01X2087178Y-290902D01*
G01X2086242Y-291898D01*
G37*
G36*
G01X1813192Y-272848D02*
G01X1831153Y-290808D01*
G01X1834896Y-287299D01*
G01X1837294Y-285310D01*
G01X1839624Y-283584D01*
G01X1841893Y-282108D01*
G01X1844109Y-280868D01*
G01X1846278Y-279848D01*
G01X1848409Y-279036D01*
G01X1850509Y-278416D01*
G01X1852585Y-277975D01*
G01X1854646Y-277699D01*
G01X1856697Y-277574D01*
G01X1858748Y-277585D01*
G01X1860806Y-277718D01*
G01X1863921Y-278117D01*
G01X1868167Y-278944D01*
G01X1882117Y-282384D01*
G01X1888745Y-283716D01*
G01X1894512Y-284516D01*
G01X1899146Y-284887D01*
G01X1904075Y-285009D01*
G01X1909323Y-284833D01*
G01X1819167Y-194677D01*
G01X1818992Y-199925D01*
G01X1819113Y-204854D01*
G01X1819484Y-209489D01*
G01X1820284Y-215255D01*
G01X1821616Y-221883D01*
G01X1825056Y-235833D01*
G01X1825883Y-240079D01*
G01X1826282Y-243194D01*
G01X1826415Y-245252D01*
G01X1826426Y-247303D01*
G01X1826301Y-249355D01*
G01X1826025Y-251415D01*
G01X1825584Y-253491D01*
G01X1824965Y-255591D01*
G01X1824152Y-257722D01*
G01X1823132Y-259891D01*
G01X1821892Y-262107D01*
G01X1820416Y-264376D01*
G01X1818690Y-266706D01*
G01X1816701Y-269104D01*
G01X1813192Y-272848D01*
G37*
G36*
G01X1625600Y-315722D02*
G01X1651000Y-315722D01*
G01X1651135Y-313515D01*
G01X1651532Y-311341D01*
G01X1652176Y-309198D01*
G01X1653053Y-307085D01*
G01X1654148Y-305003D01*
G01X1655447Y-302948D01*
G01X1656935Y-300921D01*
G01X1658599Y-298921D01*
G01X1662394Y-294995D01*
G01X1666718Y-291164D01*
G01X1673944Y-285574D01*
G01X1697327Y-269688D01*
G01X1704398Y-264596D01*
G01X1708575Y-261235D01*
G01X1712190Y-257891D01*
G01X1713750Y-256222D01*
G01X1586250D01*
G01X1591767Y-262135D01*
G01X1605741Y-275469D01*
G01X1611165Y-280851D01*
G01X1613988Y-283971D01*
G01X1615950Y-286374D01*
G01X1617766Y-288857D01*
G01X1619424Y-291443D01*
G01X1620913Y-294154D01*
G01X1621804Y-296042D01*
G01X1622611Y-298004D01*
G01X1623329Y-300045D01*
G01X1623956Y-302172D01*
G01X1624487Y-304393D01*
G01X1625097Y-307914D01*
G01X1625472Y-311682D01*
G01X1625600Y-315722D01*
G37*
G36*
G01X1383300Y-315722D02*
G01X1408700Y-315722D01*
G01X1408866Y-310594D01*
G01X1409155Y-307491D01*
G01X1409583Y-304623D01*
G01X1410143Y-301975D01*
G01X1410833Y-299532D01*
G01X1411646Y-297277D01*
G01X1412578Y-295195D01*
G01X1413625Y-293272D01*
G01X1414781Y-291493D01*
G01X1416043Y-289841D01*
G01X1417405Y-288301D01*
G01X1418863Y-286859D01*
G01X1420412Y-285498D01*
G01X1422897Y-283577D01*
G01X1426484Y-281160D01*
G01X1438781Y-273728D01*
G01X1444410Y-269983D01*
G01X1449052Y-266471D01*
G01X1452592Y-263456D01*
G01X1456163Y-260057D01*
G01X1459750Y-256222D01*
G01X1332250D01*
G01X1335837Y-260057D01*
G01X1339408Y-263456D01*
G01X1342948Y-266471D01*
G01X1347590Y-269983D01*
G01X1353219Y-273728D01*
G01X1365516Y-281160D01*
G01X1369103Y-283577D01*
G01X1371588Y-285498D01*
G01X1373137Y-286859D01*
G01X1374595Y-288301D01*
G01X1375957Y-289841D01*
G01X1377219Y-291493D01*
G01X1378375Y-293272D01*
G01X1379422Y-295195D01*
G01X1380354Y-297277D01*
G01X1381167Y-299532D01*
G01X1381857Y-301975D01*
G01X1382417Y-304623D01*
G01X1382845Y-307491D01*
G01X1383134Y-310594D01*
G01X1383300Y-315722D01*
G37*
G36*
G01X1193597Y-312059D02*
G01X1211557Y-294099D01*
G01X1210585Y-293064D01*
G01X1209699Y-291993D01*
G01X1208898Y-290887D01*
G01X1208178Y-289746D01*
G01X1207537Y-288572D01*
G01X1206974Y-287365D01*
G01X1206485Y-286127D01*
G01X1206069Y-284858D01*
G01X1205723Y-283560D01*
G01X1205445Y-282233D01*
G01X1205082Y-279496D01*
G01X1204963Y-276657D01*
G01X1205069Y-273722D01*
G01X1205382Y-270699D01*
G01X1205882Y-267597D01*
G01X1206943Y-262810D01*
G01X1208843Y-256219D01*
G01X1213081Y-244285D01*
G01X1221628Y-221774D01*
G01X1224279Y-213355D01*
G01X1225505Y-208449D01*
G01X1226381Y-203684D01*
G01X1226740Y-200597D01*
G01X1226896Y-197593D01*
G01X1226833Y-194677D01*
G01X1136677Y-284833D01*
G01X1140113Y-285184D01*
G01X1143719Y-285806D01*
G01X1147463Y-286679D01*
G01X1153263Y-288417D01*
G01X1159187Y-290611D01*
G01X1165122Y-293196D01*
G01X1170958Y-296106D01*
G01X1176582Y-299275D01*
G01X1181884Y-302639D01*
G01X1186752Y-306131D01*
G01X1191073Y-309686D01*
G01X1193597Y-312059D01*
G37*
G36*
G01X959748Y-291908D02*
G01X977708Y-273948D01*
G01X976461Y-272539D01*
G01X975350Y-270959D01*
G01X974370Y-269215D01*
G01X973513Y-267319D01*
G01X972774Y-265281D01*
G01X972144Y-263112D01*
G01X971190Y-258421D01*
G01X970598Y-253329D01*
G01X970316Y-247920D01*
G01X970355Y-239392D01*
G01X972143Y-213458D01*
G01X972905Y-200885D01*
G01X972917Y-196610D01*
G01X972833Y-194677D01*
G01X882677Y-284833D01*
G01X887773Y-285011D01*
G01X892575Y-284917D01*
G01X898560Y-284444D01*
G01X904117Y-283672D01*
G01X912977Y-281918D01*
G01X924231Y-279508D01*
G01X927397Y-279023D01*
G01X930506Y-278725D01*
G01X932559Y-278654D01*
G01X934603Y-278699D01*
G01X936647Y-278875D01*
G01X938696Y-279195D01*
G01X940758Y-279670D01*
G01X942839Y-280316D01*
G01X944946Y-281145D01*
G01X947085Y-282170D01*
G01X949265Y-283405D01*
G01X951491Y-284862D01*
G01X953771Y-286555D01*
G01X956110Y-288498D01*
G01X959748Y-291908D01*
G37*
G36*
G01X694615Y-303041D02*
G01X737041Y-260615D01*
G01X733881Y-257181D01*
G01X731145Y-253646D01*
G01X728799Y-250013D01*
G01X726810Y-246282D01*
G01X725146Y-242456D01*
G01X723773Y-238538D01*
G01X722659Y-234528D01*
G01X721771Y-230429D01*
G01X720790Y-224119D01*
G01X719815Y-213185D01*
G01X718833Y-194677D01*
G01X628677Y-284833D01*
G01X653806Y-286321D01*
G01X660244Y-287076D01*
G01X666490Y-288189D01*
G01X670544Y-289186D01*
G01X674508Y-290425D01*
G01X678381Y-291939D01*
G01X682159Y-293762D01*
G01X685842Y-295925D01*
G01X689426Y-298462D01*
G01X692910Y-301406D01*
G01X694615Y-303041D01*
G37*
G36*
G01X1031896Y-1337743D02*
G01X1049857Y-1355704D01*
G01X1053775Y-1351410D01*
G01X1054998Y-1350191D01*
G01X1056299Y-1349143D01*
G01X1057750Y-1348307D01*
G01X1059420Y-1347723D01*
G01X1061382Y-1347431D01*
G01X1040169Y-1326218D01*
G01X1039877Y-1328180D01*
G01X1039293Y-1329850D01*
G01X1038457Y-1331301D01*
G01X1037409Y-1332602D01*
G01X1036190Y-1333825D01*
G01X1031896Y-1337743D01*
G37*
G36*
G01X1119272Y-1237667D02*
G01X1137233Y-1255628D01*
G01X1141151Y-1251334D01*
G01X1142374Y-1250115D01*
G01X1143675Y-1249067D01*
G01X1145126Y-1248231D01*
G01X1146796Y-1247647D01*
G01X1148758Y-1247355D01*
G01X1127545Y-1226142D01*
G01X1127253Y-1228104D01*
G01X1126669Y-1229774D01*
G01X1125833Y-1231225D01*
G01X1124785Y-1232526D01*
G01X1123566Y-1233749D01*
G01X1119272Y-1237667D01*
G37*
G36*
G01X1003300Y-1445971D02*
G01X977900Y-1445971D01*
G01X978166Y-1451778D01*
G01X978163Y-1453505D01*
G01X977983Y-1455166D01*
G01X977549Y-1456782D01*
G01X976781Y-1458377D01*
G01X975600Y-1459971D01*
G01X1005600D01*
G01X1004419Y-1458377D01*
G01X1003651Y-1456782D01*
G01X1003217Y-1455166D01*
G01X1003037Y-1453505D01*
G01X1003034Y-1451778D01*
G01X1003300Y-1445971D01*
G37*
G36*
G01X1107734Y-1462927D02*
G01X1089773Y-1444966D01*
G01X1085855Y-1449260D01*
G01X1084632Y-1450479D01*
G01X1083331Y-1451527D01*
G01X1081880Y-1452363D01*
G01X1080210Y-1452947D01*
G01X1078248Y-1453239D01*
G01X1099461Y-1474452D01*
G01X1099753Y-1472490D01*
G01X1100337Y-1470820D01*
G01X1101173Y-1469369D01*
G01X1102221Y-1468068D01*
G01X1103440Y-1466845D01*
G01X1107734Y-1462927D01*
G37*
G36*
G01X1140166Y-1483473D02*
G01X1158127Y-1501434D01*
G01X1162045Y-1497140D01*
G01X1163268Y-1495921D01*
G01X1164569Y-1494873D01*
G01X1166020Y-1494037D01*
G01X1167690Y-1493453D01*
G01X1169652Y-1493161D01*
G01X1148439Y-1471948D01*
G01X1148147Y-1473910D01*
G01X1147563Y-1475580D01*
G01X1146727Y-1477031D01*
G01X1145679Y-1478332D01*
G01X1144460Y-1479555D01*
G01X1140166Y-1483473D01*
G37*
G36*
G01X1841500Y-887171D02*
G01X1816100Y-887171D01*
G01X1816366Y-892978D01*
G01X1816363Y-894705D01*
G01X1816183Y-896366D01*
G01X1815749Y-897982D01*
G01X1814981Y-899577D01*
G01X1813800Y-901171D01*
G01X1843800D01*
G01X1842619Y-899577D01*
G01X1841851Y-897982D01*
G01X1841417Y-896366D01*
G01X1841237Y-894705D01*
G01X1841234Y-892978D01*
G01X1841500Y-887171D01*
G37*
G36*
G01X1905000Y-937971D02*
G01X1879600Y-937971D01*
G01X1879866Y-943778D01*
G01X1879863Y-945505D01*
G01X1879683Y-947166D01*
G01X1879249Y-948782D01*
G01X1878481Y-950377D01*
G01X1877300Y-951971D01*
G01X1907300D01*
G01X1906119Y-950377D01*
G01X1905351Y-948782D01*
G01X1904917Y-947166D01*
G01X1904737Y-945505D01*
G01X1904734Y-943778D01*
G01X1905000Y-937971D01*
G37*
G36*
G01X2059229Y-1244600D02*
G01X2059229Y-1219200D01*
G01X2053422Y-1219466D01*
G01X2051695Y-1219463D01*
G01X2050034Y-1219283D01*
G01X2048418Y-1218849D01*
G01X2046823Y-1218081D01*
G01X2045229Y-1216900D01*
G01Y-1246900D01*
G01X2046823Y-1245719D01*
G01X2048418Y-1244951D01*
G01X2050034Y-1244517D01*
G01X2051695Y-1244337D01*
G01X2053422Y-1244334D01*
G01X2059229Y-1244600D01*
G37*
G36*
G01X2182571Y-1219200D02*
G01X2182571Y-1244600D01*
G01X2188378Y-1244334D01*
G01X2190105Y-1244337D01*
G01X2191766Y-1244517D01*
G01X2193382Y-1244951D01*
G01X2194977Y-1245719D01*
G01X2196571Y-1246900D01*
G01Y-1216900D01*
G01X2194977Y-1218081D01*
G01X2193382Y-1218849D01*
G01X2191766Y-1219283D01*
G01X2190105Y-1219463D01*
G01X2188378Y-1219466D01*
G01X2182571Y-1219200D01*
G37*
G36*
G01X687629Y-1562100D02*
G01X687629Y-1536700D01*
G01X681822Y-1536966D01*
G01X680095Y-1536963D01*
G01X678434Y-1536783D01*
G01X676818Y-1536349D01*
G01X675223Y-1535581D01*
G01X673629Y-1534400D01*
G01Y-1564400D01*
G01X675223Y-1563219D01*
G01X676818Y-1562451D01*
G01X678434Y-1562017D01*
G01X680095Y-1561837D01*
G01X681822Y-1561834D01*
G01X687629Y-1562100D01*
G37*
G36*
G01X1876766Y-1813673D02*
G01X1894727Y-1831634D01*
G01X1898645Y-1827340D01*
G01X1899868Y-1826121D01*
G01X1901169Y-1825073D01*
G01X1902620Y-1824237D01*
G01X1904290Y-1823653D01*
G01X1906252Y-1823361D01*
G01X1885039Y-1802148D01*
G01X1884747Y-1804110D01*
G01X1884163Y-1805780D01*
G01X1883327Y-1807231D01*
G01X1882279Y-1808532D01*
G01X1881060Y-1809755D01*
G01X1876766Y-1813673D01*
G37*
G36*
G01X1729029Y-1943100D02*
G01X1729029Y-1917700D01*
G01X1723222Y-1917966D01*
G01X1721495Y-1917963D01*
G01X1719834Y-1917783D01*
G01X1718218Y-1917349D01*
G01X1716623Y-1916581D01*
G01X1715029Y-1915400D01*
G01Y-1945400D01*
G01X1716623Y-1944219D01*
G01X1718218Y-1943451D01*
G01X1719834Y-1943017D01*
G01X1721495Y-1942837D01*
G01X1723222Y-1942834D01*
G01X1729029Y-1943100D01*
G37*
G36*
G01X1195629Y-1691400D02*
G01X1195629Y-1661400D01*
G01X1193233Y-1661590D01*
G01X1191226Y-1662051D01*
G01X1187972Y-1663136D01*
G01X1186520Y-1663435D01*
G01X1185047Y-1663353D01*
G01X1183451Y-1662729D01*
G01X1181629Y-1661400D01*
G01Y-1691400D01*
G01X1183451Y-1690071D01*
G01X1185047Y-1689447D01*
G01X1186520Y-1689365D01*
G01X1187972Y-1689664D01*
G01X1191226Y-1690749D01*
G01X1193233Y-1691210D01*
G01X1195629Y-1691400D01*
G37*
G36*
G01X1179007Y-1005393D02*
G01X1157793Y-1026607D01*
G01X1159087Y-1027426D01*
G01X1160703Y-1027823D01*
G01X1162493Y-1027959D01*
G01X1166000Y-1028078D01*
G01X1167420Y-1028380D01*
G01X1168419Y-1029057D01*
G01X1168849Y-1030266D01*
G01X1195366Y-1003749D01*
G01X1193424Y-1003873D01*
G01X1191262Y-1004357D01*
G01X1186661Y-1005734D01*
G01X1184412Y-1006289D01*
G01X1182323Y-1006529D01*
G01X1180489Y-1006287D01*
G01X1179007Y-1005393D01*
G37*
G36*
G01X1195893Y-1064707D02*
G01X1217107Y-1043493D01*
G01X1216213Y-1042011D01*
G01X1215971Y-1040177D01*
G01X1216211Y-1038088D01*
G01X1216766Y-1035839D01*
G01X1218143Y-1031238D01*
G01X1218627Y-1029076D01*
G01X1218751Y-1027134D01*
G01X1192234Y-1053651D01*
G01X1194120Y-1055080D01*
G01X1194509Y-1058192D01*
G01X1194677Y-1061797D01*
G01X1195893Y-1064707D01*
G37*
G36*
G01X1953971Y-3746500D02*
G01X1953971Y-3771900D01*
G01X1959778Y-3771634D01*
G01X1961505Y-3771637D01*
G01X1963166Y-3771817D01*
G01X1964782Y-3772251D01*
G01X1966377Y-3773019D01*
G01X1967971Y-3774200D01*
G01Y-3744200D01*
G01X1966377Y-3745381D01*
G01X1964782Y-3746149D01*
G01X1963166Y-3746583D01*
G01X1961505Y-3746763D01*
G01X1959778Y-3746766D01*
G01X1953971Y-3746500D01*
G37*
G36*
G01X2008429Y-3771900D02*
G01X2008429Y-3746500D01*
G01X2002622Y-3746766D01*
G01X2000895Y-3746763D01*
G01X1999234Y-3746583D01*
G01X1997618Y-3746149D01*
G01X1996023Y-3745381D01*
G01X1994429Y-3744200D01*
G01Y-3774200D01*
G01X1996023Y-3773019D01*
G01X1997618Y-3772251D01*
G01X1999234Y-3771817D01*
G01X2000895Y-3771637D01*
G01X2002622Y-3771634D01*
G01X2008429Y-3771900D01*
G37*
G36*
G01X2525471Y-3746500D02*
G01X2525471Y-3771900D01*
G01X2531278Y-3771634D01*
G01X2533005Y-3771637D01*
G01X2534666Y-3771817D01*
G01X2536282Y-3772251D01*
G01X2537877Y-3773019D01*
G01X2539471Y-3774200D01*
G01Y-3744200D01*
G01X2537877Y-3745381D01*
G01X2536282Y-3746149D01*
G01X2534666Y-3746583D01*
G01X2533005Y-3746763D01*
G01X2531278Y-3746766D01*
G01X2525471Y-3746500D01*
G37*
G36*
G01X1588512Y-950979D02*
G01X1563112Y-950979D01*
G01X1563085Y-956689D01*
G01X1562924Y-958476D01*
G01X1562598Y-960201D01*
G01X1562056Y-961861D01*
G01X1561243Y-963455D01*
G01X1560108Y-964979D01*
G01X1590108D01*
G01X1588882Y-963315D01*
G01X1588158Y-961720D01*
G01X1587831Y-960148D01*
G01X1587798Y-958551D01*
G01X1588194Y-955095D01*
G01X1588415Y-953143D01*
G01X1588512Y-950979D01*
G37*
G36*
G01X1638499Y-899871D02*
G01X1613099Y-899871D01*
G01X1613282Y-905650D01*
G01X1613234Y-907395D01*
G01X1613014Y-909074D01*
G01X1612548Y-910702D01*
G01X1611768Y-912296D01*
G01X1610600Y-913871D01*
G01X1640600D01*
G01X1639407Y-912257D01*
G01X1638651Y-910663D01*
G01X1638247Y-909059D01*
G01X1638109Y-907416D01*
G01X1638151Y-905705D01*
G01X1638499Y-899871D01*
G37*
G36*
G01X1689100Y-937971D02*
G01X1663700Y-937971D01*
G01X1663966Y-943778D01*
G01X1663963Y-945505D01*
G01X1663783Y-947166D01*
G01X1663349Y-948782D01*
G01X1662581Y-950377D01*
G01X1661400Y-951971D01*
G01X1691400D01*
G01X1690219Y-950377D01*
G01X1689451Y-948782D01*
G01X1689017Y-947166D01*
G01X1688837Y-945505D01*
G01X1688834Y-943778D01*
G01X1689100Y-937971D01*
G37*
G36*
G01X763532Y-2944029D02*
G01X781493Y-2926068D01*
G01X777199Y-2922150D01*
G01X775980Y-2920927D01*
G01X774932Y-2919626D01*
G01X774096Y-2918175D01*
G01X773513Y-2916505D01*
G01X773220Y-2914543D01*
G01X752007Y-2935756D01*
G01X753969Y-2936048D01*
G01X755639Y-2936632D01*
G01X757090Y-2937468D01*
G01X758391Y-2938516D01*
G01X759614Y-2939735D01*
G01X763532Y-2944029D01*
G37*
G36*
G01X1016000Y-3452571D02*
G01X990600Y-3452571D01*
G01X990866Y-3458378D01*
G01X990863Y-3460105D01*
G01X990683Y-3461766D01*
G01X990249Y-3463382D01*
G01X989481Y-3464977D01*
G01X988300Y-3466571D01*
G01X1018300D01*
G01X1017119Y-3464977D01*
G01X1016351Y-3463382D01*
G01X1015917Y-3461766D01*
G01X1015737Y-3460105D01*
G01X1015734Y-3458378D01*
G01X1016000Y-3452571D01*
G37*
G36*
G01X584200Y-2630729D02*
G01X609600Y-2630729D01*
G01X609334Y-2624922D01*
G01X609337Y-2623195D01*
G01X609517Y-2621534D01*
G01X609951Y-2619918D01*
G01X610719Y-2618323D01*
G01X611900Y-2616729D01*
G01X581900D01*
G01X583081Y-2618323D01*
G01X583849Y-2619918D01*
G01X584283Y-2621534D01*
G01X584463Y-2623195D01*
G01X584466Y-2624922D01*
G01X584200Y-2630729D01*
G37*
G36*
G01X929527Y-3489666D02*
G01X911566Y-3507627D01*
G01X915860Y-3511545D01*
G01X917079Y-3512768D01*
G01X918127Y-3514069D01*
G01X918963Y-3515520D01*
G01X919547Y-3517190D01*
G01X919839Y-3519152D01*
G01X941052Y-3497939D01*
G01X939090Y-3497647D01*
G01X937420Y-3497063D01*
G01X935969Y-3496227D01*
G01X934668Y-3495179D01*
G01X933445Y-3493960D01*
G01X929527Y-3489666D01*
G37*
G36*
G01X330200Y-2427529D02*
G01X355600Y-2427529D01*
G01X355334Y-2421722D01*
G01X355337Y-2419995D01*
G01X355517Y-2418334D01*
G01X355951Y-2416718D01*
G01X356719Y-2415123D01*
G01X357900Y-2413529D01*
G01X327900D01*
G01X329081Y-2415123D01*
G01X329849Y-2416718D01*
G01X330283Y-2418334D01*
G01X330463Y-2419995D01*
G01X330466Y-2421722D01*
G01X330200Y-2427529D01*
G37*
G36*
G01X866027Y-3515066D02*
G01X848066Y-3533027D01*
G01X852360Y-3536945D01*
G01X853579Y-3538168D01*
G01X854627Y-3539469D01*
G01X855463Y-3540920D01*
G01X856047Y-3542590D01*
G01X856339Y-3544552D01*
G01X877552Y-3523339D01*
G01X875590Y-3523047D01*
G01X873920Y-3522463D01*
G01X872469Y-3521627D01*
G01X871168Y-3520579D01*
G01X869945Y-3519360D01*
G01X866027Y-3515066D01*
G37*
G36*
G01X381000Y-3476911D02*
G01X355600Y-3476911D01*
G01X355484Y-3479027D01*
G01X355149Y-3481329D01*
G01X354613Y-3483734D01*
G01X353895Y-3486160D01*
G01X353011Y-3488523D01*
G01X351980Y-3490742D01*
G01X350820Y-3492732D01*
G01X349550Y-3494411D01*
G01X387050D01*
G01X385780Y-3492732D01*
G01X384620Y-3490742D01*
G01X383589Y-3488523D01*
G01X382705Y-3486160D01*
G01X381987Y-3483734D01*
G01X381451Y-3481329D01*
G01X381116Y-3479027D01*
G01X381000Y-3476911D01*
G37*
G36*
G01X76200Y-1767129D02*
G01X101600Y-1767129D01*
G01X101334Y-1761322D01*
G01X101337Y-1759595D01*
G01X101517Y-1757934D01*
G01X101951Y-1756318D01*
G01X102719Y-1754723D01*
G01X103900Y-1753129D01*
G01X73900D01*
G01X75081Y-1754723D01*
G01X75849Y-1756318D01*
G01X76283Y-1757934D01*
G01X76463Y-1759595D01*
G01X76466Y-1761322D01*
G01X76200Y-1767129D01*
G37*
G36*
G01X586029Y-1993900D02*
G01X586029Y-1968500D01*
G01X580222Y-1968766D01*
G01X578495Y-1968763D01*
G01X576834Y-1968583D01*
G01X575218Y-1968149D01*
G01X573623Y-1967381D01*
G01X572029Y-1966200D01*
G01Y-1996200D01*
G01X573623Y-1995019D01*
G01X575218Y-1994251D01*
G01X576834Y-1993817D01*
G01X578495Y-1993637D01*
G01X580222Y-1993634D01*
G01X586029Y-1993900D01*
G37*
G36*
G01X1271829Y-3771900D02*
G01X1271829Y-3746500D01*
G01X1269774Y-3746009D01*
G01X1267847Y-3744684D01*
G01X1266029Y-3742743D01*
G01X1264297Y-3740406D01*
G01X1261013Y-3735426D01*
G01X1259419Y-3733221D01*
G01X1257829Y-3731500D01*
G01Y-3761500D01*
G01X1259554Y-3760722D01*
G01X1261150Y-3761326D01*
G01X1262684Y-3762916D01*
G01X1265840Y-3767485D01*
G01X1267601Y-3769675D01*
G01X1269574Y-3771278D01*
G01X1271829Y-3771900D01*
G37*
G36*
G01X2540000Y-1436929D02*
G01X2565400Y-1436929D01*
G01X2565134Y-1431122D01*
G01X2565137Y-1429395D01*
G01X2565317Y-1427734D01*
G01X2565751Y-1426118D01*
G01X2566519Y-1424523D01*
G01X2567700Y-1422929D01*
G01X2537700D01*
G01X2538881Y-1424523D01*
G01X2539649Y-1426118D01*
G01X2540083Y-1427734D01*
G01X2540263Y-1429395D01*
G01X2540266Y-1431122D01*
G01X2540000Y-1436929D01*
G37*
G36*
G01X2423273Y-2098334D02*
G01X2441234Y-2080373D01*
G01X2436940Y-2076455D01*
G01X2435721Y-2075232D01*
G01X2434673Y-2073931D01*
G01X2433837Y-2072480D01*
G01X2433253Y-2070810D01*
G01X2432961Y-2068848D01*
G01X2411748Y-2090061D01*
G01X2413710Y-2090353D01*
G01X2415380Y-2090937D01*
G01X2416831Y-2091773D01*
G01X2418132Y-2092821D01*
G01X2419355Y-2094040D01*
G01X2423273Y-2098334D01*
G37*
G36*
G01X2870200Y-2741371D02*
G01X2844800Y-2741371D01*
G01X2845066Y-2747178D01*
G01X2845063Y-2748905D01*
G01X2844883Y-2750566D01*
G01X2844449Y-2752182D01*
G01X2843681Y-2753777D01*
G01X2842500Y-2755371D01*
G01X2872500D01*
G01X2871319Y-2753777D01*
G01X2870551Y-2752182D01*
G01X2870117Y-2750566D01*
G01X2869937Y-2748905D01*
G01X2869934Y-2747178D01*
G01X2870200Y-2741371D01*
G37*
G36*
G01X2829673Y-1552234D02*
G01X2847634Y-1534273D01*
G01X2843340Y-1530355D01*
G01X2842121Y-1529132D01*
G01X2841073Y-1527831D01*
G01X2840237Y-1526380D01*
G01X2839653Y-1524710D01*
G01X2839361Y-1522748D01*
G01X2818148Y-1543961D01*
G01X2820110Y-1544253D01*
G01X2821780Y-1544837D01*
G01X2823231Y-1545673D01*
G01X2824532Y-1546721D01*
G01X2825755Y-1547940D01*
G01X2829673Y-1552234D01*
G37*
G36*
G01X2822234Y-2910727D02*
G01X2804273Y-2892766D01*
G01X2800355Y-2897060D01*
G01X2799132Y-2898279D01*
G01X2797831Y-2899327D01*
G01X2796380Y-2900163D01*
G01X2794710Y-2900747D01*
G01X2792748Y-2901039D01*
G01X2813961Y-2922252D01*
G01X2814253Y-2920290D01*
G01X2814837Y-2918620D01*
G01X2815673Y-2917169D01*
G01X2816721Y-2915868D01*
G01X2817940Y-2914645D01*
G01X2822234Y-2910727D01*
G37*
G36*
G01X674929Y-2044700D02*
G01X674929Y-2019300D01*
G01X669122Y-2019566D01*
G01X667395Y-2019563D01*
G01X665734Y-2019383D01*
G01X664118Y-2018949D01*
G01X662523Y-2018181D01*
G01X660929Y-2017000D01*
G01Y-2047000D01*
G01X662523Y-2045819D01*
G01X664118Y-2045051D01*
G01X665734Y-2044617D01*
G01X667395Y-2044437D01*
G01X669122Y-2044434D01*
G01X674929Y-2044700D01*
G37*
G36*
G01X1179271Y-2019300D02*
G01X1179271Y-2044700D01*
G01X1185078Y-2044434D01*
G01X1186805Y-2044437D01*
G01X1188466Y-2044617D01*
G01X1190082Y-2045051D01*
G01X1191677Y-2045819D01*
G01X1193271Y-2047000D01*
G01Y-2017000D01*
G01X1191677Y-2018181D01*
G01X1190082Y-2018949D01*
G01X1188466Y-2019383D01*
G01X1186805Y-2019563D01*
G01X1185078Y-2019566D01*
G01X1179271Y-2019300D01*
G37*
G36*
G01X1787706Y-934977D02*
G01X1762306Y-934977D01*
G01X1762572Y-940784D01*
G01X1762569Y-942511D01*
G01X1762389Y-944172D01*
G01X1761955Y-945789D01*
G01X1761187Y-947383D01*
G01X1760006Y-948977D01*
G01X1790006D01*
G01X1788825Y-947383D01*
G01X1788057Y-945789D01*
G01X1787623Y-944172D01*
G01X1787443Y-942511D01*
G01X1787440Y-940784D01*
G01X1787706Y-934977D01*
G37*
G36*
G01X1737668Y-887171D02*
G01X1712268Y-887171D01*
G01X1712534Y-892978D01*
G01X1712531Y-894705D01*
G01X1712351Y-896366D01*
G01X1711917Y-897982D01*
G01X1711149Y-899577D01*
G01X1709968Y-901171D01*
G01X1739968D01*
G01X1738787Y-899577D01*
G01X1738019Y-897982D01*
G01X1737585Y-896366D01*
G01X1737405Y-894705D01*
G01X1737402Y-892978D01*
G01X1737668Y-887171D01*
G37*
G36*
G01X2187200Y-1155442D02*
G01X2187200Y-1105442D01*
G03X2337200Y-1055442I0J249999D01*
G01Y-1205442D01*
G03X2187200Y-1155442I-150000J-200000D01*
G37*
G36*
G01X2272900Y-733455D02*
G01X2300933Y-690778D01*
G03X2272899Y-673350I-51366J-51366D01*
G01X2248150Y-698099D01*
G03X2272900Y-733455I112556J52450D01*
G37*
G36*
G01X1179007Y-1005393D02*
G01X1157793Y-1026607D01*
G01X1159087Y-1027426D01*
G01X1160703Y-1027823D01*
G01X1162493Y-1027959D01*
G01X1166000Y-1028078D01*
G01X1167420Y-1028380D01*
G01X1168419Y-1029057D01*
G01X1168849Y-1030266D01*
G01X1195366Y-1003749D01*
G01X1193424Y-1003873D01*
G01X1191262Y-1004357D01*
G01X1186661Y-1005734D01*
G01X1184412Y-1006289D01*
G01X1182323Y-1006529D01*
G01X1180489Y-1006287D01*
G01X1179007Y-1005393D01*
G37*
G36*
G01X1195893Y-1064707D02*
G01X1217107Y-1043493D01*
G01X1216213Y-1042011D01*
G01X1215971Y-1040177D01*
G01X1216211Y-1038088D01*
G01X1216766Y-1035839D01*
G01X1218143Y-1031238D01*
G01X1218627Y-1029076D01*
G01X1218751Y-1027134D01*
G01X1192234Y-1053651D01*
G01X1194120Y-1055080D01*
G01X1194509Y-1058192D01*
G01X1194677Y-1061797D01*
G01X1195893Y-1064707D01*
G37*
G36*
G01X2537200Y-1001000D02*
G01X2537200Y-1031000D01*
G03X2387200Y-1091000I0J-217500D01*
G01Y-941000D01*
G03X2537200Y-1001000I150000J157500D01*
G37*
G04 Tear End*

G04 Pad Start*
G54D11*
G01X180000Y-546100D03*
G54D12*
G01X180000Y-800100D03*
G01X180000Y-1054100D03*
G01X180000Y-1308100D03*
G54D13*
G01X3120000Y-3373000D03*
G54D14*
G01X3120000Y-3627000D03*
G54D13*
G01X180000Y-3627000D03*
G54D15*
G01X180000Y-3373000D03*
G54D16*
G01X2666000Y-200000D03*
G54D18*
G01X2412000Y-200000D03*
G01X2158000Y-200000D03*
G01X1904000Y-200000D03*
G01X1650000Y-200000D03*
G01X1396000Y-200000D03*
G01X1142000Y-200000D03*
G01X888000Y-200000D03*
G01X634000Y-200000D03*
G04 Pad End*

G04 Via Start*
G54D19*
G01X1409700Y-977900D03*
G01X1060130Y-1327470D03*
G01X1147506Y-1227394D03*
G01X990600Y-1473200D03*
G01X1079500Y-1473200D03*
G01X1168400Y-1473200D03*
G01X1828800Y-914400D03*
G01X1892300Y-965200D03*
G01X2032000Y-1231900D03*
G01X2209800Y-1231900D03*
G01X660400Y-1549400D03*
G01X1905000Y-1803400D03*
G01X1701800Y-1930400D03*
G54D20*
G01X1981200Y-673100D03*
G54D19*
G01X2032000Y-1130300D03*
G01X1168400Y-1676400D03*
G54D21*
G01X1193800Y-1028700D03*
G54D19*
G01X1724968Y-1826568D03*
G01X1943100Y-3479800D03*
G01X1981200Y-3759200D03*
G01X3060700Y-546100D03*
G01X3171598Y-546100D03*
G54D21*
G01X1509753Y-1454723D03*
G01X1509753Y-1348106D03*
G54D19*
G01X2259770Y-1358087D03*
G01X2311400Y-1397000D03*
G01X1128249Y-652187D03*
G01X1073538Y-698481D03*
G01X1180857Y-702690D03*
G54D21*
G01X1829137Y-1461387D03*
G01X1830540Y-1349158D03*
G54D19*
G01X1823554Y-2099861D03*
G01X2362200Y-596900D03*
G01X2552700Y-3759200D03*
G01X1854200Y-3479800D03*
G01X3060700Y-2476500D03*
G01X3009900Y-2857500D03*
G01X685800Y-482600D03*
G01X762000Y-482600D03*
G01X1524000Y-3708400D03*
G01X1079500Y-3619500D03*
G01X1168461Y-3619500D03*
G01X2209800Y-1308100D03*
G01X1575108Y-978208D03*
G01X1625600Y-927100D03*
G01X1676400Y-965200D03*
G01X1524000Y-850900D03*
G01X2235200Y-673100D03*
G01X2565400Y-1016000D03*
G01X2159000Y-1016000D03*
G01X2159000Y-1067490D03*
G01X753259Y-2915795D03*
G01X1003300Y-3479800D03*
G01X596900Y-2603500D03*
G01X939800Y-3517900D03*
G01X342900Y-2400300D03*
G01X876300Y-3543300D03*
G54D21*
G01X368300Y-3510947D03*
G54D19*
G01X88900Y-1739900D03*
G01X558800Y-1981200D03*
G01X1244600Y-3746500D03*
G01X2552700Y-1409700D03*
G54D20*
G01X2730500Y-1879600D03*
G54D19*
G01X2413000Y-2070100D03*
G01X2857500Y-2768600D03*
G01X2819400Y-1524000D03*
G01X2794000Y-2921000D03*
G01X1778000Y-2159000D03*
G01X1244600Y-2260600D03*
G01X901700Y-3886200D03*
G01X1232331Y-3883922D03*
G01X2168279Y-3616079D03*
G01X2374900Y-2235200D03*
G01X1923762Y-2317769D03*
G01X1562100Y-2387600D03*
G01X2260600Y-2082800D03*
G54D20*
G01X1224382Y-546100D03*
G54D19*
G01X2425700Y-1943100D03*
G01X2476500Y-1892300D03*
G01X647700Y-2032000D03*
G01X1206500Y-2032000D03*
G01X1775006Y-962206D03*
G01X1724968Y-914400D03*
G01X2908300Y-3289300D03*
G54D21*
G01X2133874Y-2525219D03*
G01X2133662Y-2447239D03*
G01X2134589Y-2607498D03*
G01X1504803Y-1244801D03*
G01X1507583Y-1568098D03*
G01X1612955Y-1456241D03*
G01X1614808Y-1353416D03*
G01X1613882Y-1246885D03*
G01X1613882Y-1569617D03*
G01X1826171Y-1570080D03*
G04 Via End*

G04 Track Start*
G54D22*
G01X1231900Y-800100D02*
G01X1409700Y-977900D01*
G54D10*
G01X1079500Y-1473200D02*
G01X1122106Y-1430594D01*
G01X1122106Y-1252794D02*
G01X1122106Y-1430594D01*
G01X1147506Y-1227394D02*
G01X1122106Y-1252794D01*
G01X2209800Y-1231900D02*
G01X2032000Y-1231900D01*
G01X1092200Y-1549400D02*
G01X1168400Y-1473200D01*
G01X660400Y-1549400D02*
G01X1092200Y-1549400D01*
G01X2476500Y-1778000D02*
G01X2019300Y-1778000D01*
G01X1866900Y-1930400D02*
G01X2019300Y-1778000D01*
G01X1701800Y-1930400D02*
G01X1866900Y-1930400D01*
G01X990600Y-1473200D02*
G01X990600Y-1397000D01*
G01X1060130Y-1327470D01*
G01X2552700Y-1701800D02*
G01X2476500Y-1778000D01*
G54D21*
G01X2032142Y-1130442D02*
G01X2362200Y-1130442D01*
G01X2247900Y-673100D02*
G01X2362200Y-787400D01*
G01X1981200Y-673100D02*
G01X2247900Y-673100D01*
G54D22*
G01X1168400Y-1676400D02*
G01X1320800Y-1676400D01*
G01X1358900Y-1638300D01*
G01X1270000Y-1054100D02*
G01X1206500Y-1054100D01*
G01X1168400Y-1016000D01*
G01X1358900Y-1638300D02*
G01X1358900Y-1143000D01*
G01X1270000Y-1054100D01*
G01X1724968Y-1826568D02*
G01X1724968Y-1310332D01*
G01X1905000Y-1130300D01*
G01X2032000D01*
G01X2362670Y-1016000D02*
G01X2362200Y-1016470D01*
G01X2565400Y-1016000D02*
G01X2362670Y-1016000D01*
G54D21*
G01X2362200Y-1130442D02*
G01X2362200Y-1016470D01*
G01Y-787400D01*
G54D22*
G01X180000Y-800100D02*
G01X1231900Y-800100D01*
G54D10*
G01X753259Y-2915795D02*
G01X1003300Y-3165836D01*
G01Y-3479800D01*
G01X596900Y-3175000D02*
G01X596900Y-2603500D01*
G01X939800Y-3517900D02*
G01X596900Y-3175000D01*
G01X342900Y-2400300D02*
G01X342900Y-3009900D01*
G01X876300Y-3543300D01*
G01X368300Y-3510947D02*
G01X368300Y-3092774D01*
G01X302260Y-3026734D01*
G01Y-2501900D01*
G01X88900Y-2288540D02*
G01X302260Y-2501900D01*
G01X88900Y-1739900D02*
G01X88900Y-2288540D01*
G01X706018Y-1981200D02*
G01X558800Y-1981200D01*
G01X1981200Y-3759200D02*
G01X2552700Y-3759200D01*
G01X1244600Y-3746500D02*
G01X1257300Y-3759200D01*
G01X1981200D01*
G01X2552700Y-1409700D02*
G01X2552700Y-1701800D01*
G01X2413000Y-2070100D02*
G01X2857500Y-2514600D01*
G01Y-2768600D01*
G54D21*
G01X2362200Y-1130442D02*
G01X2362200Y-1296200D01*
G01X2412200Y-1346200D01*
G01X2578100D01*
G01X2730500Y-1498600D01*
G01Y-1879600D01*
G54D10*
G01X2819400Y-1524000D02*
G01X2908300Y-1612900D01*
G01X2908300Y-2806700D02*
G01X2908300Y-1612900D01*
G01X2794000Y-2921000D02*
G01X2908300Y-2806700D01*
G01X1676400Y-660400D02*
G01X1676400Y-965200D01*
G01X1625799Y-726301D02*
G01X1625799Y-926901D01*
G01X1625600Y-927100D01*
G01X1575108Y-978208D02*
G01X1575812Y-977505D01*
G01Y-760812D01*
G01X1234100Y-419100D01*
G01X1905000Y-1803400D02*
G01X1833640Y-1874760D01*
G01X812458D01*
G01X706018Y-1981200D01*
G01X647700Y-2032000D02*
G01X1206500Y-2032000D01*
G01X1892300Y-965200D02*
G01X1892300Y-654717D01*
G01X2347017Y-200000D01*
G01X2412000D01*
G01X1828800Y-567300D02*
G01X1828800Y-914400D01*
G01X2158000Y-238100D02*
G01X2158000Y-200000D01*
G01X2158000Y-238100D02*
G01X1828800Y-567300D01*
G01X1396000Y-380000D02*
G01X1676400Y-660400D01*
G01X1396000Y-200000D02*
G01X1396000Y-380000D01*
G01X1775006Y-962206D02*
G01X1775006Y-328994D01*
G01X1904000Y-200000D01*
G01X1638300Y-211700D02*
G01X1650000Y-200000D01*
G01X1724968Y-914400D02*
G01X1724968Y-581968D01*
G01X1638300Y-495300D01*
G01Y-211700D01*
G54D20*
G01X634000Y-200000D02*
G01X980100Y-546100D01*
G01X1224382D01*
G54D10*
G01X1234100Y-419100D02*
G01X1104900Y-419100D01*
G01X888000Y-202200D01*
G01Y-200000D01*
G01X1142000Y-242502D02*
G01X1625799Y-726301D01*
G01X1142000Y-242502D02*
G01X1142000Y-200000D01*
G04 Track End*

M02*
