G04 Layer: TopLayer*
G04 EasyEDA Pro v2.1.57.773a98f1.225d47, 2024-05-26 20:13:26*
G04 Gerber Generator version 0.3*
G04 Scale: 100 percent, Rotated: No, Reflected: No*
G04 Dimensions in millimeters*
G04 Leading zeros omitted, absolute positions, 3 integers and 5 decimals*
%FSLAX35Y35*%
%MOMM*%
%AMPolygonMacro1*4,1,28,0.58999,2.2,0.58999,1.42999,0.33,1.42999,0.33,2.2,0.13,2.2,0.13,1.42999,-0.13,1.42999,-0.13,2.2,-0.33,2.2,-0.33,1.42999,-0.58999,1.42999,-0.58999,2.2,-0.78999,2.2,-0.78999,-2.2,-0.58999,-2.2,-0.58999,-1.42999,-0.33,-1.42999,-0.33,-2.2,-0.13,-2.2,-0.13,-1.42999,0.13,-1.42999,0.13,-2.2,0.33,-2.2,0.33,-1.42999,0.58999,-1.42999,0.58999,-2.2,0.78999,-2.2,0.78999,2.2,0.58999,2.2,0*%
%AMOval*1,1,$1,$2,$3*1,1,$1,$4,$5*20,1,$1,$2,$3,$4,$5,0*%
%ADD10C,0.254*%
%ADD11R,1.0X0.41999*%
%ADD12R,1.0X0.41999*%
%ADD13R,1.0X0.6*%
%ADD14R,2.0X1.6*%
%ADD15R,2.0X1.6*%
%ADD16R,0.3040X1.5*%
%ADD17R,0.29997X1.5*%
%ADD18R,0.53086X1.04394*%
%ADD19R,1.69926X1.69926*%
%ADD20C,1.69926*%
%ADD21R,0.54X0.56566*%
%ADD22R,0.54X0.79009*%
%ADD23R,0.54X0.56566*%
%ADD24R,0.54X0.79009*%
%ADD25R,0.56566X0.54*%
%ADD26R,1.39954X1.0*%
%ADD27R,0.56566X0.54*%
%ADD28R,1.2X1.2*%
%ADD29R,0.8001X0.89916*%
%ADD30R,1.19888X0.59944*%
%ADD31C,1.8*%
%ADD32R,1.8X1.8*%
%ADD33R,2.12344X3.82016*%
%ADD34R,0.79009X0.54*%
%ADD35R,0.7X0.25001*%
%ADD36R,0.7X0.25001*%
%ADD37PolygonMacro1*%
%ADD38Oval,0.36401X0.0X-0.649X0.0X0.649*%
%ADD39R,1.75999X1.42499*%
%ADD40R,1.25001X0.7*%
%ADD41R,0.79009X0.54*%
%ADD42R,1.04902X1.69926*%
%ADD43R,1.2X1.2*%
%ADD44O,0.2794X0.89916*%
%ADD45O,0.89916X0.2794*%
%ADD46R,5.4991X5.4991*%
%ADD47R,1.8X1.8*%
%ADD48R,1.7X1.7*%
%ADD49C,1.7*%
%ADD50R,1.2X1.2*%
%ADD51C,0.4*%
%ADD52C,0.6*%
%ADD53C,0.5*%
%ADD54C,0.3*%
G75*

G54D10*

G04 Copper Start*
G01X300000Y-4161646D02*
G02X38354Y-3900000I0J261646D01*
G01Y-1769060D01*
G03X84539Y-1798091I50546J29160D01*
G01Y-1799900D01*
G03X122893Y-1838254I38354J0D01*
G01X242893D01*
G03X281247Y-1799900I0J38354D01*
G01Y-1679900D01*
G03X242893Y-1641546I-38354J0D01*
G01X122893D01*
G03X84539Y-1679900I0J-38354D01*
G01Y-1681709D01*
G03X38354Y-1710740I4361J-58191D01*
G01Y-300000D01*
G02X300000Y-38354I261646J0D01*
G01X3000000D01*
G02X3261646Y-300000I0J-261646D01*
G01Y-991644D01*
G01X3150132D01*
G03X3111778Y-1029998I0J-38354D01*
G01Y-1089942D01*
G03X3150132Y-1128296I38354J0D01*
G01X3261646D01*
G01Y-1471704D01*
G01X3150132D01*
G03X3111778Y-1510058I0J-38354D01*
G01Y-1570002D01*
G03X3150132Y-1608356I38354J0D01*
G01X3261646D01*
G01Y-1765365D01*
G03X3227400Y-1744281I-34246J-17270D01*
G01X3173400D01*
G03X3136900Y-1770854I0J-38354D01*
G03X3100400Y-1744281I-36500J-11781D01*
G01X3093096D01*
G02X3063257Y-1728574I10393J55939D01*
G01X3063210Y-1728527D01*
G01X2944891Y-1610208D01*
G01X2983059Y-1572040D01*
G01X2983106Y-1571993D01*
G02X3012944Y-1556286I40232J-40232D01*
G01X3049929D01*
G03X3088283Y-1517932I0J38354D01*
G01Y-1441188D01*
G03X3149878Y-1468402I61595J56098D01*
G03X3233190Y-1385090I0J83312D01*
G03X3149878Y-1301778I-83312J0D01*
G03X3066566Y-1385090I0J-83312D01*
G03X3067009Y-1393675I83312J0D01*
G03X3049929Y-1389662I-17081J-34341D01*
G01X2969919D01*
G03X2931565Y-1428016I0J-38354D01*
G01Y-1465000D01*
G02X2915858Y-1494839I-55939J10393D01*
G01X2915811Y-1494886D01*
G01X2886951Y-1523746D01*
G01X2877753D01*
G03X2870364Y-1495578I-58353J-254D01*
G03X2855501Y-1462499I-50964J-3022D01*
G01X2817401Y-1424399D01*
G03X2781300Y-1409446I-36101J-36101D01*
G01X2611053D01*
G03X2603754Y-1381439I-58353J-254D01*
G01Y-1156500D01*
G03X2588801Y-1120399I-51054J0D01*
G01X2570267Y-1101866D01*
G01X2570220Y-1101818D01*
G02X2565552Y-1092418I11636J11636D01*
G01Y-1086097D01*
G01Y-1074354D01*
G03X2623754Y-1016000I-152J58354D01*
G03X2565552Y-957646I-58354J0D01*
G01Y-930002D01*
G03X2527198Y-891648I-38354J0D01*
G01X2482553D01*
G01X2528311Y-845891D01*
G03X2543264Y-809790I-36101J36101D01*
G01Y-798335D01*
G03X2580564Y-759996I-1054J38340D01*
G01Y-699996D01*
G03X2576340Y-682498I-38354J0D01*
G03X2580564Y-665000I-34130J17498D01*
G01Y-605000D01*
G03X2576340Y-587502I-38354J0D01*
G03X2580564Y-570004I-34130J17498D01*
G01Y-510004D01*
G03X2542210Y-471650I-38354J0D01*
G01X2442210D01*
G03X2403856Y-510004I0J-38354D01*
G01Y-570004D01*
G03X2408080Y-587502I38354J0D01*
G03X2403856Y-605000I34130J-17498D01*
G01Y-665000D01*
G03X2408080Y-682498I38354J0D01*
G03X2403856Y-699996I34130J-17498D01*
G01Y-759996D01*
G03X2432657Y-797141I38354J0D01*
G01X2325588Y-904210D01*
G03X2323688Y-902262I-28387J-25792D01*
G03X2332419Y-877900I-29623J24362D01*
G01Y-823900D01*
G03X2316950Y-793122I-38354J0D01*
G02X2316836Y-785800I233804J7322D01*
G01Y-776449D01*
G03X2320544Y-759996I-34646J16453D01*
G01Y-699996D01*
G03X2292692Y-663108I-38354J0D01*
G03X2235200Y-614746I-57492J-9992D01*
G03X2232488Y-614809I0J-58354D01*
G02X2250169Y-608358I28074J-49488D01*
G01X2282190D01*
G03X2320544Y-570004I0J38354D01*
G01Y-510004D01*
G03X2282190Y-471650I-38354J0D01*
G01X2182190D01*
G03X2143836Y-510004I0J-38354D01*
G01Y-542680D01*
G02X2130168Y-569824I-47936J7124D01*
G01X2130121Y-569871D01*
G01X2072099Y-627893D01*
G03X2057146Y-663994I36101J-36101D01*
G01Y-769333D01*
G01X2005000D01*
G03X1966646Y-807687I0J-38354D01*
G01Y-886696D01*
G03X1969702Y-901700I38354J0D01*
G03X1966646Y-916704I35298J-15004D01*
G01Y-936181D01*
G03X1963646Y-956208I65354J-20027D01*
G01Y-1059721D01*
G01X1933697Y-1074994D01*
G01X1927406D01*
G01Y-1026480D01*
G03X1926136Y-1015022I-52324J0D01*
G01Y-1012743D01*
G03X1950654Y-965200I-33836J47543D01*
G03X1892300Y-906846I-58354J0D01*
G03X1886698Y-907116I0J-58354D01*
G03X1828800Y-856046I-57898J-7284D01*
G03X1776884Y-887756I0J-58354D01*
G03X1724968Y-856046I-51916J-26644D01*
G03X1671488Y-891052I0J-58354D01*
G03X1660267Y-880160I-45888J-36048D01*
G01X1684313Y-856113D01*
G01X1684360Y-856066D01*
G02X1701462Y-840359I193294J-193293D01*
G01X1709039D01*
G03X1747393Y-802005I0J38354D01*
G01Y-800862D01*
G01X1776400D01*
G02X1786137Y-801065I-0J-233918D01*
G03X1814500Y-813600I28362J25819D01*
G01X1868500D01*
G03X1906854Y-775246I0J38354D01*
G01Y-724573D01*
G02X1935349Y-723794I36646J-819162D01*
G03X1981200Y-741454I45851J50694D01*
G03X2049554Y-673100I0J68354D01*
G03X2006194Y-609479I-68354J0D01*
G03X1968500Y-597046I-37694J-50921D01*
G01X1943500D01*
G02X1871852Y-593910I0J819981D01*
G03X1869288Y-593771I-3351J-38207D01*
G02X1822660Y-551964I360137J448572D01*
G01X1822645Y-551949D01*
G01X1747393Y-476697D01*
G01Y-467995D01*
G03X1709039Y-429641I-38354J0D01*
G01X1655953D01*
G03X1618526Y-459612I0J-38354D01*
G02X1575800Y-537292I-155158J34752D01*
G01X1575785Y-537307D01*
G01X1557401Y-555691D01*
G01Y-467995D01*
G03X1519047Y-429641I-38354J0D01*
G01X1465961D01*
G03X1427607Y-467995I0J-38354D01*
G01Y-572389D01*
G03X1432920Y-591864I38354J0D01*
G01X1376026D01*
G03X1360500Y-588581I-15526J-35071D01*
G01X1351278D01*
G01X1311172Y-548476D01*
G01X1311157Y-548461D01*
G01X1311128Y-548432D01*
G01X1309504Y-546808D01*
G01X1309478Y-546782D01*
G01X1309464Y-546768D01*
G01X1290140Y-527444D01*
G03X1224382Y-477746I-65759J-18656D01*
G03X1198720Y-482746I0J-68354D01*
G01X711200D01*
G01X339963D01*
G02X303317Y-468893I0J55396D01*
G01Y-461137D01*
G03X264963Y-422783I-38354J0D01*
G01X95037D01*
G03X56683Y-461137I0J-38354D01*
G01Y-631063D01*
G03X95037Y-669417I38354J0D01*
G01X264963D01*
G03X303317Y-631063I0J38354D01*
G01Y-623307D01*
G02X339963Y-609454I36646J-41543D01*
G01X635587D01*
G01X639225Y-609570D01*
G01X642517Y-609870D01*
G01X647893Y-610686D01*
G01X653530Y-611894D01*
G01X661421Y-614080D01*
G01X669595Y-616866D01*
G01X677886Y-620188D01*
G01X688015Y-624889D01*
G01X697747Y-630090D01*
G01X706952Y-635701D01*
G01X713790Y-640402D01*
G01X719987Y-645182D01*
G01X724176Y-648804D01*
G01X727072Y-651568D01*
G01X1035850Y-960346D01*
G01X994308D01*
G03X974281Y-963346I0J-68354D01*
G01X954804D01*
G03X939800Y-966402I0J-38354D01*
G03X924796Y-963346I-15004J-35298D01*
G01X845787D01*
G03X807433Y-1001700I0J-38354D01*
G01Y-1055700D01*
G03X808397Y-1064246I38354J0D01*
G01X698500D01*
G03X660773Y-1079873I0J-53354D01*
G01X485900Y-1254746D01*
G01X296288D01*
G01X293144Y-1254645D01*
G01X293036Y-1254635D01*
G01X292578Y-1254023D01*
G01X285375Y-1243175D01*
G01X284601Y-1242052D01*
G01X279965Y-1235582D01*
G01X278572Y-1233756D01*
G01X274957Y-1229301D01*
G01X273411Y-1227510D01*
G01X271712Y-1225662D01*
G03X269856Y-1223643I-91712J-82438D01*
G01X269250Y-1222984D01*
G01X267646Y-1221341D01*
G01X267376Y-1221080D01*
G03X263735Y-1217571I-87376J-87020D01*
G01X263096Y-1216984D01*
G01X263083Y-1216972D01*
G01X261589Y-1215632D01*
G01X261544Y-1215593D01*
G03X180000Y-1184783I-81544J-92507D01*
G03X56683Y-1308100I0J-123317D01*
G03X180000Y-1431417I123317J0D01*
G03X261544Y-1400607I0J123317D01*
G01X261589Y-1400568D01*
G03X266020Y-1396461I-81589J92468D01*
G01X267457Y-1395050D01*
G01X267921Y-1394569D01*
G01X269436Y-1393001D01*
G01X270750Y-1391641D01*
G01X272221Y-1390030D01*
G01X276095Y-1385535D01*
G01X277600Y-1383674D01*
G01X281763Y-1378185D01*
G01X283109Y-1376295D01*
G01X291006Y-1364460D01*
G01X293019Y-1361583D01*
G01X295236Y-1361461D01*
G01X295873Y-1361454D01*
G01X508000D01*
G03X545727Y-1345827I0J53354D01*
G01X720600Y-1170954D01*
G01X839645D01*
G01X679939Y-1330659D01*
G03X664986Y-1366760I36101J-36101D01*
G01Y-1491227D01*
G03X660400Y-1491046I-4586J-58173D01*
G03X643083Y-1493675I0J-58354D01*
G01X642900Y-1493518D01*
G03X617665Y-1484046I-25236J-28882D01*
G01X617664D01*
G01X561099D01*
G03X546100Y-1487100I0J-38354D01*
G03X531101Y-1484046I-14999J-35300D01*
G01X474536D01*
G03X436182Y-1522400I0J-38354D01*
G01Y-1576400D01*
G03X474536Y-1614754I38354J0D01*
G01X531101D01*
G03X546100Y-1611700I0J38354D01*
G03X561099Y-1614754I14999J35300D01*
G01X617664D01*
G01X617665D01*
G03X642900Y-1605282I0J38354D01*
G01X643083Y-1605125D01*
G03X660400Y-1607754I17317J55725D01*
G03X664986Y-1607573I0J58354D01*
G01Y-1636043D01*
G03X656819Y-1635163I-8167J-37474D01*
G01X602818D01*
G03X577715Y-1644520I0J-38354D01*
G03X562907Y-1641546I-14808J-35380D01*
G01X442907D01*
G03X404553Y-1679900I0J-38354D01*
G01Y-1799900D01*
G03X442907Y-1838254I38354J0D01*
G01X562907D01*
G03X570611Y-1837472I0J38354D01*
G03X573936Y-1841882I32207J20826D01*
G02X578764Y-1854746I-14723J-12864D01*
G01Y-1926367D01*
G03X558800Y-1922846I-19964J-54833D01*
G03X541480Y-1925476I0J-58354D01*
G03X516065Y-1915846I-25416J-28724D01*
G01X516064D01*
G01X459499D01*
G03X444500Y-1918900I0J-38354D01*
G03X429501Y-1915846I-14999J-35300D01*
G01X372936D01*
G03X334582Y-1954200I0J-38354D01*
G01Y-2008200D01*
G03X345574Y-2035078I38354J0D01*
G02X348410Y-2039012I-11424J-11223D01*
G03X336550Y-2056370I24526J-29488D01*
G03X300165Y-2030146I-36385J-12129D01*
G01X300164D01*
G01X243599D01*
G03X228600Y-2033200I0J-38354D01*
G03X213601Y-2030146I-14999J-35300D01*
G01X157036D01*
G03X118682Y-2068500I0J-38354D01*
G01Y-2122500D01*
G03X136377Y-2154815I38354J0D01*
G03X149218Y-2176381I48941J14535D01*
G01X177546Y-2204709D01*
G01Y-2208781D01*
G01X149577D01*
G03X111223Y-2247135I0J-38354D01*
G01Y-2347135D01*
G03X149577Y-2385489I38354J0D01*
G01X286457D01*
G03X284546Y-2400300I56443J-14811D01*
G03X287569Y-2418839I58354J0D01*
G01X149577D01*
G03X111223Y-2457193I0J-38354D01*
G01Y-2557193D01*
G03X149577Y-2595547I38354J0D01*
G01X289531D01*
G03X313999Y-2586729I0J38354D01*
G01X317397Y-2590127D01*
G01X318108Y-2590900D01*
G01X318719Y-2591667D01*
G01X319520Y-2592802D01*
G01X321362Y-2595783D01*
G01X323213Y-2599242D01*
G01X325025Y-2603130D01*
G01X326666Y-2607192D01*
G01X328033Y-2611163D01*
G01X329044Y-2614756D01*
G01X329711Y-2617904D01*
G01X329865Y-2618975D01*
G01X329945Y-2619980D01*
G01X329946Y-2620041D01*
G01Y-2742296D01*
G01X323839D01*
G03X285485Y-2780650I0J-38354D01*
G01Y-2900650D01*
G03X323839Y-2939004I38354J0D01*
G01X443838D01*
G03X449832Y-2938532I0J38354D01*
G01X490351D01*
G02X497377Y-2960794I-64618J-32632D01*
G03X500037Y-2970303I37958J5494D01*
G03X496981Y-2985307I35298J-15004D01*
G01Y-3064316D01*
G03X535335Y-3102670I38354J0D01*
G01X589335D01*
G03X619485Y-3088023I0J38354D01*
G03X649635Y-3102670I30150J23707D01*
G01X703635D01*
G03X741989Y-3064316I0J38354D01*
G01Y-2985307D01*
G03X741547Y-2979496I-38354J0D01*
G02X752307Y-2979151I11713J-197419D01*
G01X752478Y-2979236D01*
G01X752831Y-2979450D01*
G01X753225Y-2979738D01*
G01X753604Y-2980069D01*
G01X753869Y-2980343D01*
G01Y-2998888D01*
G03X790148Y-3051683I56554J0D01*
G03X781581Y-3075845I29786J-24162D01*
G01Y-3218344D01*
G03X790148Y-3242506I38354J0D01*
G03X754173Y-3289446I20275J-52795D01*
G01X741989D01*
G01Y-3277407D01*
G03X738933Y-3262403I-38354J0D01*
G03X741989Y-3247400I-35298J15004D01*
G01Y-3168390D01*
G03X703635Y-3130036I-38354J0D01*
G01X649635D01*
G03X619485Y-3144683I0J-38354D01*
G03X589335Y-3130036I-30150J-23707D01*
G01X535335D01*
G03X496981Y-3168390I0J-38354D01*
G01Y-3247400D01*
G03X500037Y-3262403I38354J0D01*
G01X499163Y-3264655D01*
G02X455182Y-3334469I-175759J61963D01*
G01X455167Y-3334484D01*
G01X358872Y-3430779D01*
G01X358833Y-3430818D01*
G01X323502Y-3466149D01*
G03X304946Y-3510947I44798J-44798D01*
G01Y-3597621D01*
G03X206225Y-3501354I-124946J-29380D01*
G01X270000D01*
G03X308354Y-3463000I0J38354D01*
G01Y-3374271D01*
G02X346049Y-3296713I147261J-23634D01*
G02X423606Y-3259018I101192J-109566D01*
G01X443838D01*
G03X482192Y-3220664I0J38354D01*
G01Y-3100664D01*
G03X443838Y-3062310I-38354J0D01*
G01X323839D01*
G03X285485Y-3100664I0J-38354D01*
G01Y-3137891D01*
G02X251783Y-3210945I-147261J23634D01*
G02X178729Y-3244646I-96688J113560D01*
G01X90000D01*
G03X51646Y-3283000I0J-38354D01*
G01Y-3463000D01*
G03X90000Y-3501354I38354J0D01*
G01X153775D01*
G03X51646Y-3627000I26225J-125646D01*
G03X180000Y-3755354I128354J0D01*
G03X304946Y-3656380I0J128354D01*
G01Y-3873500D01*
G03X323502Y-3918298I63354J0D01*
G01X566850Y-4161646D01*
G01X300000D01*
G01X3149878Y-1298222D02*
G03X3233190Y-1214910I0J83312D01*
G03X3149878Y-1131598I-83312J0D01*
G03X3088283Y-1158812I0J-83312D01*
G01Y-1082068D01*
G03X3049929Y-1043714I-38354J0D01*
G01X2969919D01*
G03X2931565Y-1082068I0J-38354D01*
G01Y-1171984D01*
G03X2969919Y-1210338I38354J0D01*
G01X3049929D01*
G03X3067009Y-1206325I0J38354D01*
G03X3066566Y-1214910I82868J-8585D01*
G03X3149878Y-1298222I83312J0D01*
G01X2542646Y-285000D02*
G03X2581000Y-323354I38354J0D01*
G01X2751000D01*
G03X2789354Y-285000I0J38354D01*
G01Y-115000D01*
G03X2751000Y-76646I-38354J0D01*
G01X2581000D01*
G03X2542646Y-115000I0J-38354D01*
G01Y-285000D01*
G01X1396000Y-323354D02*
G03X1519354Y-200000I0J123354D01*
G03X1396000Y-76646I-123354J0D01*
G03X1272646Y-200000I0J-123354D01*
G03X1396000Y-323354I123354J0D01*
G01X1142000Y-323354D02*
G03X1265354Y-200000I0J123354D01*
G03X1142000Y-76646I-123354J0D01*
G03X1018646Y-200000I0J-123354D01*
G03X1142000Y-323354I123354J0D01*
G01X888000Y-323354D02*
G03X1011354Y-200000I0J123354D01*
G03X888000Y-76646I-123354J0D01*
G03X764646Y-200000I0J-123354D01*
G03X888000Y-323354I123354J0D01*
G01X634000Y-323354D02*
G03X757354Y-200000I0J123354D01*
G03X634000Y-76646I-123354J0D01*
G03X510646Y-200000I0J-123354D01*
G03X634000Y-323354I123354J0D01*
G01X1650000Y-323354D02*
G03X1773354Y-200000I0J123354D01*
G03X1650000Y-76646I-123354J0D01*
G03X1526646Y-200000I0J-123354D01*
G03X1650000Y-323354I123354J0D01*
G01X2158000Y-323354D02*
G03X2281354Y-200000I0J123354D01*
G03X2158000Y-76646I-123354J0D01*
G03X2034646Y-200000I0J-123354D01*
G03X2158000Y-323354I123354J0D01*
G01X2412000Y-323354D02*
G03X2535354Y-200000I0J123354D01*
G03X2412000Y-76646I-123354J0D01*
G03X2288646Y-200000I0J-123354D01*
G03X2412000Y-323354I123354J0D01*
G01X1780646Y-200000D02*
G03X1904000Y-323354I123354J0D01*
G03X2027354Y-200000I0J123354D01*
G03X1904000Y-76646I-123354J0D01*
G03X1780646Y-200000I0J-123354D01*
G01X56683Y-1054100D02*
G03X180000Y-1177417I123317J0D01*
G03X303317Y-1054100I0J123317D01*
G03X180000Y-930783I-123317J0D01*
G03X56683Y-1054100I0J-123317D01*
G01X56683Y-800100D02*
G03X180000Y-923417I123317J0D01*
G03X303317Y-800100I0J123317D01*
G03X180000Y-676783I-123317J0D01*
G03X56683Y-800100I0J-123317D01*
G01X3254766Y-1755763D02*
G01X3261646Y-1748883D01*
G01X3135528Y-1767238D02*
G01X3141655Y-1761112D01*
G01X3151876Y-1750890D02*
G01X3261646Y-1641120D01*
G01X3064874Y-1730129D02*
G01X3186647Y-1608356D01*
G01X525594Y-4161646D02*
G01X546222Y-4141018D01*
G01X3010961Y-1676279D02*
G01X3112121Y-1575119D01*
G01X3215536Y-1471704D02*
G01X3261646Y-1425594D01*
G01X417831Y-4161646D02*
G01X492341Y-4087137D01*
G01X2957080Y-1622397D02*
G01X3023191Y-1556286D01*
G01X3088283Y-1491194D02*
G01X3117587Y-1461890D01*
G01X3226678Y-1352799D02*
G01X3261646Y-1317831D01*
G01X310068Y-4161646D02*
G01X438459Y-4033255D01*
G01X3167952Y-1303762D02*
G01X3178599Y-1293115D01*
G01X3228082Y-1243632D02*
G01X3261646Y-1210068D01*
G01X216116Y-4147835D02*
G01X384577Y-3979373D01*
G01X2870221Y-1493730D02*
G01X2931565Y-1432386D01*
G01X2974289Y-1389662D02*
G01X3090550Y-1273400D01*
G01X3208368Y-1155582D02*
G01X3235655Y-1128296D01*
G01X145228Y-4110960D02*
G01X330696Y-3925492D01*
G01X2824595Y-1431593D02*
G01X3045850Y-1210338D01*
G01X3118424Y-1137764D02*
G01X3132293Y-1123895D01*
G01X91007Y-4057418D02*
G01X304946Y-3843479D01*
G01X2738979Y-1409446D02*
G01X2946256Y-1202169D01*
G01X3083989Y-1064435D02*
G01X3111778Y-1036647D01*
G01X3156781Y-991644D02*
G01X3261646Y-886779D01*
G01X53351Y-3987310D02*
G01X304946Y-3735716D01*
G01X751216Y-3289446D02*
G01X754635Y-3286027D01*
G01X2631216Y-1409446D02*
G01X2931565Y-1109097D01*
G01X2996948Y-1043714D02*
G01X3261646Y-779016D01*
G01X38354Y-3894545D02*
G01X177568Y-3755331D01*
G01X741989Y-3190909D02*
G01X781581Y-3151318D01*
G01X2603754Y-1329145D02*
G01X3261646Y-671253D01*
G01X38354Y-3786782D02*
G01X98762Y-3726374D01*
G01X279373Y-3545762D02*
G01X304946Y-3520189D01*
G01X695099Y-3130036D02*
G01X779136Y-3045999D01*
G01X2603754Y-1221382D02*
G01X3261646Y-563490D01*
G01X38354Y-3679018D02*
G01X56262Y-3661111D01*
G01X214111Y-3503262D02*
G01X216019Y-3501354D01*
G01X308354Y-3409019D02*
G01X464215Y-3253158D01*
G01X476332Y-3241041D02*
G01X496981Y-3220392D01*
G01X587336Y-3130036D02*
G01X624279Y-3093093D01*
G01X2592655Y-1124718D02*
G01X3261646Y-455726D01*
G01X38354Y-3571255D02*
G01X108255Y-3501354D01*
G01X482192Y-3127417D02*
G01X513655Y-3095955D01*
G01X2618282Y-991328D02*
G01X3261646Y-347963D01*
G01X38354Y-3463492D02*
G01X51646Y-3450200D01*
G01X439536Y-3062310D02*
G01X496981Y-3004865D01*
G01X2565552Y-936294D02*
G01X3255984Y-245862D01*
G01X38354Y-3355729D02*
G01X51646Y-3342437D01*
G01X149437Y-3244646D02*
G01X285485Y-3108599D01*
G01X331773Y-3062310D02*
G01X455551Y-2938532D01*
G01X2502435Y-891648D02*
G01X3225973Y-168110D01*
G01X38354Y-3247966D02*
G01X347317Y-2939004D01*
G01X2580564Y-705756D02*
G01X3178045Y-108275D01*
G01X38354Y-3140203D02*
G01X285485Y-2893073D01*
G01X2332419Y-846139D02*
G01X2405979Y-772578D01*
G01X2580016Y-598541D02*
G01X3114042Y-64515D01*
G01X38354Y-3032440D02*
G01X285485Y-2785309D01*
G01X328498Y-2742296D02*
G01X329946Y-2740848D01*
G01X2320544Y-750250D02*
G01X2403903Y-666891D01*
G01X2576979Y-493815D02*
G01X2747440Y-323354D01*
G01X2789354Y-281440D02*
G01X3030640Y-40154D01*
G01X38354Y-2924677D02*
G01X329946Y-2633085D01*
G01X1927406Y-1035625D02*
G01X1963646Y-999385D01*
G01X2297985Y-665046D02*
G01X2403856Y-559175D01*
G01X2491381Y-471650D02*
G01X2639677Y-323354D01*
G01X2789354Y-173677D02*
G01X2924677Y-38354D01*
G01X38354Y-2816914D02*
G01X259721Y-2595547D01*
G01X1932431Y-922837D02*
G01X1966692Y-888576D01*
G01X2240299Y-614969D02*
G01X2245962Y-609306D01*
G01X2320544Y-534724D02*
G01X2549050Y-306218D01*
G01X2772218Y-83050D02*
G01X2816914Y-38354D01*
G01X38354Y-2709151D02*
G01X151958Y-2595547D01*
G01X1872159Y-875346D02*
G01X2014983Y-732522D01*
G01X2040622Y-706883D02*
G01X2057146Y-690359D01*
G01X2275855Y-471650D02*
G01X2424819Y-322686D01*
G01X2534686Y-212819D02*
G01X2542646Y-204859D01*
G01X2670859Y-76646D02*
G01X2709151Y-38354D01*
G01X38354Y-2601388D02*
G01X111223Y-2528519D01*
G01X220902Y-2418839D02*
G01X254252Y-2385489D01*
G01X1766417Y-873325D02*
G01X1826142Y-813600D01*
G01X1906854Y-732888D02*
G01X1915510Y-724232D01*
G01X2021703Y-618039D02*
G01X2149058Y-490684D01*
G01X2162870Y-476871D02*
G01X2339756Y-299985D01*
G01X2511985Y-127757D02*
G01X2601388Y-38354D01*
G01X38354Y-2493625D02*
G01X146605Y-2385374D01*
G01X1934977Y-597002D02*
G01X2238590Y-293389D01*
G01X2251388Y-280590D02*
G01X2294483Y-237496D01*
G01X2449496Y-82483D02*
G01X2493625Y-38354D01*
G01X38354Y-2385862D02*
G01X111223Y-2312992D01*
G01X508370Y-1915846D02*
G01X577180Y-1847036D01*
G01X1848212Y-576003D02*
G01X2110411Y-313805D01*
G01X2271804Y-152411D02*
G01X2385862Y-38354D01*
G01X38354Y-2278099D02*
G01X144936Y-2171517D01*
G01X286307Y-2030146D02*
G01X334582Y-1981871D01*
G01X400607Y-1915846D02*
G01X478199Y-1838254D01*
G01X1793574Y-522878D02*
G01X2052512Y-263941D01*
G01X2221941Y-94512D02*
G01X2278099Y-38354D01*
G01X38354Y-2170335D02*
G01X118682Y-2090008D01*
G01X178544Y-2030146D02*
G01X404765Y-1803924D01*
G01X566932Y-1641758D02*
G01X593935Y-1614754D01*
G01X1746889Y-461800D02*
G01X1886573Y-322117D01*
G01X2026117Y-182573D02*
G01X2038237Y-170452D01*
G01X2128452Y-80238D02*
G01X2170335Y-38354D01*
G01X38354Y-2062572D02*
G01X404553Y-1696373D01*
G01X459380Y-1641546D02*
G01X486172Y-1614754D01*
G01X616881Y-1484046D02*
G01X664986Y-1435940D01*
G01X1557401Y-543525D02*
G01X1606197Y-494729D01*
G01X1671285Y-429641D02*
G01X1815252Y-285674D01*
G01X1989674Y-111252D02*
G01X2062572Y-38354D01*
G01X38354Y-1954809D02*
G01X154909Y-1838254D01*
G01X281247Y-1711917D02*
G01X436182Y-1556982D01*
G01X509117Y-1484046D02*
G01X822209Y-1170954D01*
G01X1032817Y-960346D02*
G01X1034334Y-958830D01*
G01X1401299Y-591864D02*
G01X1427607Y-565556D01*
G01X1549055Y-444109D02*
G01X1671740Y-321423D01*
G01X1771423Y-221740D02*
G01X1781225Y-211938D01*
G01X1915938Y-77225D02*
G01X1954809Y-38354D01*
G01X38354Y-1847046D02*
G01X84551Y-1800850D01*
G01X243842Y-1641558D02*
G01X527727Y-1357673D01*
G01X922054Y-963346D02*
G01X980452Y-904948D01*
G01X1324048Y-561352D02*
G01X1429596Y-455804D01*
G01X1453770Y-431630D02*
G01X1582291Y-303110D01*
G01X1753110Y-132291D02*
G01X1847046Y-38354D01*
G01X136091Y-1641546D02*
G01X416183Y-1361454D01*
G01X713391Y-1064246D02*
G01X926571Y-851067D01*
G01X1276160Y-501477D02*
G01X1534452Y-243185D01*
G01X1693185Y-84452D02*
G01X1739283Y-38354D01*
G01X38354Y-1631520D02*
G01X308420Y-1361454D01*
G01X415128Y-1254746D02*
G01X872689Y-797185D01*
G01X1187128Y-482746D02*
G01X1353920Y-315954D01*
G01X1511954Y-157920D02*
G01X1631520Y-38354D01*
G01X38354Y-1523757D02*
G01X138049Y-1424062D01*
G01X307365Y-1254746D02*
G01X818807Y-743304D01*
G01X1079365Y-482746D02*
G01X1293493Y-268618D01*
G01X1464618Y-97493D02*
G01X1523757Y-38354D01*
G01X38354Y-1415994D02*
G01X77574Y-1376774D01*
G01X248674Y-1205674D02*
G01X764926Y-689422D01*
G01X971602Y-482746D02*
G01X1131446Y-322902D01*
G01X1264902Y-189446D02*
G01X1274265Y-180083D01*
G01X1376083Y-78265D02*
G01X1415994Y-38354D01*
G01X38354Y-1308231D02*
G01X58282Y-1288302D01*
G01X160202Y-1186383D02*
G01X169607Y-1176978D01*
G01X302878Y-1043707D02*
G01X709282Y-637303D01*
G01X863839Y-482746D02*
G01X1057098Y-289487D01*
G01X1231487Y-115098D02*
G01X1308231Y-38354D01*
G01X38354Y-1200468D02*
G01X95195Y-1143627D01*
G01X269527Y-969295D02*
G01X629368Y-609454D01*
G01X756076Y-482746D02*
G01X919578Y-319243D01*
G01X1007243Y-231578D02*
G01X1020078Y-218743D01*
G01X1160743Y-78079D02*
G01X1200468Y-38354D01*
G01X38354Y-1092705D02*
G01X58129Y-1072930D01*
G01X198830Y-932229D02*
G01X211817Y-919242D01*
G01X299142Y-831917D02*
G01X521605Y-609454D01*
G01X648313Y-482746D02*
G01X825004Y-306055D01*
G01X994055Y-137004D02*
G01X1092705Y-38354D01*
G01X38354Y-984942D02*
G01X117117Y-906179D01*
G01X286079Y-737217D02*
G01X413842Y-609454D01*
G01X540550Y-482746D02*
G01X774645Y-248650D01*
G01X936650Y-86645D02*
G01X984942Y-38354D01*
G01X38354Y-877179D02*
G01X66714Y-848818D01*
G01X228718Y-686814D02*
G01X246116Y-669417D01*
G01X432787Y-482746D02*
G01X597655Y-317878D01*
G01X751878Y-163655D02*
G01X788658Y-126874D01*
G01X814874Y-100658D02*
G01X877179Y-38354D01*
G01X38354Y-769415D02*
G01X80452Y-727318D01*
G01X107217Y-700552D02*
G01X138352Y-669417D01*
G01X326648Y-481122D02*
G01X534652Y-273117D01*
G01X707117Y-100652D02*
G01X769415Y-38354D01*
G01X38354Y-661652D02*
G01X58214Y-641792D01*
G01X275692Y-424314D02*
G01X511151Y-188856D01*
G01X622856Y-77151D02*
G01X661652Y-38354D01*
G01X38354Y-553889D02*
G01X56683Y-535560D01*
G01X169460Y-422783D02*
G01X553889Y-38354D01*
G01X38354Y-446126D02*
G01X446126Y-38354D01*
G01X38354Y-338363D02*
G01X338363Y-38354D01*
G01X51824Y-217130D02*
G01X217130Y-51824D01*
G01X3216723Y-153406D02*
G01X3146594Y-83277D01*
G01X3261646Y-306092D02*
G01X2993908Y-38354D01*
G01X3261646Y-413855D02*
G01X2886145Y-38354D01*
G01X3261646Y-521618D02*
G01X2778382Y-38354D01*
G01X3261646Y-629381D02*
G01X2789354Y-157089D01*
G01X2708911Y-76646D02*
G01X2670619Y-38354D01*
G01X3261646Y-737144D02*
G01X2789354Y-264852D01*
G01X2601148Y-76646D02*
G01X2562856Y-38354D01*
G01X3261646Y-844907D02*
G01X2740092Y-323354D01*
G01X2542646Y-125908D02*
G01X2455093Y-38354D01*
G01X3261646Y-952671D02*
G01X2632329Y-323354D01*
G01X2542646Y-233671D02*
G01X2532993Y-224018D01*
G01X2387982Y-79007D02*
G01X2347329Y-38354D01*
G01X3192856Y-991644D02*
G01X2493664Y-292451D01*
G01X2319549Y-118336D02*
G01X2239566Y-38354D01*
G01X3261646Y-1168197D02*
G01X3221745Y-1128296D01*
G01X3113178Y-1019729D02*
G01X2416713Y-323264D01*
G01X2288736Y-195287D02*
G01X2280692Y-187243D01*
G01X2170757Y-77308D02*
G01X2131803Y-38354D01*
G01X3261646Y-1275960D02*
G01X3228410Y-1242724D01*
G01X3122064Y-1136378D02*
G01X3088283Y-1102597D01*
G01X3029400Y-1043714D02*
G01X2578614Y-592928D01*
G01X2457336Y-471650D02*
G01X2257962Y-272276D01*
G01X2085724Y-100038D02*
G01X2024040Y-38354D01*
G01X3261646Y-1383723D02*
G01X3222894Y-1344971D01*
G01X3189997Y-1312074D02*
G01X3172901Y-1294978D01*
G01X2938293Y-1060370D02*
G01X2580564Y-702641D01*
G01X2403856Y-525933D02*
G01X2195454Y-317530D01*
G01X2040470Y-162546D02*
G01X1997726Y-119803D01*
G01X1984197Y-106274D02*
G01X1916277Y-38354D01*
G01X3241864Y-1471704D02*
G01X3211413Y-1441253D01*
G01X3093715Y-1323555D02*
G01X2980498Y-1210338D01*
G01X2931565Y-1161405D02*
G01X2562625Y-792465D01*
G01X2403856Y-633696D02*
G01X2320544Y-550384D01*
G01X2241810Y-471650D02*
G01X2017788Y-247628D01*
G01X1856372Y-86212D02*
G01X1808514Y-38354D01*
G01X3136576Y-1474179D02*
G01X3127828Y-1465431D01*
G01X3052122Y-1389725D02*
G01X2518299Y-855902D01*
G01X2403856Y-741459D02*
G01X2270755Y-608358D01*
G01X2150621Y-488224D02*
G01X1967906Y-305509D01*
G01X1798491Y-136094D02*
G01X1700751Y-38354D01*
G01X3261646Y-1707012D02*
G01X3162990Y-1608356D01*
G01X3111778Y-1557144D02*
G01X3085893Y-1531259D01*
G01X2949922Y-1395288D02*
G01X2609196Y-1054562D01*
G01X2392216Y-837582D02*
G01X2320145Y-765511D01*
G01X2127313Y-572679D02*
G01X1874379Y-319745D01*
G01X1784256Y-229622D02*
G01X1772110Y-217476D01*
G01X1632524Y-77890D02*
G01X1592988Y-38354D01*
G01X3191152Y-1744281D02*
G01X3005176Y-1558305D01*
G01X2926651Y-1479780D02*
G01X2603754Y-1156883D01*
G01X2338335Y-891464D02*
G01X2331774Y-884903D01*
G01X2073432Y-626561D02*
G01X1735646Y-288775D01*
G01X1561225Y-114354D02*
G01X1485225Y-38354D01*
G01X3078627Y-1739520D02*
G01X2947103Y-1607996D01*
G01X2748554Y-1409446D02*
G01X2603754Y-1264646D01*
G01X2057146Y-718038D02*
G01X2042483Y-703376D01*
G01X1936121Y-597013D02*
G01X1661888Y-322780D01*
G01X1527220Y-188113D02*
G01X1517435Y-178327D01*
G01X1417673Y-78565D02*
G01X1377462Y-38354D01*
G01X2640791Y-1409446D02*
G01X2603754Y-1372409D01*
G01X2000898Y-769553D02*
G01X1972204Y-740859D01*
G01X1660986Y-429641D02*
G01X1499088Y-267743D01*
G01X1328257Y-96912D02*
G01X1269699Y-38354D01*
G01X1966646Y-843064D02*
G01X1906149Y-782567D01*
G01X1609980Y-486398D02*
G01X1439144Y-315563D01*
G01X1280437Y-156856D02*
G01X1161936Y-38354D01*
G01X1964107Y-948288D02*
G01X1829419Y-813600D01*
G01X1564455Y-548637D02*
G01X1557401Y-541582D01*
G01X1449278Y-433459D02*
G01X1257940Y-242121D01*
G01X1099879Y-84060D02*
G01X1054173Y-38354D01*
G01X1963646Y-1055591D02*
G01X1926837Y-1018781D01*
G01X1784487Y-876432D02*
G01X1736665Y-828610D01*
G01X1427607Y-519551D02*
G01X1210585Y-302529D01*
G01X1039471Y-131415D02*
G01X946410Y-38354D01*
G01X1678889Y-878596D02*
G01X1670359Y-870067D01*
G01X1392157Y-591864D02*
G01X1122017Y-321725D01*
G01X1020276Y-219983D02*
G01X1010897Y-210605D01*
G01X877395Y-77103D02*
G01X838646Y-38354D01*
G01X1175275Y-482746D02*
G01X977460Y-284930D01*
G01X803070Y-110540D02*
G01X730883Y-38354D01*
G01X1067512Y-482746D02*
G01X906695Y-321929D01*
G01X766071Y-181305D02*
G01X753263Y-168497D01*
G01X665503Y-80737D02*
G01X623120Y-38354D01*
G01X959749Y-482746D02*
G01X740034Y-263031D01*
G01X570969Y-93966D02*
G01X515357Y-38354D01*
G01X851986Y-482746D02*
G01X682612Y-313372D01*
G01X520629Y-151388D02*
G01X407594Y-38354D01*
G01X744223Y-482746D02*
G01X560663Y-299186D01*
G01X534814Y-273337D02*
G01X299831Y-38354D01*
G01X636460Y-482746D02*
G01X208565Y-54851D01*
G01X1006297Y-960346D02*
G01X659499Y-613548D01*
G01X528697Y-482746D02*
G01X139396Y-93445D01*
G01X901534Y-963346D02*
G01X547642Y-609454D01*
G01X420934Y-482746D02*
G01X86682Y-148494D01*
G01X812710Y-982285D02*
G01X439879Y-609454D01*
G01X253208Y-422783D02*
G01X50773Y-220348D01*
G01X786908Y-1064246D02*
G01X332606Y-609945D01*
G01X145445Y-422783D02*
G01X38354Y-315692D01*
G01X812749Y-1197850D02*
G01X785853Y-1170954D01*
G01X681819Y-1066921D02*
G01X280864Y-665965D01*
G01X60134Y-445236D02*
G01X38354Y-423455D01*
G01X758867Y-1251732D02*
G01X699345Y-1192209D01*
G01X623891Y-1116755D02*
G01X303253Y-796117D01*
G01X183983Y-676847D02*
G01X176553Y-669417D01*
G01X56683Y-549547D02*
G01X38354Y-531218D01*
G01X704986Y-1305613D02*
G01X645463Y-1246091D01*
G01X570009Y-1170637D02*
G01X276389Y-877017D01*
G01X103083Y-703711D02*
G01X38354Y-638982D01*
G01X664986Y-1373377D02*
G01X591582Y-1299972D01*
G01X516128Y-1224518D02*
G01X290032Y-998423D01*
G01X235677Y-944067D02*
G01X211053Y-919443D01*
G01X60657Y-769047D02*
G01X38354Y-746745D01*
G01X664986Y-1481140D02*
G01X536836Y-1352990D01*
G01X438592Y-1254746D02*
G01X291217Y-1107371D01*
G01X126729Y-942883D02*
G01X38354Y-854508D01*
G01X560141Y-1484058D02*
G01X437537Y-1361454D01*
G01X330829Y-1254746D02*
G01X238657Y-1162573D01*
G01X71527Y-995443D02*
G01X38354Y-962271D01*
G01X603483Y-1635163D02*
G01X583074Y-1614754D01*
G01X456743Y-1488423D02*
G01X329774Y-1361454D01*
G01X155551Y-1187231D02*
G01X138569Y-1170249D01*
G01X63851Y-1095531D02*
G01X38354Y-1070034D01*
G01X502103Y-1641546D02*
G01X475311Y-1614754D01*
G01X436182Y-1575624D02*
G01X261342Y-1400785D01*
G01X87315Y-1226758D02*
G01X38354Y-1177797D01*
G01X411166Y-1658371D02*
G01X184141Y-1431347D01*
G01X56752Y-1303958D02*
G01X38354Y-1285560D01*
G01X568728Y-1923697D02*
G01X483285Y-1838254D01*
G01X404553Y-1759522D02*
G01X38354Y-1393323D01*
G01X453574Y-1916306D02*
G01X281247Y-1743979D01*
G01X178814Y-1641546D02*
G01X38354Y-1501086D01*
G01X351740Y-1922235D02*
G01X262417Y-1832912D01*
G01X89880Y-1660376D02*
G01X38354Y-1608849D01*
G01X334904Y-2013162D02*
G01X159996Y-1838254D01*
G01X244124Y-2030146D02*
G01X38354Y-1824375D01*
G01X140236Y-2034021D02*
G01X38354Y-1932138D01*
G01X118682Y-2120229D02*
G01X38354Y-2039901D01*
G01X284868Y-2394179D02*
G01X276179Y-2385489D01*
G01X117225Y-2226535D02*
G01X38354Y-2147665D01*
G01X201766Y-2418839D02*
G01X168416Y-2385489D01*
G01X111223Y-2328297D02*
G01X38354Y-2255428D01*
G01X781581Y-3106418D02*
G01X741912Y-3066749D01*
G01X329946Y-2654783D02*
G01X270711Y-2595547D01*
G01X115250Y-2440086D02*
G01X38354Y-2363191D01*
G01X781581Y-3214181D02*
G01X741989Y-3174589D01*
G01X697437Y-3130036D02*
G01X670071Y-3102670D01*
G01X311676Y-2744275D02*
G01X162947Y-2595547D01*
G01X111223Y-2543823D02*
G01X38354Y-2470954D01*
G01X749083Y-3289446D02*
G01X741989Y-3282352D01*
G01X589675Y-3130038D02*
G01X562308Y-3102670D01*
G01X496981Y-3037344D02*
G01X398641Y-2939004D01*
G01X285485Y-2825847D02*
G01X38354Y-2578717D01*
G01X501747Y-3149873D02*
G01X482192Y-3130318D01*
G01X414184Y-3062310D02*
G01X38354Y-2686480D01*
G01X497442Y-3253331D02*
G01X479325Y-3235214D01*
G01X309288Y-3065177D02*
G01X38354Y-2794243D01*
G01X462767Y-3326419D02*
G01X400872Y-3264524D01*
G01X283660Y-3147312D02*
G01X38354Y-2902006D01*
G01X409118Y-3380533D02*
G01X336601Y-3308016D01*
G01X244984Y-3216399D02*
G01X38354Y-3009769D01*
G01X355236Y-3434415D02*
G01X308354Y-3387532D01*
G01X165468Y-3244646D02*
G01X38354Y-3117532D01*
G01X307212Y-3494154D02*
G01X299980Y-3486921D01*
G01X66079Y-3253020D02*
G01X38354Y-3225295D01*
G01X206763Y-3501468D02*
G01X206650Y-3501354D01*
G01X51646Y-3346350D02*
G01X38354Y-3333058D01*
G01X304946Y-3707413D02*
G01X290252Y-3692720D01*
G01X114280Y-3516748D02*
G01X98886Y-3501354D01*
G01X51646Y-3454114D02*
G01X38354Y-3440821D01*
G01X304946Y-3815177D02*
G01X233460Y-3743691D01*
G01X63309Y-3573540D02*
G01X38354Y-3548585D01*
G01X543652Y-4161646D02*
G01X124961Y-3742954D01*
G01X64046Y-3682039D02*
G01X38354Y-3656348D01*
G01X435889Y-4161646D02*
G01X38354Y-3764111D01*
G01X328126Y-4161646D02*
G01X38354Y-3871874D01*
G01X200849Y-4142131D02*
G01X57869Y-3999151D01*
G01X2862950Y-4161646D02*
G01X2914998Y-4109598D01*
G03X2933554Y-4064800I-44798J44798D01*
G01Y-3649042D01*
G01X2991646Y-3590950D01*
G01Y-3717000D01*
G03X3030000Y-3755354I38354J0D01*
G01X3210000D01*
G03X3248354Y-3717000I0J38354D01*
G01Y-3537000D01*
G03X3210000Y-3498646I-38354J0D01*
G01X3146225D01*
G03X3248354Y-3373000I-26225J125646D01*
G03X3128149Y-3244905I-128354J0D01*
G01X3127927Y-3244891D01*
G03X3121049Y-3244651I-7927J-128109D01*
G01X3120397Y-3244629D01*
G01X3119132Y-3244608D01*
G01X3118254Y-3244618D01*
G01X3112153Y-3244758D01*
G01X3109976Y-3244870D01*
G01X3101493Y-3245548D01*
G01X3099717Y-3245731D01*
G01X3083114Y-3247840D01*
G01X3080322Y-3248080D01*
G01X3079079Y-3248124D01*
G01X3078191Y-3248105D01*
G01X3077977Y-3247970D01*
G01X3077456Y-3247601D01*
G01X3076898Y-3247159D01*
G01X3074918Y-3245384D01*
G01X3074472Y-3244947D01*
G01X3059224Y-3229700D01*
G01X3057688Y-3228071D01*
G01X3055543Y-3225500D01*
G01X3053289Y-3222455D01*
G01X3050111Y-3217620D01*
G01X3046986Y-3212258D01*
G01X3043249Y-3204990D01*
G01X3039847Y-3197391D01*
G01X3036886Y-3189700D01*
G01X3034458Y-3182152D01*
G01X3032957Y-3176374D01*
G01X3032142Y-3172358D01*
G01X3031603Y-3168667D01*
G01X3031426Y-3166672D01*
G01X3031354Y-3164408D01*
G01Y-3156286D01*
G01X3049929D01*
G03X3088283Y-3117932I0J38354D01*
G01Y-3041188D01*
G03X3149878Y-3068402I61595J56098D01*
G03X3233190Y-2985090I0J83312D01*
G03X3149878Y-2901778I-83312J0D01*
G03X3066566Y-2985090I0J-83312D01*
G03X3067009Y-2993675I83312J0D01*
G03X3049929Y-2989662I-17081J-34341D01*
G01X2969919D01*
G03X2931565Y-3028016I0J-38354D01*
G01Y-3087386D01*
G03X2929323Y-3099798I48735J-15211D01*
G01X2915854Y-3086329D01*
G01Y-2828600D01*
G01Y-2768600D01*
G03X2898762Y-2727338I-58354J0D01*
G01X2759773Y-2588348D01*
G03X2718511Y-2571257I-41262J-41262D01*
G02X2693060Y-2561529I0J38158D01*
G03X2667479Y-2551752I-25581J-28577D01*
G01X2613479D01*
G03X2581878Y-2568371I0J-38354D01*
G03X2553179Y-2555460I-28699J-25444D01*
G01X2507841D01*
G01X2553083Y-2510218D01*
G01X2554300D01*
G03X2581178Y-2499226I0J38354D01*
G02X2592400Y-2494636I11223J-11424D01*
G01X2809126D01*
G03X2845226Y-2479682I0J51054D01*
G01X2853693Y-2471215D01*
G01X2853740Y-2471168D01*
G02X2883579Y-2455461I40232J-40232D01*
G01X2955600D01*
G03X2993661Y-2421834I0J38354D01*
G02X3009265Y-2420919I36939J-496241D01*
G02X3047505Y-2441743I-7365J-59045D01*
G03X3076900Y-2455461I29395J24636D01*
G01X3187446D01*
G01Y-2477303D01*
G01X3036789Y-2627960D01*
G01X3036742Y-2628007D01*
G02X3006903Y-2643714I-40232J40232D01*
G01X2969919D01*
G03X2931565Y-2682068I0J-38354D01*
G01Y-2771984D01*
G03X2969919Y-2810338I38354J0D01*
G01X3049929D01*
G03X3067009Y-2806325I0J38354D01*
G03X3066566Y-2814910I82868J-8585D01*
G03X3149878Y-2898222I83312J0D01*
G03X3233190Y-2814910I0J83312D01*
G03X3149878Y-2731598I-83312J0D01*
G03X3088283Y-2758812I0J-83312D01*
G01Y-2735000D01*
G02X3103990Y-2705161I55939J-10393D01*
G01X3104037Y-2705114D01*
G01X3112389Y-2696762D01*
G03X3150132Y-2728296I37743J6820D01*
G01X3261646D01*
G01Y-3071704D01*
G01X3150132D01*
G03X3111778Y-3110058I0J-38354D01*
G01Y-3170002D01*
G03X3150132Y-3208356I38354J0D01*
G01X3261646D01*
G01Y-3900000D01*
G02X3000000Y-4161646I-261646J0D01*
G01X2862950D01*
G01X3004178Y-4161613D02*
G01X3261613Y-3904178D01*
G01X2896382Y-4161646D02*
G01X3261646Y-3796382D01*
G01X2933554Y-4016711D02*
G01X3194911Y-3755354D01*
G01X3248354Y-3701911D02*
G01X3261646Y-3688619D01*
G01X2933554Y-3908948D02*
G01X3087148Y-3755354D01*
G01X3248354Y-3594148D02*
G01X3261646Y-3580856D01*
G01X2933554Y-3801185D02*
G01X2997451Y-3737287D01*
G01X3230287Y-3504451D02*
G01X3261646Y-3473093D01*
G01X2933554Y-3693422D02*
G01X2991646Y-3635329D01*
G01X3248225Y-3378750D02*
G01X3261646Y-3365329D01*
G01X3222915Y-3296298D02*
G01X3261646Y-3257566D01*
G01X3160309Y-3251140D02*
G01X3203093Y-3208356D01*
G01X3066606Y-3237081D02*
G01X3116065Y-3187622D01*
G01X3231982Y-3071704D02*
G01X3261646Y-3042040D01*
G01X3031359Y-3164564D02*
G01X3039637Y-3156286D01*
G01X3088283Y-3107640D02*
G01X3129942Y-3065982D01*
G01X3230769Y-2965154D02*
G01X3261646Y-2934277D01*
G01X3180536Y-2907624D02*
G01X3261646Y-2826514D01*
G01X2915854Y-3064543D02*
G01X2931565Y-3048832D01*
G01X2990735Y-2989662D02*
G01X3099291Y-2881106D01*
G01X3216074Y-2764323D02*
G01X3252101Y-2728296D01*
G01X2915854Y-2956780D02*
G01X3065679Y-2806955D01*
G01X3140507Y-2732127D02*
G01X3144721Y-2727913D01*
G01X2915854Y-2849017D02*
G01X2956834Y-2808037D01*
G01X2911243Y-2745865D02*
G01X2931565Y-2725543D01*
G01X3015810Y-2641298D02*
G01X3187446Y-2469662D01*
G01X2860385Y-2688960D02*
G01X3093884Y-2455461D01*
G01X2806503Y-2635078D02*
G01X3018700Y-2422882D01*
G01X2751997Y-2581821D02*
G01X2876597Y-2457222D01*
G01X2673782Y-2552274D02*
G01X2731420Y-2494636D01*
G01X2561841Y-2556451D02*
G01X2623657Y-2494636D01*
G01X3178639Y-2486110D02*
G01X3147991Y-2455461D01*
G01X3124757Y-2539991D02*
G01X3005844Y-2421077D01*
G01X3261646Y-2784643D02*
G01X3205299Y-2728296D01*
G01X3070876Y-2593873D02*
G01X2932464Y-2455461D01*
G01X3261646Y-2892406D02*
G01X3223377Y-2854137D01*
G01X3110651Y-2741411D02*
G01X3092015Y-2722774D01*
G01X3011814Y-2642574D02*
G01X2847074Y-2477834D01*
G01X3261646Y-3000169D02*
G01X3231886Y-2970409D01*
G01X3164559Y-2903082D02*
G01X3159178Y-2897701D01*
G01X2933033Y-2671556D02*
G01X2756113Y-2494636D01*
G01X3225418Y-3071704D02*
G01X3202991Y-3049277D01*
G01X3085691Y-2931977D02*
G01X2963513Y-2809799D01*
G01X2932104Y-2778390D02*
G01X2915449Y-2761735D01*
G01X2725376Y-2571662D02*
G01X2648350Y-2494636D01*
G01X3261646Y-3215695D02*
G01X3254307Y-3208356D01*
G01X3126110Y-3080159D02*
G01X3088283Y-3042332D01*
G01X3035613Y-2989662D02*
G01X2915854Y-2869903D01*
G01X2600109Y-2554158D02*
G01X2556126Y-2510175D01*
G01X3261646Y-3323458D02*
G01X3146358Y-3208170D01*
G01X3111964Y-3173776D02*
G01X3079968Y-3141780D01*
G01X2941005Y-3002817D02*
G01X2915854Y-2977666D01*
G01X3261646Y-3431221D02*
G01X3242319Y-3411894D01*
G01X3078537Y-3248112D02*
G01X3054455Y-3224030D01*
G01X2929376Y-3098952D02*
G01X2915854Y-3085429D01*
G01X3261646Y-3538984D02*
G01X3245737Y-3523075D01*
G01X3223925Y-3501264D02*
G01X3197771Y-3475110D01*
G01X3261646Y-3646747D02*
G01X3248354Y-3633455D01*
G01X3261646Y-3754510D02*
G01X3243251Y-3736115D01*
G01X3261646Y-3862274D02*
G01X3154726Y-3755354D01*
G01X2991646Y-3592274D02*
G01X2990984Y-3591612D01*
G01X3254079Y-3962470D02*
G01X3046963Y-3755354D01*
G01X2991646Y-3700037D02*
G01X2937103Y-3645493D01*
G01X3222122Y-4038276D02*
G01X2933554Y-3749708D01*
G01X3172666Y-4096583D02*
G01X2933554Y-3857471D01*
G01X3107060Y-4138740D02*
G01X2933554Y-3965234D01*
G01X3021332Y-4160775D02*
G01X2933081Y-4072524D01*
G01X2914440Y-4161646D02*
G01X2888695Y-4135901D01*
G01X1719389Y-4022087D02*
G01X1525934Y-3828632D01*
G01Y-3729432D01*
G01X1540145D01*
G03X1550102Y-3728118I0J38354D01*
G03X1560059Y-3729432I9957J37039D01*
G01X1573940D01*
G01Y-3796694D01*
G03X1588893Y-3832794I51054J0D01*
G01X1665699Y-3909601D01*
G03X1701800Y-3924554I36101J36101D01*
G01X2032000D01*
G03X2068101Y-3909601I0J51054D01*
G01X2106578Y-3871124D01*
G01Y-3963921D01*
G03X2144932Y-4002275I38354J0D01*
G01X2344931D01*
G03X2370715Y-3992316I0J38354D01*
G01X2389599Y-4011201D01*
G03X2405733Y-4022087I36101J36101D01*
G01X1719389D01*
G01X2389362Y-4022087D02*
G01X2395319Y-4016130D01*
G01X2281599Y-4022087D02*
G01X2301411Y-4002275D01*
G01X2173836Y-4022087D02*
G01X2193648Y-4002275D01*
G01X2066073Y-4022087D02*
G01X2109516Y-3978644D01*
G01X1958310Y-4022087D02*
G01X2106578Y-3873819D01*
G01X1850546Y-4022087D02*
G01X1948080Y-3924554D01*
G01X1742783Y-4022087D02*
G01X1840317Y-3924554D01*
G01X1677205Y-3979903D02*
G01X1732554Y-3924554D01*
G01X1623323Y-3926022D02*
G01X1652722Y-3896623D01*
G01X1569441Y-3872140D02*
G01X1598840Y-3842741D01*
G01X1525934Y-3807885D02*
G01X1573940Y-3759879D01*
G01X2343829Y-4022087D02*
G01X2324017Y-4002275D01*
G01X2236066Y-4022087D02*
G01X2216254Y-4002275D01*
G01X2106578Y-3892599D02*
G01X2095840Y-3881861D01*
G01X2128303Y-4022087D02*
G01X2030770Y-3924554D01*
G01X2020540Y-4022087D02*
G01X1923007Y-3924554D01*
G01X1912777Y-4022087D02*
G01X1815243Y-3924554D01*
G01X1805014Y-4022087D02*
G01X1707480Y-3924554D01*
G01X1573940Y-3791013D02*
G01X1525934Y-3743007D01*
G01X556946Y-3957764D02*
G03X563292Y-3978896I38354J0D01*
G01X431654Y-3847258D01*
G01Y-3537189D01*
G01X455746Y-3513097D01*
G01X455776Y-3513067D01*
G01X455790Y-3513053D01*
G01X532259Y-3436584D01*
G01X532273Y-3436570D01*
G01X532302Y-3436541D01*
G01X574073Y-3394770D01*
G01X589335D01*
G03X614623Y-3385253I0J38354D01*
G02X635335Y-3392005I-39988J-157813D01*
G03X649635Y-3394770I14300J35588D01*
G01X664330D01*
G02X667725Y-3397598I-13786J-20009D01*
G01X667748Y-3397621D01*
G03X712523Y-3416154I44775J44821D01*
G01X753869D01*
G01Y-3425100D01*
G03X810424Y-3481654I56554J0D01*
G03X825246Y-3479677I0J56554D01*
G01Y-3515039D01*
G03X817946Y-3543300I51054J-28261D01*
G03X876300Y-3601654I58354J0D01*
G03X925611Y-3574503I0J58354D01*
G03X939800Y-3576254I14189J56603D01*
G03X994755Y-3537525I0J58354D01*
G03X1003300Y-3538154I8545J57725D01*
G03X1061654Y-3479800I0J58354D01*
G03X1057551Y-3458305I-58354J0D01*
G01X1060541Y-3437859D01*
G03X1061999Y-3425100I-55096J12759D01*
G01Y-3295301D01*
G03X1025720Y-3242506I-56554J0D01*
G03X1034288Y-3218344I-29786J24162D01*
G01Y-3075845D01*
G03X1025720Y-3051683I-38354J0D01*
G03X1061999Y-2998888I-20275J52795D01*
G01Y-2869089D01*
G03X1005445Y-2812534I-56554J0D01*
G03X998636Y-2812946I0J-56554D01*
G03X998919Y-2808300I-38072J4646D01*
G01Y-2754300D01*
G01X998918Y-2754193D01*
G01X1097132Y-2852407D01*
G01Y-3229991D01*
G03X1112086Y-3266092I51054J0D01*
G01X1323877Y-3477883D01*
G01Y-3502725D01*
G01X1309996D01*
G03X1299975Y-3504057I0J-38354D01*
G03X1289955Y-3502725I-10020J-37022D01*
G01X1259958D01*
G03X1250001Y-3504040I0J-38354D01*
G03X1240044Y-3502725I-9957J-37039D01*
G01X1210047D01*
G03X1171693Y-3541079I0J-38354D01*
G01Y-3691078D01*
G03X1171942Y-3695446I38354J0D01*
G01X858418D01*
G03X822318Y-3710399I0J-51054D01*
G01X772190Y-3760527D01*
G01X772143Y-3760574D01*
G02X749150Y-3774564I-40232J40232D01*
G01X622300D01*
G03X607076Y-3776281I0J-68354D01*
G01X595300D01*
G03X556946Y-3814635I0J-38354D01*
G01Y-3814636D01*
G01Y-3822891D01*
G03X553946Y-3842918I65354J-20027D01*
G03X556946Y-3862946I68354J0D01*
G01Y-3871201D01*
G03X560000Y-3886200I38354J0D01*
G03X556946Y-3901199I35300J-14999D01*
G01Y-3957764D01*
G01X1099557Y-3695446D02*
G01X1171693Y-3623311D01*
G01X1292212Y-3502791D02*
G01X1320499Y-3474505D01*
G01X991794Y-3695446D02*
G01X1266617Y-3420623D01*
G01X884031Y-3695446D02*
G01X1212735Y-3366742D01*
G01X528055Y-3943659D02*
G01X556946Y-3914768D01*
G01X697150Y-3774564D02*
G01X870363Y-3601351D01*
G01X1061999Y-3409715D02*
G01X1158854Y-3312860D01*
G01X474173Y-3889777D02*
G01X557925Y-3806026D01*
G01X586691Y-3777260D02*
G01X818006Y-3545945D01*
G01X1061999Y-3301952D02*
G01X1105680Y-3258271D01*
G01X431654Y-3824534D02*
G01X782124Y-3474064D01*
G01X1034105Y-3222082D02*
G01X1097132Y-3159056D01*
G01X431654Y-3716771D02*
G01X732271Y-3416154D01*
G01X1034288Y-3114137D02*
G01X1097132Y-3051293D01*
G01X431654Y-3609008D02*
G01X646058Y-3394603D01*
G01X1061999Y-2978662D02*
G01X1097132Y-2943530D01*
G01X1061999Y-2870899D02*
G01X1088812Y-2844087D01*
G01X1012197Y-2812939D02*
G01X1034930Y-2790205D01*
G01X1097132Y-2883154D02*
G01X1053894Y-2839915D01*
G01X1034618Y-2820640D02*
G01X998919Y-2784940D01*
G01X1097132Y-2990917D02*
G01X1061999Y-2955784D01*
G01X1097132Y-3098680D02*
G01X1041177Y-3042724D01*
G01X1097132Y-3206443D02*
G01X1034288Y-3143599D01*
G01X1285651Y-3502725D02*
G01X1058416Y-3275490D01*
G01X1186201Y-3511038D02*
G01X1061999Y-3386836D01*
G01X1171693Y-3604292D02*
G01X1060190Y-3492790D01*
G01X1155083Y-3695446D02*
G01X997502Y-3537865D01*
G01X1047320Y-3695446D02*
G01X926620Y-3574746D01*
G01X939557Y-3695446D02*
G01X636598Y-3392487D01*
G01X836662Y-3700314D02*
G01X552595Y-3416248D01*
G01X780651Y-3752066D02*
G01X498714Y-3470129D01*
G01X695386Y-3774564D02*
G01X444832Y-3524011D01*
G01X589745Y-3776686D02*
G01X431654Y-3618595D01*
G01X554210Y-3848914D02*
G01X431654Y-3726358D01*
G01X556983Y-3959450D02*
G01X431654Y-3834121D01*
G01X1193422Y-3962146D02*
G01X1193422Y-3803922D01*
G03X1192890Y-3797554I-38354J0D01*
G01X1216339D01*
G03X1244600Y-3804854I28261J51054D01*
G03X1273966Y-3796927I0J58354D01*
G01Y-3962146D01*
G01X1193422D01*
G01X1263910Y-3962146D02*
G01X1273966Y-3952090D01*
G01X1193422Y-3924870D02*
G01X1273966Y-3844327D01*
G01X1193422Y-3817107D02*
G01X1212975Y-3797554D01*
G01X1273966Y-3814329D02*
G01X1261875Y-3802238D01*
G01X1273966Y-3922092D02*
G01X1193422Y-3841548D01*
G01X1206257Y-3962146D02*
G01X1193422Y-3949311D01*
G01X916715Y-3803922D02*
G01X916715Y-3962146D01*
G01X827103D01*
G03X827354Y-3957764I-38103J4382D01*
G01Y-3901199D01*
G03X824300Y-3886200I-38354J0D01*
G03X827354Y-3871201I-35300J14999D01*
G01Y-3863897D01*
G02X843061Y-3834058I55939J-10393D01*
G01X843108Y-3834011D01*
G01X879566Y-3797554D01*
G01X917247D01*
G03X916715Y-3803922I37822J-6368D01*
G01X832857Y-3962146D02*
G01X916715Y-3878289D01*
G01X828588Y-3858652D02*
G01X889686Y-3797554D01*
G01X916715Y-3888130D02*
G01X852852Y-3824267D01*
G01X882968Y-3962146D02*
G01X827354Y-3906532D01*
G01X2806846Y-3622800D02*
G01X2806846Y-3752567D01*
G03X2795600Y-3750881I-11246J-36668D01*
G01X2745724D01*
G03X2730500Y-3749164I-15224J-66637D01*
G01X2654300D01*
G01X2611686D01*
G01X2609446Y-3745597D01*
G03X2552700Y-3700846I-56746J-13603D01*
G03X2494888Y-3751265I0J-58354D01*
G03X2490515Y-3752151I5412J-37970D01*
G03X2487201Y-3748499I-39415J-32449D01*
G01X2436401Y-3697699D01*
G03X2400300Y-3682746I-36101J-36101D01*
G01X2128409D01*
G01Y-3541079D01*
G03X2127021Y-3530854I-38354J0D01*
G01X2187000D01*
G02X2200143Y-3531224I-0J-233918D01*
G03X2225100Y-3540454I24957J29124D01*
G01X2350101D01*
G03X2388455Y-3502100I0J38354D01*
G01Y-3432100D01*
G03X2350101Y-3393746I-38354J0D01*
G01X2225100D01*
G03X2186893Y-3428746I0J-38354D01*
G01X2057400D01*
G03X2021299Y-3443699I0J-51054D01*
G01X1999639Y-3465360D01*
G03X1984362Y-3438538I-56539J-14440D01*
G01X1831133Y-3285308D01*
G03X1849628Y-3290062I18495J33600D01*
G01X2061972D01*
G03X2100326Y-3251708I0J38354D01*
G01Y-2869692D01*
G03X2061972Y-2831338I-38354J0D01*
G01X2032809D01*
G02X2025733Y-2809692I29570J21646D01*
G01Y-2770148D01*
G03X2054877Y-2783570I29144J24932D01*
G01X2074877D01*
G03X2087877Y-2781300I0J38354D01*
G03X2100877Y-2783570I13000J36084D01*
G01X2120877D01*
G03X2133876Y-2781300I0J38354D01*
G03X2146876Y-2783570I13000J36084D01*
G01X2166876D01*
G03X2179876Y-2781300I0J38354D01*
G03X2192875Y-2783570I13000J36084D01*
G01X2212875D01*
G03X2251229Y-2745216I0J38354D01*
G01Y-2730104D01*
G01X2253046Y-2731920D01*
G01Y-2809692D01*
G02X2245970Y-2831338I-36646J0D01*
G01X2205228D01*
G03X2166874Y-2869692I0J-38354D01*
G01Y-3251708D01*
G03X2205228Y-3290062I38354J0D01*
G01X2417572D01*
G03X2455926Y-3251708I0J38354D01*
G01Y-2869692D01*
G03X2417572Y-2831338I-38354J0D01*
G01X2376830D01*
G02X2370580Y-2817430I29570J21646D01*
G03X2384879Y-2820195I14299J35589D01*
G01X2438879D01*
G03X2469029Y-2805547I0J38354D01*
G03X2499179Y-2820195I30150J23707D01*
G01X2553179D01*
G03X2584780Y-2803576I0J38354D01*
G03X2613479Y-2816486I28699J25444D01*
G01X2667479D01*
G03X2705833Y-2778132I0J38354D01*
G01Y-2699458D01*
G01X2796301Y-2789926D01*
G01X2799146Y-2829961D01*
G01Y-2862873D01*
G03X2794000Y-2862646I-5146J-58127D01*
G03X2735646Y-2921000I0J-58354D01*
G03X2742946Y-2949261I58354J0D01*
G01Y-3402671D01*
G01X2664490Y-3481127D01*
G01X2664443Y-3481174D01*
G02X2634604Y-3496881I-40232J40232D01*
G01X2627300D01*
G03X2597664Y-3510889I0J-38354D01*
G02X2589200Y-3511042I-8465J233765D01*
G01X2588200D01*
G02X2584585Y-3510308I0J9271D01*
G03X2550100Y-3488742I-34485J-16788D01*
G01X2425099D01*
G03X2386745Y-3527096I0J-38354D01*
G01Y-3597096D01*
G03X2425099Y-3635450I38354J0D01*
G01X2550100D01*
G03X2584585Y-3613884I0J38354D01*
G02X2588200Y-3613150I3615J-8537D01*
G01X2589200D01*
G01X2589933Y-3613151D01*
G03X2588946Y-3621799I37366J-8648D01*
G01Y-3678364D01*
G03X2627300Y-3716718I38354J0D01*
G01X2681300D01*
G03X2719654Y-3678364I0J38354D01*
G01Y-3621799D01*
G03X2716600Y-3606800I-38354J0D01*
G03X2719654Y-3591801I-35300J14999D01*
G01Y-3584497D01*
G02X2735361Y-3554658I55939J-10393D01*
G01X2735408Y-3554611D01*
G01X2830101Y-3459919D01*
G03X2845054Y-3423818I-36101J36101D01*
G01Y-3180579D01*
G01X2939038Y-3274563D01*
G01X2991660Y-3327185D01*
G01X2993775Y-3329440D01*
G01X2994339Y-3330116D01*
G01X2994810Y-3330744D01*
G01X2995088Y-3331160D01*
G01X2995097Y-3331176D01*
G01X2995123Y-3331754D01*
G01X2995104Y-3332792D01*
G01X2994928Y-3335203D01*
G01X2993039Y-3350036D01*
G01X2992916Y-3351129D01*
G01X2992106Y-3359369D01*
G01X2991955Y-3361531D01*
G01X2991646Y-3368982D01*
G01X2991614Y-3370571D01*
G01X2991620Y-3371275D01*
G01X2991641Y-3372406D01*
G01X2991562Y-3374838D01*
G01X2991543Y-3376072D01*
G01X2991564Y-3377338D01*
G01X2992162Y-3395444D01*
G01X2992409Y-3404709D01*
G01X2992334Y-3407049D01*
G01X2992229Y-3408296D01*
G01X2992092Y-3409282D01*
G01X2991956Y-3409949D01*
G01X2991767Y-3410627D01*
G01X2991685Y-3410828D01*
G01X2991579Y-3411051D01*
G01X2991429Y-3411329D01*
G01X2991207Y-3411693D01*
G01X2991019Y-3411969D01*
G01X2990132Y-3413107D01*
G01X2988741Y-3414657D01*
G01X2988420Y-3414984D01*
G01X2825402Y-3578002D01*
G03X2806846Y-3622800I44798J-44798D01*
G01X2550100Y-3445458D02*
G03X2588454Y-3407104I0J38354D01*
G01Y-3337104D01*
G03X2550100Y-3298750I-38354J0D01*
G01X2425099D01*
G03X2386745Y-3337104I0J-38354D01*
G01Y-3407104D01*
G03X2425099Y-3445458I38354J0D01*
G01X2550100D01*
G01X2768331Y-3750881D02*
G01X2806846Y-3712366D01*
G01X2662285Y-3749164D02*
G01X2699124Y-3712325D01*
G01X2715261Y-3696188D02*
G01X2810871Y-3600578D01*
G01X2589651Y-3714036D02*
G01X2599208Y-3704478D01*
G01X2719764Y-3583922D02*
G01X2984081Y-3319606D01*
G01X2467312Y-3728611D02*
G01X2562550Y-3633373D01*
G01X2845054Y-3350869D02*
G01X2930199Y-3265724D01*
G01X2405180Y-3682980D02*
G01X2452710Y-3635450D01*
G01X2582143Y-3506017D02*
G01X2742946Y-3345214D01*
G01X2845054Y-3243106D02*
G01X2876318Y-3211843D01*
G01X2297651Y-3682746D02*
G01X2386745Y-3593652D01*
G01X2491655Y-3488742D02*
G01X2534939Y-3445458D01*
G01X2588454Y-3391943D02*
G01X2742946Y-3237451D01*
G01X2189888Y-3682746D02*
G01X2332180Y-3540454D01*
G01X2388455Y-3484179D02*
G01X2427176Y-3445458D01*
G01X2568939Y-3303695D02*
G01X2742946Y-3129688D01*
G01X2128409Y-3636462D02*
G01X2224423Y-3540448D01*
G01X2367135Y-3397736D02*
G01X2386745Y-3378126D01*
G01X2466121Y-3298750D02*
G01X2742946Y-3021925D01*
G01X2263362Y-3393746D02*
G01X2367046Y-3290062D01*
G01X2455926Y-3201182D02*
G01X2735648Y-2921460D01*
G01X2794460Y-2862648D02*
G01X2799146Y-2857962D01*
G01X2120599Y-3428746D02*
G01X2259283Y-3290062D01*
G01X2455926Y-3093419D02*
G01X2777860Y-2771485D01*
G01X1992632Y-3448950D02*
G01X2171540Y-3270042D01*
G01X2455926Y-2985656D02*
G01X2625096Y-2816486D01*
G01X2705833Y-2735749D02*
G01X2723978Y-2717603D01*
G01X1939822Y-3393997D02*
G01X2043757Y-3290062D01*
G01X2100326Y-3233493D02*
G01X2166874Y-3166945D01*
G01X2455926Y-2877893D02*
G01X2513624Y-2820195D01*
G01X1885940Y-3340115D02*
G01X1935994Y-3290062D01*
G01X2100326Y-3125730D02*
G01X2166874Y-3059182D01*
G01X2394718Y-2831338D02*
G01X2405861Y-2820195D01*
G01X1832059Y-3286234D02*
G01X1832345Y-3285947D01*
G01X2100326Y-3017966D02*
G01X2166874Y-2951418D01*
G01X2100326Y-2910203D02*
G01X2232160Y-2778369D01*
G01X2246028Y-2764501D02*
G01X2253046Y-2757483D01*
G01X2070474Y-2832292D02*
G01X2119196Y-2783570D01*
G01X2799146Y-2860958D02*
G01X2705833Y-2767645D01*
G01X2737365Y-2906940D02*
G01X2646911Y-2816486D01*
G01X2742946Y-3020284D02*
G01X2542856Y-2820195D01*
G01X2991547Y-3376648D02*
G01X2845054Y-3230155D01*
G01X2742946Y-3128047D02*
G01X2435093Y-2820195D01*
G01X2955270Y-3448134D02*
G01X2845054Y-3337918D01*
G01X2742946Y-3235810D02*
G01X2455926Y-2948790D01*
G01X2253046Y-2745910D02*
G01X2251229Y-2744094D01*
G01X2901388Y-3502016D02*
G01X2841614Y-3442242D01*
G01X2742946Y-3343574D02*
G01X2455926Y-3056554D01*
G01X2230710Y-2831338D02*
G01X2181085Y-2781713D01*
G01X2847507Y-3555897D02*
G01X2790815Y-3499205D01*
G01X2718613Y-3427004D02*
G01X2455926Y-3164317D01*
G01X2166874Y-2875265D02*
G01X2075178Y-2783569D01*
G01X2806846Y-3623000D02*
G01X2736933Y-3553087D01*
G01X2664732Y-3480885D02*
G01X2588454Y-3404608D01*
G01X2482596Y-3298750D02*
G01X2452150Y-3268303D01*
G01X2166874Y-2983028D02*
G01X2100326Y-2916480D01*
G01X2806846Y-3730763D02*
G01X2719654Y-3643571D01*
G01X2587054Y-3510971D02*
G01X2582223Y-3506140D01*
G01X2571057Y-3494974D02*
G01X2521541Y-3445458D01*
G01X2392685Y-3316602D02*
G01X2366145Y-3290062D01*
G01X2166874Y-3090791D02*
G01X2100326Y-3024243D01*
G01X2717485Y-3749164D02*
G01X2684872Y-3716552D01*
G01X2588963Y-3620643D02*
G01X2583775Y-3615455D01*
G01X2457062Y-3488742D02*
G01X2411152Y-3442832D01*
G01X2389371Y-3421051D02*
G01X2385385Y-3417065D01*
G01X2365136Y-3396816D02*
G01X2258382Y-3290062D01*
G01X2166874Y-3198554D02*
G01X2100326Y-3132006D01*
G01X2562178Y-3701621D02*
G01X2496007Y-3635450D01*
G01X2386756Y-3526199D02*
G01X2382763Y-3522205D01*
G01X2254303Y-3393746D02*
G01X2100326Y-3239769D01*
G01X2496453Y-3743659D02*
G01X2293248Y-3540454D01*
G01X2181540Y-3428746D02*
G01X2042856Y-3290062D01*
G01X2327777Y-3682746D02*
G01X2175885Y-3530854D01*
G01X2073777Y-3428746D02*
G01X1935093Y-3290062D01*
G01X2220014Y-3682746D02*
G01X2128409Y-3591141D01*
G01X2001133Y-3463865D02*
G01X1998381Y-3461113D01*
G01X1860033Y-3502725D02*
G03X1850076Y-3504040I0J-38354D01*
G03X1840119Y-3502725I-9957J-37039D01*
G01X1825908D01*
G01Y-3445133D01*
G01X1883500Y-3502725D01*
G01X1860033D01*
G01X1831094Y-3502725D02*
G01X1857297Y-3476522D01*
G01X1816028Y-3270203D02*
G01X1582354Y-3036529D01*
G01Y-2783056D01*
G03X1598600Y-2786667I16246J34743D01*
G01X1652600D01*
G03X1677600Y-2777400I0J38354D01*
G03X1707770Y-2792073I30170J23681D01*
G01X1761770D01*
G03X1791920Y-2777426I0J38354D01*
G03X1822070Y-2792073I30150J23707D01*
G01X1876070D01*
G03X1909025Y-2773342I0J38354D01*
G01Y-2809692D01*
G02X1901949Y-2831338I-36646J0D01*
G01X1849628D01*
G03X1811274Y-2869692I0J-38354D01*
G01Y-3251708D01*
G03X1816028Y-3270203I38354J0D01*
G01X1778177Y-3232352D02*
G01X1811274Y-3199255D01*
G01X1724296Y-3178471D02*
G01X1811274Y-3091492D01*
G01X1670414Y-3124589D02*
G01X1811274Y-2983729D01*
G01X1616533Y-3070708D02*
G01X1811274Y-2875966D01*
G01X1855902Y-2831338D02*
G01X1909025Y-2778215D01*
G01X1582354Y-2997123D02*
G01X1796856Y-2782621D01*
G01X1582354Y-2889360D02*
G01X1686248Y-2785466D01*
G01X1904109Y-2828026D02*
G01X1868157Y-2792073D01*
G01X1817329Y-2849009D02*
G01X1760394Y-2792073D01*
G01X1811274Y-2950717D02*
G01X1647224Y-2786667D01*
G01X1811274Y-3058480D02*
G01X1582354Y-2829560D01*
G01X1811274Y-3166243D02*
G01X1582354Y-2937323D01*
G01X756389Y-2852397D02*
G01X753021Y-2852441D01*
G02X732799Y-2851380I239J197766D01*
G03X703635Y-2837936I-29163J-24911D01*
G01X649635D01*
G03X635335Y-2840702I0J-38354D01*
G02X614623Y-2847454I-60700J151061D01*
G03X589335Y-2837936I-25288J-28837D01*
G01X574073D01*
G01X566533Y-2830397D01*
G01X566494Y-2830357D01*
G03X521719Y-2811824I-44775J-44821D01*
G01X518838D01*
G02X482192Y-2797971I0J55396D01*
G01Y-2780650D01*
G03X443838Y-2742296I-38354J0D01*
G01X432054D01*
G01Y-2620426D01*
G01X432098Y-2619372D01*
G01X432207Y-2618400D01*
G01X432444Y-2617032D01*
G01X433249Y-2613621D01*
G01X434387Y-2609866D01*
G01X435855Y-2605834D01*
G01X437566Y-2601803D01*
G01X438705Y-2599469D01*
G02X455179Y-2593683I26867J-50153D01*
G01X527177D01*
G03X539782Y-2591552I0J38354D01*
G03X538546Y-2603500I57118J-11948D01*
G03X596900Y-2661854I58354J0D01*
G03X655254Y-2603500I0J58354D01*
G03X647954Y-2575239I-58354J0D01*
G01Y-2204618D01*
G03X633001Y-2168518I-51054J0D01*
G01X570173Y-2105690D01*
G01X570126Y-2105643D01*
G02X554419Y-2075804I40232J40232D01*
G01Y-2068500D01*
G03X539771Y-2038350I-38354J0D01*
G01X541480Y-2036924D01*
G03X558800Y-2039554I17320J55724D01*
G03X582935Y-2034329I0J58354D01*
G03X591561Y-2047925I46883J20211D01*
G03X647700Y-2090354I56139J15925D01*
G03X664986Y-2087735I0J58354D01*
G01Y-2399114D01*
G03X679939Y-2435214I51054J0D01*
G01X960671Y-2715946D01*
G01X960565D01*
G01X960564D01*
G01X903999D01*
G03X889000Y-2719000I0J-38354D01*
G03X874001Y-2715946I-14999J-35300D01*
G01X817436D01*
G03X779082Y-2754300I0J-38354D01*
G01Y-2808300D01*
G03X781143Y-2820705I38354J0D01*
G03X756389Y-2852397I29281J-48384D01*
G01X891606Y-2718003D02*
G01X927167Y-2682442D01*
G01X663910Y-2837936D02*
G01X873286Y-2628561D01*
G01X565088Y-2828996D02*
G01X819404Y-2574679D01*
G01X485586Y-2800734D02*
G01X765523Y-2520797D01*
G01X436261Y-2742296D02*
G01X546188Y-2632369D01*
G01X647954Y-2530603D02*
G01X711641Y-2466916D01*
G01X432054Y-2638740D02*
G01X477111Y-2593683D01*
G01X647954Y-2422840D02*
G01X665377Y-2405417D01*
G01X647954Y-2315077D02*
G01X664986Y-2298045D01*
G01X647954Y-2207314D02*
G01X664986Y-2190282D01*
G01X605994Y-2141511D02*
G01X658082Y-2089423D01*
G01X556370Y-2083371D02*
G01X591618Y-2048124D01*
G01X664986Y-2127718D02*
G01X621317Y-2084049D01*
G01X595651Y-2058383D02*
G01X574633Y-2037365D01*
G01X664986Y-2235481D02*
G01X647954Y-2218449D01*
G01X664986Y-2343244D02*
G01X647954Y-2326212D01*
G01X929924Y-2715946D02*
G01X647954Y-2433975D01*
G01X822161Y-2715946D02*
G01X647954Y-2541738D01*
G01X779082Y-2780629D02*
G01X640611Y-2642159D01*
G01X742857Y-2852167D02*
G01X484372Y-2593683D01*
G01X626788Y-2843862D02*
G01X432054Y-2649128D01*
G01X1465646Y-2556640D02*
G01X1465646Y-2674203D01*
G01X1082294Y-2290851D01*
G01Y-2221603D01*
G03X1103300Y-2227867I21006J32090D01*
G01X1157300D01*
G03X1181641Y-2219153I0J38354D01*
G03X1214087Y-2237054I32445J20453D01*
G01X1293096D01*
G03X1308100Y-2233998I0J38354D01*
G03X1323104Y-2237054I15004J35298D01*
G01X1402113D01*
G03X1440467Y-2198700I0J38354D01*
G01Y-2144700D01*
G03X1419662Y-2110596I-38354J0D01*
G02X1415962Y-2099700I14196J10896D01*
G01Y-2023516D01*
G03X1411097Y-2001257I-53354J0D01*
G01Y-1984793D01*
G02X1431683Y-1945263I73015J-12899D01*
G01X1431748Y-1945198D01*
G01X1447800Y-1929146D01*
G01X1463852Y-1945198D01*
G01X1463917Y-1945263D01*
G02X1484503Y-1984793I-52429J-52429D01*
G01Y-1996551D01*
G01X1482565Y-1998489D01*
G03X1466938Y-2036216I37727J-37727D01*
G01Y-2099700D01*
G02X1463238Y-2110596I-17896J0D01*
G03X1442433Y-2144700I17549J-34104D01*
G01Y-2198700D01*
G03X1480787Y-2237054I38354J0D01*
G01X1483350D01*
G01X1441902Y-2278502D01*
G03X1423346Y-2323300I44798J-44798D01*
G01Y-2469271D01*
G03X1441902Y-2514069I63354J0D01*
G01X1460652Y-2532819D01*
G03X1465646Y-2556640I63348J848D01*
G01X1416052Y-2624609D02*
G01X1465646Y-2575016D01*
G01X1362171Y-2570728D02*
G01X1431877Y-2501022D01*
G01X1308289Y-2516846D02*
G01X1423346Y-2401789D01*
G01X1254408Y-2462965D02*
G01X1480321Y-2237051D01*
G01X1200526Y-2409083D02*
G01X1372555Y-2237054D01*
G01X1440467Y-2169142D02*
G01X1442433Y-2167176D01*
G01X1146645Y-2355202D02*
G01X1264792Y-2237054D01*
G01X1415962Y-2085884D02*
G01X1466954Y-2034892D01*
G01X1092763Y-2301320D02*
G01X1167635Y-2226448D01*
G01X1411528Y-1982556D02*
G01X1456369Y-1937715D01*
G01X1482048Y-1974912D02*
G01X1442041Y-1934905D01*
G01X1466938Y-2067565D02*
G01X1415440Y-2016067D01*
G01X1442433Y-2150824D02*
G01X1440467Y-2148858D01*
G01X1452125Y-2268279D02*
G01X1417624Y-2233778D01*
G01X1423346Y-2347263D02*
G01X1311264Y-2235181D01*
G01X1423346Y-2455026D02*
G01X1204033Y-2235713D01*
G01X1465646Y-2605089D02*
G01X1082294Y-2221737D01*
G01X1560295Y-2453270D02*
G01X1550054Y-2443029D01*
G01Y-2349542D01*
G01X1560295Y-2339301D01*
G01Y-2396065D01*
G03X1563352Y-2411069I38354J0D01*
G03X1560295Y-2426073I35298J-15004D01*
G01Y-2453270D01*
G01X1550054Y-2382845D02*
G01X1560295Y-2372603D01*
G01X1560295Y-2376449D02*
G01X1550054Y-2366208D01*
G01X2797246Y-2369129D02*
G02X2787081Y-2392528I-55939J10393D01*
G01X2592400D01*
G01X2591968Y-2392522D01*
G03X2592654Y-2385301I-37668J7220D01*
G01Y-2328736D01*
G01Y-2328735D01*
G03X2554300Y-2290381I-38354J0D01*
G01X2500300D01*
G03X2470150Y-2305029I0J-38354D01*
G03X2440000Y-2290381I-30150J-23707D01*
G01X2386000D01*
G03X2347646Y-2328735I0J-38354D01*
G01Y-2328736D01*
G01Y-2344511D01*
G03X2313882Y-2324352I-33763J-18195D01*
G01X2251229D01*
G01Y-2305217D01*
G03X2249466Y-2293720I-38354J0D01*
G03X2265967Y-2262200I-21853J31520D01*
G01Y-2209654D01*
G01X2463800D01*
G03X2508598Y-2191098I0J63354D01*
G01X2757152Y-1942544D01*
G03X2798854Y-1879600I-26652J62944D01*
G03X2796542Y-1861972I-68354J0D01*
G01X2830500D01*
G01X2830932Y-1861978D01*
G03X2830246Y-1869199I37668J-7220D01*
G01Y-1917391D01*
G02X2810964Y-1947697I-57503J15298D01*
G03X2797246Y-1977093I24636J-29395D01*
G01Y-2097093D01*
G03X2835600Y-2135447I38354J0D01*
G01X2955600D01*
G03X2993954Y-2097093I0J38354D01*
G01Y-1977093D01*
G03X2980236Y-1947697I-38354J0D01*
G02X2960954Y-1917391I38221J45604D01*
G01Y-1869199D01*
G03X2957900Y-1854200I-38354J0D01*
G03X2960954Y-1839201I-35300J14999D01*
G01Y-1782636D01*
G01Y-1782635D01*
G03X2957887Y-1767607I-38354J0D01*
G01X2992292Y-1802011D01*
G01X2992339Y-1802058D01*
G02X3008046Y-1831897I-40232J-40232D01*
G01Y-1839201D01*
G03X3011100Y-1854200I38354J0D01*
G03X3008046Y-1869199I35300J-14999D01*
G01Y-1925764D01*
G03X3040950Y-1963729I38354J0D01*
G03X3038546Y-1977093I35951J-13364D01*
G01Y-2097093D01*
G03X3076900Y-2135447I38354J0D01*
G01X3148921D01*
G02X3178760Y-2151154I-10393J-55939D01*
G01X3178807Y-2151201D01*
G01X3187446Y-2159840D01*
G01Y-2258753D01*
G01X3076900D01*
G03X3047505Y-2272471I0J-38354D01*
G02X3009265Y-2293296I-45604J38221D01*
G02X2993661Y-2292380I21335J497156D01*
G03X2955600Y-2258753I-38062J-4727D01*
G01X2835600D01*
G03X2797246Y-2297107I0J-38354D01*
G01Y-2369129D01*
G01X3182828Y-2258753D02*
G01X3187446Y-2254136D01*
G01X3075019Y-2258800D02*
G01X3180712Y-2153106D01*
G01X2965895Y-2260161D02*
G01X3090609Y-2135447D01*
G01X2725765Y-2392528D02*
G01X2797246Y-2321046D01*
G01X2859539Y-2258753D02*
G01X3038546Y-2079746D01*
G01X2618002Y-2392528D02*
G01X2875083Y-2135447D01*
G01X2993954Y-2016575D02*
G01X3038944Y-1971586D01*
G01X2589428Y-2313338D02*
G01X2798018Y-2104748D01*
G01X2968440Y-1934326D02*
G01X3008046Y-1894720D01*
G01X2504622Y-2290381D02*
G01X2797246Y-1997757D01*
G01X2960954Y-1834049D02*
G01X2992641Y-1802363D01*
G01X2345801Y-2341440D02*
G01X2347646Y-2339594D01*
G01X2396859Y-2290381D02*
G01X2479584Y-2207656D01*
G01X2798199Y-1889041D02*
G01X2825268Y-1861972D01*
G01X2255125Y-2324352D02*
G01X2369823Y-2209654D01*
G01X3008046Y-1884464D02*
G01X2960954Y-1837373D01*
G01X3187446Y-2171627D02*
G01X3151902Y-2136083D01*
G01X3038546Y-2022728D02*
G01X2993954Y-1978135D01*
G01X3166809Y-2258753D02*
G01X2993954Y-2085898D01*
G01X2829135Y-1921080D02*
G01X2798058Y-1890002D01*
G01X3062041Y-2261749D02*
G01X2935739Y-2135447D01*
G01X2797246Y-1996954D02*
G01X2749994Y-1949702D01*
G01X2951283Y-2258753D02*
G01X2826999Y-2134470D01*
G01X2798223Y-2105694D02*
G01X2696113Y-2003583D01*
G01X2843520Y-2258753D02*
G01X2642231Y-2057465D01*
G01X2797246Y-2320243D02*
G01X2588350Y-2111346D01*
G01X2761768Y-2392528D02*
G01X2534468Y-2165228D01*
G01X2654005Y-2392528D02*
G01X2592654Y-2331177D01*
G01X2551859Y-2290381D02*
G01X2470749Y-2209272D01*
G01X2444342Y-2290628D02*
G01X2363368Y-2209654D01*
G01X2353819Y-2307868D02*
G01X2265967Y-2220016D01*
G01X2262540Y-2324352D02*
G01X2251229Y-2313042D01*
G01X1919604Y-2345467D02*
G01X1919604Y-2335796D01*
G03X1908273Y-2308579I-38354J0D01*
G03X1911698Y-2305398I-41373J47979D01*
G01X2001233Y-2215863D01*
G01Y-2226726D01*
G02X1985526Y-2256564I-55939J10393D01*
G01X1985479Y-2256612D01*
G01X1952765Y-2289326D01*
G03X1937811Y-2325426I36101J-36101D01*
G02X1937329Y-2328100I-7648J0D01*
G03X1919604Y-2345467I16537J-34606D01*
G01X1919604Y-2336584D02*
G01X1938383Y-2317804D01*
G01X1982376Y-2259714D02*
G01X1969879Y-2247217D01*
G01X1937870Y-2322972D02*
G01X1915997Y-2301099D01*
G01X1707167Y-2197246D02*
G01X1707167Y-2144700D01*
G03X1668813Y-2106346I-38354J0D01*
G01X1589804D01*
G03X1576164Y-2108853I0J-38354D01*
G02X1574306Y-2104517I15378J9153D01*
G01X1627759D01*
G03X1666113Y-2066163I0J38354D01*
G01Y-1976569D01*
G03X1684087Y-1986001I35687J46169D01*
G03X1667325Y-2017700I21592J-31699D01*
G01Y-2071700D01*
G03X1705679Y-2110054I38354J0D01*
G01X1784688D01*
G03X1799692Y-2106998I0J38354D01*
G03X1814695Y-2110054I15004J35298D01*
G01X1893705D01*
G03X1927425Y-2089975I0J38354D01*
G03X1940024Y-2098151I26775J27462D01*
G03X1936402Y-2101502I41176J-48149D01*
G01X1840658Y-2197246D01*
G01X1707167D01*
G01X1735653Y-2197246D02*
G01X1822844Y-2110054D01*
G01X1701115Y-2124021D02*
G01X1715081Y-2110054D01*
G01X1611027Y-2106346D02*
G01X1612855Y-2104517D01*
G01X1666113Y-2051259D02*
G01X1667325Y-2050048D01*
G01X1934164Y-2103740D02*
G01X1924706Y-2094282D01*
G01X1880283Y-2157621D02*
G01X1832716Y-2110054D01*
G01X1812145Y-2197246D02*
G01X1724953Y-2110054D01*
G01X1667325Y-2052426D02*
G01X1666113Y-2051214D01*
G01X1613481Y-2106346D02*
G01X1611653Y-2104517D01*
G01X1214087Y-2106346D02*
G03X1195654Y-2111066I0J-38354D01*
G01Y-2110504D01*
G03X1192598Y-2095500I-38354J0D01*
G03X1194667Y-2089142I-35298J15004D01*
G03X1206500Y-2090354I11833J57142D01*
G03X1233695Y-2083630I0J58354D01*
G03X1267841Y-2104517I34146J17467D01*
G01X1308594D01*
G02X1306736Y-2108853I-17235J4817D01*
G03X1293096Y-2106346I-13640J-35847D01*
G01X1214087D01*
G01X1287737Y-2106346D02*
G01X1289566Y-2104517D01*
G01X1193681Y-2092639D02*
G01X1196781Y-2089539D01*
G01X1290192Y-2106346D02*
G01X1288363Y-2104517D01*
G01X2349117Y-2078418D02*
G01X2353645Y-2082946D01*
G01X2154958D01*
G03X2159935Y-2070858I-32458J20433D01*
G03X2182800Y-2078418I22864J30794D01*
G01X2236800D01*
G03X2266950Y-2063771I0J38354D01*
G03X2297100Y-2078418I30150J23707D01*
G01X2349117D01*
G01X2281005Y-2082946D02*
G01X2286911Y-2077040D01*
G01X2173242Y-2082946D02*
G01X2178063Y-2078125D01*
G01X2344423Y-2082946D02*
G01X2339896Y-2078418D01*
G01X2236660Y-2082946D02*
G01X2232132Y-2078418D01*
G01X2468483Y-2052021D02*
G03X2429117Y-2014016I-55483J-18079D01*
G01X2390782Y-1975681D01*
G03X2388023Y-1973118I-36101J-36101D01*
G03X2386400Y-1968500I-36922J-10381D01*
G03X2389454Y-1953501I-35300J14999D01*
G01Y-1896936D01*
G01Y-1896935D01*
G03X2351100Y-1858581I-38354J0D01*
G01X2297100D01*
G03X2267612Y-1872410I0J-38354D01*
G02X2263678Y-1869574I7288J14260D01*
G03X2236800Y-1858581I-26877J-27361D01*
G01X2182800D01*
G03X2174143Y-1859571I0J-38354D01*
G02X2158823Y-1862171I-29443J127076D01*
G03X2145479Y-1843779I-36323J-12316D01*
G03X2131601Y-1818099I-49979J-10421D01*
G01X2093501Y-1779999D01*
G03X2057400Y-1765046I-36101J-36101D01*
G01X1968500D01*
G03X1954987Y-1766867I0J-51054D01*
G03X1941706Y-1741765I-49987J-10383D01*
G01X1939328Y-1739220D01*
G01X1937360Y-1736830D01*
G01X1935339Y-1734065D01*
G01X1933390Y-1731060D01*
G01X1932675Y-1729806D01*
G01X1975920D01*
G01X1978301Y-1729752D01*
G01X2018794Y-1728536D01*
G01X2405635D01*
G01X2524118Y-1847019D01*
G03X2560218Y-1861972I36101J36101D01*
G01X2658532D01*
G01X2468483Y-2052021D01*
G01X2448175Y-2023539D02*
G01X2609742Y-1861972D01*
G01X2389504Y-1974447D02*
G01X2520525Y-1843426D01*
G01X2381989Y-1874199D02*
G01X2466643Y-1789545D01*
G01X2288972Y-1859453D02*
G01X2412762Y-1735663D01*
G01X2182073Y-1858588D02*
G01X2312126Y-1728536D01*
G01X2123200Y-1809699D02*
G01X2204363Y-1728536D01*
G01X2060022Y-1765113D02*
G01X2096600Y-1728536D01*
G01X1954103Y-1763270D02*
G01X1987909Y-1729463D01*
G01X2606517Y-1913987D02*
G01X2554138Y-1861609D01*
G01X2552635Y-1967869D02*
G01X2313302Y-1728536D01*
G01X2498754Y-2021750D02*
G01X2389454Y-1912451D01*
G01X2335585Y-1858581D02*
G01X2205539Y-1728536D01*
G01X2227822Y-1858581D02*
G01X2097776Y-1728536D01*
G01X2026523Y-1765046D02*
G01X1990852Y-1729375D01*
G01X1103300Y-1963133D02*
G03X1082294Y-1969397I0J-38354D01*
G01Y-1954903D01*
G03X1103300Y-1961167I21006J32090D01*
G01X1155446D01*
G01Y-1963133D01*
G01X1103300D01*
G01X1107661Y-1963133D02*
G01X1109627Y-1961167D01*
G01X1146979Y-1963133D02*
G01X1145013Y-1961167D01*
G01X1103300Y-1696433D02*
G03X1082294Y-1702697I0J-38354D01*
G01Y-1695007D01*
G01X1110911Y-1666390D01*
G03X1110046Y-1676400I57489J-10010D01*
G03X1113592Y-1696433I58354J0D01*
G01X1103300D01*
G01X1096426Y-1697054D02*
G01X1088337Y-1688964D01*
G01X2501646Y-1381439D02*
G03X2494347Y-1409446I51054J-28261D01*
G01X2062025D01*
G01X2061177Y-1408598D01*
G01X2184941Y-1284834D01*
G01X2185036Y-1284739D01*
G03X2209800Y-1290254I24764J52839D01*
G03X2238061Y-1282954I0J58354D01*
G01X2242787D01*
G02X2255651Y-1287782I0J-19551D01*
G03X2280887Y-1297254I25236J28882D01*
G01X2359896D01*
G03X2374900Y-1294198I0J38354D01*
G03X2389904Y-1297254I15004J35298D01*
G01X2468913D01*
G03X2501646Y-1278890I0J38354D01*
G01Y-1381439D01*
G01X2415690Y-1409446D02*
G01X2501646Y-1323490D01*
G01X2307926Y-1409446D02*
G01X2420118Y-1297254D01*
G01X2200163Y-1409446D02*
G01X2312355Y-1297254D01*
G01X2092400Y-1409446D02*
G01X2211621Y-1290226D01*
G01X2501646Y-1378064D02*
G01X2420836Y-1297254D01*
G01X2425265Y-1409446D02*
G01X2313073Y-1297254D01*
G01X2317502Y-1409446D02*
G01X2196856Y-1288800D01*
G01X2209738Y-1409446D02*
G01X2135034Y-1334741D01*
G01X2101975Y-1409446D02*
G01X2081152Y-1388623D01*
G01X2501646Y-1184910D02*
G03X2468913Y-1166546I-32733J-19990D01*
G01X2389904D01*
G03X2374900Y-1169602I0J-38354D01*
G03X2360055Y-1166546I-15004J-35298D01*
G01X2398812Y-1127790D01*
G03X2427199Y-1140352I28387J25792D01*
G01X2449928D01*
G02X2480058Y-1156059I-9894J-55731D01*
G01X2480105Y-1156106D01*
G01X2501646Y-1177647D01*
G01Y-1184910D01*
G01X2443064Y-1166546D02*
G01X2464546Y-1145064D01*
G01X2397891Y-1166546D02*
G01X2378973Y-1147628D01*
G01X2159254Y-1054431D02*
G01X2159254Y-1042568D01*
G03X2160612Y-1048499I37948J5569D01*
G03X2159254Y-1054431I36589J-11500D01*
G01X1250649Y-990746D02*
G03X1220452Y-965756I-56849J-37954D01*
G01X864150Y-609454D01*
G01X1192958D01*
G01X1217050Y-633546D01*
G01X1217080Y-633576D01*
G01X1217094Y-633590D01*
G01X1226332Y-642828D01*
G01X1226347Y-642843D01*
G02X1271000Y-698980I-224012J-224012D01*
G03X1268146Y-713499I35500J-14518D01*
G01Y-770064D01*
G03X1306500Y-808418I38354J0D01*
G01X1360500D01*
G03X1391278Y-792950I0J38354D01*
G02X1398600Y-792836I7322J-233804D01*
G01X1427307D01*
G03X1423978Y-810968I47726J-18132D01*
G01Y-921320D01*
G03X1409700Y-919546I-14278J-56580D01*
G03X1351346Y-977900I0J-58354D01*
G01X1351376Y-979771D01*
G01X1349937Y-980525D01*
G03X1324918Y-974156I-25019J-45955D01*
G03X1286697Y-990746I0J-52324D01*
G01X1250649D01*
G01X1340058Y-976394D02*
G01X1353219Y-963233D01*
G01X1395033Y-921419D02*
G01X1423978Y-892474D01*
G01X1234732Y-973957D02*
G01X1415854Y-792836D01*
G01X1177811Y-923115D02*
G01X1294450Y-806476D01*
G01X1123930Y-869234D02*
G01X1268146Y-725017D01*
G01X1070048Y-815352D02*
G01X1234305Y-651095D01*
G01X1016167Y-761471D02*
G01X1168183Y-609454D01*
G01X962285Y-707589D02*
G01X1060420Y-609454D01*
G01X908404Y-653707D02*
G01X952657Y-609454D01*
G01X1423978Y-839212D02*
G01X1384637Y-799871D01*
G01X1397780Y-920777D02*
G01X1086457Y-609454D01*
G01X1349564Y-980324D02*
G01X978694Y-609454D01*
G01X1252223Y-990746D02*
G01X1245730Y-984253D01*
G01X1238247Y-976770D02*
G01X870931Y-609454D01*
G01X2160612Y-983501D02*
G03X2159254Y-989432I36589J-11500D01*
G01Y-977787D01*
G01X2159489Y-978986D01*
G03X2160612Y-983501I37713J6985D01*
G01X1526086Y-869938D02*
G01X1526086Y-839708D01*
G03X1540002Y-834128I-7039J37703D01*
G03X1555988Y-840036I20955J32123D01*
G01X1526086Y-869938D01*
G01X1544277Y-851747D02*
G01X1530984Y-838454D01*
G01X502818Y-1549400D02*
G01X448628Y-1549400D01*
G01X502818Y-1549400D02*
G01X502818Y-1496492D01*
G01X502818Y-1549400D02*
G01X502818Y-1602308D01*
G01X885292Y-1028700D02*
G01X819879Y-1028700D01*
G01X885292Y-1028700D02*
G01X885292Y-975792D01*
G01X2188108Y-2235200D02*
G01X2253521Y-2235200D01*
G01X2413000Y-2357018D02*
G01X2413000Y-2302827D01*
G01X2527300Y-2357018D02*
G01X2527300Y-2302827D01*
G01X2527300Y-2357018D02*
G01X2580208Y-2357018D01*
G01X1253592Y-2171700D02*
G01X1253592Y-2224608D01*
G01X1253592Y-2171700D02*
G01X1253592Y-2118792D01*
G01X1130300Y-2150008D02*
G01X1130300Y-2215421D01*
G01X1625650Y-2356561D02*
G01X1572741Y-2356561D01*
G01X1629308Y-2171700D02*
G01X1694721Y-2171700D01*
G01X1629308Y-2171700D02*
G01X1629308Y-2118792D01*
G01X1854200Y-2044700D02*
G01X1854200Y-2097608D01*
G01X2032000Y-847192D02*
G01X2032000Y-781779D01*
G01X2032000Y-847192D02*
G01X1979092Y-847192D01*
G01X2492210Y-635000D02*
G01X2416302Y-635000D01*
G01X2492210Y-635000D02*
G01X2568118Y-635000D01*
G01X1492504Y-520192D02*
G01X1440053Y-520192D01*
G01X1492504Y-520192D02*
G01X1544955Y-520192D01*
G01X1492504Y-520192D02*
G01X1492504Y-442087D01*
G01X1130300Y-1883308D02*
G01X1130300Y-1948721D01*
G01X2209800Y-2011782D02*
G01X2209800Y-2065972D01*
G01X562335Y-3207895D02*
G01X562335Y-3142482D01*
G01X562335Y-3207895D02*
G01X509427Y-3207895D01*
G01X2487600Y-3372104D02*
G01X2399191Y-3372104D01*
G01X2487600Y-3372104D02*
G01X2576008Y-3372104D01*
G01X2487600Y-3372104D02*
G01X2487600Y-3311196D01*
G01X2487600Y-3372104D02*
G01X2487600Y-3433012D01*
G01X676635Y-3207895D02*
G01X676635Y-3142482D01*
G01X676635Y-3207895D02*
G01X729543Y-3207895D01*
G01X907934Y-3147094D02*
G01X1021842Y-3147094D01*
G01X907934Y-3147094D02*
G01X794027Y-3147094D01*
G01X1734770Y-2714215D02*
G01X1734770Y-2779627D01*
G01X1849070Y-2714215D02*
G01X1849070Y-2779627D01*
G01X1625600Y-2708808D02*
G01X1625600Y-2774221D01*
G01X1210301Y-3616079D02*
G01X1184139Y-3616079D01*
G01X562335Y-3024812D02*
G01X562335Y-3090224D01*
G01X562335Y-3024812D02*
G01X509427Y-3024812D01*
G01X2089801Y-3616079D02*
G01X2115963Y-3616079D01*
G01X2133874Y-2525219D02*
G01X2133874Y-2771127D01*
G01X676635Y-3024812D02*
G01X676635Y-3090224D01*
G01X676635Y-3024812D02*
G01X729543Y-3024812D01*
G01X1005445Y-2933988D02*
G01X1049553Y-2933988D01*
G01X1005445Y-2933988D02*
G01X1005445Y-2824980D01*
G01X2640479Y-2738627D02*
G01X2640479Y-2804040D01*
G01X2640479Y-2738627D02*
G01X2693387Y-2738627D01*
G01X2411879Y-2742336D02*
G01X2411879Y-2807749D01*
G01X2526179Y-2742336D02*
G01X2526179Y-2807749D01*
G01X845718Y-2781300D02*
G01X791528Y-2781300D01*
G01X845718Y-2781300D02*
G01X845718Y-2728392D01*
G01X2654300Y-3650082D02*
G01X2654300Y-3704272D01*
G01X2654300Y-3650082D02*
G01X2601392Y-3650082D01*
G01X2654300Y-3650082D02*
G01X2707208Y-3650082D01*
G01X1055069Y-3883922D02*
G01X929161Y-3883922D01*
G01X1055069Y-3883922D02*
G01X1180976Y-3883922D01*
G01X2244932Y-3883922D02*
G01X2119024Y-3883922D01*
G01X2244932Y-3883922D02*
G01X2244932Y-3989829D01*
G01X2429408Y-1231900D02*
G01X2429408Y-1178992D01*
G01X2429408Y-1231900D02*
G01X2429408Y-1284808D01*
G01X3009924Y-1127026D02*
G01X3009924Y-1056160D01*
G01X3009924Y-1127026D02*
G01X3009924Y-1197892D01*
G01X3009924Y-1127026D02*
G01X3075837Y-1127026D01*
G01X3009924Y-1127026D02*
G01X2944011Y-1127026D01*
G01X3200400Y-1810918D02*
G01X3200400Y-1756727D01*
G01X180000Y-1054100D02*
G01X180000Y-943229D01*
G01X180000Y-1054100D02*
G01X180000Y-1164971D01*
G01X180000Y-1054100D02*
G01X290871Y-1054100D01*
G01X180000Y-1054100D02*
G01X69129Y-1054100D01*
G01X180000Y-3627000D02*
G01X180000Y-3742908D01*
G01X180000Y-3627000D02*
G01X64092Y-3627000D01*
G01X2666000Y-200000D02*
G01X2776908Y-200000D01*
G01X2666000Y-200000D02*
G01X2555092Y-200000D01*
G01X2666000Y-200000D02*
G01X2666000Y-310908D01*
G01X2666000Y-200000D02*
G01X2666000Y-89092D01*
G01X3120000Y-3627000D02*
G01X3120000Y-3742908D01*
G01X3120000Y-3627000D02*
G01X3004092Y-3627000D01*
G01X3120000Y-3627000D02*
G01X3235908Y-3627000D01*
G04 Copper End*

G04 Tear Start*
G36*
G01X2414499Y-938301D02*
G01X2414499Y-963701D01*
G02X2427199Y-966380I0J-31443D01*
G01Y-935622D01*
G02X2414499Y-938301I-12700J28764D01*
G37*
G36*
G01X2565400Y-1031000D02*
G01X2565400Y-1001000D01*
G02X2527198Y-995001I0J124624D01*
G01Y-1036999D01*
G02X2565400Y-1031000I38202J-118624D01*
G37*
G36*
G01X2507178Y-1128939D02*
G01X2543099Y-1128939D01*
G02X2527198Y-1086097I38756J38756D01*
G01X2427199Y-1101998D01*
G02X2507178Y-1128939I12835J-94085D01*
G37*
G36*
G01X2309901Y-1093699D02*
G01X2309901Y-1068299D01*
G02X2297201Y-1059999I0J13867D01*
G01Y-1101998D01*
G02X2309901Y-1093699I12700J-5567D01*
G37*
G36*
G01X2159102Y-1003300D02*
G01X2159102Y-1028700D01*
G02X2197202Y-1031379I-0J-272272D01*
G01Y-1000621D01*
G02X2159102Y-1003300I-38100J269593D01*
G37*
G36*
G01X2188481Y-903321D02*
G01X2170520Y-921281D01*
G02X2197202Y-972001I-68316J-68316D01*
G01X2297201Y-930002D01*
G02X2188481Y-903321I-32342J103060D01*
G37*
G36*
G01X2247900Y-673100D02*
G01X2222500Y-673100D01*
G02X2203450Y-699996I-28512J0D01*
G01X2266950D01*
G02X2247900Y-673100I9462J26896D01*
G37*
G36*
G01X2157289Y-596945D02*
G01X2193210Y-596945D01*
G02X2247092Y-570004I67352J-67352D01*
G01X2182190Y-545103D01*
G02X2157289Y-596945I-86290J9546D01*
G37*
G36*
G01X2479510Y-798096D02*
G01X2504910Y-798096D01*
G02X2523960Y-759996I47625J0D01*
G01X2460460D01*
G02X2479510Y-798096I-28575J-38100D01*
G37*
G36*
G01X2128155Y-3628779D02*
G01X2128155Y-3603379D01*
G02X2090055Y-3584329I0J47625D01*
G01Y-3647829D01*
G02X2128155Y-3628779I38100J-28575D01*
G37*
G36*
G01X2037718Y-3512182D02*
G01X2012318Y-3512182D01*
G02X2010020Y-3541079I-182782J0D01*
G01X2040017D01*
G02X2037718Y-3512182I180483J28897D01*
G37*
G36*
G01X1787554Y-3502979D02*
G01X1762154Y-3502979D01*
G02X1760084Y-3541079I-351650J0D01*
G01X1790081D01*
G02X1787554Y-3502979I285923J38100D01*
G37*
G36*
G01X1737643Y-3502979D02*
G01X1712243Y-3502979D01*
G02X1710046Y-3541079I-331446J0D01*
G01X1740043D01*
G02X1737643Y-3502979I301182J38100D01*
G37*
G36*
G01X1687732Y-3502979D02*
G01X1662332Y-3502979D01*
G02X1660008Y-3541079I-313459J0D01*
G01X1690005D01*
G02X1687732Y-3502979I318137J38100D01*
G37*
G36*
G01X1662332Y-3711158D02*
G01X1687732Y-3711158D01*
G02X1690005Y-3691078I89819J0D01*
G01X1660008D01*
G02X1662332Y-3711158I-85582J-20080D01*
G37*
G36*
G01X1637694Y-3502979D02*
G01X1612294Y-3502979D01*
G02X1609970Y-3541079I-313459J0D01*
G01X1639967D01*
G02X1637694Y-3502979I318137J38100D01*
G37*
G36*
G01X1612294Y-3729178D02*
G01X1637694Y-3729178D01*
G02X1639967Y-3691078I320410J0D01*
G01X1609970D01*
G02X1612294Y-3729178I-311135J-38100D01*
G37*
G36*
G01X1587656Y-3502979D02*
G01X1562256Y-3502979D01*
G02X1560059Y-3541079I-331446J0D01*
G01X1590056D01*
G02X1587656Y-3502979I301182J38100D01*
G37*
G36*
G01X1511300Y-3708400D02*
G01X1536700Y-3708400D01*
G02X1540145Y-3691078I45269J0D01*
G01X1510148D01*
G02X1511300Y-3708400I-129603J-17322D01*
G37*
G36*
G01X1487580Y-3502979D02*
G01X1462180Y-3502979D01*
G02X1460110Y-3541079I-351650J0D01*
G01X1490107D01*
G02X1487580Y-3502979I285923J38100D01*
G37*
G36*
G01X1462180Y-3729178D02*
G01X1487580Y-3729178D01*
G02X1490107Y-3691078I288450J0D01*
G01X1460110D01*
G02X1462180Y-3729178I-349580J-38100D01*
G37*
G36*
G01X1412269Y-3729178D02*
G01X1437669Y-3729178D01*
G02X1440069Y-3691078I303583J-0D01*
G01X1410072D01*
G02X1412269Y-3729178I-329248J-38100D01*
G37*
G36*
G01X1437669Y-3502979D02*
G01X1412269Y-3502979D01*
G02X1410072Y-3541079I-331446J0D01*
G01X1440069D01*
G02X1437669Y-3502979I301182J38100D01*
G37*
G36*
G01X1387631Y-3502979D02*
G01X1362231Y-3502979D01*
G02X1360034Y-3541079I-331446J0D01*
G01X1390031D01*
G02X1387631Y-3502979I301182J38100D01*
G37*
G36*
G01X1312320Y-3729178D02*
G01X1337720Y-3729178D01*
G02X1339993Y-3691078I320410J0D01*
G01X1309996D01*
G02X1312320Y-3729178I-311135J-38100D01*
G37*
G36*
G01X1262282Y-3721100D02*
G01X1287682Y-3721100D01*
G02X1289865Y-3691078I207544J-0D01*
G01X1260099D01*
G02X1262282Y-3721100I-205361J-30022D01*
G37*
G36*
G01X1171947Y-3606800D02*
G01X1171947Y-3632200D01*
G02X1210047Y-3651250I0J-47625D01*
G01Y-3587750D01*
G02X1171947Y-3606800I-38100J28575D01*
G37*
G36*
G01X1427861Y-729082D02*
G01X1427861Y-754482D01*
G02X1465961Y-773532I0J-47625D01*
G01Y-710032D01*
G02X1427861Y-729082I-38100J28575D01*
G37*
G36*
G01X1534016Y-822923D02*
G01X1563915Y-828946D01*
G02X1614043Y-802005I69836J-69836D01*
G01X1560957Y-769042D01*
G02X1534016Y-822923I-94293J13470D01*
G37*
G36*
G01X1629012Y-821252D02*
G01X1657240Y-828946D01*
G02X1687969Y-802005I220414J-220413D01*
G01X1655953Y-767371D01*
G02X1629012Y-821252I-94293J13470D01*
G37*
G36*
G01X1747139Y-762508D02*
G01X1747139Y-737108D01*
G02X1709039Y-718058I0J47625D01*
G01Y-781558D01*
G02X1747139Y-762508I38100J-28575D01*
G37*
G36*
G01X1602920Y-564413D02*
G01X1612621Y-625422D01*
G03X1655953Y-572389I-241727J241727D01*
G01Y-467995D01*
G02X1602920Y-564413I-192585J43134D01*
G37*
G36*
G01X339963Y-571100D02*
G01X339963Y-521100D01*
G02X264963Y-483600I0J93750D01*
G01Y-608600D01*
G02X339963Y-571100I75000J-56250D01*
G37*
G36*
G01X295672Y-1323100D02*
G01X295672Y-1293100D01*
G01X290760Y-1292942D01*
G01X287770Y-1292666D01*
G01X284990Y-1292258D01*
G01X282407Y-1291723D01*
G01X280009Y-1291065D01*
G01X277780Y-1290289D01*
G01X275707Y-1289399D01*
G01X273778Y-1288400D01*
G01X271977Y-1287296D01*
G01X270292Y-1286092D01*
G01X268709Y-1284792D01*
G01X267215Y-1283401D01*
G01X265795Y-1281922D01*
G01X263775Y-1279551D01*
G01X261216Y-1276126D01*
G01X253423Y-1264390D01*
G01X248787Y-1257920D01*
G01X245173Y-1253466D01*
G01X241013Y-1248940D01*
G01X237469Y-1245519D01*
G01X236198Y-1244378D01*
G01Y-1371822D01*
G01X239875Y-1368399D01*
G01X243168Y-1364991D01*
G01X247042Y-1360496D01*
G01X251205Y-1355007D01*
G01X259338Y-1342819D01*
G01X262482Y-1338326D01*
G01X264436Y-1335839D01*
G01X266496Y-1333528D01*
G01X267952Y-1332093D01*
G01X269489Y-1330746D01*
G01X271121Y-1329494D01*
G01X272862Y-1328339D01*
G01X274725Y-1327287D01*
G01X276725Y-1326342D01*
G01X278874Y-1325509D01*
G01X281186Y-1324791D01*
G01X283675Y-1324194D01*
G01X286354Y-1323722D01*
G01X289238Y-1323380D01*
G01X293976Y-1323118D01*
G01X295672Y-1323100D01*
G37*
G36*
G01X2589200Y-3549396D02*
G01X2589200Y-3574796D01*
G02X2627300Y-3577475I-0J-272272D01*
G01Y-3546717D01*
G02X2589200Y-3549396I-38100J269593D01*
G37*
G36*
G01X2708241Y-3527538D02*
G01X2691563Y-3508295D01*
G02X2637682Y-3535235I-67352J67352D01*
G01X2681300Y-3581420D01*
G02X2708241Y-3527538I94293J-13470D01*
G37*
G36*
G01X2030400Y-2010308D02*
G01X2030400Y-2035708D01*
G02X2068500Y-2054758I0J-47625D01*
G01Y-1991258D01*
G02X2030400Y-2010308I-38100J28575D01*
G37*
G36*
G01X2160600Y-1926692D02*
G01X2160600Y-1901292D01*
G02X2122500Y-1882242I0J47625D01*
G01Y-1945742D01*
G02X2160600Y-1926692I38100J-28575D01*
G37*
G36*
G01X2108200Y-1854200D02*
G01X2082800Y-1854200D01*
G02X2068500Y-1874487I-21540J0D01*
G01X2122500D01*
G02X2108200Y-1854200I7240J20287D01*
G37*
G36*
G01X2144700Y-1901292D02*
G01X2144700Y-1926692D01*
G02X2182800Y-1945742I0J-47625D01*
G01Y-1896935D01*
G02X2144700Y-1901292I-38100J164440D01*
G37*
G36*
G01X2274900Y-1937918D02*
G01X2274900Y-1912518D01*
G02X2236800Y-1896935I0J54368D01*
G01Y-1953501D01*
G02X2274900Y-1937918I38100J-38786D01*
G37*
G36*
G01X2144700Y-1999082D02*
G01X2144700Y-2024482D01*
G02X2182800Y-2040064I0J-54368D01*
G01Y-1983499D01*
G02X2144700Y-1999082I-38100J38786D01*
G37*
G36*
G01X2259000Y-1912518D02*
G01X2259000Y-1937918D01*
G02X2297100Y-1940597I-0J-272272D01*
G01Y-1909839D01*
G02X2259000Y-1912518I-38100J269593D01*
G37*
G36*
G01X694846Y-3370478D02*
G01X730201Y-3335122D01*
G02X703635Y-3301099I124925J124925D01*
G01X673327Y-3356416D01*
G02X694846Y-3370478I-22783J-58363D01*
G37*
G36*
G01X574635Y-3291912D02*
G01X574635Y-3341912D01*
G02X649635Y-3356416I0J-201155D01*
G01Y-3277407D01*
G02X574635Y-3291912I-75000J186650D01*
G37*
G36*
G01X482302Y-3361590D02*
G01X505153Y-3409449D01*
G03X535335Y-3356416I-81473J81473D01*
G01Y-3277407D01*
G02X482302Y-3361590I-211931J74715D01*
G37*
G36*
G01X664335Y-3341912D02*
G01X664335Y-3291912D01*
G02X589335Y-3286638I1J535968D01*
G01Y-3347185D01*
G02X664335Y-3341912I75001J-530694D01*
G37*
G36*
G01X664335Y-2940795D02*
G01X664335Y-2890795D01*
G02X589335Y-2885522I1J535968D01*
G01Y-2946069D01*
G02X664335Y-2940795I75001J-530694D01*
G37*
G36*
G01X539396Y-2857501D02*
G01X504041Y-2892856D01*
G02X535335Y-2955300I-78308J-78308D01*
G01Y-2876290D01*
G03X539396Y-2857501I-4025J10704D01*
G37*
G36*
G01X574635Y-2890795D02*
G01X574635Y-2940795D01*
G02X649635Y-2955300I0J-201155D01*
G01Y-2876290D01*
G02X574635Y-2890795I-75000J186650D01*
G37*
G36*
G01X753259Y-2940795D02*
G01X753259Y-2890795D01*
G02X703635Y-2885522I1J236120D01*
G01Y-2946069D01*
G02X753259Y-2940795I49624J-230847D01*
G37*
G36*
G01X866442Y-2819984D02*
G01X884403Y-2802024D01*
G02X874001Y-2764682I27888J27888D01*
G01X827817Y-2808300D01*
G02X866442Y-2819984I8403J-41906D01*
G37*
G36*
G01X919582Y-2846400D02*
G01X944982Y-2846400D01*
G02X947661Y-2808300I272272J-0D01*
G01X916903D01*
G02X919582Y-2846400I-269593J-38100D01*
G37*
G36*
G01X372020Y-2572549D02*
G01X398220Y-2582270D01*
G02X452101Y-2555329I67352J-67352D01*
G01X387223Y-2530405D01*
G02X372020Y-2572549I-52457J-4891D01*
G37*
G36*
G01X469900Y-2207171D02*
G01X444500Y-2207171D01*
G02X425450Y-2245271I-47625J0D01*
G01X488950D01*
G02X469900Y-2207171I28575J38100D01*
G37*
G36*
G01X388518Y-2046300D02*
G01X413918Y-2046300D01*
G02X429501Y-2008200I54368J0D01*
G01X372936D01*
G02X388518Y-2046300I-38786J-38100D01*
G37*
G36*
G01X554165Y-1993900D02*
G01X554165Y-1968500D01*
G02X516065Y-1965821I0J272272D01*
G01Y-1996579D01*
G02X554165Y-1993900I38100J-269593D01*
G37*
G36*
G01X307862Y-2149441D02*
G01X327105Y-2132763D01*
G02X300165Y-2078882I67352J67352D01*
G01X253980Y-2122500D01*
G02X307862Y-2149441I-13470J-94293D01*
G37*
G36*
G01X172618Y-2140280D02*
G01X198018Y-2140280D01*
G02X213601Y-2122500I17935J0D01*
G01X157036D01*
G02X172618Y-2140280I-2352J-17780D01*
G37*
G36*
G01X523762Y-2149441D02*
G01X543005Y-2132763D01*
G02X516065Y-2078882I67352J67352D01*
G01X469880Y-2122500D01*
G02X523762Y-2149441I-13470J-94293D01*
G37*
G36*
G01X388518Y-2140280D02*
G01X413918Y-2140280D01*
G02X429501Y-2122500I17935J0D01*
G01X372936D01*
G02X388518Y-2140280I-2352J-17780D01*
G37*
G36*
G01X413918Y-2030400D02*
G01X388518Y-2030400D01*
G02X385839Y-2068500I-272272J0D01*
G01X416597D01*
G02X413918Y-2030400I269593J38100D01*
G37*
G36*
G01X2920600Y-1902093D02*
G01X2870600Y-1902093D01*
G02X2835600Y-1977093I-97857J0D01*
G01X2955600D01*
G02X2920600Y-1902093I62857J75000D01*
G37*
G36*
G01X2808659Y-2426087D02*
G01X2826620Y-2444048D01*
G02X2880501Y-2417107I67352J-67352D01*
G01X2835600Y-2372206D01*
G02X2808659Y-2426087I-94293J13470D01*
G37*
G36*
G01X3030600Y-2382107D02*
G01X3030600Y-2332107D01*
G02X2955600Y-2326834I1J535968D01*
G01Y-2387381D01*
G02X3030600Y-2382107I75001J-530694D01*
G37*
G36*
G01X2830500Y-1798218D02*
G01X2830500Y-1823618D01*
G02X2868600Y-1839201I0J-54368D01*
G01Y-1782635D01*
G02X2830500Y-1798218I-38100J38786D01*
G37*
G36*
G01X2870600Y-2000764D02*
G01X2920600Y-2000764D01*
G03X2910248Y-1925764I-276874J0D01*
G01X2880952D01*
G03X2870600Y-2000764I266522J-75000D01*
G37*
G36*
G01X2592400Y-2456282D02*
G01X2592400Y-2430882D01*
G02X2554300Y-2415299I0J54368D01*
G01Y-2471864D01*
G02X2592400Y-2456282I38100J-38786D01*
G37*
G36*
G01X3139914Y-1877482D02*
G01X3139914Y-1917482D01*
G02X3173400Y-1925764I0J-71827D01*
G01Y-1869199D01*
G02X3139914Y-1877482I-33485J63544D01*
G37*
G36*
G01X3036137Y-1755695D02*
G01X3019459Y-1774938D01*
G02X3046400Y-1828820I-67352J-67352D01*
G01X3090018Y-1782635D01*
G02X3036137Y-1755695I13470J94293D01*
G37*
G36*
G01X3139914Y-1917482D02*
G01X3139914Y-1877482D01*
G02X3100400Y-1873263I-0J187162D01*
G01Y-1921700D01*
G02X3139914Y-1917482I39514J-182943D01*
G37*
G36*
G01X3076870Y-2678041D02*
G01X3063862Y-2655127D01*
G02X3009981Y-2682068I-67352J67352D01*
G01X3049929Y-2731922D01*
G02X3076870Y-2678041I94293J-13470D01*
G37*
G36*
G01X3156900Y-1917093D02*
G01X3116900Y-1917093D01*
G02X3086900Y-1977093I-75000J0D01*
G01X3186900D01*
G02X3156900Y-1917093I45000J60000D01*
G37*
G36*
G01X3205880Y-2124033D02*
G01X3223841Y-2106073D01*
G02X3196900Y-2052191I67352J67352D01*
G01X3151999Y-2097093D01*
G02X3205880Y-2124033I-13470J-94293D01*
G37*
G36*
G01X3001900Y-2332107D02*
G01X3001900Y-2382107D01*
G02X3076900Y-2417107I0J-97857D01*
G01Y-2297107D01*
G02X3001900Y-2332107I-75000J62857D01*
G37*
G36*
G01X3015681Y-3441964D02*
G01X3051037Y-3477319D01*
G01X3054214Y-3474337D01*
G01X3057362Y-3471761D01*
G01X3059449Y-3470256D01*
G01X3061531Y-3468911D01*
G01X3063609Y-3467718D01*
G01X3065687Y-3466668D01*
G01X3067768Y-3465753D01*
G01X3069853Y-3464965D01*
G01X3071947Y-3464296D01*
G01X3075108Y-3463496D01*
G01X3078303Y-3462917D01*
G01X3081541Y-3462529D01*
G01X3085941Y-3462264D01*
G01X3092764Y-3462269D01*
G01X3112794Y-3463071D01*
G01X3121206Y-3463030D01*
G01X3125636Y-3462823D01*
G01X3030177Y-3367364D01*
G01X3029897Y-3376072D01*
G01X3030499Y-3394299D01*
G01X3030780Y-3404817D01*
G01X3030636Y-3409272D01*
G01X3030361Y-3412544D01*
G01X3029913Y-3415766D01*
G01X3029263Y-3418949D01*
G01X3028384Y-3422101D01*
G01X3027656Y-3424191D01*
G01X3026806Y-3426273D01*
G01X3025825Y-3428352D01*
G01X3024704Y-3430430D01*
G01X3023436Y-3432510D01*
G01X3022012Y-3434594D01*
G01X3019566Y-3437735D01*
G01X3016722Y-3440901D01*
G01X3015681Y-3441964D01*
G37*
G36*
G01X3047501Y-3272217D02*
G01X3019217Y-3300501D01*
G01X3022516Y-3304018D01*
G01X3024426Y-3306310D01*
G01X3026118Y-3308564D01*
G01X3027602Y-3310785D01*
G01X3028890Y-3312980D01*
G01X3029993Y-3315153D01*
G01X3030922Y-3317309D01*
G01X3031688Y-3319452D01*
G01X3032303Y-3321589D01*
G01X3032777Y-3323723D01*
G01X3033122Y-3325861D01*
G01X3033349Y-3328006D01*
G01X3033492Y-3331251D01*
G01X3033433Y-3334541D01*
G01X3033104Y-3339030D01*
G01X3031086Y-3354880D01*
G01X3030276Y-3363120D01*
G01X3029968Y-3370571D01*
G01X3030085Y-3376970D01*
G01X3030177Y-3378636D01*
G01X3125636Y-3283177D01*
G01X3119132Y-3282962D01*
G01X3113031Y-3283102D01*
G01X3104549Y-3283780D01*
G01X3087174Y-3285986D01*
G01X3082651Y-3286375D01*
G01X3079341Y-3286493D01*
G01X3076084Y-3286421D01*
G01X3073932Y-3286249D01*
G01X3071791Y-3285965D01*
G01X3069656Y-3285557D01*
G01X3067521Y-3285013D01*
G01X3065381Y-3284324D01*
G01X3063233Y-3283478D01*
G01X3061069Y-3282464D01*
G01X3058886Y-3281270D01*
G01X3056678Y-3279885D01*
G01X3054441Y-3278299D01*
G01X3052169Y-3276499D01*
G01X3048685Y-3273376D01*
G01X3047501Y-3272217D01*
G37*
G36*
G01X1987379Y-2809692D02*
G01X1947379Y-2809692D01*
G02X1917379Y-2869692I-75000J0D01*
G01X2017379D01*
G02X1987379Y-2809692I45000J60000D01*
G37*
G36*
G01X2331400Y-2809692D02*
G01X2291400Y-2809692D01*
G02X2261400Y-2869692I-75000J0D01*
G01X2361400D01*
G02X2331400Y-2809692I45000J60000D01*
G37*
G36*
G01X2367934Y-2561089D02*
G01X2342452Y-2592177D01*
G02X2384879Y-2640569I-347109J-347109D01*
G01X2406625Y-2593814D01*
G02X2367934Y-2561089I176517J247932D01*
G37*
G36*
G01X2498879Y-2649611D02*
G01X2498879Y-2609611D01*
G02X2438879Y-2593814I0J121849D01*
G01Y-2672824D01*
G02X2498879Y-2649611I60000J-65936D01*
G37*
G36*
G01X2718511Y-2649611D02*
G01X2718511Y-2609611D01*
G02X2667479Y-2590106I0J76512D01*
G01Y-2669115D01*
G02X2718511Y-2649611I51032J-57007D01*
G37*
G36*
G01X2553479Y-2609611D02*
G01X2553479Y-2649611D01*
G02X2613479Y-2653829I0J-428774D01*
G01Y-2605392D01*
G02X2553479Y-2609611I-59999J424555D01*
G37*
G36*
G01X2613179Y-2649611D02*
G01X2613179Y-2609611D01*
G02X2499179Y-2593814I0J419264D01*
G01Y-2672824D01*
G02X2613179Y-2649611I114000J-268323D01*
G37*
G36*
G01X2439179Y-2609611D02*
G01X2439179Y-2649611D01*
G02X2499179Y-2653829I0J-428774D01*
G01Y-2605392D01*
G02X2439179Y-2609611I-59999J424555D01*
G37*
G36*
G01X2012646Y-2283685D02*
G01X2043111Y-2289141D01*
G02X2096993Y-2262200I67352J-67352D01*
G01X2039587Y-2229803D01*
G02X2012646Y-2283685I-94293J13470D01*
G37*
G36*
G01X1803779Y-2395419D02*
G01X1800309Y-2427869D01*
G02X1827249Y-2478925I-69096J-69096D01*
G01X1857661Y-2422359D01*
G02X1803779Y-2395419I13470J94293D01*
G37*
G36*
G01X1791742Y-2419303D02*
G01X1793890Y-2385530D01*
G02X1766950Y-2354801I220413J220414D01*
G01X1737861Y-2392362D01*
G02X1791742Y-2419303I-13470J-94293D01*
G37*
G36*
G01X1727600Y-2630198D02*
G01X1727600Y-2580198D01*
G02X1652600Y-2560287I0J151208D01*
G01Y-2639296D01*
G02X1727600Y-2630198I75000J-304574D01*
G37*
G36*
G01X1650600Y-2531971D02*
G01X1600600Y-2531971D01*
G02X1598600Y-2560287I-201422J0D01*
G01X1652600D01*
G02X1650600Y-2531971I199422J28316D01*
G37*
G36*
G01X1633170Y-2580198D02*
G01X1633170Y-2630198D01*
G02X1707770Y-2635471I-1J-530293D01*
G01Y-2574924D01*
G02X1633170Y-2580198I-74601J525019D01*
G37*
G36*
G01X1836770Y-2630198D02*
G01X1836770Y-2580198D01*
G02X1761770Y-2565693I0J201155D01*
G01Y-2644703D01*
G02X1836770Y-2630198I75000J-186650D01*
G37*
G36*
G01X1747070Y-2580198D02*
G01X1747070Y-2630198D01*
G02X1822070Y-2635471I-1J-535968D01*
G01Y-2574924D01*
G02X1747070Y-2580198I-75001J530694D01*
G37*
G36*
G01X1893742Y-2566842D02*
G01X1865458Y-2538558D01*
G02X1822070Y-2565693I-80568J80567D01*
G01X1876070D01*
G03X1893742Y-2566842I9340J7183D01*
G37*
G36*
G01X1600600Y-2531971D02*
G01X1650600Y-2531971D01*
G02X1652650Y-2505082I177389J0D01*
G01X1598649D01*
G02X1600600Y-2531971I-184344J-26889D01*
G37*
G36*
G01X1725014Y-2490577D02*
G01X1725014Y-2440577D01*
G02X1652650Y-2435304I1J499148D01*
G01Y-2495851D01*
G02X1725014Y-2490577I72365J-493875D01*
G37*
G36*
G01X2001565Y-2325426D02*
G01X1976165Y-2325426D01*
G02X1957115Y-2362706I-46002J0D01*
G01X2020615D01*
G02X2001565Y-2325426I26952J37280D01*
G37*
G36*
G01X2298882Y-2540000D02*
G01X2258882Y-2540000D01*
G02X2254664Y-2562731I-63348J-0D01*
G01X2303101D01*
G02X2298882Y-2540000I59129J22731D01*
G37*
G36*
G01X2008865Y-2641600D02*
G01X1968865Y-2641600D01*
G02X1964647Y-2662731I-55029J-0D01*
G01X2013084D01*
G02X2008865Y-2641600I50810J21131D01*
G37*
G36*
G01X2298882Y-2641600D02*
G01X2258882Y-2641600D01*
G02X2254664Y-2662731I-55029J-0D01*
G01X2303101D01*
G02X2298882Y-2641600I50810J21131D01*
G37*
G36*
G01X992745Y-3049584D02*
G01X1018145Y-3049584D01*
G01X1017977Y-3044700D01*
G01X1017551Y-3040314D01*
G01X1016062Y-3030308D01*
G01X1015712Y-3026912D01*
G01X1015637Y-3024678D01*
G01X1015730Y-3022434D01*
G01X1016026Y-3020151D01*
G01X1016562Y-3017800D01*
G01X1017371Y-3015353D01*
G01X1018489Y-3012780D01*
G01X1019952Y-3010052D01*
G01X1020824Y-3008621D01*
G01X990066D01*
G01X991715Y-3011437D01*
G01X993001Y-3014084D01*
G01X993960Y-3016590D01*
G01X994628Y-3018986D01*
G01X995039Y-3021299D01*
G01X995230Y-3023559D01*
G01X995234Y-3025795D01*
G01X995089Y-3028035D01*
G01X994487Y-3032644D01*
G01X993176Y-3041726D01*
G01X992823Y-3046268D01*
G01X992745Y-3049584D01*
G37*
G36*
G01X888122Y-2817952D02*
G01X862722Y-2817952D01*
G01X862894Y-2822893D01*
G01X863327Y-2827328D01*
G01X864843Y-2837438D01*
G01X865202Y-2840867D01*
G01X865281Y-2843124D01*
G01X865190Y-2845391D01*
G01X864893Y-2847697D01*
G01X864353Y-2850073D01*
G01X863536Y-2852546D01*
G01X862406Y-2855148D01*
G01X860926Y-2857907D01*
G01X860043Y-2859355D01*
G01X890801D01*
G01X889133Y-2856506D01*
G01X887833Y-2853829D01*
G01X886863Y-2851295D01*
G01X886189Y-2848874D01*
G01X885776Y-2846537D01*
G01X885586Y-2844254D01*
G01X885584Y-2841996D01*
G01X885735Y-2839734D01*
G01X886349Y-2835079D01*
G01X887684Y-2825900D01*
G01X888043Y-2821307D01*
G01X888122Y-2817952D01*
G37*
G36*
G01X862722Y-3050025D02*
G01X888122Y-3050025D01*
G01X887951Y-3045084D01*
G01X887518Y-3040648D01*
G01X886002Y-3030539D01*
G01X885642Y-3027109D01*
G01X885564Y-3024853D01*
G01X885655Y-3022586D01*
G01X885952Y-3020280D01*
G01X886492Y-3017904D01*
G01X887309Y-3015430D01*
G01X888439Y-3012828D01*
G01X889919Y-3010069D01*
G01X890801Y-3008621D01*
G01X860043D01*
G01X861712Y-3011470D01*
G01X863012Y-3014147D01*
G01X863982Y-3016681D01*
G01X864655Y-3019102D01*
G01X865069Y-3021440D01*
G01X865259Y-3023722D01*
G01X865261Y-3025980D01*
G01X865110Y-3028243D01*
G01X864496Y-3032898D01*
G01X863161Y-3042077D01*
G01X862801Y-3046670D01*
G01X862722Y-3050025D01*
G37*
G36*
G01X753259Y-2890795D02*
G01X753259Y-2940795D01*
G01X755085Y-2940847D01*
G01X756907Y-2941002D01*
G01X758722Y-2941256D01*
G01X760527Y-2941607D01*
G01X764089Y-2942586D01*
G01X767566Y-2943915D01*
G01X770929Y-2945568D01*
G01X774149Y-2947523D01*
G01X777198Y-2949755D01*
G01X780047Y-2952239D01*
G01X782668Y-2954952D01*
G01X785032Y-2957868D01*
G01X787110Y-2960965D01*
G01X788875Y-2964217D01*
G01X789631Y-2965893D01*
G01X790297Y-2967600D01*
G01X790871Y-2969333D01*
G01X791348Y-2971090D01*
G01X791726Y-2972868D01*
G01X792000Y-2974663D01*
G01X792167Y-2976473D01*
G01X792223Y-2978295D01*
G01Y-2869089D01*
G01X792167Y-2870865D01*
G01X792000Y-2872543D01*
G01X791726Y-2874126D01*
G01X791348Y-2875615D01*
G01X790871Y-2877014D01*
G01X790297Y-2878326D01*
G01X789631Y-2879554D01*
G01X788875Y-2880699D01*
G01X788034Y-2881766D01*
G01X787110Y-2882756D01*
G01X786108Y-2883673D01*
G01X785032Y-2884518D01*
G01X783884Y-2885296D01*
G01X782668Y-2886008D01*
G01X781388Y-2886658D01*
G01X780047Y-2887248D01*
G01X777198Y-2888259D01*
G01X774149Y-2889064D01*
G01X770929Y-2889685D01*
G01X765840Y-2890318D01*
G01X758722Y-2890724D01*
G01X753259Y-2890795D01*
G37*
G36*
G01X990600Y-3473730D02*
G01X1016000Y-3478027D01*
G01X1016328Y-3475128D01*
G01X1023645Y-3425100D01*
G01X987245D01*
G01X990600Y-3473730D01*
G37*
G36*
G01X927100Y-3475602D02*
G01X952500Y-3476814D01*
G01X953457Y-3468019D01*
G01X958553Y-3426071D01*
G01X958621Y-3425100D01*
G01X922221D01*
G01X926650Y-3470216D01*
G01X927100Y-3475602D01*
G37*
G36*
G01X863600Y-3477037D02*
G01X889000Y-3475320D01*
G01X893196Y-3430460D01*
G01X893623Y-3425100D01*
G01X857222D01*
G01X858219Y-3433929D01*
G01X863528Y-3476064D01*
G01X863600Y-3477037D01*
G37*
G36*
G01X1014425Y-3058564D02*
G01X988164Y-3048904D01*
G02X934283Y-3075845I-67352J67352D01*
G01X995934Y-3103996D01*
G02X1014425Y-3058564I63145J779D01*
G37*
G36*
G01X888122Y-3037745D02*
G01X862722Y-3037745D01*
G02X843672Y-3075845I-47625J0D01*
G01X907172D01*
G02X888122Y-3037745I28575J38100D01*
G37*
G36*
G01X2480220Y-3891382D02*
G01X2480220Y-3916782D01*
G02X2500300Y-3919461I-0J-76595D01*
G01Y-3888703D01*
G02X2480220Y-3891382I-20080J73916D01*
G37*
G36*
G01X2600359Y-3940062D02*
G01X2617037Y-3959305D01*
G02X2670918Y-3932364I67352J-67352D01*
G01X2627300Y-3886180D01*
G02X2600359Y-3940062I-94293J13470D01*
G37*
G36*
G01X2714659Y-3952762D02*
G01X2744037Y-3959305D01*
G02X2774766Y-3932364I220414J-220413D01*
G01X2741600Y-3898880D01*
G02X2714659Y-3952762I-94293J13470D01*
G37*
G36*
G01X815941Y-3806938D02*
G01X799263Y-3787695D01*
G02X745382Y-3814635I-67352J67352D01*
G01X789000Y-3860820D01*
G02X815941Y-3806938I94293J-13470D01*
G37*
G36*
G01X754482Y-3980282D02*
G01X779882Y-3980282D01*
G02X789000Y-3957764I32361J0D01*
G01X735432D01*
G02X754482Y-3980282I-3783J-22517D01*
G37*
G36*
G01X609600Y-3980282D02*
G01X635000Y-3980282D01*
G02X649300Y-3957764I24878J0D01*
G01X595300D01*
G02X609600Y-3980282I-10578J-22517D01*
G37*
G36*
G01X2588200Y-3574796D02*
G01X2588200Y-3549396D01*
G02X2550100Y-3530346I0J47625D01*
G01Y-3593846D01*
G02X2588200Y-3574796I38100J-28575D01*
G37*
G36*
G01X2187000Y-3467100D02*
G01X2187000Y-3492500D01*
G02X2225100Y-3495179I-0J-272272D01*
G01Y-3448050D01*
G02X2187000Y-3467100I-38100J28575D01*
G37*
G36*
G01X2942978Y-1521959D02*
G01X2955986Y-1544873D01*
G02X3009867Y-1517932I67352J-67352D01*
G01X2969919Y-1468078D01*
G02X2942978Y-1521959I-94293J13470D01*
G37*
G36*
G01X2242787Y-1219200D02*
G01X2242787Y-1244600D01*
G02X2280887Y-1258900I0J-57905D01*
G01Y-1204900D01*
G02X2242787Y-1219200I-38100J43605D01*
G37*
G36*
G01X655765Y-1562100D02*
G01X655765Y-1536700D01*
G02X617665Y-1522400I0J57905D01*
G01Y-1576400D01*
G02X655765Y-1562100I38100J-43605D01*
G37*
G36*
G01X1535292Y-2099700D02*
G01X1505292Y-2099700D01*
G02X1482792Y-2144700I-56250J-0D01*
G01X1557792D01*
G02X1535292Y-2099700I33750J45000D01*
G37*
G36*
G01X1377608Y-2099700D02*
G01X1347608Y-2099700D01*
G02X1325109Y-2144700I-56250J-0D01*
G01X1400108D01*
G02X1377608Y-2099700I33750J45000D01*
G37*
G36*
G01X1404563Y-1918142D02*
G01X1404563Y-1875716D01*
G02X1352222Y-1896237I-49665J49665D01*
G01X1372743Y-1981782D01*
G02X1404563Y-1918142I111369J-15910D01*
G37*
G36*
G01X1491037Y-1875716D02*
G01X1491037Y-1918142D01*
G02X1522857Y-1981782I-79549J-79549D01*
G01X1543378Y-1896237D01*
G02X1491037Y-1875716I-2676J70186D01*
G37*
G36*
G01X1767637Y-1979600D02*
G01X1742237Y-1979600D01*
G02X1723187Y-2017700I-47625J0D01*
G01X1770316D01*
G02X1767637Y-1979600I269593J38100D01*
G37*
G36*
G01X1742237Y-1995500D02*
G01X1767637Y-1995500D01*
G02X1783220Y-1957400I54368J0D01*
G01X1726654D01*
G02X1742237Y-1995500I-38786J-38100D01*
G37*
G36*
G01X1825520Y-1876459D02*
G01X1789598Y-1876459D01*
G02X1813217Y-1927018I-57795J-57795D01*
G01X1855547Y-1903400D01*
G02X1825520Y-1876459I233577J290545D01*
G37*
G36*
G01X1195400Y-2044700D02*
G01X1195400Y-2019300D01*
G02X1157300Y-2001487I0J49652D01*
G01Y-2063750D01*
G02X1195400Y-2044700I38100J-28575D01*
G37*
G36*
G01X617118Y-1854746D02*
G01X642518Y-1854746D01*
G02X656819Y-1816646I57905J0D01*
G01X602818D01*
G02X617118Y-1854746I-43605J-38100D01*
G37*
G36*
G01X585038Y-1689100D02*
G01X585038Y-1714500D01*
G02X602818Y-1730083I0J-17935D01*
G01Y-1673517D01*
G02X585038Y-1689100I-17780J2352D01*
G37*
G36*
G01X88900Y-1727200D02*
G01X88900Y-1752600D01*
G02X122893Y-1771650I0J-39853D01*
G01Y-1708150D01*
G02X88900Y-1727200I-33993J20803D01*
G37*
G36*
G01X1284007Y-1770282D02*
G01X1284037Y-1806173D01*
G01X1285912Y-1804454D01*
G01X1287965Y-1802851D01*
G01X1290178Y-1801365D01*
G01X1292532Y-1799994D01*
G01X1295007Y-1798739D01*
G01X1298908Y-1797069D01*
G01X1302976Y-1795654D01*
G01X1307148Y-1794490D01*
G01X1311359Y-1793575D01*
G01X1315546Y-1792906D01*
G01X1319645Y-1792482D01*
G01X1323591Y-1792298D01*
G01X1324861Y-1792290D01*
G01X1310948Y-1716344D01*
G01X1310793Y-1719941D01*
G01X1310343Y-1723579D01*
G01X1309616Y-1727241D01*
G01X1308633Y-1730914D01*
G01X1307413Y-1734582D01*
G01X1305976Y-1738230D01*
G01X1303456Y-1743632D01*
G01X1300559Y-1748903D01*
G01X1297351Y-1753993D01*
G01X1293900Y-1758850D01*
G01X1290270Y-1763425D01*
G01X1286530Y-1767666D01*
G01X1284007Y-1770282D01*
G37*
G36*
G01X1612192Y-1822240D02*
G01X1637592Y-1822240D01*
G01X1638862Y-1778320D01*
G01X1610922D01*
G01X1612192Y-1822240D01*
G37*
G36*
G01X1688647Y-1675599D02*
G01X1663247Y-1670584D01*
G01X1662619Y-1695547D01*
G01X1661354Y-1712137D01*
G01X1661064Y-1714639D01*
G01X1683389Y-1705226D01*
G01X1682345Y-1704147D01*
G01X1681694Y-1702836D01*
G01X1681390Y-1701322D01*
G01X1681388Y-1699631D01*
G01X1681644Y-1697792D01*
G01X1682112Y-1695832D01*
G01X1683509Y-1691656D01*
G01X1686885Y-1683059D01*
G01X1687589Y-1681018D01*
G01X1688147Y-1679077D01*
G01X1688515Y-1677261D01*
G01X1688647Y-1675599D01*
G37*
G36*
G01X1812344Y-1810070D02*
G01X1837744Y-1810070D01*
G01X1837317Y-1807673D01*
G01X1836231Y-1804941D01*
G01X1833271Y-1799089D01*
G01X1831989Y-1796276D01*
G01X1831233Y-1793745D01*
G01X1831300Y-1791649D01*
G01X1832486Y-1790143D01*
G01X1817603D01*
G01X1818788Y-1791649D01*
G01X1818855Y-1793745D01*
G01X1818099Y-1796276D01*
G01X1815304Y-1802028D01*
G01X1813857Y-1804941D01*
G01X1812772Y-1807673D01*
G01X1812344Y-1810070D01*
G37*
G36*
G01X1896020Y-1786230D02*
G01X1913980Y-1768270D01*
G01X1910485Y-1764528D01*
G01X1907051Y-1760360D01*
G01X1903741Y-1755831D01*
G01X1900615Y-1751010D01*
G01X1897736Y-1745964D01*
G01X1895165Y-1740759D01*
G01X1892964Y-1735462D01*
G01X1891733Y-1731913D01*
G01X1890711Y-1728373D01*
G01X1889917Y-1724863D01*
G01X1889370Y-1721401D01*
G01X1889088Y-1718009D01*
G01X1889052Y-1716344D01*
G01X1875139Y-1792290D01*
G01X1876427Y-1792165D01*
G01X1877767Y-1791827D01*
G01X1879150Y-1791314D01*
G01X1881999Y-1789917D01*
G01X1887723Y-1786716D01*
G01X1889097Y-1786056D01*
G01X1890426Y-1785528D01*
G01X1891699Y-1785172D01*
G01X1892906Y-1785026D01*
G01X1894036Y-1785127D01*
G01X1895077Y-1785516D01*
G01X1896020Y-1786230D01*
G37*
G36*
G01X2018218Y-1690182D02*
G01X2018218Y-1664782D01*
G01X1975920Y-1663512D01*
G01Y-1691452D01*
G01X2018218Y-1690182D01*
G37*
G36*
G01X2019840Y-1640144D02*
G01X2019840Y-1614744D01*
G01X2018073Y-1614886D01*
G01X2016113Y-1615277D01*
G01X2011754Y-1616619D01*
G01X2002240Y-1620183D01*
G01X1997637Y-1621631D01*
G01X1995494Y-1622102D01*
G01X1993503Y-1622341D01*
G01X1991698Y-1622299D01*
G01X1990113Y-1621927D01*
G01X1988783Y-1621178D01*
G01X1987743Y-1620003D01*
G01Y-1634885D01*
G01X1988783Y-1633710D01*
G01X1990113Y-1632961D01*
G01X1991698Y-1632589D01*
G01X1993503Y-1632547D01*
G01X1995494Y-1632786D01*
G01X1997637Y-1633257D01*
G01X2002240Y-1634705D01*
G01X2011754Y-1638269D01*
G01X2016113Y-1639611D01*
G01X2018073Y-1640003D01*
G01X2019840Y-1640144D01*
G37*
G36*
G01X2007670Y-1439992D02*
G01X2007670Y-1414592D01*
G01X2005273Y-1415020D01*
G01X2002541Y-1416105D01*
G01X1996689Y-1419065D01*
G01X1993876Y-1420347D01*
G01X1991345Y-1421103D01*
G01X1989250Y-1421036D01*
G01X1987743Y-1419851D01*
G01Y-1434733D01*
G01X1989250Y-1433548D01*
G01X1991345Y-1433481D01*
G01X1993876Y-1434237D01*
G01X1999628Y-1437032D01*
G01X2002541Y-1438479D01*
G01X2005273Y-1439565D01*
G01X2007670Y-1439992D01*
G37*
G36*
G01X2019840Y-1390208D02*
G01X2019840Y-1364808D01*
G01X1975920Y-1363538D01*
G01Y-1391478D01*
G01X2019840Y-1390208D01*
G37*
G36*
G01X2012630Y-1340170D02*
G01X2012630Y-1314770D01*
G01X2011230Y-1314895D01*
G01X2009691Y-1315241D01*
G01X2008037Y-1315766D01*
G01X2004491Y-1317191D01*
G01X1997148Y-1320367D01*
G01X1995409Y-1320986D01*
G01X1993759Y-1321453D01*
G01X1992225Y-1321724D01*
G01X1990830Y-1321759D01*
G01X1989602Y-1321516D01*
G01X1988564Y-1320953D01*
G01X1987743Y-1320029D01*
G01Y-1334911D01*
G01X1989602Y-1333425D01*
G01X1992225Y-1333216D01*
G01X1995409Y-1333954D01*
G01X1998951Y-1335304D01*
G01X2006296Y-1338509D01*
G01X2009691Y-1339699D01*
G01X2012630Y-1340170D01*
G37*
G36*
G01X2019840Y-1240094D02*
G01X2019840Y-1214694D01*
G01X2018073Y-1214836D01*
G01X2016113Y-1215227D01*
G01X2011754Y-1216569D01*
G01X2002240Y-1220133D01*
G01X1997637Y-1221581D01*
G01X1995494Y-1222052D01*
G01X1993503Y-1222291D01*
G01X1991698Y-1222249D01*
G01X1990113Y-1221877D01*
G01X1988783Y-1221128D01*
G01X1987743Y-1219953D01*
G01Y-1234835D01*
G01X1988783Y-1233660D01*
G01X1990113Y-1232911D01*
G01X1991698Y-1232539D01*
G01X1993503Y-1232497D01*
G01X1995494Y-1232736D01*
G01X1997637Y-1233207D01*
G01X2002240Y-1234655D01*
G01X2011754Y-1238219D01*
G01X2016113Y-1239561D01*
G01X2018073Y-1239953D01*
G01X2019840Y-1240094D01*
G37*
G36*
G01X1887782Y-982560D02*
G01X1862382Y-982560D01*
G01X1862524Y-984327D01*
G01X1862915Y-986287D01*
G01X1864257Y-990646D01*
G01X1867821Y-1000160D01*
G01X1869269Y-1004763D01*
G01X1869740Y-1006906D01*
G01X1869979Y-1008897D01*
G01X1869937Y-1010703D01*
G01X1869565Y-1012287D01*
G01X1868816Y-1013617D01*
G01X1867641Y-1014657D01*
G01X1882524D01*
G01X1881348Y-1013617D01*
G01X1880599Y-1012287D01*
G01X1880227Y-1010703D01*
G01X1880185Y-1008897D01*
G01X1880424Y-1006906D01*
G01X1880895Y-1004763D01*
G01X1882343Y-1000160D01*
G01X1885907Y-990646D01*
G01X1887249Y-986287D01*
G01X1887641Y-984327D01*
G01X1887782Y-982560D01*
G37*
G36*
G01X1837744Y-982560D02*
G01X1812344Y-982560D01*
G01X1811074Y-1026480D01*
G01X1839014D01*
G01X1837744Y-982560D01*
G37*
G36*
G01X1787706Y-982560D02*
G01X1762306Y-982560D01*
G01X1761036Y-1026480D01*
G01X1788976D01*
G01X1787706Y-982560D01*
G37*
G36*
G01X1737668Y-982560D02*
G01X1712268Y-982560D01*
G01X1712410Y-984327D01*
G01X1712801Y-986287D01*
G01X1714143Y-990646D01*
G01X1717707Y-1000160D01*
G01X1719155Y-1004763D01*
G01X1719626Y-1006906D01*
G01X1719865Y-1008897D01*
G01X1719823Y-1010703D01*
G01X1719451Y-1012287D01*
G01X1718702Y-1013617D01*
G01X1717527Y-1014657D01*
G01X1732410D01*
G01X1731234Y-1013617D01*
G01X1730485Y-1012287D01*
G01X1730113Y-1010703D01*
G01X1730071Y-1008897D01*
G01X1730310Y-1006906D01*
G01X1730781Y-1004763D01*
G01X1732229Y-1000160D01*
G01X1735793Y-990646D01*
G01X1737135Y-986287D01*
G01X1737527Y-984327D01*
G01X1737668Y-982560D01*
G37*
G36*
G01X1638300Y-984457D02*
G01X1612900Y-981214D01*
G01X1610922Y-1026480D01*
G01X1638862D01*
G01X1638300Y-984457D01*
G37*
G36*
G01X1587808Y-982560D02*
G01X1562408Y-982560D01*
G01X1562550Y-984327D01*
G01X1562941Y-986287D01*
G01X1564283Y-990646D01*
G01X1567847Y-1000160D01*
G01X1569295Y-1004763D01*
G01X1569766Y-1006906D01*
G01X1570005Y-1008897D01*
G01X1569963Y-1010703D01*
G01X1569591Y-1012287D01*
G01X1568842Y-1013617D01*
G01X1567667Y-1014657D01*
G01X1582550D01*
G01X1581374Y-1013617D01*
G01X1580625Y-1012287D01*
G01X1580253Y-1010703D01*
G01X1580211Y-1008897D01*
G01X1580450Y-1006906D01*
G01X1580921Y-1004763D01*
G01X1582369Y-1000160D01*
G01X1585933Y-990646D01*
G01X1587275Y-986287D01*
G01X1587667Y-984327D01*
G01X1587808Y-982560D01*
G37*
G36*
G01X1537770Y-982560D02*
G01X1512370Y-982560D01*
G01X1511100Y-1026480D01*
G01X1539040D01*
G01X1537770Y-982560D01*
G37*
G36*
G01X1487732Y-982560D02*
G01X1462332Y-982560D01*
G01X1461062Y-1026480D01*
G01X1489002D01*
G01X1487732Y-982560D01*
G37*
G36*
G01X1362978Y-1133746D02*
G01X1388378Y-1130430D01*
G01X1388242Y-1128723D01*
G01X1387866Y-1126849D01*
G01X1387294Y-1124838D01*
G01X1383984Y-1116019D01*
G01X1382358Y-1111563D01*
G01X1381715Y-1109427D01*
G01X1381245Y-1107394D01*
G01X1380995Y-1105491D01*
G01X1381012Y-1103750D01*
G01X1381340Y-1102200D01*
G01X1382028Y-1100871D01*
G01X1383120Y-1099793D01*
G01X1368237Y-1100704D01*
G01X1369476Y-1101688D01*
G01X1370272Y-1102996D01*
G01X1370676Y-1104588D01*
G01X1370737Y-1106426D01*
G01X1370507Y-1108473D01*
G01X1370033Y-1110689D01*
G01X1368560Y-1115477D01*
G01X1364907Y-1125401D01*
G01X1363527Y-1129924D01*
G01X1363124Y-1131942D01*
G01X1362978Y-1133746D01*
G37*
G36*
G01X1192330Y-1164656D02*
G01X1192330Y-1190056D01*
G01X1224080Y-1191326D01*
G01Y-1163386D01*
G01X1192330Y-1164656D01*
G37*
G36*
G01X1180160Y-1214694D02*
G01X1180160Y-1240094D01*
G01X1224080Y-1241364D01*
G01Y-1213424D01*
G01X1180160Y-1214694D01*
G37*
G36*
G01X1180160Y-1264732D02*
G01X1180160Y-1290132D01*
G01X1181928Y-1289991D01*
G01X1183887Y-1289599D01*
G01X1188247Y-1288257D01*
G01X1197760Y-1284693D01*
G01X1202363Y-1283245D01*
G01X1204506Y-1282774D01*
G01X1206497Y-1282535D01*
G01X1208303Y-1282577D01*
G01X1209887Y-1282949D01*
G01X1211217Y-1283698D01*
G01X1212257Y-1284873D01*
G01Y-1269991D01*
G01X1211217Y-1271166D01*
G01X1209887Y-1271915D01*
G01X1208303Y-1272287D01*
G01X1206497Y-1272329D01*
G01X1204506Y-1272090D01*
G01X1202363Y-1271619D01*
G01X1197760Y-1270171D01*
G01X1188247Y-1266607D01*
G01X1183887Y-1265265D01*
G01X1181928Y-1264874D01*
G01X1180160Y-1264732D01*
G37*
G36*
G01X1180160Y-1314770D02*
G01X1180160Y-1340170D01*
G01X1181928Y-1340029D01*
G01X1183887Y-1339637D01*
G01X1188247Y-1338295D01*
G01X1197760Y-1334731D01*
G01X1202363Y-1333283D01*
G01X1204506Y-1332812D01*
G01X1206497Y-1332573D01*
G01X1208303Y-1332615D01*
G01X1209887Y-1332987D01*
G01X1211217Y-1333736D01*
G01X1212257Y-1334911D01*
G01Y-1320029D01*
G01X1211217Y-1321204D01*
G01X1209887Y-1321953D01*
G01X1208303Y-1322325D01*
G01X1206497Y-1322367D01*
G01X1204506Y-1322128D01*
G01X1202363Y-1321657D01*
G01X1197760Y-1320209D01*
G01X1188247Y-1316645D01*
G01X1183887Y-1315303D01*
G01X1181928Y-1314912D01*
G01X1180160Y-1314770D01*
G37*
G36*
G01X1180160Y-1364808D02*
G01X1180160Y-1390208D01*
G01X1181928Y-1390067D01*
G01X1183887Y-1389675D01*
G01X1188247Y-1388333D01*
G01X1197760Y-1384769D01*
G01X1202363Y-1383321D01*
G01X1204506Y-1382850D01*
G01X1206497Y-1382611D01*
G01X1208303Y-1382653D01*
G01X1209887Y-1383025D01*
G01X1211217Y-1383774D01*
G01X1212257Y-1384949D01*
G01Y-1370067D01*
G01X1211217Y-1371242D01*
G01X1209887Y-1371991D01*
G01X1208303Y-1372363D01*
G01X1206497Y-1372405D01*
G01X1204506Y-1372166D01*
G01X1202363Y-1371695D01*
G01X1197760Y-1370247D01*
G01X1188247Y-1366683D01*
G01X1183887Y-1365341D01*
G01X1181928Y-1364950D01*
G01X1180160Y-1364808D01*
G37*
G36*
G01X1180160Y-1464630D02*
G01X1180160Y-1490030D01*
G01X1224080Y-1491300D01*
G01Y-1463360D01*
G01X1180160Y-1464630D01*
G37*
G36*
G01X1180160Y-1514668D02*
G01X1180160Y-1540068D01*
G01X1181928Y-1539927D01*
G01X1183887Y-1539535D01*
G01X1188247Y-1538193D01*
G01X1197760Y-1534629D01*
G01X1202363Y-1533181D01*
G01X1204506Y-1532710D01*
G01X1206497Y-1532471D01*
G01X1208303Y-1532513D01*
G01X1209887Y-1532885D01*
G01X1211217Y-1533634D01*
G01X1212257Y-1534809D01*
G01Y-1519927D01*
G01X1211217Y-1521102D01*
G01X1209887Y-1521851D01*
G01X1208303Y-1522223D01*
G01X1206497Y-1522265D01*
G01X1204506Y-1522026D01*
G01X1202363Y-1521555D01*
G01X1197760Y-1520107D01*
G01X1188247Y-1516543D01*
G01X1183887Y-1515201D01*
G01X1181928Y-1514810D01*
G01X1180160Y-1514668D01*
G37*
G36*
G01X1180160Y-1564706D02*
G01X1180160Y-1590106D01*
G01X1181928Y-1589965D01*
G01X1183887Y-1589573D01*
G01X1188247Y-1588231D01*
G01X1197760Y-1584667D01*
G01X1202363Y-1583219D01*
G01X1204506Y-1582748D01*
G01X1206497Y-1582509D01*
G01X1208303Y-1582551D01*
G01X1209887Y-1582923D01*
G01X1211217Y-1583672D01*
G01X1212257Y-1584847D01*
G01Y-1569965D01*
G01X1211217Y-1571140D01*
G01X1209887Y-1571889D01*
G01X1208303Y-1572261D01*
G01X1206497Y-1572303D01*
G01X1204506Y-1572064D01*
G01X1202363Y-1571593D01*
G01X1197760Y-1570145D01*
G01X1188247Y-1566581D01*
G01X1183887Y-1565239D01*
G01X1181928Y-1564848D01*
G01X1180160Y-1564706D01*
G37*
G36*
G01X1329769Y-1640331D02*
G01X1330176Y-1614932D01*
G01X1328404Y-1615070D01*
G01X1326436Y-1615458D01*
G01X1322053Y-1616794D01*
G01X1312482Y-1620344D01*
G01X1307852Y-1621784D01*
G01X1305698Y-1622251D01*
G01X1303699Y-1622484D01*
G01X1301890Y-1622434D01*
G01X1300304Y-1622055D01*
G01X1298979Y-1621297D01*
G01X1297947Y-1620111D01*
G01X1297810Y-1634993D01*
G01X1298859Y-1633829D01*
G01X1300192Y-1633088D01*
G01X1301775Y-1632724D01*
G01X1303575Y-1632689D01*
G01X1305559Y-1632934D01*
G01X1307691Y-1633411D01*
G01X1312267Y-1634867D01*
G01X1321720Y-1638443D01*
G01X1326056Y-1639791D01*
G01X1328007Y-1640186D01*
G01X1329769Y-1640331D01*
G37*
G36*
G01X1180160Y-1614744D02*
G01X1180160Y-1640144D01*
G01X1224080Y-1641414D01*
G01Y-1613474D01*
G01X1180160Y-1614744D01*
G37*
G36*
G01X1286945Y-1614825D02*
G01X1286945Y-1640225D01*
G02X1325045Y-1659370I-118J-47719D01*
G01Y-1595870D01*
G02X1286945Y-1614825I-37982J28575D01*
G37*
G36*
G01X1388378Y-1089345D02*
G01X1362978Y-1089345D01*
G02X1343928Y-1127445I-47625J0D01*
G01X1407428D01*
G02X1388378Y-1089345I28575J38100D01*
G37*
G36*
G01X1663247Y-1715455D02*
G01X1688647Y-1715455D01*
G02X1707697Y-1677355I47625J0D01*
G01X1644197D01*
G02X1663247Y-1715455I-28575J-38100D01*
G37*
G36*
G01X323033Y-3265323D02*
G01X287677Y-3229967D01*
G02X181612Y-3283000I-132582J132582D01*
G01X270000Y-3371388D01*
G02X323033Y-3265323I185615J-26516D01*
G37*
G36*
G01X2166800Y-912301D02*
G01X2192200Y-912301D01*
G02X2194879Y-877900I222213J-0D01*
G01X2164121D01*
G02X2166800Y-912301I-219534J-34401D01*
G37*
G36*
G01X2278482Y-785800D02*
G01X2253082Y-785800D01*
G02X2250403Y-823900I-272272J0D01*
G01X2281161D01*
G02X2278482Y-785800I269593J38100D01*
G37*
G36*
G01X1177380Y-1745172D02*
G01X1159420Y-1727211D01*
G02X1124903Y-1734787I-23176J23176D01*
G01X1157300Y-1792193D01*
G02X1177380Y-1745172I68597J-1496D01*
G37*
G36*
G01X1916100Y-1901292D02*
G01X1916100Y-1926692D01*
G02X1954200Y-1945742I0J-47625D01*
G01Y-1882242D01*
G02X1916100Y-1901292I-38100J28575D01*
G37*
G36*
G01X2046300Y-2035708D02*
G01X2046300Y-2010308D01*
G02X2008200Y-1991258I0J47625D01*
G01Y-2054758D01*
G02X2046300Y-2035708I38100J-28575D01*
G37*
G36*
G01X1943500Y-685400D02*
G01X1943500Y-635400D01*
G02X1868500Y-632117I0J858335D01*
G01Y-688683D01*
G02X1943500Y-685400I75000J-855052D01*
G37*
G36*
G01X1795539Y-579084D02*
G01X1761467Y-615722D01*
G02X1814500Y-676213I-433885J-433885D01*
G01X1856030Y-632117D01*
G02X1795539Y-579084I373395J486918D01*
G37*
G36*
G01X1776400Y-737108D02*
G01X1776400Y-762508D01*
G02X1814500Y-765187I-0J-272272D01*
G01Y-719050D01*
G02X1776400Y-737108I-38100J31164D01*
G37*
G36*
G01X1282358Y-573903D02*
G01X1253467Y-615722D01*
G02X1306500Y-683501I-251132J-251132D01*
G01Y-626935D01*
G03X1282358Y-573903I-82903J-5728D01*
G37*
G36*
G01X1435500Y-680218D02*
G01X1435500Y-630218D01*
G03X1360500Y-640570I0J-276874D01*
G01Y-669867D01*
G03X1435500Y-680218I75000J266522D01*
G37*
G36*
G01X1398600Y-754482D02*
G01X1398600Y-729082D01*
G02X1360500Y-726403I0J272272D01*
G01Y-757161D01*
G02X1398600Y-754482I38100J-269593D01*
G37*
G36*
G01X270806Y-3246839D02*
G01X314658Y-3273697D01*
G02X420724Y-3220664I132582J-132582D01*
G01X323839Y-3140773D01*
G02X270806Y-3246839I-185615J26517D01*
G37*
G36*
G01X518838Y-2900178D02*
G01X518838Y-2850178D01*
G02X443838Y-2812678I0J93750D01*
G01Y-2889827D01*
G03X518838Y-2900178I75000J266522D01*
G37*
G36*
G01X393700Y-2742550D02*
G01X368300Y-2742550D01*
G02X349250Y-2780650I-47625J0D01*
G01X412750D01*
G02X393700Y-2742550I28575J38100D01*
G37*
G36*
G01X2016777Y-2412519D02*
G01X2016777Y-2437919D01*
G02X2054877Y-2456969I0J-47625D01*
G01Y-2393469D01*
G02X2016777Y-2412519I-38100J28575D01*
G37*
G36*
G01X1087359Y-1340170D02*
G01X1087359Y-1314770D01*
G01X1081552Y-1315036D01*
G01X1079825Y-1315033D01*
G01X1078164Y-1314853D01*
G01X1076548Y-1314419D01*
G01X1074953Y-1313651D01*
G01X1073359Y-1312470D01*
G01Y-1342470D01*
G01X1074953Y-1341289D01*
G01X1076548Y-1340521D01*
G01X1078164Y-1340087D01*
G01X1079825Y-1339907D01*
G01X1081552Y-1339904D01*
G01X1087359Y-1340170D01*
G37*
G36*
G01X1174735Y-1240094D02*
G01X1174735Y-1214694D01*
G01X1168928Y-1214960D01*
G01X1167201Y-1214957D01*
G01X1165540Y-1214777D01*
G01X1163924Y-1214343D01*
G01X1162329Y-1213575D01*
G01X1160735Y-1212394D01*
G01Y-1242394D01*
G01X1162329Y-1241213D01*
G01X1163924Y-1240445D01*
G01X1165540Y-1240011D01*
G01X1167201Y-1239831D01*
G01X1168928Y-1239828D01*
G01X1174735Y-1240094D01*
G37*
G36*
G01X962366Y-1483473D02*
G01X980327Y-1501434D01*
G01X984245Y-1497140D01*
G01X985468Y-1495921D01*
G01X986769Y-1494873D01*
G01X988220Y-1494037D01*
G01X989890Y-1493453D01*
G01X991852Y-1493161D01*
G01X970639Y-1471948D01*
G01X970347Y-1473910D01*
G01X969763Y-1475580D01*
G01X968927Y-1477031D01*
G01X967879Y-1478332D01*
G01X966660Y-1479555D01*
G01X962366Y-1483473D01*
G37*
G36*
G01X1051266Y-1483473D02*
G01X1069227Y-1501434D01*
G01X1073145Y-1497140D01*
G01X1074368Y-1495921D01*
G01X1075669Y-1494873D01*
G01X1077120Y-1494037D01*
G01X1078790Y-1493453D01*
G01X1080752Y-1493161D01*
G01X1059539Y-1471948D01*
G01X1059247Y-1473910D01*
G01X1058663Y-1475580D01*
G01X1057827Y-1477031D01*
G01X1056779Y-1478332D01*
G01X1055560Y-1479555D01*
G01X1051266Y-1483473D01*
G37*
G36*
G01X1195629Y-1490030D02*
G01X1195629Y-1464630D01*
G01X1193781Y-1464486D01*
G01X1191903Y-1464077D01*
G01X1190024Y-1463443D01*
G01X1188173Y-1462621D01*
G01X1186379Y-1461647D01*
G01X1184671Y-1460561D01*
G01X1183078Y-1459399D01*
G01X1181629Y-1458200D01*
G01Y-1488200D01*
G01X1182931Y-1487515D01*
G01X1184523Y-1487365D01*
G01X1186323Y-1487611D01*
G01X1188252Y-1488118D01*
G01X1192170Y-1489370D01*
G01X1193997Y-1489842D01*
G01X1195629Y-1490030D01*
G37*
G36*
G01X1812344Y-941629D02*
G01X1837744Y-941629D01*
G01X1837880Y-939854D01*
G01X1838265Y-937993D01*
G01X1838862Y-936093D01*
G01X1839637Y-934200D01*
G01X1840553Y-932360D01*
G01X1841576Y-930621D01*
G01X1842670Y-929028D01*
G01X1843800Y-927629D01*
G01X1813800D01*
G01X1814480Y-928912D01*
G01X1814664Y-930504D01*
G01X1814477Y-932316D01*
G01X1814043Y-934262D01*
G01X1812935Y-938203D01*
G01X1812513Y-940024D01*
G01X1812344Y-941629D01*
G37*
G36*
G01X1866102Y-973438D02*
G01X1884062Y-991398D01*
G01X1887268Y-988172D01*
G01X1888343Y-987251D01*
G01X1889477Y-986458D01*
G01X1890701Y-985825D01*
G01X1892049Y-985382D01*
G01X1893552Y-985161D01*
G01X1872339Y-963948D01*
G01X1872118Y-965451D01*
G01X1871675Y-966799D01*
G01X1871042Y-968023D01*
G01X1870249Y-969157D01*
G01X1869328Y-970232D01*
G01X1866102Y-973438D01*
G37*
G36*
G01X2004771Y-1214694D02*
G01X2004771Y-1240094D01*
G01X2006692Y-1240247D01*
G01X2008587Y-1240679D01*
G01X2010445Y-1241350D01*
G01X2012254Y-1242221D01*
G01X2014003Y-1243251D01*
G01X2015679Y-1244401D01*
G01X2018771Y-1246900D01*
G01Y-1216900D01*
G01X2017451Y-1217589D01*
G01X2015859Y-1217706D01*
G01X2014070Y-1217401D01*
G01X2012158Y-1216820D01*
G01X2008264Y-1215423D01*
G01X2006430Y-1214901D01*
G01X2004771Y-1214694D01*
G37*
G36*
G01X2237029Y-1244600D02*
G01X2237029Y-1219200D01*
G01X2231222Y-1219466D01*
G01X2229495Y-1219463D01*
G01X2227834Y-1219283D01*
G01X2226218Y-1218849D01*
G01X2224623Y-1218081D01*
G01X2223029Y-1216900D01*
G01Y-1246900D01*
G01X2224623Y-1245719D01*
G01X2226218Y-1244951D01*
G01X2227834Y-1244517D01*
G01X2229495Y-1244337D01*
G01X2231222Y-1244334D01*
G01X2237029Y-1244600D01*
G37*
G36*
G01X633171Y-1536700D02*
G01X633171Y-1562100D01*
G01X638978Y-1561834D01*
G01X640705Y-1561837D01*
G01X642366Y-1562017D01*
G01X643982Y-1562451D01*
G01X645577Y-1563219D01*
G01X647171Y-1564400D01*
G01Y-1534400D01*
G01X645577Y-1535581D01*
G01X643982Y-1536349D01*
G01X642366Y-1536783D01*
G01X640705Y-1536963D01*
G01X638978Y-1536966D01*
G01X633171Y-1536700D01*
G37*
G36*
G01X1917700Y-1777250D02*
G01X1892300Y-1777250D01*
G01X1892472Y-1782585D01*
G01X1892429Y-1784194D01*
G01X1892227Y-1785743D01*
G01X1891798Y-1787246D01*
G01X1891078Y-1788717D01*
G01X1890000Y-1790171D01*
G01X1920000D01*
G01X1918922Y-1788717D01*
G01X1918202Y-1787246D01*
G01X1917773Y-1785743D01*
G01X1917571Y-1784194D01*
G01X1917528Y-1782585D01*
G01X1917700Y-1777250D01*
G37*
G36*
G01X1691344Y-1902349D02*
G01X1673384Y-1920309D01*
G01X1677778Y-1924176D01*
G01X1679024Y-1925343D01*
G01X1680092Y-1926590D01*
G01X1680945Y-1928001D01*
G01X1681540Y-1929660D01*
G01X1681839Y-1931652D01*
G01X1703052Y-1910439D01*
G01X1701120Y-1910153D01*
G01X1699438Y-1909580D01*
G01X1697949Y-1908761D01*
G01X1696593Y-1907735D01*
G01X1695313Y-1906542D01*
G01X1691344Y-1902349D01*
G37*
G36*
G01X1711870Y-1945730D02*
G01X1729830Y-1927770D01*
G01X1727679Y-1927499D01*
G01X1722797Y-1929922D01*
G01X1721761Y-1929148D01*
G01X1700548Y-1950361D01*
G01X1702132Y-1950115D01*
G01X1703688Y-1949326D01*
G01X1705205Y-1948218D01*
G01X1708084Y-1945941D01*
G01X1709427Y-1945219D01*
G01X1710692Y-1945075D01*
G01X1711870Y-1945730D01*
G37*
G36*
G01X1729029Y-1943100D02*
G01X1729029Y-1917700D01*
G01X1723222Y-1917966D01*
G01X1721495Y-1917963D01*
G01X1719834Y-1917783D01*
G01X1718218Y-1917349D01*
G01X1716623Y-1916581D01*
G01X1715029Y-1915400D01*
G01Y-1945400D01*
G01X1716623Y-1944219D01*
G01X1718218Y-1943451D01*
G01X1719834Y-1943017D01*
G01X1721495Y-1942837D01*
G01X1723222Y-1942834D01*
G01X1729029Y-1943100D01*
G37*
G36*
G01X1155700Y-1703629D02*
G01X1181100Y-1703629D01*
G01X1180834Y-1697822D01*
G01X1180837Y-1696095D01*
G01X1181017Y-1694434D01*
G01X1181451Y-1692818D01*
G01X1182219Y-1691223D01*
G01X1183400Y-1689629D01*
G01X1153400D01*
G01X1154581Y-1691223D01*
G01X1155349Y-1692818D01*
G01X1155783Y-1694434D01*
G01X1155963Y-1696095D01*
G01X1155966Y-1697822D01*
G01X1155700Y-1703629D01*
G37*
G36*
G01X1195629Y-1692482D02*
G01X1195629Y-1662482D01*
G01X1193390Y-1662609D01*
G01X1189655Y-1663253D01*
G01X1188030Y-1663525D01*
G01X1186479Y-1663599D01*
G01X1184939Y-1663351D01*
G01X1183344Y-1662659D01*
G01X1181629Y-1661400D01*
G01Y-1691400D01*
G01X1182894Y-1690724D01*
G01X1184485Y-1690507D01*
G01X1186309Y-1690636D01*
G01X1188272Y-1690997D01*
G01X1194051Y-1692332D01*
G01X1195629Y-1692482D01*
G37*
G36*
G01X1752197Y-1839268D02*
G01X1752197Y-1813868D01*
G01X1746390Y-1814134D01*
G01X1744663Y-1814131D01*
G01X1743002Y-1813951D01*
G01X1741386Y-1813517D01*
G01X1739791Y-1812749D01*
G01X1738197Y-1811568D01*
G01Y-1841568D01*
G01X1739791Y-1840387D01*
G01X1741386Y-1839619D01*
G01X1743002Y-1839185D01*
G01X1744663Y-1839005D01*
G01X1746390Y-1839002D01*
G01X1752197Y-1839268D01*
G37*
G36*
G01X1851788Y-2089588D02*
G01X1833828Y-2071628D01*
G01X1829910Y-2075921D01*
G01X1828686Y-2077141D01*
G01X1827385Y-2078188D01*
G01X1825935Y-2079024D01*
G01X1824264Y-2079608D01*
G01X1822302Y-2079901D01*
G01X1843515Y-2101114D01*
G01X1843808Y-2099152D01*
G01X1844392Y-2097481D01*
G01X1845227Y-2096031D01*
G01X1846275Y-2094730D01*
G01X1847495Y-2093506D01*
G01X1851788Y-2089588D01*
G37*
G36*
G01X1536700Y-3681171D02*
G01X1511300Y-3681171D01*
G01X1511566Y-3686978D01*
G01X1511563Y-3688705D01*
G01X1511383Y-3690366D01*
G01X1510949Y-3691982D01*
G01X1510181Y-3693577D01*
G01X1509000Y-3695171D01*
G01X1539000D01*
G01X1537819Y-3693577D01*
G01X1537051Y-3691982D01*
G01X1536617Y-3690366D01*
G01X1536437Y-3688705D01*
G01X1536434Y-3686978D01*
G01X1536700Y-3681171D01*
G37*
G36*
G01X1195690Y-3632200D02*
G01X1195690Y-3606800D01*
G01X1189884Y-3607066D01*
G01X1188156Y-3607063D01*
G01X1186495Y-3606883D01*
G01X1184879Y-3606449D01*
G01X1183284Y-3605681D01*
G01X1181690Y-3604500D01*
G01Y-3634500D01*
G01X1183284Y-3633319D01*
G01X1184879Y-3632551D01*
G01X1186495Y-3632117D01*
G01X1188156Y-3631937D01*
G01X1189884Y-3631934D01*
G01X1195690Y-3632200D01*
G37*
G36*
G01X1562408Y-1005437D02*
G01X1587808Y-1005437D01*
G01X1587542Y-999630D01*
G01X1587545Y-997903D01*
G01X1587725Y-996242D01*
G01X1588159Y-994626D01*
G01X1588927Y-993031D01*
G01X1590108Y-991437D01*
G01X1560108D01*
G01X1561289Y-993031D01*
G01X1562057Y-994626D01*
G01X1562491Y-996242D01*
G01X1562671Y-997903D01*
G01X1562674Y-999630D01*
G01X1562408Y-1005437D01*
G37*
G36*
G01X1612900Y-954329D02*
G01X1638300Y-954329D01*
G01X1638034Y-948522D01*
G01X1638037Y-946795D01*
G01X1638217Y-945134D01*
G01X1638651Y-943518D01*
G01X1639419Y-941923D01*
G01X1640600Y-940329D01*
G01X1610600D01*
G01X1611781Y-941923D01*
G01X1612549Y-943518D01*
G01X1612983Y-945134D01*
G01X1613163Y-946795D01*
G01X1613166Y-948522D01*
G01X1612900Y-954329D01*
G37*
G36*
G01X1663700Y-992429D02*
G01X1689100Y-992429D01*
G01X1688834Y-986622D01*
G01X1688837Y-984895D01*
G01X1689017Y-983234D01*
G01X1689451Y-981618D01*
G01X1690219Y-980023D01*
G01X1691400Y-978429D01*
G01X1661400D01*
G01X1662581Y-980023D01*
G01X1663349Y-981618D01*
G01X1663783Y-983234D01*
G01X1663963Y-984895D01*
G01X1663966Y-986622D01*
G01X1663700Y-992429D01*
G37*
G36*
G01X1552234Y-840627D02*
G01X1534273Y-822666D01*
G01X1530355Y-826960D01*
G01X1529132Y-828179D01*
G01X1527831Y-829227D01*
G01X1526380Y-830063D01*
G01X1524710Y-830647D01*
G01X1522748Y-830939D01*
G01X1543961Y-852152D01*
G01X1544253Y-850190D01*
G01X1544837Y-848520D01*
G01X1545673Y-847069D01*
G01X1546721Y-845768D01*
G01X1547940Y-844545D01*
G01X1552234Y-840627D01*
G37*
G36*
G01X2222500Y-700329D02*
G01X2247900Y-700329D01*
G01X2247634Y-694522D01*
G01X2247637Y-692795D01*
G01X2247817Y-691134D01*
G01X2248251Y-689518D01*
G01X2249019Y-687923D01*
G01X2250200Y-686329D01*
G01X2220200D01*
G01X2221381Y-687923D01*
G01X2222149Y-689518D01*
G01X2222583Y-691134D01*
G01X2222763Y-692795D01*
G01X2222766Y-694522D01*
G01X2222500Y-700329D01*
G37*
G36*
G01X2186229Y-1028700D02*
G01X2186229Y-1003300D01*
G01X2180422Y-1003566D01*
G01X2178695Y-1003563D01*
G01X2177034Y-1003383D01*
G01X2175418Y-1002949D01*
G01X2173823Y-1002181D01*
G01X2172229Y-1001000D01*
G01Y-1031000D01*
G01X2173823Y-1029819D01*
G01X2175418Y-1029051D01*
G01X2177034Y-1028617D01*
G01X2178695Y-1028437D01*
G01X2180422Y-1028434D01*
G01X2186229Y-1028700D01*
G37*
G36*
G01X1016000Y-3452571D02*
G01X990600Y-3452571D01*
G01X990866Y-3458378D01*
G01X990863Y-3460105D01*
G01X990683Y-3461766D01*
G01X990249Y-3463382D01*
G01X989481Y-3464977D01*
G01X988300Y-3466571D01*
G01X1018300D01*
G01X1017119Y-3464977D01*
G01X1016351Y-3463382D01*
G01X1015917Y-3461766D01*
G01X1015737Y-3460105D01*
G01X1015734Y-3458378D01*
G01X1016000Y-3452571D01*
G37*
G36*
G01X609600Y-2576271D02*
G01X584200Y-2576271D01*
G01X584466Y-2582078D01*
G01X584463Y-2583805D01*
G01X584283Y-2585466D01*
G01X583849Y-2587082D01*
G01X583081Y-2588677D01*
G01X581900Y-2590271D01*
G01X611900D01*
G01X610719Y-2588677D01*
G01X609951Y-2587082D01*
G01X609517Y-2585466D01*
G01X609337Y-2583805D01*
G01X609334Y-2582078D01*
G01X609600Y-2576271D01*
G37*
G36*
G01X952500Y-3490671D02*
G01X927100Y-3490671D01*
G01X927366Y-3496478D01*
G01X927363Y-3498205D01*
G01X927183Y-3499866D01*
G01X926749Y-3501482D01*
G01X925981Y-3503077D01*
G01X924800Y-3504671D01*
G01X954800D01*
G01X953619Y-3503077D01*
G01X952851Y-3501482D01*
G01X952417Y-3499866D01*
G01X952237Y-3498205D01*
G01X952234Y-3496478D01*
G01X952500Y-3490671D01*
G37*
G36*
G01X355600Y-2373071D02*
G01X330200Y-2373071D01*
G01X330466Y-2378878D01*
G01X330463Y-2380605D01*
G01X330283Y-2382266D01*
G01X329849Y-2383882D01*
G01X329081Y-2385477D01*
G01X327900Y-2387071D01*
G01X357900D01*
G01X356719Y-2385477D01*
G01X355951Y-2383882D01*
G01X355517Y-2382266D01*
G01X355337Y-2380605D01*
G01X355334Y-2378878D01*
G01X355600Y-2373071D01*
G37*
G36*
G01X889000Y-3516071D02*
G01X863600Y-3516071D01*
G01X863866Y-3521878D01*
G01X863863Y-3523605D01*
G01X863683Y-3525266D01*
G01X863249Y-3526882D01*
G01X862481Y-3528477D01*
G01X861300Y-3530071D01*
G01X891300D01*
G01X890119Y-3528477D01*
G01X889351Y-3526882D01*
G01X888917Y-3525266D01*
G01X888737Y-3523605D01*
G01X888734Y-3521878D01*
G01X889000Y-3516071D01*
G37*
G36*
G01X116129Y-1752600D02*
G01X116129Y-1727200D01*
G01X110322Y-1727466D01*
G01X108595Y-1727463D01*
G01X106934Y-1727283D01*
G01X105318Y-1726849D01*
G01X103723Y-1726081D01*
G01X102129Y-1724900D01*
G01Y-1754900D01*
G01X103723Y-1753719D01*
G01X105318Y-1752951D01*
G01X106934Y-1752517D01*
G01X108595Y-1752337D01*
G01X110322Y-1752334D01*
G01X116129Y-1752600D01*
G37*
G36*
G01X531571Y-1968500D02*
G01X531571Y-1993900D01*
G01X537378Y-1993634D01*
G01X539105Y-1993637D01*
G01X540766Y-1993817D01*
G01X542382Y-1994251D01*
G01X543977Y-1995019D01*
G01X545571Y-1996200D01*
G01Y-1966200D01*
G01X543977Y-1967381D01*
G01X542382Y-1968149D01*
G01X540766Y-1968583D01*
G01X539105Y-1968763D01*
G01X537378Y-1968766D01*
G01X531571Y-1968500D01*
G37*
G36*
G01X1217371Y-3733800D02*
G01X1217371Y-3759200D01*
G01X1223178Y-3758934D01*
G01X1224905Y-3758937D01*
G01X1226566Y-3759117D01*
G01X1228182Y-3759551D01*
G01X1229777Y-3760319D01*
G01X1231371Y-3761500D01*
G01Y-3731500D01*
G01X1229777Y-3732681D01*
G01X1228182Y-3733449D01*
G01X1226566Y-3733883D01*
G01X1224905Y-3734063D01*
G01X1223178Y-3734066D01*
G01X1217371Y-3733800D01*
G37*
G36*
G01X1272834Y-3736227D02*
G01X1254873Y-3718266D01*
G01X1250955Y-3722560D01*
G01X1249732Y-3723779D01*
G01X1248431Y-3724827D01*
G01X1246980Y-3725663D01*
G01X1245310Y-3726247D01*
G01X1243348Y-3726539D01*
G01X1264561Y-3747752D01*
G01X1264853Y-3745790D01*
G01X1265437Y-3744120D01*
G01X1266273Y-3742669D01*
G01X1267321Y-3741368D01*
G01X1268540Y-3740145D01*
G01X1272834Y-3736227D01*
G37*
G36*
G01X2565400Y-1382471D02*
G01X2540000Y-1382471D01*
G01X2540266Y-1388278D01*
G01X2540263Y-1390005D01*
G01X2540083Y-1391666D01*
G01X2539649Y-1393282D01*
G01X2538881Y-1394877D01*
G01X2537700Y-1396471D01*
G01X2567700D01*
G01X2566519Y-1394877D01*
G01X2565751Y-1393282D01*
G01X2565317Y-1391666D01*
G01X2565137Y-1390005D01*
G01X2565134Y-1388278D01*
G01X2565400Y-1382471D01*
G37*
G36*
G01X2402727Y-2041866D02*
G01X2384766Y-2059827D01*
G01X2389060Y-2063745D01*
G01X2390279Y-2064968D01*
G01X2391327Y-2066269D01*
G01X2392163Y-2067720D01*
G01X2392747Y-2069390D01*
G01X2393039Y-2071352D01*
G01X2414252Y-2050139D01*
G01X2412290Y-2049847D01*
G01X2410620Y-2049263D01*
G01X2409169Y-2048427D01*
G01X2407868Y-2047379D01*
G01X2406645Y-2046160D01*
G01X2402727Y-2041866D01*
G37*
G36*
G01X2832100Y-1498600D02*
G01X2806700Y-1498600D01*
G01X2806806Y-1503607D01*
G01X2806736Y-1505134D01*
G01X2806518Y-1506605D01*
G01X2806094Y-1508029D01*
G01X2805407Y-1509415D01*
G01X2804400Y-1510771D01*
G01X2834400D01*
G01X2833393Y-1509415D01*
G01X2832706Y-1508029D01*
G01X2832282Y-1506605D01*
G01X2832064Y-1505134D01*
G01X2831994Y-1503607D01*
G01X2832100Y-1498600D01*
G37*
G36*
G01X2781300Y-2948229D02*
G01X2806700Y-2948229D01*
G01X2806434Y-2942422D01*
G01X2806437Y-2940695D01*
G01X2806617Y-2939034D01*
G01X2807051Y-2937418D01*
G01X2807819Y-2935823D01*
G01X2809000Y-2934229D01*
G01X2779000D01*
G01X2780181Y-2935823D01*
G01X2780949Y-2937418D01*
G01X2781383Y-2939034D01*
G01X2781563Y-2940695D01*
G01X2781566Y-2942422D01*
G01X2781300Y-2948229D01*
G37*
G36*
G01X2141050Y-3603379D02*
G01X2141050Y-3628779D01*
G01X2146856Y-3628513D01*
G01X2148584Y-3628516D01*
G01X2150245Y-3628695D01*
G01X2151861Y-3629130D01*
G01X2153455Y-3629898D01*
G01X2155050Y-3631079D01*
G01Y-3601079D01*
G01X2153455Y-3602259D01*
G01X2151861Y-3603027D01*
G01X2150245Y-3603462D01*
G01X2148584Y-3603642D01*
G01X2146856Y-3603644D01*
G01X2141050Y-3603379D01*
G37*
G36*
G01X1895528Y-2328042D02*
G01X1913489Y-2346002D01*
G01X1917407Y-2341709D01*
G01X1918630Y-2340489D01*
G01X1919932Y-2339442D01*
G01X1921382Y-2338606D01*
G01X1923052Y-2338022D01*
G01X1925015Y-2337729D01*
G01X1903802Y-2316516D01*
G01X1903509Y-2318478D01*
G01X1902925Y-2320149D01*
G01X1902089Y-2321599D01*
G01X1901042Y-2322900D01*
G01X1899822Y-2324124D01*
G01X1895528Y-2328042D01*
G37*
G36*
G01X638799Y-2005138D02*
G01X620838Y-2023099D01*
G01X624412Y-2026536D01*
G01X625431Y-2027660D01*
G01X626307Y-2028848D01*
G01X627006Y-2030146D01*
G01X627495Y-2031599D01*
G01X627739Y-2033252D01*
G01X648952Y-2012039D01*
G01X647299Y-2011795D01*
G01X645846Y-2011306D01*
G01X644548Y-2010607D01*
G01X643360Y-2009731D01*
G01X642236Y-2008712D01*
G01X638799Y-2005138D01*
G37*
G36*
G01X1219200Y-2004771D02*
G01X1193800Y-2004771D01*
G01X1194066Y-2010578D01*
G01X1194063Y-2012305D01*
G01X1193883Y-2013966D01*
G01X1193449Y-2015582D01*
G01X1192681Y-2017177D01*
G01X1191500Y-2018771D01*
G01X1221500D01*
G01X1220319Y-2017177D01*
G01X1219551Y-2015582D01*
G01X1219117Y-2013966D01*
G01X1218937Y-2012305D01*
G01X1218934Y-2010578D01*
G01X1219200Y-2004771D01*
G37*
G36*
G01X1179271Y-2019300D02*
G01X1179271Y-2044700D01*
G01X1185078Y-2044434D01*
G01X1186805Y-2044437D01*
G01X1188466Y-2044617D01*
G01X1190082Y-2045051D01*
G01X1191677Y-2045819D01*
G01X1193271Y-2047000D01*
G01Y-2017000D01*
G01X1191677Y-2018181D01*
G01X1190082Y-2018949D01*
G01X1188466Y-2019383D01*
G01X1186805Y-2019563D01*
G01X1185078Y-2019566D01*
G01X1179271Y-2019300D01*
G37*
G36*
G01X1762306Y-989435D02*
G01X1787706Y-989435D01*
G01X1787440Y-983628D01*
G01X1787443Y-981901D01*
G01X1787623Y-980240D01*
G01X1788057Y-978624D01*
G01X1788825Y-977029D01*
G01X1790006Y-975435D01*
G01X1760006D01*
G01X1761187Y-977029D01*
G01X1761955Y-978624D01*
G01X1762389Y-980240D01*
G01X1762569Y-981901D01*
G01X1762572Y-983628D01*
G01X1762306Y-989435D01*
G37*
G36*
G01X1712268Y-941629D02*
G01X1737668Y-941629D01*
G01X1737402Y-935822D01*
G01X1737405Y-934095D01*
G01X1737585Y-932434D01*
G01X1738019Y-930818D01*
G01X1738787Y-929223D01*
G01X1739968Y-927629D01*
G01X1709968D01*
G01X1711149Y-929223D01*
G01X1711917Y-930818D01*
G01X1712351Y-932434D01*
G01X1712531Y-934095D01*
G01X1712534Y-935822D01*
G01X1712268Y-941629D01*
G37*
G36*
G01X1244200Y-606455D02*
G01X1284037Y-575582D01*
G03X1248889Y-551040I-86631J-86631D01*
G01X1219451Y-571100D01*
G03X1244200Y-606455I112547J52444D01*
G37*
G36*
G01X3156900Y-2037481D02*
G01X3116900Y-2037481D01*
G03X3076900Y-1917482I-200000J0D01*
G01X3196900D01*
G03X3156900Y-2037481I160000J-120000D01*
G37*
G36*
G01X1944932Y-1112318D02*
G01X1944932Y-1142318D01*
G01X2002000Y-1127318D01*
G01X2062000Y-1052618D01*
G01X1944932Y-1112318D01*
G37*
G36*
G01X1739968Y-1790355D02*
G01X1709968Y-1796568D01*
G03X1714468Y-1815856I43586J0D01*
G01X1735468D01*
G03X1739968Y-1790355I-70006J25501D01*
G37*
G36*
G01X1790700Y-1881900D02*
G01X1790700Y-1851900D01*
G03X1779988Y-1856400I-0J-15000D01*
G01Y-1877400D01*
G03X1790700Y-1881900I10712J10500D01*
G37*
G36*
G01X1103696Y-973951D02*
G01X1106999Y-977580D01*
G01X1110039Y-981587D01*
G01X1111384Y-983650D01*
G01X1112569Y-985708D01*
G01X1113563Y-987728D01*
G01X1114336Y-989676D01*
G01X1114857Y-991519D01*
G01X1115093Y-993225D01*
G01X1115015Y-994760D01*
G01X1114589Y-996089D01*
G01X1113786Y-997182D01*
G01X1112575Y-998003D01*
G01X1110923Y-998520D01*
G01X1108800Y-998700D01*
G01Y-1058700D01*
G01X1117866Y-1058452D01*
G01X1131355Y-1057322D01*
G01X1152537Y-1055027D01*
G01X1159535Y-1054679D01*
G01X1163628Y-1054708D01*
G01X1167656Y-1054958D01*
G01X1171629Y-1055466D01*
G01X1174254Y-1055965D01*
G01X1176863Y-1056606D01*
G01X1179460Y-1057398D01*
G01X1182048Y-1058353D01*
G01X1184631Y-1059482D01*
G01X1187212Y-1060794D01*
G01X1189794Y-1062301D01*
G01X1192381Y-1064014D01*
G01X1194977Y-1065942D01*
G01X1198892Y-1069263D01*
G01X1201522Y-1071778D01*
G01X1103696Y-973951D01*
G37*
G36*
G01X789233Y-588778D02*
G01X788055Y-587534D01*
G01X785830Y-584791D01*
G01X784823Y-583340D01*
G01X783913Y-581868D01*
G01X783122Y-580398D01*
G01X782469Y-578954D01*
G01X781975Y-577561D01*
G01X781661Y-576242D01*
G01X781547Y-575021D01*
G01X781652Y-573923D01*
G01X781999Y-572970D01*
G01X782606Y-572188D01*
G01X783495Y-571600D01*
G01X784686Y-571229D01*
G01X786200Y-571100D01*
G01X636200D01*
G01X641576Y-571272D01*
G01X647137Y-571777D01*
G01X654797Y-572941D01*
G01X662676Y-574629D01*
G01X672739Y-577417D01*
G01X682922Y-580888D01*
G01X693102Y-584966D01*
G01X705141Y-590554D01*
G01X716782Y-596776D01*
G01X727813Y-603499D01*
G01X736385Y-609392D01*
G01X744259Y-615467D01*
G01X749974Y-620407D01*
G01X753878Y-624133D01*
G01X789233Y-588778D01*
G37*
G36*
G01X1829614Y-3527179D02*
G01X1869613Y-3527179D01*
G03X1874930Y-3603379I548767J0D01*
G01X1824892D01*
G03X1829614Y-3527179I-612485J76200D01*
G37*
G36*
G01X2572700Y-3759200D02*
G01X2532700Y-3759200D01*
G01X2552700Y-3787518D01*
G01X2628150Y-3847518D01*
G01X2572700Y-3759200D01*
G37*
G36*
G01X1923100Y-3528084D02*
G01X1963100Y-3519800D01*
G03X1957100Y-3494083I-58114J0D01*
G01X1929100D01*
G03X1923100Y-3528084I93341J-34001D01*
G37*
G36*
G01X1934120Y-3615780D02*
G01X1936644Y-3618546D01*
G01X1937718Y-3619916D01*
G01X1938674Y-3621279D01*
G01X1939518Y-3622638D01*
G01X1940255Y-3623994D01*
G01X1940892Y-3625350D01*
G01X1941434Y-3626707D01*
G01X1941886Y-3628067D01*
G01X1942255Y-3629432D01*
G01X1942546Y-3630804D01*
G01X1942918Y-3633576D01*
G01X1943046Y-3636397D01*
G01X1942978Y-3639284D01*
G01X1942432Y-3645309D01*
G01X1941123Y-3656981D01*
G01X1940823Y-3662553D01*
G01X1940800Y-3664500D01*
G01X1970800D01*
G01X1955800Y-3634500D01*
G01X1952080Y-3597820D01*
G01X1934120Y-3615780D01*
G37*
G36*
G01X428655Y-3485947D02*
G01X385978Y-3457914D01*
G03X368550Y-3485948I51366J-51366D01*
G01X393299Y-3510697D01*
G03X428655Y-3485947I-52450J112556D01*
G37*
G36*
G01X393700Y-2619629D02*
G01X393833Y-2616421D01*
G01X394221Y-2612982D01*
G01X394848Y-2609353D01*
G01X396197Y-2603643D01*
G01X397986Y-2597737D01*
G01X400157Y-2591772D01*
G01X402655Y-2585889D01*
G01X405419Y-2580224D01*
G01X408395Y-2574917D01*
G01X411523Y-2570107D01*
G01X413665Y-2567244D01*
G01X415833Y-2564704D01*
G01X416921Y-2563568D01*
G01X398961Y-2545608D01*
G01X397176Y-2547186D01*
G01X395207Y-2548555D01*
G01X393080Y-2549712D01*
G01X390822Y-2550659D01*
G01X388459Y-2551396D01*
G01X386016Y-2551922D01*
G01X383521Y-2552238D01*
G01X381000Y-2552343D01*
G01X378479Y-2552238D01*
G01X375984Y-2551922D01*
G01X373541Y-2551396D01*
G01X371178Y-2550659D01*
G01X368920Y-2549712D01*
G01X366793Y-2548555D01*
G01X364824Y-2547186D01*
G01X363039Y-2545608D01*
G01X345079Y-2563568D01*
G01X347253Y-2565931D01*
G01X349410Y-2568637D01*
G01X351533Y-2571646D01*
G01X354617Y-2576638D01*
G01X357529Y-2582079D01*
G01X360210Y-2587832D01*
G01X362605Y-2593758D01*
G01X364656Y-2599719D01*
G01X366304Y-2605575D01*
G01X367494Y-2611189D01*
G01X368003Y-2614728D01*
G01X368266Y-2618056D01*
G01X368300Y-2619629D01*
G01X393700D01*
G37*
G36*
G01X2613179Y-2649611D02*
G01X2613179Y-2609611D01*
G02X2499179Y-2593814I0J419264D01*
G01Y-2672824D01*
G02X2613179Y-2649611I114000J-268323D01*
G37*
G36*
G01X2439179Y-2609611D02*
G01X2439179Y-2649611D01*
G02X2499179Y-2653829I0J-428774D01*
G01Y-2605392D01*
G02X2439179Y-2609611I-59999J424555D01*
G37*
G36*
G01X2338882Y-2555232D02*
G01X2322452Y-2555706D01*
G01X2317437Y-2555686D01*
G01X2314307Y-2555496D01*
G01X2311382Y-2555116D01*
G01X2310006Y-2554840D01*
G01X2308692Y-2554501D01*
G01X2307443Y-2554092D01*
G01X2306265Y-2553608D01*
G01X2305159Y-2553044D01*
G01X2304131Y-2552395D01*
G01X2303183Y-2551655D01*
G01X2302320Y-2550817D01*
G01X2301544Y-2549879D01*
G01X2300860Y-2548832D01*
G01X2300271Y-2547674D01*
G01X2299781Y-2546397D01*
G01X2299393Y-2544996D01*
G01X2299112Y-2543467D01*
G01X2298940Y-2541803D01*
G01X2298882Y-2540000D01*
G01X2258882D01*
G01X2278882Y-2555232D01*
G01X2338882Y-2595232D01*
G01Y-2555232D01*
G37*
G36*
G01X2967600Y-3165016D02*
G01X2967501Y-3166830D01*
G01X2967213Y-3168601D01*
G01X2966753Y-3170308D01*
G01X2966135Y-3171929D01*
G01X2965374Y-3173441D01*
G01X2964487Y-3174824D01*
G01X2963488Y-3176056D01*
G01X2962393Y-3177114D01*
G01X2961217Y-3177978D01*
G01X2959976Y-3178624D01*
G01X2958685Y-3179032D01*
G01X2957359Y-3179180D01*
G01X2956014Y-3179045D01*
G01X2954665Y-3178607D01*
G01X2953327Y-3177843D01*
G01X2952016Y-3176732D01*
G01X3031707Y-3256422D01*
G01X3028987Y-3253538D01*
G01X3025382Y-3249219D01*
G01X3021826Y-3244415D01*
G01X3017494Y-3237824D01*
G01X3013339Y-3230697D01*
G01X3008666Y-3221606D01*
G01X3004423Y-3212128D01*
G01X3000706Y-3202474D01*
G01X2997611Y-3192854D01*
G01X2995576Y-3185016D01*
G01X2994344Y-3178951D01*
G01X2993494Y-3173135D01*
G01X2993126Y-3168975D01*
G01X2993000Y-3165016D01*
G01X2967600D01*
G37*
G36*
G01X1899965Y-2572700D02*
G01X1899965Y-2532700D01*
G03X1976165Y-2527293I-0J539679D01*
G01Y-2577306D01*
G03X1899965Y-2572700I-76200J-628038D01*
G37*
G36*
G01X2837500Y-2828600D02*
G01X2877500Y-2828600D01*
G01X2857500Y-2788600D01*
G01X2829216Y-2712032D01*
G01X2837500Y-2828600D01*
G37*
G36*
G01X1236922Y-3736217D02*
G01X1254883Y-3754178D01*
G01X1263863Y-3727237D01*
G01X1287682Y-3684018D01*
G01X1236922Y-3736217D01*
G37*
G36*
G01X1155700Y-1713403D02*
G01X1181100Y-1722482D01*
G03X1178900Y-1692482I-205642J1D01*
G01X1157900Y-1687014D01*
G03X1155700Y-1713403I157164J-26390D01*
G37*
G36*
G01X1757668Y-1839268D02*
G01X1757668Y-1813868D01*
G01X1739968Y-1826568D01*
G01X1748275Y-1871088D01*
G01X1757668Y-1839268D01*
G37*
G36*
G01X1599000Y-2506971D02*
G01X1596657Y-2507041D01*
G01X1591989Y-2507559D01*
G01X1587377Y-2508490D01*
G01X1582855Y-2509726D01*
G01X1574234Y-2512678D01*
G01X1564625Y-2516146D01*
G01X1561262Y-2517116D01*
G01X1559702Y-2517457D01*
G01X1558229Y-2517684D01*
G01X1556847Y-2517783D01*
G01X1555561Y-2517742D01*
G01X1554376Y-2517545D01*
G01X1553297Y-2517180D01*
G01X1552327Y-2516634D01*
G01X1551472Y-2515891D01*
G01X1550736Y-2514940D01*
G01X1550123Y-2513766D01*
G01X1549639Y-2512356D01*
G01X1549287Y-2510696D01*
G01X1549072Y-2508772D01*
G01X1549000Y-2506571D01*
G01X1524000Y-2511971D01*
G01X1544000Y-2606971D01*
G01X1544080Y-2604408D01*
G01X1544315Y-2601877D01*
G01X1544702Y-2599383D01*
G01X1545235Y-2596927D01*
G01X1545909Y-2594513D01*
G01X1546719Y-2592145D01*
G01X1547660Y-2589825D01*
G01X1548726Y-2587557D01*
G01X1549914Y-2585344D01*
G01X1551217Y-2583189D01*
G01X1553378Y-2580072D01*
G01X1555772Y-2577104D01*
G01X1558380Y-2574296D01*
G01X1561187Y-2571659D01*
G01X1564176Y-2569202D01*
G01X1567328Y-2566938D01*
G01X1570628Y-2564877D01*
G01X1574058Y-2563029D01*
G01X1577601Y-2561406D01*
G01X1581241Y-2560018D01*
G01X1584960Y-2558876D01*
G01X1588741Y-2557992D01*
G01X1592568Y-2557375D01*
G01X1596423Y-2557036D01*
G01X1599000Y-2556971D01*
G01Y-2506971D01*
G37*
G36*
G01X1524000Y-2556971D02*
G01X1524000Y-2506971D01*
G03X1600600Y-2465627I0J91632D01*
G01Y-2599792D01*
G03X1524000Y-2556971I-76600J-47103D01*
G37*
G04 Tear End*

G04 Pad Start*
G54D11*
G01X2477199Y-951001D03*
G01X2477199Y-1016000D03*
G01X2477199Y-1080999D03*
G54D12*
G01X2247202Y-1080999D03*
G01X2247202Y-1016000D03*
G01X2247202Y-951001D03*
G54D13*
G01X2232190Y-729996D03*
G01X2232190Y-540004D03*
G01X2492210Y-540004D03*
G01X2492210Y-635000D03*
G01X2492210Y-729996D03*
G54D14*
G01X1055069Y-3883922D03*
G54D15*
G01X2244932Y-3883922D03*
G54D17*
G01X2075056Y-3616079D03*
G01X2025018Y-3616079D03*
G01X1974980Y-3616079D03*
G01X1925069Y-3616079D03*
G01X1875031Y-3616079D03*
G01X1825120Y-3616079D03*
G01X1775082Y-3616079D03*
G01X1725044Y-3616079D03*
G01X1675006Y-3616079D03*
G01X1624968Y-3616079D03*
G01X1575057Y-3616079D03*
G01X1525146Y-3616079D03*
G01X1475108Y-3616079D03*
G01X1425070Y-3616079D03*
G01X1375032Y-3616079D03*
G01X1324994Y-3616079D03*
G01X1274956Y-3616079D03*
G01X1225045Y-3616079D03*
G54D18*
G01X1492504Y-749808D03*
G01X1587500Y-749808D03*
G01X1682496Y-749808D03*
G01X1682496Y-520192D03*
G01X1492504Y-520192D03*
G54D19*
G01X180000Y-546100D03*
G54D20*
G01X180000Y-800100D03*
G01X180000Y-1054100D03*
G01X180000Y-1308100D03*
G54D21*
G01X2654300Y-3563518D03*
G01X2654300Y-3650082D03*
G54D22*
G01X2095500Y-2023008D03*
G01X2095500Y-1913992D03*
G54D21*
G01X2209800Y-1925218D03*
G01X2209800Y-2011782D03*
G54D23*
G01X2324100Y-2011782D03*
G01X2324100Y-1925218D03*
G54D24*
G01X676635Y-3207895D03*
G01X676635Y-3316912D03*
G01X562335Y-3207895D03*
G01X562335Y-3316912D03*
G54D22*
G01X562335Y-3024812D03*
G01X562335Y-2915795D03*
G01X676635Y-3024812D03*
G01X676635Y-2915795D03*
G54D25*
G01X845718Y-2781300D03*
G01X932282Y-2781300D03*
G54D26*
G01X457200Y-2505329D03*
G01X457200Y-2295271D03*
G54D25*
G01X401218Y-1981200D03*
G01X487782Y-1981200D03*
G54D27*
G01X271882Y-2095500D03*
G01X185318Y-2095500D03*
G01X487782Y-2095500D03*
G01X401218Y-2095500D03*
G54D28*
G01X2895600Y-2037093D03*
G01X2895600Y-2357107D03*
G54D21*
G01X2895600Y-1810918D03*
G01X2895600Y-1897482D03*
G54D23*
G01X2527300Y-2443582D03*
G01X2527300Y-2357018D03*
G01X3200400Y-1897482D03*
G01X3200400Y-1810918D03*
G54D21*
G01X3073400Y-1810918D03*
G01X3073400Y-1897482D03*
G54D29*
G01X3009924Y-2727026D03*
G01X3009924Y-3072974D03*
G54D30*
G01X3210076Y-2659970D03*
G01X3210076Y-3140030D03*
G54D28*
G01X3136900Y-2037093D03*
G01X3136900Y-2357107D03*
G54D31*
G01X3120000Y-3373000D03*
G54D32*
G01X3120000Y-3627000D03*
G54D33*
G01X1955800Y-3060700D03*
G01X2311400Y-3060700D03*
G54D22*
G01X2411879Y-2742336D03*
G01X2411879Y-2633319D03*
G01X2640479Y-2738627D03*
G01X2640479Y-2629611D03*
G01X2526179Y-2742336D03*
G01X2526179Y-2633319D03*
G54D34*
G01X2188108Y-2235200D03*
G01X2079092Y-2235200D03*
G54D23*
G01X1854250Y-2450642D03*
G01X1854250Y-2364079D03*
G01X1739950Y-2450642D03*
G01X1739950Y-2364079D03*
G54D22*
G01X1625600Y-2708808D03*
G01X1625600Y-2599792D03*
G01X1734770Y-2714215D03*
G01X1734770Y-2605198D03*
G01X1849070Y-2714215D03*
G01X1849070Y-2605198D03*
G54D24*
G01X1625650Y-2356561D03*
G01X1625650Y-2465577D03*
G54D35*
G01X1988865Y-2375207D03*
G01X1988865Y-2425219D03*
G01X1988865Y-2475232D03*
G01X1988865Y-2525219D03*
G01X1988865Y-2575232D03*
G54D36*
G01X2278882Y-2575232D03*
G01X2278882Y-2525219D03*
G01X2278882Y-2475232D03*
G01X2278882Y-2425219D03*
G01X2278882Y-2375207D03*
G54D35*
G01X1988865Y-2675231D03*
G01X1988865Y-2625219D03*
G01X2278882Y-2675231D03*
G01X2278882Y-2625219D03*
G54D37*
G01X2133876Y-2525216D03*
G54D38*
G01X1005445Y-2933988D03*
G01X940421Y-2933988D03*
G01X875422Y-2933988D03*
G01X810424Y-2933988D03*
G01X1005445Y-3360200D03*
G01X940421Y-3360200D03*
G01X875422Y-3360200D03*
G01X810424Y-3360200D03*
G54D39*
G01X907934Y-3147094D03*
G54D21*
G01X2527300Y-3817518D03*
G01X2527300Y-3904082D03*
G01X2654300Y-3817518D03*
G01X2654300Y-3904082D03*
G01X2768600Y-3817518D03*
G01X2768600Y-3904082D03*
G01X762000Y-3842918D03*
G01X762000Y-3929482D03*
G01X622300Y-3842918D03*
G01X622300Y-3929482D03*
G54D40*
G01X2487600Y-3562096D03*
G01X2487600Y-3372104D03*
G01X2287600Y-3467100D03*
G54D29*
G01X3009924Y-1127026D03*
G01X3009924Y-1472974D03*
G54D30*
G01X3210076Y-1059970D03*
G01X3210076Y-1540030D03*
G54D34*
G01X2429408Y-1231900D03*
G01X2320392Y-1231900D03*
G54D27*
G01X589382Y-1549400D03*
G01X502818Y-1549400D03*
G54D34*
G01X1629308Y-2171700D03*
G01X1520292Y-2171700D03*
G54D41*
G01X1253592Y-2171700D03*
G01X1362608Y-2171700D03*
G54D42*
G01X1320292Y-1981200D03*
G01X1575308Y-1981200D03*
G54D41*
G01X1745183Y-2044700D03*
G01X1854200Y-2044700D03*
G54D25*
G01X1754937Y-1930400D03*
G01X1841500Y-1930400D03*
G54D24*
G01X1130300Y-2040992D03*
G01X1130300Y-2150008D03*
G54D23*
G01X629818Y-1788363D03*
G01X629818Y-1701800D03*
G54D43*
G01X182893Y-1739900D03*
G01X502907Y-1739900D03*
G54D44*
G01X1324918Y-1747332D03*
G01X1374956Y-1747332D03*
G01X1424994Y-1747332D03*
G01X1475032Y-1747332D03*
G01X1525070Y-1747332D03*
G01X1575108Y-1747332D03*
G01X1624892Y-1747332D03*
G01X1674930Y-1747332D03*
G01X1724968Y-1747332D03*
G01X1775006Y-1747332D03*
G01X1825044Y-1747332D03*
G01X1875082Y-1747332D03*
G54D45*
G01X1944932Y-1677482D03*
G01X1944932Y-1627444D03*
G01X1944932Y-1577406D03*
G01X1944932Y-1527368D03*
G01X1944932Y-1477330D03*
G01X1944932Y-1427292D03*
G01X1944932Y-1377508D03*
G01X1944932Y-1327470D03*
G01X1944932Y-1277432D03*
G01X1944932Y-1227394D03*
G01X1944932Y-1177356D03*
G01X1944932Y-1127318D03*
G54D44*
G01X1875082Y-1057468D03*
G01X1825044Y-1057468D03*
G01X1775006Y-1057468D03*
G01X1724968Y-1057468D03*
G01X1674930Y-1057468D03*
G01X1624892Y-1057468D03*
G01X1575108Y-1057468D03*
G01X1525070Y-1057468D03*
G01X1475032Y-1057468D03*
G01X1424994Y-1057468D03*
G01X1374956Y-1057468D03*
G01X1324918Y-1057468D03*
G54D45*
G01X1255068Y-1127318D03*
G01X1255068Y-1177356D03*
G01X1255068Y-1227394D03*
G01X1255068Y-1277432D03*
G01X1255068Y-1327470D03*
G01X1255068Y-1377508D03*
G01X1255068Y-1427292D03*
G01X1255068Y-1477330D03*
G01X1255068Y-1527368D03*
G01X1255068Y-1577406D03*
G01X1255068Y-1627444D03*
G01X1255068Y-1677482D03*
G54D46*
G01X1600000Y-1402400D03*
G54D31*
G01X180000Y-3627000D03*
G54D47*
G01X180000Y-3373000D03*
G54D25*
G01X2179218Y-850900D03*
G01X2265782Y-850900D03*
G54D24*
G01X1130300Y-1774292D03*
G01X1130300Y-1883308D03*
G54D22*
G01X2032000Y-956208D03*
G01X2032000Y-847192D03*
G54D34*
G01X994308Y-1028700D03*
G01X885292Y-1028700D03*
G54D24*
G01X1981200Y-1913992D03*
G01X1981200Y-2023008D03*
G54D21*
G01X1841500Y-660400D03*
G01X1841500Y-746963D03*
G01X1333500Y-655218D03*
G01X1333500Y-741782D03*
G54D48*
G01X2666000Y-200000D03*
G54D49*
G01X2412000Y-200000D03*
G01X2158000Y-200000D03*
G01X1904000Y-200000D03*
G01X1650000Y-200000D03*
G01X1396000Y-200000D03*
G01X1142000Y-200000D03*
G01X888000Y-200000D03*
G01X634000Y-200000D03*
G54D23*
G01X2413000Y-2443582D03*
G01X2413000Y-2357018D03*
G54D50*
G01X383838Y-3160664D03*
G01X383838Y-2840650D03*
G54D26*
G01X219554Y-2297135D03*
G01X219554Y-2507193D03*
G04 Pad End*

G04 Via Start*
G54D51*
G01X1409700Y-977900D03*
G01X1060130Y-1327470D03*
G01X1147506Y-1227394D03*
G01X990600Y-1473200D03*
G01X1079500Y-1473200D03*
G01X1168400Y-1473200D03*
G01X1828800Y-914400D03*
G01X1892300Y-965200D03*
G01X2032000Y-1231900D03*
G01X2209800Y-1231900D03*
G01X660400Y-1549400D03*
G01X1905000Y-1803400D03*
G01X1701800Y-1930400D03*
G54D52*
G01X1981200Y-673100D03*
G54D51*
G01X2032000Y-1130300D03*
G01X1168400Y-1676400D03*
G54D53*
G01X1193800Y-1028700D03*
G54D51*
G01X1724968Y-1826568D03*
G01X1943100Y-3479800D03*
G01X1981200Y-3759200D03*
G01X3060700Y-546100D03*
G01X3171598Y-546100D03*
G54D53*
G01X1509753Y-1454723D03*
G01X1509753Y-1348106D03*
G54D51*
G01X2259770Y-1358087D03*
G01X2311400Y-1397000D03*
G01X1128249Y-652187D03*
G01X1073538Y-698481D03*
G01X1180857Y-702690D03*
G54D53*
G01X1829137Y-1461387D03*
G01X1830540Y-1349158D03*
G54D51*
G01X1823554Y-2099861D03*
G01X2362200Y-596900D03*
G01X2552700Y-3759200D03*
G01X1854200Y-3479800D03*
G01X3060700Y-2476500D03*
G01X3009900Y-2857500D03*
G01X685800Y-482600D03*
G01X762000Y-482600D03*
G01X1524000Y-3708400D03*
G01X1079500Y-3619500D03*
G01X1168461Y-3619500D03*
G01X2209800Y-1308100D03*
G01X1575108Y-978208D03*
G01X1625600Y-927100D03*
G01X1676400Y-965200D03*
G01X1524000Y-850900D03*
G01X2235200Y-673100D03*
G01X2565400Y-1016000D03*
G01X2159000Y-1016000D03*
G01X2159000Y-1067490D03*
G01X753259Y-2915795D03*
G01X1003300Y-3479800D03*
G01X596900Y-2603500D03*
G01X939800Y-3517900D03*
G01X342900Y-2400300D03*
G01X876300Y-3543300D03*
G54D53*
G01X368300Y-3510947D03*
G54D51*
G01X88900Y-1739900D03*
G01X558800Y-1981200D03*
G01X1244600Y-3746500D03*
G01X2552700Y-1409700D03*
G54D52*
G01X2730500Y-1879600D03*
G54D51*
G01X2413000Y-2070100D03*
G01X2857500Y-2768600D03*
G01X2819400Y-1524000D03*
G01X2794000Y-2921000D03*
G01X1778000Y-2159000D03*
G01X1244600Y-2260600D03*
G01X901700Y-3886200D03*
G01X1232331Y-3883922D03*
G01X2168279Y-3616079D03*
G01X2374900Y-2235200D03*
G01X1923762Y-2317769D03*
G01X1562100Y-2387600D03*
G01X2260600Y-2082800D03*
G54D52*
G01X1224382Y-546100D03*
G54D51*
G01X2425700Y-1943100D03*
G01X2476500Y-1892300D03*
G01X647700Y-2032000D03*
G01X1206500Y-2032000D03*
G01X1775006Y-962206D03*
G01X1724968Y-914400D03*
G01X2908300Y-3289300D03*
G54D53*
G01X2133874Y-2525219D03*
G01X2133662Y-2447239D03*
G01X2134589Y-2607498D03*
G01X1504803Y-1244801D03*
G01X1507583Y-1568098D03*
G01X1612955Y-1456241D03*
G01X1614808Y-1353416D03*
G01X1613882Y-1246885D03*
G01X1613882Y-1569617D03*
G01X1826171Y-1570080D03*
G04 Via End*

G04 Track Start*
G54D54*
G01X1245350Y-1117600D02*
G01X1255068Y-1127318D01*
G01X698500Y-1117600D02*
G01X1245350Y-1117600D01*
G54D53*
G01X1224382Y-551282D02*
G01X1328318Y-655218D01*
G01X1219200Y-1054100D02*
G01X1308100Y-1054100D01*
G54D54*
G01X1409700Y-977900D02*
G01X1424994Y-993194D01*
G01Y-1057468D01*
G54D10*
G01X1255068Y-1427292D02*
G01X1250176Y-1422400D01*
G01X1255068Y-1327470D02*
G01X1060130Y-1327470D01*
G01X1147506Y-1227394D02*
G01X1255068Y-1227394D01*
G01X1255068Y-1527368D02*
G01X1101532Y-1527368D01*
G01X990600Y-1638300D01*
G01X1250176Y-1422400D02*
G01X952500Y-1422400D01*
G01X845820Y-1529080D01*
G01X1255068Y-1377508D02*
G01X895792Y-1377508D01*
G01X990600Y-1473200D02*
G01X889000Y-1574800D01*
G01X1255068Y-1277432D02*
G01X906968Y-1277432D01*
G01X1172530Y-1477330D02*
G01X1255068Y-1477330D01*
G01X1168400Y-1473200D02*
G01X1172530Y-1477330D01*
G01X1841500Y-746963D02*
G01X1838655Y-749808D01*
G01X1682496D01*
G54D53*
G01X1841500Y-660400D02*
G01X1701292Y-520192D01*
G01X1682496D01*
G54D10*
G01X1775006Y-962206D02*
G01X1775006Y-1057468D01*
G01X1825044Y-918156D02*
G01X1825044Y-1057468D01*
G01X1828800Y-914400D02*
G01X1825044Y-918156D01*
G54D53*
G01X1224382Y-546100D02*
G01X1224382Y-551282D01*
G54D10*
G01X1333500Y-741782D02*
G01X1484478Y-741782D01*
G01X1492504Y-749808D01*
G01X1255068Y-1577406D02*
G01X1127694Y-1577406D01*
G54D54*
G01X1424994Y-1747332D02*
G01X1424994Y-1876498D01*
G01X1320292Y-1981200D01*
G01X1475032Y-1747332D02*
G01X1475032Y-1880924D01*
G01X1575308Y-1981200D01*
G01X1362608Y-2171700D02*
G01X1362608Y-2023516D01*
G01X1320292Y-1981200D01*
G01X1520292Y-2171700D02*
G01X1520292Y-2036216D01*
G01X1575308Y-1981200D01*
G54D10*
G01X3009924Y-1472974D02*
G01X2908098Y-1574800D01*
G01X1944932Y-1227394D02*
G01X2027494Y-1227394D01*
G01X2032000Y-1231900D01*
G01X2209800Y-1231900D02*
G01X2320392Y-1231900D01*
G01X1947538Y-1574800D02*
G01X1944932Y-1577406D01*
G01X2018218Y-1677482D02*
G01X1944932Y-1677482D01*
G01X2019300Y-1676400D02*
G01X2018218Y-1677482D01*
G01X660400Y-1549400D02*
G01X614782Y-1549400D01*
G01X1079500Y-1473200D02*
G01X939800Y-1612900D01*
G01X1745183Y-2044700D02*
G01X1754937Y-2034946D01*
G01Y-1930400D01*
G01X767182Y-3980282D02*
G01X800100Y-4013200D01*
G01X1299620D01*
G01X1325020Y-3987800D01*
G01Y-3616079D01*
G01X622300Y-3980282D02*
G01X718718Y-4076700D01*
G01X1333500D01*
G01X1424969Y-3985231D01*
G01Y-3616079D01*
G01X767182Y-3980282D02*
G01X767182Y-3934663D01*
G01X762000Y-3929482D01*
G01X622300Y-3980282D02*
G01X622300Y-3929482D01*
G01X1474880Y-3849780D02*
G01X1474880Y-3616079D01*
G01X1698241Y-4073141D02*
G01X1474880Y-3849780D01*
G01X1905000Y-1777250D02*
G01X1875082Y-1747332D01*
G01X1905000Y-1803400D02*
G01X1905000Y-1777250D01*
G01X2889926Y-1627444D02*
G01X3073400Y-1810918D01*
G54D51*
G01X3136900Y-2037093D02*
G01X3136900Y-1900496D01*
G01X3139914Y-1897482D01*
G01X3073400Y-1897482D02*
G01X3139914Y-1897482D01*
G01X3200400D01*
G54D54*
G01X1944932Y-1127318D02*
G01X2029018Y-1127318D01*
G01X2032000Y-1130300D01*
G54D53*
G01X1968500Y-660400D02*
G01X1841500Y-660400D01*
G01X1981200Y-673100D02*
G01X1968500Y-660400D01*
G54D54*
G01X1255068Y-1677482D02*
G01X1169482Y-1677482D01*
G01X1168400Y-1676400D01*
G54D10*
G01X1714500Y-1930400D02*
G01X1720850Y-1936750D01*
G01X1714500Y-1930400D02*
G01X1754937Y-1930400D01*
G54D54*
G01X1724968Y-1747332D02*
G01X1724968Y-1826568D01*
G01X1765300Y-1866900D01*
G01X1790700D01*
G01X1841500Y-1917700D02*
G01X1841500Y-1930400D01*
G01X1790700Y-1866900D02*
G01X1841500Y-1917700D01*
G54D53*
G01X1193800Y-1028700D02*
G01X711200Y-546100D01*
G01X1193800Y-1028700D02*
G01X1219200Y-1054100D01*
G54D52*
G01X622300Y-3842918D02*
G01X762000Y-3842918D01*
G54D54*
G01X1981200Y-3759200D02*
G01X1955800Y-3733800D01*
G01Y-3619500D01*
G54D51*
G01X1852451Y-1177329D02*
G01X1902954Y-1177329D01*
G54D10*
G01X1254217Y-1627444D02*
G01X1343585Y-1627666D01*
G01X1345663Y-1629744D01*
G01X1375678Y-1057291D02*
G01X1375678Y-1157361D01*
G01X1371002Y-1162038D01*
G01X1339905Y-961341D02*
G01X1339905Y-981449D01*
G01X1373106Y-1014650D01*
G01X1854200Y-2044700D02*
G01X1854200Y-2069216D01*
G01X1823554Y-2099861D01*
G01X1141156Y-1627444D02*
G01X1254217Y-1627444D01*
G01X1255068D01*
G54D51*
G01X1849614Y-3484386D02*
G01X1849614Y-3616079D01*
G01X1854200Y-3479800D02*
G01X1849614Y-3484386D01*
G54D10*
G01X1824892Y-3616079D02*
G01X1849614Y-3616079D01*
G01X1874930D01*
G01X1224944Y-3616079D02*
G01X1221522Y-3619500D01*
G01X1155700D01*
G01X2074955Y-3616079D02*
G01X2168279Y-3616079D01*
G01X2171700Y-3619500D01*
G01X1274982Y-3616079D02*
G01X1274982Y-3721100D01*
G01X1524000Y-3708400D02*
G01X1524000Y-3616996D01*
G01X1524918Y-3616079D01*
G54D53*
G01X635000Y-4140200D02*
G01X368300Y-3873500D01*
G01X635000Y-4140200D02*
G01X2794800Y-4140200D01*
G54D51*
G01X2552700Y-3759200D02*
G01X2552700Y-3804818D01*
G01X2540000Y-3817518D01*
G54D10*
G01X2527300Y-3904082D02*
G01X2480220Y-3904082D01*
G01X2451100Y-3874962D01*
G01X1675032Y-3711158D02*
G01X1675032Y-3616079D01*
G01X2654300Y-3904082D02*
G01X2583282Y-3975100D01*
G01X2425700D01*
G01X2387600Y-3937000D01*
G01X2612240Y-4073141D02*
G01X1698241Y-4073141D01*
G01X2768600Y-3916782D02*
G01X2612240Y-4073141D01*
G01X2768600Y-3904082D02*
G01X2768600Y-3916782D01*
G54D53*
G01X2870200Y-4064800D02*
G01X2794800Y-4140200D01*
G01X2870200Y-3622800D02*
G01X2870200Y-4064800D01*
G01X3120000Y-3373000D02*
G01X2870200Y-3622800D01*
G54D10*
G01X2451100Y-3874962D02*
G01X2451100Y-3784600D01*
G01X2387600Y-3797300D02*
G01X2387600Y-3937000D01*
G01X2032000Y-3873500D02*
G01X1701800Y-3873500D01*
G01X1624994Y-3796694D01*
G01Y-3616079D01*
G01X2364740Y-3774440D02*
G01X2387600Y-3797300D01*
G01X2364740Y-3774440D02*
G01X2131060Y-3774440D01*
G01X2032000Y-3873500D01*
G01X2451100Y-3784600D02*
G01X2400300Y-3733800D01*
G01X2114226D01*
G01X2020726Y-3827300D01*
G01X1719100D01*
G54D52*
G01X2540000Y-3817518D02*
G01X2654300Y-3817518D01*
G01X2730500D01*
G54D10*
G01X1575108Y-1057468D02*
G01X1575108Y-978208D01*
G01X1574800Y-977900D01*
G01X1625600Y-1056760D02*
G01X1624892Y-1057468D01*
G01X1625600Y-927100D02*
G01X1625600Y-1056760D01*
G01X1674930Y-1057468D02*
G01X1676400Y-1055998D01*
G01Y-965200D01*
G01X1492504Y-749808D02*
G01X1492504Y-793496D01*
G01X1475032Y-810968D01*
G01Y-1057468D01*
G01X1587500Y-787400D02*
G01X1587500Y-749808D01*
G01X1524000Y-850900D02*
G01X1587500Y-787400D01*
G01X1944932Y-1327470D02*
G01X2012630Y-1327470D01*
G01X2552700Y-1156500D02*
G01X2477199Y-1080999D01*
G01X2477199Y-951001D02*
G01X2414499Y-951001D01*
G01X2286000Y-1168400D02*
G01X2197100Y-1168400D01*
G01X2020066Y-1377508D02*
G01X1944932Y-1377508D01*
G01X2197100Y-1168400D02*
G01X2148840Y-1216660D01*
G01Y-1248734D01*
G01X2020066Y-1377508D01*
G01X2414499Y-951001D02*
G01X2387600Y-977900D01*
G01Y-1066800D01*
G01X2286000Y-1168400D01*
G01X2235200Y-673100D02*
G01X2235200Y-726986D01*
G01X2232190Y-729996D01*
G01X2265782Y-850900D02*
G01X2265782Y-763587D01*
G01X2232190Y-729996D01*
G01X2179218Y-850900D02*
G01X2179500Y-851182D01*
G01Y-912301D01*
G01X2218201Y-951001D01*
G01X2247202D01*
G01X2492210Y-729996D02*
G01X2492210Y-809790D01*
G01X2336800Y-965200D01*
G01Y-1054100D01*
G01X2309901Y-1080999D02*
G01X2247202Y-1080999D01*
G01X2336800Y-1054100D02*
G01X2309901Y-1080999D01*
G54D54*
G01X2565400Y-1016000D02*
G01X2477199Y-1016000D01*
G54D51*
G01X1943100Y-3479800D02*
G01X1943100Y-3606800D01*
G54D10*
G01X1955800Y-3619500D01*
G54D54*
G01X698500Y-1117600D02*
G01X508000Y-1308100D01*
G01X180000D01*
G54D10*
G01X1719100Y-3827300D02*
G01X1689100Y-3797300D01*
G01Y-3725227D01*
G01X1675032Y-3711158D01*
G01X1947538Y-1574800D02*
G01X2908098Y-1574800D01*
G01X1944932Y-1627444D02*
G01X2889926Y-1627444D01*
G01X990600Y-1638300D02*
G01X990600Y-2328832D01*
G01X939800Y-1612900D02*
G01X939800Y-2335505D01*
G01X889000Y-1574800D02*
G01X889000Y-2342179D01*
G01X845820Y-1529080D02*
G01X845820Y-2356473D01*
G01X906968Y-1277432D02*
G01X756680Y-1427720D01*
G01X895792Y-1377508D02*
G01X797320Y-1475980D01*
G01Y-2365446D01*
G54D53*
G01X180000Y-3373000D02*
G01X381000Y-3172000D01*
G01X792231Y-2915795D02*
G01X810424Y-2933988D01*
G01X562335Y-2915795D02*
G01X676635Y-2915795D01*
G54D10*
G01X932282Y-2768600D02*
G01X932282Y-2925849D01*
G01X940421Y-2933988D01*
G54D53*
G01X676635Y-2915795D02*
G01X753259Y-2915795D01*
G01X792231D01*
G54D10*
G01X1003300Y-3479800D02*
G01X1003300Y-3362345D01*
G01X1005445Y-3360200D01*
G54D53*
G01X368300Y-3510947D02*
G01X562335Y-3316912D01*
G01X368300Y-3510947D02*
G01X368300Y-3873500D01*
G01X562335Y-3316912D02*
G01X676635Y-3316912D01*
G01X712523Y-3352800D01*
G01X787400D01*
G54D10*
G01X381000Y-2875178D02*
G01X381000Y-2581529D01*
G01X457200Y-2505329D01*
G01X381000Y-2581529D02*
G01X304800Y-2505329D01*
G01X228600D01*
G01X228600Y-2295271D02*
G01X228600Y-2183562D01*
G01X185318Y-2140280D01*
G01Y-2095500D01*
G01X457200Y-2295271D02*
G01X457200Y-2196262D01*
G01X401218Y-2140280D01*
G01Y-2095500D01*
G01Y-1981200D01*
G01X487782Y-2095500D02*
G01X596900Y-2204618D01*
G01Y-2603500D01*
G01X939800Y-3517900D02*
G01X939800Y-3360821D01*
G01X940421Y-3360200D01*
G01X271882Y-2095500D02*
G01X342900Y-2166518D01*
G01Y-2400300D01*
G01X876300Y-3543300D02*
G01X876300Y-3361078D01*
G01X875422Y-3360200D01*
G01X487782Y-1981200D02*
G01X558800Y-1981200D01*
G54D51*
G01X1967379Y-3060651D02*
G01X1967379Y-2696717D01*
G01X1988865Y-2675231D01*
G01X2311400Y-3060700D02*
G01X2311400Y-2707749D01*
G01X2278882Y-2675231D01*
G01Y-2641600D01*
G01X1988865Y-2675231D02*
G01X1988865Y-2641600D01*
G01X2718511Y-2629611D02*
G01X2640479Y-2629611D01*
G01X2415587D01*
G01X2411879Y-2633319D01*
G01X2353791Y-2575232D01*
G01X2278882D01*
G01Y-2540000D01*
G54D10*
G01X2980300Y-3233300D02*
G01X2980300Y-3102598D01*
G01X3009924Y-3072974D01*
G54D51*
G01X3120000Y-3373000D02*
G01X2980300Y-3233300D01*
G01X1988865Y-2550626D02*
G01X1986791Y-2552700D01*
G01X1879600D01*
G01X1849070Y-2583230D01*
G01Y-2605198D01*
G54D10*
G01X1988865Y-2575231D02*
G01X1988865Y-2550626D01*
G01Y-2525219D01*
G54D53*
G01X1849070Y-2605198D02*
G01X1734770Y-2605198D01*
G01X1633170D01*
G01X1625650Y-2465577D02*
G01X1725014Y-2465577D01*
G01X1739950Y-2450642D01*
G54D10*
G01X1988865Y-2475232D02*
G01X1878839Y-2475232D01*
G01X1854250Y-2450642D01*
G01X1739950Y-2364079D02*
G01X1754479Y-2364079D01*
G01X1841042Y-2450642D02*
G01X1854250Y-2450642D01*
G01X1754479Y-2364079D02*
G01X1841042Y-2450642D01*
G54D51*
G01X2980300Y-3233300D02*
G01X2857500Y-3110500D01*
G01Y-2768600D01*
G01X2718511Y-2629611D01*
G54D10*
G01X2018218Y-1677482D02*
G01X2426782Y-1677482D01*
G01X2560218Y-1810918D02*
G01X2895600Y-1810918D01*
G01X2426782Y-1677482D02*
G01X2560218Y-1810918D01*
G54D53*
G01X2895600Y-1897482D02*
G01X2895600Y-2037093D01*
G01X2895600Y-2357107D02*
G01X3136900Y-2357107D01*
G54D10*
G01X2895600Y-2357107D02*
G01X2809126Y-2443582D01*
G01X2527300D01*
G01Y-2463800D01*
G01X2463800Y-2527300D01*
G01X2374900D01*
G01X2322832Y-2475232D02*
G01X2278882Y-2475232D01*
G01X2374900Y-2527300D02*
G01X2322832Y-2475232D01*
G01X2654300Y-3563518D02*
G01X2652878Y-3562096D01*
G01X2487600D01*
G01X2287600Y-3467100D02*
G01X2274900Y-3479800D01*
G01X2057400D01*
G01X2025018Y-3512182D01*
G01Y-3616079D01*
G01X762000Y-3842918D02*
G01X858418Y-3746500D01*
G01X1244600D01*
G01X1270000Y-3721100D01*
G01X1274982D01*
G01X1714500Y-1930400D02*
G01X1701435Y-1930400D01*
G01X1624892Y-1853857D01*
G01Y-1747332D01*
G01X716040Y-1366760D02*
G01X716040Y-2399114D01*
G01X1148186Y-2831260D02*
G01X1148186Y-3229991D01*
G01X1374931Y-3456736D01*
G01X716040Y-2399114D02*
G01X1148186Y-2831260D01*
G01X1374931Y-3456736D02*
G01X1374931Y-3616079D01*
G01X756680Y-1427720D02*
G01X756680Y-2382280D01*
G01X1424969Y-3444175D02*
G01X1424969Y-3616079D01*
G01X1474880Y-3417145D02*
G01X1474880Y-3616079D01*
G01X939800Y-2335505D02*
G01X1370764Y-2766469D01*
G01X889000Y-2342179D02*
G01X1327373Y-2780552D01*
G01X845820Y-2356473D02*
G01X1286075Y-2796728D01*
G01X797320Y-2365446D02*
G01X1238497Y-2806624D01*
G01Y-3180762D01*
G01X1474880Y-3417145D01*
G01X756680Y-2382280D02*
G01X1188826Y-2814426D01*
G01Y-3208032D01*
G01X1424969Y-3444175D01*
G01X1286075Y-2796728D02*
G01X1286075Y-3170866D01*
G01X1574956Y-3459747D01*
G01Y-3616079D01*
G01X1327373Y-2780552D02*
G01X1327373Y-3154690D01*
G01X1624994Y-3452311D01*
G01Y-3616079D01*
G01X1370764Y-2766469D02*
G01X1370764Y-3140608D01*
G01X1675032Y-3444876D01*
G01Y-3616079D01*
G01X1724943Y-3437313D02*
G01X1724943Y-3616079D01*
G01X1774854Y-3429750D02*
G01X1774854Y-3616079D01*
G01X2552700Y-1409700D02*
G01X2552700Y-1156500D01*
G01X1944932Y-1427292D02*
G01X2007670Y-1427292D01*
G01X2040878Y-1460500D01*
G01X2781300D01*
G01X2819400Y-1498600D01*
G01Y-1524000D01*
G01X2794000Y-2921000D02*
G01X2794000Y-3423818D01*
G01X2654300Y-3563518D01*
G01X3009924Y-2727026D02*
G01X3238500Y-2498450D01*
G01X3238500Y-2138693D02*
G01X3136900Y-2037093D01*
G01X3238500Y-2498450D02*
G01X3238500Y-2138693D01*
G01X1854250Y-2364079D02*
G01X1877451Y-2364079D01*
G01X1923762Y-2317769D01*
G01X1988865Y-2425219D02*
G01X2062779Y-2425219D01*
G01X2069523Y-2418476D01*
G01X2122373Y-2023008D02*
G01X2133600Y-2011782D01*
G54D53*
G01X1866900Y-2260600D02*
G01X1981200Y-2146300D01*
G01X2463800D01*
G01X2730500Y-1879600D01*
G54D10*
G01X1127694Y-1577406D02*
G01X1031240Y-1673860D01*
G01Y-2311998D01*
G01X875422Y-2933988D02*
G01X875422Y-2811004D01*
G01X845718Y-2781300D01*
G01X875422Y-2933988D02*
G01X875422Y-3114582D01*
G01X907934Y-3147094D01*
G01X1005445Y-2933988D02*
G01X1005445Y-3049584D01*
G01X907934Y-3147094D01*
G54D53*
G01X1547470Y-655218D02*
G01X1682496Y-520192D01*
G54D10*
G01X914400Y-1168400D02*
G01X716040Y-1366760D01*
G01X914400Y-1168400D02*
G01X1183374Y-1168400D01*
G01X1192330Y-1177356D01*
G01X1255068D01*
G01X1682496Y-749808D02*
G01X1682496Y-785729D01*
G01X1525070Y-943155D01*
G01Y-1057468D01*
G54D53*
G01X711200Y-546100D02*
G01X1224382Y-546100D01*
G01X180000Y-546100D02*
G01X711200Y-546100D01*
G54D52*
G01X994308Y-1028700D02*
G01X1193800Y-1028700D01*
G54D10*
G01X2012630Y-1327470D02*
G01X2108200Y-1231900D01*
G01Y-663994D01*
G01X2232190Y-540004D01*
G54D52*
G01X2032000Y-1130300D02*
G01X2032000Y-956208D01*
G54D10*
G01X88900Y-1739900D02*
G01X195593Y-1739900D01*
G01X502907Y-1739900D02*
G01X546938Y-1739900D01*
G01X585038Y-1701800D01*
G01X629818D01*
G01X629818Y-2014118D02*
G01X629818Y-1788363D01*
G01X647700Y-2032000D02*
G01X629818Y-2014118D01*
G01X1206500Y-2032000D02*
G01X1139292Y-2032000D01*
G01X1130300Y-2040992D01*
G01X1206500Y-2032000D02*
G01X1206500Y-1841500D01*
G01X1231900Y-1816100D01*
G01X1256150D01*
G01X1324918Y-1747332D01*
G01X1130300Y-1774292D02*
G01X1168400Y-1736192D01*
G01Y-1676400D01*
G01X2413000Y-2070100D02*
G01X2354682Y-2011782D01*
G01X2324100D01*
G01X2324100Y-1925218D02*
G01X2209800Y-1925218D01*
G01X2095500Y-1913992D02*
G01X2198573Y-1913992D01*
G01X2209800Y-1925218D01*
G01X1981200Y-1913992D02*
G01X1845092Y-1913992D01*
G01X1757668Y-1826568D01*
G01X1724968D01*
G01X1825044Y-1747332D02*
G01X1825044Y-1810070D01*
G01X1869174Y-1854200D01*
G01X1930400Y-1854200D02*
G01X1968500Y-1816100D01*
G01X2057400D01*
G01X2095500Y-1854200D01*
G01Y-1913992D01*
G01X1869174Y-1854200D02*
G01X1930400Y-1854200D01*
G01X1071840Y-1696760D02*
G01X1071840Y-1866900D01*
G01X1088249Y-1883308D01*
G01X1130300D01*
G01X1071840Y-1696760D02*
G01X1141156Y-1627444D01*
G01X2247202Y-1016000D02*
G01X2159000Y-1016000D01*
G01X2133600Y-2011782D02*
G01X2209800Y-2011782D01*
G54D53*
G01X1333500Y-655218D02*
G01X1547470Y-655218D01*
G01X1328318Y-655218D02*
G01X1333500Y-655218D01*
G54D10*
G01X2122373Y-2023008D02*
G01X2006600Y-2023008D01*
G01X1875082Y-1057468D02*
G01X1875082Y-982418D01*
G01X1892300Y-965200D01*
G01X1724968Y-1057468D02*
G01X1724968Y-914400D01*
G54D53*
G01X1633170Y-2605198D02*
G01X1625649Y-2597678D01*
G54D10*
G01X2079092Y-2235200D02*
G01X1988865Y-2325426D01*
G01Y-2375207D01*
G54D53*
G01X1549400Y-2260600D02*
G01X1866900Y-2260600D01*
G01X1486700Y-2469271D02*
G01X1486700Y-2323300D01*
G01X1549400Y-2260600D01*
G01X1486700Y-2469271D02*
G01X1524000Y-2506571D01*
G01Y-2531971D01*
G01X1625600D01*
G01Y-2465627D01*
G01X1625600Y-2531971D02*
G01X1625600Y-2599792D01*
G54D51*
G01X1524000Y-2531971D02*
G01X1524000Y-3060700D01*
G01X1943100Y-3479800D01*
G54D10*
G01X1031240Y-2311998D02*
G01X1460157Y-2740915D01*
G01Y-3115054D01*
G01X1774854Y-3429750D01*
G01X990600Y-2328832D02*
G01X1418342Y-2756573D01*
G01Y-3130712D01*
G01X1724943Y-3437313D01*
G01X2278882Y-2425219D02*
G01X2394638Y-2425219D01*
G01X2413000Y-2443582D01*
G01X1675947Y-1748043D02*
G01X1675947Y-1650775D01*
G01X1671316Y-1646144D01*
G54D53*
G01X381000Y-2875178D02*
G01X521719Y-2875178D01*
G01X562335Y-2915795D01*
G04 Track End*

M02*
