;TYPE=PLATED
;Layer: PTH_Through
;EasyEDA Pro v2.1.57.773a98f1.225d47, 2024-05-26 20:13:35
;Gerber Generator version 0.3
M48
METRIC,LZ,000.00000
;Hole size 1 = 0.30000 METRIC
T01C0.30000
;Hole size 2 = 1.00000 METRIC
T02C1.00000
;Hole size 3 = 1.10002 METRIC
T03C1.10002
%
G05
G90
T01
X00685800Y-01485900
X00736600Y-01422400
X00800100Y-01485900
X02253400Y-01079500
X02253400Y-00990600
X00876300Y-00863600
X01135800Y-01206500
X01085000Y-01028700
X00970700Y-00952500
X01632935Y-01222770
X01848618Y-00944982
X01174672Y-00928644
X01643800Y-00787400
X01643800Y-00876300
X01547382Y-00944982
X01351700Y-01295400
X01447800Y-00812800
X01574800Y-00584200
X01651000Y-00584200
X01508000Y-04000000
X01792000Y-04000000
X01816100Y-01536700
X01931974Y-01536700
X01879600Y-01485900
X02794000Y-02984500
X03048000Y-00977900
X01016000Y-03746500
X01119162Y-03746500
X00901700Y-03746500
X00901700Y-03632200
X01117522Y-03635872
X01015818Y-03635872
X01015818Y-03521044
X01122443Y-03521044
X00901700Y-03517900
X01016000Y-03848100
X01121076Y-03848100
X00901700Y-03848100
X01016000Y-03200400
X01016000Y-03094815
X01016000Y-02992017
X00901700Y-02997200
X01016000Y-02882900
X00901700Y-02882900
X01016000Y-02768600
X00901700Y-02768600
X01016000Y-02667000
X00901700Y-02667000
X01016000Y-02552700
X00901700Y-02552700
X00901700Y-02451100
X01016592Y-02447110
X01016000Y-02336800
X00901700Y-02336800
X01016000Y-02235200
X00901700Y-02235200
X01016000Y-02120900
X00901700Y-02120900
X01016000Y-02019300
X00901700Y-03098800
X00901700Y-03202698
X00901700Y-02019300
X01401475Y-01022770
X00939800Y-01778000
X02806700Y-00508000
X02527300Y-01587500
X02463800Y-01638300
X02574330Y-01638300
X02146300Y-00673100
X02095500Y-00736600
X02199155Y-00736600
X02153208Y-01204714
X02679700Y-01206500
X01397000Y-01803400
X01193800Y-01371600
X01601499Y-02159000
X01601499Y-02159000
X02006600Y-02781300
T02
X03120000Y-03373000
X03120000Y-03627000
T03
X00634000Y-00200000
X00888000Y-00200000
X01142000Y-00200000
X01396000Y-00200000
X01650000Y-00200000
X01904000Y-00200000
X02158000Y-00200000
X02412000Y-00200000
X02666000Y-00200000
M30