G04 Layer: BottomLayer*
G04 EasyEDA Pro v2.1.57.773a98f1.225d47, 2024-05-26 20:13:35*
G04 Gerber Generator version 0.3*
G04 Scale: 100 percent, Rotated: No, Reflected: No*
G04 Dimensions in millimeters*
G04 Leading zeros omitted, absolute positions, 3 integers and 5 decimals*
%FSLAX35Y35*%
%MOMM*%
%ADD10C,0.254*%
%ADD11C,2.0*%
%ADD12R,1.7X1.7*%
%ADD13C,1.7*%
%ADD14C,1.8*%
%ADD15R,1.8X1.8*%
%ADD16C,0.4*%
%ADD17C,0.5056*%
%ADD18C,0.5*%
%ADD19C,0.6*%
%ADD20C,1.5*%
G75*

G54D10*

G04 Copper Start*
G01X300000Y-4161646D02*
G02X38354Y-3900000I0J261646D01*
G01Y-3810025D01*
G01X774700D01*
G03X787425Y-3797300I0J12725D01*
G01Y-1968500D01*
G03X774700Y-1955775I-12725J0D01*
G01X38354D01*
G01Y-300000D01*
G02X300000Y-38354I261646J0D01*
G01X1705634D01*
G01X1703799Y-40099D01*
G01X1679321Y-64578D01*
G01X1678089Y-65714D01*
G01X1677120Y-66483D01*
G01X1675812Y-67385D01*
G01X1674180Y-68370D01*
G01X1672448Y-69290D01*
G01X1668847Y-70928D01*
G01X1665010Y-72378D01*
G01X1660839Y-73681D01*
G01X1656618Y-74757D01*
G01X1650568Y-75931D01*
G01X1644604Y-76698D01*
G01X1641926Y-76911D01*
G03X1526646Y-200000I8074J-123089D01*
G03X1533162Y-239561I123354J0D01*
G01X1527190Y-233589D01*
G01X1525714Y-231985D01*
G01X1524979Y-231039D01*
G01X1524363Y-230090D01*
G01X1523801Y-229049D01*
G01X1523258Y-227826D01*
G01X1522722Y-226343D01*
G01X1522264Y-224771D01*
G01X1521464Y-221108D01*
G01X1520861Y-217102D01*
G01X1520019Y-207866D01*
G01X1519172Y-193297D01*
G01X1519112Y-192275D01*
G03X1396000Y-76646I-123112J-7725D01*
G03X1272646Y-200000I0J-123354D01*
G03X1273184Y-211505I123354J0D01*
G01X1271051Y-207888D01*
G01X1269128Y-204183D01*
G01X1267542Y-200636D01*
G01X1266265Y-197193D01*
G01X1265773Y-195566D01*
G01X1265406Y-194052D01*
G01X1265211Y-192946D01*
G01X1265057Y-191445D01*
G03X1142000Y-76646I-123057J-8556D01*
G03X1018646Y-200000I0J-123354D01*
G03X1036015Y-263114I123354J0D01*
G01X1012709Y-239808D01*
G01X1011097Y-238090D01*
G01X1010188Y-236976D01*
G01X1010035Y-236762D01*
G01X1009872Y-236507D01*
G01X1009843Y-236456D01*
G01X1009789Y-236132D01*
G01X1009723Y-235479D01*
G01X1009687Y-234622D01*
G01X1009739Y-231570D01*
G01X1010867Y-216544D01*
G01X1010932Y-215461D01*
G01X1011355Y-206395D01*
G01X1011397Y-204609D01*
G01X1011395Y-204264D01*
G01X1011353Y-199602D01*
G01X1011340Y-198181D01*
G01X1011332Y-197267D01*
G01X1011286Y-195696D01*
G01X1011258Y-195138D01*
G03X1011112Y-192275I-123258J-4862D01*
G03X888000Y-76646I-123112J-7725D01*
G03X764646Y-200000I0J-123354D01*
G03X880275Y-323112I123354J0D01*
G03X888000Y-323354I7725J123112D01*
G03X918643Y-319487I0J123354D01*
G01X935323Y-316821D01*
G01X941817Y-316197D01*
G01X944608Y-316109D01*
G01X1396746Y-768247D01*
G01Y-784539D01*
G03X1389446Y-812800I51054J-28261D01*
G03X1391541Y-828294I58354J0D01*
G01X922761D01*
G03X876300Y-805246I-46461J-35306D01*
G03X817946Y-863600I0J-58354D01*
G03X861074Y-919932I58354J0D01*
G03X892048Y-930402I30974J40585D01*
G01X916692D01*
G03X913794Y-939581I54008J-22098D01*
G01X893238Y-960138D01*
G03X876146Y-1001400I41262J-41262D01*
G01Y-1772700D01*
G03X893238Y-1813963I58354J0D01*
G01X898537Y-1819262D01*
G01X898538D01*
G03X939800Y-1836354I41262J41262D01*
G03X998154Y-1778000I0J58354D01*
G03X992854Y-1753701I-58354J0D01*
G01Y-1025571D01*
G01X1011963Y-1006462D01*
G03X1024830Y-986998I-41262J41262D01*
G01X1174672D01*
G03X1232999Y-930402I0J58354D01*
G01X1339697D01*
G01X1119683Y-1150416D01*
G03X1077446Y-1206500I16117J-56084D01*
G03X1119683Y-1262584I58354J0D01*
G01X1173858Y-1316759D01*
G03X1135446Y-1371600I19942J-54841D01*
G03X1142746Y-1399861I58354J0D01*
G01Y-1600200D01*
G03X1157699Y-1636301I51054J0D01*
G01X1340916Y-1819517D01*
G03X1397000Y-1861754I56084J16117D01*
G03X1455354Y-1803400I0J58354D01*
G03X1413117Y-1747316I-58354J0D01*
G01X1244854Y-1579053D01*
G01Y-1507555D01*
G01X1550445Y-1813146D01*
G01Y-2130739D01*
G03X1543145Y-2159000I51054J-28261D01*
G03X1601499Y-2217354I58354J0D01*
G03X1659853Y-2159000I0J58354D01*
G03X1652553Y-2130739I-58354J0D01*
G01Y-1791999D01*
G03X1637599Y-1755898I-51054J0D01*
G01X1308354Y-1426653D01*
G01Y-1346454D01*
G01X1323439D01*
G03X1351700Y-1353754I28261J51054D01*
G03X1410054Y-1295400I0J58354D01*
G03X1351700Y-1237046I-58354J0D01*
G03X1323439Y-1244346I0J-58354D01*
G01X1263596D01*
G01X1262543Y-1244302D01*
G01X1261572Y-1244193D01*
G01X1260203Y-1243956D01*
G01X1256792Y-1243150D01*
G01X1253037Y-1242013D01*
G01X1249006Y-1240545D01*
G01X1244974Y-1238834D01*
G01X1241199Y-1236992D01*
G01X1237943Y-1235166D01*
G01X1235246Y-1233412D01*
G01X1234379Y-1232764D01*
G01X1233614Y-1232111D01*
G01X1233570Y-1232068D01*
G01X1208001Y-1206500D01*
G01X1471549Y-942952D01*
G01X1472325Y-942239D01*
G01X1473089Y-941629D01*
G01X1474225Y-940828D01*
G01X1477206Y-938986D01*
G01X1480665Y-937135D01*
G01X1484554Y-935322D01*
G01X1488615Y-933681D01*
G01X1490246Y-933120D01*
G03X1489028Y-944982I57136J-11861D01*
G03X1547382Y-1003336I58354J0D01*
G03X1575643Y-996036I0J58354D01*
G01X1820357D01*
G03X1848618Y-1003336I28261J51054D01*
G03X1906972Y-944982I0J58354D01*
G03X1904246Y-927354I-58354J0D01*
G01X2029053D01*
G01X2197316Y-1095617D01*
G03X2253400Y-1137854I56084J16117D01*
G03X2311754Y-1079500I0J58354D01*
G03X2291207Y-1035050I-58354J0D01*
G03X2311754Y-990600I-37807J44450D01*
G03X2269517Y-934516I-58354J0D01*
G01X2086301Y-751299D01*
G03X2050200Y-736346I-36101J-36101D01*
G01X1694854D01*
G01Y-622697D01*
G03X1709354Y-584200I-43854J38497D01*
G03X1701465Y-554901I-58354J0D01*
G01Y-429012D01*
G03X1686512Y-392911I-51054J0D01*
G01X1610439Y-316838D01*
G03X1650000Y-323354I39561J116838D01*
G03X1773112Y-207725I0J123354D01*
G03X1773354Y-200000I-123112J7725D01*
G03X1758637Y-141570I-123354J0D01*
G01X1758313Y-140563D01*
G01X1756687Y-134425D01*
G01X1756204Y-132097D01*
G01X1761047Y-127254D01*
G01X1804380D01*
G03X1780646Y-200000I99620J-72746D01*
G03X1896275Y-323112I123354J0D01*
G03X1902911Y-323349I7725J123112D01*
G01X1903925Y-323363D01*
G01X1904871Y-323351D01*
G01X1904872D01*
G03X1909211Y-323244I-872J123351D01*
G01X1909799Y-323229D01*
G01X1911913Y-323119D01*
G01X1916548Y-322748D01*
G01X1918759Y-322506D01*
G01X1924525Y-321706D01*
G01X1926810Y-321319D01*
G01X1933438Y-319987D01*
G01X1935065Y-319623D01*
G01X1948081Y-316413D01*
G01X1950165Y-318366D01*
G01X2781046Y-1149247D01*
G01Y-2404553D01*
G01X2582353Y-2603246D01*
G01X2133600D01*
G03X2097499Y-2618199I0J-51054D01*
G01X1990483Y-2725216D01*
G03X1948246Y-2781300I16117J-56084D01*
G03X2006600Y-2839654I58354J0D01*
G03X2062684Y-2797417I0J58354D01*
G01X2154747Y-2705354D01*
G01X2603500D01*
G03X2639601Y-2690401I0J51054D01*
G01X2831846Y-2498155D01*
G01Y-2887153D01*
G01X2792841Y-2926158D01*
G01X2790346Y-2926261D01*
G03X2735646Y-2984500I3654J-58239D01*
G03X2794000Y-3042854I58354J0D01*
G03X2831794Y-3028961I0J58354D01*
G03X2842801Y-3020601I-25094J44461D01*
G01X2855704Y-3007697D01*
G01X2919001Y-2944401D01*
G03X2933954Y-2908300I-36101J36101D01*
G01Y-924900D01*
G03X2919001Y-888799I-51054J0D01*
G01X2276366Y-246165D01*
G01X2274413Y-244082D01*
G01X2277623Y-231066D01*
G01X2277987Y-229439D01*
G01Y-229438D01*
G01X2279318Y-222811D01*
G01Y-222810D01*
G01X2279706Y-220525D01*
G01X2280506Y-214759D01*
G01X2280748Y-212548D01*
G01X2281119Y-207913D01*
G01X2281229Y-205800D01*
G01X2281244Y-205211D01*
G03X2281351Y-200872I-123244J5211D01*
G01Y-200871D01*
G01X2281362Y-199925D01*
G01X2281349Y-198911D01*
G03X2281112Y-192275I-123349J-1089D01*
G03X2257620Y-127254I-123112J-7725D01*
G01X2312380D01*
G03X2288646Y-200000I99620J-72746D01*
G03X2403920Y-323089I123354J0D01*
G01X2422323Y-324558D01*
G01X2428556Y-325454D01*
G01X2432634Y-326299D01*
G01X2434718Y-326854D01*
G01X2436687Y-327489D01*
G01X2438366Y-328143D01*
G01X2439786Y-328805D01*
G01X2440989Y-329473D01*
G01X2442032Y-330161D01*
G01X2442980Y-330901D01*
G01X2444485Y-332286D01*
G01X2996946Y-884747D01*
G01Y-949639D01*
G03X2989646Y-977900I51054J-28261D01*
G03X3048000Y-1036254I58354J0D01*
G03X3106354Y-977900I0J58354D01*
G03X3099054Y-949639I-58354J0D01*
G01Y-863600D01*
G03X3084101Y-827499I-51054J0D01*
G01X2821140Y-564539D01*
G03X2865054Y-508000I-14440J56539D01*
G03X2857754Y-479739I-58354J0D01*
G01Y-139700D01*
G03X2842801Y-103599I-51054J0D01*
G01X2779301Y-40099D01*
G01X2777466Y-38354D01*
G01X3000000D01*
G02X3261646Y-300000I0J-261646D01*
G01Y-3900000D01*
G02X3000000Y-4161646I-261646J0D01*
G01X300000D01*
G01X1369646Y-4000000D02*
G03X1508000Y-4138354I138354J0D01*
G03X1646083Y-4008664I0J138354D01*
G03X1646354Y-4000000I-138083J8664D01*
G03X1645063Y-3981142I-138354J0D01*
G01X1643087Y-3957771D01*
G01X1642615Y-3946026D01*
G01X1642688Y-3941640D01*
G01X1642958Y-3937917D01*
G01X1643214Y-3936193D01*
G01X1783053Y-3796354D01*
G01X2641600D01*
G03X2721753Y-3763153I0J113354D01*
G01X2998553Y-3486354D01*
G01X3059787D01*
G03X3093775Y-3498646I60213J113354D01*
G01X3030000D01*
G03X2991646Y-3537000I0J-38354D01*
G01Y-3717000D01*
G03X3030000Y-3755354I38354J0D01*
G01X3210000D01*
G03X3248354Y-3717000I0J38354D01*
G01Y-3537000D01*
G03X3210000Y-3498646I-38354J0D01*
G01X3146225D01*
G03X3248354Y-3373000I-26225J125646D01*
G03X3120000Y-3244646I-128354J0D01*
G03X3059787Y-3259646I0J-128354D01*
G01X2951600D01*
G03X2871447Y-3292847I0J-113354D01*
G01X2594647Y-3569646D01*
G01X1736100D01*
G03X1655947Y-3602847I0J-113354D01*
G01X1479665Y-3779128D01*
G01X1427847Y-3830946D01*
G01Y-3830947D01*
G03X1394646Y-3911100I80153J-80153D01*
G01Y-3920673D01*
G03X1369646Y-4000000I113354J-79327D01*
G01X1792000Y-4138354D02*
G03X1930354Y-4000000I0J138354D01*
G03X1792000Y-3861646I-138354J0D01*
G03X1653646Y-4000000I0J-138354D01*
G03X1792000Y-4138354I138354J0D01*
G01X510646Y-285000D02*
G03X549000Y-323354I38354J0D01*
G01X719000D01*
G03X757354Y-285000I0J38354D01*
G01Y-115000D01*
G03X719000Y-76646I-38354J0D01*
G01X549000D01*
G03X510646Y-115000I0J-38354D01*
G01Y-285000D01*
G01X3098453Y-4142416D02*
G01X3242416Y-3998453D01*
G01X2971460Y-4161646D02*
G01X3261646Y-3871460D01*
G01X2863697Y-4161646D02*
G01X3261646Y-3763697D01*
G01X2755934Y-4161646D02*
G01X3162226Y-3755354D01*
G01X3248354Y-3669226D02*
G01X3261646Y-3655934D01*
G01X2648171Y-4161646D02*
G01X3054463Y-3755354D01*
G01X3248354Y-3561463D02*
G01X3261646Y-3548171D01*
G01X2540408Y-4161646D02*
G01X2991646Y-3710408D01*
G01X3203408Y-3498646D02*
G01X3261646Y-3440408D01*
G01X2432645Y-4161646D02*
G01X2991646Y-3602645D01*
G01X3245961Y-3348330D02*
G01X3261646Y-3332645D01*
G01X2324882Y-4161646D02*
G01X3000174Y-3486354D01*
G01X3207466Y-3279062D02*
G01X3261646Y-3224882D01*
G01X2217119Y-4161646D02*
G01X2582411Y-3796354D01*
G01X3133415Y-3245349D02*
G01X3261646Y-3117119D01*
G01X2109356Y-4161646D02*
G01X2474648Y-3796354D01*
G01X3011355Y-3259646D02*
G01X3261646Y-3009356D01*
G01X2001593Y-4161646D02*
G01X2366885Y-3796354D01*
G01X2593593Y-3569646D02*
G01X3261646Y-2901593D01*
G01X1893829Y-4161646D02*
G01X2259121Y-3796354D01*
G01X2485829Y-3569646D02*
G01X3261646Y-2793829D01*
G01X1786066Y-4161646D02*
G01X1810617Y-4137096D01*
G01X1929096Y-4018617D02*
G01X2151358Y-3796354D01*
G01X2378066Y-3569646D02*
G01X3261646Y-2686066D01*
G01X1678303Y-4161646D02*
G01X1721127Y-4118823D01*
G01X1910823Y-3929127D02*
G01X2043595Y-3796354D01*
G01X2270303Y-3569646D02*
G01X2797182Y-3042767D01*
G01X2933954Y-2905995D02*
G01X3261646Y-2578303D01*
G01X1570540Y-4161646D02*
G01X1668945Y-4063241D01*
G01X1855241Y-3876945D02*
G01X1935832Y-3796354D01*
G01X2162540Y-3569646D02*
G01X2736691Y-2995495D01*
G01X2933954Y-2798232D02*
G01X3261646Y-2470540D01*
G01X1462777Y-4161646D02*
G01X1487584Y-4136839D01*
G01X1644924Y-3979499D02*
G01X1657710Y-3966713D01*
G01X1758713Y-3865710D02*
G01X1828069Y-3796354D01*
G01X2054777Y-3569646D02*
G01X2831846Y-2792577D01*
G01X2933954Y-2690469D02*
G01X3261646Y-2362777D01*
G01X1355014Y-4161646D02*
G01X1414595Y-4102065D01*
G01X1947014Y-3569646D02*
G01X2831846Y-2684814D01*
G01X2933954Y-2582706D02*
G01X3261646Y-2255014D01*
G01X1247251Y-4161646D02*
G01X1374095Y-4034802D01*
G01X1839251Y-3569646D02*
G01X2831846Y-2577051D01*
G01X2933954Y-2474943D02*
G01X3261646Y-2147251D01*
G01X1139488Y-4161646D02*
G01X1394744Y-3906390D01*
G01X1731390Y-3569744D02*
G01X2595780Y-2705354D01*
G01X2933954Y-2367180D02*
G01X3261646Y-2039488D01*
G01X1031725Y-4161646D02*
G01X2488017Y-2705354D01*
G01X2933954Y-2259417D02*
G01X3261646Y-1931725D01*
G01X923962Y-4161646D02*
G01X2380254Y-2705354D01*
G01X2482362Y-2603246D02*
G01X2781046Y-2304562D01*
G01X2933954Y-2151654D02*
G01X3261646Y-1823962D01*
G01X816199Y-4161646D02*
G01X2272491Y-2705354D01*
G01X2374599Y-2603246D02*
G01X2781046Y-2196799D01*
G01X2933954Y-2043891D02*
G01X3261646Y-1716199D01*
G01X708436Y-4161646D02*
G01X2043931Y-2826151D01*
G01X2051451Y-2818631D02*
G01X2164728Y-2705354D01*
G01X2266836Y-2603246D02*
G01X2781046Y-2089036D01*
G01X2933954Y-1936128D02*
G01X3261646Y-1608436D01*
G01X600673Y-4161646D02*
G01X1954579Y-2807739D01*
G01X2159073Y-2603246D02*
G01X2781046Y-1981273D01*
G01X2933954Y-1828365D02*
G01X3261646Y-1500673D01*
G01X492910Y-4161646D02*
G01X2781046Y-1873510D01*
G01X2933954Y-1720602D02*
G01X3261646Y-1392909D01*
G01X385146Y-4161646D02*
G01X736767Y-3810025D01*
G01X787425Y-3759367D02*
G01X2781046Y-1765746D01*
G01X2933954Y-1612838D02*
G01X3261646Y-1285146D01*
G01X278286Y-4160743D02*
G01X629004Y-3810025D01*
G01X787425Y-3651604D02*
G01X2781046Y-1657983D01*
G01X2933954Y-1505075D02*
G01X3261646Y-1177383D01*
G01X192655Y-4138612D02*
G01X521241Y-3810025D01*
G01X787425Y-3543841D02*
G01X2781046Y-1550220D01*
G01X2933954Y-1397312D02*
G01X3261646Y-1069620D01*
G01X127114Y-4096390D02*
G01X413478Y-3810025D01*
G01X787425Y-3436078D02*
G01X2781046Y-1442457D01*
G01X2933954Y-1289549D02*
G01X3261646Y-961857D01*
G01X77719Y-4038021D02*
G01X305715Y-3810025D01*
G01X787425Y-3328315D02*
G01X2781046Y-1334694D01*
G01X2933954Y-1181786D02*
G01X3261646Y-854094D01*
G01X45839Y-3962138D02*
G01X197952Y-3810025D01*
G01X787425Y-3220552D02*
G01X2781046Y-1226931D01*
G01X2933954Y-1074023D02*
G01X2998761Y-1009216D01*
G01X3099054Y-908923D02*
G01X3261646Y-746331D01*
G01X38354Y-3861860D02*
G01X90189Y-3810025D01*
G01X787425Y-3112789D02*
G01X2766006Y-1134208D01*
G01X2933954Y-966260D02*
G01X2996946Y-903268D01*
G01X3078408Y-821806D02*
G01X3261646Y-638568D01*
G01X787425Y-3005026D02*
G01X1579431Y-2213020D01*
G01X1655519Y-2136932D02*
G01X2712125Y-1080326D01*
G01X2911326Y-881125D02*
G01X2952325Y-840126D01*
G01X3024526Y-767925D02*
G01X3261646Y-530805D01*
G01X787425Y-2897262D02*
G01X1547291Y-2137397D01*
G01X1652553Y-2032135D02*
G01X2658243Y-1026445D01*
G01X2857444Y-827243D02*
G01X2898443Y-786245D01*
G01X2970645Y-714043D02*
G01X3261646Y-423042D01*
G01X787425Y-2789499D02*
G01X1550445Y-2026480D01*
G01X1652553Y-1924372D02*
G01X2604362Y-972563D01*
G01X2803563Y-773362D02*
G01X2844562Y-732363D01*
G01X2916763Y-660162D02*
G01X3261646Y-315279D01*
G01X787425Y-2681736D02*
G01X1550445Y-1918717D01*
G01X1652553Y-1816609D02*
G01X2550480Y-918682D01*
G01X2749681Y-719480D02*
G01X2790680Y-678481D01*
G01X2862881Y-606280D02*
G01X3249127Y-220035D01*
G01X787425Y-2573973D02*
G01X1549349Y-1812050D01*
G01X1621550Y-1739849D02*
G01X2228925Y-1132473D01*
G01X2306373Y-1055025D02*
G01X2496599Y-864800D01*
G01X2695800Y-665599D02*
G01X2736799Y-624600D01*
G01X2864070Y-497329D02*
G01X3213146Y-148252D01*
G01X787425Y-2466210D02*
G01X1392089Y-1861547D01*
G01X1455147Y-1798489D02*
G01X1495467Y-1758168D01*
G01X1567668Y-1685967D02*
G01X2177667Y-1075968D01*
G01X2299198Y-954437D02*
G01X2442717Y-810918D01*
G01X2641918Y-611717D02*
G01X2682917Y-570718D01*
G01X2857754Y-395882D02*
G01X3160371Y-93264D01*
G01X787425Y-2358447D02*
G01X1333636Y-1812237D01*
G01X1405837Y-1740036D02*
G01X1441586Y-1704287D01*
G01X1513787Y-1632086D02*
G01X2123786Y-1022087D01*
G01X2240437Y-905436D02*
G01X2388836Y-757037D01*
G01X2588037Y-557836D02*
G01X2629036Y-516837D01*
G01X2857754Y-288118D02*
G01X3091134Y-54738D01*
G01X787425Y-2250684D02*
G01X1279754Y-1758355D01*
G01X1351955Y-1686154D02*
G01X1387704Y-1650405D01*
G01X1459905Y-1578204D02*
G01X2069904Y-968205D01*
G01X2186555Y-851554D02*
G01X2334954Y-703155D01*
G01X2534155Y-503954D02*
G01X2575154Y-462955D01*
G01X2857754Y-180355D02*
G01X2999755Y-38354D01*
G01X787425Y-2142921D02*
G01X1225873Y-1704474D01*
G01X1298074Y-1632273D02*
G01X1333823Y-1596524D01*
G01X1406024Y-1524323D02*
G01X2002992Y-927354D01*
G01X2132674Y-797672D02*
G01X2281072Y-649274D01*
G01X2480274Y-450073D02*
G01X2521273Y-409074D01*
G01X2834774Y-95573D02*
G01X2891992Y-38354D01*
G01X787425Y-2035158D02*
G01X1171991Y-1650592D01*
G01X1244854Y-1577729D02*
G01X1279941Y-1542642D01*
G01X1352142Y-1470441D02*
G01X1824476Y-998107D01*
G01X2078003Y-744580D02*
G01X2227191Y-595392D01*
G01X2426392Y-396191D02*
G01X2467391Y-355192D01*
G01X2780892Y-41691D02*
G01X2784229Y-38354D01*
G01X759046Y-1955775D02*
G01X897048Y-1817773D01*
G01X992854Y-1721966D02*
G01X1142746Y-1572074D01*
G01X1308354Y-1406466D02*
G01X1361979Y-1352842D01*
G01X1409142Y-1305678D02*
G01X1718785Y-996036D01*
G01X1978474Y-736346D02*
G01X2173309Y-541511D01*
G01X2372511Y-342310D02*
G01X2392947Y-321874D01*
G01X651283Y-1955775D02*
G01X876146Y-1730911D01*
G01X992854Y-1614203D02*
G01X1142746Y-1464311D01*
G01X1367758Y-1239299D02*
G01X1611022Y-996036D01*
G01X1870711Y-736346D02*
G01X2119428Y-487629D01*
G01X2318629Y-288428D02*
G01X2322339Y-284718D01*
G01X543519Y-1955775D02*
G01X876146Y-1623148D01*
G01X992854Y-1506440D02*
G01X1136047Y-1363247D01*
G01X1256294Y-1243000D02*
G01X1509730Y-989564D01*
G01X1762948Y-736346D02*
G01X2065546Y-433748D01*
G01X2279857Y-219437D02*
G01X2289071Y-210223D01*
G01X435756Y-1955775D02*
G01X876146Y-1515385D01*
G01X992854Y-1398677D02*
G01X1124315Y-1267216D01*
G01X1694854Y-696677D02*
G01X2011665Y-379866D01*
G01X2260363Y-131168D02*
G01X2264277Y-127254D01*
G01X327993Y-1955775D02*
G01X876146Y-1407622D01*
G01X992854Y-1290914D02*
G01X1077446Y-1206321D01*
G01X1708644Y-575124D02*
G01X1957783Y-325985D01*
G01X220230Y-1955775D02*
G01X876146Y-1299859D01*
G01X992854Y-1183151D02*
G01X1191480Y-984524D01*
G01X1230553Y-945452D02*
G01X1245603Y-930402D01*
G01X1347711Y-828294D02*
G01X1396746Y-779259D01*
G01X1701465Y-474539D02*
G01X1860555Y-315450D01*
G01X112467Y-1955775D02*
G01X876146Y-1192096D01*
G01X992854Y-1075388D02*
G01X1081244Y-986998D01*
G01X1239948Y-828294D02*
G01X1348370Y-719872D01*
G01X1680921Y-387320D02*
G01X1800749Y-267493D01*
G01X38354Y-1922125D02*
G01X876146Y-1084333D01*
G01X1132185Y-828294D02*
G01X1294489Y-665990D01*
G01X1627040Y-333439D02*
G01X1637736Y-322743D01*
G01X1772743Y-187736D02*
G01X1782656Y-177822D01*
G01X38354Y-1814362D02*
G01X913997Y-938719D01*
G01X1024422Y-828294D02*
G01X1240607Y-612108D01*
G01X38354Y-1706599D02*
G01X837641Y-907311D01*
G01X920011Y-824941D02*
G01X1186726Y-558227D01*
G01X1521890Y-223062D02*
G01X1527839Y-217113D01*
G01X38354Y-1598835D02*
G01X1132844Y-504345D01*
G01X1501353Y-135837D02*
G01X1598835Y-38354D01*
G01X38354Y-1491072D02*
G01X1078963Y-450464D01*
G01X1443336Y-86090D02*
G01X1491072Y-38354D01*
G01X38354Y-1383309D02*
G01X1025081Y-396582D01*
G01X1259430Y-162233D02*
G01X1305709Y-115955D01*
G01X1311955Y-109709D02*
G01X1383309Y-38354D01*
G01X38354Y-1275546D02*
G01X971199Y-342701D01*
G01X1214035Y-99865D02*
G01X1275546Y-38354D01*
G01X38354Y-1167783D02*
G01X882889Y-323248D01*
G01X1011248Y-194889D02*
G01X1019357Y-186781D01*
G01X1128780Y-77357D02*
G01X1167783Y-38354D01*
G01X38354Y-1060020D02*
G01X806117Y-292257D01*
G01X980257Y-118117D02*
G01X1060020Y-38354D01*
G01X38354Y-952257D02*
G01X667257Y-323354D01*
G01X757354Y-233257D02*
G01X766939Y-223672D01*
G01X911672Y-78939D02*
G01X952257Y-38354D01*
G01X38354Y-844494D02*
G01X559494Y-323354D01*
G01X757354Y-125494D02*
G01X844494Y-38354D01*
G01X38354Y-736731D02*
G01X510646Y-264439D01*
G01X698439Y-76646D02*
G01X736731Y-38354D01*
G01X38354Y-628968D02*
G01X510646Y-156676D01*
G01X590676Y-76646D02*
G01X628968Y-38354D01*
G01X38354Y-521205D02*
G01X521205Y-38354D01*
G01X38354Y-413442D02*
G01X413442Y-38354D01*
G01X38354Y-305679D02*
G01X305679Y-38354D01*
G01X84159Y-152111D02*
G01X152111Y-84159D01*
G01X3260349Y-273980D02*
G01X3026020Y-39651D01*
G01X3261646Y-383040D02*
G01X2916960Y-38354D01*
G01X3261646Y-490803D02*
G01X2809197Y-38354D01*
G01X3261646Y-598566D02*
G01X2857754Y-194674D01*
G01X3261646Y-706329D02*
G01X2857754Y-302437D01*
G01X3261646Y-814092D02*
G01X2857754Y-410200D01*
G01X3261646Y-921855D02*
G01X2863029Y-523238D01*
G01X3261646Y-1029618D02*
G01X3099054Y-867026D01*
G01X3261646Y-1137381D02*
G01X3106213Y-981949D01*
G01X2292742Y-168477D02*
G01X2267535Y-143270D01*
G01X3261646Y-1245144D02*
G01X3052576Y-1036074D01*
G01X2989826Y-973324D02*
G01X2933308Y-916807D01*
G01X3261646Y-1352907D02*
G01X2933954Y-1025215D01*
G01X3261646Y-1460671D02*
G01X2933954Y-1132979D01*
G01X3261646Y-1568434D02*
G01X2933954Y-1240742D01*
G01X3261646Y-1676197D02*
G01X2933954Y-1348505D01*
G01X2781046Y-1195597D02*
G01X1908713Y-323264D01*
G01X1780736Y-195287D02*
G01X1772692Y-187243D01*
G01X1659478Y-74028D02*
G01X1623803Y-38354D01*
G01X3261646Y-1783960D02*
G01X2933954Y-1456268D01*
G01X2781046Y-1303360D02*
G01X1749962Y-272276D01*
G01X1577724Y-100038D02*
G01X1516040Y-38354D01*
G01X3261646Y-1891723D02*
G01X2933954Y-1564031D01*
G01X2781046Y-1411123D02*
G01X1687454Y-317530D01*
G01X1532470Y-162546D02*
G01X1489726Y-119803D01*
G01X1476197Y-106274D02*
G01X1408277Y-38354D01*
G01X3261646Y-1999486D02*
G01X2933954Y-1671794D01*
G01X2781046Y-1518886D02*
G01X2294341Y-1032181D01*
G01X1998506Y-736346D02*
G01X1701465Y-439305D01*
G01X1348372Y-86212D02*
G01X1300514Y-38354D01*
G01X3261646Y-2107249D02*
G01X2933954Y-1779557D01*
G01X2781046Y-1626649D02*
G01X2283742Y-1129345D01*
G01X1890743Y-736346D02*
G01X1701465Y-547068D01*
G01X1290491Y-136094D02*
G01X1192751Y-38354D01*
G01X3261646Y-2215012D02*
G01X2933954Y-1887320D01*
G01X2781046Y-1734412D02*
G01X1973988Y-927354D01*
G01X1782980Y-736346D02*
G01X1694854Y-648220D01*
G01X1124524Y-77890D02*
G01X1084988Y-38354D01*
G01X3261646Y-2322775D02*
G01X2933954Y-1995083D01*
G01X2781046Y-1842175D02*
G01X1903548Y-964677D01*
G01X1053225Y-114354D02*
G01X977225Y-38354D01*
G01X3261646Y-2430538D02*
G01X2933954Y-2102846D01*
G01X2781046Y-1949938D02*
G01X1832039Y-1000931D01*
G01X1019220Y-188113D02*
G01X1009435Y-178327D01*
G01X909673Y-78565D02*
G01X869462Y-38354D01*
G01X3261646Y-2538301D02*
G01X2933954Y-2210609D01*
G01X2781046Y-2057701D02*
G01X1719380Y-996036D01*
G01X820257Y-96912D02*
G01X761699Y-38354D01*
G01X3261646Y-2646064D02*
G01X2933954Y-2318372D01*
G01X2781046Y-2165464D02*
G01X1611617Y-996036D01*
G01X1396746Y-781164D02*
G01X932805Y-317224D01*
G01X772437Y-156856D02*
G01X757354Y-141772D01*
G01X692228Y-76646D02*
G01X653936Y-38354D01*
G01X3261646Y-2753827D02*
G01X2933954Y-2426135D01*
G01X2781046Y-2273227D02*
G01X1461160Y-953341D01*
G01X1336112Y-828294D02*
G01X757354Y-249535D01*
G01X584465Y-76646D02*
G01X546173Y-38354D01*
G01X3261646Y-2861591D02*
G01X2933954Y-2533898D01*
G01X2781046Y-2380990D02*
G01X1407278Y-1007223D01*
G01X1335077Y-935022D02*
G01X1330457Y-930402D01*
G01X1228349Y-828294D02*
G01X723181Y-323125D01*
G01X510875Y-110819D02*
G01X438410Y-38354D01*
G01X3261646Y-2969354D02*
G01X2933954Y-2641662D01*
G01X2831846Y-2539554D02*
G01X2811147Y-2518854D01*
G01X2738946Y-2446653D02*
G01X1353397Y-1061104D01*
G01X1281196Y-988903D02*
G01X1231973Y-939680D01*
G01X1120586Y-828294D02*
G01X615646Y-323354D01*
G01X510646Y-218354D02*
G01X330646Y-38354D01*
G01X3261646Y-3077117D02*
G01X2933954Y-2749425D01*
G01X2831846Y-2647317D02*
G01X2757265Y-2572736D01*
G01X2685064Y-2500535D02*
G01X1299515Y-1114986D01*
G01X1227314Y-1042785D02*
G01X1171527Y-986998D01*
G01X1012823Y-828294D02*
G01X231901Y-47372D01*
G01X3261646Y-3184880D02*
G01X2933954Y-2857188D01*
G01X2831846Y-2755080D02*
G01X2703384Y-2626617D01*
G01X2631183Y-2554416D02*
G01X1401907Y-1325140D01*
G01X1321112Y-1244346D02*
G01X1245634Y-1168868D01*
G01X1173433Y-1096666D02*
G01X1063764Y-986998D01*
G01X882324Y-805558D02*
G01X157397Y-80631D01*
G01X3261646Y-3292643D02*
G01X2916202Y-2947199D01*
G01X2831846Y-2862843D02*
G01X2649502Y-2680499D01*
G01X2572249Y-2603246D02*
G01X1315457Y-1346454D01*
G01X1119478Y-1150475D02*
G01X993714Y-1024711D01*
G01X911189Y-942186D02*
G01X899405Y-930402D01*
G01X819448Y-850445D02*
G01X100140Y-131137D01*
G01X3261646Y-3400406D02*
G01X3247651Y-3386411D01*
G01X3106589Y-3245349D02*
G01X2862321Y-3001081D01*
G01X2787725Y-2926484D02*
G01X2566594Y-2705354D01*
G01X2464486Y-2603246D02*
G01X1652548Y-1791308D01*
G01X1078434Y-1217194D02*
G01X992854Y-1131614D01*
G01X876146Y-1014906D02*
G01X59110Y-197870D01*
G01X3261646Y-3508169D02*
G01X3213941Y-3460464D01*
G01X3013123Y-3259646D02*
G01X2796286Y-3042809D01*
G01X2735691Y-2982214D02*
G01X2458831Y-2705354D01*
G01X2356723Y-2603246D02*
G01X1652553Y-1899076D01*
G01X1136594Y-1383117D02*
G01X992854Y-1239377D01*
G01X876146Y-1122669D02*
G01X38768Y-285291D01*
G01X3261646Y-3615932D02*
G01X3248354Y-3602640D01*
G01X2912366Y-3266652D02*
G01X2351068Y-2705354D01*
G01X2248960Y-2603246D02*
G01X1652553Y-2006839D01*
G01X1550445Y-1904731D02*
G01X1455051Y-1809337D01*
G01X1142746Y-1497032D02*
G01X992854Y-1347140D01*
G01X876146Y-1230432D02*
G01X38354Y-392640D01*
G01X3261646Y-3723695D02*
G01X3248354Y-3710403D01*
G01X3036597Y-3498646D02*
G01X3024305Y-3486354D01*
G01X2851122Y-3313171D02*
G01X2243305Y-2705354D01*
G01X2141197Y-2603246D02*
G01X1652553Y-2114602D01*
G01X1550445Y-2012494D02*
G01X1399645Y-1861694D01*
G01X1142974Y-1605023D02*
G01X992854Y-1454903D01*
G01X876146Y-1338195D02*
G01X38354Y-500403D01*
G01X3261646Y-3831458D02*
G01X3185542Y-3755354D01*
G01X2991646Y-3561458D02*
G01X2957547Y-3527359D01*
G01X2797241Y-3367053D02*
G01X2145145Y-2714957D01*
G01X2072943Y-2642755D02*
G01X1636144Y-2205956D01*
G01X1550445Y-2120257D02*
G01X992854Y-1562666D01*
G01X876146Y-1445958D02*
G01X38354Y-608166D01*
G01X3259067Y-3936643D02*
G01X3077779Y-3755354D01*
G01X2991646Y-3669222D02*
G01X2903666Y-3581241D01*
G01X2743359Y-3420934D02*
G01X2091263Y-2768838D01*
G01X2019062Y-2696637D02*
G01X992854Y-1670429D01*
G01X876146Y-1553721D02*
G01X38354Y-715929D01*
G01X3233236Y-4018574D02*
G01X2849784Y-3635123D01*
G01X2689477Y-3474816D02*
G01X2042199Y-2827537D01*
G01X1960363Y-2745701D02*
G01X997917Y-1783255D01*
G01X876146Y-1661484D02*
G01X38354Y-823692D01*
G01X3188429Y-4081530D02*
G01X2795903Y-3689004D01*
G01X2635596Y-3528697D02*
G01X943156Y-1836257D01*
G01X876146Y-1769247D02*
G01X38354Y-931455D01*
G01X3127573Y-4128438D02*
G01X2742021Y-3742886D01*
G01X2568782Y-3569646D02*
G01X38354Y-1039218D01*
G01X3048487Y-4157114D02*
G01X2680751Y-3789378D01*
G01X2461018Y-3569646D02*
G01X38354Y-1146982D01*
G01X2945255Y-4161646D02*
G01X2579963Y-3796354D01*
G01X2353255Y-3569646D02*
G01X787425Y-2003816D01*
G01X739384Y-1955775D02*
G01X38354Y-1254745D01*
G01X2837492Y-4161646D02*
G01X2472200Y-3796354D01*
G01X2245492Y-3569646D02*
G01X787425Y-2111579D01*
G01X631621Y-1955775D02*
G01X38354Y-1362508D01*
G01X2729729Y-4161646D02*
G01X2364437Y-3796354D01*
G01X2137729Y-3569646D02*
G01X787425Y-2219342D01*
G01X523858Y-1955775D02*
G01X38354Y-1470271D01*
G01X2621966Y-4161646D02*
G01X2256674Y-3796354D01*
G01X2029966Y-3569646D02*
G01X787425Y-2327105D01*
G01X416095Y-1955775D02*
G01X38354Y-1578034D01*
G01X2514203Y-4161646D02*
G01X2148911Y-3796354D01*
G01X1922203Y-3569646D02*
G01X787425Y-2434868D01*
G01X308332Y-1955775D02*
G01X38354Y-1685797D01*
G01X2406440Y-4161646D02*
G01X2041148Y-3796354D01*
G01X1814440Y-3569646D02*
G01X787425Y-2542631D01*
G01X200569Y-1955775D02*
G01X38354Y-1793560D01*
G01X2298677Y-4161646D02*
G01X1933385Y-3796354D01*
G01X1709776Y-3572745D02*
G01X787425Y-2650394D01*
G01X92806Y-1955775D02*
G01X38354Y-1901323D01*
G01X2190914Y-4161646D02*
G01X1825622Y-3796354D01*
G01X1644031Y-3614763D02*
G01X787425Y-2758158D01*
G01X2083151Y-4161646D02*
G01X1930088Y-4008583D01*
G01X1783417Y-3861912D02*
G01X1750456Y-3828951D01*
G01X1590149Y-3668644D02*
G01X787425Y-2865921D01*
G01X1975388Y-4161646D02*
G01X1900096Y-4086354D01*
G01X1705646Y-3891904D02*
G01X1696574Y-3882832D01*
G01X1536267Y-3722526D02*
G01X787425Y-2973684D01*
G01X1867625Y-4161646D02*
G01X1836858Y-4130880D01*
G01X1661120Y-3955141D02*
G01X1643079Y-3937101D01*
G01X1482386Y-3776407D02*
G01X787425Y-3081447D01*
G01X1759862Y-4161646D02*
G01X1708629Y-4110413D01*
G01X1681587Y-4083371D02*
G01X1639919Y-4041704D01*
G01X1428504Y-3830289D02*
G01X787425Y-3189210D01*
G01X1652099Y-4161646D02*
G01X1596663Y-4106211D01*
G01X1394845Y-3904392D02*
G01X787425Y-3296973D01*
G01X1544335Y-4161646D02*
G01X1520479Y-4137790D01*
G01X1370210Y-3987520D02*
G01X787425Y-3404736D01*
G01X1436572Y-4161646D02*
G01X787425Y-3512499D01*
G01X1328809Y-4161646D02*
G01X787425Y-3620262D01*
G01X1221046Y-4161646D02*
G01X787425Y-3728025D01*
G01X1113283Y-4161646D02*
G01X761663Y-3810025D01*
G01X1005520Y-4161646D02*
G01X653899Y-3810025D01*
G01X897757Y-4161646D02*
G01X546136Y-3810025D01*
G01X789994Y-4161646D02*
G01X438373Y-3810025D01*
G01X682231Y-4161646D02*
G01X330610Y-3810025D01*
G01X574468Y-4161646D02*
G01X222847Y-3810025D01*
G01X466705Y-4161646D02*
G01X115084Y-3810025D01*
G01X358942Y-4161646D02*
G01X38354Y-3841058D01*
G01X245423Y-4155891D02*
G01X44109Y-3954577D01*
G01X1792000Y-4000000D02*
G01X1666092Y-4000000D01*
G01X1792000Y-4000000D02*
G01X1917908Y-4000000D01*
G01X1792000Y-4000000D02*
G01X1792000Y-3874092D01*
G01X1792000Y-4000000D02*
G01X1792000Y-4125908D01*
G01X634000Y-200000D02*
G01X523092Y-200000D01*
G01X634000Y-200000D02*
G01X744908Y-200000D01*
G01X634000Y-200000D02*
G01X634000Y-89092D01*
G01X634000Y-200000D02*
G01X634000Y-310908D01*
G01X3120000Y-3627000D02*
G01X3120000Y-3742908D01*
G01X3120000Y-3627000D02*
G01X3004092Y-3627000D01*
G01X3120000Y-3627000D02*
G01X3235908Y-3627000D01*
G04 Copper End*

G04 Tear Start*
G36*
G01X1928144Y-4075000D02*
G01X1928144Y-3925000D01*
G01X1923390Y-3925145D01*
G01X1918956Y-3925553D01*
G01X1914814Y-3926180D01*
G01X1910936Y-3926984D01*
G01X1906132Y-3928255D01*
G01X1895551Y-3931805D01*
G01X1889863Y-3933681D01*
G01X1887118Y-3934412D01*
G01X1885308Y-3934793D01*
G01X1883502Y-3935074D01*
G01X1881695Y-3935243D01*
G01X1879877Y-3935287D01*
G01X1878040Y-3935193D01*
G01X1876178Y-3934949D01*
G01X1874280Y-3934542D01*
G01X1872340Y-3933958D01*
G01X1870350Y-3933186D01*
G01X1868302Y-3932213D01*
G01X1866186Y-3931025D01*
G01X1863997Y-3929611D01*
G01X1861724Y-3927957D01*
G01X1858144Y-3925000D01*
G01Y-4075000D01*
G01X1861724Y-4072042D01*
G01X1863997Y-4070389D01*
G01X1866186Y-4068975D01*
G01X1868302Y-4067787D01*
G01X1870350Y-4066814D01*
G01X1872340Y-4066042D01*
G01X1874280Y-4065458D01*
G01X1876178Y-4065051D01*
G01X1878040Y-4064806D01*
G01X1879877Y-4064713D01*
G01X1881695Y-4064757D01*
G01X1883502Y-4064926D01*
G01X1885308Y-4065207D01*
G01X1888028Y-4065812D01*
G01X1891722Y-4066893D01*
G01X1902768Y-4070696D01*
G01X1908485Y-4072404D01*
G01X1913493Y-4073569D01*
G01X1917544Y-4074260D01*
G01X1921878Y-4074745D01*
G01X1926522Y-4074983D01*
G01X1928144Y-4075000D01*
G37*
G36*
G01X1612851Y-3912315D02*
G01X1506785Y-3806249D01*
G01X1505673Y-3807450D01*
G01X1504673Y-3808709D01*
G01X1503784Y-3810025D01*
G01X1503000Y-3811395D01*
G01X1502318Y-3812817D01*
G01X1501734Y-3814287D01*
G01X1501244Y-3815804D01*
G01X1500844Y-3817365D01*
G01X1500530Y-3818968D01*
G01X1500145Y-3822290D01*
G01X1500058Y-3825749D01*
G01X1500238Y-3829326D01*
G01X1500652Y-3833002D01*
G01X1501648Y-3838659D01*
G01X1503508Y-3846366D01*
G01X1510363Y-3869132D01*
G01X1512241Y-3876084D01*
G01X1513256Y-3880926D01*
G01X1513686Y-3883941D01*
G01X1513884Y-3886763D01*
G01X1513885Y-3888096D01*
G01X1513817Y-3889372D01*
G01X1513675Y-3890591D01*
G01X1513455Y-3891750D01*
G01X1513153Y-3892845D01*
G01X1512766Y-3893875D01*
G01X1512289Y-3894837D01*
G01X1511719Y-3895729D01*
G01X1511051Y-3896549D01*
G01X1510282Y-3897293D01*
G01X1509408Y-3897960D01*
G01X1508425Y-3898546D01*
G01X1507329Y-3899051D01*
G01X1506116Y-3899470D01*
G01X1504783Y-3899803D01*
G01X1503324Y-3900046D01*
G01X1501738Y-3900196D01*
G01X1607804Y-4006262D01*
G01X1607921Y-4001484D01*
G01X1607593Y-3993223D01*
G01X1604798Y-3960159D01*
G01X1604248Y-3946479D01*
G01X1604357Y-3939931D01*
G01X1604809Y-3933707D01*
G01X1605670Y-3927904D01*
G01X1606274Y-3925191D01*
G01X1607005Y-3922620D01*
G01X1607872Y-3920202D01*
G01X1608881Y-3917951D01*
G01X1610042Y-3915878D01*
G01X1611363Y-3913995D01*
G01X1612851Y-3912315D01*
G37*
G36*
G01X967197Y-284458D02*
G01X985158Y-266498D01*
G01X982219Y-263366D01*
G01X979707Y-260286D01*
G01X978254Y-258257D01*
G01X976968Y-256243D01*
G01X975841Y-254239D01*
G01X974863Y-252244D01*
G01X974025Y-250252D01*
G01X973320Y-248262D01*
G01X972736Y-246268D01*
G01X972267Y-244269D01*
G01X971755Y-241251D01*
G01X971450Y-238199D01*
G01X971319Y-235101D01*
G01X971410Y-229807D01*
G01X972620Y-213675D01*
G01X973043Y-204609D01*
G01X972980Y-197612D01*
G01X972833Y-194677D01*
G01X882677Y-284833D01*
G01X887182Y-284887D01*
G01X892152Y-284567D01*
G01X903181Y-283118D01*
G01X930457Y-278758D01*
G01X939375Y-277901D01*
G01X945046Y-277722D01*
G01X950407Y-277948D01*
G01X952947Y-278237D01*
G01X955380Y-278657D01*
G01X957697Y-279217D01*
G01X959888Y-279926D01*
G01X961943Y-280795D01*
G01X963853Y-281834D01*
G01X965608Y-283052D01*
G01X967197Y-284458D01*
G37*
G36*
G01X1237226Y-268430D02*
G01X1255187Y-250469D01*
G01X1251451Y-246475D01*
G01X1247747Y-242001D01*
G01X1244141Y-237124D01*
G01X1240699Y-231924D01*
G01X1237486Y-226476D01*
G01X1234571Y-220859D01*
G01X1232018Y-215149D01*
G01X1229894Y-209425D01*
G01X1228749Y-205639D01*
G01X1227845Y-201903D01*
G01X1227199Y-198242D01*
G01X1226833Y-194677D01*
G01X1136677Y-284833D01*
G01X1139647Y-284896D01*
G01X1142704Y-284729D01*
G01X1145840Y-284352D01*
G01X1150676Y-283434D01*
G01X1155646Y-282152D01*
G01X1162440Y-279988D01*
G01X1185140Y-271132D01*
G01X1197226Y-266555D01*
G01X1203924Y-264423D01*
G01X1208802Y-263172D01*
G01X1211970Y-262540D01*
G01X1215062Y-262093D01*
G01X1218072Y-261848D01*
G01X1220990Y-261825D01*
G01X1223810Y-262045D01*
G01X1225181Y-262251D01*
G01X1226524Y-262525D01*
G01X1227840Y-262869D01*
G01X1229125Y-263285D01*
G01X1230381Y-263777D01*
G01X1231605Y-264345D01*
G01X1232797Y-264993D01*
G01X1233956Y-265723D01*
G01X1235082Y-266538D01*
G01X1236172Y-267439D01*
G01X1237226Y-268430D01*
G37*
G36*
G01X1481547Y-278108D02*
G01X1499508Y-260148D01*
G01X1496401Y-256772D01*
G01X1493692Y-253280D01*
G01X1491351Y-249677D01*
G01X1489349Y-245967D01*
G01X1487655Y-242154D01*
G01X1486240Y-238242D01*
G01X1485073Y-234237D01*
G01X1483724Y-228062D01*
G01X1482767Y-221699D01*
G01X1481767Y-210721D01*
G01X1480833Y-194677D01*
G01X1390677Y-284833D01*
G01X1393176Y-284905D01*
G01X1395785Y-284824D01*
G01X1401299Y-284257D01*
G01X1407149Y-283238D01*
G01X1419573Y-280282D01*
G01X1442162Y-274408D01*
G01X1451554Y-272562D01*
G01X1457542Y-271824D01*
G01X1463229Y-271608D01*
G01X1465937Y-271728D01*
G01X1468543Y-272020D01*
G01X1471039Y-272496D01*
G01X1473415Y-273169D01*
G01X1475663Y-274053D01*
G01X1477774Y-275162D01*
G01X1479738Y-276509D01*
G01X1481547Y-278108D01*
G37*
G36*
G01X1723858Y-110202D02*
G01X1705898Y-92242D01*
G01X1703049Y-94871D01*
G01X1699949Y-97330D01*
G01X1696623Y-99623D01*
G01X1693098Y-101750D01*
G01X1689399Y-103715D01*
G01X1683582Y-106361D01*
G01X1677520Y-108652D01*
G01X1671302Y-110595D01*
G01X1665013Y-112197D01*
G01X1656673Y-113816D01*
G01X1648572Y-114858D01*
G01X1644677Y-115167D01*
G01X1734833Y-205323D01*
G01X1734901Y-202617D01*
G01X1734782Y-199811D01*
G01X1734493Y-196914D01*
G01X1733774Y-192414D01*
G01X1732368Y-186170D01*
G01X1729560Y-176417D01*
G01X1721496Y-151357D01*
G01X1719344Y-143237D01*
G01X1718365Y-138516D01*
G01X1717687Y-133942D01*
G01X1717429Y-130989D01*
G01X1717344Y-128122D01*
G01X1717449Y-125349D01*
G01X1717760Y-122679D01*
G01X1718292Y-120121D01*
G01X1718646Y-118885D01*
G01X1719061Y-117681D01*
G01X1719540Y-116509D01*
G01X1720085Y-115370D01*
G01X1720697Y-114264D01*
G01X1721378Y-113194D01*
G01X1722130Y-112159D01*
G01X1722956Y-111162D01*
G01X1723858Y-110202D01*
G37*
G36*
G01X1976847Y-290808D02*
G01X1994808Y-272848D01*
G01X1991299Y-269104D01*
G01X1989310Y-266706D01*
G01X1987584Y-264376D01*
G01X1986108Y-262107D01*
G01X1984868Y-259891D01*
G01X1983848Y-257722D01*
G01X1983035Y-255591D01*
G01X1982416Y-253491D01*
G01X1981975Y-251415D01*
G01X1981699Y-249355D01*
G01X1981574Y-247303D01*
G01X1981585Y-245252D01*
G01X1981718Y-243194D01*
G01X1982117Y-240079D01*
G01X1982944Y-235833D01*
G01X1986384Y-221883D01*
G01X1987716Y-215255D01*
G01X1988516Y-209489D01*
G01X1988887Y-204854D01*
G01X1989008Y-199925D01*
G01X1988833Y-194677D01*
G01X1898677Y-284833D01*
G01X1903925Y-285009D01*
G01X1908854Y-284887D01*
G01X1913488Y-284516D01*
G01X1919255Y-283716D01*
G01X1925883Y-282384D01*
G01X1939833Y-278944D01*
G01X1944079Y-278117D01*
G01X1947194Y-277718D01*
G01X1949252Y-277585D01*
G01X1951303Y-277574D01*
G01X1953354Y-277699D01*
G01X1955415Y-277975D01*
G01X1957491Y-278416D01*
G01X1959591Y-279036D01*
G01X1961722Y-279848D01*
G01X1963891Y-280868D01*
G01X1966107Y-282108D01*
G01X1968376Y-283584D01*
G01X1970706Y-285310D01*
G01X1973104Y-287299D01*
G01X1976847Y-290808D01*
G37*
G36*
G01X2230847Y-290808D02*
G01X2248808Y-272848D01*
G01X2245299Y-269104D01*
G01X2243310Y-266706D01*
G01X2241584Y-264376D01*
G01X2240108Y-262107D01*
G01X2238868Y-259891D01*
G01X2237848Y-257722D01*
G01X2237035Y-255591D01*
G01X2236416Y-253491D01*
G01X2235975Y-251415D01*
G01X2235699Y-249355D01*
G01X2235574Y-247303D01*
G01X2235585Y-245252D01*
G01X2235718Y-243194D01*
G01X2236117Y-240079D01*
G01X2236944Y-235833D01*
G01X2240384Y-221883D01*
G01X2241716Y-215255D01*
G01X2242516Y-209489D01*
G01X2242887Y-204854D01*
G01X2243008Y-199925D01*
G01X2242833Y-194677D01*
G01X2152677Y-284833D01*
G01X2157925Y-285009D01*
G01X2162854Y-284887D01*
G01X2167488Y-284516D01*
G01X2173255Y-283716D01*
G01X2179883Y-282384D01*
G01X2193833Y-278944D01*
G01X2198079Y-278117D01*
G01X2201194Y-277718D01*
G01X2203252Y-277585D01*
G01X2205303Y-277574D01*
G01X2207354Y-277699D01*
G01X2209415Y-277975D01*
G01X2211491Y-278416D01*
G01X2213591Y-279036D01*
G01X2215722Y-279848D01*
G01X2217891Y-280868D01*
G01X2220107Y-282108D01*
G01X2222376Y-283584D01*
G01X2224706Y-285310D01*
G01X2227104Y-287299D01*
G01X2230847Y-290808D01*
G37*
G36*
G01X2471048Y-304608D02*
G01X2489008Y-286648D01*
G01X2487376Y-284800D01*
G01X2486006Y-282799D01*
G01X2484885Y-280654D01*
G01X2483998Y-278373D01*
G01X2483331Y-275965D01*
G01X2482870Y-273438D01*
G01X2482601Y-270802D01*
G01X2482509Y-268064D01*
G01X2482581Y-265234D01*
G01X2483159Y-259333D01*
G01X2484221Y-253166D01*
G01X2486475Y-243572D01*
G01X2493663Y-217625D01*
G01X2495712Y-208429D01*
G01X2496575Y-202649D01*
G01X2496813Y-199890D01*
G01X2496904Y-197229D01*
G01X2496833Y-194677D01*
G01X2406677Y-284833D01*
G01X2426583Y-286422D01*
G01X2435183Y-287659D01*
G01X2441463Y-288960D01*
G01X2445550Y-290047D01*
G01X2449546Y-291337D01*
G01X2453441Y-292853D01*
G01X2457224Y-294617D01*
G01X2460887Y-296652D01*
G01X2464418Y-298980D01*
G01X2467808Y-301625D01*
G01X2471048Y-304608D01*
G37*
G36*
G01X2870901Y-3770033D02*
G01X2976967Y-3876099D01*
G02X3210000Y-3717000I538434J-538434D01*
G01X3030000Y-3537000D01*
G02X2870901Y-3770033I-697533J305402D01*
G37*
G36*
G01X2243127Y-1051266D02*
G01X2225166Y-1069227D01*
G01X2229460Y-1073145D01*
G01X2230680Y-1074368D01*
G01X2231727Y-1075669D01*
G01X2232563Y-1077120D01*
G01X2233147Y-1078790D01*
G01X2233440Y-1080752D01*
G01X2254653Y-1059539D01*
G01X2252690Y-1059247D01*
G01X2251020Y-1058663D01*
G01X2249570Y-1057827D01*
G01X2248268Y-1056779D01*
G01X2247045Y-1055560D01*
G01X2243127Y-1051266D01*
G37*
G36*
G01X2243127Y-962366D02*
G01X2225166Y-980327D01*
G01X2229460Y-984245D01*
G01X2230680Y-985468D01*
G01X2231727Y-986769D01*
G01X2232563Y-988220D01*
G01X2233147Y-989890D01*
G01X2233440Y-991852D01*
G01X2254653Y-970639D01*
G01X2252690Y-970347D01*
G01X2251020Y-969763D01*
G01X2249570Y-968927D01*
G01X2248268Y-967879D01*
G01X2247045Y-966660D01*
G01X2243127Y-962366D01*
G37*
G36*
G01X883068Y-888328D02*
G01X901028Y-870368D01*
G01X899352Y-868606D01*
G01X897867Y-866708D01*
G01X896771Y-864635D01*
G01X896261Y-862348D01*
G01X875048Y-883561D01*
G01X877335Y-884071D01*
G01X879408Y-885167D01*
G01X881306Y-886652D01*
G01X883068Y-888328D01*
G37*
G36*
G01X1146073Y-1234734D02*
G01X1164034Y-1216773D01*
G01X1159740Y-1212855D01*
G01X1158521Y-1211632D01*
G01X1157473Y-1210331D01*
G01X1156638Y-1208880D01*
G01X1156054Y-1207210D01*
G01X1155761Y-1205248D01*
G01X1134548Y-1226461D01*
G01X1136510Y-1226753D01*
G01X1138180Y-1227337D01*
G01X1139631Y-1228173D01*
G01X1140932Y-1229221D01*
G01X1142155Y-1230440D01*
G01X1146073Y-1234734D01*
G37*
G36*
G01X1164034Y-1196227D02*
G01X1146073Y-1178266D01*
G01X1142155Y-1182560D01*
G01X1140932Y-1183779D01*
G01X1139631Y-1184827D01*
G01X1138180Y-1185663D01*
G01X1136510Y-1186247D01*
G01X1134548Y-1186539D01*
G01X1155761Y-1207752D01*
G01X1156054Y-1205790D01*
G01X1156638Y-1204120D01*
G01X1157473Y-1202669D01*
G01X1158521Y-1201368D01*
G01X1159740Y-1200145D01*
G01X1164034Y-1196227D01*
G37*
G36*
G01X1821389Y-932282D02*
G01X1821389Y-957682D01*
G01X1827195Y-957416D01*
G01X1828923Y-957419D01*
G01X1830584Y-957598D01*
G01X1832200Y-958033D01*
G01X1833795Y-958801D01*
G01X1835389Y-959982D01*
G01Y-929982D01*
G01X1833795Y-931162D01*
G01X1832200Y-931930D01*
G01X1830584Y-932365D01*
G01X1828923Y-932544D01*
G01X1827195Y-932547D01*
G01X1821389Y-932282D01*
G37*
G36*
G01X1615566Y-797673D02*
G01X1633527Y-815634D01*
G01X1637445Y-811340D01*
G01X1638668Y-810121D01*
G01X1639970Y-809073D01*
G01X1641420Y-808237D01*
G01X1643090Y-807653D01*
G01X1645053Y-807361D01*
G01X1623840Y-786148D01*
G01X1623547Y-788110D01*
G01X1622963Y-789780D01*
G01X1622127Y-791231D01*
G01X1621080Y-792532D01*
G01X1619860Y-793755D01*
G01X1615566Y-797673D01*
G37*
G36*
G01X1656500Y-760171D02*
G01X1631100Y-760171D01*
G01X1631366Y-765978D01*
G01X1631363Y-767705D01*
G01X1631183Y-769366D01*
G01X1630749Y-770982D01*
G01X1629981Y-772577D01*
G01X1628800Y-774171D01*
G01X1658800D01*
G01X1657619Y-772577D01*
G01X1656851Y-770982D01*
G01X1656417Y-769366D01*
G01X1656237Y-767705D01*
G01X1656234Y-765978D01*
G01X1656500Y-760171D01*
G37*
G36*
G01X1671029Y-800100D02*
G01X1671029Y-774700D01*
G01X1665222Y-774966D01*
G01X1663495Y-774963D01*
G01X1661834Y-774783D01*
G01X1660218Y-774349D01*
G01X1658623Y-773581D01*
G01X1657029Y-772400D01*
G01Y-802400D01*
G01X1658623Y-801219D01*
G01X1660218Y-800451D01*
G01X1661834Y-800017D01*
G01X1663495Y-799837D01*
G01X1665222Y-799834D01*
G01X1671029Y-800100D01*
G37*
G36*
G01X1671029Y-889000D02*
G01X1671029Y-863600D01*
G01X1665222Y-863866D01*
G01X1663495Y-863863D01*
G01X1661834Y-863683D01*
G01X1660218Y-863249D01*
G01X1658623Y-862481D01*
G01X1657029Y-861300D01*
G01Y-891300D01*
G01X1658623Y-890119D01*
G01X1660218Y-889351D01*
G01X1661834Y-888917D01*
G01X1663495Y-888737D01*
G01X1665222Y-888734D01*
G01X1671029Y-889000D01*
G37*
G36*
G01X1574611Y-957682D02*
G01X1574611Y-932282D01*
G01X1568804Y-932547D01*
G01X1567076Y-932544D01*
G01X1565416Y-932365D01*
G01X1563799Y-931930D01*
G01X1562205Y-931162D01*
G01X1560611Y-929982D01*
G01Y-959982D01*
G01X1562205Y-958801D01*
G01X1563799Y-958033D01*
G01X1565416Y-957598D01*
G01X1567076Y-957419D01*
G01X1568804Y-957416D01*
G01X1574611Y-957682D01*
G37*
G36*
G01X1324471Y-1282700D02*
G01X1324471Y-1308100D01*
G01X1330278Y-1307834D01*
G01X1332005Y-1307837D01*
G01X1333666Y-1308017D01*
G01X1335283Y-1308451D01*
G01X1336877Y-1309219D01*
G01X1338471Y-1310400D01*
G01Y-1280400D01*
G01X1336877Y-1281581D01*
G01X1335283Y-1282349D01*
G01X1333666Y-1282783D01*
G01X1332005Y-1282963D01*
G01X1330278Y-1282966D01*
G01X1324471Y-1282700D01*
G37*
G36*
G01X1460500Y-785571D02*
G01X1435100Y-785571D01*
G01X1435366Y-791378D01*
G01X1435363Y-793105D01*
G01X1435183Y-794766D01*
G01X1434749Y-796382D01*
G01X1433981Y-797977D01*
G01X1432800Y-799571D01*
G01X1462800D01*
G01X1461619Y-797977D01*
G01X1460851Y-796382D01*
G01X1460417Y-794766D01*
G01X1460237Y-793105D01*
G01X1460234Y-791378D01*
G01X1460500Y-785571D01*
G37*
G36*
G01X1562605Y-557888D02*
G01X1544645Y-575848D01*
G01X1545808Y-576847D01*
G01X1550616Y-580256D01*
G01X1552189Y-581501D01*
G01X1553510Y-582788D01*
G01X1554441Y-584108D01*
G01X1554839Y-585452D01*
G01X1576052Y-564239D01*
G01X1574405Y-564012D01*
G01X1572615Y-563550D01*
G01X1570750Y-562890D01*
G01X1568875Y-562068D01*
G01X1567058Y-561120D01*
G01X1565363Y-560083D01*
G01X1563856Y-558994D01*
G01X1562605Y-557888D01*
G37*
G36*
G01X1631100Y-611429D02*
G01X1656500Y-611429D01*
G01X1656713Y-608986D01*
G01X1657316Y-606969D01*
G01X1658253Y-605263D01*
G01X1659469Y-603755D01*
G01X1662512Y-600879D01*
G01X1664228Y-599282D01*
G01X1666000Y-597429D01*
G01X1636000D01*
G01X1636718Y-598882D01*
G01X1636599Y-600476D01*
G01X1635871Y-602181D01*
G01X1633503Y-605817D01*
G01X1632321Y-607694D01*
G01X1631443Y-609574D01*
G01X1631100Y-611429D01*
G37*
G36*
G01X1663111Y-556971D02*
G01X1637711Y-556971D01*
G01X1637801Y-559119D01*
G01X1638222Y-562858D01*
G01X1638351Y-564537D01*
G01X1638294Y-566144D01*
G01X1637950Y-567724D01*
G01X1637219Y-569319D01*
G01X1636000Y-570971D01*
G01X1666000D01*
G01X1664857Y-569435D01*
G01X1664052Y-567841D01*
G01X1663527Y-566188D01*
G01X1663226Y-564474D01*
G01X1663090Y-562697D01*
G01X1663111Y-556971D01*
G37*
G36*
G01X2828584Y-2980577D02*
G01X2810623Y-2962616D01*
G01X2809522Y-2963626D01*
G01X2808473Y-2964408D01*
G01X2807464Y-2964987D01*
G01X2806483Y-2965385D01*
G01X2805520Y-2965627D01*
G01X2804562Y-2965733D01*
G01X2803597Y-2965730D01*
G01X2802616Y-2965638D01*
G01X2799450Y-2965071D01*
G01X2797041Y-2964680D01*
G01X2795712Y-2964551D01*
G01X2794284Y-2964496D01*
G01X2792748Y-2964539D01*
G01X2813961Y-2985752D01*
G01X2814530Y-2984141D01*
G01X2815852Y-2983209D01*
G01X2817730Y-2982755D01*
G01X2822370Y-2982471D01*
G01X2824738Y-2982237D01*
G01X2826874Y-2981673D01*
G01X2828584Y-2980577D01*
G37*
G36*
G01X3060700Y-950671D02*
G01X3035300Y-950671D01*
G01X3035566Y-956478D01*
G01X3035563Y-958205D01*
G01X3035383Y-959866D01*
G01X3034949Y-961482D01*
G01X3034181Y-963077D01*
G01X3033000Y-964671D01*
G01X3063000D01*
G01X3061819Y-963077D01*
G01X3061051Y-961482D01*
G01X3060617Y-959866D01*
G01X3060437Y-958205D01*
G01X3060434Y-956478D01*
G01X3060700Y-950671D01*
G37*
G36*
G01X2819400Y-480771D02*
G01X2794000Y-480771D01*
G01X2794266Y-486578D01*
G01X2794263Y-488305D01*
G01X2794083Y-489966D01*
G01X2793649Y-491582D01*
G01X2792881Y-493177D01*
G01X2791700Y-494771D01*
G01X2821700D01*
G01X2820519Y-493177D01*
G01X2819751Y-491582D01*
G01X2819317Y-489966D01*
G01X2819137Y-488305D01*
G01X2819134Y-486578D01*
G01X2819400Y-480771D01*
G37*
G36*
G01X1386727Y-1775166D02*
G01X1368766Y-1793127D01*
G01X1373060Y-1797045D01*
G01X1374279Y-1798268D01*
G01X1375327Y-1799569D01*
G01X1376163Y-1801020D01*
G01X1376747Y-1802690D01*
G01X1377039Y-1804652D01*
G01X1398252Y-1783439D01*
G01X1396290Y-1783147D01*
G01X1394620Y-1782563D01*
G01X1393169Y-1781727D01*
G01X1391868Y-1780679D01*
G01X1390645Y-1779460D01*
G01X1386727Y-1775166D01*
G37*
G36*
G01X1181100Y-1398829D02*
G01X1206500Y-1398829D01*
G01X1206234Y-1393022D01*
G01X1206237Y-1391295D01*
G01X1206417Y-1389634D01*
G01X1206851Y-1388018D01*
G01X1207619Y-1386423D01*
G01X1208800Y-1384829D01*
G01X1178800D01*
G01X1179981Y-1386423D01*
G01X1180749Y-1388018D01*
G01X1181183Y-1389634D01*
G01X1181363Y-1391295D01*
G01X1181366Y-1393022D01*
G01X1181100Y-1398829D01*
G37*
G36*
G01X1614199Y-2131771D02*
G01X1588799Y-2131771D01*
G01X1589064Y-2137578D01*
G01X1589062Y-2139305D01*
G01X1588882Y-2140966D01*
G01X1588447Y-2142582D01*
G01X1587679Y-2144177D01*
G01X1586499Y-2145771D01*
G01X1616499D01*
G01X1615318Y-2144177D01*
G01X1614550Y-2142582D01*
G01X1614115Y-2140966D01*
G01X1613936Y-2139305D01*
G01X1613933Y-2137578D01*
G01X1614199Y-2131771D01*
G37*
G36*
G01X1614199Y-2131771D02*
G01X1588799Y-2131771D01*
G01X1589064Y-2137578D01*
G01X1589062Y-2139305D01*
G01X1588882Y-2140966D01*
G01X1588447Y-2142582D01*
G01X1587679Y-2144177D01*
G01X1586499Y-2145771D01*
G01X1616499D01*
G01X1615318Y-2144177D01*
G01X1614550Y-2142582D01*
G01X1614115Y-2140966D01*
G01X1613936Y-2139305D01*
G01X1613933Y-2137578D01*
G01X1614199Y-2131771D01*
G37*
G36*
G01X2034834Y-2771027D02*
G01X2016873Y-2753066D01*
G01X2012955Y-2757360D01*
G01X2011732Y-2758579D01*
G01X2010431Y-2759627D01*
G01X2008980Y-2760463D01*
G01X2007310Y-2761047D01*
G01X2005348Y-2761339D01*
G01X2026561Y-2782552D01*
G01X2026853Y-2780590D01*
G01X2027437Y-2778920D01*
G01X2028273Y-2777469D01*
G01X2029321Y-2776168D01*
G01X2030540Y-2774945D01*
G01X2034834Y-2771027D01*
G37*
G36*
G01X1264341Y-1317080D02*
G01X1263163Y-1315770D01*
G01X1262100Y-1314318D01*
G01X1261236Y-1312823D01*
G01X1260654Y-1311382D01*
G01X1260436Y-1310092D01*
G01X1260666Y-1309050D01*
G01X1261426Y-1308354D01*
G01X1262800Y-1308100D01*
G01Y-1282700D01*
G01X1259592Y-1282567D01*
G01X1256153Y-1282179D01*
G01X1252524Y-1281552D01*
G01X1246814Y-1280203D01*
G01X1240908Y-1278414D01*
G01X1234943Y-1276243D01*
G01X1229060Y-1273745D01*
G01X1223395Y-1270981D01*
G01X1218088Y-1268005D01*
G01X1213278Y-1264877D01*
G01X1210415Y-1262735D01*
G01X1207875Y-1260567D01*
G01X1206740Y-1259479D01*
G01X1264341Y-1317080D01*
G37*
G36*
G01X1444992Y-915269D02*
G01X1447354Y-913095D01*
G01X1450061Y-910937D01*
G01X1453070Y-908814D01*
G01X1458061Y-905731D01*
G01X1463503Y-902819D01*
G01X1469256Y-900137D01*
G01X1475182Y-897742D01*
G01X1481142Y-895692D01*
G01X1486999Y-894043D01*
G01X1492612Y-892854D01*
G01X1496151Y-892344D01*
G01X1499480Y-892082D01*
G01X1501052Y-892048D01*
G01X1419592D01*
G01X1421352Y-892142D01*
G01X1423129Y-892417D01*
G01X1424797Y-892863D01*
G01X1426228Y-893470D01*
G01X1427294Y-894228D01*
G01X1427869Y-895127D01*
G01X1427823Y-896157D01*
G01X1427031Y-897308D01*
G01X1444992Y-915269D01*
G37*
G04 Tear End*

G04 Pad Start*
G54D11*
G01X1792000Y-4000000D03*
G01X1508000Y-4000000D03*
G54D12*
G01X634000Y-200000D03*
G54D13*
G01X888000Y-200000D03*
G01X1142000Y-200000D03*
G01X1396000Y-200000D03*
G01X1650000Y-200000D03*
G01X1904000Y-200000D03*
G01X2158000Y-200000D03*
G01X2412000Y-200000D03*
G01X2666000Y-200000D03*
G54D14*
G01X3120000Y-3373000D03*
G54D15*
G01X3120000Y-3627000D03*
G04 Pad End*

G04 Via Start*
G54D16*
G01X685800Y-1485900D03*
G01X736600Y-1422400D03*
G01X800100Y-1485900D03*
G01X2253400Y-1079500D03*
G01X2253400Y-990600D03*
G01X876300Y-863600D03*
G01X1135800Y-1206500D03*
G01X1085000Y-1028700D03*
G01X970700Y-952500D03*
G01X1632935Y-1222770D03*
G01X1848618Y-944982D03*
G01X1174672Y-928644D03*
G01X1643800Y-787400D03*
G01X1643800Y-876300D03*
G01X1547382Y-944982D03*
G01X1351700Y-1295400D03*
G01X1447800Y-812800D03*
G01X1574800Y-584200D03*
G01X1651000Y-584200D03*
G54D18*
G01X1508000Y-4000000D03*
G01X1792000Y-4000000D03*
G54D16*
G01X1816100Y-1536700D03*
G01X1931974Y-1536700D03*
G01X1879600Y-1485900D03*
G01X2794000Y-2984500D03*
G01X3048000Y-977900D03*
G54D19*
G01X1016000Y-3746500D03*
G01X1119162Y-3746500D03*
G01X901700Y-3746500D03*
G01X901700Y-3632200D03*
G01X1117522Y-3635872D03*
G01X1015818Y-3635872D03*
G01X1015818Y-3521044D03*
G01X1122443Y-3521044D03*
G01X901700Y-3517900D03*
G01X1016000Y-3848100D03*
G01X1121076Y-3848100D03*
G01X901700Y-3848100D03*
G01X1016000Y-3200400D03*
G01X1016000Y-3094815D03*
G01X1016000Y-2992017D03*
G01X901700Y-2997200D03*
G01X1016000Y-2882900D03*
G01X901700Y-2882900D03*
G01X1016000Y-2768600D03*
G01X901700Y-2768600D03*
G01X1016000Y-2667000D03*
G01X901700Y-2667000D03*
G01X1016000Y-2552700D03*
G01X901700Y-2552700D03*
G01X901700Y-2451100D03*
G01X1016592Y-2447110D03*
G01X1016000Y-2336800D03*
G01X901700Y-2336800D03*
G01X1016000Y-2235200D03*
G01X901700Y-2235200D03*
G01X1016000Y-2120900D03*
G01X901700Y-2120900D03*
G01X1016000Y-2019300D03*
G01X901700Y-3098800D03*
G01X901700Y-3202698D03*
G01X901700Y-2019300D03*
G54D16*
G01X1401475Y-1022770D03*
G01X939800Y-1778000D03*
G01X2806700Y-508000D03*
G01X2527300Y-1587500D03*
G01X2463800Y-1638300D03*
G01X2574330Y-1638300D03*
G01X2146300Y-673100D03*
G01X2095500Y-736600D03*
G01X2199155Y-736600D03*
G01X2153208Y-1204714D03*
G01X2679700Y-1206500D03*
G01X1397000Y-1803400D03*
G01X1193800Y-1371600D03*
G01X1601499Y-2159000D03*
G01X1601499Y-2159000D03*
G01X2006600Y-2781300D03*
G04 Via End*

G04 Track Start*
G54D10*
G01X1135800Y-1206500D02*
G01X1224700Y-1295400D01*
G01X2050200Y-787400D02*
G01X2253400Y-990600D01*
G01X2050200Y-876300D02*
G01X2253400Y-1079500D01*
G01X1643800Y-876300D02*
G01X2050200Y-876300D01*
G01X1848618Y-944982D02*
G01X1547382Y-944982D01*
G54D16*
G01X1174672Y-928644D02*
G01X994557Y-928644D01*
G01X970700Y-952500D01*
G54D10*
G01X1643800Y-787400D02*
G01X2050200Y-787400D01*
G01X1643800Y-787400D02*
G01X1643800Y-585632D01*
G01X1651000Y-584200D02*
G01X1649568Y-585632D01*
G01X1643800D01*
G01X2832100Y-2425700D02*
G01X2603500Y-2654300D01*
G01X2882900Y-2908300D02*
G01X2806700Y-2984500D01*
G01X2794000D01*
G54D20*
G01X2747000Y-4000000D02*
G01X3120000Y-3627000D01*
G01X1792000Y-4000000D02*
G01X2747000Y-4000000D01*
G01X2641600Y-3683000D02*
G01X2951600Y-3373000D01*
G01X3120000D01*
G01X1508000Y-4000000D02*
G01X1508000Y-3911100D01*
G01X1736100Y-3683000D01*
G01X2641600D01*
G54D10*
G01X1224700Y-1295400D02*
G01X1351700Y-1295400D01*
G54D16*
G01X970700Y-965200D02*
G01X970700Y-952500D01*
G01X934500Y-1001400D02*
G01X970700Y-965200D01*
G01X934500Y-1772700D02*
G01X934500Y-1001400D01*
G01X939800Y-1778000D02*
G01X934500Y-1772700D01*
G54D10*
G01X3048000Y-977900D02*
G01X3048000Y-863600D01*
G01X2412000Y-227600D01*
G01Y-200000D01*
G01X2882900Y-924900D02*
G01X2882900Y-2908300D01*
G01X2158000Y-200000D02*
G01X2882900Y-924900D01*
G01X2832100Y-1128100D02*
G01X2832100Y-2425700D01*
G01X1904000Y-200000D02*
G01X2832100Y-1128100D01*
G01X1396000Y-200000D02*
G01X1421400Y-200000D01*
G01X1574800Y-584200D02*
G01X1570957Y-584200D01*
G01X1186757Y-200000D02*
G01X1142000Y-200000D01*
G01X1186757Y-200000D02*
G01X1570957Y-584200D01*
G01X1447800Y-812800D02*
G01X1447800Y-747100D01*
G01X900700Y-200000D02*
G01X888000Y-200000D01*
G01X1447800Y-747100D02*
G01X900700Y-200000D01*
G01X1421400Y-200000D02*
G01X1650411Y-429012D01*
G01Y-579021D01*
G01X1643800Y-585632D01*
G01X2806700Y-508000D02*
G01X2806700Y-139700D01*
G01X2743200Y-76200D01*
G01X1739900D01*
G01X1650000Y-166100D01*
G01Y-200000D01*
G01X1397000Y-1803400D02*
G01X1193800Y-1600200D01*
G01Y-1371600D01*
G01X1601499Y-2159000D02*
G01X1601499Y-1791999D01*
G01X1257300Y-1447800D01*
G01Y-1328000D01*
G01X1224700Y-1295400D01*
G01X876300Y-863600D02*
G01X892048Y-879348D01*
G01X1551852Y-879348D02*
G01X1643800Y-787400D01*
G01X1135800Y-1206500D02*
G01X1462952Y-879348D01*
G01X892048Y-879348D02*
G01X1462952Y-879348D01*
G01X1551852D01*
G01X2006600Y-2781300D02*
G01X2133600Y-2654300D01*
G01X2603500D01*
G04 Track End*

M02*
