G04 Layer: TopSolderMaskLayer*
G04 EasyEDA Pro v2.1.57.773a98f1.225d47, 2024-05-26 20:13:35*
G04 Gerber Generator version 0.3*
G04 Scale: 100 percent, Rotated: No, Reflected: No*
G04 Dimensions in millimeters*
G04 Leading zeros omitted, absolute positions, 3 integers and 5 decimals*
%FSLAX35Y35*%
%MOMM*%
%AMRoundRect*1,1,$1,$2,$3*1,1,$1,$4,$5*1,1,$1,0-$2,0-$3*1,1,$1,0-$4,0-$5*20,1,$1,$2,$3,$4,$5,0*20,1,$1,$4,$5,0-$2,0-$3,0*20,1,$1,0-$2,0-$3,0-$4,0-$5,0*20,1,$1,0-$4,0-$5,$2,$3,0*4,1,4,$2,$3,$4,$5,0-$2,0-$3,0-$4,0-$5,$2,$3,0*%
%ADD10O,0.38003X0.90002*%
%ADD11O,0.90002X0.38003*%
%ADD12RoundRect,0.09658X-1.35172X1.35172X1.35172X1.35172*%
%ADD13RoundRect,0.08874X-0.45601X0.30615X0.45601X0.30615*%
%ADD14RoundRect,0.08874X-0.30615X-0.45601X-0.30615X0.45601*%
%ADD15RoundRect,0.08874X0.30615X0.45601X0.30615X-0.45601*%
%ADD16RoundRect,0.08573X-0.40715X0.25715X0.40715X0.25715*%
%ADD17RoundRect,0.0858X-0.23291X-0.23291X-0.23291X0.23291*%
%ADD18C,2.204*%
%ADD19RoundRect,0.08771X0.28977X-0.27695X-0.28977X-0.27695*%
%ADD20RoundRect,0.09302X-0.70406X-0.50429X-0.70406X0.50429*%
%ADD21RoundRect,0.08389X0.50807X0.21806X0.50807X-0.21806*%
%ADD22RoundRect,0.08389X-0.50807X-0.21806X-0.50807X0.21806*%
%ADD23RoundRect,0.15764X0.27272X0.27272X0.27272X-0.27272*%
%ADD24RoundRect,0.15764X0.27272X0.47274X0.27272X-0.47274*%
%ADD25RoundRect,0.08771X-0.27695X-0.40199X-0.27695X0.40199*%
%ADD26RoundRect,0.09265X-0.47948X-0.60447X-0.47948X0.60447*%
%ADD27RoundRect,0.08771X0.27695X0.40199X0.27695X-0.40199*%
%ADD28RoundRect,0.08771X-0.28977X0.27695X0.28977X0.27695*%
%ADD29RoundRect,0.16224X-0.89602X0.31514X0.89602X0.31514*%
%ADD30RoundRect,0.09017X0.63072X-0.35571X-0.63072X-0.35571*%
%ADD31RoundRect,0.09017X-0.63072X0.35571X0.63072X0.35571*%
%ADD32RoundRect,0.09618X-0.85271X0.85271X0.85271X0.85271*%
%ADD33C,1.8016*%
%ADD34RoundRect,0.09042X-0.36558X-0.40559X-0.36558X0.40559*%
%ADD35C,1.9016*%
%ADD36RoundRect,0.09645X-0.90257X-0.90257X-0.90257X0.90257*%
%ADD37RoundRect,0.09131X0.40514X-0.40514X-0.40514X-0.40514*%
%ADD38RoundRect,0.09131X-0.40514X0.40514X0.40514X0.40514*%
%ADD39RoundRect,0.09131X-0.40514X-0.40514X-0.40514X0.40514*%
%ADD40RoundRect,0.09131X0.40514X0.40514X0.40514X-0.40514*%
%ADD41RoundRect,0.08771X0.27695X0.28977X0.27695X-0.28977*%
%ADD42RoundRect,0.08771X0.40199X-0.27695X-0.40199X-0.27695*%
%ADD43RoundRect,0.08771X-0.27695X-0.28977X-0.27695X0.28977*%
%ADD44RoundRect,0.08771X-0.40199X0.27695X0.40199X0.27695*%
G75*


G04 Rect Start*
G36*
G01X25400Y-1981200D02*
G01X25400Y-3771900D01*
G01X774700D01*
G01Y-1981200D01*
G01X25400D01*
G37*
G04 Rect End*

G04 Pad Start*
G54D10*
G01X1506697Y-1422770D03*
G01X1556684Y-1422770D03*
G01X1606697Y-1422770D03*
G01X1656684Y-1422770D03*
G01X1706697Y-1422770D03*
G01X1756684Y-1422770D03*
G54D11*
G01X1831690Y-1347763D03*
G01X1831690Y-1297776D03*
G01X1831690Y-1247764D03*
G01X1831690Y-1197776D03*
G01X1831690Y-1147764D03*
G01X1831690Y-1097777D03*
G54D10*
G01X1756684Y-1022770D03*
G01X1706697Y-1022770D03*
G01X1656684Y-1022770D03*
G01X1606697Y-1022770D03*
G01X1556684Y-1022770D03*
G01X1507485Y-1022770D03*
G54D11*
G01X1431691Y-1097777D03*
G01X1431691Y-1147764D03*
G01X1431691Y-1197776D03*
G01X1431691Y-1247764D03*
G01X1431691Y-1297776D03*
G01X1431691Y-1347763D03*
G54D12*
G01X1632935Y-1222770D03*
G54D13*
G01X2377631Y-964250D03*
G01X2377631Y-1045530D03*
G01X2377631Y-1124270D03*
G01X2377631Y-1205550D03*
G01X2377631Y-1284290D03*
G01X2377631Y-1365570D03*
G54D14*
G01X2476691Y-1365570D03*
G54D13*
G01X2575751Y-1365570D03*
G01X2575751Y-1284290D03*
G01X2575751Y-1205550D03*
G01X2575751Y-1124270D03*
G01X2575751Y-1045530D03*
G01X2575751Y-964250D03*
G54D15*
G01X2476691Y-964250D03*
G54D16*
G01X848396Y-580708D03*
G01X848396Y-680708D03*
G01X848396Y-780708D03*
G01X1048395Y-780708D03*
G01X1048395Y-680708D03*
G01X1048395Y-580708D03*
G54D17*
G01X1024364Y-1017027D03*
G01X1024364Y-1082051D03*
G01X1024364Y-1147025D03*
G01X1024364Y-1212049D03*
G01X879381Y-1212049D03*
G01X879381Y-1147025D03*
G01X879381Y-1082051D03*
G01X879381Y-1017027D03*
G54D18*
G01X1508000Y-4000000D03*
G01X1792000Y-4000000D03*
G54D19*
G01X1175918Y-2476500D03*
G01X1262482Y-2476500D03*
G54D20*
G01X1219200Y-2886329D03*
G01X1219200Y-2676271D03*
G54D21*
G01X2120202Y-2782799D03*
G01X2120202Y-2717800D03*
G01X2120202Y-2652801D03*
G54D22*
G01X2350199Y-2652801D03*
G01X2350199Y-2717800D03*
G01X2350199Y-2782799D03*
G54D23*
G01X762000Y-3369234D03*
G54D24*
G01X762000Y-3579241D03*
G54D25*
G01X1155700Y-3095092D03*
G01X1155700Y-3204108D03*
G54D26*
G01X2691003Y-3412007D03*
G01X2691003Y-3191993D03*
G01X2515997Y-3191993D03*
G01X2515997Y-3412007D03*
G54D27*
G01X2324100Y-3483508D03*
G01X2324100Y-3374492D03*
G54D25*
G01X2323448Y-3106298D03*
G01X2323448Y-3215315D03*
G54D28*
G01X2644102Y-2856154D03*
G01X2557539Y-2856154D03*
G01X2646782Y-2984500D03*
G01X2560218Y-2984500D03*
G54D29*
G01X1540877Y-2997200D03*
G01X1540877Y-3124200D03*
G01X1540877Y-3251200D03*
G01X1540877Y-3378200D03*
G01X2065923Y-3378200D03*
G01X2065923Y-3251200D03*
G01X2065923Y-3124200D03*
G01X2065923Y-2997200D03*
G54D19*
G01X1524319Y-698500D03*
G01X1610882Y-698500D03*
G54D28*
G01X1826782Y-698500D03*
G01X1740219Y-698500D03*
G54D30*
G01X636600Y-1606804D03*
G01X636600Y-1796796D03*
G01X836600Y-1701800D03*
G54D31*
G01X2614600Y-2368296D03*
G01X2614600Y-2178304D03*
G01X2414600Y-2273300D03*
G54D32*
G01X634000Y-200000D03*
G54D33*
G01X888000Y-200000D03*
G01X1142000Y-200000D03*
G01X1396000Y-200000D03*
G01X1650000Y-200000D03*
G01X1904000Y-200000D03*
G01X2158000Y-200000D03*
G01X2412000Y-200000D03*
G01X2666000Y-200000D03*
G54D34*
G01X1504496Y-2070002D03*
G01X1601499Y-2070002D03*
G01X1698501Y-2070002D03*
G01X1504496Y-1929998D03*
G01X1601499Y-1929998D03*
G01X1698501Y-1929998D03*
G01X1795504Y-1929998D03*
G01X1795504Y-2070002D03*
G54D35*
G01X3120000Y-3373000D03*
G54D36*
G01X3120000Y-3627000D03*
G54D25*
G01X1282700Y-3095092D03*
G01X1282700Y-3204108D03*
G54D37*
G01X2100000Y-1914910D03*
G01X2100000Y-2085090D03*
G54D38*
G01X1200000Y-2085090D03*
G01X1200000Y-1914910D03*
G54D39*
G01X1735090Y-1650000D03*
G01X1564910Y-1650000D03*
G54D40*
G01X1564910Y-2350000D03*
G01X1735090Y-2350000D03*
G54D41*
G01X1935900Y-944982D03*
G01X1935900Y-858418D03*
G54D42*
G01X893885Y-452105D03*
G01X1002902Y-452105D03*
G54D43*
G01X469900Y-1683918D03*
G01X469900Y-1770482D03*
G54D28*
G01X2583282Y-2044700D03*
G01X2496718Y-2044700D03*
G54D43*
G01X1943100Y-1937918D03*
G01X1943100Y-2024482D03*
G54D28*
G01X1694282Y-1790700D03*
G01X1607718Y-1790700D03*
G01X1211682Y-1739900D03*
G01X1125118Y-1739900D03*
G54D41*
G01X1371600Y-1668882D03*
G01X1371600Y-1582318D03*
G01X1917700Y-2392782D03*
G01X1917700Y-2306218D03*
G54D19*
G01X2103018Y-2260600D03*
G01X2189582Y-2260600D03*
G54D25*
G01X1937735Y-1092062D03*
G01X1937735Y-1201078D03*
G01X1313600Y-1037692D03*
G01X1313600Y-1146708D03*
G54D27*
G01X758199Y-1150219D03*
G01X758199Y-1041202D03*
G01X643899Y-1150219D03*
G01X643899Y-1041202D03*
G54D19*
G01X659772Y-1305038D03*
G01X746336Y-1305038D03*
G54D27*
G01X2242455Y-1360853D03*
G01X2242455Y-1251836D03*
G54D44*
G01X1273708Y-3365500D03*
G01X1164692Y-3365500D03*
G54D42*
G01X1763446Y-2668854D03*
G01X1872463Y-2668854D03*
G01X1759737Y-2821254D03*
G01X1868754Y-2821254D03*
G54D25*
G01X2712355Y-956028D03*
G01X2712355Y-1065045D03*
G54D42*
G01X2416547Y-823745D03*
G01X2525564Y-823745D03*
G01X2416547Y-696745D03*
G01X2525564Y-696745D03*
G04 Pad End*

M02*
