G04 Layer: TopSilkscreenLayer*
G04 EasyEDA Pro v2.1.57.773a98f1.225d47, 2024-05-26 20:13:35*
G04 Gerber Generator version 0.3*
G04 Scale: 100 percent, Rotated: No, Reflected: No*
G04 Dimensions in millimeters*
G04 Leading zeros omitted, absolute positions, 3 integers and 5 decimals*
%FSLAX35Y35*%
%MOMM*%
%ADD10C,0.2*%
%ADD11C,0.254*%
%ADD12C,0.15001*%
%ADD13C,0.15199*%
%ADD14C,0.1524*%
%ADD15C,0.3*%
%ADD16C,0.203*%
%ADD17C,0.4235*%
%ADD18C,0.42228*%
G75*


G04 PolygonModel Start*
G54D10*
G01X1847944Y-1397776D02*
G01X1847944Y-1437786D01*
G01X1847944Y-1437786D02*
G01X1807941Y-1437786D01*
G01X1457927Y-1437786D02*
G01X1417929Y-1437786D01*
G01X1417929Y-1437786D02*
G01X1417929Y-1397776D01*
G01X1417929Y-1047769D02*
G01X1417929Y-1007759D01*
G01X1417929Y-1007759D02*
G01X1457927Y-1007759D01*
G01X1847944Y-1047769D02*
G01X1847944Y-1007759D01*
G01X1847944Y-1007759D02*
G01X1807941Y-1007759D01*
G36*
G01X1491986Y-1476648D02*
G03X1491986Y-1476902I-25400J-127D01*
G01Y-1476648D01*
G37*
G54D11*
G01X2497011Y-1035370D02*
G01X2446211Y-1035370D01*
G01X2446211Y-1035370D02*
G01X2446211Y-1086170D01*
G01X2446211Y-1086170D02*
G01X2497011Y-1035370D01*
G01X2626551Y-926150D02*
G01X2626551Y-915990D01*
G01X2626551Y-915990D02*
G01X2517331Y-915990D01*
G01X2436051Y-915990D02*
G01X2326831Y-915990D01*
G01X2326831Y-915990D02*
G01X2326831Y-926150D01*
G01X2436051Y-1413830D02*
G01X2326831Y-1413830D01*
G01X2326831Y-1413830D02*
G01X2326831Y-1403670D01*
G01X2517331Y-1413830D02*
G01X2626551Y-1413830D01*
G01X2626551Y-1413830D02*
G01X2626551Y-1403670D01*
G54D12*
G01X795985Y-818549D02*
G01X795985Y-833121D01*
G01X795985Y-833121D02*
G01X1100785Y-833121D01*
G01X1100785Y-833121D02*
G01X1100785Y-818549D01*
G01X1100785Y-542887D02*
G01X1100785Y-528321D01*
G01X1100785Y-528321D02*
G01X795985Y-528321D01*
G01X1100785Y-642887D02*
G01X1100785Y-618554D01*
G01X1100785Y-742887D02*
G01X1100785Y-718554D01*
G01X795985Y-718554D02*
G01X795985Y-742887D01*
G01X795985Y-618554D02*
G01X795985Y-642887D01*
G01X795985Y-528321D02*
G01X795985Y-542887D01*
G36*
G01X951182Y-562082D02*
G01X900334Y-562021D01*
G01X900842Y-602661D01*
G01X951182Y-562082D01*
G37*
G54D13*
G01X841890Y-984490D02*
G01X841890Y-1249412D01*
G01X841890Y-1249412D02*
G01X1061854Y-1249412D01*
G01X1061854Y-1249412D02*
G01X1061854Y-979664D01*
G01X1061854Y-979664D02*
G01X841890Y-979664D01*
G54D14*
G01X1241821Y-2426640D02*
G01X1313625Y-2426640D01*
G01X1313625Y-2426640D02*
G01X1313625Y-2526360D01*
G01X1313625Y-2526360D02*
G01X1241821Y-2526360D01*
G01X1196579Y-2426640D02*
G01X1124776Y-2426640D01*
G01X1124776Y-2426640D02*
G01X1124776Y-2526360D01*
G01X1124776Y-2526360D02*
G01X1196579Y-2526360D01*
G54D11*
G01X1117473Y-2825623D02*
G01X1117473Y-2980563D01*
G01X1117473Y-2980563D02*
G01X1320673Y-2980563D01*
G01X1320673Y-2980563D02*
G01X1320673Y-2825623D01*
G01X1114933Y-2746883D02*
G01X1114933Y-2599563D01*
G01X1114933Y-2599563D02*
G01X1155573Y-2558923D01*
G01X1155573Y-2558923D02*
G01X1282573Y-2558923D01*
G01X1282573Y-2558923D02*
G01X1320673Y-2597023D01*
G01X1320673Y-2597023D02*
G01X1320673Y-2749423D01*
G01X1269200Y-2801300D02*
G01X1169175Y-2801300D01*
G01X1219200Y-2791308D02*
G01X1219200Y-2764409D01*
G54D10*
G01X2165185Y-2827800D02*
G01X2305190Y-2827800D01*
G01X2165185Y-2607800D02*
G01X2305190Y-2607800D01*
G01X2344280Y-2827221D02*
G03X2344534Y-2827221I127J-12502D01*
G54D14*
G01X1105840Y-3047970D02*
G01X1105840Y-3126979D01*
G01X1205560Y-3126979D02*
G01X1205560Y-3047970D01*
G01X1190320Y-3032730D02*
G01X1121080Y-3032730D01*
G01X1105840Y-3251230D02*
G01X1105840Y-3172221D01*
G01X1205560Y-3172221D02*
G01X1205560Y-3251230D01*
G01X1190320Y-3266470D02*
G01X1121080Y-3266470D01*
G01X1205560Y-3047970D02*
G03X1190320Y-3032730I-15240J0D01*
G01X1121080Y-3032730D02*
G03X1105840Y-3047970I0J-15240D01*
G01X1205560Y-3251230D02*
G02X1190320Y-3266470I-15240J0D01*
G01X1121080Y-3266470D02*
G02X1105840Y-3251230I0J15240D01*
G54D13*
G01X2743187Y-3530600D02*
G01X2793987Y-3530600D01*
G01X2793987Y-3530600D02*
G01X2793987Y-3479800D01*
G54D14*
G01X2771369Y-3504946D02*
G01X2438375Y-3504946D01*
G01X2438375Y-3504946D02*
G01X2438387Y-3098800D01*
G01X2438387Y-3098800D02*
G01X2603487Y-3098800D01*
G01X2603487Y-3098800D02*
G01X2768587Y-3098800D01*
G01X2768587Y-3098800D02*
G01X2771369Y-3504946D01*
G01X2373960Y-3530630D02*
G01X2373960Y-3451621D01*
G01X2274240Y-3451621D02*
G01X2274240Y-3530630D01*
G01X2289480Y-3545870D02*
G01X2358720Y-3545870D01*
G01X2373960Y-3327370D02*
G01X2373960Y-3406379D01*
G01X2274240Y-3406379D02*
G01X2274240Y-3327370D01*
G01X2289480Y-3312130D02*
G01X2358720Y-3312130D01*
G01X2274240Y-3530630D02*
G03X2289480Y-3545870I15240J0D01*
G01X2358720Y-3545870D02*
G03X2373960Y-3530630I0J15240D01*
G01X2274240Y-3327370D02*
G02X2289480Y-3312130I15240J0D01*
G01X2358720Y-3312130D02*
G02X2373960Y-3327370I0J-15240D01*
G01X2273588Y-3059176D02*
G01X2273588Y-3138185D01*
G01X2373308Y-3138185D02*
G01X2373308Y-3059176D01*
G01X2358068Y-3043936D02*
G01X2288828Y-3043936D01*
G01X2273588Y-3262437D02*
G01X2273588Y-3183428D01*
G01X2373308Y-3183428D02*
G01X2373308Y-3262437D01*
G01X2358068Y-3277677D02*
G01X2288828Y-3277677D01*
G01X2373308Y-3059176D02*
G03X2358068Y-3043936I-15240J0D01*
G01X2288828Y-3043936D02*
G03X2273588Y-3059176I0J-15240D01*
G01X2373308Y-3262437D02*
G02X2358068Y-3277677I-15240J0D01*
G01X2288828Y-3277677D02*
G02X2273588Y-3262437I0J15240D01*
G01X2578200Y-2906014D02*
G01X2506396Y-2906014D01*
G01X2506396Y-2906014D02*
G01X2506396Y-2806294D01*
G01X2506396Y-2806294D02*
G01X2578200Y-2806294D01*
G01X2623442Y-2906014D02*
G01X2695245Y-2906014D01*
G01X2695245Y-2906014D02*
G01X2695245Y-2806294D01*
G01X2695245Y-2806294D02*
G01X2623442Y-2806294D01*
G01X2580879Y-3034360D02*
G01X2509076Y-3034360D01*
G01X2509076Y-3034360D02*
G01X2509076Y-2934640D01*
G01X2509076Y-2934640D02*
G01X2580879Y-2934640D01*
G01X2626121Y-3034360D02*
G01X2697925Y-3034360D01*
G01X2697925Y-3034360D02*
G01X2697925Y-2934640D01*
G01X2697925Y-2934640D02*
G01X2626121Y-2934640D01*
G01X1663951Y-2935097D02*
G01X1942849Y-2935097D01*
G01X1942849Y-2935097D02*
G01X1942849Y-3440303D01*
G01X1942849Y-3440303D02*
G01X1663951Y-3440303D01*
G01X1663951Y-3440303D02*
G01X1663951Y-2935097D01*
G01X1590221Y-648640D02*
G01X1662025Y-648640D01*
G01X1662025Y-648640D02*
G01X1662025Y-748360D01*
G01X1662025Y-748360D02*
G01X1590221Y-748360D01*
G01X1544979Y-648640D02*
G01X1473176Y-648640D01*
G01X1473176Y-648640D02*
G01X1473176Y-748360D01*
G01X1473176Y-748360D02*
G01X1544979Y-748360D01*
G01X1760879Y-748360D02*
G01X1689076Y-748360D01*
G01X1689076Y-748360D02*
G01X1689076Y-648640D01*
G01X1689076Y-648640D02*
G01X1760879Y-648640D01*
G01X1806121Y-748360D02*
G01X1877925Y-748360D01*
G01X1877925Y-748360D02*
G01X1877925Y-648640D01*
G01X1877925Y-648640D02*
G01X1806121Y-648640D01*
G01X663979Y-1854421D02*
G01X809221Y-1854421D01*
G01X809221Y-1854421D02*
G01X809221Y-1751259D01*
G01X663979Y-1549179D02*
G01X809221Y-1549179D01*
G01X809221Y-1549179D02*
G01X809221Y-1652341D01*
G01X663979Y-1747340D02*
G01X663979Y-1656260D01*
G01X2587221Y-2120679D02*
G01X2441979Y-2120679D01*
G01X2441979Y-2120679D02*
G01X2441979Y-2223841D01*
G01X2587221Y-2425921D02*
G01X2441979Y-2425921D01*
G01X2441979Y-2425921D02*
G01X2441979Y-2322759D01*
G01X2587221Y-2227760D02*
G01X2587221Y-2318840D01*
G54D11*
G01X2814001Y-73000D02*
G01X2814001Y-327000D01*
G01X485999Y-73000D02*
G01X2814001Y-73000D01*
G01X763352Y-73000D02*
G01X763352Y-327000D01*
G01X485999Y-327000D02*
G01X2814001Y-327000D01*
G01X485999Y-73000D02*
G01X485999Y-327000D01*
G54D10*
G01X1441999Y-2118001D02*
G01X1441999Y-1881999D01*
G01X1441999Y-2118001D02*
G01X1858001Y-2118001D01*
G01X1858001Y-2118001D02*
G01X1858001Y-1881999D01*
G01X1440999Y-1871999D02*
G01X1856997Y-1871999D01*
G54D15*
G01X1473000Y-1854999D02*
G03X1472746Y-1854999I-127J15001D01*
G54D14*
G01X1332560Y-3126979D02*
G01X1332560Y-3047970D01*
G01X1332560Y-3047970D02*
G01X1317320Y-3032730D01*
G01X1317320Y-3032730D02*
G01X1248080Y-3032730D01*
G01X1248080Y-3032730D02*
G01X1232840Y-3047970D01*
G01X1232840Y-3047970D02*
G01X1232840Y-3126979D01*
G01X1332560Y-3172221D02*
G01X1332560Y-3251230D01*
G01X1332560Y-3251230D02*
G01X1317320Y-3266470D01*
G01X1317320Y-3266470D02*
G01X1248080Y-3266470D01*
G01X1248080Y-3266470D02*
G01X1232840Y-3251230D01*
G01X1232840Y-3251230D02*
G01X1232840Y-3172221D01*
G54D11*
G01X2186360Y-1823470D02*
G01X2013640Y-1823470D01*
G01X2013640Y-1823470D02*
G01X2013640Y-1970790D01*
G01X2186360Y-1823470D02*
G01X2186360Y-1970790D01*
G01X2013640Y-2029210D02*
G01X2013640Y-2146050D01*
G01X2186360Y-2031750D02*
G01X2186360Y-2146050D01*
G01X2186360Y-2146050D02*
G01X2150800Y-2181610D01*
G01X2150800Y-2181610D02*
G01X2049200Y-2181610D01*
G01X2049200Y-2181610D02*
G01X2013640Y-2146050D01*
G54D16*
G01X2140640Y-1992380D02*
G01X2061900Y-1992380D01*
G01X2100795Y-1992380D02*
G01X2100795Y-2009916D01*
G54D11*
G01X1113640Y-2176530D02*
G01X1286360Y-2176530D01*
G01X1286360Y-2176530D02*
G01X1286360Y-2029210D01*
G01X1113640Y-2176530D02*
G01X1113640Y-2029210D01*
G01X1286360Y-1970790D02*
G01X1286360Y-1853950D01*
G01X1113640Y-1968250D02*
G01X1113640Y-1853950D01*
G01X1113640Y-1853950D02*
G01X1149200Y-1818390D01*
G01X1149200Y-1818390D02*
G01X1250800Y-1818390D01*
G01X1250800Y-1818390D02*
G01X1286360Y-1853950D01*
G54D16*
G01X1159360Y-2007620D02*
G01X1238100Y-2007620D01*
G01X1199205Y-2007620D02*
G01X1199205Y-1990084D01*
G54D11*
G01X1826530Y-1736360D02*
G01X1826530Y-1563640D01*
G01X1826530Y-1563640D02*
G01X1679210Y-1563640D01*
G01X1826530Y-1736360D02*
G01X1679210Y-1736360D01*
G01X1620790Y-1563640D02*
G01X1503950Y-1563640D01*
G01X1618250Y-1736360D02*
G01X1503950Y-1736360D01*
G01X1503950Y-1736360D02*
G01X1468390Y-1700800D01*
G01X1468390Y-1700800D02*
G01X1468390Y-1599200D01*
G01X1468390Y-1599200D02*
G01X1503950Y-1563640D01*
G54D16*
G01X1657620Y-1690640D02*
G01X1657620Y-1611900D01*
G01X1657620Y-1650795D02*
G01X1640084Y-1650795D01*
G54D11*
G01X1473470Y-2263640D02*
G01X1473470Y-2436360D01*
G01X1473470Y-2436360D02*
G01X1620790Y-2436360D01*
G01X1473470Y-2263640D02*
G01X1620790Y-2263640D01*
G01X1679210Y-2436360D02*
G01X1796050Y-2436360D01*
G01X1681750Y-2263640D02*
G01X1796050Y-2263640D01*
G01X1796050Y-2263640D02*
G01X1831610Y-2299200D01*
G01X1831610Y-2299200D02*
G01X1831610Y-2400800D01*
G01X1831610Y-2400800D02*
G01X1796050Y-2436360D01*
G54D16*
G01X1642380Y-2309360D02*
G01X1642380Y-2388100D01*
G01X1642380Y-2349205D02*
G01X1659916Y-2349205D01*
G54D14*
G01X1886040Y-879079D02*
G01X1886040Y-807275D01*
G01X1886040Y-807275D02*
G01X1985760Y-807275D01*
G01X1985760Y-807275D02*
G01X1985760Y-879079D01*
G01X1886040Y-924321D02*
G01X1886040Y-996124D01*
G01X1886040Y-996124D02*
G01X1985760Y-996124D01*
G01X1985760Y-996124D02*
G01X1985760Y-924321D01*
G01X846763Y-501965D02*
G01X925772Y-501965D01*
G01X925772Y-402245D02*
G01X846763Y-402245D01*
G01X831523Y-417485D02*
G01X831523Y-486725D01*
G01X1050024Y-501965D02*
G01X971015Y-501965D01*
G01X971015Y-402245D02*
G01X1050024Y-402245D01*
G01X1065264Y-417485D02*
G01X1065264Y-486725D01*
G01X846763Y-402245D02*
G03X831523Y-417485I0J-15240D01*
G01X831523Y-486725D02*
G03X846763Y-501965I15240J0D01*
G01X1050024Y-402245D02*
G02X1065264Y-417485I0J-15240D01*
G01X1065264Y-486725D02*
G02X1050024Y-501965I-15240J0D01*
G01X519760Y-1749821D02*
G01X519760Y-1821624D01*
G01X519760Y-1821624D02*
G01X420040Y-1821624D01*
G01X420040Y-1821624D02*
G01X420040Y-1749821D01*
G01X519760Y-1704579D02*
G01X519760Y-1632775D01*
G01X519760Y-1632775D02*
G01X420040Y-1632775D01*
G01X420040Y-1632775D02*
G01X420040Y-1704579D01*
G01X2517379Y-2094560D02*
G01X2445576Y-2094560D01*
G01X2445576Y-2094560D02*
G01X2445576Y-1994840D01*
G01X2445576Y-1994840D02*
G01X2517379Y-1994840D01*
G01X2562621Y-2094560D02*
G01X2634425Y-2094560D01*
G01X2634425Y-2094560D02*
G01X2634425Y-1994840D01*
G01X2634425Y-1994840D02*
G01X2562621Y-1994840D01*
G01X1992960Y-2003821D02*
G01X1992960Y-2075624D01*
G01X1992960Y-2075624D02*
G01X1893240Y-2075624D01*
G01X1893240Y-2075624D02*
G01X1893240Y-2003821D01*
G01X1992960Y-1958579D02*
G01X1992960Y-1886775D01*
G01X1992960Y-1886775D02*
G01X1893240Y-1886775D01*
G01X1893240Y-1886775D02*
G01X1893240Y-1958579D01*
G01X1628379Y-1840560D02*
G01X1556576Y-1840560D01*
G01X1556576Y-1840560D02*
G01X1556576Y-1740840D01*
G01X1556576Y-1740840D02*
G01X1628379Y-1740840D01*
G01X1673621Y-1840560D02*
G01X1745425Y-1840560D01*
G01X1745425Y-1840560D02*
G01X1745425Y-1740840D01*
G01X1745425Y-1740840D02*
G01X1673621Y-1740840D01*
G01X1145779Y-1789760D02*
G01X1073976Y-1789760D01*
G01X1073976Y-1789760D02*
G01X1073976Y-1690040D01*
G01X1073976Y-1690040D02*
G01X1145779Y-1690040D01*
G01X1191021Y-1789760D02*
G01X1262825Y-1789760D01*
G01X1262825Y-1789760D02*
G01X1262825Y-1690040D01*
G01X1262825Y-1690040D02*
G01X1191021Y-1690040D01*
G01X1321740Y-1602979D02*
G01X1321740Y-1531175D01*
G01X1321740Y-1531175D02*
G01X1421460Y-1531175D01*
G01X1421460Y-1531175D02*
G01X1421460Y-1602979D01*
G01X1321740Y-1648221D02*
G01X1321740Y-1720024D01*
G01X1321740Y-1720024D02*
G01X1421460Y-1720024D01*
G01X1421460Y-1720024D02*
G01X1421460Y-1648221D01*
G01X1867840Y-2326879D02*
G01X1867840Y-2255075D01*
G01X1867840Y-2255075D02*
G01X1967560Y-2255075D01*
G01X1967560Y-2255075D02*
G01X1967560Y-2326879D01*
G01X1867840Y-2372121D02*
G01X1867840Y-2443924D01*
G01X1867840Y-2443924D02*
G01X1967560Y-2443924D01*
G01X1967560Y-2443924D02*
G01X1967560Y-2372121D01*
G01X2168921Y-2210740D02*
G01X2240725Y-2210740D01*
G01X2240725Y-2210740D02*
G01X2240725Y-2310460D01*
G01X2240725Y-2310460D02*
G01X2168921Y-2310460D01*
G01X2123679Y-2210740D02*
G01X2051876Y-2210740D01*
G01X2051876Y-2210740D02*
G01X2051876Y-2310460D01*
G01X2051876Y-2310460D02*
G01X2123679Y-2310460D01*
G01X1887875Y-1044939D02*
G01X1887875Y-1123949D01*
G01X1987595Y-1123949D02*
G01X1987595Y-1044939D01*
G01X1972355Y-1029699D02*
G01X1903115Y-1029699D01*
G01X1887875Y-1248200D02*
G01X1887875Y-1169191D01*
G01X1987595Y-1169191D02*
G01X1987595Y-1248200D01*
G01X1972355Y-1263440D02*
G01X1903115Y-1263440D01*
G01X1987595Y-1044939D02*
G03X1972355Y-1029699I-15240J0D01*
G01X1903115Y-1029699D02*
G03X1887875Y-1044939I0J-15240D01*
G01X1987595Y-1248200D02*
G02X1972355Y-1263440I-15240J0D01*
G01X1903115Y-1263440D02*
G02X1887875Y-1248200I0J15240D01*
G01X1263740Y-990570D02*
G01X1263740Y-1069579D01*
G01X1363460Y-1069579D02*
G01X1363460Y-990570D01*
G01X1348220Y-975330D02*
G01X1278980Y-975330D01*
G01X1263740Y-1193830D02*
G01X1263740Y-1114821D01*
G01X1363460Y-1114821D02*
G01X1363460Y-1193830D01*
G01X1348220Y-1209070D02*
G01X1278980Y-1209070D01*
G01X1363460Y-990570D02*
G03X1348220Y-975330I-15240J0D01*
G01X1278980Y-975330D02*
G03X1263740Y-990570I0J-15240D01*
G01X1363460Y-1193830D02*
G02X1348220Y-1209070I-15240J0D01*
G01X1278980Y-1209070D02*
G02X1263740Y-1193830I0J15240D01*
G01X808059Y-1197341D02*
G01X808059Y-1118332D01*
G01X708338Y-1118332D02*
G01X708338Y-1197341D01*
G01X723578Y-1212581D02*
G01X792819Y-1212581D01*
G01X808059Y-994080D02*
G01X808059Y-1073089D01*
G01X708338Y-1073089D02*
G01X708338Y-994080D01*
G01X723578Y-978840D02*
G01X792819Y-978840D01*
G01X708338Y-1197341D02*
G03X723578Y-1212581I15240J0D01*
G01X792819Y-1212581D02*
G03X808059Y-1197341I0J15240D01*
G01X708338Y-994080D02*
G02X723578Y-978840I15240J0D01*
G01X792819Y-978840D02*
G02X808059Y-994080I0J-15240D01*
G01X693759Y-1197341D02*
G01X693759Y-1118332D01*
G01X594038Y-1118332D02*
G01X594038Y-1197341D01*
G01X609278Y-1212581D02*
G01X678519Y-1212581D01*
G01X693759Y-994080D02*
G01X693759Y-1073089D01*
G01X594038Y-1073089D02*
G01X594038Y-994080D01*
G01X609278Y-978840D02*
G01X678519Y-978840D01*
G01X594038Y-1197341D02*
G03X609278Y-1212581I15240J0D01*
G01X678519Y-1212581D02*
G03X693759Y-1197341I0J15240D01*
G01X594038Y-994080D02*
G02X609278Y-978840I15240J0D01*
G01X678519Y-978840D02*
G02X693759Y-994080I0J-15240D01*
G01X725675Y-1255178D02*
G01X797478Y-1255178D01*
G01X797478Y-1255178D02*
G01X797478Y-1354898D01*
G01X797478Y-1354898D02*
G01X725675Y-1354898D01*
G01X680433Y-1255178D02*
G01X608629Y-1255178D01*
G01X608629Y-1255178D02*
G01X608629Y-1354898D01*
G01X608629Y-1354898D02*
G01X680433Y-1354898D01*
G01X2292315Y-1407975D02*
G01X2292315Y-1328966D01*
G01X2192595Y-1328966D02*
G01X2192595Y-1407975D01*
G01X2207835Y-1423215D02*
G01X2277075Y-1423215D01*
G01X2292315Y-1204714D02*
G01X2292315Y-1283724D01*
G01X2192595Y-1283724D02*
G01X2192595Y-1204714D01*
G01X2207835Y-1189474D02*
G01X2277075Y-1189474D01*
G01X2192595Y-1407975D02*
G03X2207835Y-1423215I15240J0D01*
G01X2277075Y-1423215D02*
G03X2292315Y-1407975I0J15240D01*
G01X2192595Y-1204714D02*
G02X2207835Y-1189474I15240J0D01*
G01X2277075Y-1189474D02*
G02X2292315Y-1204714I0J-15240D01*
G01X1320830Y-3315640D02*
G01X1241821Y-3315640D01*
G01X1241821Y-3415360D02*
G01X1320830Y-3415360D01*
G01X1336070Y-3400120D02*
G01X1336070Y-3330880D01*
G01X1117570Y-3315640D02*
G01X1196579Y-3315640D01*
G01X1196579Y-3415360D02*
G01X1117570Y-3415360D01*
G01X1102330Y-3400120D02*
G01X1102330Y-3330880D01*
G01X1320830Y-3415360D02*
G03X1336070Y-3400120I0J15240D01*
G01X1336070Y-3330880D02*
G03X1320830Y-3315640I-15240J0D01*
G01X1117570Y-3415360D02*
G02X1102330Y-3400120I0J15240D01*
G01X1102330Y-3330880D02*
G02X1117570Y-3315640I15240J0D01*
G01X1716324Y-2718714D02*
G01X1795333Y-2718714D01*
G01X1795333Y-2618994D02*
G01X1716324Y-2618994D01*
G01X1701084Y-2634234D02*
G01X1701084Y-2703474D01*
G01X1919585Y-2718714D02*
G01X1840575Y-2718714D01*
G01X1840575Y-2618994D02*
G01X1919585Y-2618994D01*
G01X1934825Y-2634234D02*
G01X1934825Y-2703474D01*
G01X1716324Y-2618994D02*
G03X1701084Y-2634234I0J-15240D01*
G01X1701084Y-2703474D02*
G03X1716324Y-2718714I15240J0D01*
G01X1919585Y-2618994D02*
G02X1934825Y-2634234I0J-15240D01*
G01X1934825Y-2703474D02*
G02X1919585Y-2718714I-15240J0D01*
G01X1712615Y-2871114D02*
G01X1791625Y-2871114D01*
G01X1791625Y-2771394D02*
G01X1712615Y-2771394D01*
G01X1697375Y-2786634D02*
G01X1697375Y-2855874D01*
G01X1915876Y-2871114D02*
G01X1836867Y-2871114D01*
G01X1836867Y-2771394D02*
G01X1915876Y-2771394D01*
G01X1931116Y-2786634D02*
G01X1931116Y-2855874D01*
G01X1712615Y-2771394D02*
G03X1697375Y-2786634I0J-15240D01*
G01X1697375Y-2855874D02*
G03X1712615Y-2871114I15240J0D01*
G01X1915876Y-2771394D02*
G02X1931116Y-2786634I0J-15240D01*
G01X1931116Y-2855874D02*
G02X1915876Y-2871114I-15240J0D01*
G01X2662495Y-908906D02*
G01X2662495Y-987915D01*
G01X2762215Y-987915D02*
G01X2762215Y-908906D01*
G01X2746975Y-893666D02*
G01X2677735Y-893666D01*
G01X2662495Y-1112167D02*
G01X2662495Y-1033158D01*
G01X2762215Y-1033158D02*
G01X2762215Y-1112167D01*
G01X2746975Y-1127407D02*
G01X2677735Y-1127407D01*
G01X2762215Y-908906D02*
G03X2746975Y-893666I-15240J0D01*
G01X2677735Y-893666D02*
G03X2662495Y-908906I0J-15240D01*
G01X2762215Y-1112167D02*
G02X2746975Y-1127407I-15240J0D01*
G01X2677735Y-1127407D02*
G02X2662495Y-1112167I0J15240D01*
G01X2369425Y-873605D02*
G01X2448434Y-873605D01*
G01X2448434Y-773885D02*
G01X2369425Y-773885D01*
G01X2354185Y-789125D02*
G01X2354185Y-858365D01*
G01X2572686Y-873605D02*
G01X2493676Y-873605D01*
G01X2493676Y-773885D02*
G01X2572686Y-773885D01*
G01X2587926Y-789125D02*
G01X2587926Y-858365D01*
G01X2369425Y-773885D02*
G03X2354185Y-789125I0J-15240D01*
G01X2354185Y-858365D02*
G03X2369425Y-873605I15240J0D01*
G01X2572686Y-773885D02*
G02X2587926Y-789125I0J-15240D01*
G01X2587926Y-858365D02*
G02X2572686Y-873605I-15240J0D01*
G01X2369425Y-746605D02*
G01X2448434Y-746605D01*
G01X2448434Y-646885D02*
G01X2369425Y-646885D01*
G01X2354185Y-662125D02*
G01X2354185Y-731365D01*
G01X2572686Y-746605D02*
G01X2493676Y-746605D01*
G01X2493676Y-646885D02*
G01X2572686Y-646885D01*
G01X2587926Y-662125D02*
G01X2587926Y-731365D01*
G01X2369425Y-646885D02*
G03X2354185Y-662125I0J-15240D01*
G01X2354185Y-731365D02*
G03X2369425Y-746605I15240J0D01*
G01X2572686Y-646885D02*
G02X2587926Y-662125I0J-15240D01*
G01X2587926Y-731365D02*
G02X2572686Y-746605I-15240J0D01*
G04 PolygonModel End*

G04 Rect Start*
G54D11*
G01X2993000Y-3754000D02*
G01X3247000Y-3754000D01*
G01Y-3246000D01*
G01X2993000D01*
G01Y-3754000D01*
G04 Rect End*

G04 Circle Start*
G54D10*
G01X747893Y-579105D02*
G03X767893Y-579105I10000J0D01*
G03X747893I-10000J0D01*
G54D12*
G01X920376Y-1194548D02*
G03X935362Y-1194548I7493J0D01*
G03X920376I-7493J0D01*
G54D18*
G01X1700051Y-2971197D03*
G01X1540877Y-2880138D03*
G04 Circle End*

M02*
