G04 Layer: DrillDrawingLayer*
G04 EasyEDA Pro v2.1.57.773a98f1.225d47, 2024-05-26 20:13:35*
G04 Gerber Generator version 0.3*
G04 Scale: 100 percent, Rotated: No, Reflected: No*
G04 Dimensions in millimeters*
G04 Leading zeros omitted, absolute positions, 3 integers and 5 decimals*
%FSLAX35Y35*%
%MOMM*%
%ADD10C,0.254*%
G75*


G04 Image Start*
G36*
G01X3100070Y-3353054D02*
G01X3100070Y-3356712D01*
G01X3103677D01*
G01X3136290D01*
G01Y-3389325D01*
G01X3103677D01*
G01Y-3356712D01*
G01X3100070D01*
G01Y-3392932D01*
G01X3139948D01*
G01Y-3353054D01*
G37*
G36*
G01X3100070Y-3607054D02*
G01X3100070Y-3610712D01*
G01X3103677D01*
G01X3136290D01*
G01Y-3643325D01*
G01X3103677D01*
G01Y-3610712D01*
G01X3100070D01*
G01Y-3646932D01*
G01X3139948D01*
G01Y-3607054D01*
G37*
G36*
G01X633984Y-180086D02*
G01X631952Y-180188D01*
G01X629971Y-180442D01*
G01X628091Y-180950D01*
G01X626262Y-181610D01*
G01X624484Y-182474D01*
G01X622859Y-183490D01*
G01X621335Y-184607D01*
G01X619912Y-185877D01*
G01X618592Y-187300D01*
G01X617474Y-188874D01*
G01X616458Y-190500D01*
G01X615645Y-192227D01*
G01X614934Y-194056D01*
G01X614477Y-195986D01*
G01X614172Y-197968D01*
G01X614070Y-200000D01*
G01X617372D01*
G01X617474Y-198323D01*
G01X617728Y-196647D01*
G01X618134Y-195072D01*
G01X618693Y-193548D01*
G01X619404Y-192075D01*
G01X620217Y-190703D01*
G01X621182Y-189433D01*
G01X622249Y-188265D01*
G01X623418Y-187198D01*
G01X624738Y-186233D01*
G01X626110Y-185369D01*
G01X627532Y-184709D01*
G01X629056Y-184150D01*
G01X630631Y-183744D01*
G01X632308Y-183490D01*
G01X633984Y-183388D01*
G01X635711Y-183490D01*
G01X637337Y-183744D01*
G01X638912Y-184150D01*
G01X640486Y-184709D01*
G01X641909Y-185369D01*
G01X643280Y-186233D01*
G01X644550Y-187198D01*
G01X645719Y-188265D01*
G01X646836Y-189433D01*
G01X647751Y-190703D01*
G01X648614Y-192075D01*
G01X649326Y-193548D01*
G01X649884Y-195072D01*
G01X650291Y-196647D01*
G01X650545Y-198323D01*
G01X650596Y-200000D01*
G01X650545Y-201676D01*
G01X650291Y-203352D01*
G01X649884Y-204927D01*
G01X649326Y-206451D01*
G01X648614Y-207924D01*
G01X647751Y-209296D01*
G01X646836Y-210566D01*
G01X645719Y-211734D01*
G01X644550Y-212801D01*
G01X643280Y-213766D01*
G01X641909Y-214630D01*
G01X640486Y-215290D01*
G01X638912Y-215849D01*
G01X637337Y-216256D01*
G01X635711Y-216510D01*
G01X633984Y-216611D01*
G01X632308Y-216510D01*
G01X630631Y-216256D01*
G01X629056Y-215849D01*
G01X627532Y-215290D01*
G01X626110Y-214630D01*
G01X624738Y-213766D01*
G01X623418Y-212801D01*
G01X622249Y-211734D01*
G01X621182Y-210566D01*
G01X620217Y-209296D01*
G01X619404Y-207924D01*
G01X618693Y-206451D01*
G01X618134Y-204927D01*
G01X617728Y-203352D01*
G01X617474Y-201676D01*
G01X617372Y-200000D01*
G01X614070D01*
G01X614172Y-202032D01*
G01X614477Y-204013D01*
G01X614934Y-205943D01*
G01X615645Y-207772D01*
G01X616458Y-209499D01*
G01X617474Y-211125D01*
G01X618592Y-212700D01*
G01X619912Y-214122D01*
G01X621335Y-215392D01*
G01X622859Y-216510D01*
G01X624484Y-217526D01*
G01X626262Y-218389D01*
G01X628091Y-219050D01*
G01X629971Y-219558D01*
G01X631952Y-219812D01*
G01X633984Y-219964D01*
G01X636016Y-219812D01*
G01X637997Y-219558D01*
G01X639928Y-219050D01*
G01X641756Y-218389D01*
G01X643484Y-217526D01*
G01X645160Y-216510D01*
G01X646684Y-215392D01*
G01X648106Y-214122D01*
G01X649376Y-212700D01*
G01X650545Y-211125D01*
G01X651510Y-209499D01*
G01X652374Y-207772D01*
G01X653034Y-205943D01*
G01X653542Y-204013D01*
G01X653847Y-202032D01*
G01X653948Y-200000D01*
G01X653847Y-197968D01*
G01X653542Y-195986D01*
G01X653034Y-194056D01*
G01X652374Y-192227D01*
G01X651510Y-190500D01*
G01X650545Y-188874D01*
G01X649376Y-187300D01*
G01X648106Y-185877D01*
G01X646684Y-184607D01*
G01X645160Y-183490D01*
G01X643484Y-182474D01*
G01X641756Y-181610D01*
G01X639928Y-180950D01*
G01X637997Y-180442D01*
G01X636016Y-180188D01*
G37*
G36*
G01X887984Y-180086D02*
G01X885952Y-180188D01*
G01X883971Y-180442D01*
G01X882091Y-180950D01*
G01X880262Y-181610D01*
G01X878484Y-182474D01*
G01X876859Y-183490D01*
G01X875335Y-184607D01*
G01X873912Y-185877D01*
G01X872592Y-187300D01*
G01X871474Y-188874D01*
G01X870458Y-190500D01*
G01X869645Y-192227D01*
G01X868934Y-194056D01*
G01X868477Y-195986D01*
G01X868172Y-197968D01*
G01X868070Y-200000D01*
G01X871372D01*
G01X871474Y-198323D01*
G01X871728Y-196647D01*
G01X872134Y-195072D01*
G01X872693Y-193548D01*
G01X873404Y-192075D01*
G01X874217Y-190703D01*
G01X875182Y-189433D01*
G01X876249Y-188265D01*
G01X877418Y-187198D01*
G01X878738Y-186233D01*
G01X880110Y-185369D01*
G01X881532Y-184709D01*
G01X883056Y-184150D01*
G01X884631Y-183744D01*
G01X886308Y-183490D01*
G01X887984Y-183388D01*
G01X889711Y-183490D01*
G01X891337Y-183744D01*
G01X892912Y-184150D01*
G01X894486Y-184709D01*
G01X895909Y-185369D01*
G01X897280Y-186233D01*
G01X898550Y-187198D01*
G01X899719Y-188265D01*
G01X900836Y-189433D01*
G01X901751Y-190703D01*
G01X902614Y-192075D01*
G01X903326Y-193548D01*
G01X903884Y-195072D01*
G01X904291Y-196647D01*
G01X904545Y-198323D01*
G01X904596Y-200000D01*
G01X904545Y-201676D01*
G01X904291Y-203352D01*
G01X903884Y-204927D01*
G01X903326Y-206451D01*
G01X902614Y-207924D01*
G01X901751Y-209296D01*
G01X900836Y-210566D01*
G01X899719Y-211734D01*
G01X898550Y-212801D01*
G01X897280Y-213766D01*
G01X895909Y-214630D01*
G01X894486Y-215290D01*
G01X892912Y-215849D01*
G01X891337Y-216256D01*
G01X889711Y-216510D01*
G01X887984Y-216611D01*
G01X886308Y-216510D01*
G01X884631Y-216256D01*
G01X883056Y-215849D01*
G01X881532Y-215290D01*
G01X880110Y-214630D01*
G01X878738Y-213766D01*
G01X877418Y-212801D01*
G01X876249Y-211734D01*
G01X875182Y-210566D01*
G01X874217Y-209296D01*
G01X873404Y-207924D01*
G01X872693Y-206451D01*
G01X872134Y-204927D01*
G01X871728Y-203352D01*
G01X871474Y-201676D01*
G01X871372Y-200000D01*
G01X868070D01*
G01X868172Y-202032D01*
G01X868477Y-204013D01*
G01X868934Y-205943D01*
G01X869645Y-207772D01*
G01X870458Y-209499D01*
G01X871474Y-211125D01*
G01X872592Y-212700D01*
G01X873912Y-214122D01*
G01X875335Y-215392D01*
G01X876859Y-216510D01*
G01X878484Y-217526D01*
G01X880262Y-218389D01*
G01X882091Y-219050D01*
G01X883971Y-219558D01*
G01X885952Y-219812D01*
G01X887984Y-219964D01*
G01X890016Y-219812D01*
G01X891997Y-219558D01*
G01X893928Y-219050D01*
G01X895756Y-218389D01*
G01X897484Y-217526D01*
G01X899160Y-216510D01*
G01X900684Y-215392D01*
G01X902106Y-214122D01*
G01X903376Y-212700D01*
G01X904545Y-211125D01*
G01X905510Y-209499D01*
G01X906374Y-207772D01*
G01X907034Y-205943D01*
G01X907542Y-204013D01*
G01X907847Y-202032D01*
G01X907948Y-200000D01*
G01X907847Y-197968D01*
G01X907542Y-195986D01*
G01X907034Y-194056D01*
G01X906374Y-192227D01*
G01X905510Y-190500D01*
G01X904545Y-188874D01*
G01X903376Y-187300D01*
G01X902106Y-185877D01*
G01X900684Y-184607D01*
G01X899160Y-183490D01*
G01X897484Y-182474D01*
G01X895756Y-181610D01*
G01X893928Y-180950D01*
G01X891997Y-180442D01*
G01X890016Y-180188D01*
G37*
G36*
G01X1141984Y-180086D02*
G01X1139952Y-180188D01*
G01X1137971Y-180442D01*
G01X1136091Y-180950D01*
G01X1134262Y-181610D01*
G01X1132484Y-182474D01*
G01X1130859Y-183490D01*
G01X1129335Y-184607D01*
G01X1127912Y-185877D01*
G01X1126592Y-187300D01*
G01X1125474Y-188874D01*
G01X1124458Y-190500D01*
G01X1123645Y-192227D01*
G01X1122934Y-194056D01*
G01X1122477Y-195986D01*
G01X1122172Y-197968D01*
G01X1122070Y-200000D01*
G01X1125372D01*
G01X1125474Y-198323D01*
G01X1125728Y-196647D01*
G01X1126134Y-195072D01*
G01X1126693Y-193548D01*
G01X1127404Y-192075D01*
G01X1128217Y-190703D01*
G01X1129182Y-189433D01*
G01X1130249Y-188265D01*
G01X1131418Y-187198D01*
G01X1132738Y-186233D01*
G01X1134110Y-185369D01*
G01X1135532Y-184709D01*
G01X1137056Y-184150D01*
G01X1138631Y-183744D01*
G01X1140308Y-183490D01*
G01X1141984Y-183388D01*
G01X1143711Y-183490D01*
G01X1145337Y-183744D01*
G01X1146912Y-184150D01*
G01X1148486Y-184709D01*
G01X1149909Y-185369D01*
G01X1151280Y-186233D01*
G01X1152550Y-187198D01*
G01X1153719Y-188265D01*
G01X1154836Y-189433D01*
G01X1155751Y-190703D01*
G01X1156614Y-192075D01*
G01X1157326Y-193548D01*
G01X1157884Y-195072D01*
G01X1158291Y-196647D01*
G01X1158545Y-198323D01*
G01X1158596Y-200000D01*
G01X1158545Y-201676D01*
G01X1158291Y-203352D01*
G01X1157884Y-204927D01*
G01X1157326Y-206451D01*
G01X1156614Y-207924D01*
G01X1155751Y-209296D01*
G01X1154836Y-210566D01*
G01X1153719Y-211734D01*
G01X1152550Y-212801D01*
G01X1151280Y-213766D01*
G01X1149909Y-214630D01*
G01X1148486Y-215290D01*
G01X1146912Y-215849D01*
G01X1145337Y-216256D01*
G01X1143711Y-216510D01*
G01X1141984Y-216611D01*
G01X1140308Y-216510D01*
G01X1138631Y-216256D01*
G01X1137056Y-215849D01*
G01X1135532Y-215290D01*
G01X1134110Y-214630D01*
G01X1132738Y-213766D01*
G01X1131418Y-212801D01*
G01X1130249Y-211734D01*
G01X1129182Y-210566D01*
G01X1128217Y-209296D01*
G01X1127404Y-207924D01*
G01X1126693Y-206451D01*
G01X1126134Y-204927D01*
G01X1125728Y-203352D01*
G01X1125474Y-201676D01*
G01X1125372Y-200000D01*
G01X1122070D01*
G01X1122172Y-202032D01*
G01X1122477Y-204013D01*
G01X1122934Y-205943D01*
G01X1123645Y-207772D01*
G01X1124458Y-209499D01*
G01X1125474Y-211125D01*
G01X1126592Y-212700D01*
G01X1127912Y-214122D01*
G01X1129335Y-215392D01*
G01X1130859Y-216510D01*
G01X1132484Y-217526D01*
G01X1134262Y-218389D01*
G01X1136091Y-219050D01*
G01X1137971Y-219558D01*
G01X1139952Y-219812D01*
G01X1141984Y-219964D01*
G01X1144016Y-219812D01*
G01X1145997Y-219558D01*
G01X1147928Y-219050D01*
G01X1149756Y-218389D01*
G01X1151484Y-217526D01*
G01X1153160Y-216510D01*
G01X1154684Y-215392D01*
G01X1156106Y-214122D01*
G01X1157376Y-212700D01*
G01X1158545Y-211125D01*
G01X1159510Y-209499D01*
G01X1160374Y-207772D01*
G01X1161034Y-205943D01*
G01X1161542Y-204013D01*
G01X1161847Y-202032D01*
G01X1161948Y-200000D01*
G01X1161847Y-197968D01*
G01X1161542Y-195986D01*
G01X1161034Y-194056D01*
G01X1160374Y-192227D01*
G01X1159510Y-190500D01*
G01X1158545Y-188874D01*
G01X1157376Y-187300D01*
G01X1156106Y-185877D01*
G01X1154684Y-184607D01*
G01X1153160Y-183490D01*
G01X1151484Y-182474D01*
G01X1149756Y-181610D01*
G01X1147928Y-180950D01*
G01X1145997Y-180442D01*
G01X1144016Y-180188D01*
G37*
G36*
G01X1395984Y-180086D02*
G01X1393952Y-180188D01*
G01X1391971Y-180442D01*
G01X1390091Y-180950D01*
G01X1388262Y-181610D01*
G01X1386484Y-182474D01*
G01X1384859Y-183490D01*
G01X1383335Y-184607D01*
G01X1381912Y-185877D01*
G01X1380592Y-187300D01*
G01X1379474Y-188874D01*
G01X1378458Y-190500D01*
G01X1377645Y-192227D01*
G01X1376934Y-194056D01*
G01X1376477Y-195986D01*
G01X1376172Y-197968D01*
G01X1376070Y-200000D01*
G01X1379372D01*
G01X1379474Y-198323D01*
G01X1379728Y-196647D01*
G01X1380134Y-195072D01*
G01X1380693Y-193548D01*
G01X1381404Y-192075D01*
G01X1382217Y-190703D01*
G01X1383182Y-189433D01*
G01X1384249Y-188265D01*
G01X1385418Y-187198D01*
G01X1386738Y-186233D01*
G01X1388110Y-185369D01*
G01X1389532Y-184709D01*
G01X1391056Y-184150D01*
G01X1392631Y-183744D01*
G01X1394308Y-183490D01*
G01X1395984Y-183388D01*
G01X1397711Y-183490D01*
G01X1399337Y-183744D01*
G01X1400912Y-184150D01*
G01X1402486Y-184709D01*
G01X1403909Y-185369D01*
G01X1405280Y-186233D01*
G01X1406550Y-187198D01*
G01X1407719Y-188265D01*
G01X1408836Y-189433D01*
G01X1409751Y-190703D01*
G01X1410614Y-192075D01*
G01X1411326Y-193548D01*
G01X1411884Y-195072D01*
G01X1412291Y-196647D01*
G01X1412545Y-198323D01*
G01X1412596Y-200000D01*
G01X1412545Y-201676D01*
G01X1412291Y-203352D01*
G01X1411884Y-204927D01*
G01X1411326Y-206451D01*
G01X1410614Y-207924D01*
G01X1409751Y-209296D01*
G01X1408836Y-210566D01*
G01X1407719Y-211734D01*
G01X1406550Y-212801D01*
G01X1405280Y-213766D01*
G01X1403909Y-214630D01*
G01X1402486Y-215290D01*
G01X1400912Y-215849D01*
G01X1399337Y-216256D01*
G01X1397711Y-216510D01*
G01X1395984Y-216611D01*
G01X1394308Y-216510D01*
G01X1392631Y-216256D01*
G01X1391056Y-215849D01*
G01X1389532Y-215290D01*
G01X1388110Y-214630D01*
G01X1386738Y-213766D01*
G01X1385418Y-212801D01*
G01X1384249Y-211734D01*
G01X1383182Y-210566D01*
G01X1382217Y-209296D01*
G01X1381404Y-207924D01*
G01X1380693Y-206451D01*
G01X1380134Y-204927D01*
G01X1379728Y-203352D01*
G01X1379474Y-201676D01*
G01X1379372Y-200000D01*
G01X1376070D01*
G01X1376172Y-202032D01*
G01X1376477Y-204013D01*
G01X1376934Y-205943D01*
G01X1377645Y-207772D01*
G01X1378458Y-209499D01*
G01X1379474Y-211125D01*
G01X1380592Y-212700D01*
G01X1381912Y-214122D01*
G01X1383335Y-215392D01*
G01X1384859Y-216510D01*
G01X1386484Y-217526D01*
G01X1388262Y-218389D01*
G01X1390091Y-219050D01*
G01X1391971Y-219558D01*
G01X1393952Y-219812D01*
G01X1395984Y-219964D01*
G01X1398016Y-219812D01*
G01X1399997Y-219558D01*
G01X1401928Y-219050D01*
G01X1403756Y-218389D01*
G01X1405484Y-217526D01*
G01X1407160Y-216510D01*
G01X1408684Y-215392D01*
G01X1410106Y-214122D01*
G01X1411376Y-212700D01*
G01X1412545Y-211125D01*
G01X1413510Y-209499D01*
G01X1414374Y-207772D01*
G01X1415034Y-205943D01*
G01X1415542Y-204013D01*
G01X1415847Y-202032D01*
G01X1415948Y-200000D01*
G01X1415847Y-197968D01*
G01X1415542Y-195986D01*
G01X1415034Y-194056D01*
G01X1414374Y-192227D01*
G01X1413510Y-190500D01*
G01X1412545Y-188874D01*
G01X1411376Y-187300D01*
G01X1410106Y-185877D01*
G01X1408684Y-184607D01*
G01X1407160Y-183490D01*
G01X1405484Y-182474D01*
G01X1403756Y-181610D01*
G01X1401928Y-180950D01*
G01X1399997Y-180442D01*
G01X1398016Y-180188D01*
G37*
G36*
G01X1649984Y-180086D02*
G01X1647952Y-180188D01*
G01X1645971Y-180442D01*
G01X1644091Y-180950D01*
G01X1642262Y-181610D01*
G01X1640484Y-182474D01*
G01X1638859Y-183490D01*
G01X1637335Y-184607D01*
G01X1635912Y-185877D01*
G01X1634592Y-187300D01*
G01X1633474Y-188874D01*
G01X1632458Y-190500D01*
G01X1631645Y-192227D01*
G01X1630934Y-194056D01*
G01X1630477Y-195986D01*
G01X1630172Y-197968D01*
G01X1630070Y-200000D01*
G01X1633372D01*
G01X1633474Y-198323D01*
G01X1633728Y-196647D01*
G01X1634134Y-195072D01*
G01X1634693Y-193548D01*
G01X1635404Y-192075D01*
G01X1636217Y-190703D01*
G01X1637182Y-189433D01*
G01X1638249Y-188265D01*
G01X1639418Y-187198D01*
G01X1640738Y-186233D01*
G01X1642110Y-185369D01*
G01X1643532Y-184709D01*
G01X1645056Y-184150D01*
G01X1646631Y-183744D01*
G01X1648308Y-183490D01*
G01X1649984Y-183388D01*
G01X1651711Y-183490D01*
G01X1653337Y-183744D01*
G01X1654912Y-184150D01*
G01X1656486Y-184709D01*
G01X1657909Y-185369D01*
G01X1659280Y-186233D01*
G01X1660550Y-187198D01*
G01X1661719Y-188265D01*
G01X1662836Y-189433D01*
G01X1663751Y-190703D01*
G01X1664614Y-192075D01*
G01X1665326Y-193548D01*
G01X1665884Y-195072D01*
G01X1666291Y-196647D01*
G01X1666545Y-198323D01*
G01X1666596Y-200000D01*
G01X1666545Y-201676D01*
G01X1666291Y-203352D01*
G01X1665884Y-204927D01*
G01X1665326Y-206451D01*
G01X1664614Y-207924D01*
G01X1663751Y-209296D01*
G01X1662836Y-210566D01*
G01X1661719Y-211734D01*
G01X1660550Y-212801D01*
G01X1659280Y-213766D01*
G01X1657909Y-214630D01*
G01X1656486Y-215290D01*
G01X1654912Y-215849D01*
G01X1653337Y-216256D01*
G01X1651711Y-216510D01*
G01X1649984Y-216611D01*
G01X1648308Y-216510D01*
G01X1646631Y-216256D01*
G01X1645056Y-215849D01*
G01X1643532Y-215290D01*
G01X1642110Y-214630D01*
G01X1640738Y-213766D01*
G01X1639418Y-212801D01*
G01X1638249Y-211734D01*
G01X1637182Y-210566D01*
G01X1636217Y-209296D01*
G01X1635404Y-207924D01*
G01X1634693Y-206451D01*
G01X1634134Y-204927D01*
G01X1633728Y-203352D01*
G01X1633474Y-201676D01*
G01X1633372Y-200000D01*
G01X1630070D01*
G01X1630172Y-202032D01*
G01X1630477Y-204013D01*
G01X1630934Y-205943D01*
G01X1631645Y-207772D01*
G01X1632458Y-209499D01*
G01X1633474Y-211125D01*
G01X1634592Y-212700D01*
G01X1635912Y-214122D01*
G01X1637335Y-215392D01*
G01X1638859Y-216510D01*
G01X1640484Y-217526D01*
G01X1642262Y-218389D01*
G01X1644091Y-219050D01*
G01X1645971Y-219558D01*
G01X1647952Y-219812D01*
G01X1649984Y-219964D01*
G01X1652016Y-219812D01*
G01X1653997Y-219558D01*
G01X1655928Y-219050D01*
G01X1657756Y-218389D01*
G01X1659484Y-217526D01*
G01X1661160Y-216510D01*
G01X1662684Y-215392D01*
G01X1664106Y-214122D01*
G01X1665376Y-212700D01*
G01X1666545Y-211125D01*
G01X1667510Y-209499D01*
G01X1668374Y-207772D01*
G01X1669034Y-205943D01*
G01X1669542Y-204013D01*
G01X1669847Y-202032D01*
G01X1669948Y-200000D01*
G01X1669847Y-197968D01*
G01X1669542Y-195986D01*
G01X1669034Y-194056D01*
G01X1668374Y-192227D01*
G01X1667510Y-190500D01*
G01X1666545Y-188874D01*
G01X1665376Y-187300D01*
G01X1664106Y-185877D01*
G01X1662684Y-184607D01*
G01X1661160Y-183490D01*
G01X1659484Y-182474D01*
G01X1657756Y-181610D01*
G01X1655928Y-180950D01*
G01X1653997Y-180442D01*
G01X1652016Y-180188D01*
G37*
G36*
G01X1903984Y-180086D02*
G01X1901952Y-180188D01*
G01X1899971Y-180442D01*
G01X1898091Y-180950D01*
G01X1896262Y-181610D01*
G01X1894484Y-182474D01*
G01X1892859Y-183490D01*
G01X1891335Y-184607D01*
G01X1889912Y-185877D01*
G01X1888592Y-187300D01*
G01X1887474Y-188874D01*
G01X1886458Y-190500D01*
G01X1885645Y-192227D01*
G01X1884934Y-194056D01*
G01X1884477Y-195986D01*
G01X1884172Y-197968D01*
G01X1884070Y-200000D01*
G01X1887372D01*
G01X1887474Y-198323D01*
G01X1887728Y-196647D01*
G01X1888134Y-195072D01*
G01X1888693Y-193548D01*
G01X1889404Y-192075D01*
G01X1890217Y-190703D01*
G01X1891182Y-189433D01*
G01X1892249Y-188265D01*
G01X1893418Y-187198D01*
G01X1894738Y-186233D01*
G01X1896110Y-185369D01*
G01X1897532Y-184709D01*
G01X1899056Y-184150D01*
G01X1900631Y-183744D01*
G01X1902308Y-183490D01*
G01X1903984Y-183388D01*
G01X1905711Y-183490D01*
G01X1907337Y-183744D01*
G01X1908912Y-184150D01*
G01X1910486Y-184709D01*
G01X1911909Y-185369D01*
G01X1913280Y-186233D01*
G01X1914550Y-187198D01*
G01X1915719Y-188265D01*
G01X1916836Y-189433D01*
G01X1917751Y-190703D01*
G01X1918614Y-192075D01*
G01X1919326Y-193548D01*
G01X1919884Y-195072D01*
G01X1920291Y-196647D01*
G01X1920545Y-198323D01*
G01X1920596Y-200000D01*
G01X1920545Y-201676D01*
G01X1920291Y-203352D01*
G01X1919884Y-204927D01*
G01X1919326Y-206451D01*
G01X1918614Y-207924D01*
G01X1917751Y-209296D01*
G01X1916836Y-210566D01*
G01X1915719Y-211734D01*
G01X1914550Y-212801D01*
G01X1913280Y-213766D01*
G01X1911909Y-214630D01*
G01X1910486Y-215290D01*
G01X1908912Y-215849D01*
G01X1907337Y-216256D01*
G01X1905711Y-216510D01*
G01X1903984Y-216611D01*
G01X1902308Y-216510D01*
G01X1900631Y-216256D01*
G01X1899056Y-215849D01*
G01X1897532Y-215290D01*
G01X1896110Y-214630D01*
G01X1894738Y-213766D01*
G01X1893418Y-212801D01*
G01X1892249Y-211734D01*
G01X1891182Y-210566D01*
G01X1890217Y-209296D01*
G01X1889404Y-207924D01*
G01X1888693Y-206451D01*
G01X1888134Y-204927D01*
G01X1887728Y-203352D01*
G01X1887474Y-201676D01*
G01X1887372Y-200000D01*
G01X1884070D01*
G01X1884172Y-202032D01*
G01X1884477Y-204013D01*
G01X1884934Y-205943D01*
G01X1885645Y-207772D01*
G01X1886458Y-209499D01*
G01X1887474Y-211125D01*
G01X1888592Y-212700D01*
G01X1889912Y-214122D01*
G01X1891335Y-215392D01*
G01X1892859Y-216510D01*
G01X1894484Y-217526D01*
G01X1896262Y-218389D01*
G01X1898091Y-219050D01*
G01X1899971Y-219558D01*
G01X1901952Y-219812D01*
G01X1903984Y-219964D01*
G01X1906016Y-219812D01*
G01X1907997Y-219558D01*
G01X1909928Y-219050D01*
G01X1911756Y-218389D01*
G01X1913484Y-217526D01*
G01X1915160Y-216510D01*
G01X1916684Y-215392D01*
G01X1918106Y-214122D01*
G01X1919376Y-212700D01*
G01X1920545Y-211125D01*
G01X1921510Y-209499D01*
G01X1922374Y-207772D01*
G01X1923034Y-205943D01*
G01X1923542Y-204013D01*
G01X1923847Y-202032D01*
G01X1923948Y-200000D01*
G01X1923847Y-197968D01*
G01X1923542Y-195986D01*
G01X1923034Y-194056D01*
G01X1922374Y-192227D01*
G01X1921510Y-190500D01*
G01X1920545Y-188874D01*
G01X1919376Y-187300D01*
G01X1918106Y-185877D01*
G01X1916684Y-184607D01*
G01X1915160Y-183490D01*
G01X1913484Y-182474D01*
G01X1911756Y-181610D01*
G01X1909928Y-180950D01*
G01X1907997Y-180442D01*
G01X1906016Y-180188D01*
G37*
G36*
G01X2157984Y-180086D02*
G01X2155952Y-180188D01*
G01X2153971Y-180442D01*
G01X2152091Y-180950D01*
G01X2150262Y-181610D01*
G01X2148484Y-182474D01*
G01X2146859Y-183490D01*
G01X2145335Y-184607D01*
G01X2143912Y-185877D01*
G01X2142592Y-187300D01*
G01X2141474Y-188874D01*
G01X2140458Y-190500D01*
G01X2139645Y-192227D01*
G01X2138934Y-194056D01*
G01X2138477Y-195986D01*
G01X2138172Y-197968D01*
G01X2138070Y-200000D01*
G01X2141372D01*
G01X2141474Y-198323D01*
G01X2141728Y-196647D01*
G01X2142134Y-195072D01*
G01X2142693Y-193548D01*
G01X2143404Y-192075D01*
G01X2144217Y-190703D01*
G01X2145182Y-189433D01*
G01X2146249Y-188265D01*
G01X2147418Y-187198D01*
G01X2148738Y-186233D01*
G01X2150110Y-185369D01*
G01X2151532Y-184709D01*
G01X2153056Y-184150D01*
G01X2154631Y-183744D01*
G01X2156308Y-183490D01*
G01X2157984Y-183388D01*
G01X2159711Y-183490D01*
G01X2161337Y-183744D01*
G01X2162912Y-184150D01*
G01X2164486Y-184709D01*
G01X2165909Y-185369D01*
G01X2167280Y-186233D01*
G01X2168550Y-187198D01*
G01X2169719Y-188265D01*
G01X2170836Y-189433D01*
G01X2171751Y-190703D01*
G01X2172614Y-192075D01*
G01X2173326Y-193548D01*
G01X2173884Y-195072D01*
G01X2174291Y-196647D01*
G01X2174545Y-198323D01*
G01X2174596Y-200000D01*
G01X2174545Y-201676D01*
G01X2174291Y-203352D01*
G01X2173884Y-204927D01*
G01X2173326Y-206451D01*
G01X2172614Y-207924D01*
G01X2171751Y-209296D01*
G01X2170836Y-210566D01*
G01X2169719Y-211734D01*
G01X2168550Y-212801D01*
G01X2167280Y-213766D01*
G01X2165909Y-214630D01*
G01X2164486Y-215290D01*
G01X2162912Y-215849D01*
G01X2161337Y-216256D01*
G01X2159711Y-216510D01*
G01X2157984Y-216611D01*
G01X2156308Y-216510D01*
G01X2154631Y-216256D01*
G01X2153056Y-215849D01*
G01X2151532Y-215290D01*
G01X2150110Y-214630D01*
G01X2148738Y-213766D01*
G01X2147418Y-212801D01*
G01X2146249Y-211734D01*
G01X2145182Y-210566D01*
G01X2144217Y-209296D01*
G01X2143404Y-207924D01*
G01X2142693Y-206451D01*
G01X2142134Y-204927D01*
G01X2141728Y-203352D01*
G01X2141474Y-201676D01*
G01X2141372Y-200000D01*
G01X2138070D01*
G01X2138172Y-202032D01*
G01X2138477Y-204013D01*
G01X2138934Y-205943D01*
G01X2139645Y-207772D01*
G01X2140458Y-209499D01*
G01X2141474Y-211125D01*
G01X2142592Y-212700D01*
G01X2143912Y-214122D01*
G01X2145335Y-215392D01*
G01X2146859Y-216510D01*
G01X2148484Y-217526D01*
G01X2150262Y-218389D01*
G01X2152091Y-219050D01*
G01X2153971Y-219558D01*
G01X2155952Y-219812D01*
G01X2157984Y-219964D01*
G01X2160016Y-219812D01*
G01X2161997Y-219558D01*
G01X2163928Y-219050D01*
G01X2165756Y-218389D01*
G01X2167484Y-217526D01*
G01X2169160Y-216510D01*
G01X2170684Y-215392D01*
G01X2172106Y-214122D01*
G01X2173376Y-212700D01*
G01X2174545Y-211125D01*
G01X2175510Y-209499D01*
G01X2176374Y-207772D01*
G01X2177034Y-205943D01*
G01X2177542Y-204013D01*
G01X2177847Y-202032D01*
G01X2177948Y-200000D01*
G01X2177847Y-197968D01*
G01X2177542Y-195986D01*
G01X2177034Y-194056D01*
G01X2176374Y-192227D01*
G01X2175510Y-190500D01*
G01X2174545Y-188874D01*
G01X2173376Y-187300D01*
G01X2172106Y-185877D01*
G01X2170684Y-184607D01*
G01X2169160Y-183490D01*
G01X2167484Y-182474D01*
G01X2165756Y-181610D01*
G01X2163928Y-180950D01*
G01X2161997Y-180442D01*
G01X2160016Y-180188D01*
G37*
G36*
G01X2411984Y-180086D02*
G01X2409952Y-180188D01*
G01X2407971Y-180442D01*
G01X2406091Y-180950D01*
G01X2404262Y-181610D01*
G01X2402484Y-182474D01*
G01X2400859Y-183490D01*
G01X2399335Y-184607D01*
G01X2397912Y-185877D01*
G01X2396592Y-187300D01*
G01X2395474Y-188874D01*
G01X2394458Y-190500D01*
G01X2393645Y-192227D01*
G01X2392934Y-194056D01*
G01X2392477Y-195986D01*
G01X2392172Y-197968D01*
G01X2392070Y-200000D01*
G01X2395372D01*
G01X2395474Y-198323D01*
G01X2395728Y-196647D01*
G01X2396134Y-195072D01*
G01X2396693Y-193548D01*
G01X2397404Y-192075D01*
G01X2398217Y-190703D01*
G01X2399182Y-189433D01*
G01X2400249Y-188265D01*
G01X2401418Y-187198D01*
G01X2402738Y-186233D01*
G01X2404110Y-185369D01*
G01X2405532Y-184709D01*
G01X2407056Y-184150D01*
G01X2408631Y-183744D01*
G01X2410308Y-183490D01*
G01X2411984Y-183388D01*
G01X2413711Y-183490D01*
G01X2415337Y-183744D01*
G01X2416912Y-184150D01*
G01X2418486Y-184709D01*
G01X2419909Y-185369D01*
G01X2421280Y-186233D01*
G01X2422550Y-187198D01*
G01X2423719Y-188265D01*
G01X2424836Y-189433D01*
G01X2425751Y-190703D01*
G01X2426614Y-192075D01*
G01X2427326Y-193548D01*
G01X2427884Y-195072D01*
G01X2428291Y-196647D01*
G01X2428545Y-198323D01*
G01X2428596Y-200000D01*
G01X2428545Y-201676D01*
G01X2428291Y-203352D01*
G01X2427884Y-204927D01*
G01X2427326Y-206451D01*
G01X2426614Y-207924D01*
G01X2425751Y-209296D01*
G01X2424836Y-210566D01*
G01X2423719Y-211734D01*
G01X2422550Y-212801D01*
G01X2421280Y-213766D01*
G01X2419909Y-214630D01*
G01X2418486Y-215290D01*
G01X2416912Y-215849D01*
G01X2415337Y-216256D01*
G01X2413711Y-216510D01*
G01X2411984Y-216611D01*
G01X2410308Y-216510D01*
G01X2408631Y-216256D01*
G01X2407056Y-215849D01*
G01X2405532Y-215290D01*
G01X2404110Y-214630D01*
G01X2402738Y-213766D01*
G01X2401418Y-212801D01*
G01X2400249Y-211734D01*
G01X2399182Y-210566D01*
G01X2398217Y-209296D01*
G01X2397404Y-207924D01*
G01X2396693Y-206451D01*
G01X2396134Y-204927D01*
G01X2395728Y-203352D01*
G01X2395474Y-201676D01*
G01X2395372Y-200000D01*
G01X2392070D01*
G01X2392172Y-202032D01*
G01X2392477Y-204013D01*
G01X2392934Y-205943D01*
G01X2393645Y-207772D01*
G01X2394458Y-209499D01*
G01X2395474Y-211125D01*
G01X2396592Y-212700D01*
G01X2397912Y-214122D01*
G01X2399335Y-215392D01*
G01X2400859Y-216510D01*
G01X2402484Y-217526D01*
G01X2404262Y-218389D01*
G01X2406091Y-219050D01*
G01X2407971Y-219558D01*
G01X2409952Y-219812D01*
G01X2411984Y-219964D01*
G01X2414016Y-219812D01*
G01X2415997Y-219558D01*
G01X2417928Y-219050D01*
G01X2419756Y-218389D01*
G01X2421484Y-217526D01*
G01X2423160Y-216510D01*
G01X2424684Y-215392D01*
G01X2426106Y-214122D01*
G01X2427376Y-212700D01*
G01X2428545Y-211125D01*
G01X2429510Y-209499D01*
G01X2430374Y-207772D01*
G01X2431034Y-205943D01*
G01X2431542Y-204013D01*
G01X2431847Y-202032D01*
G01X2431948Y-200000D01*
G01X2431847Y-197968D01*
G01X2431542Y-195986D01*
G01X2431034Y-194056D01*
G01X2430374Y-192227D01*
G01X2429510Y-190500D01*
G01X2428545Y-188874D01*
G01X2427376Y-187300D01*
G01X2426106Y-185877D01*
G01X2424684Y-184607D01*
G01X2423160Y-183490D01*
G01X2421484Y-182474D01*
G01X2419756Y-181610D01*
G01X2417928Y-180950D01*
G01X2415997Y-180442D01*
G01X2414016Y-180188D01*
G37*
G36*
G01X2665984Y-180086D02*
G01X2663952Y-180188D01*
G01X2661971Y-180442D01*
G01X2660091Y-180950D01*
G01X2658262Y-181610D01*
G01X2656484Y-182474D01*
G01X2654859Y-183490D01*
G01X2653335Y-184607D01*
G01X2651912Y-185877D01*
G01X2650592Y-187300D01*
G01X2649474Y-188874D01*
G01X2648458Y-190500D01*
G01X2647645Y-192227D01*
G01X2646934Y-194056D01*
G01X2646477Y-195986D01*
G01X2646172Y-197968D01*
G01X2646070Y-200000D01*
G01X2649372D01*
G01X2649474Y-198323D01*
G01X2649728Y-196647D01*
G01X2650134Y-195072D01*
G01X2650693Y-193548D01*
G01X2651404Y-192075D01*
G01X2652217Y-190703D01*
G01X2653182Y-189433D01*
G01X2654249Y-188265D01*
G01X2655418Y-187198D01*
G01X2656738Y-186233D01*
G01X2658110Y-185369D01*
G01X2659532Y-184709D01*
G01X2661056Y-184150D01*
G01X2662631Y-183744D01*
G01X2664308Y-183490D01*
G01X2665984Y-183388D01*
G01X2667711Y-183490D01*
G01X2669337Y-183744D01*
G01X2670912Y-184150D01*
G01X2672486Y-184709D01*
G01X2673909Y-185369D01*
G01X2675280Y-186233D01*
G01X2676550Y-187198D01*
G01X2677719Y-188265D01*
G01X2678836Y-189433D01*
G01X2679751Y-190703D01*
G01X2680614Y-192075D01*
G01X2681326Y-193548D01*
G01X2681884Y-195072D01*
G01X2682291Y-196647D01*
G01X2682545Y-198323D01*
G01X2682596Y-200000D01*
G01X2682545Y-201676D01*
G01X2682291Y-203352D01*
G01X2681884Y-204927D01*
G01X2681326Y-206451D01*
G01X2680614Y-207924D01*
G01X2679751Y-209296D01*
G01X2678836Y-210566D01*
G01X2677719Y-211734D01*
G01X2676550Y-212801D01*
G01X2675280Y-213766D01*
G01X2673909Y-214630D01*
G01X2672486Y-215290D01*
G01X2670912Y-215849D01*
G01X2669337Y-216256D01*
G01X2667711Y-216510D01*
G01X2665984Y-216611D01*
G01X2664308Y-216510D01*
G01X2662631Y-216256D01*
G01X2661056Y-215849D01*
G01X2659532Y-215290D01*
G01X2658110Y-214630D01*
G01X2656738Y-213766D01*
G01X2655418Y-212801D01*
G01X2654249Y-211734D01*
G01X2653182Y-210566D01*
G01X2652217Y-209296D01*
G01X2651404Y-207924D01*
G01X2650693Y-206451D01*
G01X2650134Y-204927D01*
G01X2649728Y-203352D01*
G01X2649474Y-201676D01*
G01X2649372Y-200000D01*
G01X2646070D01*
G01X2646172Y-202032D01*
G01X2646477Y-204013D01*
G01X2646934Y-205943D01*
G01X2647645Y-207772D01*
G01X2648458Y-209499D01*
G01X2649474Y-211125D01*
G01X2650592Y-212700D01*
G01X2651912Y-214122D01*
G01X2653335Y-215392D01*
G01X2654859Y-216510D01*
G01X2656484Y-217526D01*
G01X2658262Y-218389D01*
G01X2660091Y-219050D01*
G01X2661971Y-219558D01*
G01X2663952Y-219812D01*
G01X2665984Y-219964D01*
G01X2668016Y-219812D01*
G01X2669997Y-219558D01*
G01X2671928Y-219050D01*
G01X2673756Y-218389D01*
G01X2675484Y-217526D01*
G01X2677160Y-216510D01*
G01X2678684Y-215392D01*
G01X2680106Y-214122D01*
G01X2681376Y-212700D01*
G01X2682545Y-211125D01*
G01X2683510Y-209499D01*
G01X2684374Y-207772D01*
G01X2685034Y-205943D01*
G01X2685542Y-204013D01*
G01X2685847Y-202032D01*
G01X2685948Y-200000D01*
G01X2685847Y-197968D01*
G01X2685542Y-195986D01*
G01X2685034Y-194056D01*
G01X2684374Y-192227D01*
G01X2683510Y-190500D01*
G01X2682545Y-188874D01*
G01X2681376Y-187300D01*
G01X2680106Y-185877D01*
G01X2678684Y-184607D01*
G01X2677160Y-183490D01*
G01X2675484Y-182474D01*
G01X2673756Y-181610D01*
G01X2671928Y-180950D01*
G01X2669997Y-180442D01*
G01X2668016Y-180188D01*
G37*
G36*
G01X665886Y-1468628D02*
G01X667817Y-1471981D01*
G01X671627D01*
G01X699973D01*
G01X692912Y-1484224D01*
G01X685800Y-1496517D01*
G01X678688Y-1484224D01*
G01X671627Y-1471981D01*
G01X667817D01*
G01X685800Y-1503172D01*
G01X695757Y-1485900D01*
G01X705764Y-1468628D01*
G37*
G36*
G01X716686Y-1405128D02*
G01X718617Y-1408481D01*
G01X722427D01*
G01X750773D01*
G01X743712Y-1420724D01*
G01X736600Y-1433017D01*
G01X729488Y-1420724D01*
G01X722427Y-1408481D01*
G01X718617D01*
G01X736600Y-1439672D01*
G01X746557Y-1422400D01*
G01X756564Y-1405128D01*
G37*
G36*
G01X780186Y-1468628D02*
G01X782117Y-1471981D01*
G01X785927D01*
G01X814273D01*
G01X807212Y-1484224D01*
G01X800100Y-1496517D01*
G01X792988Y-1484224D01*
G01X785927Y-1471981D01*
G01X782117D01*
G01X800100Y-1503172D01*
G01X820014Y-1468628D01*
G37*
G36*
G01X2233473Y-1062228D02*
G01X2235403Y-1065581D01*
G01X2239213D01*
G01X2267560D01*
G01X2260498Y-1077824D01*
G01X2253386Y-1090117D01*
G01X2246325Y-1077824D01*
G01X2239213Y-1065581D01*
G01X2235403D01*
G01X2253386Y-1096772D01*
G01X2263394Y-1079500D01*
G01X2273351Y-1062228D01*
G37*
G36*
G01X2233473Y-973328D02*
G01X2235403Y-976681D01*
G01X2239213D01*
G01X2267560D01*
G01X2260498Y-988924D01*
G01X2253386Y-1001217D01*
G01X2246325Y-988924D01*
G01X2239213Y-976681D01*
G01X2235403D01*
G01X2253386Y-1007872D01*
G01X2263394Y-990600D01*
G01X2273351Y-973328D01*
G37*
G36*
G01X856336Y-846328D02*
G01X858266Y-849681D01*
G01X862127D01*
G01X890473D01*
G01X883412Y-861924D01*
G01X876300Y-874217D01*
G01X869188Y-861924D01*
G01X862127Y-849681D01*
G01X858266D01*
G01X866343Y-863600D01*
G01X876300Y-880872D01*
G01X886257Y-863600D01*
G01X896264Y-846328D01*
G37*
G36*
G01X1115873Y-1189228D02*
G01X1117803Y-1192581D01*
G01X1121613D01*
G01X1149960D01*
G01X1142898Y-1204824D01*
G01X1135786Y-1217117D01*
G01X1128725Y-1204824D01*
G01X1121613Y-1192581D01*
G01X1117803D01*
G01X1135786Y-1223772D01*
G01X1145794Y-1206500D01*
G01X1155751Y-1189228D01*
G37*
G36*
G01X1065073Y-1011428D02*
G01X1067003Y-1014781D01*
G01X1070813D01*
G01X1099160D01*
G01X1092098Y-1027024D01*
G01X1084986Y-1039317D01*
G01X1077925Y-1027024D01*
G01X1070813Y-1014781D01*
G01X1067003D01*
G01X1084986Y-1045972D01*
G01X1094994Y-1028700D01*
G01X1104951Y-1011428D01*
G37*
G36*
G01X950773Y-935228D02*
G01X952703Y-938581D01*
G01X956513D01*
G01X984860D01*
G01X977798Y-950824D01*
G01X970686Y-963117D01*
G01X963625Y-950824D01*
G01X956513Y-938581D01*
G01X952703D01*
G01X970686Y-969772D01*
G01X980694Y-952500D01*
G01X990651Y-935228D01*
G37*
G36*
G01X1613002Y-1205484D02*
G01X1614932Y-1208837D01*
G01X1618742D01*
G01X1647139D01*
G01X1640027Y-1221130D01*
G01X1632915Y-1233373D01*
G01X1625854Y-1221130D01*
G01X1618742Y-1208837D01*
G01X1614932D01*
G01X1632915Y-1240028D01*
G01X1642923Y-1222756D01*
G01X1652880Y-1205484D01*
G37*
G36*
G01X1828698Y-927710D02*
G01X1830629Y-931062D01*
G01X1834439D01*
G01X1862785D01*
G01X1855724Y-943305D01*
G01X1848612Y-955599D01*
G01X1841551Y-943305D01*
G01X1834439Y-931062D01*
G01X1830629D01*
G01X1848612Y-962254D01*
G01X1858569Y-944982D01*
G01X1868576Y-927710D01*
G37*
G36*
G01X1154735Y-911352D02*
G01X1156665Y-914705D01*
G01X1160475D01*
G01X1188872D01*
G01X1181760Y-926998D01*
G01X1174648Y-939241D01*
G01X1167587Y-926998D01*
G01X1160475Y-914705D01*
G01X1156665D01*
G01X1174648Y-945896D01*
G01X1184656Y-928624D01*
G01X1194613Y-911352D01*
G37*
G36*
G01X1623873Y-770128D02*
G01X1625803Y-773481D01*
G01X1629613D01*
G01X1657960D01*
G01X1650898Y-785724D01*
G01X1643786Y-798017D01*
G01X1636725Y-785724D01*
G01X1629613Y-773481D01*
G01X1625803D01*
G01X1643786Y-804672D01*
G01X1653794Y-787400D01*
G01X1663751Y-770128D01*
G37*
G36*
G01X1623873Y-859028D02*
G01X1625803Y-862381D01*
G01X1629613D01*
G01X1657960D01*
G01X1650898Y-874624D01*
G01X1643786Y-886917D01*
G01X1636725Y-874624D01*
G01X1629613Y-862381D01*
G01X1625803D01*
G01X1643786Y-893572D01*
G01X1653794Y-876300D01*
G01X1663751Y-859028D01*
G37*
G36*
G01X1527454Y-927710D02*
G01X1529385Y-931062D01*
G01X1533195D01*
G01X1561541D01*
G01X1554480Y-943305D01*
G01X1547368Y-955599D01*
G01X1540307Y-943305D01*
G01X1533195Y-931062D01*
G01X1529385D01*
G01X1547368Y-962254D01*
G01X1557376Y-944982D01*
G01X1567332Y-927710D01*
G37*
G36*
G01X1331773Y-1278128D02*
G01X1333703Y-1281481D01*
G01X1337513D01*
G01X1365860D01*
G01X1358798Y-1293724D01*
G01X1351686Y-1306017D01*
G01X1344625Y-1293724D01*
G01X1337513Y-1281481D01*
G01X1333703D01*
G01X1351686Y-1312672D01*
G01X1361694Y-1295400D01*
G01X1371651Y-1278128D01*
G37*
G36*
G01X1427836Y-795528D02*
G01X1429766Y-798881D01*
G01X1433627D01*
G01X1461973D01*
G01X1454912Y-811124D01*
G01X1447800Y-823417D01*
G01X1440688Y-811124D01*
G01X1433627Y-798881D01*
G01X1429766D01*
G01X1437843Y-812800D01*
G01X1447800Y-830072D01*
G01X1457757Y-812800D01*
G01X1467764Y-795528D01*
G37*
G36*
G01X1554836Y-566928D02*
G01X1556766Y-570281D01*
G01X1560627D01*
G01X1588973D01*
G01X1581912Y-582524D01*
G01X1574800Y-594817D01*
G01X1567688Y-582524D01*
G01X1560627Y-570281D01*
G01X1556766D01*
G01X1564843Y-584200D01*
G01X1574800Y-601472D01*
G01X1584757Y-584200D01*
G01X1594764Y-566928D01*
G37*
G36*
G01X1631086Y-566928D02*
G01X1633017Y-570281D01*
G01X1636827D01*
G01X1665173D01*
G01X1658112Y-582524D01*
G01X1651000Y-594817D01*
G01X1643888Y-582524D01*
G01X1636827Y-570281D01*
G01X1633017D01*
G01X1651000Y-601472D01*
G01X1660957Y-584200D01*
G01X1670964Y-566928D01*
G37*
G36*
G01X1488084Y-3982720D02*
G01X1490015Y-3986073D01*
G01X1493825D01*
G01X1522171D01*
G01X1515110Y-3998316D01*
G01X1507998Y-4010609D01*
G01X1500886Y-3998316D01*
G01X1493825Y-3986073D01*
G01X1490015D01*
G01X1507998Y-4017264D01*
G01X1517955Y-3999992D01*
G01X1527962Y-3982720D01*
G37*
G36*
G01X1772056Y-3982720D02*
G01X1773987Y-3986073D01*
G01X1777797D01*
G01X1806194D01*
G01X1799082Y-3998316D01*
G01X1792021Y-4010609D01*
G01X1784909Y-3998316D01*
G01X1777797Y-3986073D01*
G01X1773987D01*
G01X1782013Y-3999992D01*
G01X1792021Y-4017264D01*
G01X1811934Y-3982720D01*
G37*
G36*
G01X1796186Y-1519428D02*
G01X1798117Y-1522781D01*
G01X1801927D01*
G01X1830273D01*
G01X1823212Y-1535024D01*
G01X1816100Y-1547317D01*
G01X1808988Y-1535024D01*
G01X1801927Y-1522781D01*
G01X1798117D01*
G01X1816100Y-1553972D01*
G01X1826057Y-1536700D01*
G01X1836064Y-1519428D01*
G37*
G36*
G01X1912010Y-1519428D02*
G01X1913941Y-1522781D01*
G01X1917802D01*
G01X1946148D01*
G01X1939087Y-1535024D01*
G01X1931975Y-1547317D01*
G01X1924863Y-1535024D01*
G01X1917802Y-1522781D01*
G01X1913941D01*
G01X1922018Y-1536700D01*
G01X1931975Y-1553972D01*
G01X1951888Y-1519428D01*
G37*
G36*
G01X1859686Y-1468628D02*
G01X1861617Y-1471981D01*
G01X1865427D01*
G01X1893773D01*
G01X1886712Y-1484224D01*
G01X1879600Y-1496517D01*
G01X1872488Y-1484224D01*
G01X1865427Y-1471981D01*
G01X1861617D01*
G01X1879600Y-1503172D01*
G01X1889557Y-1485900D01*
G01X1899564Y-1468628D01*
G37*
G36*
G01X2774086Y-2967228D02*
G01X2776017Y-2970581D01*
G01X2779827D01*
G01X2808173D01*
G01X2801112Y-2982824D01*
G01X2794000Y-2995117D01*
G01X2786888Y-2982824D01*
G01X2779827Y-2970581D01*
G01X2776017D01*
G01X2794000Y-3001772D01*
G01X2803957Y-2984500D01*
G01X2813964Y-2967228D01*
G37*
G36*
G01X3028086Y-960628D02*
G01X3030017Y-963981D01*
G01X3033827D01*
G01X3062173D01*
G01X3055112Y-976224D01*
G01X3048000Y-988517D01*
G01X3040888Y-976224D01*
G01X3033827Y-963981D01*
G01X3030017D01*
G01X3048000Y-995172D01*
G01X3057957Y-977900D01*
G01X3067964Y-960628D01*
G37*
G36*
G01X996036Y-3729228D02*
G01X997966Y-3732581D01*
G01X1001827D01*
G01X1030173D01*
G01X1023112Y-3744824D01*
G01X1016000Y-3757117D01*
G01X1008888Y-3744824D01*
G01X1001827Y-3732581D01*
G01X997966D01*
G01X1006043Y-3746500D01*
G01X1016000Y-3763772D01*
G01X1025957Y-3746500D01*
G01X1035964Y-3729228D01*
G37*
G36*
G01X1099210Y-3729228D02*
G01X1101141Y-3732581D01*
G01X1105002D01*
G01X1133348D01*
G01X1126236Y-3744824D01*
G01X1119175Y-3757117D01*
G01X1112063Y-3744824D01*
G01X1105002Y-3732581D01*
G01X1101141D01*
G01X1109218Y-3746500D01*
G01X1119175Y-3763772D01*
G01X1139088Y-3729228D01*
G37*
G36*
G01X881736Y-3729228D02*
G01X883666Y-3732581D01*
G01X887527D01*
G01X915873D01*
G01X908812Y-3744824D01*
G01X901700Y-3757117D01*
G01X894588Y-3744824D01*
G01X887527Y-3732581D01*
G01X883666D01*
G01X891743Y-3746500D01*
G01X901700Y-3763772D01*
G01X911657Y-3746500D01*
G01X921664Y-3729228D01*
G37*
G36*
G01X881736Y-3614928D02*
G01X883666Y-3618281D01*
G01X887527D01*
G01X915873D01*
G01X908812Y-3630524D01*
G01X901700Y-3642817D01*
G01X894588Y-3630524D01*
G01X887527Y-3618281D01*
G01X883666D01*
G01X891743Y-3632200D01*
G01X901700Y-3649472D01*
G01X911657Y-3632200D01*
G01X921664Y-3614928D01*
G37*
G36*
G01X1097585Y-3618586D02*
G01X1099515Y-3621938D01*
G01X1103325D01*
G01X1131722D01*
G01X1124610Y-3634232D01*
G01X1117498Y-3646475D01*
G01X1110437Y-3634232D01*
G01X1103325Y-3621938D01*
G01X1099515D01*
G01X1117498Y-3653130D01*
G01X1127506Y-3635858D01*
G01X1137463Y-3618586D01*
G37*
G36*
G01X995883Y-3618586D02*
G01X997814Y-3621938D01*
G01X1001624D01*
G01X1030021D01*
G01X1022909Y-3634232D01*
G01X1015797Y-3646475D01*
G01X1008736Y-3634232D01*
G01X1001624Y-3621938D01*
G01X997814D01*
G01X1015797Y-3653130D01*
G01X1025804Y-3635858D01*
G01X1035761Y-3618586D01*
G37*
G36*
G01X995883Y-3503778D02*
G01X997763Y-3507080D01*
G01X1001624D01*
G01X1030021D01*
G01X1015797Y-3531667D01*
G01X1008736Y-3519373D01*
G01X1001624Y-3507080D01*
G01X997763D01*
G01X1015797Y-3538322D01*
G01X1025804Y-3521050D01*
G01X1035761Y-3503778D01*
G37*
G36*
G01X1102512Y-3503778D02*
G01X1104392Y-3507080D01*
G01X1108253D01*
G01X1136650D01*
G01X1122426Y-3531667D01*
G01X1115365Y-3519373D01*
G01X1108253Y-3507080D01*
G01X1104392D01*
G01X1122426Y-3538322D01*
G01X1132434Y-3521050D01*
G01X1142390Y-3503778D01*
G37*
G36*
G01X881736Y-3500628D02*
G01X883666Y-3503981D01*
G01X887527D01*
G01X915873D01*
G01X908812Y-3516224D01*
G01X901700Y-3528517D01*
G01X894588Y-3516224D01*
G01X887527Y-3503981D01*
G01X883666D01*
G01X891743Y-3517900D01*
G01X901700Y-3535172D01*
G01X911657Y-3517900D01*
G01X921664Y-3500628D01*
G37*
G36*
G01X996036Y-3830828D02*
G01X997966Y-3834181D01*
G01X1001827D01*
G01X1030173D01*
G01X1023112Y-3846424D01*
G01X1016000Y-3858717D01*
G01X1008888Y-3846424D01*
G01X1001827Y-3834181D01*
G01X997966D01*
G01X1006043Y-3848100D01*
G01X1016000Y-3865372D01*
G01X1025957Y-3848100D01*
G01X1035964Y-3830828D01*
G37*
G36*
G01X1101141Y-3830828D02*
G01X1103071Y-3834181D01*
G01X1106881D01*
G01X1135278D01*
G01X1128166Y-3846424D01*
G01X1121054Y-3858717D01*
G01X1113993Y-3846424D01*
G01X1106881Y-3834181D01*
G01X1103071D01*
G01X1121054Y-3865372D01*
G01X1131062Y-3848100D01*
G01X1141019Y-3830828D01*
G37*
G36*
G01X881736Y-3830828D02*
G01X883666Y-3834181D01*
G01X887527D01*
G01X915873D01*
G01X908812Y-3846424D01*
G01X901700Y-3858717D01*
G01X894588Y-3846424D01*
G01X887527Y-3834181D01*
G01X883666D01*
G01X891743Y-3848100D01*
G01X901700Y-3865372D01*
G01X911657Y-3848100D01*
G01X921664Y-3830828D01*
G37*
G36*
G01X996036Y-3183128D02*
G01X997966Y-3186481D01*
G01X1001827D01*
G01X1030173D01*
G01X1023112Y-3198724D01*
G01X1016000Y-3211017D01*
G01X1008888Y-3198724D01*
G01X1001827Y-3186481D01*
G01X997966D01*
G01X1006043Y-3200400D01*
G01X1016000Y-3217672D01*
G01X1025957Y-3200400D01*
G01X1035964Y-3183128D01*
G37*
G36*
G01X996036Y-3077566D02*
G01X997966Y-3080868D01*
G01X1001827D01*
G01X1030173D01*
G01X1023112Y-3093161D01*
G01X1016000Y-3105455D01*
G01X1008888Y-3093161D01*
G01X1001827Y-3080868D01*
G01X997966D01*
G01X1006043Y-3094838D01*
G01X1016000Y-3112059D01*
G01X1025957Y-3094838D01*
G01X1035964Y-3077566D01*
G37*
G36*
G01X996036Y-2974746D02*
G01X997966Y-2978048D01*
G01X1001827D01*
G01X1030173D01*
G01X1023112Y-2990342D01*
G01X1016000Y-3002636D01*
G01X1008888Y-2990342D01*
G01X1001827Y-2978048D01*
G01X997966D01*
G01X1006043Y-2992018D01*
G01X1016000Y-3009290D01*
G01X1025957Y-2992018D01*
G01X1035964Y-2974746D01*
G37*
G36*
G01X881736Y-2979928D02*
G01X883666Y-2983281D01*
G01X887527D01*
G01X915873D01*
G01X908812Y-2995524D01*
G01X901700Y-3007817D01*
G01X894588Y-2995524D01*
G01X887527Y-2983281D01*
G01X883666D01*
G01X891743Y-2997200D01*
G01X901700Y-3014472D01*
G01X911657Y-2997200D01*
G01X921664Y-2979928D01*
G37*
G36*
G01X996036Y-2865628D02*
G01X997966Y-2868981D01*
G01X1001827D01*
G01X1030173D01*
G01X1023112Y-2881224D01*
G01X1016000Y-2893517D01*
G01X1008888Y-2881224D01*
G01X1001827Y-2868981D01*
G01X997966D01*
G01X1006043Y-2882900D01*
G01X1016000Y-2900172D01*
G01X1025957Y-2882900D01*
G01X1035964Y-2865628D01*
G37*
G36*
G01X881736Y-2865628D02*
G01X883666Y-2868981D01*
G01X887527D01*
G01X915873D01*
G01X908812Y-2881224D01*
G01X901700Y-2893517D01*
G01X894588Y-2881224D01*
G01X887527Y-2868981D01*
G01X883666D01*
G01X891743Y-2882900D01*
G01X901700Y-2900172D01*
G01X911657Y-2882900D01*
G01X921664Y-2865628D01*
G37*
G36*
G01X996036Y-2751328D02*
G01X997966Y-2754681D01*
G01X1001827D01*
G01X1030173D01*
G01X1023112Y-2766924D01*
G01X1016000Y-2779217D01*
G01X1008888Y-2766924D01*
G01X1001827Y-2754681D01*
G01X997966D01*
G01X1006043Y-2768600D01*
G01X1016000Y-2785872D01*
G01X1025957Y-2768600D01*
G01X1035964Y-2751328D01*
G37*
G36*
G01X881736Y-2751328D02*
G01X883666Y-2754681D01*
G01X887527D01*
G01X915873D01*
G01X908812Y-2766924D01*
G01X901700Y-2779217D01*
G01X894588Y-2766924D01*
G01X887527Y-2754681D01*
G01X883666D01*
G01X891743Y-2768600D01*
G01X901700Y-2785872D01*
G01X911657Y-2768600D01*
G01X921664Y-2751328D01*
G37*
G36*
G01X996036Y-2649728D02*
G01X997966Y-2653081D01*
G01X1001827D01*
G01X1030173D01*
G01X1023112Y-2665324D01*
G01X1016000Y-2677617D01*
G01X1008888Y-2665324D01*
G01X1001827Y-2653081D01*
G01X997966D01*
G01X1006043Y-2667000D01*
G01X1016000Y-2684272D01*
G01X1025957Y-2667000D01*
G01X1035964Y-2649728D01*
G37*
G36*
G01X881736Y-2649728D02*
G01X883666Y-2653081D01*
G01X887527D01*
G01X915873D01*
G01X908812Y-2665324D01*
G01X901700Y-2677617D01*
G01X894588Y-2665324D01*
G01X887527Y-2653081D01*
G01X883666D01*
G01X891743Y-2667000D01*
G01X901700Y-2684272D01*
G01X911657Y-2667000D01*
G01X921664Y-2649728D01*
G37*
G36*
G01X996036Y-2535428D02*
G01X997966Y-2538781D01*
G01X1001827D01*
G01X1030173D01*
G01X1023112Y-2551024D01*
G01X1016000Y-2563317D01*
G01X1008888Y-2551024D01*
G01X1001827Y-2538781D01*
G01X997966D01*
G01X1006043Y-2552700D01*
G01X1016000Y-2569972D01*
G01X1025957Y-2552700D01*
G01X1035964Y-2535428D01*
G37*
G36*
G01X881736Y-2535428D02*
G01X883666Y-2538781D01*
G01X887527D01*
G01X915873D01*
G01X908812Y-2551024D01*
G01X901700Y-2563317D01*
G01X894588Y-2551024D01*
G01X887527Y-2538781D01*
G01X883666D01*
G01X891743Y-2552700D01*
G01X901700Y-2569972D01*
G01X911657Y-2552700D01*
G01X921664Y-2535428D01*
G37*
G36*
G01X881736Y-2433828D02*
G01X883666Y-2437181D01*
G01X887527D01*
G01X915873D01*
G01X908812Y-2449424D01*
G01X901700Y-2461717D01*
G01X894588Y-2449424D01*
G01X887527Y-2437181D01*
G01X883666D01*
G01X891743Y-2451100D01*
G01X901700Y-2468372D01*
G01X911657Y-2451100D01*
G01X921664Y-2433828D01*
G37*
G36*
G01X996645Y-2429866D02*
G01X998576Y-2433168D01*
G01X1002386D01*
G01X1030783D01*
G01X1023671Y-2445461D01*
G01X1016610Y-2457755D01*
G01X1002386Y-2433168D01*
G01X998576D01*
G01X1006602Y-2447087D01*
G01X1016610Y-2464359D01*
G01X1026566Y-2447087D01*
G01X1036523Y-2429866D01*
G37*
G36*
G01X996036Y-2319528D02*
G01X997966Y-2322881D01*
G01X1001827D01*
G01X1030173D01*
G01X1023112Y-2335124D01*
G01X1016000Y-2347417D01*
G01X1008888Y-2335124D01*
G01X1001827Y-2322881D01*
G01X997966D01*
G01X1006043Y-2336800D01*
G01X1016000Y-2354072D01*
G01X1025957Y-2336800D01*
G01X1035964Y-2319528D01*
G37*
G36*
G01X881736Y-2319528D02*
G01X883666Y-2322881D01*
G01X887527D01*
G01X915873D01*
G01X908812Y-2335124D01*
G01X901700Y-2347417D01*
G01X894588Y-2335124D01*
G01X887527Y-2322881D01*
G01X883666D01*
G01X891743Y-2336800D01*
G01X901700Y-2354072D01*
G01X911657Y-2336800D01*
G01X921664Y-2319528D01*
G37*
G36*
G01X996036Y-2217928D02*
G01X997966Y-2221281D01*
G01X1001827D01*
G01X1030173D01*
G01X1023112Y-2233524D01*
G01X1016000Y-2245817D01*
G01X1008888Y-2233524D01*
G01X1001827Y-2221281D01*
G01X997966D01*
G01X1006043Y-2235200D01*
G01X1016000Y-2252472D01*
G01X1025957Y-2235200D01*
G01X1035964Y-2217928D01*
G37*
G36*
G01X881736Y-2217928D02*
G01X883666Y-2221281D01*
G01X887527D01*
G01X915873D01*
G01X908812Y-2233524D01*
G01X901700Y-2245817D01*
G01X894588Y-2233524D01*
G01X887527Y-2221281D01*
G01X883666D01*
G01X891743Y-2235200D01*
G01X901700Y-2252472D01*
G01X911657Y-2235200D01*
G01X921664Y-2217928D01*
G37*
G36*
G01X996036Y-2103628D02*
G01X997966Y-2106981D01*
G01X1001827D01*
G01X1030173D01*
G01X1023112Y-2119224D01*
G01X1016000Y-2131517D01*
G01X1008888Y-2119224D01*
G01X1001827Y-2106981D01*
G01X997966D01*
G01X1006043Y-2120900D01*
G01X1016000Y-2138172D01*
G01X1025957Y-2120900D01*
G01X1035964Y-2103628D01*
G37*
G36*
G01X881736Y-2103628D02*
G01X883666Y-2106981D01*
G01X887527D01*
G01X915873D01*
G01X908812Y-2119224D01*
G01X901700Y-2131517D01*
G01X894588Y-2119224D01*
G01X887527Y-2106981D01*
G01X883666D01*
G01X891743Y-2120900D01*
G01X901700Y-2138172D01*
G01X911657Y-2120900D01*
G01X921664Y-2103628D01*
G37*
G36*
G01X996036Y-2002028D02*
G01X997966Y-2005381D01*
G01X1001827D01*
G01X1030173D01*
G01X1023112Y-2017624D01*
G01X1016000Y-2029917D01*
G01X1008888Y-2017624D01*
G01X1001827Y-2005381D01*
G01X997966D01*
G01X1006043Y-2019300D01*
G01X1016000Y-2036572D01*
G01X1025957Y-2019300D01*
G01X1035964Y-2002028D01*
G37*
G36*
G01X881736Y-3081528D02*
G01X883666Y-3084881D01*
G01X887527D01*
G01X915873D01*
G01X908812Y-3097124D01*
G01X901700Y-3109417D01*
G01X894588Y-3097124D01*
G01X887527Y-3084881D01*
G01X883666D01*
G01X891743Y-3098800D01*
G01X901700Y-3116072D01*
G01X911657Y-3098800D01*
G01X921664Y-3081528D01*
G37*
G36*
G01X881736Y-3185414D02*
G01X883666Y-3188767D01*
G01X887527D01*
G01X915873D01*
G01X908812Y-3201060D01*
G01X901700Y-3213303D01*
G01X894588Y-3201060D01*
G01X887527Y-3188767D01*
G01X883666D01*
G01X891743Y-3202686D01*
G01X901700Y-3219958D01*
G01X911657Y-3202686D01*
G01X921664Y-3185414D01*
G37*
G36*
G01X881736Y-2002028D02*
G01X883666Y-2005381D01*
G01X887527D01*
G01X915873D01*
G01X908812Y-2017624D01*
G01X901700Y-2029917D01*
G01X894588Y-2017624D01*
G01X887527Y-2005381D01*
G01X883666D01*
G01X891743Y-2019300D01*
G01X901700Y-2036572D01*
G01X911657Y-2019300D01*
G01X921664Y-2002028D01*
G37*
G36*
G01X1381557Y-1005484D02*
G01X1383487Y-1008837D01*
G01X1387297D01*
G01X1415644D01*
G01X1408582Y-1021131D01*
G01X1401470Y-1033374D01*
G01X1394409Y-1021131D01*
G01X1387297Y-1008837D01*
G01X1383487D01*
G01X1401470Y-1040028D01*
G01X1411427Y-1022756D01*
G01X1421435Y-1005484D01*
G37*
G36*
G01X919836Y-1760728D02*
G01X921766Y-1764081D01*
G01X925627D01*
G01X953973D01*
G01X946912Y-1776324D01*
G01X939800Y-1788617D01*
G01X932688Y-1776324D01*
G01X925627Y-1764081D01*
G01X921766D01*
G01X929843Y-1778000D01*
G01X939800Y-1795272D01*
G01X949757Y-1778000D01*
G01X959764Y-1760728D01*
G37*
G36*
G01X2786786Y-490728D02*
G01X2788717Y-494081D01*
G01X2792527D01*
G01X2820873D01*
G01X2813812Y-506324D01*
G01X2806700Y-518617D01*
G01X2799588Y-506324D01*
G01X2792527Y-494081D01*
G01X2788717D01*
G01X2806700Y-525272D01*
G01X2816657Y-508000D01*
G01X2826664Y-490728D01*
G37*
G36*
G01X2507386Y-1570228D02*
G01X2509317Y-1573581D01*
G01X2513127D01*
G01X2541473D01*
G01X2534412Y-1585824D01*
G01X2527300Y-1598117D01*
G01X2520188Y-1585824D01*
G01X2513127Y-1573581D01*
G01X2509317D01*
G01X2527300Y-1604772D01*
G01X2537257Y-1587500D01*
G01X2547264Y-1570228D01*
G37*
G36*
G01X2443886Y-1621028D02*
G01X2445817Y-1624381D01*
G01X2449627D01*
G01X2477973D01*
G01X2470912Y-1636624D01*
G01X2463800Y-1648917D01*
G01X2456688Y-1636624D01*
G01X2449627Y-1624381D01*
G01X2445817D01*
G01X2463800Y-1655572D01*
G01X2473757Y-1638300D01*
G01X2483764Y-1621028D01*
G37*
G36*
G01X2554376Y-1621028D02*
G01X2556307Y-1624381D01*
G01X2560168D01*
G01X2588514D01*
G01X2581402Y-1636624D01*
G01X2574341Y-1648917D01*
G01X2567229Y-1636624D01*
G01X2560168Y-1624381D01*
G01X2556307D01*
G01X2564384Y-1638300D01*
G01X2574341Y-1655572D01*
G01X2594254Y-1621028D01*
G37*
G36*
G01X2126386Y-655828D02*
G01X2128317Y-659181D01*
G01X2132127D01*
G01X2160473D01*
G01X2153412Y-671424D01*
G01X2146300Y-683717D01*
G01X2139188Y-671424D01*
G01X2132127Y-659181D01*
G01X2128317D01*
G01X2146300Y-690372D01*
G01X2156257Y-673100D01*
G01X2166264Y-655828D01*
G37*
G36*
G01X2075586Y-719328D02*
G01X2077517Y-722681D01*
G01X2081327D01*
G01X2109673D01*
G01X2102612Y-734924D01*
G01X2095500Y-747217D01*
G01X2088388Y-734924D01*
G01X2081327Y-722681D01*
G01X2077517D01*
G01X2095500Y-753872D01*
G01X2105457Y-736600D01*
G01X2115464Y-719328D01*
G37*
G36*
G01X2179218Y-719328D02*
G01X2181149Y-722681D01*
G01X2184959D01*
G01X2213356D01*
G01X2206244Y-734924D01*
G01X2199132Y-747217D01*
G01X2192071Y-734924D01*
G01X2184959Y-722681D01*
G01X2181149D01*
G01X2199132Y-753872D01*
G01X2209140Y-736600D01*
G01X2219096Y-719328D01*
G37*
G36*
G01X2133244Y-1187450D02*
G01X2135175Y-1190752D01*
G01X2139036D01*
G01X2167382D01*
G01X2160321Y-1203046D01*
G01X2153209Y-1215339D01*
G01X2146097Y-1203046D01*
G01X2139036Y-1190752D01*
G01X2135175D01*
G01X2143252Y-1204722D01*
G01X2153209Y-1221994D01*
G01X2173122Y-1187450D01*
G37*
G36*
G01X2659786Y-1189228D02*
G01X2661717Y-1192581D01*
G01X2665527D01*
G01X2693873D01*
G01X2686812Y-1204824D01*
G01X2679700Y-1217117D01*
G01X2672588Y-1204824D01*
G01X2665527Y-1192581D01*
G01X2661717D01*
G01X2679700Y-1223772D01*
G01X2689657Y-1206500D01*
G01X2699664Y-1189228D01*
G37*
G36*
G01X1377036Y-1786128D02*
G01X1378966Y-1789481D01*
G01X1382827D01*
G01X1411173D01*
G01X1404112Y-1801724D01*
G01X1397000Y-1814017D01*
G01X1389888Y-1801724D01*
G01X1382827Y-1789481D01*
G01X1378966D01*
G01X1387043Y-1803400D01*
G01X1397000Y-1820672D01*
G01X1406957Y-1803400D01*
G01X1416964Y-1786128D01*
G37*
G36*
G01X1173836Y-1354328D02*
G01X1175766Y-1357681D01*
G01X1179627D01*
G01X1207973D01*
G01X1200912Y-1369924D01*
G01X1193800Y-1382217D01*
G01X1186688Y-1369924D01*
G01X1179627Y-1357681D01*
G01X1175766D01*
G01X1183843Y-1371600D01*
G01X1193800Y-1388872D01*
G01X1203757Y-1371600D01*
G01X1213764Y-1354328D01*
G37*
G36*
G01X1581556Y-2141728D02*
G01X1583487Y-2145081D01*
G01X1587297D01*
G01X1615694D01*
G01X1608582Y-2157324D01*
G01X1601521Y-2169617D01*
G01X1594409Y-2157324D01*
G01X1587297Y-2145081D01*
G01X1583487D01*
G01X1591513Y-2159000D01*
G01X1601521Y-2176272D01*
G01X1621434Y-2141728D01*
G37*
G36*
G01X1581556Y-2141728D02*
G01X1583487Y-2145081D01*
G01X1587297D01*
G01X1615694D01*
G01X1608582Y-2157324D01*
G01X1601521Y-2169617D01*
G01X1594409Y-2157324D01*
G01X1587297Y-2145081D01*
G01X1583487D01*
G01X1591513Y-2159000D01*
G01X1601521Y-2176272D01*
G01X1621434Y-2141728D01*
G37*
G36*
G01X1986686Y-2764028D02*
G01X1988617Y-2767381D01*
G01X1992427D01*
G01X2020773D01*
G01X2013712Y-2779624D01*
G01X2006600Y-2791917D01*
G01X1999488Y-2779624D01*
G01X1992427Y-2767381D01*
G01X1988617D01*
G01X2006600Y-2798572D01*
G01X2016557Y-2781300D01*
G01X2026564Y-2764028D01*
G37*
G04 Image End*
G54D10*

M02*
