G04 Layer: TopLayer*
G04 EasyEDA Pro v2.1.57.773a98f1.225d47, 2024-05-26 20:13:35*
G04 Gerber Generator version 0.3*
G04 Scale: 100 percent, Rotated: No, Reflected: No*
G04 Dimensions in millimeters*
G04 Leading zeros omitted, absolute positions, 3 integers and 5 decimals*
%FSLAX35Y35*%
%MOMM*%
%ADD10C,0.254*%
%ADD11O,0.28001X0.8*%
%ADD12O,0.8X0.28001*%
%ADD13R,2.69999X2.69999*%
%ADD14R,0.89916X0.59944*%
%ADD15R,0.59944X0.89916*%
%ADD16R,0.59944X0.89916*%
%ADD17R,0.8009X0.5*%
%ADD18R,0.8X0.5*%
%ADD19R,0.45001X0.45001*%
%ADD20C,2.0*%
%ADD21R,0.56566X0.54*%
%ADD22R,1.39954X1.0*%
%ADD23R,1.0X0.41999*%
%ADD24R,1.0X0.41999*%
%ADD25R,0.49987X0.49987*%
%ADD26R,0.49987X0.89992*%
%ADD27R,0.54X0.79009*%
%ADD28R,0.95001X1.2*%
%ADD29R,0.54X0.79009*%
%ADD30R,0.56566X0.54*%
%ADD31R,1.75029X0.58852*%
%ADD32R,1.25001X0.7*%
%ADD33R,1.25001X0.7*%
%ADD34R,1.7X1.7*%
%ADD35C,1.7*%
%ADD36R,0.71999X0.8*%
%ADD37C,1.8*%
%ADD38R,1.8X1.8*%
%ADD39R,0.8X0.8*%
%ADD40R,0.8X0.8*%
%ADD41R,0.8X0.8*%
%ADD42R,0.8X0.8*%
%ADD43R,0.54X0.56566*%
%ADD44R,0.79009X0.54*%
%ADD45R,0.54X0.56566*%
%ADD46R,0.79009X0.54*%
%ADD47C,0.4*%
%ADD48C,0.5*%
%ADD49C,0.6*%
%ADD50C,0.3*%
%ADD51C,0.9*%
G75*

G54D10*

G04 Copper Start*
G01X300000Y-4161646D02*
G02X38354Y-3900000I0J261646D01*
G01Y-3810025D01*
G01X774700D01*
G03X787425Y-3797300I0J12725D01*
G01Y-3665146D01*
G03X825348Y-3626794I-432J38352D01*
G01Y-3624237D01*
G01Y-3534262D01*
G01Y-3534245D01*
G03X787425Y-3495893I-38354J0D01*
G01Y-3435149D01*
G03X818371Y-3418854I-432J38352D01*
G01X1080187D01*
G02X1097853Y-3419405I0J-283227D01*
G03X1125187Y-3430854I27334J26905D01*
G01X1204196D01*
G03X1219200Y-3427798I0J38354D01*
G03X1234204Y-3430854I15004J35298D01*
G01X1313213D01*
G03X1338449Y-3421382I0J38354D01*
G02X1351313Y-3416554I12864J-14723D01*
G01X1415263D01*
G01X1416071Y-3416589D01*
G03X1453363Y-3445980I37292J8963D01*
G01X1628391D01*
G03X1666745Y-3407626I0J38354D01*
G01Y-3348774D01*
G03X1645998Y-3314700I-38354J0D01*
G03X1666745Y-3280626I-17606J34074D01*
G01Y-3221774D01*
G03X1645998Y-3187700I-38354J0D01*
G03X1666745Y-3153626I-17606J34074D01*
G01Y-3094774D01*
G03X1645998Y-3060700I-38354J0D01*
G03X1666745Y-3026626I-17606J34074D01*
G01Y-3026238D01*
G02X1697938Y-2965578I110138J-18285D01*
G01X1745715Y-2917801D01*
G02X1806228Y-2885967I81511J-81511D01*
G03X1814246Y-2883552I-6986J37712D01*
G03X1829250Y-2886608I15004J35298D01*
G01X1908259D01*
G03X1946613Y-2848254I0J38354D01*
G01Y-2794254D01*
G03X1908259Y-2755900I-38354J0D01*
G01X1829250D01*
G03X1818776Y-2757358I0J-38354D01*
G02X1818414Y-2750134I389737J23104D01*
G02X1823510Y-2733026I50472J-5720D01*
G03X1832958Y-2734208I9448J37172D01*
G01X1911967D01*
G03X1950321Y-2695854I0J38354D01*
G01Y-2641854D01*
G03X1934823Y-2611054I-38354J0D01*
G01X1995929D01*
G01X2001371Y-2616496D01*
G02X2032019Y-2677422I-76809J-76809D01*
G03X2033612Y-2685301I38183J3621D01*
G03X2031848Y-2696801I36589J-11500D01*
G01Y-2728691D01*
G03X2006600Y-2722946I-25248J-52609D01*
G03X1948246Y-2781300I0J-58354D01*
G03X2006600Y-2839654I58354J0D01*
G03X2034709Y-2832438I0J58354D01*
G02X2051699Y-2837394I-2607J-40538D01*
G03X2070202Y-2842152I18503J33596D01*
G01X2170201D01*
G03X2207428Y-2813029I0J38354D01*
G01X2211799Y-2817401D01*
G03X2247900Y-2832354I36101J36101D01*
G01X2262099D01*
G02X2281696Y-2837394I0J-40621D01*
G03X2300199Y-2842152I18503J33596D01*
G01X2400198D01*
G01X2401476Y-2842131D01*
G02X2454266Y-2841163I58722J-1762079D01*
G01X2402623Y-2892806D01*
G01X2256466D01*
G03X2220366Y-2907759I0J-51054D01*
G01X2183793Y-2944332D01*
G03X2153437Y-2929420I-30356J-23442D01*
G01X1978409D01*
G03X1940055Y-2967774I0J-38354D01*
G01Y-3026626D01*
G03X1960802Y-3060700I38354J0D01*
G03X1940055Y-3094774I17606J-34074D01*
G01Y-3153626D01*
G03X1960802Y-3187700I38354J0D01*
G03X1940055Y-3221774I17606J-34074D01*
G01Y-3280626D01*
G03X1960802Y-3314700I38354J0D01*
G03X1940055Y-3348774I17606J-34074D01*
G01Y-3407626D01*
G03X1978409Y-3445980I38354J0D01*
G01X2153437D01*
G03X2185050Y-3429344I0J38354D01*
G02X2191537Y-3429254I6487J-233829D01*
G01X2259000D01*
G02X2261549Y-3429611I0J-9271D01*
G03X2258746Y-3444004I35551J-14393D01*
G01Y-3523013D01*
G03X2297100Y-3561367I38354J0D01*
G01X2351100D01*
G03X2389454Y-3523013I0J38354D01*
G01Y-3444004D01*
G03X2386398Y-3429000I-38354J0D01*
G03X2389454Y-3413996I-35298J15004D01*
G01Y-3410447D01*
G01X2430142Y-3369759D01*
G01Y-3472007D01*
G03X2468496Y-3510361I38354J0D01*
G01X2563498D01*
G03X2601852Y-3472007I0J38354D01*
G01Y-3401292D01*
G02X2605148Y-3412485I-52642J-21587D01*
G01Y-3472007D01*
G03X2643502Y-3510361I38354J0D01*
G01X2738504D01*
G03X2776858Y-3472007I0J38354D01*
G01Y-3352008D01*
G03X2738504Y-3313654I-38354J0D01*
G01X2678982D01*
G02X2649143Y-3297946I10393J55939D01*
G01X2641491Y-3290294D01*
G01X2643502Y-3290346D01*
G01X2738504D01*
G03X2776858Y-3251992I0J38354D01*
G01Y-3131993D01*
G03X2738504Y-3093639I-38354J0D01*
G01X2643502D01*
G03X2605148Y-3131993I0J-38354D01*
G01Y-3251992D01*
G03X2607638Y-3265587I38354J0D01*
G03X2599915Y-3264026I-13943J-49113D01*
G03X2601852Y-3251992I-36417J12034D01*
G01Y-3131993D01*
G03X2563498Y-3093639I-38354J0D01*
G01X2468496D01*
G03X2430142Y-3131993I0J-38354D01*
G01Y-3164261D01*
G01X2388548D01*
G01X2386979Y-3164127D01*
G03X2385745Y-3160806I-36531J-11683D01*
G03X2388802Y-3145803I-35298J15004D01*
G01Y-3066793D01*
G03X2372699Y-3035554I-38354J0D01*
G01X2493836D01*
G02X2502182Y-3035703I0J-233919D01*
G03X2531936Y-3049854I29753J24203D01*
G01X2588501D01*
G03X2603500Y-3046800I0J38354D01*
G03X2618499Y-3049854I14999J35300D01*
G01X2675064D01*
G01X2675065D01*
G03X2700300Y-3040382I0J38354D01*
G02X2713165Y-3035554I12864J-14723D01*
G01X2765739D01*
G03X2794000Y-3042854I28261J51054D01*
G03X2852354Y-2984500I0J58354D01*
G03X2794000Y-2926146I-58354J0D01*
G03X2765739Y-2933446I0J-58354D01*
G01X2713165D01*
G02X2700300Y-2928618I0J19551D01*
G03X2683068Y-2919990I-25236J-28882D01*
G03X2703628Y-2905401I-10683J36836D01*
G03X2726266Y-2892254I-13463J49247D01*
G01X3084101Y-2534420D01*
G03X3099054Y-2498319I-36101J36101D01*
G01Y-1006161D01*
G03X3106354Y-977900I-51054J28261D01*
G03X3048000Y-919546I-58354J0D01*
G03X3017454Y-928180I0J-58354D01*
G01Y-493100D01*
G03X3000362Y-451838I-58354J0D01*
G01X2789523Y-240998D01*
G01X2787817Y-239180D01*
G01X2786870Y-238016D01*
G01X2786762Y-237865D01*
G01X2786755Y-237782D01*
G01X2786737Y-237069D01*
G01X2786799Y-235292D01*
G01X2788050Y-223051D01*
G01X2788092Y-222609D01*
G01X2789008Y-212493D01*
G01X2789142Y-210337D01*
G01X2789376Y-203424D01*
G01X2789398Y-202124D01*
G01X2789389Y-201308D01*
G01X2789353Y-199607D01*
G03X2789255Y-195069I-123353J-393D01*
G01X2789213Y-194085D01*
G01X2789203Y-193892D01*
G01X2789112Y-192275D01*
G03X2666000Y-76646I-123112J-7725D01*
G03X2542888Y-192275I0J-123354D01*
G03X2542646Y-200000I123112J-7725D01*
G03X2543445Y-214012I123354J0D01*
G01X2545270Y-238420D01*
G01X2545431Y-245152D01*
G01X2545342Y-248696D01*
G01X2545154Y-251021D01*
G01X2346529Y-449646D01*
G01X1837735D01*
G01X1584318D01*
G01X1509656D01*
G01X1501010D01*
G01X1497301Y-449547D01*
G01X1492474Y-449155D01*
G01X1487365Y-448459D01*
G01X1480619Y-447159D01*
G01X1473777Y-445431D01*
G01X1466898Y-443272D01*
G01X1461544Y-441267D01*
G01X1456450Y-439049D01*
G01X1451724Y-436657D01*
G01X1448576Y-434829D01*
G01X1445656Y-432902D01*
G01X1444029Y-431690D01*
G01X1442605Y-430507D01*
G01X1441038Y-429037D01*
G01X1344201Y-332199D01*
G03X1308100Y-317246I-36101J-36101D01*
G01X1180335D01*
G03X1265354Y-200000I-38335J117246D01*
G03X1230967Y-114554I-123354J0D01*
G01X1307033D01*
G03X1272646Y-200000I88967J-85446D01*
G03X1396000Y-323354I123354J0D01*
G03X1519354Y-200000I0J123354D01*
G03X1484967Y-114554I-123354J0D01*
G01X1492353D01*
G01X1531634Y-153835D01*
G01X1533587Y-155919D01*
G01X1530377Y-168935D01*
G01X1530013Y-170562D01*
G01X1528682Y-177190D01*
G01X1528294Y-179475D01*
G01X1527494Y-185241D01*
G01X1527252Y-187452D01*
G01X1526881Y-192087D01*
G01X1526771Y-194201D01*
G01X1526756Y-194790D01*
G03X1526649Y-199128I123244J-5211D01*
G01Y-199129D01*
G01X1526638Y-200075D01*
G01X1526651Y-201089D01*
G03X1526888Y-207725I123349J1089D01*
G03X1650000Y-323354I123112J7725D01*
G03X1773354Y-200000I0J123354D01*
G03X1657725Y-76888I-123354J0D01*
G03X1651089Y-76651I-7725J-123112D01*
G01X1650075Y-76638D01*
G01X1649129Y-76649D01*
G01X1649128D01*
G03X1644789Y-76756I872J-123351D01*
G01X1644201Y-76771D01*
G01X1642087Y-76881D01*
G01X1637452Y-77252D01*
G01X1635241Y-77494D01*
G01X1629475Y-78294D01*
G01X1627190Y-78682D01*
G01X1620562Y-80014D01*
G01X1618935Y-80377D01*
G01X1605919Y-83587D01*
G01X1603835Y-81634D01*
G01X1560555Y-38354D01*
G01X3000000D01*
G02X3261646Y-300000I0J-261646D01*
G01Y-3900000D01*
G02X3000000Y-4161646I-261646J0D01*
G01X300000D01*
G01X3210000Y-3755354D02*
G03X3248354Y-3717000I0J38354D01*
G01Y-3537000D01*
G03X3210000Y-3498646I-38354J0D01*
G01X3146225D01*
G03X3248354Y-3373000I-26225J125646D01*
G03X3120000Y-3244646I-128354J0D01*
G03X2991646Y-3373000I0J-128354D01*
G03X3093775Y-3498646I128354J0D01*
G01X3030000D01*
G03X2991646Y-3537000I0J-38354D01*
G01Y-3717000D01*
G03X3030000Y-3755354I38354J0D01*
G01X3210000D01*
G01X1792000Y-4138354D02*
G03X1930354Y-4000000I0J138354D01*
G03X1792000Y-3861646I-138354J0D01*
G03X1653646Y-4000000I0J-138354D01*
G03X1792000Y-4138354I138354J0D01*
G01X1508000Y-4138354D02*
G03X1646354Y-4000000I0J138354D01*
G03X1508000Y-3861646I-138354J0D01*
G03X1369646Y-4000000I0J-138354D01*
G03X1508000Y-4138354I138354J0D01*
G01X1780646Y-200000D02*
G03X1904000Y-323354I123354J0D01*
G03X2027354Y-200000I0J123354D01*
G03X1904000Y-76646I-123354J0D01*
G03X1780646Y-200000I0J-123354D01*
G01X2288646Y-200000D02*
G03X2412000Y-323354I123354J0D01*
G03X2535354Y-200000I0J123354D01*
G03X2412000Y-76646I-123354J0D01*
G03X2288646Y-200000I0J-123354D01*
G01X2158000Y-323354D02*
G03X2281354Y-200000I0J123354D01*
G03X2158000Y-76646I-123354J0D01*
G03X2034646Y-200000I0J-123354D01*
G03X2158000Y-323354I123354J0D01*
G01X3098453Y-4142416D02*
G01X3242416Y-3998453D01*
G01X2971460Y-4161646D02*
G01X3261646Y-3871460D01*
G01X2863697Y-4161646D02*
G01X3261646Y-3763697D01*
G01X2755934Y-4161646D02*
G01X3162226Y-3755354D01*
G01X3248354Y-3669226D02*
G01X3261646Y-3655934D01*
G01X2648171Y-4161646D02*
G01X3054463Y-3755354D01*
G01X3248354Y-3561463D02*
G01X3261646Y-3548171D01*
G01X2540408Y-4161646D02*
G01X2991646Y-3710408D01*
G01X3203408Y-3498646D02*
G01X3261646Y-3440408D01*
G01X2432645Y-4161646D02*
G01X2991646Y-3602645D01*
G01X3245961Y-3348330D02*
G01X3261646Y-3332645D01*
G01X2324882Y-4161646D02*
G01X3026062Y-3460466D01*
G01X3207466Y-3279062D02*
G01X3261646Y-3224882D01*
G01X2217119Y-4161646D02*
G01X2992349Y-3386415D01*
G01X3133415Y-3245349D02*
G01X3261646Y-3117119D01*
G01X2109356Y-4161646D02*
G01X3261646Y-3009356D01*
G01X2001593Y-4161646D02*
G01X2652877Y-3510361D01*
G01X2776858Y-3386381D02*
G01X3261646Y-2901593D01*
G01X1893829Y-4161646D02*
G01X2545114Y-3510361D01*
G01X2601852Y-3453624D02*
G01X2605148Y-3450327D01*
G01X2741689Y-3313786D02*
G01X3261646Y-2793829D01*
G01X1786066Y-4161646D02*
G01X1810617Y-4137096D01*
G01X1929096Y-4018617D02*
G01X2445221Y-3502491D01*
G01X2649456Y-3298257D02*
G01X2657366Y-3290346D01*
G01X2776858Y-3170855D02*
G01X3261646Y-2686066D01*
G01X1678303Y-4161646D02*
G01X1721127Y-4118823D01*
G01X1910823Y-3929127D02*
G01X2281776Y-3558173D01*
G01X2389454Y-3450495D02*
G01X2430142Y-3409807D01*
G01X2601852Y-3238098D02*
G01X2605148Y-3234801D01*
G01X2745641Y-3094309D02*
G01X2797182Y-3042767D01*
G01X2852267Y-2987682D02*
G01X3261646Y-2578303D01*
G01X1570540Y-4161646D02*
G01X1668945Y-4063241D01*
G01X1855241Y-3876945D02*
G01X2258746Y-3473440D01*
G01X2601817Y-3130369D02*
G01X2605520Y-3126666D01*
G01X2638176Y-3094010D02*
G01X2683206Y-3048980D01*
G01X2804995Y-2927191D02*
G01X3261646Y-2470540D01*
G01X1462777Y-4161646D02*
G01X1487584Y-4136839D01*
G01X1644839Y-3979584D02*
G01X1657710Y-3966713D01*
G01X1758713Y-3865710D02*
G01X2195169Y-3429254D01*
G01X2530784Y-3093639D02*
G01X2574569Y-3049854D01*
G01X2697807Y-2926616D02*
G01X3261646Y-2362777D01*
G01X1355014Y-4161646D02*
G01X1414595Y-4102065D01*
G01X1610065Y-3906595D02*
G01X2070680Y-3445980D01*
G01X2388802Y-3127858D02*
G01X2481106Y-3035554D01*
G01X3099054Y-2417606D02*
G01X3261646Y-2255014D01*
G01X1247251Y-4161646D02*
G01X1374095Y-4034802D01*
G01X1542802Y-3866095D02*
G01X1965246Y-3443651D01*
G01X2373073Y-3035824D02*
G01X2373343Y-3035554D01*
G01X3099054Y-2309843D02*
G01X3261646Y-2147251D01*
G01X1139488Y-4161646D02*
G01X1940055Y-3361079D01*
G01X3099054Y-2202080D02*
G01X3261646Y-2039488D01*
G01X1031725Y-4161646D02*
G01X1940055Y-3253316D01*
G01X2300565Y-2892806D02*
G01X2351219Y-2842152D01*
G01X3099054Y-2094317D02*
G01X3261646Y-1931725D01*
G01X923962Y-4161646D02*
G01X1642200Y-3443408D01*
G01X1664174Y-3421434D02*
G01X1940055Y-3145553D01*
G01X2156095Y-2929512D02*
G01X2253254Y-2832354D01*
G01X3099054Y-1986554D02*
G01X3261646Y-1823962D01*
G01X816199Y-4161646D02*
G01X1531865Y-3445980D01*
G01X1655849Y-3321995D02*
G01X1941347Y-3036498D01*
G01X2048425Y-2929420D02*
G01X2135693Y-2842152D01*
G01X3099054Y-1878791D02*
G01X3261646Y-1716199D01*
G01X708436Y-4161646D02*
G01X1431173Y-3438909D01*
G01X1663576Y-3206506D02*
G01X2037383Y-2832699D01*
G01X3099054Y-1771028D02*
G01X3261646Y-1608436D01*
G01X600673Y-4161646D02*
G01X1344562Y-3417757D01*
G01X1666745Y-3095573D02*
G01X1875710Y-2886608D01*
G01X1946613Y-2815706D02*
G01X1954579Y-2807739D01*
G01X3099054Y-1663265D02*
G01X3261646Y-1500673D01*
G01X492910Y-4161646D02*
G01X1224858Y-3429698D01*
G01X1898656Y-2755900D02*
G01X1921568Y-2732987D01*
G01X1949100Y-2705455D02*
G01X2017493Y-2637063D01*
G01X3099054Y-1555502D02*
G01X3261646Y-1392909D01*
G01X385146Y-4161646D02*
G01X736767Y-3810025D01*
G01X787425Y-3759367D02*
G01X1116854Y-3429938D01*
G01X1935345Y-2611448D02*
G01X1935738Y-2611054D01*
G01X3099054Y-1447738D02*
G01X3261646Y-1285146D01*
G01X278286Y-4160743D02*
G01X629004Y-3810025D01*
G01X825348Y-3613682D02*
G01X1020175Y-3418854D01*
G01X3099054Y-1339975D02*
G01X3261646Y-1177383D01*
G01X192655Y-4138612D02*
G01X521241Y-3810025D01*
G01X818660Y-3512606D02*
G01X912412Y-3418854D01*
G01X3099054Y-1232212D02*
G01X3261646Y-1069620D01*
G01X127114Y-4096390D02*
G01X413478Y-3810025D01*
G01X787425Y-3436078D02*
G01X788377Y-3435126D01*
G01X3099054Y-1124449D02*
G01X3261646Y-961857D01*
G01X77719Y-4038021D02*
G01X305715Y-3810025D01*
G01X3099054Y-1016686D02*
G01X3261646Y-854094D01*
G01X45839Y-3962138D02*
G01X197952Y-3810025D01*
G01X3079316Y-928661D02*
G01X3261646Y-746331D01*
G01X38354Y-3861860D02*
G01X90189Y-3810025D01*
G01X3017454Y-882760D02*
G01X3261646Y-638568D01*
G01X3017454Y-774997D02*
G01X3261646Y-530805D01*
G01X3017454Y-667234D02*
G01X3261646Y-423042D01*
G01X3017454Y-559471D02*
G01X3261646Y-315279D01*
G01X3007962Y-461199D02*
G01X3249127Y-220035D01*
G01X2954962Y-406437D02*
G01X3213146Y-148252D01*
G01X2901080Y-352555D02*
G01X3160371Y-93264D01*
G01X2847199Y-298674D02*
G01X3091134Y-54738D01*
G01X2793317Y-244792D02*
G01X2999755Y-38354D01*
G01X2779247Y-151099D02*
G01X2891992Y-38354D01*
G01X2728771Y-93812D02*
G01X2784229Y-38354D01*
G01X2265174Y-449646D02*
G01X2392947Y-321874D01*
G01X2533873Y-180947D02*
G01X2546887Y-167933D01*
G01X2633933Y-80887D02*
G01X2676466Y-38354D01*
G01X2157411Y-449646D02*
G01X2322339Y-284718D01*
G01X2496718Y-110339D02*
G01X2568703Y-38354D01*
G01X2049648Y-449646D02*
G01X2177489Y-321805D01*
G01X2279804Y-219490D02*
G01X2289071Y-210223D01*
G01X2422223Y-77071D02*
G01X2460940Y-38354D01*
G01X1941885Y-449646D02*
G01X2089168Y-302363D01*
G01X2260363Y-131168D02*
G01X2353177Y-38354D01*
G01X1834122Y-449646D02*
G01X2041951Y-241817D01*
G01X2199817Y-83951D02*
G01X2245414Y-38354D01*
G01X1726359Y-449646D02*
G01X1860555Y-315450D01*
G01X2019450Y-156555D02*
G01X2137651Y-38354D01*
G01X1618596Y-449646D02*
G01X1800749Y-267493D01*
G01X1971493Y-96749D02*
G01X2029888Y-38354D01*
G01X1510833Y-449646D02*
G01X1637736Y-322743D01*
G01X1772743Y-187736D02*
G01X1782656Y-177822D01*
G01X1881822Y-78656D02*
G01X1922125Y-38354D01*
G01X1432358Y-420357D02*
G01X1564144Y-288572D01*
G01X1738572Y-114144D02*
G01X1814362Y-38354D01*
G01X1378477Y-366476D02*
G01X1425074Y-319879D01*
G01X1515879Y-229074D02*
G01X1527839Y-217113D01*
G01X1667113Y-77839D02*
G01X1706599Y-38354D01*
G01X1318808Y-318382D02*
G01X1331837Y-305353D01*
G01X1501353Y-135837D02*
G01X1507494Y-129695D01*
G01X1579695Y-57494D02*
G01X1598835Y-38354D01*
G01X1212180Y-317246D02*
G01X1282090Y-247336D01*
G01X1259430Y-162233D02*
G01X1305709Y-115955D01*
G01X3260349Y-273980D02*
G01X3026020Y-39651D01*
G01X3261646Y-383040D02*
G01X2916960Y-38354D01*
G01X3261646Y-490803D02*
G01X2809197Y-38354D01*
G01X3261646Y-598566D02*
G01X2701434Y-38354D01*
G01X3261646Y-706329D02*
G01X2787152Y-231835D01*
G01X2635734Y-80417D02*
G01X2593671Y-38354D01*
G01X3261646Y-814092D02*
G01X3017454Y-569900D01*
G01X2570042Y-122488D02*
G01X2485908Y-38354D01*
G01X3261646Y-921855D02*
G01X3017454Y-677663D01*
G01X2542680Y-202889D02*
G01X2535271Y-195480D01*
G01X2416520Y-76729D02*
G01X2378145Y-38354D01*
G01X3261646Y-1029618D02*
G01X3017454Y-785426D01*
G01X2514101Y-282074D02*
G01X2508662Y-276634D01*
G01X2335366Y-103339D02*
G01X2270382Y-38354D01*
G01X3261646Y-1137381D02*
G01X3106213Y-981949D01*
G01X3043951Y-919687D02*
G01X3017454Y-893189D01*
G01X2460220Y-335955D02*
G01X2443523Y-319258D01*
G01X2292742Y-168477D02*
G01X2267535Y-143270D01*
G01X2214730Y-90465D02*
G01X2162619Y-38354D01*
G01X3261646Y-1245144D02*
G01X3099054Y-1082552D01*
G01X2406338Y-389837D02*
G01X2269424Y-252923D01*
G01X2105077Y-88576D02*
G01X2054856Y-38354D01*
G01X3261646Y-1352907D02*
G01X3099054Y-1190315D01*
G01X2352457Y-443718D02*
G01X2217044Y-308305D01*
G01X2049695Y-140956D02*
G01X1947093Y-38354D01*
G01X3261646Y-1460671D02*
G01X3099054Y-1298079D01*
G01X2250621Y-449646D02*
G01X2117487Y-316511D01*
G01X2041489Y-240513D02*
G01X2024993Y-224018D01*
G01X1879982Y-79007D02*
G01X1839329Y-38354D01*
G01X3261646Y-1568434D02*
G01X3099054Y-1405842D01*
G01X2142858Y-449646D02*
G01X1985664Y-292451D01*
G01X1811549Y-118336D02*
G01X1731566Y-38354D01*
G01X3261646Y-1676197D02*
G01X3099054Y-1513605D01*
G01X2035095Y-449646D02*
G01X1908713Y-323264D01*
G01X1780736Y-195287D02*
G01X1772692Y-187243D01*
G01X1662757Y-77308D02*
G01X1623803Y-38354D01*
G01X3261646Y-1783960D02*
G01X3099054Y-1621368D01*
G01X1927332Y-449646D02*
G01X1749962Y-272276D01*
G01X3261646Y-1891723D02*
G01X3099054Y-1729131D01*
G01X1819569Y-449646D02*
G01X1687454Y-317530D01*
G01X1532055Y-162132D02*
G01X1489726Y-119803D01*
G01X3261646Y-1999486D02*
G01X3099054Y-1836894D01*
G01X1711806Y-449646D02*
G01X1509788Y-247628D01*
G01X3261646Y-2107249D02*
G01X3099054Y-1944657D01*
G01X1604043Y-449646D02*
G01X1459906Y-305509D01*
G01X1290491Y-136094D02*
G01X1268951Y-114554D01*
G01X3261646Y-2215012D02*
G01X3099054Y-2052420D01*
G01X1496082Y-449448D02*
G01X1366379Y-319745D01*
G01X1276256Y-229622D02*
G01X1264110Y-217476D01*
G01X3261646Y-2322775D02*
G01X3099054Y-2160183D01*
G01X1256117Y-317246D02*
G01X1227646Y-288775D01*
G01X3261646Y-2430538D02*
G01X3099054Y-2267946D01*
G01X3261646Y-2538301D02*
G01X3099054Y-2375709D01*
G01X3261646Y-2646064D02*
G01X3099054Y-2483472D01*
G01X3261646Y-2753827D02*
G01X3063169Y-2555351D01*
G01X3261646Y-2861591D02*
G01X3009288Y-2609232D01*
G01X3261646Y-2969354D02*
G01X2955406Y-2663114D01*
G01X3261646Y-3077117D02*
G01X2901525Y-2716996D01*
G01X3261646Y-3184880D02*
G01X2847643Y-2770877D01*
G01X3261646Y-3292643D02*
G01X2793762Y-2824759D01*
G01X3261646Y-3400406D02*
G01X3247651Y-3386411D01*
G01X3106589Y-3245349D02*
G01X2852016Y-2990775D01*
G01X2787725Y-2926484D02*
G01X2739880Y-2878640D01*
G01X3261646Y-3508169D02*
G01X3213941Y-3460464D01*
G01X3032537Y-3279060D02*
G01X2796286Y-3042809D01*
G01X3261646Y-3615932D02*
G01X3248354Y-3602640D01*
G01X2994040Y-3348326D02*
G01X2776848Y-3131134D01*
G01X2739362Y-3093648D02*
G01X2691749Y-3046035D01*
G01X3261646Y-3723695D02*
G01X3248354Y-3710403D01*
G01X3036597Y-3498646D02*
G01X2776858Y-3238907D01*
G01X2633043Y-3095092D02*
G01X2587805Y-3049854D01*
G01X2416690Y-2878739D02*
G01X2380103Y-2842152D01*
G01X3261646Y-3831458D02*
G01X3185542Y-3755354D01*
G01X2991646Y-3561458D02*
G01X2776420Y-3346232D01*
G01X2744279Y-3314091D02*
G01X2720534Y-3290346D01*
G01X2605148Y-3174961D02*
G01X2601852Y-3171664D01*
G01X2523827Y-3093639D02*
G01X2465742Y-3035554D01*
G01X2322994Y-2892806D02*
G01X2262544Y-2832356D01*
G01X3259067Y-3936643D02*
G01X3077779Y-3755354D01*
G01X2991646Y-3669222D02*
G01X2776858Y-3454433D01*
G01X2435266Y-3112841D02*
G01X2388800Y-3066375D01*
G01X2225610Y-2903186D02*
G01X2164577Y-2842152D01*
G01X2031848Y-2709423D02*
G01X1945292Y-2622867D01*
G01X3233236Y-4018574D02*
G01X2725023Y-3510361D01*
G01X2144082Y-2929420D02*
G01X2052468Y-2837806D01*
G01X1960363Y-2745701D02*
G01X1938352Y-2723691D01*
G01X3188429Y-4081530D02*
G01X2597205Y-3490306D01*
G01X2036319Y-2929420D02*
G01X1946613Y-2839714D01*
G01X1862799Y-2755900D02*
G01X1841107Y-2734208D01*
G01X3127573Y-4128438D02*
G01X2509497Y-3510361D01*
G01X2430142Y-3431007D02*
G01X2399518Y-3400383D01*
G01X1946155Y-2947020D02*
G01X1885744Y-2886608D01*
G01X3048487Y-4157114D02*
G01X2389454Y-3498082D01*
G01X1955435Y-3064062D02*
G01X1783873Y-2892501D01*
G01X2945255Y-4161646D02*
G01X2344976Y-3561367D01*
G01X2258746Y-3475136D02*
G01X2212863Y-3429254D01*
G01X1940167Y-3156557D02*
G01X1723563Y-2939954D01*
G01X2837492Y-4161646D02*
G01X2121826Y-3445980D01*
G01X1940055Y-3264208D02*
G01X1674912Y-2999065D01*
G01X2729729Y-4161646D02*
G01X2014063Y-3445980D01*
G01X1940055Y-3371971D02*
G01X1666745Y-3098662D01*
G01X2621966Y-4161646D02*
G01X1659053Y-3198733D01*
G01X1651433Y-3191113D02*
G01X1647310Y-3186990D01*
G01X2514203Y-4161646D02*
G01X1657802Y-3305244D01*
G01X2406440Y-4161646D02*
G01X1664720Y-3419926D01*
G01X2298677Y-4161646D02*
G01X1583011Y-3445980D01*
G01X2190914Y-4161646D02*
G01X1475248Y-3445980D01*
G01X2083151Y-4161646D02*
G01X1930088Y-4008583D01*
G01X1783417Y-3861912D02*
G01X1341000Y-3419495D01*
G01X1975388Y-4161646D02*
G01X1900096Y-4086354D01*
G01X1705646Y-3891904D02*
G01X1244596Y-3430854D01*
G01X1867625Y-4161646D02*
G01X1836858Y-4130880D01*
G01X1661120Y-3955141D02*
G01X1136833Y-3430854D01*
G01X1759862Y-4161646D02*
G01X1708629Y-4110413D01*
G01X1681587Y-4083371D02*
G01X1639919Y-4041704D01*
G01X1466296Y-3868081D02*
G01X1017070Y-3418854D01*
G01X1652099Y-4161646D02*
G01X1596663Y-4106211D01*
G01X1401789Y-3911337D02*
G01X909306Y-3418854D01*
G01X1544335Y-4161646D02*
G01X1520479Y-4137790D01*
G01X1370210Y-3987520D02*
G01X810100Y-3427410D01*
G01X1436572Y-4161646D02*
G01X825348Y-3550421D01*
G01X1328809Y-4161646D02*
G01X817372Y-3650208D01*
G01X1221046Y-4161646D02*
G01X787425Y-3728025D01*
G01X1113283Y-4161646D02*
G01X761663Y-3810025D01*
G01X1005520Y-4161646D02*
G01X653899Y-3810025D01*
G01X897757Y-4161646D02*
G01X546136Y-3810025D01*
G01X789994Y-4161646D02*
G01X438373Y-3810025D01*
G01X682231Y-4161646D02*
G01X330610Y-3810025D01*
G01X574468Y-4161646D02*
G01X222847Y-3810025D01*
G01X466705Y-4161646D02*
G01X115084Y-3810025D01*
G01X358942Y-4161646D02*
G01X38354Y-3841058D01*
G01X245423Y-4155891D02*
G01X44109Y-3954577D01*
G01X1351313Y-3314446D02*
G02X1338449Y-3309618I0J19551D01*
G03X1333825Y-3306155I-25236J-28882D01*
G02X1333754Y-3300400I233848J5755D01*
G01Y-3281713D01*
G02X1338582Y-3268849I19551J0D01*
G03X1348054Y-3243613I-28882J25236D01*
G01Y-3164604D01*
G03X1344998Y-3149600I-38354J0D01*
G03X1348054Y-3134596I-35298J15004D01*
G01Y-3096655D01*
G01X1411699Y-3160301D01*
G03X1416620Y-3164627I36101J36101D01*
G03X1435756Y-3187700I36742J11001D01*
G03X1415009Y-3221774I17606J-34074D01*
G01Y-3280626D01*
G03X1433941Y-3313699I38354J0D01*
G02X1415263Y-3314446I-18678J233172D01*
G01X1351313D01*
G01X1342307Y-3312248D02*
G01X1415009Y-3239547D01*
G01X1348054Y-3198738D02*
G01X1399096Y-3147697D01*
G01X1433661Y-3188867D02*
G01X1348054Y-3103260D01*
G01X1415009Y-3277978D02*
G01X1348054Y-3211023D01*
G01X1340353Y-3311085D02*
G01X1333790Y-3304522D01*
G01X1097853Y-3311595D02*
G02X1080187Y-3312146I-17666J282676D01*
G01X807993D01*
G03X787425Y-3305889I-21000J-32094D01*
G01Y-1968500D01*
G03X774700Y-1955775I-12725J0D01*
G01X38354D01*
G01Y-300000D01*
G02X300000Y-38354I261646J0D01*
G01X435545D01*
G01X319499Y-154399D01*
G03X304546Y-190500I36101J-36101D01*
G01Y-1325804D01*
G03X319499Y-1361904I51054J0D01*
G01X529579Y-1571984D01*
G02X535746Y-1585642I-14990J-14990D01*
G01Y-1589205D01*
G01Y-1624403D01*
G01Y-1627966D01*
G02X534851Y-1632864I-21157J1331D01*
G02X527678Y-1632750I149J233919D01*
G03X496900Y-1617281I-30778J-22886D01*
G01X442900D01*
G03X404546Y-1655635I0J-38354D01*
G01Y-1655636D01*
G01Y-1712201D01*
G03X407600Y-1727200I38354J0D01*
G03X404546Y-1742199I35300J-14999D01*
G01Y-1798764D01*
G03X442900Y-1837118I38354J0D01*
G01X496900D01*
G03X535254Y-1798764I0J38354D01*
G01Y-1742199D01*
G03X534567Y-1734973I-38354J0D01*
G01X535000Y-1734972D01*
G01X546686D01*
G03X535746Y-1761796I27414J-26824D01*
G01Y-1831796D01*
G03X574100Y-1870150I38354J0D01*
G01X699101D01*
G03X737455Y-1831796I0J38354D01*
G01Y-1761796D01*
G03X699101Y-1723442I-38354J0D01*
G01X591803D01*
G03X595586Y-1720019I-32317J39524D01*
G01X619740Y-1695865D01*
G02X649579Y-1680158I40232J-40232D01*
G01X699101D01*
G03X737455Y-1641804I0J38354D01*
G01Y-1571804D01*
G03X699101Y-1533450I-38354J0D01*
G01X649579D01*
G02X619740Y-1517743I10393J55939D01*
G01X406654Y-1304657D01*
G01Y-211647D01*
G01X503747Y-114554D01*
G01X510649D01*
G01X510646Y-115000D01*
G01Y-285000D01*
G03X549000Y-323354I38354J0D01*
G01X719000D01*
G03X757354Y-285000I0J38354D01*
G01Y-115000D01*
G01X757351Y-114554D01*
G01X799033D01*
G03X764646Y-200000I88967J-85446D01*
G03X888000Y-323354I123354J0D01*
G03X1011354Y-200000I0J123354D01*
G03X976967Y-114554I-123354J0D01*
G01X1053033D01*
G03X1018646Y-200000I88967J-85446D01*
G03X1103665Y-317246I123354J0D01*
G01X977690D01*
G03X941590Y-332199I0J-51054D01*
G01X902745Y-371044D01*
G02X872906Y-386751I-40232J40232D01*
G01X854380D01*
G03X816026Y-425105I0J-38354D01*
G01Y-479105D01*
G03X851539Y-517354I38354J0D01*
G01X808396D01*
G03X770042Y-555708I0J-38354D01*
G01Y-605708D01*
G03X779309Y-630708I38354J0D01*
G03X770042Y-655708I29087J-25000D01*
G01Y-705708D01*
G03X779309Y-730708I38354J0D01*
G03X770042Y-755708I29087J-25000D01*
G01Y-805708D01*
G03X797807Y-842571I38354J0D01*
G03X812295Y-871796I50589J6875D01*
G01X820216Y-879717D01*
G03X876300Y-921954I56084J16117D01*
G03X934654Y-863600I0J58354D01*
G03X920935Y-826011I-58354J0D01*
G03X926750Y-805708I-32539J20304D01*
G01Y-755708D01*
G03X917482Y-730708I-38354J0D01*
G03X920842Y-726160I-29087J25000D01*
G03X933691Y-716808I-23251J45452D01*
G01X933694Y-716806D01*
G01X959094Y-691406D01*
G03X970041Y-675129I-36101J36101D01*
G01Y-705708D01*
G03X979309Y-730708I38354J0D01*
G03X970041Y-755708I29087J-25000D01*
G01Y-805708D01*
G03X997234Y-842402I38354J0D01*
G01X997341Y-843808D01*
G01Y-887711D01*
G03X999272Y-901620I51054J0D01*
G03X970700Y-894146I-28572J-50880D01*
G03X912461Y-948846I0J-58354D01*
G01X912358Y-951341D01*
G01X909199Y-954499D01*
G03X907258Y-956552I36101J-36101D01*
G03X901881Y-956173I-5376J-37975D01*
G01X856880D01*
G03X831675Y-965618I0J-38354D01*
G02X821028Y-965963I-12895J233563D01*
G02X790469Y-963707I2271J238904D01*
G03X785199Y-963343I-5270J-37990D01*
G01X731198D01*
G03X701049Y-977990I0J-38354D01*
G03X670899Y-963343I-30150J-23707D01*
G01X616898D01*
G03X578544Y-1001697I0J-38354D01*
G01Y-1080706D01*
G03X581601Y-1095710I38354J0D01*
G03X578544Y-1110714I35298J-15004D01*
G01Y-1189723D01*
G03X616898Y-1228077I38354J0D01*
G01X670899D01*
G03X701049Y-1213430I0J38354D01*
G03X731198Y-1228077I30150J23707D01*
G01X785199D01*
G03X791707Y-1227521I0J38354D01*
G01X779262Y-1239966D01*
G03X774618Y-1239684I-4644J-38072D01*
G01X718053D01*
G03X703054Y-1242738I0J-38354D01*
G03X688055Y-1239684I-14999J-35300D01*
G01X631489D01*
G03X593135Y-1278038I0J-38354D01*
G01Y-1332038D01*
G03X631489Y-1370392I38354J0D01*
G01X688055D01*
G03X703054Y-1367338I0J38354D01*
G03X718053Y-1370392I14999J35300D01*
G01X774618D01*
G03X807710Y-1351428I0J38354D01*
G03X822492Y-1341139I-21319J46390D01*
G01X875020Y-1288610D01*
G02X906470Y-1272628I40232J-40232D01*
G03X940235Y-1234549I-4588J38079D01*
G01Y-1191892D01*
G03X951976Y-1183125I-24360J44868D01*
G01X963562Y-1171539D01*
G03X964839Y-1179537I38301J2014D01*
G03X963509Y-1189548I37024J-10011D01*
G01Y-1234549D01*
G03X1001863Y-1272903I38354J0D01*
G01X1046865D01*
G03X1065372Y-1268143I0J38354D01*
G02X1084965Y-1263103I19593J-35564D01*
G01X1108571D01*
G01X1121611D01*
G03X1135800Y-1264854I14189J56603D01*
G03X1142746Y-1264439I0J58354D01*
G01Y-1343339D01*
G03X1135446Y-1371600I51054J-28261D01*
G03X1193800Y-1429954I58354J0D01*
G03X1252154Y-1371600I0J58354D01*
G03X1244854Y-1343339I-58354J0D01*
G01Y-1336955D01*
G01X1291763Y-1383864D01*
G03X1327863Y-1398817I36101J36101D01*
G01X1361132D01*
G01X1403345Y-1400065D01*
G01X1405692Y-1400118D01*
G01X1454343D01*
G01Y-1448769D01*
G03X1506697Y-1501123I52354J0D01*
G03X1531691Y-1494772I0J52354D01*
G03X1556684Y-1501123I24994J46003D01*
G03X1581691Y-1494765I0J52354D01*
G03X1606697Y-1501123I25006J45996D01*
G03X1631691Y-1494772I0J52354D01*
G03X1656684Y-1501123I24994J46003D01*
G03X1681691Y-1494765I0J52354D01*
G03X1706697Y-1501123I25006J45996D01*
G03X1731690Y-1494772I0J52354D01*
G03X1756684Y-1501123I24994J46003D01*
G03X1809039Y-1448769I0J52354D01*
G01Y-1400118D01*
G01X1857690D01*
G03X1910033Y-1348830I0J52354D01*
G01X2001691D01*
G01Y-1547685D01*
G02X1920045Y-1574546I-81646J110655D01*
G01X1813190D01*
G02X1784191Y-1572742I0J233919D01*
G03X1775090Y-1571646I-9101J-37259D01*
G01X1695090D01*
G03X1656736Y-1610000I0J-38354D01*
G01Y-1690000D01*
G03X1680201Y-1725346I38354J0D01*
G01X1665999D01*
G03X1651000Y-1728400I0J-38354D01*
G03X1636001Y-1725346I-14999J-35300D01*
G01X1619799D01*
G03X1643264Y-1690000I-14890J35346D01*
G01Y-1610000D01*
G03X1604910Y-1571646I-38354J0D01*
G01X1524910D01*
G03X1515809Y-1572742I0J-38354D01*
G02X1486810Y-1574546I-28999J232114D01*
G01X1459662D01*
G03X1436954Y-1579874I0J-51054D01*
G01Y-1554036D01*
G01Y-1554035D01*
G03X1398600Y-1515681I-38354J0D01*
G01X1344600D01*
G03X1313822Y-1531150I0J-38354D01*
G02X1306500Y-1531264I-7322J233804D01*
G01X1206500D01*
G03X1170399Y-1546218I0J-51054D01*
G01X1078421Y-1638196D01*
G01X1077646Y-1638909D01*
G01X1076882Y-1639519D01*
G01X1075746Y-1640320D01*
G01X1072765Y-1642162D01*
G01X1069306Y-1644013D01*
G01X1065417Y-1645825D01*
G01X1061356Y-1647466D01*
G01X1057384Y-1648833D01*
G01X1053790Y-1649844D01*
G01X1050643Y-1650511D01*
G01X1049572Y-1650665D01*
G01X1048569Y-1650745D01*
G01X1048508Y-1650746D01*
G01X937200D01*
G02X933585Y-1650012I0J9271D01*
G03X899100Y-1628446I-34485J-16788D01*
G01X774099D01*
G03X735745Y-1666800I0J-38354D01*
G01Y-1736800D01*
G03X774099Y-1775154I38354J0D01*
G01X881515D01*
G03X881446Y-1778000I58285J-2846D01*
G03X923683Y-1834084I58354J0D01*
G01X1066546Y-1976947D01*
G01Y-2032000D01*
G03X1081499Y-2068101I51054J0D01*
G01X1121646Y-2108247D01*
G01Y-2125090D01*
G03X1160000Y-2163444I38354J0D01*
G01X1200811D01*
G02X1230650Y-2179151I-10393J-55939D01*
G01X1246876Y-2195377D01*
G03X1281898Y-2210319I36101J36101D01*
G01X1283582Y-2210391D01*
G01X1284742Y-2210527D01*
G01X1286409Y-2210834D01*
G01X1288251Y-2211281D01*
G01X1292097Y-2212472D01*
G01X1296074Y-2213995D01*
G01X1300189Y-2215857D01*
G01X1304226Y-2217967D01*
G01X1307984Y-2220208D01*
G01X1311262Y-2222437D01*
G01X1314061Y-2224622D01*
G01X1315361Y-2225777D01*
G01X1315849Y-2226250D01*
G01X1462499Y-2372901D01*
G03X1486556Y-2386413I36101J36101D01*
G01Y-2390000D01*
G03X1524910Y-2428354I38354J0D01*
G01X1604910D01*
G03X1643264Y-2390000I0J38354D01*
G01Y-2310000D01*
G03X1604910Y-2271646I-38354J0D01*
G01X1524910D01*
G03X1509071Y-2275070I0J-38354D01*
G01X1434391Y-2200390D01*
G03X1440222Y-2195377I-30269J41113D01*
G01X1471536Y-2164064D01*
G02X1501375Y-2148356I40232J-40232D01*
G01X1540496D01*
G03X1544156Y-2148181I0J38354D01*
G03X1543145Y-2159000I57342J-10819D01*
G03X1601499Y-2217354I58354J0D01*
G03X1659853Y-2159000I0J58354D01*
G03X1658841Y-2148181I-58354J0D01*
G03X1662502Y-2148356I3661J38179D01*
G01X1734501D01*
G03X1747003Y-2146262I0J38354D01*
G03X1759504Y-2148356I12502J36259D01*
G01X1831503D01*
G03X1869857Y-2110002I0J38354D01*
G01Y-2109956D01*
G01X1921379D01*
G03X1957480Y-2095003I0J51054D01*
G02X1961691Y-2091118I50221J-50221D01*
G01X1970100D01*
G03X2008454Y-2052764I0J38354D01*
G01Y-1996199D01*
G03X2005505Y-1981449I-38354J0D01*
G02X2021705Y-1957031I182481J-103486D01*
G03X2060000Y-1993264I38295J2121D01*
G01X2140000D01*
G03X2178354Y-1954910I0J38354D01*
G01Y-1874910D01*
G03X2145374Y-1836934I-38354J0D01*
G03X2141972Y-1833088I-45373J-36694D01*
G01X2139924Y-1830861D01*
G01X2138207Y-1828696D01*
G01X2136372Y-1826066D01*
G01X2133070Y-1820611D01*
G01X2129895Y-1814481D01*
G01X2126897Y-1807750D01*
G01X2124218Y-1800723D01*
G01X2121971Y-1793702D01*
G01X2120242Y-1787010D01*
G01X2119045Y-1780754D01*
G01X2118636Y-1777562D01*
G01X2118420Y-1774457D01*
G01X2118399Y-1773317D01*
G01Y-1772768D01*
G01Y-1616935D01*
G01Y-1265337D01*
G01Y-998418D01*
G02X2140534Y-916772I161646J0D01*
G01X2247628D01*
G01X2263126Y-932270D01*
G01X2264075Y-933231D01*
G03X2253400Y-932246I-10675J-57369D01*
G03X2195046Y-990600I0J-58354D01*
G03X2215593Y-1035050I58354J0D01*
G03X2195046Y-1079500I37807J-44450D01*
G03X2237283Y-1135584I58354J0D01*
G01X2262070Y-1160371D01*
G03X2294321Y-1175179I36101J36101D01*
G01X2294319Y-1175578D01*
G01Y-1183128D01*
G03X2269455Y-1173978I-24863J-29204D01*
G01X2215455D01*
G03X2177101Y-1212332I0J-38354D01*
G01Y-1291341D01*
G03X2180158Y-1306345I38354J0D01*
G03X2177101Y-1321349I35298J-15004D01*
G01Y-1400358D01*
G03X2215455Y-1438712I38354J0D01*
G01X2269455D01*
G03X2302704Y-1419478I0J38354D01*
G03X2332673Y-1433896I29969J23935D01*
G01X2416306D01*
G03X2446719Y-1448882I30413J23368D01*
G01X2506663D01*
G03X2537076Y-1433896I0J38354D01*
G01X2620709D01*
G03X2659063Y-1395542I0J38354D01*
G01Y-1335598D01*
G03X2657549Y-1324930I-38354J0D01*
G03X2659063Y-1314262I-36841J10668D01*
G01Y-1254318D01*
G03X2657894Y-1244920I-38354J0D01*
G03X2659063Y-1235522I-37185J9398D01*
G01Y-1175578D01*
G03X2657549Y-1164910I-38354J0D01*
G03X2659063Y-1154242I-36841J10668D01*
G01Y-1132473D01*
G03X2685355Y-1142903I26292J27924D01*
G01X2739355D01*
G03X2755646Y-1139272I0J38354D01*
G01Y-1800134D01*
G01X2592142Y-1963639D01*
G02X2562303Y-1979346I-40232J40232D01*
G01X2554999D01*
G03X2540000Y-1982400I0J-38354D01*
G03X2525001Y-1979346I-14999J-35300D01*
G01X2468436D01*
G03X2430082Y-2017700I0J-38354D01*
G01Y-2071700D01*
G03X2468436Y-2110054I38354J0D01*
G01X2525001D01*
G03X2536322Y-2108345I0J38354D01*
G03X2513745Y-2143304I15777J-34959D01*
G01Y-2213304D01*
G03X2552099Y-2251658I38354J0D01*
G01X2659037D01*
G01X2631460Y-2279235D01*
G02X2601621Y-2294942I-40232J40232D01*
G01X2552099D01*
G03X2513745Y-2333296I0J-38354D01*
G01Y-2403296D01*
G03X2552099Y-2441650I38354J0D01*
G01X2677100D01*
G03X2715454Y-2403296I0J38354D01*
G01Y-2350697D01*
G01Y-2347134D01*
G02X2721621Y-2333476I21157J-1331D01*
G01X2766601Y-2288496D01*
G03X2781554Y-2252396I-36101J36101D01*
G01Y-2133600D01*
G03X2766601Y-2097499I-51054J0D01*
G01X2684642Y-2015541D01*
G01X2842801Y-1857382D01*
G03X2857754Y-1821282I-36101J36101D01*
G01Y-536261D01*
G03X2865054Y-508000I-51054J28261D01*
G03X2806700Y-449646I-58354J0D01*
G03X2748346Y-508000I0J-58354D01*
G03X2755646Y-536261I58354J0D01*
G01Y-881801D01*
G03X2739355Y-878169I-16291J-34722D01*
G01X2685355D01*
G03X2648095Y-907427I0J-38354D01*
G03X2620709Y-895924I-27387J-26851D01*
G01X2537076D01*
G03X2530315Y-889099I-30413J-23368D01*
G01X2565068D01*
G03X2603422Y-850745I0J38354D01*
G01Y-796745D01*
G03X2576849Y-760245I-38354J0D01*
G03X2603422Y-723745I-11781J36500D01*
G01Y-669745D01*
G03X2565068Y-631391I-38354J0D01*
G01X2512346D01*
G01X2707262Y-436474D01*
G03X2724354Y-395212I-41262J41262D01*
G01Y-340879D01*
G01X2900746Y-517271D01*
G01Y-2452329D01*
G01X2628630Y-2724445D01*
G01X2460198D01*
G02X2438552Y-2724312I0J1763057D01*
G01Y-2696801D01*
G03X2436788Y-2685301I-38354J0D01*
G03X2438552Y-2673801I-36589J11500D01*
G01Y-2631802D01*
G03X2400198Y-2593448I-38354J0D01*
G01X2300199D01*
G03X2261845Y-2631802I0J-38354D01*
G01Y-2673801D01*
G03X2263609Y-2685301I38354J0D01*
G03X2261845Y-2696801I36589J-11500D01*
G01Y-2723043D01*
G01X2220501Y-2681699D01*
G03X2208555Y-2672822I-36101J-36101D01*
G01Y-2631802D01*
G03X2170201Y-2593448I-38354J0D01*
G01X2146762D01*
G02X2112180Y-2562255I285406J351180D01*
G01X2061363Y-2511438D01*
G03X2020100Y-2494346I-41262J-41262D01*
G01X1790700D01*
G03X1749438Y-2511438I0J-58354D01*
G01X1711338Y-2549538D01*
G03X1694246Y-2590800I41262J-41262D01*
G02X1687732Y-2629208I-116487J0D01*
G03X1685587Y-2641854I36209J-12646D01*
G01Y-2695854D01*
G03X1690559Y-2714740I38354J0D01*
G02X1701104Y-2749027I-72671J-41114D01*
G02X1700438Y-2761403I-390142J14773D01*
G03X1681879Y-2794254I19794J-32851D01*
G01Y-2816588D01*
G01X1650686Y-2847781D01*
G01X1600239Y-2898227D01*
G02X1565658Y-2929420I-319987J319987D01*
G01X1453363D01*
G03X1415009Y-2967774I0J-38354D01*
G01Y-3019207D01*
G01X1408063Y-3012261D01*
G03X1395001Y-2989928I-49163J-13768D01*
G01X1341222Y-2936149D01*
G02X1327531Y-2908975I34333J34333D01*
G01Y-2836329D01*
G03X1289177Y-2797975I-38354J0D01*
G01X1149223D01*
G03X1110869Y-2836329I0J-38354D01*
G01Y-2936329D01*
G03X1149223Y-2974683I38354J0D01*
G01X1221221D01*
G02X1251060Y-2990390I-10393J-55939D01*
G01X1277903Y-3017233D01*
G01X1255700D01*
G03X1219200Y-3043806I0J-38354D01*
G03X1182700Y-3017233I-36500J-11781D01*
G01X1128700D01*
G03X1090346Y-3055587I0J-38354D01*
G01Y-3134596D01*
G03X1093402Y-3149600I38354J0D01*
G03X1090346Y-3164604I35298J-15004D01*
G01Y-3243613D01*
G03X1113121Y-3278660I38354J0D01*
G02X1113638Y-3281713I-8754J-3053D01*
G01Y-3300400D01*
G01X1113504Y-3301969D01*
G03X1097853Y-3311595I11683J-36531D01*
G01X1858385Y-2441723D02*
G03X1890700Y-2459418I32315J20658D01*
G01X1944700D01*
G03X1983054Y-2421064I0J38354D01*
G01Y-2395226D01*
G03X2005762Y-2400554I22708J45726D01*
G01X2171700D01*
G03X2207801Y-2385601I0J51054D01*
G01X2225682Y-2367719D01*
G03X2240636Y-2331618I-36101J36101D01*
G01Y-2325700D01*
G02X2244279Y-2315530I16014J0D01*
G02X2255965Y-2311654I11685J-15675D01*
G01X2313893D01*
G03X2352100Y-2346654I38207J3354D01*
G01X2477101D01*
G03X2515455Y-2308300I0J38354D01*
G01Y-2238300D01*
G03X2477101Y-2199946I-38354J0D01*
G01X2352100D01*
G03X2327143Y-2209176I0J-38354D01*
G02X2314000Y-2209546I-13143J233549D01*
G01X2255965D01*
G02X2243100Y-2204718I0J19551D01*
G03X2217865Y-2195246I-25236J-28882D01*
G01X2217864D01*
G01X2161299D01*
G03X2154073Y-2195933I0J-38354D01*
G01X2154072Y-2195500D01*
G01Y-2163190D01*
G02X2154435Y-2160624I9271J0D01*
G03X2178354Y-2125090I-14435J35534D01*
G01Y-2045090D01*
G03X2140000Y-2006736I-38354J0D01*
G01X2060000D01*
G03X2021646Y-2045090I0J-38354D01*
G01Y-2125090D01*
G03X2051945Y-2162589I38354J0D01*
G01X2051964Y-2163190D01*
G01Y-2195500D01*
G02X2051850Y-2202822I-233919J0D01*
G03X2036382Y-2233600I22886J-30778D01*
G01Y-2287600D01*
G03X2037947Y-2298446I38354J0D01*
G01X2026909D01*
G01X1998581Y-2270118D01*
G03X1977015Y-2257277I-36101J-36101D01*
G03X1944700Y-2239581I-32315J-20658D01*
G01X1890700D01*
G03X1852346Y-2277935I0J-38354D01*
G01Y-2277936D01*
G01Y-2303774D01*
G03X1829638Y-2298446I-22708J-45726D01*
G01X1813190D01*
G01X1811620Y-2298312D01*
G03X1775090Y-2271646I-36530J-11688D01*
G01X1695090D01*
G03X1656736Y-2310000I0J-38354D01*
G01Y-2390000D01*
G03X1695090Y-2428354I38354J0D01*
G01X1775090D01*
G03X1811111Y-2403174I0J38354D01*
G01X1836819Y-2428882D01*
G03X1858385Y-2441723I36101J36101D01*
G01X1289177Y-2764625D02*
G03X1327531Y-2726271I0J38354D01*
G01Y-2626271D01*
G03X1289177Y-2587917I-38354J0D01*
G01X1270254D01*
G01Y-2585709D01*
G01X1298582Y-2557381D01*
G03X1311423Y-2535815I-36101J36101D01*
G03X1329119Y-2503500I-20658J32315D01*
G01Y-2449500D01*
G03X1290765Y-2411146I-38354J0D01*
G01X1290764D01*
G01X1234199D01*
G03X1219200Y-2414200I0J-38354D01*
G03X1204201Y-2411146I-14999J-35300D01*
G01X1147636D01*
G03X1109282Y-2449500I0J-38354D01*
G01Y-2503500D01*
G03X1147636Y-2541854I38354J0D01*
G01X1173474D01*
G03X1168146Y-2564562I45726J-22708D01*
G01Y-2587917D01*
G01X1149223D01*
G03X1110869Y-2626271I0J-38354D01*
G01Y-2726271D01*
G03X1149223Y-2764625I38354J0D01*
G01X1289177D01*
G01X2576689Y-2724445D02*
G01X2900746Y-2400388D01*
G01X2468926Y-2724445D02*
G01X2900746Y-2292625D01*
G01X2438552Y-2647055D02*
G01X2643958Y-2441650D01*
G01X2715454Y-2370153D02*
G01X2900746Y-2184862D01*
G01X2258323Y-2719522D02*
G01X2261845Y-2716000D01*
G01X2384397Y-2593448D02*
G01X2538636Y-2439209D01*
G01X2781554Y-2196291D02*
G01X2900746Y-2077099D01*
G01X2208555Y-2661526D02*
G01X2513745Y-2356336D01*
G01X2575140Y-2294942D02*
G01X2618424Y-2251658D01*
G01X2769467Y-2100614D02*
G01X2900746Y-1969336D01*
G01X2168871Y-2593448D02*
G01X2415665Y-2346654D01*
G01X2515455Y-2246864D02*
G01X2523480Y-2238838D01*
G01X2715710Y-2046609D02*
G01X2900746Y-1861573D01*
G01X2102240Y-2552315D02*
G01X2322215Y-2332340D01*
G01X2454609Y-2199946D02*
G01X2513832Y-2140723D01*
G01X2857754Y-1796802D02*
G01X2900746Y-1753809D01*
G01X2046256Y-2500536D02*
G01X2146238Y-2400554D01*
G01X2346424Y-2200368D02*
G01X2444849Y-2101944D01*
G01X2569171Y-1977622D02*
G01X2755646Y-1791146D01*
G01X2857754Y-1689038D02*
G01X2900746Y-1646046D01*
G01X1509609Y-2929420D02*
G01X1699726Y-2739303D01*
G01X1944683Y-2494346D02*
G01X2038475Y-2400554D01*
G01X2238045Y-2200984D02*
G01X2431437Y-2007592D01*
G01X2458328Y-1980702D02*
G01X2755646Y-1683383D01*
G01X2857754Y-1581275D02*
G01X2900746Y-1538283D01*
G01X1019120Y-3312146D02*
G01X1090346Y-3240920D01*
G01X1368169Y-2963097D02*
G01X1685587Y-2645679D01*
G01X1836920Y-2494346D02*
G01X1875144Y-2456122D01*
G01X2032820Y-2298446D02*
G01X2036970Y-2294296D01*
G01X2154072Y-2177194D02*
G01X2755646Y-1575620D01*
G01X2857754Y-1473512D02*
G01X2900746Y-1430520D01*
G01X911357Y-3312146D02*
G01X1090346Y-3133157D01*
G01X1201402Y-3022101D02*
G01X1241073Y-2982430D01*
G01X1327531Y-2895972D02*
G01X1815720Y-2407783D01*
G01X1972251Y-2251252D02*
G01X2051964Y-2171539D01*
G01X2178354Y-2045149D02*
G01X2755646Y-1467857D01*
G01X2857754Y-1365749D02*
G01X2900746Y-1322757D01*
G01X805237Y-3310503D02*
G01X1141785Y-2973955D01*
G01X1310971Y-2804769D02*
G01X1688040Y-2427700D01*
G01X1817294Y-2298446D02*
G01X1858249Y-2257491D01*
G01X1870256Y-2245485D02*
G01X2021646Y-2094094D01*
G01X2109004Y-2006736D02*
G01X2122476Y-1993264D01*
G01X2178354Y-1937386D02*
G01X2755646Y-1360094D01*
G01X2857754Y-1257986D02*
G01X2900746Y-1214994D01*
G01X787425Y-3220552D02*
G01X1110869Y-2897108D01*
G01X1210002Y-2797975D02*
G01X1243352Y-2764625D01*
G01X1327531Y-2680446D02*
G01X1579623Y-2428354D01*
G01X1643264Y-2364713D02*
G01X1656736Y-2351241D01*
G01X1736331Y-2271646D02*
G01X1898021Y-2109956D01*
G01X2008454Y-1999523D02*
G01X2029636Y-1978341D01*
G01X2163431Y-1844546D02*
G01X2574081Y-1433896D01*
G01X2659063Y-1348914D02*
G01X2755646Y-1252331D01*
G01X2857754Y-1150223D02*
G01X2900746Y-1107231D01*
G01X787425Y-3112789D02*
G01X1137443Y-2762771D01*
G01X1307589Y-2592625D02*
G01X1491456Y-2408758D01*
G01X1623668Y-2276546D02*
G01X1752502Y-2147712D01*
G01X2119112Y-1781102D02*
G01X2451332Y-1448882D01*
G01X2658571Y-1241643D02*
G01X2755646Y-1144568D01*
G01X2857754Y-1042460D02*
G01X2900746Y-999468D01*
G01X787425Y-3005026D02*
G01X1110869Y-2681582D01*
G01X1329119Y-2463332D02*
G01X1441025Y-2351426D01*
G01X1520557Y-2271894D02*
G01X1579431Y-2213020D01*
G01X2118399Y-1674052D02*
G01X2358555Y-1433896D01*
G01X2659063Y-1133388D02*
G01X2659538Y-1132913D01*
G01X2857754Y-934697D02*
G01X2900746Y-891705D01*
G01X787425Y-2897262D02*
G01X1143102Y-2541585D01*
G01X1273542Y-2411146D02*
G01X1387143Y-2297545D01*
G01X1459345Y-2225343D02*
G01X1536331Y-2148356D01*
G01X2118399Y-1566289D02*
G01X2245976Y-1438712D01*
G01X2857754Y-826934D02*
G01X2900746Y-783942D01*
G01X787425Y-2789499D02*
G01X1109282Y-2467643D01*
G01X1165779Y-2411146D02*
G01X1333262Y-2243663D01*
G01X2118399Y-1458526D02*
G01X2177101Y-1399824D01*
G01X2698755Y-878169D02*
G01X2755646Y-821279D01*
G01X2857754Y-719171D02*
G01X2900746Y-676179D01*
G01X787425Y-2681736D02*
G01X1262931Y-2206231D01*
G01X1894616Y-1574546D02*
G01X2001691Y-1467470D01*
G01X2118399Y-1350763D02*
G01X2177108Y-1292054D01*
G01X2289518Y-1179644D02*
G01X2294008Y-1175154D01*
G01X2573238Y-895924D02*
G01X2586843Y-882319D01*
G01X2596642Y-872520D02*
G01X2755646Y-713516D01*
G01X2857754Y-611408D02*
G01X2900746Y-568416D01*
G01X787425Y-2573973D02*
G01X1197955Y-2163444D01*
G01X1636053Y-1725346D02*
G01X1658848Y-1702551D01*
G01X1788192Y-1573206D02*
G01X2001691Y-1359707D01*
G01X2118399Y-1243000D02*
G01X2228925Y-1132473D01*
G01X2591981Y-769418D02*
G01X2755646Y-605753D01*
G01X2864070Y-497329D02*
G01X2872437Y-488962D01*
G01X787425Y-2466210D02*
G01X1122178Y-2131457D01*
G01X1643264Y-1610372D02*
G01X1660783Y-1592853D01*
G01X1677943Y-1575693D02*
G01X1752666Y-1500969D01*
G01X1809039Y-1444597D02*
G01X1853518Y-1400118D01*
G01X2118399Y-1135236D02*
G01X2202284Y-1051351D01*
G01X2599915Y-653721D02*
G01X2748412Y-505223D01*
G01X2803923Y-449712D02*
G01X2818555Y-435080D01*
G01X787425Y-2358447D02*
G01X1079684Y-2066189D01*
G01X1574226Y-1571646D02*
G01X1645877Y-1499996D01*
G01X2118399Y-1027473D02*
G01X2229100Y-916772D01*
G01X2514482Y-631391D02*
G01X2764674Y-381199D01*
G01X787425Y-2250684D02*
G01X1063854Y-1974255D01*
G01X1463563Y-1574546D02*
G01X1539788Y-1498322D01*
G01X787425Y-2142921D02*
G01X1009973Y-1920374D01*
G01X1412180Y-1518166D02*
G01X1459313Y-1471033D01*
G01X787425Y-2035158D02*
G01X956091Y-1866492D01*
G01X1291319Y-1531264D02*
G01X1422465Y-1400118D01*
G01X759046Y-1955775D02*
G01X897075Y-1817746D01*
G01X1072536Y-1642284D02*
G01X1317141Y-1397679D01*
G01X651283Y-1955775D02*
G01X831903Y-1775154D01*
G01X956311Y-1650746D02*
G01X1179009Y-1428048D01*
G01X1250248Y-1356809D02*
G01X1257478Y-1349579D01*
G01X543519Y-1955775D02*
G01X629144Y-1870150D01*
G01X737455Y-1761839D02*
G01X741804Y-1757490D01*
G01X870848Y-1628446D02*
G01X1136047Y-1363247D01*
G01X435756Y-1955775D02*
G01X540765Y-1850766D01*
G01X668089Y-1723442D02*
G01X714679Y-1676851D01*
G01X734148Y-1657383D02*
G01X738181Y-1653350D01*
G01X760649Y-1630882D02*
G01X1127299Y-1264231D01*
G01X327993Y-1955775D02*
G01X446649Y-1837118D01*
G01X535254Y-1748514D02*
G01X540540Y-1743228D01*
G01X731879Y-1551889D02*
G01X1010865Y-1272903D01*
G01X220230Y-1955775D02*
G01X404546Y-1771459D01*
G01X643911Y-1532094D02*
G01X902645Y-1273360D01*
G01X940215Y-1235790D02*
G01X963509Y-1212495D01*
G01X112467Y-1955775D02*
G01X404546Y-1663696D01*
G01X450960Y-1617281D02*
G01X512918Y-1555323D01*
G01X585120Y-1483122D02*
G01X699641Y-1368600D01*
G01X38354Y-1922125D02*
G01X459037Y-1501442D01*
G01X531238Y-1429241D02*
G01X602887Y-1357591D01*
G01X720795Y-1239684D02*
G01X732401Y-1228077D01*
G01X38354Y-1814362D02*
G01X405155Y-1447560D01*
G01X477357Y-1375359D02*
G01X624638Y-1228077D01*
G01X896543Y-956173D02*
G01X913997Y-938719D01*
G01X956919Y-895797D02*
G01X997341Y-855374D01*
G01X38354Y-1706599D02*
G01X351274Y-1393679D01*
G01X423475Y-1321478D02*
G01X578544Y-1166408D01*
G01X781609Y-963343D02*
G01X837641Y-907311D01*
G01X923260Y-821693D02*
G01X970041Y-774911D01*
G01X38354Y-1598835D02*
G01X304953Y-1332237D01*
G01X406654Y-1230535D02*
G01X578544Y-1058645D01*
G01X673741Y-963449D02*
G01X795398Y-841792D01*
G01X38354Y-1491072D02*
G01X304546Y-1224880D01*
G01X406654Y-1122772D02*
G01X770042Y-759384D01*
G01X38354Y-1383309D02*
G01X304546Y-1117117D01*
G01X406654Y-1015009D02*
G01X770287Y-651376D01*
G01X38354Y-1275546D02*
G01X304546Y-1009354D01*
G01X406654Y-907246D02*
G01X773027Y-540873D01*
G01X793561Y-520339D02*
G01X819297Y-494603D01*
G01X996654Y-317246D02*
G01X1041865Y-272035D01*
G01X38354Y-1167783D02*
G01X304546Y-901591D01*
G01X406654Y-799483D02*
G01X882889Y-323248D01*
G01X1011248Y-194889D02*
G01X1019357Y-186781D01*
G01X38354Y-1060020D02*
G01X304546Y-793828D01*
G01X406654Y-691720D02*
G01X806117Y-292257D01*
G01X980257Y-118117D02*
G01X983820Y-114554D01*
G01X38354Y-952257D02*
G01X304546Y-686065D01*
G01X406654Y-583957D02*
G01X667257Y-323354D01*
G01X757354Y-233257D02*
G01X766939Y-223672D01*
G01X38354Y-844494D02*
G01X304546Y-578302D01*
G01X406654Y-476194D02*
G01X559494Y-323354D01*
G01X757354Y-125494D02*
G01X768294Y-114554D01*
G01X38354Y-736731D02*
G01X304546Y-470539D01*
G01X406654Y-368431D02*
G01X510646Y-264439D01*
G01X38354Y-628968D02*
G01X304546Y-362776D01*
G01X406654Y-260668D02*
G01X510646Y-156676D01*
G01X38354Y-521205D02*
G01X304546Y-255013D01*
G01X38354Y-413442D02*
G01X413442Y-38354D01*
G01X38354Y-305679D02*
G01X305679Y-38354D01*
G01X84159Y-152111D02*
G01X152111Y-84159D01*
G01X2900746Y-560955D02*
G01X2863029Y-523238D01*
G01X2791462Y-451671D02*
G01X2724354Y-384563D01*
G01X2900746Y-668718D02*
G01X2857754Y-625726D01*
G01X2749047Y-517020D02*
G01X2687882Y-455854D01*
G01X2900746Y-776481D02*
G01X2857754Y-733489D01*
G01X2755646Y-631381D02*
G01X2634001Y-509736D01*
G01X2900746Y-884244D02*
G01X2857754Y-841252D01*
G01X2755646Y-739144D02*
G01X2580119Y-563617D01*
G01X2900746Y-992008D02*
G01X2857754Y-949015D01*
G01X2755646Y-846907D02*
G01X2603422Y-694684D01*
G01X2540129Y-631391D02*
G01X2526238Y-617499D01*
G01X2900746Y-1099771D02*
G01X2857754Y-1056779D01*
G01X2679582Y-878606D02*
G01X2603422Y-802447D01*
G01X2900746Y-1207534D02*
G01X2857754Y-1164542D01*
G01X2589136Y-895924D02*
G01X2579495Y-886282D01*
G01X2900746Y-1315297D02*
G01X2857754Y-1272305D01*
G01X2755646Y-1170197D02*
G01X2728353Y-1142903D01*
G01X2900746Y-1423060D02*
G01X2857754Y-1380068D01*
G01X2755646Y-1277960D02*
G01X2659063Y-1181377D01*
G01X2900746Y-1530823D02*
G01X2857754Y-1487831D01*
G01X2755646Y-1385723D02*
G01X2659063Y-1289140D01*
G01X2900746Y-1638586D02*
G01X2857754Y-1595594D01*
G01X2755646Y-1493486D02*
G01X2659039Y-1396879D01*
G01X2211819Y-949659D02*
G01X2178932Y-916772D01*
G01X2900746Y-1746349D02*
G01X2857754Y-1703357D01*
G01X2755646Y-1601249D02*
G01X2588293Y-1433896D01*
G01X2203555Y-1049158D02*
G01X2121468Y-967071D01*
G01X2900746Y-1854112D02*
G01X2857754Y-1811120D01*
G01X2755646Y-1709012D02*
G01X2495516Y-1448882D01*
G01X2220612Y-1173978D02*
G01X2118399Y-1071765D01*
G01X2900746Y-1961875D02*
G01X2819527Y-1880656D01*
G01X2747326Y-1808455D02*
G01X2372767Y-1433896D01*
G01X2177101Y-1238230D02*
G01X2118399Y-1179528D01*
G01X2900746Y-2069638D02*
G01X2765645Y-1934538D01*
G01X2693444Y-1862336D02*
G01X2269818Y-1438710D01*
G01X2177101Y-1345993D02*
G01X2118399Y-1287291D01*
G01X1019220Y-188113D02*
G01X1009435Y-178327D01*
G01X2900746Y-2177401D02*
G01X2711764Y-1988419D01*
G01X2639563Y-1916218D02*
G01X2118399Y-1395054D01*
G01X1040591Y-317246D02*
G01X991088Y-267743D01*
G01X2900746Y-2285164D02*
G01X2781554Y-2165972D01*
G01X2585159Y-1969577D02*
G01X2118399Y-1502817D01*
G01X2001691Y-1386110D02*
G01X1964412Y-1348830D01*
G01X944818Y-329237D02*
G01X931144Y-315563D01*
G01X772437Y-156856D02*
G01X757354Y-141772D01*
G01X2900746Y-2392927D02*
G01X2778259Y-2270440D01*
G01X2487164Y-1979346D02*
G01X2118399Y-1610581D01*
G01X2001691Y-1493873D02*
G01X1893641Y-1385822D01*
G01X888991Y-381172D02*
G01X757354Y-249535D01*
G01X2876565Y-2476510D02*
G01X2727576Y-2327521D01*
G01X2655375Y-2255320D02*
G01X2651713Y-2251658D01*
G01X2520963Y-2120908D02*
G01X2510110Y-2110054D01*
G01X2430082Y-2030026D02*
G01X2118399Y-1718344D01*
G01X1966513Y-1566457D02*
G01X1809039Y-1408983D01*
G01X816922Y-416866D02*
G01X723181Y-323125D01*
G01X2822684Y-2530391D02*
G01X2711841Y-2419548D01*
G01X2587234Y-2294942D02*
G01X2542808Y-2250515D01*
G01X2514888Y-2222595D02*
G01X2508338Y-2216045D01*
G01X2499355Y-2207063D02*
G01X2178354Y-1886062D01*
G01X1866838Y-1574546D02*
G01X1785059Y-1492767D01*
G01X970041Y-677749D02*
G01X969235Y-676943D01*
G01X809646Y-517354D02*
G01X615646Y-323354D01*
G01X510646Y-218354D02*
G01X455297Y-163004D01*
G01X383096Y-90803D02*
G01X330646Y-38354D01*
G01X2768802Y-2584273D02*
G01X2626179Y-2441650D01*
G01X2513942Y-2329413D02*
G01X2510920Y-2326391D01*
G01X2384475Y-2199946D02*
G01X2166839Y-1982309D01*
G01X1756175Y-1571646D02*
G01X1680116Y-1495587D01*
G01X970041Y-785512D02*
G01X922294Y-737764D01*
G01X770042Y-585513D02*
G01X406654Y-222125D01*
G01X329214Y-144685D02*
G01X231901Y-47372D01*
G01X2714921Y-2638154D02*
G01X2423420Y-2346654D01*
G01X2286312Y-2209546D02*
G01X2178354Y-2101588D01*
G01X2083502Y-2006736D02*
G01X2070030Y-1993264D01*
G01X1664129Y-1587363D02*
G01X1574695Y-1497928D01*
G01X970913Y-894146D02*
G01X934342Y-857576D01*
G01X770042Y-693276D02*
G01X406654Y-329888D01*
G01X304546Y-227780D02*
G01X157397Y-80631D01*
G01X2661039Y-2692036D02*
G01X2280657Y-2311654D01*
G01X2164249Y-2195246D02*
G01X2154072Y-2185069D01*
G01X2021646Y-2052643D02*
G01X2008454Y-2039451D01*
G01X1656736Y-1687733D02*
G01X1643264Y-1674261D01*
G01X1540649Y-1571646D02*
G01X1368024Y-1399021D01*
G01X912973Y-943970D02*
G01X889455Y-920452D01*
G01X770042Y-801039D02*
G01X406654Y-437651D01*
G01X304546Y-335543D02*
G01X100140Y-131137D01*
G01X2585685Y-2724445D02*
G01X2227283Y-2366043D01*
G01X2051964Y-2190724D02*
G01X1956856Y-2095616D01*
G01X1439806Y-1578566D02*
G01X1436954Y-1575714D01*
G01X1376922Y-1515681D02*
G01X1249673Y-1388433D01*
G01X1142746Y-1281506D02*
G01X1125106Y-1263866D01*
G01X827067Y-965827D02*
G01X406654Y-545414D01*
G01X304546Y-443306D02*
G01X59110Y-197870D01*
G01X2477922Y-2724445D02*
G01X2437237Y-2683760D01*
G01X2346925Y-2593448D02*
G01X2154031Y-2400554D01*
G01X2036382Y-2282904D02*
G01X1869398Y-2115921D01*
G01X1284741Y-1531264D02*
G01X1182283Y-1428806D01*
G01X1136594Y-1383117D02*
G01X1026380Y-1272903D01*
G01X963509Y-1210032D02*
G01X943461Y-1189984D01*
G01X718859Y-965382D02*
G01X406654Y-653177D01*
G01X304546Y-551069D02*
G01X38768Y-285291D01*
G01X2264222Y-2618508D02*
G01X2046268Y-2400554D01*
G01X1885632Y-2239918D02*
G01X1794070Y-2148356D01*
G01X1182808Y-1537094D02*
G01X915946Y-1270232D01*
G01X609733Y-964019D02*
G01X406654Y-760940D01*
G01X304546Y-658832D02*
G01X38354Y-392640D01*
G01X2214551Y-2676600D02*
G01X2208555Y-2670604D01*
G01X2033969Y-2496018D02*
G01X1978017Y-2440066D01*
G01X1836919Y-2298968D02*
G01X1686307Y-2148356D01*
G01X1127284Y-1589333D02*
G01X850791Y-1312840D01*
G01X777764Y-1239813D02*
G01X766028Y-1228077D01*
G01X578544Y-1040594D02*
G01X406654Y-868703D01*
G01X304546Y-766595D02*
G01X38354Y-500403D01*
G01X1924534Y-2494346D02*
G01X1889590Y-2459402D01*
G01X1701834Y-2271646D02*
G01X1636144Y-2205956D01*
G01X1072494Y-1642306D02*
G01X794825Y-1364637D01*
G01X669872Y-1239684D02*
G01X658265Y-1228077D01*
G01X578544Y-1148357D02*
G01X406654Y-976466D01*
G01X304546Y-874358D02*
G01X38354Y-608166D01*
G01X1816771Y-2494346D02*
G01X1750779Y-2428354D01*
G01X1656736Y-2334311D02*
G01X1643264Y-2320839D01*
G01X1594071Y-2271646D02*
G01X1479713Y-2157288D01*
G01X973171Y-1650746D02*
G01X692552Y-1370128D01*
G01X593731Y-1271306D02*
G01X406654Y-1084229D01*
G01X304546Y-982121D02*
G01X38354Y-715929D01*
G01X1737768Y-2523107D02*
G01X1631906Y-2417244D01*
G01X843108Y-1628446D02*
G01X406654Y-1191992D01*
G01X304546Y-1089884D02*
G01X38354Y-823692D01*
G01X1694343Y-2587444D02*
G01X1535253Y-2428354D01*
G01X746779Y-1639881D02*
G01X737455Y-1630556D01*
G01X636018Y-1529119D02*
G01X406654Y-1299755D01*
G01X304546Y-1197647D02*
G01X38354Y-931455D01*
G01X1685587Y-2686452D02*
G01X1162580Y-2163444D01*
G01X1121646Y-2122510D02*
G01X774289Y-1775154D01*
G01X735745Y-1736610D02*
G01X679293Y-1680158D01*
G01X304546Y-1305410D02*
G01X38354Y-1039218D01*
G01X1682046Y-2790674D02*
G01X1326202Y-2434829D01*
G01X1305435Y-2414062D02*
G01X735439Y-1844066D01*
G01X614815Y-1723442D02*
G01X603489Y-1712116D01*
G01X511571Y-1620198D02*
G01X38354Y-1146982D01*
G01X1641038Y-2857429D02*
G01X1315996Y-2532386D01*
G01X1194755Y-2411146D02*
G01X787425Y-2003816D01*
G01X739384Y-1955775D02*
G01X653759Y-1870150D01*
G01X536738Y-1753129D02*
G01X535254Y-1751645D01*
G01X414014Y-1630404D02*
G01X38354Y-1254745D01*
G01X1586889Y-2911043D02*
G01X1327531Y-2651685D01*
G01X1111766Y-2435920D02*
G01X787425Y-2111579D01*
G01X631621Y-1955775D02*
G01X510480Y-1834634D01*
G01X406367Y-1730521D02*
G01X38354Y-1362508D01*
G01X1497503Y-2929420D02*
G01X1318762Y-2750679D01*
G01X1156000Y-2587917D02*
G01X787425Y-2219342D01*
G01X523858Y-1955775D02*
G01X38354Y-1470271D01*
G01X1416731Y-2956410D02*
G01X1327531Y-2867211D01*
G01X1258295Y-2797975D02*
G01X1224945Y-2764625D01*
G01X1110869Y-2650549D02*
G01X787425Y-2327105D01*
G01X416095Y-1955775D02*
G01X38354Y-1578034D01*
G01X1150532Y-2797975D02*
G01X787425Y-2434868D01*
G01X308332Y-1955775D02*
G01X38354Y-1685797D01*
G01X1262027Y-3017233D02*
G01X1219477Y-2974683D01*
G01X1110869Y-2866075D02*
G01X787425Y-2542631D01*
G01X200569Y-1955775D02*
G01X38354Y-1793560D01*
G01X1154264Y-3017233D02*
G01X787425Y-2650394D01*
G01X92806Y-1955775D02*
G01X38354Y-1901323D01*
G01X1090346Y-3061078D02*
G01X787425Y-2758158D01*
G01X1090346Y-3168841D02*
G01X787425Y-2865921D01*
G01X1113638Y-3299896D02*
G01X787425Y-2973684D01*
G01X1018125Y-3312146D02*
G01X787425Y-3081447D01*
G01X910362Y-3312146D02*
G01X787425Y-3189210D01*
G01X797931Y-3307479D02*
G01X787425Y-3296973D01*
G01X2191537Y-3200146D02*
G02X2185050Y-3200056I0J233919D01*
G03X2171044Y-3187700I-31613J-21718D01*
G03X2191665Y-3156733I-17606J34074D01*
G02X2207499Y-3122503I54492J-4428D01*
G01X2258094Y-3071908D01*
G01Y-3145803D01*
G03X2261150Y-3160806I38354J0D01*
G03X2258094Y-3175810I35298J-15004D01*
G01Y-3197414D01*
G01Y-3200027D01*
G01X2258088Y-3200146D01*
G01X2191537D01*
G01X2208751Y-3200146D02*
G01X2258384Y-3150513D01*
G01X2258541Y-3151642D02*
G01X2218450Y-3111551D01*
G01X2199282Y-3200146D02*
G01X2180218Y-3181082D01*
G01X2460943Y-1282258D02*
G01X2460943Y-1254318D01*
G03X2459774Y-1244920I-38354J0D01*
G03X2460943Y-1235522I-37185J9398D01*
G01Y-1175578D01*
G03X2459429Y-1164910I-38354J0D01*
G03X2460943Y-1154242I-36841J10668D01*
G01Y-1094298D01*
G03X2459774Y-1084900I-38354J0D01*
G03X2460943Y-1075502I-37185J9398D01*
G01Y-1047562D01*
G01X2492439D01*
G01Y-1075502D01*
G03X2493608Y-1084900I38354J0D01*
G03X2492439Y-1094298I37185J-9398D01*
G01Y-1154242D01*
G03X2493952Y-1164910I38354J0D01*
G03X2492439Y-1175578I36841J-10668D01*
G01Y-1235522D01*
G03X2493608Y-1244920I38354J0D01*
G03X2492439Y-1254318I37185J-9398D01*
G01Y-1282258D01*
G01X2460943D01*
G01X2460943Y-1223745D02*
G01X2492439Y-1192249D01*
G01X2460943Y-1115982D02*
G01X2493307Y-1083618D01*
G01X2492439Y-1122516D02*
G01X2460789Y-1090866D01*
G01X2492439Y-1230279D02*
G01X2460943Y-1198783D01*
G01X1248246Y-1184890D02*
G01X1247987Y-1183947D01*
G01X1247718Y-1182658D01*
G01X1247563Y-1181616D01*
G01X1247495Y-1180768D01*
G01X1247494Y-1180745D01*
G01Y-1033330D01*
G01X1247600Y-1030598D01*
G01X1247879Y-1028009D01*
G01X1248246Y-1025852D01*
G01Y-1077196D01*
G03X1251302Y-1092200I38354J0D01*
G03X1248246Y-1107204I35298J-15004D01*
G01Y-1184890D01*
G01X1247494Y-1144037D02*
G01X1248246Y-1143285D01*
G01X1247494Y-1036274D02*
G01X1248246Y-1035522D01*
G01X1248246Y-1063717D02*
G01X1247494Y-1062965D01*
G01X1248246Y-1171480D02*
G01X1247494Y-1170728D01*
G01X1378954Y-1052764D02*
G01X1378954Y-998187D01*
G03X1340600Y-959833I-38354J0D01*
G01X1302268D01*
G01X1399670Y-862431D01*
G03X1411699Y-881501I48130J17031D01*
G01X1481512Y-951313D01*
G03X1455130Y-996771I25973J-45458D01*
G01Y-1045422D01*
G01X1405692D01*
G03X1378954Y-1052764I0J-52354D01*
G01X1453872Y-1045422D02*
G01X1455130Y-1044164D01*
G01X1378954Y-1012577D02*
G01X1460865Y-930666D01*
G01X1323935Y-959833D02*
G01X1407293Y-876475D01*
G01X1469045Y-961227D02*
G01X1384960Y-877141D01*
G01X1445478Y-1045422D02*
G01X1331078Y-931023D01*
G01X1085219Y-1033510D02*
G01X1085219Y-998043D01*
G02X1097606Y-1021122I-71056J-53001D01*
G01X1085219Y-1033510D01*
G01X1097446Y-1020679D02*
G01X1085219Y-1008452D01*
G01X1699965Y-944851D02*
G03X1681691Y-950774I6732J-51920D01*
G03X1656684Y-944416I-25006J-45996D01*
G03X1631691Y-950768I0J-52354D01*
G03X1606697Y-944416I-24994J-46003D01*
G01X1605733Y-944425D01*
G03X1563499Y-888898I-58351J-556D01*
G01X1503802Y-829200D01*
G03X1505973Y-817386I-56002J16400D01*
G01X1508612Y-818580D01*
G01X1512649Y-820690D01*
G01X1516408Y-822932D01*
G01X1519685Y-825160D01*
G01X1522484Y-827346D01*
G01X1523784Y-828500D01*
G01X1524272Y-828973D01*
G01X1587716Y-892417D01*
G03X1643800Y-934654I56084J16117D01*
G03X1702154Y-876300I0J58354D01*
G03X1681607Y-831850I-58354J0D01*
G03X1702154Y-787400I-37807J44450D01*
G03X1695370Y-760092I-58354J0D01*
G03X1711936Y-763854I16565J34592D01*
G01X1768501D01*
G03X1783500Y-760800I0J38354D01*
G03X1798499Y-763854I14999J35300D01*
G01X1855065D01*
G03X1893419Y-725500I0J38354D01*
G01Y-671500D01*
G03X1880269Y-642590I-38354J0D01*
G02X1876552Y-636727I8013J9191D01*
G02X1902950Y-566354I137053J-11273D01*
G01X2370700D01*
G03X2411963Y-549262I0J58354D01*
G01X2607646Y-353579D01*
G01Y-371041D01*
G01X2375284Y-603402D01*
G03X2358842Y-635984I41262J-41262D01*
G03X2338688Y-669745I18200J-33761D01*
G01Y-723745D01*
G03X2355397Y-755407I38354J0D01*
G02X2346020Y-774192I-60888J18663D01*
G03X2338688Y-796745I31023J-22553D01*
G01Y-842783D01*
G01X2313062Y-817156D01*
G03X2271799Y-800064I-41262J-41262D01*
G01X2060045D01*
G01X2022900D01*
G02X1973292Y-793216I0J183101D01*
G03X1962900Y-791781I-10391J-36919D01*
G01X1908900D01*
G03X1887774Y-798124I0J-38354D01*
G02X1848900Y-800064I-38874J388481D01*
G01X1839482D01*
G03X1798219Y-817156I0J-58354D01*
G01X1755728Y-859647D01*
G01X1716838Y-898538D01*
G03X1699746Y-939800I41262J-41262D01*
G03X1699965Y-944851I58354J0D01*
G01X2320889Y-824983D02*
G01X2338688Y-807184D01*
G01X2238045Y-800064D02*
G01X2338688Y-699421D01*
G01X2130282Y-800064D02*
G01X2363992Y-566354D01*
G01X2022519Y-800064D02*
G01X2256229Y-566354D01*
G01X1923039Y-791781D02*
G01X2148466Y-566354D01*
G01X1662335Y-944722D02*
G01X1843203Y-763854D01*
G01X1893419Y-713638D02*
G01X2040703Y-566354D01*
G01X1591964Y-907330D02*
G01X1593468Y-905827D01*
G01X1701158Y-798136D02*
G01X1735440Y-763854D01*
G01X1878885Y-620409D02*
G01X1932940Y-566354D01*
G01X1533066Y-858465D02*
G01X1543415Y-848116D01*
G01X2605357Y-373329D02*
G01X2596626Y-364599D01*
G01X2551476Y-427211D02*
G01X2542745Y-418480D01*
G01X2497594Y-481092D02*
G01X2488863Y-472362D01*
G01X2443713Y-534974D02*
G01X2434982Y-526243D01*
G01X2389831Y-588856D02*
G01X2367329Y-566354D01*
G01X2343810Y-650597D02*
G01X2259566Y-566354D01*
G01X2351202Y-765753D02*
G01X2151803Y-566354D01*
G01X2278091Y-800405D02*
G01X2044040Y-566354D01*
G01X2169988Y-800064D02*
G01X1936277Y-566354D01*
G01X2062225Y-800064D02*
G01X1879541Y-617381D01*
G01X1946179Y-791781D02*
G01X1891592Y-737195D01*
G01X1846698Y-800064D02*
G01X1810488Y-763854D01*
G01X1777123Y-838252D02*
G01X1701189Y-762318D01*
G01X1723241Y-892134D02*
G01X1701893Y-870785D01*
G01X1669305Y-945960D02*
G01X1656582Y-933237D01*
G01X1133410Y-739865D02*
G03X1126115Y-748764I41262J-41262D01*
G03X1117482Y-730708I-37720J-6944D01*
G03X1126749Y-705708I-29087J25000D01*
G01Y-655708D01*
G03X1117482Y-630708I-38354J0D01*
G03X1126749Y-605708I-29087J25000D01*
G01Y-555708D01*
G03X1088395Y-517354I-38354J0D01*
G01X1045248D01*
G03X1080760Y-479105I-2842J38249D01*
G01Y-425105D01*
G03X1080327Y-419354I-38354J0D01*
G01X1286953D01*
G01X1368237Y-500638D01*
G01X1368207Y-501070D01*
G01X1368077Y-501885D01*
G01X1367830Y-502860D01*
G01X1367458Y-503943D01*
G01X1366960Y-505076D01*
G01X1366349Y-506206D01*
G01X1365648Y-507284D01*
G01X1364886Y-508268D01*
G01X1363532Y-509743D01*
G01X1133410Y-739865D01*
G01X1119478Y-733238D02*
G01X1360157Y-492558D01*
G01X1123259Y-621693D02*
G01X1306276Y-438677D01*
G01X1111838Y-525352D02*
G01X1217835Y-419354D01*
G01X1080760Y-448666D02*
G01X1110072Y-419354D01*
G01X1352191Y-521084D02*
G01X1250462Y-419354D01*
G01X1298310Y-574965D02*
G01X1142699Y-419354D01*
G01X1244428Y-628847D02*
G01X1080760Y-465179D01*
G01X1190547Y-682728D02*
G01X1124995Y-617176D01*
G01X1136665Y-736610D02*
G01X1122772Y-722716D01*
G01X979309Y-630708D02*
G03X974047Y-638642I29087J-25000D01*
G01Y-622774D01*
G03X979309Y-630708I34348J17066D01*
G01X974047Y-538643D02*
G01X974047Y-517459D01*
G01X1005554D01*
G03X974047Y-538643I2842J-38249D01*
G01X659772Y-1305038D02*
G01X605581Y-1305038D01*
G01X659772Y-1305038D02*
G01X659772Y-1357946D01*
G01X659772Y-1305038D02*
G01X659772Y-1252130D01*
G01X636600Y-1796796D02*
G01X725009Y-1796796D01*
G01X636600Y-1796796D02*
G01X548192Y-1796796D01*
G01X636600Y-1796796D02*
G01X636600Y-1857704D01*
G01X636600Y-1796796D02*
G01X636600Y-1735888D01*
G01X469900Y-1770482D02*
G01X469900Y-1824672D01*
G01X469900Y-1770482D02*
G01X416992Y-1770482D01*
G01X469900Y-1770482D02*
G01X522808Y-1770482D01*
G01X643899Y-1150219D02*
G01X643899Y-1215631D01*
G01X643899Y-1150219D02*
G01X590990Y-1150219D01*
G01X758199Y-1150219D02*
G01X758199Y-1215631D01*
G01X1024364Y-1017027D02*
G01X1072773Y-1017027D01*
G01X1002902Y-452105D02*
G01X1068314Y-452105D01*
G01X1002902Y-452105D02*
G01X1002902Y-505013D01*
G01X1313600Y-1037692D02*
G01X1313600Y-972279D01*
G01X1313600Y-1037692D02*
G01X1260692Y-1037692D01*
G01X1313600Y-1037692D02*
G01X1366508Y-1037692D01*
G01X1155700Y-3095092D02*
G01X1155700Y-3029679D01*
G01X1155700Y-3095092D02*
G01X1102792Y-3095092D01*
G01X1048395Y-680708D02*
G01X982487Y-680708D01*
G01X1048395Y-680708D02*
G01X1114303Y-680708D01*
G01X1282700Y-3095092D02*
G01X1335608Y-3095092D01*
G01X1175918Y-2476500D02*
G01X1121728Y-2476500D01*
G01X1175918Y-2476500D02*
G01X1175918Y-2529408D01*
G01X1175918Y-2476500D02*
G01X1175918Y-2423592D01*
G01X1493738Y-1022770D02*
G01X1467576Y-1022770D01*
G01X1540877Y-3251200D02*
G01X1427455Y-3251200D01*
G01X1540877Y-3251200D02*
G01X1654299Y-3251200D01*
G01X1492951Y-1422770D02*
G01X1466789Y-1422770D01*
G01X1698501Y-2070002D02*
G01X1698501Y-2135910D01*
G01X1792000Y-4000000D02*
G01X1666092Y-4000000D01*
G01X1792000Y-4000000D02*
G01X1917908Y-4000000D01*
G01X1792000Y-4000000D02*
G01X1792000Y-3874092D01*
G01X1792000Y-4000000D02*
G01X1792000Y-4125908D01*
G01X1868754Y-2821254D02*
G01X1934167Y-2821254D01*
G01X1868754Y-2821254D02*
G01X1868754Y-2874162D01*
G01X1868754Y-2821254D02*
G01X1868754Y-2768346D01*
G01X1872463Y-2668854D02*
G01X1937875Y-2668854D01*
G01X1872463Y-2668854D02*
G01X1872463Y-2721762D01*
G01X2324100Y-3483508D02*
G01X2324100Y-3548921D01*
G01X2324100Y-3483508D02*
G01X2377008Y-3483508D01*
G01X2324100Y-3483508D02*
G01X2271192Y-3483508D01*
G01X2515997Y-3412007D02*
G01X2515997Y-3497915D01*
G01X2515997Y-3412007D02*
G01X2442588Y-3412007D01*
G01X2515997Y-3412007D02*
G01X2589406Y-3412007D01*
G01X2323448Y-3106298D02*
G01X2270540Y-3106298D01*
G01X2323448Y-3106298D02*
G01X2376356Y-3106298D01*
G01X2476691Y-1365570D02*
G01X2476691Y-1436436D01*
G01X2476691Y-1365570D02*
G01X2476691Y-1294704D01*
G01X2242455Y-1251836D02*
G01X2242455Y-1186424D01*
G01X2242455Y-1251836D02*
G01X2189547Y-1251836D01*
G01X2350199Y-2717800D02*
G01X2274291Y-2717800D01*
G01X2350199Y-2717800D02*
G01X2426106Y-2717800D01*
G01X2350199Y-2652801D02*
G01X2350199Y-2605894D01*
G01X2350199Y-2652801D02*
G01X2274291Y-2652801D01*
G01X2350199Y-2652801D02*
G01X2426106Y-2652801D01*
G01X2496718Y-2044700D02*
G01X2442528Y-2044700D01*
G01X2496718Y-2044700D02*
G01X2496718Y-1991792D01*
G01X2496718Y-2044700D02*
G01X2496718Y-2097608D01*
G01X2525564Y-696745D02*
G01X2590976Y-696745D01*
G01X2525564Y-696745D02*
G01X2525564Y-643837D01*
G01X2525564Y-823745D02*
G01X2590976Y-823745D01*
G01X2575751Y-1205550D02*
G01X2504885Y-1205550D01*
G01X2575751Y-1205550D02*
G01X2646617Y-1205550D01*
G01X2575751Y-1124270D02*
G01X2504885Y-1124270D01*
G01X2614600Y-2178304D02*
G01X2526191Y-2178304D01*
G01X2614600Y-2178304D02*
G01X2614600Y-2239212D01*
G01X2691003Y-3191993D02*
G01X2691003Y-3277900D01*
G01X2691003Y-3191993D02*
G01X2691003Y-3106085D01*
G01X2691003Y-3191993D02*
G01X2617594Y-3191993D01*
G01X2691003Y-3191993D02*
G01X2764412Y-3191993D01*
G01X634000Y-200000D02*
G01X523092Y-200000D01*
G01X634000Y-200000D02*
G01X744908Y-200000D01*
G01X634000Y-200000D02*
G01X634000Y-310908D01*
G01X3120000Y-3627000D02*
G01X3120000Y-3742908D01*
G01X3120000Y-3627000D02*
G01X3004092Y-3627000D01*
G01X3120000Y-3627000D02*
G01X3235908Y-3627000D01*
G04 Copper End*

G04 PolygonModel Start*
G36*
G01X786994Y-3626794D02*
G01X786994Y-3534262D01*
G01X297993D01*
G01Y-3396797D01*
G01X786994D01*
G01Y-3344245D01*
G01X297993D01*
G01Y-3176783D01*
G01X562000D01*
G01Y-2874243D01*
G01X297993D01*
G01Y-2706806D01*
G01X562000D01*
G01Y-2404292D01*
G01X562026Y-2404267D01*
G01X297993D01*
G01Y-2236830D01*
G01X298018Y-2236805D01*
G01X692023D01*
G01Y-2184252D01*
G01X245669D01*
G01X245466Y-2184455D01*
G01Y-2456794D01*
G01X509473D01*
G01Y-2654254D01*
G01X245466D01*
G01Y-2926796D01*
G01X509473D01*
G01Y-3124255D01*
G01X245466D01*
G01Y-3626794D01*
G01X786994D01*
G37*
G04 PolygonModel End*

G04 Tear Start*
G36*
G01X1520374Y-1372074D02*
G01X1494974Y-1372074D01*
G01X1494786Y-1378341D01*
G01X1494291Y-1383636D01*
G01X1492791Y-1395150D01*
G01X1515115Y-1385583D01*
G01X1514339Y-1384428D01*
G01X1514465Y-1382978D01*
G01X1515246Y-1381306D01*
G01X1517790Y-1377575D01*
G01X1519061Y-1375657D01*
G01X1520005Y-1373800D01*
G01X1520374Y-1372074D01*
G37*
G36*
G01X1901682Y-1310476D02*
G01X1901682Y-1285076D01*
G01X1899913Y-1285218D01*
G01X1897952Y-1285610D01*
G01X1893587Y-1286953D01*
G01X1884059Y-1290519D01*
G01X1879449Y-1291968D01*
G01X1877304Y-1292440D01*
G01X1875310Y-1292679D01*
G01X1873503Y-1292636D01*
G01X1871918Y-1292263D01*
G01X1870588Y-1291512D01*
G01X1869549Y-1290335D01*
G01Y-1305218D01*
G01X1870588Y-1304040D01*
G01X1871918Y-1303289D01*
G01X1873503Y-1302917D01*
G01X1875310Y-1302874D01*
G01X1877304Y-1303112D01*
G01X1879449Y-1303584D01*
G01X1884059Y-1305033D01*
G01X1893587Y-1308599D01*
G01X1897952Y-1309943D01*
G01X1899913Y-1310335D01*
G01X1901682Y-1310476D01*
G37*
G36*
G01X1759573Y-1236286D02*
G01X1766118Y-1261686D01*
G01X1767731Y-1261557D01*
G01X1769486Y-1261197D01*
G01X1771358Y-1260651D01*
G01X1777419Y-1258328D01*
G01X1783610Y-1255898D01*
G01X1785584Y-1255268D01*
G01X1787470Y-1254800D01*
G01X1789243Y-1254539D01*
G01X1790878Y-1254527D01*
G01X1792348Y-1254809D01*
G01X1793628Y-1255428D01*
G01X1794693Y-1256428D01*
G01X1802622Y-1234103D01*
G01X1796787Y-1235246D01*
G01X1791379Y-1235986D01*
G01X1786250Y-1236399D01*
G01X1778752Y-1236578D01*
G01X1759573Y-1236286D01*
G37*
G36*
G01X1901682Y-1210476D02*
G01X1901682Y-1185076D01*
G01X1857690Y-1183776D01*
G01Y-1211777D01*
G01X1901682Y-1210476D01*
G37*
G36*
G01X1762107Y-1134798D02*
G01X1761318Y-1160196D01*
G01X1776975Y-1160581D01*
G01X1793848Y-1161578D01*
G01X1805691Y-1161764D01*
G01Y-1133763D01*
G01X1780799Y-1134445D01*
G01X1762107Y-1134798D01*
G37*
G36*
G01X1882005Y-1160464D02*
G01X1882061Y-1135064D01*
G01X1880472Y-1135423D01*
G01X1878729Y-1136349D01*
G01X1875103Y-1138933D01*
G01X1873380Y-1140110D01*
G01X1871824Y-1140890D01*
G01X1870514Y-1141032D01*
G01X1869531Y-1140295D01*
G01X1869566Y-1155178D01*
G01X1871835Y-1154596D01*
G01X1875092Y-1156567D01*
G01X1878696Y-1159165D01*
G01X1882005Y-1160464D01*
G37*
G36*
G01X1847000Y-1045676D02*
G01X1821600Y-1045676D01*
G01X1821376Y-1053648D01*
G01X1820958Y-1058334D01*
G01X1820257Y-1062861D01*
G01X1819603Y-1065756D01*
G01X1818781Y-1068527D01*
G01X1817772Y-1071154D01*
G01X1816561Y-1073615D01*
G01X1815873Y-1074777D01*
G01X1815129Y-1075890D01*
G01X1814325Y-1076951D01*
G01X1813459Y-1077958D01*
G01X1812531Y-1078907D01*
G01X1811536Y-1079797D01*
G01X1810473Y-1080625D01*
G01X1809340Y-1081387D01*
G01X1808135Y-1082082D01*
G01X1806856Y-1082706D01*
G01X1805500Y-1083258D01*
G01X1804065Y-1083735D01*
G01X1802550Y-1084133D01*
G01X1866050Y-1086546D01*
G01X1864072Y-1084921D01*
G01X1862158Y-1083050D01*
G01X1860317Y-1080959D01*
G01X1858558Y-1078675D01*
G01X1856889Y-1076224D01*
G01X1855319Y-1073632D01*
G01X1853169Y-1069535D01*
G01X1851291Y-1065267D01*
G01X1849716Y-1060917D01*
G01X1848472Y-1056571D01*
G01X1847841Y-1053720D01*
G01X1847380Y-1050937D01*
G01X1847096Y-1048247D01*
G01X1847000Y-1045676D01*
G37*
G36*
G01X1455384Y-1024992D02*
G01X1455478Y-1050392D01*
G01X1457471Y-1050269D01*
G01X1462514Y-1049428D01*
G01X1478044Y-1046018D01*
G01X1483964Y-1045108D01*
G01X1486583Y-1044936D01*
G01X1488882Y-1045015D01*
G01X1490791Y-1045391D01*
G01X1492241Y-1046111D01*
G01X1493162Y-1047222D01*
G01X1493484Y-1048770D01*
G01Y-1005942D01*
G01X1493429Y-1007672D01*
G01X1493265Y-1009295D01*
G01X1492998Y-1010813D01*
G01X1492628Y-1012230D01*
G01X1492162Y-1013549D01*
G01X1491601Y-1014774D01*
G01X1490949Y-1015908D01*
G01X1490210Y-1016955D01*
G01X1489387Y-1017918D01*
G01X1488484Y-1018801D01*
G01X1487505Y-1019608D01*
G01X1486452Y-1020341D01*
G01X1485330Y-1021004D01*
G01X1484141Y-1021601D01*
G01X1482889Y-1022135D01*
G01X1481578Y-1022610D01*
G01X1478792Y-1023396D01*
G01X1475811Y-1023987D01*
G01X1472662Y-1024410D01*
G01X1467686Y-1024792D01*
G01X1455384Y-1024992D01*
G37*
G36*
G01X1361699Y-1135064D02*
G01X1361699Y-1160464D01*
G01X1363468Y-1160322D01*
G01X1365430Y-1159930D01*
G01X1369795Y-1158587D01*
G01X1379322Y-1155021D01*
G01X1383932Y-1153572D01*
G01X1386077Y-1153100D01*
G01X1388071Y-1152861D01*
G01X1389878Y-1152904D01*
G01X1391463Y-1153277D01*
G01X1392793Y-1154028D01*
G01X1393833Y-1155205D01*
G01Y-1140322D01*
G01X1392793Y-1141500D01*
G01X1391463Y-1142251D01*
G01X1389878Y-1142623D01*
G01X1388071Y-1142666D01*
G01X1386077Y-1142427D01*
G01X1383932Y-1141956D01*
G01X1379322Y-1140507D01*
G01X1369795Y-1136941D01*
G01X1365430Y-1135597D01*
G01X1363468Y-1135205D01*
G01X1361699Y-1135064D01*
G37*
G36*
G01X1361699Y-1335063D02*
G01X1361699Y-1360463D01*
G01X1405692Y-1361764D01*
G01Y-1333763D01*
G01X1361699Y-1335063D01*
G37*
G36*
G01X1498693Y-1363094D02*
G01X1516654Y-1381054D01*
G02X1566879Y-1357770I56879J-56879D01*
G01X1497936Y-1336910D01*
G02X1498693Y-1363094I-11976J-13449D01*
G37*
G36*
G01X1806035Y-1261686D02*
G01X1806035Y-1236286D01*
G02X1767935Y-1217236I0J47625D01*
G01Y-1280736D01*
G02X1806035Y-1261686I38100J-28575D01*
G37*
G36*
G01X1806035Y-1160295D02*
G01X1806035Y-1134895D01*
G02X1767935Y-1115761I106J47710D01*
G01Y-1179261D01*
G02X1806035Y-1160295I37994J-28575D01*
G37*
G36*
G01X1512095Y-1076541D02*
G01X1494135Y-1094501D01*
G02X1497936Y-1125243I-17807J-17807D01*
G01X1550265Y-1087770D01*
G02X1512095Y-1076541I-8790J40609D01*
G37*
G36*
G01X2476691Y-984250D02*
G01X2476691Y-944250D01*
G02X2422589Y-934278I0J151748D01*
G01Y-994222D01*
G02X2476691Y-984250I54102J-141776D01*
G37*
G36*
G01X2430689Y-939476D02*
G01X2402405Y-911192D01*
G02X2373352Y-934278I-115402J115400D01*
G01X2422589Y-990003D01*
G02X2430689Y-939476I38960J19667D01*
G37*
G36*
G01X2333517Y-891852D02*
G01X2290246Y-905150D01*
G02X2332673Y-990003I-106066J-106066D01*
G01X2422589Y-934278D01*
G02X2333517Y-891852I15266J146764D01*
G37*
G36*
G01X2308330Y-1032830D02*
G01X2308330Y-1058230D01*
G02X2332673Y-1075502I0J-25790D01*
G01Y-1015558D01*
G02X2308330Y-1032830I-24343J8518D01*
G37*
G36*
G01X2298170Y-1111570D02*
G01X2298170Y-1136970D01*
G02X2332673Y-1154242I0J-43097D01*
G01Y-1094298D01*
G02X2298170Y-1111570I-34503J25825D01*
G37*
G36*
G01X2294573Y-1352870D02*
G01X2294573Y-1378270D01*
G02X2332673Y-1380949I-0J-272272D01*
G01Y-1350191D01*
G02X2294573Y-1352870I-38100J269593D01*
G37*
G36*
G01X2463991Y-1448628D02*
G01X2489391Y-1448628D01*
G02X2492070Y-1410528I272272J-0D01*
G01X2461312D01*
G02X2463991Y-1448628I-269593J-38100D01*
G37*
G36*
G01X2588451Y-1137478D02*
G01X2563051Y-1137478D01*
G02X2544001Y-1175578I-47625J0D01*
G01X2607501D01*
G02X2588451Y-1137478I28575J38100D01*
G37*
G36*
G01X2563051Y-1192342D02*
G01X2588451Y-1192342D01*
G02X2607501Y-1154242I47625J0D01*
G01X2544001D01*
G02X2563051Y-1192342I-28575J-38100D01*
G37*
G36*
G01X2658809Y-976950D02*
G01X2658809Y-951550D01*
G02X2620709Y-934278I0J50658D01*
G01Y-994222D01*
G02X2658809Y-976950I38100J-33386D01*
G37*
G36*
G01X2386719Y-944250D02*
G01X2386719Y-984250D01*
G02X2446719Y-988469I0J-428774D01*
G01Y-940031D01*
G02X2386719Y-944250I-59999J424555D01*
G37*
G36*
G01X835696Y-835696D02*
G01X861096Y-835696D01*
G02X880146Y-805708I33129J0D01*
G01X816646D01*
G02X835696Y-835696I-14079J-29988D01*
G37*
G36*
G01X1035695Y-843808D02*
G01X1061095Y-843808D01*
G02X1080145Y-805708I47625J0D01*
G01X1016645D01*
G02X1035695Y-843808I-28575J-38100D01*
G37*
G36*
G01X1073328Y-1029727D02*
G01X1073328Y-1004327D01*
G02X1046865Y-994527I0J40627D01*
G01Y-1039528D01*
G02X1073328Y-1029727I26463J-30827D01*
G37*
G36*
G01X1084965Y-1224749D02*
G01X1084965Y-1199349D01*
G02X1046865Y-1189548I0J78957D01*
G01Y-1234549D01*
G02X1084965Y-1224749I38100J-69157D01*
G37*
G36*
G01X829939Y-1243529D02*
G01X847900Y-1261490D01*
G02X901782Y-1234549I67352J-67352D01*
G01X856880Y-1189648D01*
G02X829939Y-1243529I-94293J13470D01*
G37*
G36*
G01X915875Y-1159725D02*
G01X915875Y-1134325D01*
G02X901881Y-1124524I0J14891D01*
G01Y-1169525D01*
G02X915875Y-1159725I13994J-5091D01*
G37*
G36*
G01X818780Y-1004327D02*
G01X818780Y-1029727D01*
G02X856880Y-1032406I-0J-272272D01*
G01Y-1001648D01*
G02X818780Y-1004327I-38100J269593D01*
G37*
G36*
G01X933628Y-1029727D02*
G01X933628Y-1004327D01*
G02X901881Y-1001648I0J189442D01*
G01Y-1032406D01*
G02X933628Y-1029727I31746J-186763D01*
G37*
G36*
G01X1249782Y-2521280D02*
G01X1275182Y-2521280D01*
G02X1290765Y-2503500I17935J0D01*
G01X1234199D01*
G02X1249782Y-2521280I-2352J-17780D01*
G37*
G36*
G01X1278180Y-2963270D02*
G01X1314101Y-2963270D01*
G02X1289177Y-2911405I61453J61453D01*
G01X1224299Y-2936329D01*
G02X1278180Y-2963270I-13470J-94293D01*
G37*
G36*
G01X1231900Y-2588171D02*
G01X1206500Y-2588171D01*
G02X1187450Y-2626271I-47625J0D01*
G01X1250950D01*
G02X1231900Y-2588171I28575J38100D01*
G37*
G36*
G01X2032102Y-2768600D02*
G01X2032102Y-2794000D01*
G02X2070202Y-2803798I0J-78976D01*
G01Y-2761799D01*
G02X2032102Y-2768600I-38100J103322D01*
G37*
G36*
G01X2184400Y-2730500D02*
G01X2184400Y-2705100D01*
G02X2170201Y-2702421I0J38967D01*
G01Y-2733179D01*
G02X2184400Y-2730500I14199J-36288D01*
G37*
G36*
G01X2085060Y-2589376D02*
G01X2028491Y-2589376D01*
G02X2070202Y-2673512I-103929J-103929D01*
G01X2133452Y-2631802D01*
G02X2085060Y-2589376I298716J389535D01*
G37*
G36*
G01X2460198Y-2802799D02*
G01X2460198Y-2762799D01*
G02X2400198Y-2761799I0J1801423D01*
G01Y-2803798D01*
G02X2460198Y-2802799I60000J-1800423D01*
G37*
G36*
G01X2262099Y-2768600D02*
G01X2262099Y-2794000D01*
G02X2300199Y-2803798I0J-78976D01*
G01Y-2761799D01*
G02X2262099Y-2768600I-38100J103322D01*
G37*
G36*
G01X1151992Y-3281713D02*
G01X1177392Y-3281713D01*
G02X1182700Y-3243613I139377J0D01*
G01X1132942D01*
G02X1151992Y-3281713I-28575J-38100D01*
G37*
G36*
G01X2622023Y-3325067D02*
G01X2616562Y-3355527D01*
G02X2643502Y-3409408I-67352J-67352D01*
G01X2675904Y-3352008D01*
G02X2622023Y-3325067I13470J94293D01*
G37*
G36*
G01X2430396Y-3202615D02*
G01X2430396Y-3228015D01*
G02X2468496Y-3247065I0J-47625D01*
G01Y-3183565D01*
G02X2430396Y-3202615I-38100J28575D01*
G37*
G36*
G01X2259000Y-3365500D02*
G01X2259000Y-3390900D01*
G02X2297100Y-3409950I0J-47625D01*
G01Y-3346450D01*
G02X2259000Y-3365500I-38100J28575D01*
G37*
G36*
G01X2278582Y-3242220D02*
G01X2296543Y-3260180D01*
G02X2328844Y-3254819I19898J-19898D01*
G01X2296448Y-3197414D01*
G02X2278582Y-3242220I-61048J-1624D01*
G37*
G36*
G01X2388548Y-3228015D02*
G01X2388548Y-3202615D01*
G02X2350448Y-3183565I0J47625D01*
G01Y-3247065D01*
G02X2388548Y-3228015I38100J-28575D01*
G37*
G36*
G01X2690165Y-2868854D02*
G01X2690165Y-2843454D01*
G02X2672385Y-2840775I0J60343D01*
G01Y-2871533D01*
G02X2690165Y-2868854I17780J-57664D01*
G37*
G36*
G01X2511476Y-2843454D02*
G01X2511476Y-2868854D01*
G02X2529256Y-2883154I0J-18203D01*
G01Y-2829154D01*
G02X2511476Y-2843454I-17780J3903D01*
G37*
G36*
G01X2713165Y-2997200D02*
G01X2713165Y-2971800D01*
G02X2675065Y-2957500I0J57905D01*
G01Y-3011500D01*
G02X2713165Y-2997200I38100J-43605D01*
G37*
G36*
G01X2493836Y-2971800D02*
G01X2493836Y-2997200D01*
G02X2531936Y-2999879I-0J-272272D01*
G01Y-2969121D01*
G02X2493836Y-2971800I-38100J269593D01*
G37*
G36*
G01X1670818Y-2938458D02*
G01X1627360Y-2925348D01*
G02X1578967Y-2967774I-347109J347109D01*
G01X1628391Y-3023311D01*
G02X1670818Y-2938458I148492J-21213D01*
G37*
G36*
G01X1447800Y-3111500D02*
G01X1447800Y-3136900D01*
G02X1453363Y-3139579I0J-7115D01*
G01Y-3108821D01*
G02X1447800Y-3111500I-5563J4436D01*
G37*
G36*
G01X1415263Y-3352800D02*
G01X1415263Y-3378200D01*
G02X1453363Y-3397250I0J-47625D01*
G01Y-3350121D01*
G02X1415263Y-3352800I-38100J269593D01*
G37*
G36*
G01X2191537Y-3390900D02*
G01X2191537Y-3365500D01*
G02X2153437Y-3362821I0J272272D01*
G01Y-3393579D01*
G02X2191537Y-3390900I38100J-269593D01*
G37*
G36*
G01X2191537Y-3263900D02*
G01X2191537Y-3238500D01*
G02X2153437Y-3235821I0J272272D01*
G01Y-3266579D01*
G02X2191537Y-3263900I38100J-269593D01*
G37*
G36*
G01X2180378Y-3095382D02*
G01X2172006Y-3067833D01*
G02X2118125Y-3094774I-67352J67352D01*
G01X2153437Y-3153626D01*
G02X2180378Y-3095382I92719J-7535D01*
G37*
G36*
G01X2191537Y-3009900D02*
G01X2191537Y-2984500D01*
G02X2153437Y-2981821I0J272272D01*
G01Y-3012579D01*
G02X2191537Y-3009900I38100J-269593D01*
G37*
G36*
G01X1537019Y-633400D02*
G01X1511619Y-633400D01*
G02X1508940Y-671500I-272272J0D01*
G01X1539697D01*
G02X1537019Y-633400I269593J38100D01*
G37*
G36*
G01X1625600Y-635000D02*
G01X1600200Y-635000D01*
G02X1582599Y-671500I-46646J0D01*
G01X1639165D01*
G02X1625600Y-635000I42325J36500D01*
G37*
G36*
G01X1598182Y-731418D02*
G01X1623582Y-731418D01*
G02X1626261Y-725500I7877J0D01*
G01X1595503D01*
G02X1598182Y-731418I-5198J-5918D01*
G37*
G36*
G01X1837735Y-633400D02*
G01X1812335Y-633400D01*
G02X1798499Y-671500I-59375J0D01*
G01X1855065D01*
G02X1837735Y-633400I33217J38100D01*
G37*
G36*
G01X1881959Y-975780D02*
G01X1893455Y-1000205D01*
G02X1947337Y-973264I67352J-67352D01*
G01X1908900Y-923302D01*
G02X1881959Y-975780I-95071J15652D01*
G37*
G36*
G01X1870800Y-932282D02*
G01X1870800Y-957682D01*
G02X1908900Y-960361I-0J-272272D01*
G01Y-929603D01*
G02X1870800Y-932282I-38100J269593D01*
G37*
G36*
G01X556699Y-1668745D02*
G01X592620Y-1668745D01*
G02X646502Y-1641804I67352J-67352D01*
G01X574100Y-1624403D01*
G02X556699Y-1668745I-59511J-2231D01*
G37*
G36*
G01X592620Y-1544863D02*
G01X556699Y-1544863D01*
G02X574100Y-1589205I-42110J-42110D01*
G01X646502Y-1571804D01*
G02X592620Y-1544863I13470J94293D01*
G37*
G36*
G01X937200Y-1714500D02*
G01X937200Y-1689100D01*
G02X899100Y-1670050I0J47625D01*
G01Y-1733550D01*
G02X937200Y-1714500I38100J-28575D01*
G37*
G36*
G01X2694501Y-2306355D02*
G01X2658580Y-2306355D01*
G02X2604698Y-2333296I-67352J67352D01*
G01X2677100Y-2350697D01*
G02X2694501Y-2306355I59511J2231D01*
G37*
G36*
G01X2314000Y-2247900D02*
G01X2314000Y-2273300D01*
G02X2352100Y-2292350I0J-47625D01*
G01Y-2245221D01*
G02X2314000Y-2247900I-38100J269593D01*
G37*
G36*
G01X1577153Y-109192D02*
G01X1559192Y-127153D01*
G01X1562701Y-130896D01*
G01X1564690Y-133294D01*
G01X1566416Y-135625D01*
G01X1567892Y-137894D01*
G01X1569132Y-140109D01*
G01X1570152Y-142278D01*
G01X1570965Y-144409D01*
G01X1571584Y-146509D01*
G01X1572025Y-148585D01*
G01X1572301Y-150646D01*
G01X1572426Y-152697D01*
G01X1572415Y-154748D01*
G01X1572282Y-156806D01*
G01X1571883Y-159921D01*
G01X1571056Y-164167D01*
G01X1567616Y-178117D01*
G01X1566284Y-184745D01*
G01X1565484Y-190512D01*
G01X1565113Y-195146D01*
G01X1564992Y-200075D01*
G01X1565167Y-205323D01*
G01X1655323Y-115167D01*
G01X1650075Y-114992D01*
G01X1645146Y-115113D01*
G01X1640512Y-115484D01*
G01X1634745Y-116284D01*
G01X1628117Y-117616D01*
G01X1614167Y-121056D01*
G01X1609921Y-121883D01*
G01X1606806Y-122282D01*
G01X1604748Y-122415D01*
G01X1602697Y-122426D01*
G01X1600646Y-122301D01*
G01X1598585Y-122025D01*
G01X1596509Y-121584D01*
G01X1594409Y-120965D01*
G01X1592278Y-120152D01*
G01X1590109Y-119133D01*
G01X1587893Y-117892D01*
G01X1585624Y-116416D01*
G01X1583294Y-114690D01*
G01X1580896Y-112701D01*
G01X1577153Y-109192D01*
G37*
G36*
G01X2576380Y-274036D02*
G01X2604664Y-302320D01*
G01X2608188Y-299079D01*
G01X2611789Y-296300D01*
G01X2615469Y-293946D01*
G01X2619231Y-291979D01*
G01X2623077Y-290360D01*
G01X2627006Y-289054D01*
G01X2631022Y-288021D01*
G01X2635126Y-287224D01*
G01X2641451Y-286390D01*
G01X2652454Y-285646D01*
G01X2671323Y-284833D01*
G01X2581167Y-194677D01*
G01X2581062Y-198691D01*
G01X2581469Y-208179D01*
G01X2583590Y-236531D01*
G01X2583796Y-245178D01*
G01X2583657Y-250719D01*
G01X2583233Y-255985D01*
G01X2582472Y-260891D01*
G01X2581948Y-263184D01*
G01X2581320Y-265355D01*
G01X2580581Y-267395D01*
G01X2579724Y-269294D01*
G01X2578743Y-271041D01*
G01X2577630Y-272625D01*
G01X2576380Y-274036D01*
G37*
G36*
G01X2646000Y-315722D02*
G01X2686000Y-315722D01*
G01X2686142Y-311273D01*
G01X2686559Y-307205D01*
G01X2686983Y-304687D01*
G01X2687519Y-302315D01*
G01X2688163Y-300076D01*
G01X2688911Y-297961D01*
G01X2689760Y-295961D01*
G01X2690704Y-294065D01*
G01X2691741Y-292263D01*
G01X2692866Y-290546D01*
G01X2694075Y-288903D01*
G01X2696037Y-286555D01*
G01X2698167Y-284318D01*
G01X2701241Y-281450D01*
G01X2711779Y-272865D01*
G01X2719580Y-266360D01*
G01X2724633Y-261637D01*
G01X2728725Y-257368D01*
G01X2729750Y-256222D01*
G01X2602250D01*
G01X2606346Y-260615D01*
G01X2611418Y-265463D01*
G01X2618315Y-271332D01*
G01X2629951Y-280744D01*
G01X2633089Y-283591D01*
G01X2635271Y-285799D01*
G01X2637290Y-288106D01*
G01X2638540Y-289715D01*
G01X2639707Y-291395D01*
G01X2640788Y-293153D01*
G01X2641780Y-295001D01*
G01X2642677Y-296948D01*
G01X2643476Y-299004D01*
G01X2644173Y-301179D01*
G01X2644763Y-303484D01*
G01X2645244Y-305928D01*
G01X2645610Y-308521D01*
G01X2645937Y-312712D01*
G01X2646000Y-315722D01*
G37*
G36*
G01X2733686Y-295970D02*
G01X2761970Y-267686D01*
G01X2758924Y-264439D01*
G01X2756342Y-261268D01*
G01X2754862Y-259188D01*
G01X2753563Y-257131D01*
G01X2752436Y-255093D01*
G01X2751470Y-253069D01*
G01X2750655Y-251054D01*
G01X2749983Y-249045D01*
G01X2749442Y-247038D01*
G01X2749022Y-245028D01*
G01X2748715Y-243012D01*
G01X2748443Y-239964D01*
G01X2748367Y-236877D01*
G01X2748513Y-232674D01*
G01X2749894Y-219152D01*
G01X2750810Y-209037D01*
G01X2751044Y-202124D01*
G01X2750918Y-196212D01*
G01X2750833Y-194677D01*
G01X2660677Y-284833D01*
G01X2666679Y-285043D01*
G01X2673694Y-284885D01*
G01X2682721Y-284158D01*
G01X2697604Y-282585D01*
G01X2701836Y-282379D01*
G01X2704940Y-282398D01*
G01X2707999Y-282601D01*
G01X2710021Y-282856D01*
G01X2712034Y-283218D01*
G01X2714042Y-283696D01*
G01X2716049Y-284302D01*
G01X2718060Y-285044D01*
G01X2720079Y-285933D01*
G01X2722110Y-286979D01*
G01X2724157Y-288191D01*
G01X2726225Y-289579D01*
G01X2728318Y-291154D01*
G01X2731512Y-293886D01*
G01X2733686Y-295970D01*
G37*
G36*
G01X1441556Y-2103882D02*
G01X1444416Y-2136943D01*
G02X1498297Y-2110002I67352J-67352D01*
G01X1468497Y-2050000D01*
G02X1441556Y-2103882I-94293J13470D01*
G37*
G36*
G01X1588799Y-2148102D02*
G01X1614199Y-2148102D01*
G02X1633249Y-2110002I47625J0D01*
G01X1569749D01*
G02X1588799Y-2148102I-28575J-38100D01*
G37*
G36*
G01X1466616Y-1863057D02*
G01X1441556Y-1873918D01*
G02X1468497Y-1927800I-67352J-67352D01*
G01X1520498Y-1889998D01*
G02X1466616Y-1863057I13470J94293D01*
G37*
G36*
G01X1614199Y-1851898D02*
G01X1588799Y-1851898D01*
G02X1569749Y-1889998I-47625J0D01*
G01X1633249D01*
G02X1614199Y-1851898I28575J38100D01*
G37*
G36*
G01X1869603Y-2071602D02*
G01X1869603Y-2046202D01*
G02X1831503Y-2030003I0J52903D01*
G01Y-2090652D01*
G02X1869603Y-2071602I38100J-28575D01*
G37*
G36*
G01X1270000Y-3281713D02*
G01X1295400Y-3281713D01*
G02X1309700Y-3243613I57905J0D01*
G01X1255700D01*
G02X1270000Y-3281713I-43605J-38100D01*
G37*
G36*
G01X2090318Y-2163190D02*
G01X2115718Y-2163190D01*
G02X2134768Y-2125090I47625J0D01*
G01X2071268D01*
G02X2090318Y-2163190I-28575J-38100D01*
G37*
G36*
G01X1257770Y-2152031D02*
G01X1266941Y-2125280D01*
G02X1240000Y-2071398I67352J67352D01*
G01X1203889Y-2125090D01*
G02X1257770Y-2152031I-13470J-94293D01*
G37*
G36*
G01X1224382Y-1836810D02*
G01X1198982Y-1836810D01*
G02X1179932Y-1874910I-47625J0D01*
G01X1240000D01*
G02X1224382Y-1836810I38663J38100D01*
G37*
G36*
G01X1813190Y-1638300D02*
G01X1813190Y-1612900D01*
G02X1775090Y-1610221I0J272272D01*
G01Y-1657350D01*
G02X1813190Y-1638300I38100J-28575D01*
G37*
G36*
G01X1486810Y-1612900D02*
G01X1486810Y-1638300D01*
G02X1524910Y-1657350I0J-47625D01*
G01Y-1610221D01*
G02X1486810Y-1612900I-38100J269593D01*
G37*
G36*
G01X1498600Y-2324100D02*
G01X1498600Y-2349500D01*
G02X1524910Y-2368550I0J-27694D01*
G01Y-2310000D01*
G02X1498600Y-2324100I-26310J17497D01*
G37*
G36*
G01X1813190Y-2362200D02*
G01X1813190Y-2336800D01*
G02X1775090Y-2317750I0J47625D01*
G01Y-2381250D01*
G02X1813190Y-2362200I38100J-28575D01*
G37*
G36*
G01X2263673Y-1107734D02*
G01X2281634Y-1089773D01*
G01X2277340Y-1085855D01*
G01X2276121Y-1084632D01*
G01X2275073Y-1083331D01*
G01X2274238Y-1081880D01*
G01X2273654Y-1080210D01*
G01X2273361Y-1078248D01*
G01X2252148Y-1099461D01*
G01X2254110Y-1099753D01*
G01X2255780Y-1100337D01*
G01X2257231Y-1101173D01*
G01X2258532Y-1102221D01*
G01X2259755Y-1103440D01*
G01X2263673Y-1107734D01*
G37*
G36*
G01X2263673Y-1018834D02*
G01X2281634Y-1000873D01*
G01X2277340Y-996955D01*
G01X2276121Y-995732D01*
G01X2275073Y-994431D01*
G01X2274238Y-992980D01*
G01X2273654Y-991310D01*
G01X2273361Y-989348D01*
G01X2252148Y-1010561D01*
G01X2254110Y-1010853D01*
G01X2255780Y-1011437D01*
G01X2257231Y-1012273D01*
G01X2258532Y-1013321D01*
G01X2259755Y-1014540D01*
G01X2263673Y-1018834D01*
G37*
G36*
G01X866027Y-835366D02*
G01X848066Y-853327D01*
G01X852360Y-857245D01*
G01X853579Y-858468D01*
G01X854627Y-859769D01*
G01X855463Y-861220D01*
G01X856047Y-862890D01*
G01X856339Y-864852D01*
G01X877552Y-843639D01*
G01X875590Y-843347D01*
G01X873920Y-842763D01*
G01X872469Y-841927D01*
G01X871168Y-840879D01*
G01X869945Y-839660D01*
G01X866027Y-835366D01*
G37*
G36*
G01X1108571Y-1199349D02*
G01X1108571Y-1224749D01*
G01X1110306Y-1224489D01*
G01X1112158Y-1223830D01*
G01X1115986Y-1222028D01*
G01X1117850Y-1221243D01*
G01X1119607Y-1220774D01*
G01X1121199Y-1220800D01*
G01X1122571Y-1221500D01*
G01Y-1191500D01*
G01X1117751Y-1195708D01*
G01X1116128Y-1196896D01*
G01X1114435Y-1197900D01*
G01X1112636Y-1198674D01*
G01X1110694Y-1199172D01*
G01X1108571Y-1199349D01*
G37*
G36*
G01X1057771Y-1004327D02*
G01X1057771Y-1029727D01*
G01X1059727Y-1030185D01*
G01X1061630Y-1031419D01*
G01X1063477Y-1033227D01*
G01X1065267Y-1035404D01*
G01X1070249Y-1042097D01*
G01X1071771Y-1043700D01*
G01Y-1013700D01*
G01X1070097Y-1014467D01*
G01X1068502Y-1013954D01*
G01X1066936Y-1012524D01*
G01X1063689Y-1008367D01*
G01X1061907Y-1006365D01*
G01X1059951Y-1004897D01*
G01X1057771Y-1004327D01*
G37*
G36*
G01X948816Y-969123D02*
G01X966777Y-987084D01*
G01X967873Y-985374D01*
G01X968437Y-983238D01*
G01X968671Y-980870D01*
G01X968955Y-976230D01*
G01X969409Y-974352D01*
G01X970341Y-973030D01*
G01X971953Y-972461D01*
G01X950740Y-951248D01*
G01X950696Y-952784D01*
G01X950751Y-954212D01*
G01X951062Y-956783D01*
G01X951683Y-960105D01*
G01X951839Y-961116D01*
G01X951930Y-962097D01*
G01X951934Y-963062D01*
G01X951827Y-964020D01*
G01X951585Y-964983D01*
G01X951187Y-965964D01*
G01X950608Y-966973D01*
G01X949826Y-968022D01*
G01X948816Y-969123D01*
G37*
G36*
G01X1875847Y-957682D02*
G01X1875847Y-932282D01*
G01X1870040Y-932547D01*
G01X1868312Y-932544D01*
G01X1866652Y-932365D01*
G01X1865035Y-931930D01*
G01X1863441Y-931162D01*
G01X1861847Y-929982D01*
G01Y-959982D01*
G01X1863441Y-958801D01*
G01X1865035Y-958033D01*
G01X1866652Y-957598D01*
G01X1868312Y-957419D01*
G01X1870040Y-957416D01*
G01X1875847Y-957682D01*
G37*
G36*
G01X1633527Y-848066D02*
G01X1615566Y-866027D01*
G01X1619860Y-869945D01*
G01X1621080Y-871168D01*
G01X1622127Y-872469D01*
G01X1622963Y-873920D01*
G01X1623547Y-875590D01*
G01X1623840Y-877552D01*
G01X1645053Y-856339D01*
G01X1643090Y-856047D01*
G01X1641420Y-855463D01*
G01X1639970Y-854627D01*
G01X1638668Y-853579D01*
G01X1637445Y-852360D01*
G01X1633527Y-848066D01*
G37*
G36*
G01X1537108Y-916748D02*
G01X1519148Y-934708D01*
G01X1523441Y-938626D01*
G01X1524661Y-939850D01*
G01X1525709Y-941151D01*
G01X1526544Y-942601D01*
G01X1527128Y-944272D01*
G01X1527421Y-946234D01*
G01X1548634Y-925021D01*
G01X1546672Y-924728D01*
G01X1545001Y-924144D01*
G01X1543551Y-923309D01*
G01X1542250Y-922261D01*
G01X1541026Y-921041D01*
G01X1537108Y-916748D01*
G37*
G36*
G01X1378929Y-1308100D02*
G01X1378929Y-1282700D01*
G01X1373122Y-1282966D01*
G01X1371395Y-1282963D01*
G01X1369734Y-1282783D01*
G01X1368118Y-1282349D01*
G01X1366523Y-1281581D01*
G01X1364929Y-1280400D01*
G01Y-1310400D01*
G01X1366523Y-1309219D01*
G01X1368118Y-1308451D01*
G01X1369734Y-1308017D01*
G01X1371395Y-1307837D01*
G01X1373122Y-1307834D01*
G01X1378929Y-1308100D01*
G37*
G36*
G01X1435100Y-840029D02*
G01X1460500Y-840029D01*
G01X1460234Y-834222D01*
G01X1460237Y-832495D01*
G01X1460417Y-830834D01*
G01X1460851Y-829218D01*
G01X1461619Y-827623D01*
G01X1462800Y-826029D01*
G01X1432800D01*
G01X1433981Y-827623D01*
G01X1434749Y-829218D01*
G01X1435183Y-830834D01*
G01X1435363Y-832495D01*
G01X1435366Y-834222D01*
G01X1435100Y-840029D01*
G37*
G36*
G01X1578723Y-618784D02*
G01X1596684Y-600823D01*
G01X1595674Y-599722D01*
G01X1594892Y-598673D01*
G01X1594313Y-597664D01*
G01X1593915Y-596683D01*
G01X1593673Y-595720D01*
G01X1593567Y-594762D01*
G01X1593570Y-593797D01*
G01X1593662Y-592816D01*
G01X1594229Y-589650D01*
G01X1594620Y-587241D01*
G01X1594749Y-585912D01*
G01X1594804Y-584484D01*
G01X1594761Y-582948D01*
G01X1573548Y-604161D01*
G01X1575159Y-604730D01*
G01X1576091Y-606052D01*
G01X1576545Y-607930D01*
G01X1576829Y-612570D01*
G01X1577063Y-614938D01*
G01X1577627Y-617074D01*
G01X1578723Y-618784D01*
G37*
G36*
G01X1661273Y-612434D02*
G01X1679234Y-594473D01*
G01X1674940Y-590555D01*
G01X1673721Y-589332D01*
G01X1672673Y-588031D01*
G01X1671837Y-586580D01*
G01X1671253Y-584910D01*
G01X1670961Y-582948D01*
G01X1649748Y-604161D01*
G01X1651710Y-604453D01*
G01X1653380Y-605037D01*
G01X1654831Y-605873D01*
G01X1656132Y-606921D01*
G01X1657355Y-608140D01*
G01X1661273Y-612434D01*
G37*
G36*
G01X2766771Y-2971800D02*
G01X2766771Y-2997200D01*
G01X2772578Y-2996934D01*
G01X2774305Y-2996937D01*
G01X2775966Y-2997117D01*
G01X2777582Y-2997551D01*
G01X2779177Y-2998319D01*
G01X2780771Y-2999500D01*
G01Y-2969500D01*
G01X2779177Y-2970681D01*
G01X2777582Y-2971449D01*
G01X2775966Y-2971883D01*
G01X2774305Y-2972063D01*
G01X2772578Y-2972066D01*
G01X2766771Y-2971800D01*
G37*
G36*
G01X3035300Y-1005129D02*
G01X3060700Y-1005129D01*
G01X3060434Y-999322D01*
G01X3060437Y-997595D01*
G01X3060617Y-995934D01*
G01X3061051Y-994318D01*
G01X3061819Y-992723D01*
G01X3063000Y-991129D01*
G01X3033000D01*
G01X3034181Y-992723D01*
G01X3034949Y-994318D01*
G01X3035383Y-995934D01*
G01X3035563Y-997595D01*
G01X3035566Y-999322D01*
G01X3035300Y-1005129D01*
G37*
G36*
G01X1428704Y-1050392D02*
G01X1428704Y-1024992D01*
G01X1426434Y-1024428D01*
G01X1424457Y-1022906D01*
G01X1422701Y-1020678D01*
G01X1421094Y-1017995D01*
G01X1418036Y-1012278D01*
G01X1416440Y-1009747D01*
G01X1414704Y-1007770D01*
G01Y-1037770D01*
G01X1416539Y-1036968D01*
G01X1418136Y-1037767D01*
G01X1419600Y-1039707D01*
G01X1422564Y-1045164D01*
G01X1424277Y-1047761D01*
G01X1426288Y-1049657D01*
G01X1428704Y-1050392D01*
G37*
G36*
G01X1374247Y-1024992D02*
G01X1374247Y-1050392D01*
G01X1376663Y-1049657D01*
G01X1378674Y-1047761D01*
G01X1380387Y-1045164D01*
G01X1383351Y-1039707D01*
G01X1384815Y-1037767D01*
G01X1386412Y-1036968D01*
G01X1388247Y-1037770D01*
G01Y-1007770D01*
G01X1387357Y-1008673D01*
G01X1386511Y-1009747D01*
G01X1385700Y-1010958D01*
G01X1384148Y-1013672D01*
G01X1381067Y-1019378D01*
G01X1380250Y-1020678D01*
G01X1379395Y-1021865D01*
G01X1378494Y-1022906D01*
G01X1377538Y-1023771D01*
G01X1376517Y-1024428D01*
G01X1375423Y-1024846D01*
G01X1374247Y-1024992D01*
G37*
G36*
G01X950073Y-1806234D02*
G01X968034Y-1788273D01*
G01X963740Y-1784355D01*
G01X962521Y-1783132D01*
G01X961473Y-1781831D01*
G01X960637Y-1780380D01*
G01X960053Y-1778710D01*
G01X959761Y-1776748D01*
G01X938548Y-1797961D01*
G01X940510Y-1798253D01*
G01X942180Y-1798837D01*
G01X943631Y-1799673D01*
G01X944932Y-1800721D01*
G01X946155Y-1801940D01*
G01X950073Y-1806234D01*
G37*
G36*
G01X2794000Y-535229D02*
G01X2819400Y-535229D01*
G01X2819134Y-529422D01*
G01X2819137Y-527695D01*
G01X2819317Y-526034D01*
G01X2819751Y-524418D01*
G01X2820519Y-522823D01*
G01X2821700Y-521229D01*
G01X2791700D01*
G01X2792881Y-522823D01*
G01X2793649Y-524418D01*
G01X2794083Y-526034D01*
G01X2794263Y-527695D01*
G01X2794266Y-529422D01*
G01X2794000Y-535229D01*
G37*
G36*
G01X2510772Y-1565521D02*
G01X2492812Y-1583481D01*
G01X2494509Y-1584576D01*
G01X2496632Y-1585151D01*
G01X2498984Y-1585404D01*
G01X2503594Y-1585734D01*
G01X2505460Y-1586206D01*
G01X2506774Y-1587147D01*
G01X2507339Y-1588752D01*
G01X2528552Y-1567539D01*
G01X2527033Y-1567495D01*
G01X2525619Y-1567546D01*
G01X2523065Y-1567839D01*
G01X2519753Y-1568423D01*
G01X2518743Y-1568566D01*
G01X2517762Y-1568645D01*
G01X2516799Y-1568638D01*
G01X2515842Y-1568522D01*
G01X2514881Y-1568275D01*
G01X2513905Y-1567874D01*
G01X2512902Y-1567296D01*
G01X2511861Y-1566519D01*
G01X2510772Y-1565521D01*
G37*
G36*
G01X1403273Y-1835635D02*
G01X1421233Y-1817674D01*
G01X1419844Y-1816032D01*
G01X1418824Y-1814298D01*
G01X1418111Y-1812475D01*
G01X1417643Y-1810567D01*
G01X1417357Y-1808577D01*
G01X1416961Y-1802148D01*
G01X1395748Y-1823361D01*
G01X1397217Y-1823839D01*
G01X1398355Y-1824953D01*
G01X1399251Y-1826537D01*
G01X1400680Y-1830441D01*
G01X1401394Y-1832428D01*
G01X1402228Y-1834215D01*
G01X1403273Y-1835635D01*
G37*
G36*
G01X1206500Y-1344371D02*
G01X1181100Y-1344371D01*
G01X1181366Y-1350178D01*
G01X1181363Y-1351905D01*
G01X1181183Y-1353566D01*
G01X1180749Y-1355182D01*
G01X1179981Y-1356777D01*
G01X1178800Y-1358371D01*
G01X1208800D01*
G01X1207619Y-1356777D01*
G01X1206851Y-1355182D01*
G01X1206417Y-1353566D01*
G01X1206237Y-1351905D01*
G01X1206234Y-1350178D01*
G01X1206500Y-1344371D01*
G37*
G36*
G01X1614199Y-2131771D02*
G01X1588799Y-2131771D01*
G01X1589064Y-2137578D01*
G01X1589062Y-2139305D01*
G01X1588882Y-2140966D01*
G01X1588447Y-2142582D01*
G01X1587679Y-2144177D01*
G01X1586499Y-2145771D01*
G01X1616499D01*
G01X1615318Y-2144177D01*
G01X1614550Y-2142582D01*
G01X1614115Y-2140966D01*
G01X1613936Y-2139305D01*
G01X1613933Y-2137578D01*
G01X1614199Y-2131771D01*
G37*
G36*
G01X1614199Y-2131771D02*
G01X1588799Y-2131771D01*
G01X1589064Y-2137578D01*
G01X1589062Y-2139305D01*
G01X1588882Y-2140966D01*
G01X1588447Y-2142582D01*
G01X1587679Y-2144177D01*
G01X1586499Y-2145771D01*
G01X1616499D01*
G01X1615318Y-2144177D01*
G01X1614550Y-2142582D01*
G01X1614115Y-2140966D01*
G01X1613936Y-2139305D01*
G01X1613933Y-2137578D01*
G01X1614199Y-2131771D01*
G37*
G36*
G01X2033829Y-2794000D02*
G01X2033829Y-2768600D01*
G01X2028022Y-2768866D01*
G01X2026295Y-2768863D01*
G01X2024634Y-2768683D01*
G01X2023018Y-2768249D01*
G01X2021423Y-2767481D01*
G01X2019829Y-2766300D01*
G01Y-2796300D01*
G01X2021423Y-2795119D01*
G01X2023018Y-2794351D01*
G01X2024634Y-2793917D01*
G01X2026295Y-2793737D01*
G01X2028022Y-2793734D01*
G01X2033829Y-2794000D01*
G37*
G36*
G01X907200Y-1004327D02*
G01X907200Y-1029727D01*
G01X932600Y-1017027D01*
G01X958000Y-990600D01*
G01X907200Y-1004327D01*
G37*
G36*
G01X1209140Y-1032590D02*
G01X1209325Y-1027800D01*
G01X1209871Y-1022730D01*
G01X1210766Y-1017474D01*
G01X1211997Y-1012126D01*
G01X1213551Y-1006780D01*
G01X1215415Y-1001528D01*
G01X1217577Y-996467D01*
G01X1220024Y-991688D01*
G01X1221808Y-988706D01*
G01X1223708Y-985920D01*
G01X1225722Y-983357D01*
G01X1227845Y-981045D01*
G01X1209885Y-963084D01*
G01X1205421Y-985509D01*
G01X1183740Y-1032590D01*
G01X1209140D01*
G37*
G36*
G01X1209140Y-1181157D02*
G01X1196440Y-1206557D01*
G01X1206500Y-1257060D01*
G01X1206705Y-1255393D01*
G01X1207275Y-1253901D01*
G01X1208138Y-1252649D01*
G01X1209225Y-1251702D01*
G01X1210464Y-1251124D01*
G01X1211787Y-1250982D01*
G01X1213123Y-1251339D01*
G01X1214401Y-1252261D01*
G01X1232361Y-1234301D01*
G01X1230187Y-1231971D01*
G01X1228030Y-1229357D01*
G01X1224863Y-1224975D01*
G01X1221831Y-1220137D01*
G01X1218989Y-1214953D01*
G01X1216397Y-1209533D01*
G01X1214110Y-1203985D01*
G01X1212187Y-1198421D01*
G01X1210685Y-1192949D01*
G01X1209946Y-1189406D01*
G01X1209437Y-1185986D01*
G01X1209174Y-1182722D01*
G01X1209140Y-1181157D01*
G37*
G36*
G01X1811133Y-915051D02*
G01X1782849Y-886767D01*
G01X1768707Y-929193D01*
G01X1743100Y-999800D01*
G01X1811133Y-915051D01*
G37*
G36*
G01X1428704Y-1050392D02*
G01X1428704Y-1024992D01*
G01X1426434Y-1024428D01*
G01X1424457Y-1022906D01*
G01X1422701Y-1020678D01*
G01X1421094Y-1017995D01*
G01X1418036Y-1012278D01*
G01X1416440Y-1009747D01*
G01X1414704Y-1007770D01*
G01Y-1037770D01*
G01X1416539Y-1036968D01*
G01X1418136Y-1037767D01*
G01X1419600Y-1039707D01*
G01X1422564Y-1045164D01*
G01X1424277Y-1047761D01*
G01X1426288Y-1049657D01*
G01X1428704Y-1050392D01*
G37*
G36*
G01X1374247Y-1024992D02*
G01X1374247Y-1050392D01*
G01X1376663Y-1049657D01*
G01X1378674Y-1047761D01*
G01X1380387Y-1045164D01*
G01X1383351Y-1039707D01*
G01X1384815Y-1037767D01*
G01X1386412Y-1036968D01*
G01X1388247Y-1037770D01*
G01Y-1007770D01*
G01X1387357Y-1008673D01*
G01X1386511Y-1009747D01*
G01X1385700Y-1010958D01*
G01X1384148Y-1013672D01*
G01X1381067Y-1019378D01*
G01X1380250Y-1020678D01*
G01X1379395Y-1021865D01*
G01X1378494Y-1022906D01*
G01X1377538Y-1023771D01*
G01X1376517Y-1024428D01*
G01X1375423Y-1024846D01*
G01X1374247Y-1024992D01*
G37*
G36*
G01X1103965Y-961241D02*
G01X1121925Y-943281D01*
G03X1187460Y-985509I130397J130397D01*
G01X1139886Y-1033083D01*
G03X1103965Y-961241I-125724J-17961D01*
G37*
G36*
G01X1419516Y-564568D02*
G01X1423154Y-561145D01*
G01X1429333Y-556067D01*
G01X1436247Y-551141D01*
G01X1443750Y-546456D01*
G01X1451696Y-542102D01*
G01X1459939Y-538169D01*
G01X1468334Y-534750D01*
G01X1476733Y-531932D01*
G01X1482263Y-530433D01*
G01X1487687Y-529269D01*
G01X1492962Y-528467D01*
G01X1498045Y-528053D01*
G01X1500500Y-528000D01*
G01Y-488000D01*
G01X1495235Y-487860D01*
G01X1488327Y-487298D01*
G01X1481145Y-486320D01*
G01X1472290Y-484614D01*
G01X1463329Y-482351D01*
G01X1454421Y-479554D01*
G01X1447152Y-476833D01*
G01X1440122Y-473771D01*
G01X1433422Y-470381D01*
G01X1428362Y-467443D01*
G01X1423620Y-464312D01*
G01X1420300Y-461840D01*
G01X1417204Y-459266D01*
G01X1414354Y-456593D01*
G01X1396393Y-474554D01*
G01X1397897Y-476155D01*
G01X1399275Y-477819D01*
G01X1400528Y-479543D01*
G01X1401659Y-481322D01*
G01X1402669Y-483151D01*
G01X1403560Y-485027D01*
G01X1404334Y-486946D01*
G01X1404994Y-488903D01*
G01X1405540Y-490893D01*
G01X1405975Y-492913D01*
G01X1406300Y-494959D01*
G01X1406519Y-497025D01*
G01X1406640Y-501205D01*
G01X1406355Y-505419D01*
G01X1405677Y-509633D01*
G01X1404623Y-513813D01*
G01X1403207Y-517925D01*
G01X1401445Y-521935D01*
G01X1399351Y-525810D01*
G01X1396941Y-529516D01*
G01X1394229Y-533019D01*
G01X1391232Y-536284D01*
G01X1419516Y-564568D01*
G37*
G36*
G01X1537019Y-568000D02*
G01X1537087Y-565804D01*
G01X1537290Y-563653D01*
G01X1537623Y-561548D01*
G01X1538081Y-559491D01*
G01X1538660Y-557483D01*
G01X1539357Y-555526D01*
G01X1540166Y-553622D01*
G01X1541083Y-551773D01*
G01X1542105Y-549979D01*
G01X1543226Y-548243D01*
G01X1544442Y-546566D01*
G01X1545749Y-544951D01*
G01X1548618Y-541909D01*
G01X1551800Y-539131D01*
G01X1555258Y-536631D01*
G01X1558959Y-534420D01*
G01X1562868Y-532514D01*
G01X1566950Y-530924D01*
G01X1571171Y-529665D01*
G01X1575496Y-528749D01*
G01X1579890Y-528189D01*
G01X1584318Y-528000D01*
G01Y-488000D01*
G01X1544318Y-508000D01*
G01X1511619Y-568000D01*
G01X1537019D01*
G37*
G36*
G01X1515338Y-531643D02*
G01X1533299Y-513682D01*
G01X1523798Y-522142D01*
G01X1456956Y-488000D01*
G01X1515338Y-531643D01*
G37*
G36*
G01X1837735Y-648000D02*
G01X1812335Y-648000D01*
G03X1765035Y-528000I-175870J0D01*
G01X1885035D01*
G03X1837735Y-648000I128570J-120000D01*
G37*
G36*
G01X2031761Y-1890242D02*
G01X2033120Y-1888950D01*
G01X2036027Y-1886576D01*
G01X2039156Y-1884486D01*
G01X2042473Y-1882688D01*
G01X2045944Y-1881189D01*
G01X2049534Y-1879995D01*
G01X2053210Y-1879116D01*
G01X2056937Y-1878557D01*
G01X2060682Y-1878325D01*
G01X2064409Y-1878429D01*
G01X2068085Y-1878875D01*
G01X2071675Y-1879670D01*
G01X2073428Y-1880201D01*
G01X2075146Y-1880823D01*
G01X2076826Y-1881535D01*
G01X2078463Y-1882339D01*
G01X2080053Y-1883236D01*
G01X2081592Y-1884227D01*
G01X2083075Y-1885312D01*
G01X2084499Y-1886493D01*
G01X2085858Y-1887770D01*
G01X2114142Y-1859486D01*
G01X2110746Y-1855793D01*
G01X2107428Y-1851610D01*
G01X2104206Y-1846993D01*
G01X2099598Y-1839381D01*
G01X2095319Y-1831117D01*
G01X2091433Y-1822395D01*
G01X2088008Y-1813409D01*
G01X2085109Y-1804352D01*
G01X2082802Y-1795419D01*
G01X2081152Y-1786803D01*
G01X2080451Y-1781330D01*
G01X2080091Y-1776143D01*
G01X2080045Y-1773673D01*
G01X2040045D01*
G01X2039835Y-1778725D01*
G01X2039224Y-1784141D01*
G01X2038237Y-1789856D01*
G01X2036113Y-1798848D01*
G01X2033296Y-1808149D01*
G01X2029876Y-1817542D01*
G01X2025944Y-1826808D01*
G01X2021590Y-1835728D01*
G01X2016904Y-1844086D01*
G01X2011978Y-1851661D01*
G01X2008604Y-1856170D01*
G01X2005190Y-1860169D01*
G01X2003477Y-1861957D01*
G01X2031761Y-1890242D01*
G37*
G36*
G01X1920045Y-1790700D02*
G01X1920045Y-1765300D01*
G03X2040045Y-1718000I0J175870D01*
G01Y-1838000D01*
G03X1920045Y-1790700I-120000J-128570D01*
G37*
G36*
G01X1360718Y-2180957D02*
G01X1359540Y-2179646D01*
G01X1358477Y-2178195D01*
G01X1357613Y-2176700D01*
G01X1357031Y-2175259D01*
G01X1356813Y-2173969D01*
G01X1357043Y-2172927D01*
G01X1357803Y-2172231D01*
G01X1359177Y-2171977D01*
G01X1282977D01*
G01X1286640Y-2172132D01*
G01X1290462Y-2172582D01*
G01X1294413Y-2173309D01*
G01X1298460Y-2174292D01*
G01X1304639Y-2176205D01*
G01X1310852Y-2178584D01*
G01X1316991Y-2181362D01*
G01X1322946Y-2184474D01*
G01X1328609Y-2187852D01*
G01X1333871Y-2191429D01*
G01X1338623Y-2195140D01*
G01X1341455Y-2197655D01*
G01X1342757Y-2198918D01*
G01X1360718Y-2180957D01*
G37*
G36*
G01X1048918Y-1714500D02*
G01X1052126Y-1714633D01*
G01X1055565Y-1715021D01*
G01X1059194Y-1715648D01*
G01X1064904Y-1716997D01*
G01X1070811Y-1718786D01*
G01X1076775Y-1720957D01*
G01X1082659Y-1723455D01*
G01X1088323Y-1726219D01*
G01X1093630Y-1729195D01*
G01X1098441Y-1732323D01*
G01X1101304Y-1734465D01*
G01X1103843Y-1736633D01*
G01X1104979Y-1737721D01*
G01X1122939Y-1719761D01*
G01X1121361Y-1717976D01*
G01X1119993Y-1716007D01*
G01X1118835Y-1713880D01*
G01X1117888Y-1711622D01*
G01X1117151Y-1709259D01*
G01X1116625Y-1706816D01*
G01X1116309Y-1704321D01*
G01X1116204Y-1701800D01*
G01X1116309Y-1699279D01*
G01X1116625Y-1696784D01*
G01X1117151Y-1694341D01*
G01X1117888Y-1691978D01*
G01X1118835Y-1689720D01*
G01X1119993Y-1687593D01*
G01X1121361Y-1685624D01*
G01X1122939Y-1683839D01*
G01X1104979Y-1665879D01*
G01X1102616Y-1668053D01*
G01X1099910Y-1670210D01*
G01X1096901Y-1672333D01*
G01X1091910Y-1675417D01*
G01X1086468Y-1678329D01*
G01X1080715Y-1681010D01*
G01X1074789Y-1683405D01*
G01X1068828Y-1685456D01*
G01X1062972Y-1687104D01*
G01X1057359Y-1688294D01*
G01X1053820Y-1688803D01*
G01X1050491Y-1689066D01*
G01X1048918Y-1689100D01*
G01Y-1714500D01*
G37*
G36*
G01X1920045Y-1638300D02*
G01X1920045Y-1612900D01*
G03X2040045Y-1565600I0J175870D01*
G01Y-1685600D01*
G03X1920045Y-1638300I-120000J-128570D01*
G37*
G36*
G01X1164590Y-2091690D02*
G01X1167798Y-2091823D01*
G01X1171237Y-2092211D01*
G01X1174866Y-2092838D01*
G01X1180576Y-2094187D01*
G01X1186482Y-2095976D01*
G01X1192447Y-2098147D01*
G01X1198330Y-2100645D01*
G01X1203995Y-2103409D01*
G01X1209302Y-2106385D01*
G01X1214112Y-2109513D01*
G01X1216975Y-2111655D01*
G01X1219515Y-2113823D01*
G01X1220651Y-2114911D01*
G01X1238611Y-2096951D01*
G01X1211670Y-2087970D01*
G01X1164590Y-2066290D01*
G01Y-2091690D01*
G37*
G36*
G01X1569141Y-783680D02*
G01X1567963Y-782370D01*
G01X1566900Y-780918D01*
G01X1566036Y-779423D01*
G01X1565454Y-777982D01*
G01X1565236Y-776692D01*
G01X1565466Y-775650D01*
G01X1566226Y-774954D01*
G01X1567600Y-774700D01*
G01X1491400D01*
G01X1495063Y-774855D01*
G01X1498886Y-775305D01*
G01X1502837Y-776032D01*
G01X1506883Y-777015D01*
G01X1513062Y-778928D01*
G01X1519275Y-781307D01*
G01X1525414Y-784086D01*
G01X1531369Y-787197D01*
G01X1537032Y-790575D01*
G01X1542294Y-794153D01*
G01X1547046Y-797863D01*
G01X1549878Y-800378D01*
G01X1551180Y-801641D01*
G01X1569141Y-783680D01*
G37*
G04 Tear End*

G04 Pad Start*
G54D11*
G01X1506697Y-1422770D03*
G01X1556684Y-1422770D03*
G01X1606697Y-1422770D03*
G01X1656684Y-1422770D03*
G01X1706697Y-1422770D03*
G01X1756684Y-1422770D03*
G54D12*
G01X1831690Y-1347763D03*
G01X1831690Y-1297776D03*
G01X1831690Y-1247764D03*
G01X1831690Y-1197776D03*
G01X1831690Y-1147764D03*
G01X1831690Y-1097777D03*
G54D11*
G01X1756684Y-1022770D03*
G01X1706697Y-1022770D03*
G01X1656684Y-1022770D03*
G01X1606697Y-1022770D03*
G01X1556684Y-1022770D03*
G01X1507485Y-1022770D03*
G54D12*
G01X1431691Y-1097777D03*
G01X1431691Y-1147764D03*
G01X1431691Y-1197776D03*
G01X1431691Y-1247764D03*
G01X1431691Y-1297776D03*
G01X1431691Y-1347763D03*
G54D13*
G01X1632935Y-1222770D03*
G54D14*
G01X2377631Y-964250D03*
G01X2377631Y-1045530D03*
G01X2377631Y-1124270D03*
G01X2377631Y-1205550D03*
G01X2377631Y-1284290D03*
G01X2377631Y-1365570D03*
G54D15*
G01X2476691Y-1365570D03*
G54D14*
G01X2575751Y-1365570D03*
G01X2575751Y-1284290D03*
G01X2575751Y-1205550D03*
G01X2575751Y-1124270D03*
G01X2575751Y-1045530D03*
G01X2575751Y-964250D03*
G54D16*
G01X2476691Y-964250D03*
G54D18*
G01X848396Y-580708D03*
G01X848396Y-680708D03*
G01X848396Y-780708D03*
G01X1048395Y-780708D03*
G01X1048395Y-680708D03*
G01X1048395Y-580708D03*
G54D19*
G01X1024364Y-1017027D03*
G01X1024364Y-1082051D03*
G01X1024364Y-1147025D03*
G01X1024364Y-1212049D03*
G01X879381Y-1212049D03*
G01X879381Y-1147025D03*
G01X879381Y-1082051D03*
G01X879381Y-1017027D03*
G54D20*
G01X1508000Y-4000000D03*
G01X1792000Y-4000000D03*
G54D21*
G01X1175918Y-2476500D03*
G01X1262482Y-2476500D03*
G54D22*
G01X1219200Y-2886329D03*
G01X1219200Y-2676271D03*
G54D23*
G01X2120202Y-2782799D03*
G01X2120202Y-2717800D03*
G01X2120202Y-2652801D03*
G54D24*
G01X2350199Y-2652801D03*
G01X2350199Y-2717800D03*
G01X2350199Y-2782799D03*
G54D25*
G01X762000Y-3369234D03*
G54D26*
G01X762000Y-3579241D03*
G54D27*
G01X1155700Y-3095092D03*
G01X1155700Y-3204108D03*
G54D28*
G01X2691003Y-3412007D03*
G01X2691003Y-3191993D03*
G01X2515997Y-3191993D03*
G01X2515997Y-3412007D03*
G54D29*
G01X2324100Y-3483508D03*
G01X2324100Y-3374492D03*
G54D27*
G01X2323448Y-3106298D03*
G01X2323448Y-3215315D03*
G54D30*
G01X2644102Y-2856154D03*
G01X2557539Y-2856154D03*
G01X2646782Y-2984500D03*
G01X2560218Y-2984500D03*
G54D31*
G01X1540877Y-2997200D03*
G01X1540877Y-3124200D03*
G01X1540877Y-3251200D03*
G01X1540877Y-3378200D03*
G01X2065923Y-3378200D03*
G01X2065923Y-3251200D03*
G01X2065923Y-3124200D03*
G01X2065923Y-2997200D03*
G54D21*
G01X1524319Y-698500D03*
G01X1610882Y-698500D03*
G54D30*
G01X1826782Y-698500D03*
G01X1740219Y-698500D03*
G54D32*
G01X636600Y-1606804D03*
G01X636600Y-1796796D03*
G01X836600Y-1701800D03*
G54D33*
G01X2614600Y-2368296D03*
G01X2614600Y-2178304D03*
G01X2414600Y-2273300D03*
G54D34*
G01X634000Y-200000D03*
G54D35*
G01X888000Y-200000D03*
G01X1142000Y-200000D03*
G01X1396000Y-200000D03*
G01X1650000Y-200000D03*
G01X1904000Y-200000D03*
G01X2158000Y-200000D03*
G01X2412000Y-200000D03*
G01X2666000Y-200000D03*
G54D36*
G01X1504496Y-2070002D03*
G01X1601499Y-2070002D03*
G01X1698501Y-2070002D03*
G01X1504496Y-1929998D03*
G01X1601499Y-1929998D03*
G01X1698501Y-1929998D03*
G01X1795504Y-1929998D03*
G01X1795504Y-2070002D03*
G54D37*
G01X3120000Y-3373000D03*
G54D38*
G01X3120000Y-3627000D03*
G54D27*
G01X1282700Y-3095092D03*
G01X1282700Y-3204108D03*
G54D39*
G01X2100000Y-1914910D03*
G01X2100000Y-2085090D03*
G54D40*
G01X1200000Y-2085090D03*
G01X1200000Y-1914910D03*
G54D41*
G01X1735090Y-1650000D03*
G01X1564910Y-1650000D03*
G54D42*
G01X1564910Y-2350000D03*
G01X1735090Y-2350000D03*
G54D43*
G01X1935900Y-944982D03*
G01X1935900Y-858418D03*
G54D44*
G01X893885Y-452105D03*
G01X1002902Y-452105D03*
G54D45*
G01X469900Y-1683918D03*
G01X469900Y-1770482D03*
G54D30*
G01X2583282Y-2044700D03*
G01X2496718Y-2044700D03*
G54D45*
G01X1943100Y-1937918D03*
G01X1943100Y-2024482D03*
G54D30*
G01X1694282Y-1790700D03*
G01X1607718Y-1790700D03*
G01X1211682Y-1739900D03*
G01X1125118Y-1739900D03*
G54D43*
G01X1371600Y-1668882D03*
G01X1371600Y-1582318D03*
G01X1917700Y-2392782D03*
G01X1917700Y-2306218D03*
G54D21*
G01X2103018Y-2260600D03*
G01X2189582Y-2260600D03*
G54D27*
G01X1937735Y-1092062D03*
G01X1937735Y-1201078D03*
G01X1313600Y-1037692D03*
G01X1313600Y-1146708D03*
G54D29*
G01X758199Y-1150219D03*
G01X758199Y-1041202D03*
G01X643899Y-1150219D03*
G01X643899Y-1041202D03*
G54D21*
G01X659772Y-1305038D03*
G01X746336Y-1305038D03*
G54D29*
G01X2242455Y-1360853D03*
G01X2242455Y-1251836D03*
G54D46*
G01X1273708Y-3365500D03*
G01X1164692Y-3365500D03*
G54D44*
G01X1763446Y-2668854D03*
G01X1872463Y-2668854D03*
G01X1759737Y-2821254D03*
G01X1868754Y-2821254D03*
G54D27*
G01X2712355Y-956028D03*
G01X2712355Y-1065045D03*
G54D44*
G01X2416547Y-823745D03*
G01X2525564Y-823745D03*
G01X2416547Y-696745D03*
G01X2525564Y-696745D03*
G04 Pad End*

G04 Via Start*
G54D47*
G01X685800Y-1485900D03*
G01X736600Y-1422400D03*
G01X800100Y-1485900D03*
G01X2253400Y-1079500D03*
G01X2253400Y-990600D03*
G01X876300Y-863600D03*
G01X1135800Y-1206500D03*
G01X1085000Y-1028700D03*
G01X970700Y-952500D03*
G01X1632935Y-1222770D03*
G01X1848618Y-944982D03*
G01X1174672Y-928644D03*
G01X1643800Y-787400D03*
G01X1643800Y-876300D03*
G01X1547382Y-944982D03*
G01X1351700Y-1295400D03*
G01X1447800Y-812800D03*
G01X1574800Y-584200D03*
G01X1651000Y-584200D03*
G54D48*
G01X1508000Y-4000000D03*
G01X1792000Y-4000000D03*
G54D47*
G01X1816100Y-1536700D03*
G01X1931974Y-1536700D03*
G01X1879600Y-1485900D03*
G01X2794000Y-2984500D03*
G01X3048000Y-977900D03*
G54D49*
G01X1016000Y-3746500D03*
G01X1119162Y-3746500D03*
G01X901700Y-3746500D03*
G01X901700Y-3632200D03*
G01X1117522Y-3635872D03*
G01X1015818Y-3635872D03*
G01X1015818Y-3521044D03*
G01X1122443Y-3521044D03*
G01X901700Y-3517900D03*
G01X1016000Y-3848100D03*
G01X1121076Y-3848100D03*
G01X901700Y-3848100D03*
G01X1016000Y-3200400D03*
G01X1016000Y-3094815D03*
G01X1016000Y-2992017D03*
G01X901700Y-2997200D03*
G01X1016000Y-2882900D03*
G01X901700Y-2882900D03*
G01X1016000Y-2768600D03*
G01X901700Y-2768600D03*
G01X1016000Y-2667000D03*
G01X901700Y-2667000D03*
G01X1016000Y-2552700D03*
G01X901700Y-2552700D03*
G01X901700Y-2451100D03*
G01X1016592Y-2447110D03*
G01X1016000Y-2336800D03*
G01X901700Y-2336800D03*
G01X1016000Y-2235200D03*
G01X901700Y-2235200D03*
G01X1016000Y-2120900D03*
G01X901700Y-2120900D03*
G01X1016000Y-2019300D03*
G01X901700Y-3098800D03*
G01X901700Y-3202698D03*
G01X901700Y-2019300D03*
G54D47*
G01X1401475Y-1022770D03*
G01X939800Y-1778000D03*
G01X2806700Y-508000D03*
G01X2527300Y-1587500D03*
G01X2463800Y-1638300D03*
G01X2574330Y-1638300D03*
G01X2146300Y-673100D03*
G01X2095500Y-736600D03*
G01X2199155Y-736600D03*
G01X2153208Y-1204714D03*
G01X2679700Y-1206500D03*
G01X1397000Y-1803400D03*
G01X1193800Y-1371600D03*
G01X1601499Y-2159000D03*
G01X1601499Y-2159000D03*
G01X2006600Y-2781300D03*
G04 Via End*

G04 Track Start*
G01X2476691Y-964250D02*
G01X2377631Y-964250D01*
G54D10*
G01X643899Y-1041202D02*
G01X758199Y-1041202D01*
G01X893885Y-452105D02*
G01X922993Y-481214D01*
G01X922993Y-655305D02*
G01X897593Y-680705D01*
G54D47*
G01X2271799Y-858418D02*
G01X2377631Y-964250D01*
G01X2060045Y-858418D02*
G01X2060045Y-1265337D01*
G54D10*
G01X2253400Y-1079500D02*
G01X2298170Y-1124270D01*
G01X2712355Y-956028D02*
G01X2704133Y-964250D01*
G01X2712355Y-1065045D02*
G01X2595266Y-1065045D01*
G01X2704133Y-964250D02*
G01X2575751Y-964250D01*
G01X1002902Y-452105D02*
G01X1002902Y-511897D01*
G01X922993Y-481214D02*
G01X922993Y-655305D01*
G01X782373Y-1017027D02*
G01X758199Y-1041202D01*
G01X945300Y-1117600D02*
G01X915875Y-1147025D01*
G01X879381D01*
G01X945300Y-1028700D02*
G01X945300Y-1117600D01*
G01X879381Y-1082051D02*
G01X869232Y-1092200D01*
G01X818300D01*
G01X760281Y-1150219D01*
G01X758199D01*
G01X879381Y-1017027D02*
G01X782373Y-1017027D01*
G01X879381Y-1017027D02*
G01X933628Y-1017027D01*
G01X945300Y-1028700D02*
G01X933628Y-1017027D01*
G01X945300Y-990600D02*
G01X945300Y-1028700D01*
G01X1002902Y-511897D02*
G01X973793Y-541005D01*
G01Y-655305D01*
G01X999193Y-680705D01*
G01X999196Y-680708D02*
G01X1048396Y-680708D01*
G01X1043905Y-1147025D02*
G01X1024364Y-1147025D01*
G01X1135800Y-1206500D02*
G01X1130251Y-1212049D01*
G01X1196440Y-994490D02*
G01X1196440Y-1216340D01*
G01X1073328Y-1017027D02*
G01X1024364Y-1017027D01*
G01X1085000Y-1028700D02*
G01X1073328Y-1017027D01*
G01X1130251Y-1212049D02*
G01X1024364Y-1212049D01*
G01X1431691Y-1147764D02*
G01X1314655Y-1147764D01*
G01X1313600Y-1146708D01*
G01X970700Y-952500D02*
G01X970700Y-965200D01*
G01X945300Y-990600D01*
G01X746336Y-1305038D02*
G01X786391Y-1305038D01*
G01X879381Y-1212049D01*
G01X2060045Y-1265337D02*
G01X2027606Y-1297776D01*
G01X1934433Y-1197776D02*
G01X1831690Y-1197776D01*
G01X1882033Y-1147764D02*
G01X1937735Y-1092062D01*
G01X2298170Y-1124270D02*
G01X2377631Y-1124270D01*
G01X2308330Y-1045530D02*
G01X2377631Y-1045530D01*
G54D47*
G01X1839482Y-858418D02*
G01X1758100Y-939800D01*
G54D50*
G01X1756684Y-1022770D02*
G01X1758100Y-1022770D01*
G01Y-939800D01*
G54D10*
G01X1930719Y-944982D02*
G01X1935900Y-944982D01*
G01X1930719Y-944982D02*
G01X1848618Y-944982D01*
G54D47*
G01X2060045Y-858418D02*
G01X2271799Y-858418D01*
G54D10*
G01X2253400Y-990600D02*
G01X2308330Y-1045530D01*
G01X2247172Y-1365570D02*
G01X2242455Y-1360853D01*
G01X1507674Y-1417010D02*
G01X1507674Y-1372074D01*
G01X1555541Y-1324206D01*
G01X1937735Y-1201078D02*
G01X1934433Y-1197776D01*
G01X1196440Y-1216340D02*
G01X1327863Y-1347763D01*
G01X1431691D01*
G01X2377631Y-1365570D02*
G01X2247172Y-1365570D01*
G01X1218865Y-971035D02*
G01X1218865Y-972065D01*
G01X1313600Y-1037692D02*
G01X1503077Y-1037692D01*
G01X1834300Y-1095167D02*
G01X1831690Y-1097777D01*
G01X1503115Y-1037654D02*
G01X1503115Y-1085521D01*
G01X1550005Y-1132412D01*
G01X1351700Y-1295400D02*
G01X1429315Y-1295400D01*
G01X1431691Y-1297776D01*
G01X2595266Y-1065045D02*
G01X2575751Y-1045530D01*
G54D47*
G01X2377631Y-964250D02*
G01X2416547Y-925334D01*
G54D10*
G01X1713796Y-1147390D02*
G01X1831691Y-1147652D01*
G01X1882033Y-1147764D01*
G01X1651000Y-584200D02*
G01X1740219Y-673419D01*
G01Y-698500D01*
G01X1610882Y-698500D02*
G01X1610882Y-731418D01*
G01X1610882Y-698500D02*
G01X1612900Y-696482D01*
G01X1574800Y-584200D02*
G01X1574800Y-596900D01*
G01X1612900Y-635000D01*
G01Y-696482D01*
G01X1218865Y-972065D02*
G01X1196440Y-994490D01*
G01X876300Y-863600D02*
G01X848396Y-835696D01*
G01Y-780708D01*
G01X1048395Y-780708D02*
G01X1048395Y-887711D01*
G01X1175807Y-1015123D01*
G01X1196440Y-994490D02*
G01X1175807Y-1015123D01*
G01X1043905Y-1147025D01*
G54D47*
G01X1174672Y-781128D02*
G01X1447800Y-508000D01*
G01X1174672Y-928644D02*
G01X1174672Y-781128D01*
G54D10*
G01X1524319Y-698500D02*
G01X1524319Y-522662D01*
G01X1509656Y-508000D01*
G54D47*
G01X1837735Y-508000D02*
G01X1509656Y-508000D01*
G01X1447800D01*
G54D10*
G01X1837735Y-508000D02*
G01X1825035Y-520700D01*
G01Y-696753D01*
G01X1826782Y-698500D01*
G01X893885Y-452105D02*
G01X977690Y-368300D01*
G01X1308100Y-368300D02*
G01X1447800Y-508000D01*
G01X977690Y-368300D02*
G01X1308100Y-368300D01*
G54D47*
G01X2959100Y-2476500D02*
G01X2652801Y-2782799D01*
G01X2350199D01*
G01X2120202Y-2652801D02*
G01X2020100Y-2552700D01*
G01X1790700D01*
G01X1752600Y-2590800D01*
G01Y-2658008D01*
G01X1763446Y-2668854D01*
G01X1759737Y-2821254D02*
G01X1759737Y-2672563D01*
G01X1763446Y-2668854D01*
G01X1540877Y-2997200D02*
G01X1583792Y-2997200D01*
G01X1759737Y-2821254D01*
G54D10*
G01X2794000Y-2984500D02*
G01X2646782Y-2984500D01*
G01X2560218Y-2984500D02*
G01X2273300Y-2984500D01*
G01X2133600Y-3124200D02*
G01X2065923Y-3124200D01*
G01X2273300Y-2984500D02*
G01X2133600Y-3124200D01*
G01X2065923Y-2997200D02*
G01X2203126Y-2997200D01*
G01X2256466Y-2943860D01*
G01X2423770D01*
G01X2511476Y-2856154D01*
G01X2557539D01*
G01X2644102Y-2856154D02*
G01X2690165Y-2856154D01*
G01X3048000Y-2498319D01*
G01Y-977900D01*
G01X1164692Y-3365500D02*
G01X1164692Y-3213100D01*
G01X1155700Y-3204108D01*
G01X2065923Y-3251200D02*
G01X2287563Y-3251200D01*
G01X2323448Y-3215315D01*
G01X2492675D01*
G01X2515997Y-3191993D01*
G01X2065923Y-3378200D02*
G01X2320392Y-3378200D01*
G01X2324100Y-3374492D01*
G01X2691003Y-3412007D02*
G01X2593696Y-3314700D01*
G01X2413000D01*
G01X2353208Y-3374492D01*
G01X2324100D01*
G54D50*
G01X1164692Y-3365500D02*
G01X749300Y-3365500D01*
G54D51*
G01X863600Y-3581400D02*
G01X749300Y-3581400D01*
G54D10*
G01X897591Y-680708D02*
G01X848396Y-680708D01*
G01X1540877Y-3378200D02*
G01X1528177Y-3365500D01*
G01X1273708D01*
G01X1282700Y-3356508D01*
G01Y-3204108D01*
G01X1540877Y-3124200D02*
G01X1447800Y-3124200D01*
G01X1358900Y-3035300D01*
G01X1219200Y-2886329D02*
G01X1358900Y-3026029D01*
G01Y-3035300D01*
G01X1219200Y-2676271D02*
G01X1219200Y-2564562D01*
G01X1262482Y-2521280D01*
G01Y-2476500D01*
G54D47*
G01X2060045Y-1833673D02*
G01X1955800Y-1937918D01*
G54D10*
G01X1694282Y-1778000D02*
G01X2054813Y-1778000D01*
G01X2060045Y-1772768D01*
G54D47*
G01X2060045Y-1833673D02*
G01X2060045Y-1772768D01*
G54D10*
G01X1601499Y-1918898D02*
G01X1601499Y-1784220D01*
G01X1607718Y-1778000D01*
G01X1943100Y-2037182D02*
G01X1921379Y-2058902D01*
G01X1795504D01*
G01X1736090Y-2349500D02*
G01X1829638Y-2349500D01*
G01X1872920Y-2392782D01*
G01X1917700D01*
G01X1736090Y-2349500D02*
G01X1723390Y-2336800D01*
G01X1321077Y-2159277D02*
G01X1498600Y-2336800D01*
G01X1553210D01*
G54D47*
G01X2060045Y-1833673D02*
G01X2100000Y-1873628D01*
G54D10*
G01X2614600Y-2368296D02*
G01X2730500Y-2252396D01*
G01Y-2133600D01*
G01X2641600Y-2044700D01*
G01X2583282D01*
G01X836600Y-1701800D02*
G01X1087018Y-1701800D01*
G01X1125118Y-1739900D01*
G01X1736090Y-1625600D02*
G01X2051380Y-1625600D01*
G01X2060045Y-1616935D01*
G54D47*
G01X2060045Y-1772768D02*
G01X2060045Y-1616935D01*
G01Y-1265337D01*
G54D10*
G01X1565910Y-1625600D02*
G01X1459662Y-1625600D01*
G01X1416380Y-1668882D01*
G01X1371600D01*
G01X1371600Y-1582318D02*
G01X1206500Y-1582318D01*
G01X1087018Y-1701800D01*
G01X469900Y-1683918D02*
G01X559486Y-1683918D01*
G01X636600Y-1606804D01*
G54D47*
G01X2959100Y-493100D02*
G01X2959100Y-2476500D01*
G01X2666000Y-395212D02*
G01X2416547Y-644665D01*
G01X2370700Y-508000D02*
G01X1837735Y-508000D01*
G01X2672350Y-206350D02*
G01X2666000Y-212700D01*
G01X2370700Y-508000D01*
G01X2666000Y-200000D02*
G01X2666000Y-212700D01*
G01Y-395212D01*
G01X2666000Y-200000D02*
G01X2672350Y-206350D01*
G01X2959100Y-493100D01*
G54D10*
G01X636600Y-1606804D02*
G01X355600Y-1325804D01*
G01X355600Y-190500D02*
G01X482600Y-63500D01*
G01X1513500D01*
G01X1650000Y-200000D01*
G01X355600Y-1325804D02*
G01X355600Y-190500D01*
G01X2476691Y-1365570D02*
G01X2476691Y-1549400D01*
G01X2514791Y-1587500D01*
G01X2527300D01*
G01X2575751Y-1124270D02*
G01X2575751Y-1205550D01*
G01X2103018Y-2260600D02*
G01X2103018Y-2088108D01*
G01X1211682Y-1739900D02*
G01X1211682Y-1890928D01*
G01X1193800Y-1908810D01*
G01X1193800Y-2070100D02*
G01X1282977Y-2159277D01*
G01X1404122Y-2159277D02*
G01X1504496Y-2058902D01*
G01X1321077Y-2159277D02*
G01X1404122Y-2159277D01*
G01X1917700Y-2306218D02*
G01X1962480Y-2306218D01*
G01X2005762Y-2349500D01*
G01X2171700D01*
G01X2189582Y-2331618D01*
G01Y-2260600D01*
G01X2414600Y-2273300D02*
G01X2401900Y-2260600D01*
G01X2189582D01*
G01X2583282Y-2044700D02*
G01X2806700Y-1821282D01*
G01Y-508000D01*
G01X1504496Y-1918898D02*
G01X1397000Y-1811402D01*
G01Y-1803400D01*
G01X1193800Y-1371600D02*
G01X1193800Y-1218980D01*
G01X1196440Y-1216340D01*
G01X1601499Y-2058902D02*
G01X1601499Y-2159000D01*
G01X1943100Y-2037182D02*
G01X1943100Y-2024482D01*
G54D47*
G01X1955800Y-1937918D02*
G01X1943100Y-1937918D01*
G01X2100000Y-1873628D02*
G01X2100000Y-1914910D01*
G54D10*
G01X2103018Y-2088108D02*
G01X2100000Y-2085090D01*
G01X1282977Y-2159277D02*
G01X1321077Y-2159277D01*
G01X1193800Y-2070100D02*
G01X1193800Y-2078990D01*
G01X939800Y-1778000D02*
G01X1117600Y-1955800D01*
G01Y-2032000D01*
G01X1164590Y-2078990D01*
G01X1193800D01*
G01X1834300Y-1041400D02*
G01X1834300Y-1095167D01*
G01X1930719Y-944982D02*
G01X1834300Y-1041400D01*
G01X1831690Y-1297776D02*
G01X2027606Y-1297776D01*
G01X1832976Y-1248009D02*
G01X1831999Y-1248986D01*
G01X1712819D01*
G01X1610882Y-731418D02*
G01X1580300Y-762000D01*
G01X1427900Y-762000D02*
G01X1218865Y-971035D01*
G01X1643800Y-876300D02*
G01X1529500Y-762000D01*
G01X1580300Y-762000D02*
G01X1529500Y-762000D01*
G01X1427900D01*
G01X1447800Y-812800D02*
G01X1447800Y-845400D01*
G01X1547382Y-944982D01*
G01X2006600Y-2781300D02*
G01X2118703Y-2781300D01*
G01X2120202Y-2782799D01*
G01X2120202Y-2717800D02*
G01X2184400Y-2717800D01*
G01X2247900Y-2781300D01*
G01X2348700D01*
G01X2350199Y-2782799D01*
G54D47*
G01X2060045Y-858418D02*
G01X1935900Y-858418D01*
G01X1839482D01*
G01X2416547Y-925334D02*
G01X2416547Y-823745D01*
G01Y-696745D01*
G01Y-644665D01*
G04 Track End*

M02*
